<svg width="114" height="127" viewBox="0 0 114 127" fill="none" xmlns="http://www.w3.org/2000/svg">
<g clip-path="url(#clip0_732_20311)">
<path d="M100.505 70.6442L90.7258 64.9734L90.6523 6.56543L100.431 12.2363L100.505 70.6442Z" fill="#BBBBBB"/>
<path d="M100.431 12.2365L90.6523 6.56565L102.046 0.000976562L111.825 5.6718L100.431 12.2365Z" fill="white"/>
<path d="M103.484 0.836426V10.4636L111.824 5.67201L103.484 0.836426Z" fill="white"/>
<path d="M111.824 5.67188L111.897 64.0799L100.503 70.6445L100.43 12.2365L111.824 5.67188Z" fill="#F3F1F8"/>
<path d="M87.2615 78.2639L77.4825 72.5931L77.4531 22.7866L87.2321 28.4574L87.2615 78.2639Z" fill="#BBBBBB"/>
<g style="mix-blend-mode:screen">
<path d="M87.2321 28.4577L77.4531 22.7868L88.8472 16.2222L98.6262 21.893L87.2321 28.4577Z" fill="white"/>
</g>
<path opacity="0.95" d="M98.6246 21.8931L98.654 71.6996L87.2598 78.2642L87.2305 28.4577L98.6246 21.8931Z" fill="#F3F1F8"/>
<path d="M74.0152 85.8987L64.3978 80.2279L64.2656 37.7188L74.0446 43.3896L74.0152 85.8987Z" fill="#BBBBBB"/>
<g style="mix-blend-mode:screen">
<path d="M75.6597 31.1392L85.4387 36.81L74.0446 43.3893L64.2656 37.7185L75.6597 31.1392Z" fill="white"/>
</g>
<path opacity="0.95" d="M85.4391 36.8101L85.4244 79.3192L74.0156 85.8986L74.045 43.3894L85.4391 36.8101Z" fill="#F3F1F8"/>
<path d="M60.7868 93.5181L51.0078 87.8472L51.0519 52.1812L60.8308 57.852L60.7868 93.5181Z" fill="#BBBBBB"/>
<g style="mix-blend-mode:screen">
<path d="M60.8298 57.8522L51.0508 52.1814L62.4596 45.6167L72.2386 51.2729L60.8298 57.8522Z" fill="white"/>
</g>
<path opacity="0.95" d="M72.238 51.2729L72.194 86.9537L60.7852 93.5184L60.8292 57.8523L72.238 51.2729Z" fill="#F3F1F8"/>
<path d="M47.5575 101.152L37.7786 95.4816L37.6758 67.0542L47.4548 72.725L47.5575 101.152Z" fill="#BBBBBB"/>
<g style="mix-blend-mode:screen">
<path d="M47.4548 72.7252L37.6758 67.0544L49.0846 60.4897L58.8636 66.1606L47.4548 72.7252Z" fill="white"/>
</g>
<path opacity="0.95" d="M58.8619 66.1606L58.95 94.5734L47.5559 101.153L47.4531 72.7253L58.8619 66.1606Z" fill="#F3F1F8"/>
<path d="M34.3141 108.772L24.5352 103.101V81.2974L34.3141 86.9682V108.772Z" fill="#BBBBBB"/>
<g style="mix-blend-mode:screen">
<path d="M34.3141 86.9684L24.5352 81.2976L35.944 74.7329L45.7229 80.4037L34.3141 86.9684Z" fill="white"/>
</g>
<path opacity="0.95" d="M45.7213 80.4033V102.193L34.3125 108.772V86.968L45.7213 80.4033Z" fill="#F3F1F8"/>
<path d="M21.0837 116.392L11.3047 110.721L11.3341 95.687L21.113 101.358L21.0837 116.392Z" fill="#BBBBBB"/>
<g style="mix-blend-mode:screen">
<path d="M21.1149 101.358L11.3359 95.6867L22.7447 89.1074L32.5237 94.7929L21.1149 101.358Z" fill="white"/>
</g>
<path opacity="0.95" d="M32.5202 94.793L32.4908 109.827L21.082 116.392L21.1114 101.358L32.5202 94.793Z" fill="#F3F1F8"/>
<path d="M109.302 44.9864L103.59 41.6748L104.001 41.8946L109.713 45.2209L109.302 44.9864Z" fill="#4247BE"/>
<path d="M86.7039 76.4031L80.9922 73.0915L88.0695 60.6655L93.7812 63.9772L86.7039 76.4031Z" fill="#391D76"/>
<path d="M93.7782 63.977L88.0664 60.6654L94.9381 56.709L100.65 60.0206L93.7782 63.977Z" fill="#9250E7"/>
<path d="M71.8133 91.7452L66.1016 88.4335L72.0042 78.2642L77.7159 81.5758L71.8133 91.7452Z" fill="#391D76"/>
<path d="M77.7157 81.576L72.0039 78.2644L80.99 73.0918L86.7017 76.4034L77.7157 81.576Z" fill="#9250E7"/>
<path d="M61.9305 97.4307L56.2188 94.1191L66.1005 88.4336L71.8123 91.7452L61.9305 97.4307Z" fill="#9250E7"/>
<path d="M57.7196 104.713L52.0078 101.402L56.2219 94.1191L61.9336 97.4308L57.7196 104.713Z" fill="#391D76"/>
<path d="M39.0994 127.001L33.3877 123.69L32.9766 123.455L38.6883 126.767L39.0994 127.001Z" fill="#653AAA"/>
<path d="M38.6883 126.766L32.9766 123.455L42.594 106.823L48.3058 110.135L38.6883 126.766Z" fill="#391D76"/>
<path d="M109.299 44.9863L109.71 45.2208L100.9 60.5481L94.0136 64.5045L86.9363 76.9158L77.9502 82.0884L72.0476 92.2725L62.1805 97.9579L57.9518 105.241L48.5399 110.662L39.0986 127.001L38.6875 126.766L48.305 110.135L57.7169 104.713L61.9309 97.4304L71.8127 91.745L77.7153 81.5756L86.7014 76.403L93.7787 63.977L100.65 60.0206L109.299 44.9863Z" fill="#4C50D8"/>
<path d="M48.3055 110.135L42.5938 106.824L52.0056 101.402L57.7174 104.714L48.3055 110.135Z" fill="#9250E7"/>
<path d="M114 30.5093L99.6987 39.6236L103.502 41.8216L94.9414 56.7093L100.653 60.021L109.228 45.1186L113.985 47.8588L114 30.5093Z" fill="#391D76"/>
<g clip-path="url(#clip1_732_20311)">
<path d="M64.8168 81.518C64.4807 82.2103 60.8692 89.913 57.375 97.9147C57.3798 97.9301 57.3798 97.9465 57.375 97.9619L96.8119 74.964C96.8119 74.964 96.8119 74.964 96.8588 74.9168C100.345 66.9072 103.957 59.1809 104.301 58.52L64.8168 81.518Z" fill="#191715"/>
<path d="M106.872 63.359L104.855 58.5045C104.834 58.4648 104.808 58.4278 104.777 58.3944C104.751 58.3652 104.719 58.3412 104.683 58.3236L104.183 58.001C104.128 58.001 104.081 58.001 104.05 58.001L64.5508 81.0146C64.5702 81.0049 64.5916 80.9999 64.6133 80.9999C64.635 80.9999 64.6564 81.0049 64.6759 81.0146L65.1918 81.3136C65.2223 81.3348 65.2511 81.3585 65.2778 81.3844L65.3481 81.4946L67.3649 86.3255C67.3916 86.362 67.406 86.4061 67.406 86.4514C67.406 86.4967 67.3916 86.5408 67.3649 86.5773L106.841 63.6029C106.903 63.5715 106.911 63.5085 106.872 63.359Z" fill="#373431"/>
<path d="M67.3667 86.3254L65.3499 81.4787C65.3179 81.4014 65.2634 81.3356 65.1936 81.2899L64.6777 80.9909C64.6674 80.9792 64.6548 80.9698 64.6406 80.9634C64.6265 80.9569 64.6111 80.9536 64.5956 80.9536C64.5801 80.9536 64.5647 80.9569 64.5506 80.9634C64.5364 80.9698 64.5238 80.9792 64.5135 80.9909C64.5135 81.0381 60.8161 88.788 57.017 97.5135C57.003 97.574 57.005 97.637 57.0229 97.6964C57.0407 97.7558 57.0737 97.8094 57.1186 97.8519L57.1812 97.9069C57.2515 97.9069 57.3219 97.9069 57.3531 97.8676C60.8473 89.8659 64.4588 82.1318 64.7949 81.4708L65.092 81.6439L67.4371 87.1515C67.4499 86.8742 67.4263 86.5964 67.3667 86.3254Z" fill="#1E1B19"/>
<path d="M71.4634 119.001L70.924 118.686C70.1423 116.687 69.1026 116.585 67.6096 116.758L67.2422 116.546V86.0655L82.8762 81.9033L71.4634 119.001Z" fill="#1E1B19"/>
<path d="M111.003 96.0262L71.4648 119.001V88.5202L111.003 65.5459V96.0262Z" fill="#2D2B29"/>
<path d="M71.4634 88.5204L67.2422 86.0656L106.773 63.0913L111.002 65.5461L71.4634 88.5204Z" fill="#373431"/>
<path d="M68.0391 86.0658L106.772 63.5557L110.204 65.5462L71.4629 88.0564L68.0391 86.0658Z" fill="#191715"/>
<path d="M79.2465 101.991L78.6055 101.613V97.5137L79.2465 97.8913V101.991Z" fill="#B6B5B3"/>
<path d="M84.2255 99.0948L79.2461 101.99V97.891L84.2255 94.9956V99.0948Z" fill="#E0DED7"/>
<path d="M79.2465 97.8912L78.6055 97.5136L83.5849 94.6182L84.2259 94.9958L79.2465 97.8912Z" fill="url(#paint0_linear_732_20311)"/>
<path d="M100.438 89.6775L99.7969 89.2999V85.2007L100.438 85.5705V89.6775Z" fill="#B6B5B3"/>
<path d="M105.417 86.7819L100.438 89.6773V85.5702L105.417 82.6748V86.7819Z" fill="#E0DED7"/>
<path d="M100.438 85.5704L99.7969 85.2006L104.776 82.3052L105.417 82.675L100.438 85.5704Z" fill="url(#paint1_linear_732_20311)"/>
</g>
</g>
<defs>
<linearGradient id="paint0_linear_732_20311" x1="78.6055" y1="96.2547" x2="84.2259" y2="96.2547" gradientUnits="userSpaceOnUse">
<stop stop-color="#F0EFEC"/>
<stop offset="1" stop-color="#F7F6F3"/>
</linearGradient>
<linearGradient id="paint1_linear_732_20311" x1="99.7969" y1="83.9417" x2="105.417" y2="83.9417" gradientUnits="userSpaceOnUse">
<stop stop-color="#F0EFEC"/>
<stop offset="1" stop-color="#F7F6F3"/>
</linearGradient>
<clipPath id="clip0_732_20311">
<rect width="114" height="127" fill="white" transform="translate(0 0.000976562)"/>
</clipPath>
<clipPath id="clip1_732_20311">
<rect width="54" height="61" fill="white" transform="translate(57 58.001)"/>
</clipPath>
</defs>
</svg>
