<svg width="233" height="107" viewBox="0 0 233 107" fill="none" xmlns="http://www.w3.org/2000/svg">
<path d="M221.581 69.6819C220.944 69.6831 220.318 69.5155 219.766 69.1963L213.642 65.6608C213.468 65.5618 213.324 65.4185 213.223 65.2456C213.123 65.0728 213.07 64.8764 213.07 64.6764C213.07 64.4765 213.123 64.2801 213.223 64.1072C213.324 63.9343 213.468 63.7911 213.642 63.692L219.766 60.1514C220.321 59.8305 220.951 59.6616 221.592 59.6616C222.233 59.6616 222.862 59.8305 223.418 60.1514L229.537 63.692C229.71 63.7911 229.854 63.9343 229.955 64.1072C230.055 64.2801 230.108 64.4765 230.108 64.6764C230.108 64.8764 230.055 65.0728 229.955 65.2456C229.854 65.4185 229.71 65.5618 229.537 65.6608L223.397 69.2119C222.843 69.5241 222.217 69.6861 221.581 69.6819ZM220.251 68.3555C220.655 68.5892 221.114 68.7123 221.581 68.7123C222.048 68.7123 222.507 68.5892 222.912 68.3555L229.031 64.8148C229.056 64.8013 229.078 64.781 229.092 64.7561C229.107 64.7312 229.115 64.7027 229.114 64.6738C229.114 64.645 229.106 64.6168 229.092 64.592C229.077 64.5672 229.056 64.5468 229.031 64.5328L222.912 60.9974C222.506 60.7637 222.047 60.6407 221.579 60.6407C221.111 60.6407 220.651 60.7637 220.246 60.9974L214.127 64.5119C214.101 64.5259 214.08 64.5463 214.066 64.5711C214.051 64.5959 214.043 64.6241 214.043 64.6529C214.043 64.6819 214.05 64.7103 214.065 64.7352C214.08 64.7601 214.101 64.7804 214.127 64.7939L220.251 68.3555Z" fill="url(#paint0_linear_842_750)"/>
<path d="M124.455 106.436C123.419 106.438 122.4 106.166 121.502 105.648L110.965 99.5585C110.722 99.4168 110.521 99.2141 110.381 98.9703C110.242 98.7266 110.168 98.4505 110.168 98.1694C110.168 97.8884 110.242 97.6122 110.381 97.3685C110.521 97.1248 110.722 96.922 110.965 96.7803L121.502 90.6912C122.399 90.1728 123.417 89.8999 124.452 89.8999C125.488 89.8999 126.506 90.1728 127.402 90.6912L137.94 96.7803C138.184 96.9209 138.386 97.1234 138.527 97.3672C138.668 97.6111 138.742 97.8878 138.742 98.1694C138.742 98.4511 138.668 98.7278 138.527 98.9716C138.386 99.2155 138.184 99.4179 137.94 99.5585L127.402 105.648C126.506 106.166 125.49 106.438 124.455 106.436ZM124.455 90.874C123.589 90.8731 122.738 91.1 121.988 91.532L111.455 97.6211C111.359 97.6764 111.278 97.7562 111.223 97.8525C111.167 97.9488 111.138 98.0581 111.138 98.1694C111.138 98.2807 111.167 98.39 111.223 98.4863C111.278 98.5826 111.359 98.6624 111.455 98.7178L121.977 104.807C122.727 105.238 123.577 105.465 124.442 105.465C125.307 105.465 126.157 105.238 126.907 104.807L137.445 98.7178C137.541 98.6624 137.621 98.5826 137.677 98.4863C137.733 98.39 137.762 98.2807 137.762 98.1694C137.762 98.0581 137.733 97.9488 137.677 97.8525C137.621 97.7562 137.541 97.6764 137.445 97.6211L126.907 91.532C126.161 91.1017 125.316 90.8748 124.455 90.874Z" fill="url(#paint1_linear_842_750)"/>
<path opacity="0.3" d="M121.75 105.246L111.213 99.1564C111.043 99.0592 110.901 98.9186 110.803 98.7489C110.704 98.5793 110.652 98.3865 110.652 98.1903C110.652 97.9941 110.704 97.8014 110.803 97.6317C110.901 97.4621 111.043 97.3215 111.213 97.2242L121.75 91.1299C122.574 90.6552 123.508 90.4053 124.458 90.4053C125.408 90.4053 126.342 90.6552 127.165 91.1299L137.703 97.2242C137.872 97.3226 138.012 97.4635 138.11 97.633C138.207 97.8026 138.258 97.9947 138.258 98.1903C138.258 98.3859 138.207 98.5781 138.11 98.7476C138.012 98.9172 137.872 99.0581 137.703 99.1564L127.165 105.246C126.343 105.723 125.409 105.974 124.458 105.974C123.507 105.974 122.573 105.723 121.75 105.246Z" fill="url(#paint2_linear_842_750)"/>
<path d="M25.4223 74.3768C23.6625 74.3773 21.9336 73.9145 20.4091 73.0347L2.08291 62.4231C1.69641 62.1979 1.37568 61.8752 1.15275 61.4871C0.929824 61.099 0.8125 60.6592 0.8125 60.2115C0.8125 59.7638 0.929824 59.324 1.15275 58.9359C1.37568 58.5478 1.69641 58.2251 2.08291 57.9999L20.4091 47.4092C21.9343 46.5313 23.6629 46.0693 25.4223 46.0693C27.1817 46.0693 28.9103 46.5313 30.4355 47.4092L48.7616 57.9999C49.1481 58.2251 49.4689 58.5478 49.6918 58.9359C49.9147 59.324 50.0321 59.7638 50.0321 60.2115C50.0321 60.6592 49.9147 61.099 49.6918 61.4871C49.4689 61.8752 49.1481 62.1979 48.7616 62.4231L30.4355 73.0138C28.913 73.9009 27.1839 74.371 25.4223 74.3768ZM25.4223 47.3048C23.8767 47.305 22.3583 47.712 21.0194 48.485L2.69326 59.0757C2.49074 59.1931 2.32262 59.3618 2.20575 59.5649C2.08887 59.7679 2.02736 59.9981 2.02736 60.2324C2.02736 60.4667 2.08887 60.6969 2.20575 60.8999C2.32262 61.1029 2.49074 61.2716 2.69326 61.3891L21.0194 71.9798C22.3594 72.7524 23.8786 73.1591 25.4249 73.1591C26.9712 73.1591 28.4904 72.7524 29.8304 71.9798L48.1513 61.3787C48.3538 61.2612 48.5219 61.0925 48.6388 60.8895C48.7557 60.6865 48.8172 60.4563 48.8172 60.222C48.8172 59.9876 48.7557 59.7574 48.6388 59.5544C48.5219 59.3514 48.3538 59.1827 48.1513 59.0652L29.8251 48.4746C28.4852 47.7052 26.9669 47.3019 25.4223 47.3048Z" fill="url(#paint3_linear_842_750)"/>
<path d="M58.7687 30.3063C57.3365 30.3097 55.9289 29.9331 54.6893 29.2149L39.7748 20.5982C39.4658 20.4126 39.2101 20.1501 39.0326 19.8362C38.855 19.5223 38.7617 19.1677 38.7617 18.807C38.7617 18.4463 38.855 18.0917 39.0326 17.7778C39.2101 17.4639 39.4658 17.2014 39.7748 17.0158L54.6841 8.39389C55.9246 7.68055 57.3303 7.30518 58.7609 7.30518C60.1915 7.30518 61.5972 7.68055 62.8377 8.39389L77.7522 17.0158C78.0612 17.2014 78.3169 17.4639 78.4944 17.7778C78.672 18.0917 78.7653 18.4463 78.7653 18.807C78.7653 19.1677 78.672 19.5223 78.4944 19.8362C78.3169 20.1501 78.0612 20.4126 77.7522 20.5982L62.8377 29.2149C61.6012 29.9315 60.1975 30.3081 58.7687 30.3063ZM55.1744 28.3741C56.2673 29.0027 57.5057 29.3335 58.7661 29.3335C60.0265 29.3335 61.2649 29.0027 62.3578 28.3741L77.2722 19.7522C77.4392 19.6568 77.578 19.5189 77.6745 19.3524C77.7711 19.1859 77.8219 18.9969 77.8219 18.8044C77.8219 18.6119 77.7711 18.4229 77.6745 18.2564C77.578 18.0899 77.4392 17.952 77.2722 17.8566L62.3578 9.23467C61.2649 8.60607 60.0265 8.27528 58.7661 8.27528C57.5057 8.27528 56.2673 8.60607 55.1744 9.23467L40.26 17.8566C40.093 17.952 39.9542 18.0899 39.8577 18.2564C39.7611 18.4229 39.7103 18.6119 39.7103 18.8044C39.7103 18.9969 39.7611 19.1859 39.8577 19.3524C39.9542 19.5189 40.093 19.6568 40.26 19.7522L55.1744 28.3741Z" fill="url(#paint4_linear_842_750)"/>
<path opacity="0.3" d="M54.934 28.7973L40.0144 20.1754C39.7698 20.0399 39.5659 19.8413 39.4239 19.6002C39.2819 19.3591 39.207 19.0844 39.207 18.8045C39.207 18.5247 39.2819 18.2499 39.4239 18.0089C39.5659 17.7678 39.7698 17.5692 40.0144 17.4337L54.934 8.81181C56.0994 8.13952 57.4207 7.78564 58.7657 7.78564C60.1107 7.78564 61.432 8.13952 62.5973 8.81181L77.517 17.4337C77.7616 17.5692 77.9655 17.7678 78.1075 18.0089C78.2495 18.2499 78.3243 18.5247 78.3243 18.8045C78.3243 19.0844 78.2495 19.3591 78.1075 19.6002C77.9655 19.8413 77.7616 20.0399 77.517 20.1754L62.5973 28.7973C61.432 29.4695 60.1107 29.8234 58.7657 29.8234C57.4207 29.8234 56.0994 29.4695 54.934 28.7973Z" fill="url(#paint5_linear_842_750)"/>
<path d="M204.559 51.6132C202.579 51.6127 200.635 51.0923 198.919 50.1039L177.917 37.9623C177.504 37.7248 177.161 37.3824 176.923 36.9698C176.684 36.5572 176.559 36.089 176.559 35.6123C176.559 35.1356 176.684 34.6673 176.923 34.2547C177.161 33.8421 177.504 33.4998 177.917 33.2623L198.919 21.1206C200.635 20.1327 202.579 19.6128 204.559 19.6128C206.538 19.6128 208.482 20.1327 210.198 21.1206L231.2 33.2623C231.613 33.4998 231.956 33.8421 232.195 34.2547C232.433 34.6673 232.559 35.1356 232.559 35.6123C232.559 36.089 232.433 36.5572 232.195 36.9698C231.956 37.3824 231.613 37.7248 231.2 37.9623L210.198 50.1039C208.483 51.093 206.538 51.6135 204.559 51.6132ZM199.405 49.2632C200.972 50.1663 202.75 50.6416 204.559 50.6416C206.368 50.6416 208.145 50.1663 209.713 49.2632L230.715 37.1215C230.979 36.9689 231.199 36.7494 231.352 36.4849C231.504 36.2204 231.585 35.9203 231.585 35.6149C231.585 35.3094 231.504 35.0093 231.352 34.7449C231.199 34.4804 230.979 34.2608 230.715 34.1083L209.713 21.9666C208.144 21.066 206.367 20.5921 204.559 20.5921C202.75 20.5921 200.973 21.066 199.405 21.9666L178.402 34.1083C178.138 34.2608 177.918 34.4804 177.766 34.7449C177.613 35.0093 177.533 35.3094 177.533 35.6149C177.533 35.9203 177.613 36.2204 177.766 36.4849C177.918 36.7494 178.138 36.9689 178.402 37.1215L199.405 49.2632Z" fill="url(#paint6_linear_842_750)"/>
<path d="M116.7 32.5471L130.117 40.3021C130.552 40.5236 131.033 40.6391 131.521 40.6391C132.008 40.6391 132.489 40.5236 132.924 40.3021C133.701 39.8582 133.696 39.1323 132.924 38.6832L119.501 30.9282C119.068 30.7068 118.588 30.5913 118.101 30.5913C117.614 30.5913 117.134 30.7068 116.7 30.9282C115.923 31.3721 115.923 32.098 116.7 32.5471Z" fill="#E8975B"/>
<path opacity="0.6" d="M110.821 34.3227C110.049 34.7718 110.049 35.4977 110.821 35.9415L131.469 47.8743C131.903 48.0958 132.384 48.2113 132.872 48.2113C133.36 48.2113 133.841 48.0958 134.275 47.8743C135.047 47.4304 135.047 46.7045 134.275 46.2554L113.633 34.3227C113.198 34.1003 112.716 33.9844 112.227 33.9844C111.738 33.9844 111.257 34.1003 110.821 34.3227Z" fill="#E8975B"/>
<path d="M104.946 39.3411L109.083 41.7329C109.518 41.9544 109.999 42.0698 110.486 42.0698C110.974 42.0698 111.455 41.9544 111.89 41.7329C112.662 41.2838 112.662 40.5579 111.89 40.114L107.748 37.717C107.313 37.4992 106.833 37.3857 106.347 37.3857C105.861 37.3857 105.381 37.4992 104.946 37.717C104.169 38.1661 104.169 38.892 104.946 39.3411Z" fill="#E8975B"/>
<path d="M99.0673 42.7356L110.753 49.488C111.187 49.7095 111.668 49.8249 112.156 49.8249C112.644 49.8249 113.125 49.7095 113.559 49.488C114.331 49.0441 114.331 48.3182 113.559 47.8691L101.874 41.1167C101.439 40.8952 100.958 40.7798 100.471 40.7798C99.9829 40.7798 99.502 40.8952 99.0673 41.1167C98.2953 41.5606 98.2953 42.2865 99.0673 42.7356Z" fill="#E82B88"/>
<path d="M128.688 51.4566C129.465 51.0074 129.465 50.2816 128.688 49.8377L117.003 43.0801C116.567 42.8614 116.087 42.7476 115.6 42.7476C115.112 42.7476 114.632 42.8614 114.196 43.0801C113.424 43.5292 113.424 44.2551 114.196 44.7042L125.882 51.4566C126.316 51.6781 126.797 51.7935 127.285 51.7935C127.773 51.7935 128.253 51.6781 128.688 51.4566Z" fill="#E8975B"/>
<path opacity="0.6" d="M137.837 55.1123L137.149 54.7154L133.831 52.7989C133.396 52.5774 132.915 52.4619 132.428 52.4619C131.94 52.4619 131.459 52.5774 131.024 52.7989C130.252 53.2428 130.252 53.9686 131.024 54.4178L134.347 56.3395L135.031 56.7364L138.354 58.653C138.788 58.8744 139.268 58.9899 139.754 58.9899C140.241 58.9899 140.721 58.8744 141.155 58.653C141.932 58.2039 141.932 57.478 141.155 57.0341L137.837 55.1123Z" fill="#E8975B"/>
<path d="M200.329 1.79308C200.714 1.5972 201.141 1.49512 201.573 1.49512C202.005 1.49512 202.432 1.5972 202.817 1.79308L204.043 2.50852C204.732 2.90541 204.732 3.55297 204.043 3.94464C203.658 4.14051 203.231 4.24259 202.799 4.24259C202.367 4.24259 201.94 4.14051 201.555 3.94464L200.329 3.22919C199.64 2.8323 199.64 2.18997 200.329 1.79308Z" fill="#E8975B"/>
<path d="M188.684 1.2344C189.07 1.03888 189.497 0.937012 189.931 0.937012C190.364 0.937012 190.791 1.03888 191.177 1.2344L198.71 5.58973C199.394 5.98662 199.394 6.63418 198.71 7.03106C198.325 7.22694 197.898 7.32903 197.466 7.32903C197.034 7.32903 196.607 7.22694 196.222 7.03106L188.689 2.67573C187.995 2.27884 187.995 1.63651 188.684 1.2344Z" fill="#E8975B"/>
<path d="M165.47 18.6612C165.855 18.4641 166.281 18.3613 166.714 18.3613C167.146 18.3613 167.573 18.4641 167.958 18.6612L172.027 21.0164C172.716 21.4133 172.716 22.0609 172.027 22.4525C171.641 22.6484 171.215 22.7505 170.783 22.7505C170.35 22.7505 169.924 22.6484 169.539 22.4525L165.47 20.1025C164.781 19.7004 164.781 19.079 165.47 18.6612Z" fill="#E8975B"/>
<path opacity="0.4" d="M171.311 15.8672C171.698 15.6717 172.125 15.5698 172.558 15.5698C172.991 15.5698 173.418 15.6717 173.805 15.8672L177.363 17.9248C178.051 18.3217 178.051 18.9692 177.363 19.3661C176.977 19.562 176.551 19.6641 176.119 19.6641C175.686 19.6641 175.26 19.562 174.874 19.3661L171.311 17.3085C170.628 16.9117 170.623 16.2641 171.311 15.8672Z" fill="#E8975B"/>
<path opacity="0.4" d="M163.962 5.43855C164.347 5.24145 164.773 5.13867 165.206 5.13867C165.639 5.13867 166.065 5.24145 166.45 5.43855L182.7 14.8385C183.389 15.2354 183.389 15.883 182.7 16.2747C182.314 16.4705 181.888 16.5726 181.456 16.5726C181.023 16.5726 180.597 16.4705 180.212 16.2747L163.962 6.87466C163.273 6.47777 163.273 5.83544 163.962 5.43855Z" fill="#E8975B"/>
<path d="M179.61 8.32629C179.996 8.13041 180.422 8.02832 180.854 8.02832C181.287 8.02832 181.713 8.13041 182.099 8.32629L188.035 11.7677C188.724 12.1646 188.724 12.8122 188.035 13.2091C187.649 13.4046 187.221 13.5065 186.788 13.5065C186.355 13.5065 185.928 13.4046 185.542 13.2091L179.61 9.77806C178.922 9.37073 178.922 8.72317 179.61 8.32629Z" fill="#E8975B"/>
<path d="M187.321 6.61872C187.706 6.42037 188.132 6.31689 188.565 6.31689C188.998 6.31689 189.425 6.42037 189.809 6.61872L193.372 8.67627C194.056 9.07316 194.056 9.72072 193.372 10.1124C192.986 10.3079 192.559 10.4098 192.126 10.4098C191.693 10.4098 191.265 10.3079 190.879 10.1124L187.321 8.05483C186.633 7.65794 186.633 7.01561 187.321 6.61872Z" fill="#E8975B"/>
<path d="M168.313 20.2902C168.699 20.0943 169.125 19.9922 169.557 19.9922C169.99 19.9922 170.416 20.0943 170.802 20.2902L172.028 21.0056C172.716 21.4025 172.716 22.05 172.028 22.4469C171.642 22.6428 171.216 22.7449 170.783 22.7449C170.351 22.7449 169.925 22.6428 169.539 22.4469L168.313 21.7315C167.625 21.3346 167.625 20.687 168.313 20.2902Z" fill="#E8975B"/>
<path opacity="0.4" d="M147.958 14.6818C148.343 14.4859 148.77 14.3838 149.202 14.3838C149.634 14.3838 150.061 14.4859 150.446 14.6818L166.691 24.0818C167.38 24.4786 167.38 25.1262 166.691 25.5179C166.305 25.7137 165.879 25.8158 165.447 25.8158C165.014 25.8158 164.588 25.7137 164.203 25.5179L147.958 16.1179C147.269 15.7262 147.269 15.0839 147.958 14.6818Z" fill="#E8975B"/>
<path d="M146.591 20.0655C146.976 19.8697 147.402 19.7676 147.835 19.7676C148.267 19.7676 148.693 19.8697 149.079 20.0655L161.359 27.173C162.042 27.5699 162.042 28.2174 161.359 28.6143C160.972 28.8098 160.545 28.9117 160.112 28.9117C159.679 28.9117 159.252 28.8098 158.865 28.6143L146.591 21.5017C145.902 21.1048 145.902 20.4624 146.591 20.0655Z" fill="#E8975B"/>
<path d="M169.826 44.1456C169.596 43.5555 169.304 42.9706 169.028 42.3857C168.808 44.412 167.984 46.4434 167.009 48.4748C167.168 49.7958 167.152 51.1321 166.962 52.449L164.619 53.2897L158.198 59.593L149.627 63.9901L139.762 67.442L128.238 69.5047H118.363L106.725 67.3636L93.3233 63.9901L82.6187 56.538L78.4454 52.8302C78.3086 52.0227 78.2388 51.2052 78.2367 50.3862C77.2239 48.144 76.4121 45.8162 75.8109 43.4302C75.6805 43.7331 75.5553 44.036 75.4458 44.3441L74.3398 42.4327V50.7883C74.5589 57.7652 79.2644 64.7003 88.477 70.027C107.351 80.9362 137.957 80.9362 156.815 70.027C166.294 64.5488 171.005 57.3578 170.958 50.1825V42.4536L169.826 44.1456Z" fill="url(#paint7_radial_842_750)"/>
<path d="M91.2369 32.1032C108.598 22.0713 136.747 22.0713 154.108 32.1032C162.001 36.6622 166.294 42.5111 167.009 48.4748C167.979 46.4434 168.809 44.412 169.028 42.3857C168.532 41.4007 167.96 40.4561 167.317 39.5605L168.715 39.4352L161.829 27.3875L141.661 17.6951L123.481 15.46L107.935 17.4131L98.0707 19.2774L90.0683 23.0061L81.8103 29.0691L77.7152 37.174L77.1936 40.8295C76.6774 41.6658 76.2223 42.5385 75.832 43.4406C76.4256 45.8313 77.2304 48.1644 78.2369 50.4123C78.1587 43.7853 82.5042 37.1531 91.2369 32.1032Z" fill="url(#paint8_radial_842_750)"/>
<path opacity="0.5" d="M122.671 71.1601C147.224 71.1601 167.128 59.6568 167.128 45.4668C167.128 31.2767 147.224 19.7734 122.671 19.7734C98.1187 19.7734 78.2148 31.2767 78.2148 45.4668C78.2148 59.6568 98.1187 71.1601 122.671 71.1601Z" fill="url(#paint9_radial_842_750)"/>
<path d="M156.851 22.6927C137.972 11.7834 107.371 11.7834 88.5128 22.6927C69.6546 33.6019 69.6389 51.2896 88.5128 62.1988C107.387 73.108 137.993 73.108 156.851 62.1988C175.709 51.2896 175.709 33.6019 156.851 22.6927ZM154.107 60.6164C136.746 70.6483 108.602 70.6483 91.2359 60.6164C73.8697 50.5845 73.8749 34.3121 91.2359 24.2802C108.597 14.2483 136.746 14.2431 154.107 24.2802C171.468 34.3173 171.468 50.5793 154.107 60.6164Z" fill="url(#paint10_radial_842_750)"/>
<path opacity="0.3" d="M91.2353 28.9121C83.5773 33.3353 79.2996 38.9806 78.4023 44.7616C79.3048 50.5478 83.5773 56.1878 91.2353 60.6162C108.602 70.6481 136.746 70.6481 154.107 60.6162C161.77 56.1878 166.042 50.5478 166.945 44.7616C166.042 38.9806 161.765 33.3406 154.107 28.9121C136.746 18.875 108.596 18.875 91.2353 28.9121Z" fill="url(#paint11_radial_842_750)"/>
<path d="M215.17 105.95C214.648 105.952 214.135 105.815 213.683 105.554L153.426 70.7214C153.087 70.5252 152.79 70.2642 152.552 69.9532C152.314 69.6422 152.139 69.2874 152.038 68.9089C151.937 68.5304 151.912 68.1357 151.963 67.7473C152.015 67.359 152.142 66.9845 152.338 66.6454C152.534 66.3063 152.795 66.0091 153.105 65.7709C153.416 65.5326 153.77 65.3579 154.148 65.2568C154.527 65.1557 154.921 65.1302 155.309 65.1816C155.697 65.233 156.071 65.3604 156.409 65.5566L216.662 100.389C217.229 100.718 217.671 101.224 217.921 101.831C218.171 102.437 218.215 103.109 218.045 103.742C217.875 104.375 217.501 104.935 216.982 105.334C216.462 105.733 215.825 105.95 215.17 105.95Z" fill="url(#paint12_radial_842_750)"/>
<path opacity="0.6" d="M156.409 65.5566C156.07 65.3603 155.696 65.2327 155.308 65.1811C154.92 65.1296 154.525 65.1552 154.147 65.2564C153.769 65.3576 153.414 65.5324 153.104 65.7709C152.793 66.0094 152.532 66.3068 152.337 66.6462C152.141 66.9856 152.014 67.3603 151.963 67.7489C151.912 68.1374 151.938 68.5322 152.039 68.9107C152.141 69.2892 152.316 69.6439 152.555 69.9546C152.793 70.2653 153.091 70.5259 153.43 70.7214L157.77 73.2333C157.77 73.2333 156.205 69.2331 160.874 68.1416L156.409 65.5566Z" fill="#020230"/>
<path d="M66.7547 62.0523C67.1394 61.8565 67.5648 61.7544 67.9963 61.7544C68.4278 61.7544 68.8532 61.8565 69.2379 62.0523L85.4095 71.4523C86.0929 71.844 86.0929 72.4967 85.4095 72.8832C85.0249 73.079 84.5995 73.1811 84.168 73.1811C83.7364 73.1811 83.311 73.079 82.9264 72.8832L66.7547 63.4832C66.0713 63.0915 66.0713 62.4492 66.7547 62.0523Z" fill="#E8975B"/>
<path d="M43.6258 79.4111C44.0095 79.2153 44.4341 79.1133 44.8648 79.1133C45.2955 79.1133 45.72 79.2153 46.1037 79.4111L58.8585 86.7901C59.5419 87.187 59.5419 87.8346 58.8585 88.221C58.4739 88.4168 58.0484 88.5189 57.6169 88.5189C57.1854 88.5189 56.76 88.4168 56.3754 88.221L43.6258 80.8472C42.9372 80.4503 42.9372 79.808 43.6258 79.4111Z" fill="#E8975B"/>
<path opacity="0.5" d="M58.1258 81.6671C58.5105 81.4712 58.9359 81.3691 59.3674 81.3691C59.7989 81.3691 60.2243 81.4712 60.6089 81.6671L64.1563 83.7142C64.8397 84.111 64.8397 84.7586 64.1563 85.1503C63.7726 85.346 63.348 85.4481 62.9173 85.4481C62.4866 85.4481 62.0621 85.346 61.6784 85.1503L58.1258 83.0979C57.4424 82.701 57.4424 82.0639 58.1258 81.6671Z" fill="#E8975B"/>
<path d="M59.4891 76.3038C59.8737 76.1079 60.2991 76.0059 60.7307 76.0059C61.1622 76.0059 61.5876 76.1079 61.9722 76.3038L69.4738 80.6434C70.1624 81.0403 70.1624 81.6879 69.4738 82.0743C69.0901 82.2701 68.6655 82.3722 68.2348 82.3722C67.8042 82.3722 67.3796 82.2701 66.9959 82.0743L59.4891 77.7399C58.8057 77.343 58.8057 76.7006 59.4891 76.3038Z" fill="#E8975B"/>
<path d="M66.3954 74.1524C66.78 73.9566 67.2054 73.8545 67.6369 73.8545C68.0684 73.8545 68.4939 73.9566 68.8785 74.1524L74.7942 77.5677C75.4776 77.9646 75.4776 78.6122 74.7942 79.0039C74.4096 79.1997 73.9841 79.3018 73.5526 79.3018C73.1211 79.3018 72.6957 79.1997 72.311 79.0039L66.3954 75.5833C65.712 75.1916 65.712 74.5493 66.3954 74.1524Z" fill="#E8975B"/>
<path opacity="0.5" d="M65.3914 67.4102C65.7769 67.2172 66.202 67.1167 66.633 67.1167C67.064 67.1167 67.4891 67.2172 67.8746 67.4102L80.1077 74.4968C80.791 74.8937 80.791 75.5412 80.1077 75.9329C79.7222 76.1259 79.2971 76.2264 78.8661 76.2264C78.4351 76.2264 78.01 76.1259 77.6245 75.9329L65.3914 68.8463C64.7081 68.4494 64.7081 67.8071 65.3914 67.4102Z" fill="#E82B88"/>
<path d="M46.4568 81.0403C47.1402 80.6434 56.9319 85.6777 57.6205 86.0746L58.8412 86.7848C59.5246 87.1817 59.5246 87.8292 58.8412 88.2209C58.4557 88.4139 58.0306 88.5144 57.5996 88.5144C57.1686 88.5144 56.7435 88.4139 56.3581 88.2209L55.1373 87.4898C54.454 87.1086 45.7682 81.432 46.4568 81.0403Z" fill="#E8975B"/>
<path d="M43.536 85.5211C43.9206 85.3252 44.346 85.2231 44.7775 85.2231C45.2091 85.2231 45.6345 85.3252 46.0191 85.5211L53.5259 89.8555C54.2093 90.2524 54.2093 90.8999 53.5259 91.2916C53.1413 91.4874 52.7158 91.5895 52.2843 91.5895C51.8528 91.5895 51.4274 91.4874 51.0428 91.2916L43.536 86.9676C42.8526 86.5603 42.8526 85.9232 43.536 85.5211Z" fill="#E8975B"/>
<path d="M42.1649 90.8789C42.5495 90.6831 42.9749 90.5811 43.4064 90.5811C43.838 90.5811 44.2634 90.6831 44.648 90.8789L48.1953 92.9313C48.8787 93.3282 48.8787 93.9757 48.1953 94.3622C47.8107 94.558 47.3853 94.6601 46.9538 94.6601C46.5222 94.6601 46.0968 94.558 45.7122 94.3622L42.1649 92.3151C41.4971 91.9182 41.4971 91.2758 42.1649 90.8789Z" fill="#E8975B"/>
<path d="M204.428 28.4789L215.321 34.7769C215.673 34.957 216.063 35.051 216.458 35.051C216.853 35.051 217.243 34.957 217.595 34.7769C217.733 34.7304 217.852 34.6419 217.937 34.5238C218.021 34.4058 218.067 34.2642 218.067 34.1189C218.067 33.9736 218.021 33.832 217.937 33.7139C217.852 33.5959 217.733 33.5074 217.595 33.4609L206.703 27.1681C206.351 26.988 205.961 26.894 205.566 26.894C205.17 26.894 204.78 26.988 204.428 27.1681C204.29 27.2132 204.17 27.3009 204.084 27.4186C203.999 27.5363 203.953 27.678 203.953 27.8235C203.953 27.969 203.999 28.1107 204.084 28.2284C204.17 28.3461 204.29 28.4338 204.428 28.4789Z" fill="#E8975B"/>
<path opacity="0.6" d="M199.655 29.9408C199.518 29.9873 199.398 30.0758 199.314 30.1938C199.229 30.3118 199.184 30.4535 199.184 30.5988C199.184 30.744 199.229 30.8857 199.314 31.0037C199.398 31.1217 199.518 31.2102 199.655 31.2568L208.957 36.6565C209.31 36.8367 209.7 36.9307 210.096 36.9307C210.493 36.9307 210.883 36.8367 211.236 36.6565C211.372 36.6089 211.489 36.5202 211.573 36.4028C211.656 36.2854 211.7 36.1451 211.7 36.0011C211.7 35.8572 211.656 35.7169 211.573 35.5995C211.489 35.4821 211.372 35.3934 211.236 35.3458L201.935 29.9408C201.581 29.763 201.191 29.6704 200.795 29.6704C200.399 29.6704 200.009 29.763 199.655 29.9408Z" fill="#E8975B"/>
<path d="M194.886 34.0145L198.245 35.9572C198.598 36.1374 198.989 36.2313 199.385 36.2313C199.781 36.2313 200.172 36.1374 200.525 35.9572C200.662 35.9107 200.782 35.8221 200.867 35.7041C200.951 35.5861 200.997 35.4444 200.997 35.2992C200.997 35.1539 200.951 35.0122 200.867 34.8942C200.782 34.7762 200.662 34.6877 200.525 34.6412L197.16 32.6985C196.807 32.5208 196.418 32.4282 196.023 32.4282C195.628 32.4282 195.239 32.5208 194.886 32.6985C194.748 32.745 194.629 32.8335 194.544 32.9515C194.46 33.0696 194.414 33.2112 194.414 33.3565C194.414 33.5018 194.46 33.6434 194.544 33.7614C194.629 33.8795 194.748 33.968 194.886 34.0145Z" fill="#E8975B"/>
<path d="M190.119 36.7718L199.603 42.2552C199.956 42.4329 200.345 42.5254 200.74 42.5254C201.135 42.5254 201.524 42.4329 201.877 42.2552C202.015 42.2086 202.134 42.1201 202.219 42.0021C202.303 41.8841 202.349 41.7424 202.349 41.5972C202.349 41.4519 202.303 41.3102 202.219 41.1922C202.134 41.0742 202.015 40.9857 201.877 40.9392L192.404 35.4558C192.051 35.2781 191.662 35.1855 191.267 35.1855C190.872 35.1855 190.482 35.2781 190.129 35.4558C189.991 35.5012 189.871 35.5888 189.786 35.7061C189.7 35.8235 189.654 35.9648 189.652 36.1101C189.651 36.2554 189.696 36.3974 189.779 36.5161C189.863 36.6348 189.982 36.7242 190.119 36.7718Z" fill="#E82B88"/>
<path d="M210.835 41.8997C210.973 41.8532 211.092 41.7647 211.177 41.6467C211.262 41.5287 211.307 41.387 211.307 41.2417C211.307 41.0965 211.262 40.9548 211.177 40.8368C211.092 40.7188 210.973 40.6303 210.835 40.5837L204.68 37.0379C204.327 36.8601 203.937 36.7676 203.543 36.7676C203.148 36.7676 202.758 36.8601 202.405 37.0379C202.268 37.0844 202.148 37.1729 202.064 37.2909C201.979 37.4089 201.934 37.5506 201.934 37.6959C201.934 37.8411 201.979 37.9828 202.064 38.1008C202.148 38.2188 202.268 38.3073 202.405 38.3539L208.577 41.8997C208.927 42.0765 209.314 42.1686 209.706 42.1686C210.098 42.1686 210.485 42.0765 210.835 41.8997Z" fill="#E8975B"/>
<path d="M21.7569 56.8773L32.6493 63.1753C33.003 63.3531 33.3933 63.4456 33.7891 63.4456C34.1849 63.4456 34.5752 63.3531 34.9289 63.1753C35.0664 63.1288 35.1859 63.0403 35.2705 62.9222C35.3551 62.8042 35.4006 62.6626 35.4006 62.5173C35.4006 62.372 35.3551 62.2304 35.2705 62.1123C35.1859 61.9943 35.0664 61.9058 34.9289 61.8593L24.0313 55.5613C23.6785 55.3836 23.289 55.291 22.8941 55.291C22.4991 55.291 22.1097 55.3836 21.7569 55.5613C21.6194 55.6078 21.4999 55.6963 21.4153 55.8143C21.3307 55.9324 21.2852 56.074 21.2852 56.2193C21.2852 56.3646 21.3307 56.5062 21.4153 56.6242C21.4999 56.7423 21.6194 56.8308 21.7569 56.8773Z" fill="#E8975B"/>
<path opacity="0.6" d="M16.9873 58.3185C16.8498 58.365 16.7304 58.4535 16.6458 58.5716C16.5611 58.6896 16.5156 58.8312 16.5156 58.9765C16.5156 59.1218 16.5611 59.2634 16.6458 59.3815C16.7304 59.4995 16.8498 59.588 16.9873 59.6345L26.2886 65.0343C26.6407 65.2144 27.0305 65.3084 27.4259 65.3084C27.8213 65.3084 28.211 65.2144 28.5631 65.0343C28.7006 64.9878 28.8201 64.8993 28.9047 64.7812C28.9893 64.6632 29.0348 64.5216 29.0348 64.3763C29.0348 64.231 28.9893 64.0894 28.9047 63.9713C28.8201 63.8533 28.7006 63.7648 28.5631 63.7183L19.2618 58.3185C18.9097 58.1384 18.52 58.0444 18.1246 58.0444C17.7292 58.0444 17.3394 58.1384 16.9873 58.3185Z" fill="#E8975B"/>
<defs>
<linearGradient id="paint0_linear_842_750" x1="213.073" y1="64.6738" x2="230.084" y2="64.6738" gradientUnits="userSpaceOnUse">
<stop stop-color="#E39A65"/>
<stop offset="1" stop-color="#E95F8D"/>
</linearGradient>
<linearGradient id="paint1_linear_842_750" x1="110.167" y1="98.1694" x2="138.743" y2="98.1694" gradientUnits="userSpaceOnUse">
<stop stop-color="#E39A65"/>
<stop offset="1" stop-color="#E95F8D"/>
</linearGradient>
<linearGradient id="paint2_linear_842_750" x1="110.655" y1="98.1695" x2="138.261" y2="98.1695" gradientUnits="userSpaceOnUse">
<stop stop-color="#E39A65"/>
<stop offset="1" stop-color="#E95F8D"/>
</linearGradient>
<linearGradient id="paint3_linear_842_750" x1="0.810045" y1="60.2298" x2="50.0345" y2="60.2298" gradientUnits="userSpaceOnUse">
<stop stop-color="#E39A65"/>
<stop offset="1" stop-color="#E95F8D"/>
</linearGradient>
<linearGradient id="paint4_linear_842_750" x1="38.7419" y1="18.807" x2="78.7903" y2="18.807" gradientUnits="userSpaceOnUse">
<stop stop-color="#E39A65"/>
<stop offset="1" stop-color="#E95F8D"/>
</linearGradient>
<linearGradient id="paint5_linear_842_750" x1="39.2267" y1="18.8071" x2="78.3047" y2="18.8071" gradientUnits="userSpaceOnUse">
<stop stop-color="#E39A65"/>
<stop offset="1" stop-color="#E95F8D"/>
</linearGradient>
<linearGradient id="paint6_linear_842_750" x1="176.561" y1="35.6175" x2="232.557" y2="35.6175" gradientUnits="userSpaceOnUse">
<stop stop-color="#E39A65"/>
<stop offset="1" stop-color="#E95F8D"/>
</linearGradient>
<radialGradient id="paint7_radial_842_750" cx="0" cy="0" r="1" gradientUnits="userSpaceOnUse" gradientTransform="translate(73.4634 48.172) scale(100.233 100.34)">
<stop stop-color="#4C02F1"/>
<stop offset="0.01" stop-color="#4B02EF"/>
<stop offset="0.13" stop-color="#3903C4"/>
<stop offset="0.25" stop-color="#29039E"/>
<stop offset="0.38" stop-color="#1D0380"/>
<stop offset="0.51" stop-color="#130468"/>
<stop offset="0.65" stop-color="#0C0457"/>
<stop offset="0.81" stop-color="#07044D"/>
<stop offset="1" stop-color="#06044A"/>
</radialGradient>
<radialGradient id="paint8_radial_842_750" cx="0" cy="0" r="1" gradientUnits="userSpaceOnUse" gradientTransform="translate(156.461 55.9217) scale(96.8892 96.9923)">
<stop stop-color="#4C02F1"/>
<stop offset="0.01" stop-color="#4B02EF"/>
<stop offset="0.13" stop-color="#3903C4"/>
<stop offset="0.25" stop-color="#29039E"/>
<stop offset="0.38" stop-color="#1D0380"/>
<stop offset="0.51" stop-color="#130468"/>
<stop offset="0.65" stop-color="#0C0457"/>
<stop offset="0.81" stop-color="#07044D"/>
<stop offset="1" stop-color="#06044A"/>
</radialGradient>
<radialGradient id="paint9_radial_842_750" cx="0" cy="0" r="1" gradientUnits="userSpaceOnUse" gradientTransform="translate(88.0274 8.10699) scale(104.965 105.076)">
<stop stop-color="#E39A65"/>
<stop offset="0.47" stop-color="#A92FFB"/>
<stop offset="0.59" stop-color="#891CFB"/>
<stop offset="0.73" stop-color="#6507FA"/>
<stop offset="1" stop-color="#3919BB"/>
</radialGradient>
<radialGradient id="paint10_radial_842_750" cx="0" cy="0" r="1" gradientUnits="userSpaceOnUse" gradientTransform="translate(85.002 1.82988) scale(114.12 114.241)">
<stop stop-color="#E39A65"/>
<stop offset="0.47" stop-color="#A92FFB"/>
<stop offset="0.59" stop-color="#891CFB"/>
<stop offset="0.73" stop-color="#6507FA"/>
<stop offset="1" stop-color="#3919BB"/>
</radialGradient>
<radialGradient id="paint11_radial_842_750" cx="0" cy="0" r="1" gradientUnits="userSpaceOnUse" gradientTransform="translate(88.1679 10.7753) scale(101.125 101.233)">
<stop stop-color="#E39A65"/>
<stop offset="0.47" stop-color="#A92FFB"/>
<stop offset="0.59" stop-color="#891CFB"/>
<stop offset="0.73" stop-color="#6507FA"/>
<stop offset="1" stop-color="#3919BB"/>
</radialGradient>
<radialGradient id="paint12_radial_842_750" cx="0" cy="0" r="1" gradientUnits="userSpaceOnUse" gradientTransform="translate(218.968 105.052) scale(93.2792 93.3786)">
<stop stop-color="#E39A65"/>
<stop offset="0.47" stop-color="#A92FFB"/>
<stop offset="0.59" stop-color="#891CFB"/>
<stop offset="0.73" stop-color="#6507FA"/>
<stop offset="1" stop-color="#3919BB"/>
</radialGradient>
</defs>
</svg>
