<svg width="62" height="60" viewBox="0 0 62 60" fill="none" xmlns="http://www.w3.org/2000/svg">
<path d="M25.1993 53.7196L25.0191 54.6008L25.1927 53.7186C24.7061 53.6226 24.2335 53.9398 24.1376 54.427C24.0416 54.9147 24.3584 55.3875 24.8455 55.4835C24.8469 55.484 24.8605 55.4863 24.8619 55.4868C24.919 55.4976 24.9756 55.5032 25.0318 55.5032C25.4543 55.5032 25.831 55.2033 25.9129 54.7723C26.0065 54.2841 25.6869 53.8128 25.1993 53.7196Z" fill="#E63114"/>
<path d="M32.0686 54.0086L32.158 54.9035L32.0658 54.0091C31.5721 54.0597 31.2132 54.5015 31.2642 54.9958C31.3115 55.4587 31.7017 55.8035 32.1566 55.8035C32.1875 55.8035 32.2188 55.8016 32.2497 55.7988L32.2745 55.796C32.7658 55.7384 33.1144 55.2947 33.0597 54.8027C33.0045 54.3113 32.5599 53.9571 32.0686 54.0086Z" fill="#E63114"/>
<path d="M28.6293 54.122C28.6293 54.122 28.6166 54.1215 28.6162 54.1215C28.1211 54.099 27.7074 54.4842 27.685 54.9803C27.663 55.4765 28.0523 55.8967 28.5478 55.9192C28.5619 55.9202 28.5755 55.9202 28.5895 55.9202C29.0668 55.9202 29.4645 55.5439 29.4861 55.0614C29.5085 54.5652 29.1253 54.1445 28.6293 54.122Z" fill="#E63114"/>
<path d="M21.8807 52.8055L21.8695 52.8013C21.4025 52.6335 20.8934 52.8781 20.7258 53.3457C20.5578 53.8133 20.8058 54.3305 21.2728 54.4987C21.3735 54.5348 21.4759 54.5516 21.5765 54.5516C21.9448 54.5516 22.2906 54.3235 22.4221 53.9562C22.5901 53.4886 22.3477 52.9732 21.8807 52.8055Z" fill="#E63114"/>
<path d="M35.4593 53.3789L35.6806 54.2508L35.4565 53.3799C34.9759 53.5036 34.6867 53.9941 34.8102 54.4753C34.9146 54.881 35.2796 55.1509 35.6797 55.1509C35.7541 55.1509 35.8294 55.1415 35.9047 55.1218C35.9085 55.1209 35.9244 55.1167 35.9286 55.1157C36.4054 54.9855 36.6843 54.4949 36.557 54.0166C36.4298 53.5387 35.938 53.2543 35.4593 53.3789Z" fill="#E63114"/>
<path d="M38.7072 52.2447L39.0633 53.0702L38.7044 52.2456C38.2496 52.4442 38.0413 52.9741 38.2393 53.4295C38.3867 53.7683 38.717 53.9702 39.0638 53.9702C39.1831 53.9702 39.3052 53.9458 39.4218 53.8952C39.4255 53.8934 39.44 53.8873 39.4437 53.8854C39.8944 53.6816 40.0932 53.1531 39.892 52.701C39.6908 52.2484 39.1602 52.0455 38.7072 52.2447Z" fill="#E63114"/>
<path d="M18.4489 11.2383C18.593 11.2383 18.7394 11.2036 18.8747 11.1315C19.3127 10.8977 19.4778 10.3528 19.2443 9.91426C19.0108 9.4762 18.4671 9.30988 18.0291 9.54414L18.0184 9.54976C17.5808 9.78355 17.4203 10.3256 17.6538 10.7641C17.8148 11.0668 18.1274 11.2383 18.4489 11.2383Z" fill="#E63114"/>
<path d="M8.05646 21.2856C8.18982 21.3554 8.33254 21.3887 8.47339 21.3887C8.79673 21.3887 9.10931 21.2135 9.26982 20.9066L9.28573 20.8752C9.50472 20.4292 9.32129 19.8899 8.87581 19.6711C8.43361 19.4528 7.89923 19.6327 7.67743 20.0726C7.44814 20.5121 7.61753 21.0551 8.05646 21.2856Z" fill="#E63114"/>
<path d="M6.79163 24.6697C6.88709 24.702 6.98395 24.7175 7.07987 24.7175C7.45422 24.7175 7.80377 24.4809 7.93058 24.1061L7.94228 24.0705C8.08828 23.5959 7.82202 23.0922 7.34753 22.9465C6.87726 22.8013 6.37797 23.0627 6.22776 23.5312C6.07007 24.0011 6.32229 24.5109 6.79163 24.6697Z" fill="#E63114"/>
<path d="M9.829 18.1386C9.98857 18.2548 10.1734 18.311 10.3568 18.311C10.6343 18.311 10.9085 18.1822 11.084 17.9404L11.0957 17.9245C11.384 17.5206 11.2899 16.9603 10.8875 16.6717C10.4846 16.3826 9.92305 16.4754 9.63387 16.8783L10.3578 17.4114L9.63106 16.882C9.33907 17.284 9.42798 17.8467 9.829 18.1386Z" fill="#E63114"/>
<path d="M15.3988 13.1812C15.5874 13.1812 15.7774 13.1217 15.9398 12.998C16.3403 12.7047 16.4269 12.1421 16.134 11.741C15.8406 11.34 15.2786 11.2533 14.8785 11.5466L14.856 11.563C14.4611 11.8633 14.3825 12.4288 14.6824 12.8247C14.8593 13.058 15.1274 13.1812 15.3988 13.1812Z" fill="#E63114"/>
<path d="M5.98958 38.3119C6.10844 38.6985 6.46313 38.9463 6.84684 38.9463C6.93435 38.9463 7.02372 38.9332 7.11169 38.906C7.58337 38.7612 7.84963 38.2609 7.70831 37.7877C7.57308 37.3154 7.08409 37.038 6.6082 37.1678C6.1295 37.2985 5.84733 37.7933 5.97788 38.2726C5.98069 38.282 5.98678 38.3026 5.98958 38.3119Z" fill="#E63114"/>
<path d="M12.6848 15.5519C12.9183 15.5519 13.1518 15.4615 13.3282 15.2816C13.6787 14.9302 13.6787 14.3605 13.3282 14.0096C12.9773 13.6582 12.4083 13.6582 12.0573 14.0096L12.0423 14.0246C11.6951 14.3792 11.7021 14.948 12.0564 15.2956C12.2309 15.4671 12.4579 15.5519 12.6848 15.5519Z" fill="#E63114"/>
<path d="M6.98254 34.39C6.91937 33.9013 6.47343 33.5546 5.9849 33.6127C5.49263 33.6718 5.14075 34.1192 5.19924 34.6125L5.20439 34.6486C5.2699 35.0956 5.65314 35.416 6.09159 35.416C6.13464 35.416 6.17863 35.4128 6.22308 35.4062C6.71208 35.335 7.05133 34.8796 6.98254 34.39Z" fill="#E63114"/>
<path d="M5.85388 31.8136C5.86324 31.8136 5.87213 31.8141 5.88102 31.8141C6.36487 31.8141 6.76449 31.4285 6.77852 30.9408L6.77946 30.9024C6.77946 30.4053 6.37703 30.0028 5.88102 30.0028C5.38829 30.0028 4.98867 30.3992 4.98258 30.8906C4.96948 31.3863 5.35927 31.7991 5.85388 31.8136Z" fill="#E63114"/>
<path d="M6.05088 28.2061C6.1047 28.2154 6.15757 28.2201 6.21045 28.2201C6.63721 28.2201 7.01577 27.9142 7.09391 27.4789C7.09625 27.4658 7.09812 27.4527 7.1 27.4396C7.17253 26.9481 6.83327 26.4908 6.34194 26.4187C5.85669 26.3465 5.40232 26.6806 5.32418 27.165C5.23901 27.6532 5.56376 28.1184 6.05088 28.2061Z" fill="#E63114"/>
<path d="M48.4319 18.4225C48.6059 18.6755 48.8858 18.8109 49.1712 18.8109C49.3467 18.8109 49.5245 18.7594 49.6798 18.6521C50.0884 18.371 50.1918 17.8106 49.911 17.4011L49.1642 17.9015L49.9082 17.3969C49.6293 16.9856 49.0706 16.8783 48.6602 17.157C48.2494 17.4358 48.1422 17.9952 48.4206 18.4066L48.4319 18.4225Z" fill="#E63114"/>
<path d="M53.02 27.4747C52.5268 27.53 52.1721 27.9755 52.2278 28.4694L52.2324 28.5082C52.2966 28.9566 52.6812 29.2804 53.121 29.2804C53.1632 29.2804 53.2062 29.2775 53.2493 29.2715C53.7364 29.2017 54.0761 28.7523 54.0129 28.2651C53.9563 27.7727 53.5099 27.4194 53.02 27.4747Z" fill="#E63114"/>
<path d="M51.5039 24.9363L51.5076 24.948C51.6227 25.3401 51.9807 25.5941 52.3691 25.5941C52.4528 25.5941 52.538 25.5824 52.6227 25.5571C53.0991 25.417 53.3714 24.9171 53.2315 24.4401L53.2277 24.4284C53.0878 23.9515 52.5885 23.6788 52.1122 23.8193C51.6363 23.9594 51.364 24.4593 51.5039 24.9363Z" fill="#E63114"/>
<path d="M50.2348 21.5728C50.3916 21.8919 50.7121 22.0779 51.0453 22.0779C51.1777 22.0779 51.3125 22.0484 51.4393 21.9856C51.8843 21.7663 52.0691 21.2303 51.8497 20.7843L51.0355 21.1643L51.8487 20.7824C51.6382 20.3326 51.1033 20.1392 50.6541 20.35C50.2049 20.5608 50.0111 21.0963 50.2217 21.5461L50.2348 21.5728Z" fill="#E63114"/>
<path d="M46.1689 15.6133C46.3449 15.7932 46.5774 15.8832 46.8105 15.8832C47.0374 15.8832 47.2644 15.7979 47.4394 15.6259C47.7913 15.2811 47.7992 14.7175 47.46 14.3624C47.1235 13.9993 46.5564 13.9772 46.1923 14.3136C45.8278 14.6505 45.8053 15.2197 46.1418 15.5847L46.1689 15.6133Z" fill="#E63114"/>
<path d="M53.312 31.2308C52.8183 31.2181 52.4051 31.6056 52.3878 32.0999C52.3653 32.5923 52.743 33.0116 53.2352 33.0393C53.2525 33.0402 53.2689 33.0407 53.2862 33.0407C53.7593 33.0407 54.1557 32.6701 54.1823 32.1908L54.1837 32.1538C54.1978 31.6576 53.8075 31.2453 53.312 31.2308Z" fill="#E63114"/>
<path d="M40.4236 11.1961L40.4451 11.2078C40.579 11.279 40.7226 11.3128 40.8639 11.3128C41.1835 11.3128 41.4928 11.1404 41.6552 10.8382C41.8892 10.402 41.7245 9.85663 41.2902 9.6205L40.8555 10.4076L41.2874 9.61863C40.8522 9.37968 40.3062 9.53945 40.0675 9.97517C39.8293 10.4104 39.9884 10.9576 40.4236 11.1961Z" fill="#E63114"/>
<path d="M43.4624 13.169L43.4764 13.1798C43.6388 13.303 43.8292 13.3625 44.0188 13.3625C44.2902 13.3625 44.5583 13.2398 44.7352 13.0065C45.0351 12.6106 44.9574 12.0465 44.5625 11.7462L44.5564 11.7419C44.1629 11.4393 43.599 11.5133 43.2967 11.9073C42.9944 12.3014 43.0688 12.8664 43.4624 13.169Z" fill="#E63114"/>
<path d="M60.7788 44.8491L56.5613 40.6189C56.2024 40.2591 55.7256 40.0609 55.2179 40.0609C54.7106 40.0609 54.2333 40.2591 53.8749 40.6189L53.7771 40.7168L53.5001 40.4395C53.158 40.096 52.8932 39.6964 52.7135 39.2612C52.6976 39.2035 52.6765 39.1473 52.6494 39.0944C52.5118 38.7074 52.4402 38.2955 52.4402 37.8725V36.6759C52.5221 36.719 52.6115 36.7504 52.7074 36.7668C52.7589 36.7757 52.8099 36.7799 52.8604 36.7799C53.2867 36.7799 53.6639 36.4754 53.7429 36.0424C53.8389 35.5561 53.5239 35.0834 53.0378 34.9859C52.8239 34.9433 52.6124 34.9803 52.4346 35.0768C52.3794 33.7987 51.8576 32.6049 50.9498 31.6942L46.8582 27.5904C45.9401 26.6698 44.7193 26.1629 43.4207 26.1629C42.4156 26.1629 41.4582 26.4679 40.6506 27.0324L40.2163 26.5953V16.3067C40.2163 15.0665 39.7666 13.8699 38.9505 12.9381C38.3698 12.2756 38.0502 11.4248 38.0502 10.5421V9.78823H38.112C39.1592 9.78823 40.0114 8.93506 40.0114 7.88606V1.90217C40.0114 0.853167 39.1592 0 38.112 0H21.3295C20.2822 0 19.4301 0.853167 19.4301 1.90217V7.88606C19.4301 8.93506 20.2822 9.78823 21.3295 9.78823H21.468V10.1827C21.468 11.1525 21.0913 12.0643 20.4076 12.7497L18.5963 14.5666C17.6351 15.5308 17.1059 16.8122 17.1059 18.1756V23.9791C17.1059 24.7676 17.2949 25.5121 17.6276 26.1718C16.4363 26.2406 15.3258 26.7377 14.4751 27.5904L10.3835 31.6942C9.42236 32.6584 8.89313 33.9402 8.89313 35.3031V37.8725C8.89313 38.8423 8.51691 39.754 7.83325 40.4395L7.55951 40.714C7.55811 40.715 7.55717 40.7159 7.55623 40.7168L7.4589 40.6189C7.1 40.2591 6.62317 40.0609 6.11546 40.0609C5.60822 40.0609 5.13092 40.2591 4.77248 40.6189L0.554504 44.8491C-0.184835 45.5908 -0.184835 46.7977 0.554504 47.5394L1.99902 48.9875C2.34951 49.3394 2.91852 49.3399 3.26947 48.9889C3.62042 48.6376 3.62136 48.0683 3.27041 47.7165L1.82635 46.2678C1.78564 46.227 1.78564 46.161 1.82635 46.1202L6.04433 41.89C6.08364 41.8506 6.14775 41.8502 6.18705 41.89L6.92031 42.6256H6.92078L18.0548 53.7931C18.0956 53.8339 18.0956 53.8999 18.0548 53.9407L13.8373 58.1709C13.7976 58.2107 13.7335 58.2107 13.6942 58.1709L5.81411 50.2675C5.46362 49.9157 4.89461 49.9152 4.54366 50.2661C4.19224 50.6175 4.19177 51.1867 4.54226 51.5386L12.4228 59.442C12.7812 59.8018 13.2585 60 13.7662 60C14.2735 60 14.7503 59.8018 15.1092 59.442L19.3267 55.2118C20.066 54.4706 20.066 53.2637 19.3267 52.522L19.2808 52.4761L19.8129 51.9425C20.4343 51.3189 21.2597 50.9441 22.1371 50.8874C23.372 50.8073 24.5339 50.2797 25.4085 49.4022L29.283 45.5144C30.4004 45.2207 31.2703 44.3094 31.5066 43.1681C31.9048 43.3579 32.3498 43.4647 32.8196 43.4647C34.5094 43.4647 35.8842 42.0868 35.8842 40.3926V38.2567C36.2707 38.4333 36.6998 38.5326 37.1518 38.5326C38.8415 38.5326 40.2158 37.1547 40.2158 35.4605V29.1459L42.9795 31.9265C43.1549 32.1032 43.3856 32.1912 43.6163 32.1912C43.8456 32.1912 44.0749 32.1041 44.2504 31.9293C44.6018 31.5789 44.6032 31.0097 44.2532 30.6573L41.9491 28.3391C42.395 28.0931 42.8976 27.962 43.4207 27.962C44.2387 27.962 45.008 28.2815 45.5863 28.862L49.678 32.9652C50.3003 33.5898 50.6433 34.42 50.6433 35.3031V37.8725C50.6433 39.3225 51.2063 40.6854 52.2282 41.7106L52.5071 41.9903L43.322 51.2027L42.8826 50.7618C42.8779 50.7576 42.8737 50.7529 42.869 50.7487L42.7918 50.6709C41.8616 49.7381 40.6258 49.1773 39.3127 49.092C38.514 49.04 37.7625 48.6989 37.1939 48.1292L34.2417 45.1893C33.8898 44.8388 33.3208 44.8402 32.9708 45.1926C32.6212 45.5449 32.6226 46.1146 32.9745 46.4646L35.9249 49.4022C36.7994 50.2797 37.9613 50.8073 39.1967 50.8874C40.0736 50.9441 40.899 51.3189 41.5204 51.942L41.564 51.9856C41.5874 52.0123 41.6122 52.0371 41.6384 52.0605L42.0525 52.4756L42.0066 52.522C41.2673 53.2637 41.2673 54.4701 42.0066 55.2118L46.2241 59.442C46.583 59.8018 47.0599 60 47.5676 60C48.0748 60 48.5521 59.8018 48.911 59.442L60.7788 47.5389C61.5182 46.7972 61.5182 45.5908 60.7788 44.8491ZM53.0424 35.9042L53.0256 35.9014L52.8618 35.8682L53.0424 35.9042ZM24.1366 48.1311C23.5709 48.6989 22.8194 49.04 22.0211 49.092C20.7076 49.1773 19.4718 49.7381 18.5415 50.6709L18.0113 51.2027L17.534 50.7239C17.528 50.7178 17.5219 50.7112 17.5158 50.7056L8.82621 41.9903L9.1051 41.7106C10.1271 40.6854 10.69 39.3225 10.69 37.8725V35.3031C10.69 34.42 11.0325 33.5898 11.6554 32.9652L15.747 28.862C16.3254 28.2815 17.0946 27.962 17.9126 27.962C18.4372 27.962 18.9416 28.0941 19.3889 28.3419L17.0811 30.6564C16.7306 31.0078 16.7311 31.5775 17.082 31.9284C17.2575 32.1036 17.4872 32.1912 17.717 32.1912C17.9472 32.1912 18.1774 32.1032 18.3529 31.9275L21.1095 29.1623V40.3926C21.1095 42.0868 22.4843 43.4647 24.1741 43.4647C24.6504 43.4647 25.1015 43.355 25.5039 43.1601C25.6864 44.0517 26.2554 44.8032 27.0266 45.2314L24.1366 48.1311ZM38.4194 35.461C38.4194 36.1629 37.8504 36.734 37.1518 36.734C36.4527 36.734 35.8842 36.1629 35.8842 35.461V25.4268C35.8842 24.9302 35.4822 24.5273 34.9857 24.5273C34.4892 24.5273 34.0873 24.9302 34.0873 25.4268V40.3931C34.0873 41.0949 33.5187 41.6656 32.8196 41.6656C32.1921 41.6656 31.6713 41.2055 31.5707 40.6034V25.4165C31.5707 24.9194 31.1688 24.517 30.6723 24.517C30.5127 24.517 30.3625 24.5591 30.2324 24.6322C29.9484 24.7835 29.7551 25.0825 29.7551 25.4268V40.3926C29.7551 40.5069 29.7617 40.6189 29.7738 40.7299V42.5426C29.7738 43.2445 29.2053 43.8156 28.5062 43.8156C27.8076 43.8156 27.239 43.2445 27.239 42.5426V25.4057C27.239 24.9091 26.8366 24.5062 26.3406 24.5062C25.8441 24.5062 25.4417 24.9091 25.4417 25.4057V40.3926C25.4417 41.0945 24.8731 41.6656 24.1745 41.6656C23.4754 41.6656 22.9069 41.0945 22.9069 40.3926V23.6596C22.9069 23.1625 22.5045 22.7596 22.0084 22.7596C21.512 22.7596 21.11 23.1625 21.11 23.6596V26.7546C21.0347 26.779 20.9617 26.8132 20.8938 26.8581C19.7319 26.421 18.9028 25.2956 18.9028 23.9791V18.1756C18.9028 17.2924 19.2457 16.4622 19.8681 15.8377L21.6795 14.0208C22.7019 12.9957 23.2649 11.6328 23.2649 10.1827V9.78823H25.0711C25.5676 9.78823 25.9695 9.38531 25.9695 8.88868C25.9695 8.39159 25.5676 7.98913 25.0711 7.98913H21.3295C21.2728 7.98913 21.227 7.94275 21.227 7.88606V1.90217C21.227 1.84548 21.2728 1.7991 21.3295 1.7991H38.1115C38.1686 1.7991 38.2145 1.84548 38.2145 1.90217V7.88606C38.2145 7.94322 38.1686 7.98913 38.1115 7.98913H29.2891C28.793 7.98913 28.3906 8.39159 28.3906 8.88868C28.3906 9.38531 28.793 9.78823 29.2891 9.78823H36.2534V10.5421C36.2534 11.8614 36.7311 13.1334 37.5991 14.1248C38.1279 14.7283 38.4194 15.5032 38.4194 16.3067V35.461ZM59.507 46.2678L47.6392 58.1709C47.6195 58.1911 47.5957 58.2009 47.5676 58.2009C47.54 58.2009 47.5161 58.1911 47.496 58.1709L43.2785 53.9407C43.2378 53.8999 43.2378 53.8339 43.2785 53.7931L43.9575 53.1119L55.1463 41.89C55.1856 41.8502 55.2497 41.8502 55.289 41.89L59.507 46.1202C59.5477 46.161 59.5477 46.227 59.507 46.2678Z" fill="#E63114"/>
<path d="M24.1741 3.9346C23.6467 3.9346 23.2176 4.36516 23.2176 4.89412C23.2176 5.42354 23.6467 5.85364 24.1741 5.85364C24.7019 5.85364 25.131 5.42354 25.131 4.89412C25.131 4.36516 24.7019 3.9346 24.1741 3.9346Z" fill="#E63114"/>
<path d="M55.5117 44.94C54.9839 44.94 54.5548 45.3706 54.5548 45.8995C54.5548 46.4285 54.9839 46.8591 55.5117 46.8591C56.0391 46.8591 56.4682 46.4285 56.4682 45.8995C56.4682 45.3706 56.0391 44.94 55.5117 44.94Z" fill="#E63114"/>
<path d="M14.9721 54.1173C14.9721 53.5884 14.543 53.1578 14.0156 53.1578C13.4878 53.1578 13.0587 53.5884 13.0587 54.1173C13.0587 54.6463 13.4878 55.0768 14.0156 55.0768C14.543 55.0768 14.9721 54.6463 14.9721 54.1173Z" fill="#E63114"/>
</svg>
