<svg width="107" height="31" viewBox="0 0 107 31" fill="none" xmlns="http://www.w3.org/2000/svg">
<path d="M28.6777 5.01945L9.5865 17.0294L1.63539 14.543L1.63445 14.5427C1.35836 14.4567 1.18254 14.3656 1.07903 14.2951C1.09044 14.2841 1.1032 14.2723 1.11744 14.2598C1.28406 14.113 1.58693 13.9236 2.07914 13.7313C2.07985 13.731 2.08057 13.7308 2.08128 13.7305L34.8911 1.1015C34.8924 1.101 34.8938 1.1005 34.8951 1.1C35.4187 0.905222 35.6813 1.03557 35.778 1.1291C35.8847 1.23235 36.11 1.59528 35.9388 2.50377L35.915 2.61552L30.3325 28.9149C30.1501 29.7146 29.8851 29.9182 29.7818 29.9652C29.6864 30.0087 29.3965 30.0686 28.7691 29.7286L20.3146 23.5039L19.6363 23.0044L19.0289 23.5881L15.0258 27.4344L15.4876 20.9034L30.9504 6.94444C30.9514 6.94353 30.9524 6.94262 30.9534 6.94171C31.1899 6.73057 31.5178 6.35791 31.5368 5.83773C31.5615 5.16191 31.08 4.76739 30.6893 4.62838C30.3317 4.50114 29.9558 4.52389 29.6485 4.59375C29.3262 4.667 28.9948 4.81021 28.6777 5.01945ZM30.138 6.5368C30.138 6.53692 30.1358 6.53712 30.1316 6.53707C30.136 6.53666 30.1381 6.53668 30.138 6.5368ZM29.6414 5.43117C29.6489 5.42139 29.6538 5.41651 29.6544 5.41652C29.6549 5.41653 29.6512 5.42142 29.6414 5.43117ZM0.987201 14.4053C0.987172 14.4053 0.987429 14.4047 0.988059 14.4034C0.987545 14.4047 0.98723 14.4053 0.987201 14.4053Z" stroke="#E63114" stroke-width="2"/>
<mask id="path-2-inside-1_257_263" fill="white">
<path d="M101.786 13.8701C102.44 13.0323 102.959 12.3602 103.343 11.8531C106.105 8.21515 107.302 5.89121 106.935 4.87802L106.791 4.64073C106.696 4.4982 106.448 4.36731 106.049 4.24884C105.65 4.13045 105.139 4.11153 104.516 4.18969L97.6189 4.23788C97.4592 4.22213 97.2994 4.22581 97.1398 4.24884C96.9801 4.27289 96.8765 4.29703 96.8282 4.32006C96.7801 4.3442 96.7405 4.36354 96.7087 4.3793L96.6131 4.45052C96.5332 4.49768 96.4455 4.58097 96.3498 4.69996C96.254 4.81886 96.1736 4.95668 96.1102 5.11539C95.3598 7.02912 94.5057 8.8088 93.5476 10.4538C92.9567 11.4346 92.4136 12.2854 91.9192 13.0041C91.4242 13.7244 91.009 14.2542 90.6737 14.5936C90.3385 14.9336 90.0348 15.207 89.7637 15.4119C89.4918 15.6183 89.2845 15.7048 89.1413 15.6734C88.9973 15.6419 88.8615 15.6105 88.734 15.578C88.5104 15.4361 88.3305 15.2427 88.1951 14.997C88.0593 14.7524 87.9678 14.4438 87.9196 14.0718C87.872 13.7004 87.8434 13.3798 87.836 13.1105C87.8275 12.8418 87.8318 12.4625 87.8482 11.9716C87.8641 11.4811 87.872 11.1496 87.872 10.9751C87.872 10.3747 87.8841 9.72201 87.9081 9.01793C87.9318 8.31436 87.952 7.7564 87.9678 7.34508C87.9837 6.93436 87.9916 6.49899 87.9916 6.04007C87.9916 5.58218 87.9636 5.22171 87.9073 4.96036C87.8513 4.69996 87.7672 4.44692 87.6562 4.20124C87.5441 3.95659 87.3806 3.76638 87.1649 3.63233C86.9492 3.49767 86.682 3.39136 86.3627 3.31166C85.516 3.12145 84.4382 3.01984 83.1294 3.00315C80.1594 2.97276 78.2513 3.16237 77.4052 3.57309C77.0699 3.74755 76.7664 3.98433 76.4951 4.28505C76.2075 4.63345 76.1678 4.82357 76.3756 4.85396C77.3338 4.99649 78.0119 5.33702 78.4111 5.87451L78.555 6.15897C78.6666 6.36536 78.7782 6.729 78.8903 7.25075C79.0019 7.77258 79.0738 8.34988 79.106 8.98274C79.1859 10.1374 79.1859 11.1255 79.106 11.9485C79.0262 12.7715 78.9506 13.4117 78.8787 13.8696C78.8067 14.3285 78.6989 14.7 78.5555 14.9844C78.4116 15.2699 78.316 15.4439 78.2679 15.5072C78.2197 15.57 78.1801 15.6098 78.1483 15.6257C77.9405 15.7043 77.7253 15.7441 77.5016 15.7441C77.2779 15.7441 77.0066 15.6329 76.6872 15.4113C76.3678 15.1908 76.0362 14.8859 75.6935 14.4982C75.3497 14.1111 74.9631 13.5689 74.5316 12.8726C74.1006 12.1774 73.6531 11.3544 73.1904 10.4056L72.8075 9.71721C72.568 9.27508 72.2406 8.63015 71.8254 7.78405C71.4103 6.93796 71.0427 6.11968 70.7239 5.32811C70.5959 4.99649 70.4044 4.74345 70.1491 4.56899L70.0296 4.49777C69.9497 4.43485 69.8217 4.36731 69.6462 4.29652C69.47 4.2253 69.2871 4.17393 69.0951 4.142L62.5328 4.18917C61.8622 4.18917 61.4074 4.34009 61.1679 4.64073L61.0722 4.78274C61.0238 4.86235 61 4.98913 61 5.16256C61 5.33702 61.0481 5.55025 61.1439 5.80278C62.1021 8.0335 63.144 10.1846 64.2693 12.256C65.3952 14.3285 66.3731 15.9976 67.2033 17.2628C68.0335 18.5291 68.8797 19.7224 69.7422 20.8456C70.6048 21.9688 71.1754 22.6881 71.4546 23.004C71.7338 23.321 71.9533 23.5584 72.113 23.716L72.7117 24.2859C73.0946 24.6653 73.6578 25.1199 74.4003 25.6502C75.1428 26.1803 75.9646 26.7021 76.8674 27.2156C77.7691 27.73 78.8193 28.1486 80.0166 28.4734C81.2139 28.7982 82.3794 28.9286 83.5132 28.8647H86.2675C86.8265 28.8175 87.2494 28.6442 87.5367 28.3429L87.6323 28.2245C87.6958 28.1302 87.7561 27.9835 87.8121 27.7859C87.8676 27.5885 87.8963 27.3705 87.8963 27.1337C87.8798 26.4538 87.9323 25.8398 88.0518 25.2949C88.1713 24.749 88.3071 24.3383 88.459 24.0607C88.6108 23.7845 88.782 23.5509 88.974 23.3607C89.1655 23.1705 89.3009 23.0568 89.3812 23.017C89.4611 22.9783 89.5252 22.9505 89.5728 22.9337C89.9556 22.8074 90.4067 22.9301 90.926 23.3015C91.4448 23.674 91.9319 24.1318 92.3872 24.6777C92.8419 25.2236 93.3887 25.836 94.0277 26.5165C94.666 27.1965 95.2249 27.7026 95.704 28.0347L96.1832 28.3203C96.5025 28.5094 96.9172 28.6833 97.4285 28.8421C97.9394 28.9998 98.3868 29.0396 98.7697 28.9605L104.901 28.8651C105.508 28.8651 105.979 28.7667 106.314 28.5686C106.649 28.3722 106.849 28.1532 106.913 27.9164C106.976 27.6791 106.98 27.4114 106.925 27.1101C106.869 26.8099 106.813 26.6004 106.757 26.482C106.701 26.3636 106.649 26.264 106.601 26.1854C105.803 24.762 104.278 23.0138 102.027 20.9419L101.979 20.8947L101.955 20.8706L101.931 20.8475H101.907C100.885 19.8825 100.239 19.2339 99.9673 18.9013C99.4724 18.2695 99.3603 17.6288 99.6321 16.9802C99.8225 16.4885 100.541 15.4522 101.786 13.8701Z"/>
</mask>
<path d="M101.786 13.8701C102.44 13.0323 102.959 12.3602 103.343 11.8531C106.105 8.21515 107.302 5.89121 106.935 4.87802L106.791 4.64073C106.696 4.4982 106.448 4.36731 106.049 4.24884C105.65 4.13045 105.139 4.11153 104.516 4.18969L97.6189 4.23788C97.4592 4.22213 97.2994 4.22581 97.1398 4.24884C96.9801 4.27289 96.8765 4.29703 96.8282 4.32006C96.7801 4.3442 96.7405 4.36354 96.7087 4.3793L96.6131 4.45052C96.5332 4.49768 96.4455 4.58097 96.3498 4.69996C96.254 4.81886 96.1736 4.95668 96.1102 5.11539C95.3598 7.02912 94.5057 8.8088 93.5476 10.4538C92.9567 11.4346 92.4136 12.2854 91.9192 13.0041C91.4242 13.7244 91.009 14.2542 90.6737 14.5936C90.3385 14.9336 90.0348 15.207 89.7637 15.4119C89.4918 15.6183 89.2845 15.7048 89.1413 15.6734C88.9973 15.6419 88.8615 15.6105 88.734 15.578C88.5104 15.4361 88.3305 15.2427 88.1951 14.997C88.0593 14.7524 87.9678 14.4438 87.9196 14.0718C87.872 13.7004 87.8434 13.3798 87.836 13.1105C87.8275 12.8418 87.8318 12.4625 87.8482 11.9716C87.8641 11.4811 87.872 11.1496 87.872 10.9751C87.872 10.3747 87.8841 9.72201 87.9081 9.01793C87.9318 8.31436 87.952 7.7564 87.9678 7.34508C87.9837 6.93436 87.9916 6.49899 87.9916 6.04007C87.9916 5.58218 87.9636 5.22171 87.9073 4.96036C87.8513 4.69996 87.7672 4.44692 87.6562 4.20124C87.5441 3.95659 87.3806 3.76638 87.1649 3.63233C86.9492 3.49767 86.682 3.39136 86.3627 3.31166C85.516 3.12145 84.4382 3.01984 83.1294 3.00315C80.1594 2.97276 78.2513 3.16237 77.4052 3.57309C77.0699 3.74755 76.7664 3.98433 76.4951 4.28505C76.2075 4.63345 76.1678 4.82357 76.3756 4.85396C77.3338 4.99649 78.0119 5.33702 78.4111 5.87451L78.555 6.15897C78.6666 6.36536 78.7782 6.729 78.8903 7.25075C79.0019 7.77258 79.0738 8.34988 79.106 8.98274C79.1859 10.1374 79.1859 11.1255 79.106 11.9485C79.0262 12.7715 78.9506 13.4117 78.8787 13.8696C78.8067 14.3285 78.6989 14.7 78.5555 14.9844C78.4116 15.2699 78.316 15.4439 78.2679 15.5072C78.2197 15.57 78.1801 15.6098 78.1483 15.6257C77.9405 15.7043 77.7253 15.7441 77.5016 15.7441C77.2779 15.7441 77.0066 15.6329 76.6872 15.4113C76.3678 15.1908 76.0362 14.8859 75.6935 14.4982C75.3497 14.1111 74.9631 13.5689 74.5316 12.8726C74.1006 12.1774 73.6531 11.3544 73.1904 10.4056L72.8075 9.71721C72.568 9.27508 72.2406 8.63015 71.8254 7.78405C71.4103 6.93796 71.0427 6.11968 70.7239 5.32811C70.5959 4.99649 70.4044 4.74345 70.1491 4.56899L70.0296 4.49777C69.9497 4.43485 69.8217 4.36731 69.6462 4.29652C69.47 4.2253 69.2871 4.17393 69.0951 4.142L62.5328 4.18917C61.8622 4.18917 61.4074 4.34009 61.1679 4.64073L61.0722 4.78274C61.0238 4.86235 61 4.98913 61 5.16256C61 5.33702 61.0481 5.55025 61.1439 5.80278C62.1021 8.0335 63.144 10.1846 64.2693 12.256C65.3952 14.3285 66.3731 15.9976 67.2033 17.2628C68.0335 18.5291 68.8797 19.7224 69.7422 20.8456C70.6048 21.9688 71.1754 22.6881 71.4546 23.004C71.7338 23.321 71.9533 23.5584 72.113 23.716L72.7117 24.2859C73.0946 24.6653 73.6578 25.1199 74.4003 25.6502C75.1428 26.1803 75.9646 26.7021 76.8674 27.2156C77.7691 27.73 78.8193 28.1486 80.0166 28.4734C81.2139 28.7982 82.3794 28.9286 83.5132 28.8647H86.2675C86.8265 28.8175 87.2494 28.6442 87.5367 28.3429L87.6323 28.2245C87.6958 28.1302 87.7561 27.9835 87.8121 27.7859C87.8676 27.5885 87.8963 27.3705 87.8963 27.1337C87.8798 26.4538 87.9323 25.8398 88.0518 25.2949C88.1713 24.749 88.3071 24.3383 88.459 24.0607C88.6108 23.7845 88.782 23.5509 88.974 23.3607C89.1655 23.1705 89.3009 23.0568 89.3812 23.017C89.4611 22.9783 89.5252 22.9505 89.5728 22.9337C89.9556 22.8074 90.4067 22.9301 90.926 23.3015C91.4448 23.674 91.9319 24.1318 92.3872 24.6777C92.8419 25.2236 93.3887 25.836 94.0277 26.5165C94.666 27.1965 95.2249 27.7026 95.704 28.0347L96.1832 28.3203C96.5025 28.5094 96.9172 28.6833 97.4285 28.8421C97.9394 28.9998 98.3868 29.0396 98.7697 28.9605L104.901 28.8651C105.508 28.8651 105.979 28.7667 106.314 28.5686C106.649 28.3722 106.849 28.1532 106.913 27.9164C106.976 27.6791 106.98 27.4114 106.925 27.1101C106.869 26.8099 106.813 26.6004 106.757 26.482C106.701 26.3636 106.649 26.264 106.601 26.1854C105.803 24.762 104.278 23.0138 102.027 20.9419L101.979 20.8947L101.955 20.8706L101.931 20.8475H101.907C100.885 19.8825 100.239 19.2339 99.9673 18.9013C99.4724 18.2695 99.3603 17.6288 99.6321 16.9802C99.8225 16.4885 100.541 15.4522 101.786 13.8701Z" stroke="#E63114" stroke-width="4" mask="url(#path-2-inside-1_257_263)"/>
</svg>
