<svg width="60" height="59" viewBox="0 0 60 59" fill="none" xmlns="http://www.w3.org/2000/svg">
<path d="M11.9572 37.5895C11.8564 38.5757 11.7623 39.6522 11.6805 40.6337C11.4685 43.1776 11.2493 45.8079 10.7311 48.0972C9.76066 52.3845 7.78609 55.0869 6.44174 56.5105L6.29139 53.2729C6.27768 52.9772 6.11608 52.7083 5.86144 52.5574C5.60679 52.4066 5.29344 52.394 5.02731 52.5242C3.88299 53.0839 2.8725 53.3126 2.10318 53.3936C5.55793 48.8462 5.9253 43.8926 6.31307 38.6598C6.54381 35.5457 6.7824 32.3255 7.71191 29.0885C9.51563 22.8062 14.666 20.4006 19.0201 19.5165C19.02 19.5275 19.0193 20.9342 19.0193 20.9342L15.7607 24.1927C15.4174 24.5361 15.4174 25.0924 15.7607 25.4357C16.1038 25.7787 16.6603 25.7789 17.0035 25.4357L21.9198 20.5194C22.5113 19.928 23.2976 19.6022 24.134 19.6022C24.9704 19.6022 25.7567 19.928 26.3481 20.5195C26.9396 21.1108 27.2654 21.8972 27.2654 22.7336C27.2654 23.57 26.9397 24.3563 26.3481 24.9477L18.956 32.34C18.7058 32.5902 18.63 32.966 18.7637 33.2936C18.8974 33.6212 19.2144 33.8367 19.5681 33.8405C19.6365 33.8412 26.4418 34.0011 29.1847 41.6104C29.3139 41.9688 29.6516 42.1916 30.0116 42.1916C30.1105 42.1916 30.2112 42.1747 30.3096 42.1393C30.7662 41.9748 31.003 41.4711 30.8383 41.0144C30.7071 40.6502 30.5666 40.3028 30.4195 39.9682C31.6605 40.3223 32.9432 40.5012 34.2561 40.5012C34.4523 40.5012 34.6494 40.4972 34.847 40.4892C35.3321 40.4696 35.7093 40.0605 35.6897 39.5755C35.6701 39.0906 35.2617 38.7126 34.776 38.7328C32.8037 38.812 30.9034 38.4373 29.1276 37.619C28.2768 36.3659 27.323 35.4065 26.3808 34.6734C26.967 34.2568 27.4438 33.7119 27.7792 33.0841C28.6037 33.9709 29.7793 34.5271 31.0828 34.5271C32.5468 34.5271 33.8495 33.8258 34.6745 32.7422C35.4654 33.8231 36.7426 34.5271 38.1815 34.5271C39.5541 34.5271 40.7791 33.8865 41.5757 32.8894C42.3183 33.8828 43.5034 34.5271 44.8363 34.5271C47.0797 34.5271 48.9048 32.7019 48.9048 30.4585V28.4665C53.0206 27.6458 56.1458 28.5447 57.8925 29.3225L54.8362 31.0097C54.5771 31.1528 54.4073 31.4167 54.3846 31.7118C54.362 32.0069 54.4894 32.2937 54.7237 32.4747C55.7145 33.2399 56.3607 34.0308 56.7739 34.6774C51.4334 33.4799 48.2424 34.7178 44.5701 36.1423C42.8306 36.8171 41.0321 37.5148 38.771 38.0753C38.2998 38.192 38.0126 38.6686 38.1293 39.1398C38.2285 39.5399 38.5872 39.8074 38.9817 39.8074C39.0518 39.8074 39.1229 39.799 39.1938 39.7813C41.5634 39.194 43.4985 38.4434 45.2057 37.7811C45.7843 37.5566 46.3437 37.3396 46.8959 37.1383C46.7171 37.6279 46.4463 38.0807 46.0904 38.476L41.9891 43.0321C41.8438 43.1935 41.7634 43.4029 41.7634 43.6202V56.7601C41.7634 57.2456 42.1569 57.6389 42.6423 57.6389C43.1277 57.6389 43.5212 57.2456 43.5212 56.7601V43.9574L45.2784 42.0055V56.7598C45.2784 57.2453 45.6719 57.6387 46.1573 57.6387H52.7939C53.2792 57.6387 53.6727 57.2453 53.6727 56.7598V35.9889C54.6834 36.056 55.7797 36.2292 57.0041 36.5395C57.5707 36.6835 58.1483 36.489 58.5118 36.0328C58.8753 35.5766 58.9355 34.9705 58.6691 34.4504C58.3285 33.7859 57.7451 32.8747 56.7867 31.9408L59.2426 30.5849C59.7196 30.3216 60.0097 29.8195 59.9996 29.2744C59.9896 28.7308 59.6821 28.2411 59.1969 27.9962C58.0671 27.4262 56.1732 26.6838 53.6727 26.4543V23.2564C53.6727 22.7709 53.2792 22.3775 52.7939 22.3775C52.3085 22.3775 51.915 22.7709 51.915 23.2564V26.3841C50.976 26.3954 49.9699 26.4854 48.9047 26.6777V20.4797C48.9047 19.0465 48.1592 17.7849 47.0362 17.06V13.968C47.0362 13.4825 46.6427 13.0891 46.1573 13.0891H43.6662C43.6418 13.0891 43.5773 13.0891 43.5403 13.0084C43.5033 12.9277 43.5455 12.8788 43.5614 12.8603L49.371 6.12493C49.4052 6.08521 49.4468 6.07688 49.4757 6.07688C49.5047 6.07688 49.5463 6.08521 49.5806 6.12493L55.3901 12.8603C55.4059 12.8787 55.4481 12.9275 55.4111 13.0084C55.3742 13.0891 55.3096 13.0891 55.2852 13.0891H52.794C52.3086 13.0891 51.9151 13.4825 51.9151 13.968V19.0038C51.9151 19.4893 52.3086 19.8827 52.794 19.8827C53.2794 19.8827 53.6729 19.4893 53.6729 19.0038V14.8469H55.2852C56.0359 14.8469 56.6965 14.4229 57.0091 13.7405C57.3218 13.058 57.2114 12.2808 56.7211 11.7122L50.9116 4.97687C50.551 4.55887 50.0278 4.3191 49.4757 4.3191C48.9237 4.3191 48.4003 4.55887 48.0399 4.97687L42.2304 11.7122C41.74 12.2807 41.6297 13.0577 41.9422 13.7403C42.2549 14.4229 42.9155 14.8469 43.6663 14.8469H45.2785V16.4356C45.1332 16.4198 44.9857 16.4111 44.8363 16.4111C43.7839 16.4111 42.8237 16.8127 42.1007 17.4707C41.4 16.0102 39.9067 14.9992 38.1815 14.9992C37.8742 14.9992 37.5742 15.0317 37.2847 15.0928V10.5279H38.8969C39.6476 10.5279 40.3082 10.104 40.6209 9.42148C40.9335 8.73899 40.8231 7.96181 40.3328 7.39323L34.5234 0.657762C34.1628 0.239761 33.6394 0 33.0874 0C32.5354 0 32.012 0.239761 31.6516 0.657762L25.8421 7.39323C25.3517 7.96181 25.2414 8.73887 25.5541 9.42148C25.8667 10.1041 26.5273 10.5279 27.278 10.5279H28.8904V14.7037C28.1584 15.1124 27.5516 15.7187 27.1424 16.4503C26.2896 15.4966 25.0507 14.8949 23.6735 14.8949C23.386 14.8949 23.105 14.9224 22.8319 14.9725L17.8609 9.20937C17.492 8.78164 16.9563 8.53626 16.3914 8.53626C15.8264 8.53626 15.2909 8.78164 14.9221 9.20937L8.86009 16.2376C8.35831 16.8193 8.24534 17.6145 8.56526 18.313C8.88517 19.0115 9.56121 19.4454 10.3295 19.4454H12.0501V20.3939C12.0107 20.4194 11.9703 20.4441 11.9312 20.47C9.00458 22.4037 7.01653 25.1403 6.02221 28.6034C5.0429 32.0147 4.79739 35.3268 4.55997 38.5299C4.17842 43.6786 3.81807 48.5417 0.331923 52.8012C-0.0311173 53.2446 -0.101897 53.8412 0.147005 54.3581C0.397664 54.8783 0.906249 55.1975 1.48936 55.1894C2.24041 55.1797 3.32308 55.0604 4.59384 54.6108L4.71677 57.2581C4.7436 57.8391 5.09575 58.3343 5.63562 58.5503C5.81562 58.6224 6.00182 58.6575 6.18557 58.6575C6.5533 58.6575 6.91177 58.5169 7.19184 58.249C8.64236 56.8621 11.254 53.7496 12.4454 48.4855C12.9906 46.0764 13.2151 43.3838 13.4321 40.7798C13.467 40.3608 13.5027 39.9354 13.5397 39.5095L20.1654 46.1354C20.6573 46.6272 20.9281 47.2809 20.9281 47.9765V56.7602C20.9281 57.2457 21.3216 57.6391 21.807 57.6391C22.2924 57.6391 22.6859 57.2457 22.6859 56.7602V47.9765C22.6859 46.8115 22.2321 45.7161 21.4084 44.8924L14.4763 37.9603C13.1411 36.6251 12.4059 34.85 12.4059 32.9617C12.4059 31.2708 12.9805 29.697 14.0676 28.4103C14.3808 28.0395 14.3342 27.485 13.9634 27.1718C13.5926 26.8583 13.0381 26.9053 12.7249 27.2758C11.3857 28.861 10.6481 30.8804 10.6481 32.9618C10.6482 34.622 11.1055 36.2116 11.9572 37.5895ZM29.7693 8.77016H27.278C27.2536 8.77016 27.1892 8.77016 27.1522 8.68942C27.1151 8.60868 27.1573 8.55981 27.1731 8.5413L32.9827 1.80583C33.0169 1.7661 33.0585 1.75778 33.0875 1.75778C33.1164 1.75778 33.1581 1.7661 33.1924 1.80583L39.0018 8.5413C39.0177 8.55969 39.0598 8.60856 39.0228 8.68942C38.9859 8.77016 38.9213 8.77016 38.8969 8.77016H36.4058C35.9204 8.77016 35.5269 9.16355 35.5269 9.64905V15.9082C35.3356 16.0564 35.1567 16.2198 34.9927 16.3973C34.2122 15.0457 32.7524 14.1334 31.0828 14.1334C30.9362 14.1334 30.7912 14.141 30.6481 14.1547V9.64893C30.6481 9.16355 30.2546 8.77016 29.7693 8.77016ZM13.8078 19.4043V18.5665C13.8078 18.081 13.4143 17.6876 12.9289 17.6876H10.3294C10.2516 17.6876 10.1957 17.6518 10.1633 17.581C10.131 17.5102 10.1402 17.4446 10.1911 17.3856L16.2532 10.3573C16.2983 10.3051 16.3533 10.294 16.3914 10.294C16.4296 10.294 16.4844 10.3051 16.5298 10.3574L21.1097 15.6673C20.3756 16.1538 19.7874 16.8427 19.4241 17.6539C17.3546 18.0067 15.4745 18.5931 13.8078 19.4043ZM20.8045 19.155C20.9975 17.7437 22.2101 16.6528 23.6735 16.6528C24.845 16.6528 25.8556 17.3522 26.3115 18.3551C25.6433 18.0219 24.9024 17.8445 24.1339 17.8445C22.887 17.8444 21.7119 18.3092 20.8045 19.155ZM26.5701 30.8826C26.5701 32.0918 25.8351 33.1523 24.7225 33.5825C24.4925 33.4564 24.2679 33.3423 24.0508 33.24C23.0836 32.784 22.1796 32.5078 21.4414 32.3403L26.5701 27.2114V30.8826ZM31.0828 32.7693C29.5637 32.7693 28.3279 31.5334 28.3279 30.0144V25.2496C28.7809 24.4975 29.0229 23.6342 29.0229 22.7336C29.0229 21.8329 28.7809 20.9696 28.3279 20.2177V18.6461C28.3279 17.127 29.5637 15.8912 31.0828 15.8912C32.6019 15.8912 33.8377 17.127 33.8377 18.6461V30.0144C33.8377 31.5334 32.6019 32.7693 31.0828 32.7693ZM38.1816 32.7693C36.7557 32.7693 35.5956 31.6092 35.5956 30.1832V19.343C35.5956 17.917 36.7557 16.7569 38.1816 16.7569C39.6077 16.7569 40.7678 17.917 40.7678 19.343V30.1832C40.7677 31.6091 39.6077 32.7693 38.1816 32.7693ZM47.1472 30.4585C47.1472 31.7326 46.1105 32.7693 44.8364 32.7693C43.5622 32.7693 42.5256 31.7326 42.5256 30.4585V20.4797C42.5256 19.2055 43.5622 18.1688 44.8364 18.1688C46.1105 18.1688 47.1472 19.2055 47.1472 20.4797V30.4585ZM47.0364 55.8809V40.0527L47.397 39.6522C48.1944 38.7663 48.6951 37.6795 48.8521 36.5016C49.8296 36.2316 50.829 36.0424 51.9152 35.979V55.8809H47.0364Z" fill="#E63114"/>
<path d="M34.5921 46.8205C34.5921 46.335 34.1986 45.9416 33.7132 45.9416C33.2279 45.9416 32.8344 46.335 32.8344 46.8205V49.4897C31.9768 48.1266 30.7011 46.8412 28.8035 46.0144C28.3583 45.8206 27.8406 46.0242 27.6467 46.4691C27.4527 46.9141 27.6563 47.432 28.1012 47.6259C30.0512 48.4755 31.4382 50.0464 32.2238 52.2949C32.8297 54.0292 32.8344 55.5358 32.8342 55.5611V56.76C32.8342 57.2455 33.2277 57.6389 33.7131 57.6389C34.1985 57.6389 34.592 57.2455 34.592 56.76L34.5921 46.8205Z" fill="#E63114"/>
</svg>
