<svg width="60" height="60" viewBox="0 0 60 60" fill="none" xmlns="http://www.w3.org/2000/svg">
<path d="M16.6772 45.7689L24.7984 39.4539V36.8097C21.8946 35.0619 19.9472 31.8779 19.9472 28.2464V20.221C19.9472 16.5458 22.9343 13.5559 26.6061 13.5559H34.061L34.5739 12.5737C34.7661 12.2056 35.107 11.9358 35.5091 11.8335C35.9113 11.7311 36.3394 11.8053 36.684 12.0367C38.6976 13.3897 39.8997 15.6467 39.8997 18.0742V28.2463C39.8997 29.2536 39.7499 30.2486 39.4545 31.2036C39.3109 31.6678 38.8187 31.9273 38.3549 31.7838C37.8912 31.64 37.6317 31.1473 37.7753 30.6832C38.0185 29.8968 38.1418 29.0769 38.1418 28.2463V23.0773C32.7417 22.1506 27.2194 22.1514 21.7051 23.0799V28.2463C21.7051 32.7822 25.3919 36.4724 29.9235 36.4724C32.3008 36.4724 34.5614 35.44 36.1253 33.64C36.4438 33.2733 36.9991 33.2346 37.3653 33.5536C37.7315 33.8724 37.7703 34.4282 37.4517 34.7948C36.8247 35.5163 36.105 36.1355 35.3189 36.6422V39.4538L43.4401 45.7688C46.0048 47.763 47.4756 50.7711 47.4756 54.0217V59.12C47.4756 59.6059 47.0821 59.9998 46.5967 59.9998C46.1113 59.9998 45.7177 59.6059 45.7177 59.12V54.0217C45.7177 51.3184 44.4945 48.8168 42.3617 47.1584L35.0688 41.4875C34.3897 43.6091 32.4008 45.1498 30.0586 45.1498C27.7164 45.1498 25.7275 43.6093 25.0484 41.4875L17.7555 47.1584C15.6227 48.8168 14.3994 51.3184 14.3994 54.0217V59.12C14.3994 59.6059 14.0059 59.9998 13.5205 59.9998C13.0351 59.9998 12.6416 59.6059 12.6416 59.12V54.0217C12.6417 50.7713 14.1126 47.7632 16.6772 45.7689ZM38.1419 21.2937V18.0744C38.1419 16.3454 37.3375 14.7306 35.974 13.691L35.3722 14.8434C35.2207 15.1336 34.9206 15.3155 34.5934 15.3155H26.6062C23.9038 15.3155 21.7052 17.5162 21.7052 20.2212V21.2972C27.217 20.4007 32.7362 20.3995 38.1419 21.2937ZM30.0587 43.3904C31.9899 43.3904 33.5611 41.8177 33.5611 39.8847V37.5435C32.4146 37.9937 31.1826 38.2322 29.9235 38.2322C28.7422 38.2322 27.6087 38.0243 26.5562 37.6455V39.8847C26.5563 41.8177 28.1275 43.3904 30.0587 43.3904Z" fill="#E63114"/>
<path d="M39.9768 53.7029C40.4622 53.7029 40.8558 54.0968 40.8558 54.5827V59.1202C40.8558 59.6061 40.4622 60 39.9768 60C39.4914 60 39.0979 59.6061 39.0979 59.1202V54.5827C39.0979 54.0968 39.4913 53.7029 39.9768 53.7029Z" fill="#E63114"/>
<path d="M20.1407 53.7029C20.6261 53.7029 21.0196 54.0968 21.0196 54.5827V59.1202C21.0196 59.6061 20.6261 60 20.1407 60C19.6553 60 19.2618 59.6061 19.2618 59.1202V54.5827C19.2618 54.0968 19.6553 53.7029 20.1407 53.7029Z" fill="#E63114"/>
<path d="M58.0725 48.1076L51.4546 42.4027C51.2606 42.2355 51.1491 41.9921 51.1491 41.736V39.5652C50.5122 39.819 49.8187 39.96 49.0924 39.96C48.3662 39.96 47.6726 39.819 47.0357 39.5652V41.736C47.0357 41.9921 46.9242 42.2355 46.7303 42.4027L45.0208 43.8764C44.8549 44.0195 44.6508 44.0895 44.4476 44.0895C44.2007 44.0895 43.9551 43.9859 43.7811 43.7838C43.4644 43.4157 43.5057 42.8602 43.8736 42.5431L45.2778 41.3326V38.446C44.1914 37.4261 43.5109 35.978 43.5109 34.3731V31.9726C43.5109 28.892 46.0148 26.3858 49.0924 26.3858C52.1701 26.3858 54.6741 28.8921 54.6741 31.9726V34.3731C54.6741 35.978 53.9934 37.4261 52.907 38.4462V41.3326L59.2197 46.7743C59.6183 47.118 59.8469 47.6171 59.8469 48.1436V51.2009C59.8469 52.0302 59.255 52.7387 58.4397 52.8855C55.6936 53.38 52.8795 53.6572 50.0753 53.7094C50.0697 53.7095 50.0642 53.7095 50.0586 53.7095C49.5808 53.7095 49.1891 53.3263 49.1801 52.8462C49.1711 52.3603 49.5571 51.9592 50.0425 51.9502C52.7402 51.8999 55.447 51.6343 58.0889 51.1608V48.1435C58.0889 48.1298 58.083 48.1166 58.0725 48.1076ZM52.9161 31.9726C52.9161 29.8622 51.2007 28.1453 49.0923 28.1453C46.9839 28.1453 45.2687 29.8623 45.2687 31.9726V34.3731C45.2687 36.4835 46.984 38.2004 49.0923 38.2004C51.2007 38.2004 52.9161 36.4835 52.9161 34.3731V31.9726Z" fill="#E63114"/>
<path d="M8.69803 41.736C8.69803 41.9921 8.58657 42.2355 8.39274 42.4027L6.93791 43.6568C6.77185 43.7999 6.56782 43.8699 6.36472 43.8699C6.1178 43.8699 5.87216 43.7663 5.69825 43.5643C5.38148 43.1961 5.42285 42.6406 5.79071 42.3235L6.94026 41.3326V38.446C5.85388 37.4261 5.17334 35.978 5.17334 34.3731V31.9726C5.17334 28.892 7.67728 26.3858 10.755 26.3858C13.8327 26.3858 16.3365 28.8921 16.3365 31.9726V34.3731C16.3365 35.978 15.6559 37.4261 14.5696 38.446V41.3325L15.9738 42.543C16.3416 42.86 16.3829 43.4156 16.0663 43.7837C15.8925 43.9858 15.6468 44.0894 15.3998 44.0894C15.1967 44.0894 14.9926 44.0194 14.8266 43.8762L13.1171 42.4026C12.9232 42.2354 12.8117 41.992 12.8117 41.7359V39.5651C12.1748 39.8188 11.4812 39.9598 10.755 39.9598C10.0287 39.9598 9.3352 39.8188 8.69826 39.5651V41.736H8.69803ZM10.7548 38.2004C12.8632 38.2004 14.5784 36.4835 14.5784 34.3731V31.9726C14.5784 29.8622 12.863 28.1453 10.7546 28.1453C8.64622 28.1453 6.931 29.8623 6.931 31.9726V34.3731C6.93111 36.4835 8.64634 38.2004 10.7548 38.2004Z" fill="#E63114"/>
<path d="M0.627445 46.7743L2.90004 44.8153C3.26791 44.4982 3.82293 44.5396 4.13971 44.9078C4.45648 45.276 4.41511 45.8316 4.04724 46.1486L1.77452 48.1077C1.7641 48.1167 1.758 48.1299 1.758 48.1438V51.1611C4.39988 51.6347 7.1069 51.9002 9.80444 51.9506C10.2899 51.9596 10.6759 52.3608 10.6669 52.8465C10.658 53.3268 10.2663 53.7099 9.78838 53.7099C9.78288 53.7099 9.77726 53.7099 9.77163 53.7097C6.96756 53.6575 4.15342 53.3802 1.40736 52.8858C0.591934 52.7391 0 52.0306 0 51.2012V48.144C0.000232697 47.617 0.228874 47.1179 0.627445 46.7743Z" fill="#E63114"/>
<path d="M8.31317 14.8819H8.77444C9.09941 14.8819 9.3979 15.0614 9.55048 15.3486L10.9072 17.9025L12.2188 15.3582C12.3697 15.0657 12.671 14.8819 12.9999 14.8819H18.4502C18.9356 14.8819 19.3291 15.2758 19.3291 15.7617C19.3291 16.2475 18.9356 16.6414 18.4502 16.6414H13.5354L12.3606 18.9201C12.081 19.4624 11.5286 19.8018 10.9189 19.8056H10.9086C10.303 19.8056 9.751 19.4738 9.46622 18.938L8.24613 16.6412C3.6932 16.6049 0.000347137 12.8864 0.000347137 8.32077C0.000347137 6.76885 0.431499 5.25342 1.24728 3.93821C1.50334 3.52543 2.04536 3.39862 2.45764 3.65481C2.87004 3.91112 2.99685 4.45353 2.74078 4.86632C2.09809 5.90257 1.75835 7.09707 1.75835 8.32077C1.75812 11.9386 4.69872 14.8819 8.31317 14.8819Z" fill="#E63114"/>
<path d="M51.7542 16.6411L50.534 18.938C50.2493 19.4738 49.6974 19.8055 49.0916 19.8055H49.0813C48.4717 19.8018 47.9191 19.4624 47.6396 18.9201L46.4648 16.6414H42.2634C41.778 16.6414 41.3844 16.2475 41.3844 15.7616C41.3844 15.2758 41.778 14.8819 42.2634 14.8819H47.0003C47.3291 14.8819 47.6306 15.0657 47.7814 15.3582L49.0931 17.9025L50.4497 15.3486C50.6023 15.0613 50.9008 14.8819 51.2258 14.8819H51.6871C55.3015 14.8819 58.2421 11.9385 58.2421 8.32065C58.2421 4.70279 55.3015 1.75954 51.6871 1.75954H8.31317C7.21191 1.75954 6.12237 2.03861 5.16233 2.56647C4.73668 2.80049 4.20252 2.64483 3.96872 2.21902C3.73492 1.79321 3.89044 1.25831 4.31585 1.02429C5.53453 0.354255 6.9167 0 8.31317 0H51.6871C56.2708 0 60 3.7327 60 8.32077C60 12.8864 56.3071 16.6049 51.7542 16.6411Z" fill="#E63114"/>
<path d="M46.3009 7.64119C46.4333 8.44268 45.7474 9.12922 44.9467 8.99668C44.4615 8.91633 44.0704 8.52467 43.9901 8.03918C43.8577 7.23769 44.5436 6.55126 45.3443 6.68369C45.8293 6.76392 46.2206 7.15558 46.3009 7.64119Z" fill="#E63114"/>
<path d="M36.2458 7.84013C36.2458 8.4869 35.7201 9.0131 35.0739 9.0131C34.4277 9.0131 33.902 8.4869 33.902 7.84013C33.902 7.19335 34.4277 6.66715 35.0739 6.66715C35.7202 6.66715 36.2458 7.19335 36.2458 7.84013Z" fill="#E63114"/>
<path d="M13.683 7.84013C13.683 7.19335 14.2087 6.66715 14.8549 6.66715C15.5011 6.66715 16.0268 7.19335 16.0268 7.84013C16.0268 8.4869 15.5011 9.0131 14.8549 9.0131C14.2087 9.0131 13.683 8.4869 13.683 7.84013Z" fill="#E63114"/>
<path d="M26.0983 7.84013C26.0983 8.4869 25.5726 9.0131 24.9264 9.0131C24.2803 9.0131 23.7546 8.4869 23.7546 7.84013C23.7546 7.19335 24.2803 6.66715 24.9264 6.66715C25.5726 6.66715 26.0983 7.19335 26.0983 7.84013Z" fill="#E63114"/>
</svg>
