<svg width="30" height="34" viewBox="0 0 30 34" fill="none" xmlns="http://www.w3.org/2000/svg">
<path d="M2.5026 28.1616C2.32919 28.1616 2.16288 28.0927 2.04026 27.9701C1.91764 27.8474 1.84875 27.6811 1.84875 27.5077V25.028C1.84875 24.8546 1.91764 24.6883 2.04026 24.5657C2.16288 24.443 2.32919 24.3742 2.5026 24.3742C2.67601 24.3742 2.84232 24.443 2.96494 24.5657C3.08756 24.6883 3.15644 24.8546 3.15644 25.028V27.5077C3.15644 27.6811 3.08756 27.8474 2.96494 27.9701C2.84232 28.0927 2.67601 28.1616 2.5026 28.1616Z" fill="white"/>
<path d="M2.5026 15.8043C2.32919 15.8043 2.16288 15.7354 2.04026 15.6128C1.91764 15.4902 1.84875 15.3238 1.84875 15.1504V12.6707C1.84875 12.4973 1.91764 12.331 2.04026 12.2084C2.16288 12.0858 2.32919 12.0169 2.5026 12.0169C2.67601 12.0169 2.84232 12.0858 2.96494 12.2084C3.08756 12.331 3.15644 12.4973 3.15644 12.6707V15.1504C3.15644 15.3238 3.08756 15.4902 2.96494 15.6128C2.84232 15.7354 2.67601 15.8043 2.5026 15.8043Z" fill="white"/>
<path d="M26.0721 34H5.742C4.93924 33.999 4.15635 33.7503 3.50011 33.288C2.84388 32.8256 2.34626 32.1721 2.07514 31.4165C2.04622 31.3356 2.03351 31.2498 2.03773 31.1641C2.04196 31.0783 2.06304 30.9942 2.09977 30.9165C2.1365 30.8389 2.18817 30.7692 2.25182 30.7116C2.31546 30.6539 2.38985 30.6093 2.47072 30.5804C2.5516 30.5515 2.63737 30.5387 2.72316 30.543C2.80895 30.5472 2.89306 30.5683 2.9707 30.605C3.04834 30.6417 3.11799 30.6934 3.17566 30.7571C3.23333 30.8207 3.2779 30.8951 3.30683 30.976C3.48675 31.4779 3.81716 31.9121 4.25299 32.2192C4.68881 32.5264 5.2088 32.6916 5.742 32.6923H26.0721C26.7576 32.6916 27.4148 32.4189 27.8995 31.9342C28.3843 31.4495 28.6569 30.7923 28.6577 30.1068V3.89325C28.6569 3.20775 28.3843 2.55054 27.8995 2.06582C27.4148 1.5811 26.7576 1.30845 26.0721 1.30769H5.742C5.2088 1.30838 4.68881 1.47359 4.25299 1.78076C3.81716 2.08794 3.48675 2.52212 3.30683 3.02404C3.24852 3.18737 3.12771 3.32085 2.97099 3.39511C2.81427 3.46937 2.63446 3.47833 2.47113 3.42002C2.3078 3.36171 2.17432 3.24091 2.10006 3.08419C2.0258 2.92746 2.01684 2.74766 2.07514 2.58433C2.34613 1.82859 2.84369 1.17486 3.49993 0.712353C4.15618 0.249844 4.93914 0.00107786 5.742 0H26.0721C27.1043 0.00118972 28.0939 0.411752 28.8237 1.14162C29.5536 1.87149 29.9642 2.86106 29.9654 3.89325V30.1068C29.9642 31.1389 29.5536 32.1285 28.8237 32.8584C28.0939 33.5882 27.1043 33.9988 26.0721 34Z" fill="white"/>
<path d="M2.5026 9.62584C2.32919 9.62584 2.16288 9.55695 2.04026 9.43433C1.91764 9.31171 1.84875 9.14541 1.84875 8.97199V6.49228C1.84875 6.31887 1.91764 6.15257 2.04026 6.02994C2.16288 5.90732 2.32919 5.83844 2.5026 5.83844C2.67601 5.83844 2.84232 5.90732 2.96494 6.02994C3.08756 6.15257 3.15644 6.31887 3.15644 6.49228V8.97199C3.15644 9.14541 3.08756 9.31171 2.96494 9.43433C2.84232 9.55695 2.67601 9.62584 2.5026 9.62584Z" fill="white"/>
<path d="M2.5026 21.9831C2.32919 21.9831 2.16288 21.9142 2.04026 21.7916C1.91764 21.669 1.84875 21.5027 1.84875 21.3293V18.8496C1.84875 18.6762 1.91764 18.5098 2.04026 18.3872C2.16288 18.2646 2.32919 18.1957 2.5026 18.1957C2.67601 18.1957 2.84232 18.2646 2.96494 18.3872C3.08756 18.5098 3.15644 18.6762 3.15644 18.8496V21.3293C3.15644 21.5027 3.08756 21.669 2.96494 21.7916C2.84232 21.9142 2.67601 21.9831 2.5026 21.9831Z" fill="white"/>
<path d="M7.61445 34C7.44104 34 7.27473 33.9311 7.15211 33.8085C7.02949 33.6859 6.9606 33.5196 6.9606 33.3462V0.653846C6.9606 0.480435 7.02949 0.314127 7.15211 0.191507C7.27473 0.0688873 7.44104 0 7.61445 0C7.78786 0 7.95417 0.0688873 8.07679 0.191507C8.19941 0.314127 8.2683 0.480435 8.2683 0.653846V33.3462C8.2683 33.5196 8.19941 33.6859 8.07679 33.8085C7.95417 33.9311 7.78786 34 7.61445 34Z" fill="white"/>
<path d="M2.5026 7.14613C2.00757 7.14605 1.52368 6.99918 1.11211 6.7241C0.70055 6.44902 0.379798 6.05807 0.190414 5.6007C0.0010298 5.14333 -0.0484796 4.64007 0.0481455 4.15456C0.144771 3.66905 0.383191 3.2231 0.733259 2.87309C1.08333 2.52308 1.52932 2.28473 2.01484 2.18819C2.50037 2.09164 3.00362 2.14123 3.46096 2.33069C3.9183 2.52015 4.30919 2.84096 4.58421 3.25257C4.85922 3.66418 5.00601 4.14809 5.00601 4.64313C5.00525 5.3068 4.74125 5.94307 4.27192 6.41232C3.80259 6.88158 3.16627 7.14548 2.5026 7.14613ZM2.5026 3.44781C2.2662 3.44789 2.03514 3.51807 1.83863 3.64946C1.64211 3.78085 1.48897 3.96756 1.39856 4.18598C1.30816 4.4044 1.28454 4.64473 1.33071 4.87657C1.37688 5.10841 1.49075 5.32136 1.65794 5.48848C1.82512 5.65561 2.03811 5.76941 2.26996 5.8155C2.50182 5.86159 2.74214 5.83789 2.96053 5.74741C3.17892 5.65693 3.36558 5.50372 3.4969 5.30716C3.62822 5.1106 3.69832 4.87952 3.69832 4.64313C3.69799 4.32614 3.5719 4.02223 3.34772 3.79813C3.12353 3.57402 2.81959 3.44803 2.5026 3.44781Z" fill="white"/>
<path d="M2.5026 13.3246C2.00757 13.3245 1.52368 13.1776 1.11211 12.9025C0.70055 12.6275 0.379798 12.2365 0.190414 11.7791C0.0010298 11.3218 -0.0484796 10.8185 0.0481455 10.333C0.144771 9.84749 0.383191 9.40154 0.733259 9.05153C1.08333 8.70152 1.52932 8.46317 2.01484 8.36662C2.50037 8.27008 3.00362 8.31967 3.46096 8.50913C3.9183 8.69858 4.30919 9.0194 4.58421 9.43101C4.85922 9.84262 5.00601 10.3265 5.00601 10.8216C5.00525 11.4852 4.74125 12.1215 4.27192 12.5908C3.80259 13.06 3.16627 13.3239 2.5026 13.3246ZM2.5026 9.62625C2.2662 9.62633 2.03514 9.6965 1.83863 9.8279C1.64211 9.95929 1.48897 10.146 1.39856 10.3644C1.30816 10.5828 1.28454 10.8232 1.33071 11.055C1.37688 11.2868 1.49075 11.4998 1.65794 11.6669C1.82512 11.834 2.03811 11.9478 2.26996 11.9939C2.50182 12.04 2.74214 12.0163 2.96053 11.9258C3.17892 11.8354 3.36558 11.6822 3.4969 11.4856C3.62822 11.289 3.69832 11.058 3.69832 10.8216C3.69799 10.5046 3.5719 10.2007 3.34772 9.97656C3.12353 9.75246 2.81959 9.62647 2.5026 9.62625Z" fill="white"/>
<path d="M2.5026 19.503C2.00757 19.5029 1.52368 19.3561 1.11211 19.081C0.70055 18.8059 0.379798 18.4149 0.190414 17.9576C0.0010298 17.5002 -0.0484796 16.9969 0.0481455 16.5114C0.144771 16.0259 0.383191 15.58 0.733259 15.23C1.08333 14.88 1.52932 14.6416 2.01484 14.5451C2.50037 14.4485 3.00362 14.4981 3.46096 14.6876C3.9183 14.877 4.30919 15.1978 4.58421 15.6094C4.85922 16.0211 5.00601 16.505 5.00601 17C5.00525 17.6637 4.74125 18.2999 4.27192 18.7692C3.80259 19.2385 3.16627 19.5024 2.5026 19.503ZM2.5026 15.8047C2.2662 15.8048 2.03514 15.8749 1.83863 16.0063C1.64211 16.1377 1.48897 16.3244 1.39856 16.5429C1.30816 16.7613 1.28454 17.0016 1.33071 17.2334C1.37688 17.4653 1.49075 17.6782 1.65794 17.8454C1.82512 18.0125 2.03811 18.1263 2.26996 18.1724C2.50182 18.2185 2.74214 18.1948 2.96053 18.1043C3.17892 18.0138 3.36558 17.8606 3.4969 17.664C3.62822 17.4675 3.69832 17.2364 3.69832 17C3.69799 16.683 3.5719 16.3791 3.34772 16.155C3.12353 15.9309 2.81959 15.8049 2.5026 15.8047Z" fill="white"/>
<path d="M2.5026 25.6814C2.00757 25.6814 1.52368 25.5345 1.11211 25.2594C0.70055 24.9843 0.379798 24.5934 0.190414 24.136C0.0010298 23.6786 -0.0484796 23.1754 0.0481455 22.6899C0.144771 22.2044 0.383191 21.7584 0.733259 21.4084C1.08333 21.0584 1.52932 20.82 2.01484 20.7235C2.50037 20.6269 3.00362 20.6765 3.46096 20.866C3.9183 21.0555 4.30919 21.3763 4.58421 21.7879C4.85922 22.1995 5.00601 22.6834 5.00601 23.1784C5.00525 23.8421 4.74125 24.4784 4.27192 24.9476C3.80259 25.4169 3.16627 25.6808 2.5026 25.6814ZM2.5026 21.9831C2.2662 21.9832 2.03514 22.0534 1.83863 22.1848C1.64211 22.3162 1.48897 22.5029 1.39856 22.7213C1.30816 22.9397 1.28454 23.18 1.33071 23.4119C1.37688 23.6437 1.49075 23.8567 1.65794 24.0238C1.82512 24.1909 2.03811 24.3047 2.26996 24.3508C2.50182 24.3969 2.74214 24.3732 2.96053 24.2827C3.17892 24.1922 3.36558 24.039 3.4969 23.8425C3.62822 23.6459 3.69832 23.4148 3.69832 23.1784C3.69799 22.8615 3.5719 22.5575 3.34772 22.3334C3.12353 22.1093 2.81958 21.9833 2.5026 21.9831Z" fill="white"/>
<path d="M2.5026 31.8599C2.00757 31.8598 1.52368 31.7129 1.11211 31.4378C0.70055 31.1628 0.379798 30.7718 0.190414 30.3145C0.0010298 29.8571 -0.0484796 29.3538 0.0481455 28.8683C0.144771 28.3828 0.383191 27.9368 0.733259 27.5868C1.08333 27.2368 1.52932 26.9985 2.01484 26.9019C2.50037 26.8054 3.00362 26.855 3.46096 27.0444C3.9183 27.2339 4.30919 27.5547 4.58421 27.9663C4.85922 28.3779 5.00601 28.8618 5.00601 29.3569C5.00525 30.0206 4.74125 30.6568 4.27192 31.1261C3.80259 31.5953 3.16627 31.8592 2.5026 31.8599ZM2.5026 28.1616C2.2662 28.1616 2.03514 28.2318 1.83863 28.3632C1.64211 28.4946 1.48897 28.6813 1.39856 28.8997C1.30816 29.1182 1.28454 29.3585 1.33071 29.5903C1.37688 29.8222 1.49075 30.0351 1.65794 30.2022C1.82512 30.3694 2.03811 30.4832 2.26996 30.5292C2.50182 30.5753 2.74214 30.5516 2.96053 30.4612C3.17892 30.3707 3.36558 30.2175 3.4969 30.0209C3.62822 29.8244 3.69832 29.5933 3.69832 29.3569C3.69799 29.0399 3.5719 28.736 3.34772 28.5119C3.12353 28.2878 2.81958 28.1618 2.5026 28.1616Z" fill="white"/>
<path d="M26.9152 6.32719H17.7482C17.5748 6.32719 17.4085 6.2583 17.2859 6.13568C17.1633 6.01306 17.0944 5.84675 17.0944 5.67334C17.0944 5.49993 17.1633 5.33362 17.2859 5.211C17.4085 5.08838 17.5748 5.0195 17.7482 5.0195H26.9152C27.0886 5.0195 27.2549 5.08838 27.3775 5.211C27.5001 5.33362 27.569 5.49993 27.569 5.67334C27.569 5.84675 27.5001 6.01306 27.3775 6.13568C27.2549 6.2583 27.0886 6.32719 26.9152 6.32719Z" fill="white"/>
<path d="M26.9152 13.8783H17.7482C17.5748 13.8783 17.4085 13.8094 17.2859 13.6868C17.1633 13.5642 17.0944 13.3979 17.0944 13.2244C17.0944 13.051 17.1633 12.8847 17.2859 12.7621C17.4085 12.6395 17.5748 12.5706 17.7482 12.5706H26.9152C27.0886 12.5706 27.2549 12.6395 27.3775 12.7621C27.5001 12.8847 27.569 13.051 27.569 13.2244C27.569 13.3979 27.5001 13.5642 27.3775 13.6868C27.2549 13.8094 27.0886 13.8783 26.9152 13.8783Z" fill="white"/>
<path d="M26.9152 21.4294H17.7482C17.5748 21.4294 17.4085 21.3605 17.2859 21.2379C17.1633 21.1153 17.0944 20.949 17.0944 20.7756C17.0944 20.6021 17.1633 20.4358 17.2859 20.3132C17.4085 20.1906 17.5748 20.1217 17.7482 20.1217H26.9152C27.0886 20.1217 27.2549 20.1906 27.3775 20.3132C27.5001 20.4358 27.569 20.6021 27.569 20.7756C27.569 20.949 27.5001 21.1153 27.3775 21.2379C27.2549 21.3605 27.0886 21.4294 26.9152 21.4294Z" fill="white"/>
<path d="M26.9152 28.9805H17.7482C17.5748 28.9805 17.4085 28.9116 17.2859 28.789C17.1633 28.6664 17.0944 28.5001 17.0944 28.3267C17.0944 28.1532 17.1633 27.9869 17.2859 27.8643C17.4085 27.7417 17.5748 27.6728 17.7482 27.6728H26.9152C27.0886 27.6728 27.2549 27.7417 27.3775 27.8643C27.5001 27.9869 27.569 28.1532 27.569 28.3267C27.569 28.5001 27.5001 28.6664 27.3775 28.789C27.2549 28.9116 27.0886 28.9805 26.9152 28.9805Z" fill="white"/>
<path d="M12.8084 31.618C12.7068 31.6178 12.6067 31.594 12.5159 31.5484C12.4251 31.5028 12.3461 31.4366 12.2854 31.3552L9.23476 27.2687C9.15057 27.1557 9.10513 27.0185 9.10522 26.8776V6.08649C9.10007 5.59677 9.19209 5.11089 9.37594 4.65696C9.55978 4.20302 9.83182 3.79005 10.1763 3.44194C10.5208 3.09382 10.9309 2.81746 11.3828 2.62885C11.8348 2.44025 12.3197 2.34314 12.8095 2.34314C13.2992 2.34314 13.7841 2.44025 14.2361 2.62885C14.688 2.81746 15.0981 3.09382 15.4426 3.44194C15.7871 3.79005 16.0591 4.20302 16.243 4.65696C16.4268 5.11089 16.5188 5.59677 16.5137 6.08649V26.8776C16.5137 27.0185 16.4681 27.1557 16.3838 27.2687L13.3332 31.3552C13.2722 31.4368 13.193 31.5031 13.1019 31.5487C13.0108 31.5944 12.9103 31.6181 12.8084 31.618ZM10.4121 26.6602L12.8084 29.8726L15.2052 26.6618V6.08649C15.2093 5.76914 15.1504 5.45412 15.0318 5.15973C14.9133 4.86533 14.7374 4.59742 14.5144 4.37153C14.2915 4.14565 14.0259 3.9663 13.7331 3.84389C13.4402 3.72148 13.126 3.65844 12.8086 3.65844C12.4913 3.65844 12.177 3.72148 11.8842 3.84389C11.5914 3.9663 11.3258 4.14565 11.1029 4.37153C10.8799 4.59742 10.704 4.86533 10.5855 5.15973C10.4669 5.45412 10.4079 5.76914 10.4121 6.08649V26.6602Z" fill="white"/>
<path d="M15.859 27.5314H9.75825C9.58484 27.5314 9.41853 27.4625 9.29591 27.3399C9.17329 27.2173 9.1044 27.051 9.1044 26.8776C9.1044 26.7042 9.17329 26.5379 9.29591 26.4152C9.41853 26.2926 9.58484 26.2237 9.75825 26.2237H15.859C16.0325 26.2237 16.1988 26.2926 16.3214 26.4152C16.444 26.5379 16.5129 26.7042 16.5129 26.8776C16.5129 27.051 16.444 27.2173 16.3214 27.3399C16.1988 27.4625 16.0325 27.5314 15.859 27.5314Z" fill="white"/>
<path d="M15.859 8.14651H9.75784C9.58443 8.14651 9.41812 8.07763 9.2955 7.95501C9.17288 7.83239 9.10399 7.66608 9.10399 7.49267C9.10399 7.31926 9.17288 7.15295 9.2955 7.03033C9.41812 6.90771 9.58443 6.83882 9.75784 6.83882H15.859C16.0325 6.83882 16.1988 6.90771 16.3214 7.03033C16.444 7.15295 16.5129 7.31926 16.5129 7.49267C16.5129 7.66608 16.444 7.83239 16.3214 7.95501C16.1988 8.07763 16.0325 8.14651 15.859 8.14651Z" fill="white"/>
<path d="M12.8084 27.5314C12.635 27.5314 12.4687 27.4625 12.3461 27.3399C12.2235 27.2173 12.1546 27.051 12.1546 26.8776V7.49267C12.1546 7.31926 12.2235 7.15295 12.3461 7.03033C12.4687 6.90771 12.635 6.83882 12.8084 6.83882C12.9818 6.83882 13.1482 6.90771 13.2708 7.03033C13.3934 7.15295 13.4623 7.31926 13.4623 7.49267V26.8776C13.4623 27.051 13.3934 27.2173 13.2708 27.3399C13.1482 27.4625 12.9818 27.5314 12.8084 27.5314Z" fill="white"/>
</svg>
