<svg width="38" height="34" viewBox="0 0 38 34" fill="none" xmlns="http://www.w3.org/2000/svg">
<path d="M28.8409 26.8703C28.5349 26.8703 28.2871 27.1127 28.2871 27.4117V31.3643C28.2871 32.2204 27.5749 32.9169 26.6996 32.9169H10.7343C9.85904 32.9169 9.14689 32.2204 9.14689 31.3643V15.2295C9.14689 14.9305 8.89901 14.688 8.59303 14.688C8.28704 14.688 8.03916 14.9305 8.03916 15.2295V21.3853H3.05326C2.74756 21.3853 2.49968 21.628 2.49968 21.927V25.5755C1.06651 25.9213 0 27.1886 0 28.6955C0 30.4673 1.47382 31.9091 3.28568 31.9091C5.09725 31.9091 6.57136 30.4673 6.57136 28.6955C6.57136 27.0296 5.26842 25.6561 3.60712 25.4977V22.4687H8.03916V31.3643C8.03916 32.8175 9.24821 34 10.7341 34H26.6996C28.1857 34 29.3945 32.8175 29.3945 31.3643V27.412C29.3948 27.1127 29.1469 26.8703 28.8409 26.8703ZM5.46363 28.6955C5.46363 29.8702 4.48672 30.8257 3.28568 30.8257C2.08464 30.8257 1.10744 29.8702 1.10744 28.6955C1.10744 27.5209 2.08464 26.5651 3.28568 26.5651C4.48672 26.5651 5.46363 27.5209 5.46363 28.6955Z" fill="white"/>
<path d="M13.6096 13.486C14.7098 13.486 15.6049 12.6106 15.6049 11.5344C15.6049 10.4583 14.7098 9.58263 13.6096 9.58263C12.5093 9.58263 11.6139 10.4583 11.6139 11.5344C11.6139 12.6106 12.5093 13.486 13.6096 13.486ZM13.6096 10.6658C14.0993 10.6658 14.4975 11.0554 14.4975 11.5344C14.4975 12.0131 14.099 12.4028 13.6096 12.4028C13.1198 12.4028 12.7214 12.0131 12.7214 11.5344C12.7214 11.0554 13.1198 10.6658 13.6096 10.6658Z" fill="white"/>
<path d="M17.4777 11.0442H18.9547C19.2607 11.0442 19.5086 10.8015 19.5086 10.5025C19.5086 10.2036 19.2607 9.96084 18.9547 9.96084H17.4777C17.1717 9.96084 16.9239 10.2036 16.9239 10.5025C16.9239 10.8015 17.1717 11.0442 17.4777 11.0442Z" fill="white"/>
<path d="M17.4777 12.7637H25.2664C25.5721 12.7637 25.82 12.5212 25.82 12.2223C25.82 11.923 25.5721 11.6806 25.2664 11.6806H17.4777C17.1717 11.6806 16.9239 11.923 16.9239 12.2223C16.9239 12.5212 17.1717 12.7637 17.4777 12.7637Z" fill="white"/>
<path d="M13.6096 19.3352C14.7098 19.3352 15.6049 18.4598 15.6049 17.3837C15.6049 16.3075 14.7098 15.4319 13.6096 15.4319C12.5093 15.4319 11.6139 16.3075 11.6139 17.3837C11.6139 18.4598 12.5093 19.3352 13.6096 19.3352ZM13.6096 16.515C14.0993 16.515 14.4975 16.9047 14.4975 17.3837C14.4975 17.8624 14.099 18.2521 13.6096 18.2521C13.1198 18.2521 12.7214 17.8624 12.7214 17.3837C12.7214 16.9047 13.1198 16.515 13.6096 16.515Z" fill="white"/>
<path d="M17.4777 16.8935H18.9547C19.2607 16.8935 19.5086 16.6508 19.5086 16.3518C19.5086 16.0528 19.2607 15.8101 18.9547 15.8101H17.4777C17.1717 15.8101 16.9239 16.0528 16.9239 16.3518C16.9239 16.6508 17.1717 16.8935 17.4777 16.8935Z" fill="white"/>
<path d="M17.4777 18.6129H25.2664C25.5721 18.6129 25.82 18.3705 25.82 18.0715C25.82 17.7722 25.5721 17.5298 25.2664 17.5298H17.4777C17.1717 17.5298 16.9239 17.7722 16.9239 18.0715C16.9239 18.3705 17.1717 18.6129 17.4777 18.6129Z" fill="white"/>
<path d="M13.6096 25.1844C14.7098 25.1844 15.6049 24.309 15.6049 23.2329C15.6049 22.1568 14.7098 21.2811 13.6096 21.2811C12.5093 21.2811 11.6139 22.1568 11.6139 23.2329C11.6139 24.309 12.5093 25.1844 13.6096 25.1844ZM13.6096 22.3642C14.0993 22.3642 14.4975 22.7539 14.4975 23.2329C14.4975 23.7116 14.099 24.1013 13.6096 24.1013C13.1198 24.1013 12.7214 23.7116 12.7214 23.2329C12.7214 22.7539 13.1198 22.3642 13.6096 22.3642Z" fill="white"/>
<path d="M17.4777 22.7427H18.9547C19.2607 22.7427 19.5086 22.5 19.5086 22.201C19.5086 21.902 19.2607 21.6593 18.9547 21.6593H17.4777C17.1717 21.6593 16.9239 21.902 16.9239 22.201C16.9239 22.5 17.1717 22.7427 17.4777 22.7427Z" fill="white"/>
<path d="M17.4777 24.4622H25.2664C25.5721 24.4622 25.82 24.2197 25.82 23.9207C25.82 23.6215 25.5721 23.379 25.2664 23.379H17.4777C17.1717 23.379 16.9239 23.6215 16.9239 23.9207C16.9239 24.2197 17.1717 24.4622 17.4777 24.4622Z" fill="white"/>
<path d="M13.6096 31.0337C14.7098 31.0337 15.6049 30.1583 15.6049 29.0821C15.6049 28.006 14.7098 27.1304 13.6096 27.1304C12.5093 27.1304 11.6139 28.006 11.6139 29.0821C11.6139 30.1583 12.5093 31.0337 13.6096 31.0337ZM13.6096 28.2135C14.0993 28.2135 14.4975 28.6032 14.4975 29.0821C14.4975 29.5609 14.099 29.9506 13.6096 29.9506C13.1198 29.9506 12.7214 29.5609 12.7214 29.0821C12.7214 28.6032 13.1198 28.2135 13.6096 28.2135Z" fill="white"/>
<path d="M17.4777 28.592H18.9547C19.2607 28.592 19.5086 28.3492 19.5086 28.0503C19.5086 27.7513 19.2607 27.5086 18.9547 27.5086H17.4777C17.1717 27.5086 16.9239 27.7513 16.9239 28.0503C16.9239 28.3492 17.1717 28.592 17.4777 28.592Z" fill="white"/>
<path d="M17.4777 30.3114H25.2664C25.5721 30.3114 25.82 30.069 25.82 29.77C25.82 29.4707 25.5721 29.2283 25.2664 29.2283H17.4777C17.1717 29.2283 16.9239 29.4707 16.9239 29.77C16.9239 30.069 17.1717 30.3114 17.4777 30.3114Z" fill="white"/>
<path d="M35.0176 25.5758V21.927C35.0176 21.628 34.7697 21.3855 34.4637 21.3855H29.3948V12.566H34.4637C34.7697 12.566 35.0176 12.3236 35.0176 12.0246V8.37605C36.4507 8.0306 37.5172 6.76299 37.5172 5.25603C37.5172 3.48396 36.0431 2.0425 34.2316 2.0425C32.42 2.0425 30.9459 3.48396 30.9459 5.25603C30.9459 6.92172 32.2485 8.29543 33.9101 8.45388V11.4829H29.3948V6.74563C29.3948 5.29242 28.1857 4.10992 26.6996 4.10992H24.2695V3.78574C24.2695 2.88991 23.5241 2.1612 22.6082 2.1612H21.5786V1.62482C21.5786 0.728705 20.8335 0 19.9176 0H17.3097C16.3938 0 15.6484 0.728705 15.6484 1.62482V2.1612H14.8258C13.9098 2.1612 13.1645 2.88991 13.1645 3.78574V4.10992H10.7343C9.24822 4.10992 8.03916 5.29242 8.03916 6.74563V11.4829H3.60712V8.45388C5.26842 8.29543 6.57136 6.92172 6.57136 5.25603C6.57136 3.48396 5.09725 2.0425 3.28568 2.0425C1.47382 2.0425 0 3.48396 0 5.25603C0 6.76299 1.06651 8.03032 2.49968 8.37605V12.0246C2.49968 12.3236 2.74756 12.566 3.05326 12.566H8.03916V13.0632C8.03916 13.3622 8.28704 13.6049 8.59303 13.6049C8.89901 13.6049 9.1466 13.3622 9.1466 13.0632V6.74563C9.1466 5.88955 9.85875 5.19304 10.7341 5.19304H13.1645V5.74538C13.1645 6.64149 13.9095 7.3702 14.8255 7.3702H22.6082C23.5241 7.3702 24.2695 6.64149 24.2695 5.74538V5.19304H26.6996C27.5749 5.19304 28.2871 5.88955 28.2871 6.74563V25.2455C28.2871 25.5447 28.5349 25.7872 28.8409 25.7872C29.1466 25.7872 29.3945 25.5447 29.3945 25.2455V22.4687H33.9098V25.4977C32.2485 25.6561 30.9459 27.0298 30.9459 28.6955C30.9459 30.4676 32.4197 31.9091 34.2316 31.9091C36.0431 31.9091 37.517 30.4676 37.517 28.6955C37.5172 27.1886 36.4507 25.9213 35.0176 25.5758ZM32.0536 5.25603C32.0536 4.08137 33.0305 3.1259 34.2316 3.1259C35.4326 3.1259 36.4098 4.08137 36.4098 5.25603C36.4098 6.43069 35.4326 7.38644 34.2316 7.38644C33.0305 7.38644 32.0536 6.43069 32.0536 5.25603ZM1.10744 5.25603C1.10744 4.08137 2.08464 3.1259 3.28568 3.1259C4.48672 3.1259 5.46363 4.08137 5.46363 5.25603C5.46363 6.43069 4.48672 7.38644 3.28568 7.38644C2.08464 7.38644 1.10744 6.43069 1.10744 5.25603ZM16.7558 1.62482C16.7558 1.32612 17.0043 1.08312 17.3094 1.08312H19.9173C20.2227 1.08312 20.4712 1.32612 20.4712 1.62482V3.1189H16.7558V1.62482ZM23.162 5.74538C23.162 6.04408 22.9136 6.28708 22.6082 6.28708H14.8258C14.5204 6.28708 14.2719 6.04408 14.2719 5.74538V3.78574C14.2719 3.48732 14.5204 3.24432 14.8258 3.24432H15.6484V3.6606C15.6484 3.95959 15.8963 4.20202 16.202 4.20202H21.025C21.3307 4.20202 21.5786 3.95959 21.5786 3.6606V3.24432H22.6082C22.9136 3.24432 23.162 3.48732 23.162 3.78574V5.74538ZM34.2316 30.8257C33.0305 30.8257 32.0536 29.8702 32.0536 28.6955C32.0536 27.5209 33.0305 26.5651 34.2316 26.5651C35.4326 26.5651 36.4098 27.5209 36.4098 28.6955C36.4098 29.8702 35.4326 30.8257 34.2316 30.8257Z" fill="white"/>
</svg>
