<svg width="42" height="42" viewBox="0 0 42 42" fill="none" xmlns="http://www.w3.org/2000/svg">
<path d="M15.7897 34.3402C15.7905 34.3748 15.7921 34.4086 15.7945 34.4432C15.8805 35.7696 16.9917 36.8191 18.3494 36.8191H38.4403C39.8531 36.8191 41 35.6811 41 34.2766V10.6508C41 9.30266 39.9422 8.20004 38.6073 8.11472M38.6138 14.4592V31.9072C38.6138 33.3116 37.467 34.4489 36.0533 34.4489H15.9624C15.5669 34.4489 15.1916 34.3595 14.8576 34.201M36.2211 5.74528C37.5568 5.83059 38.6139 6.93321 38.6139 8.28131V12.0495M33.8348 3.37507C35.1146 3.45716 36.1384 4.47448 36.221 5.74531C36.2251 5.80084 36.2267 5.85637 36.2267 5.91191V29.5378C36.2267 30.9414 35.0806 32.0795 33.667 32.0795H22.7036M33.8348 3.37507C33.8388 3.4298 33.8405 3.48532 33.8405 3.54166V27.1675C33.8405 28.572 32.6944 29.71 31.2808 29.71H24.5841M33.8348 3.37507C33.7489 2.04951 32.6376 1 31.2808 1H17.0436C16.195 1 15.3812 1.33481 14.7814 1.93039V1.93119L9.56633 7.10788C8.96653 7.70426 8.62935 8.51312 8.62935 9.35578V21.4082M8.63008 9.89776C8.63008 8.87127 9.46842 8.03883 10.5022 8.03883H13.1591C14.5727 8.03883 15.7188 6.90088 15.7188 5.49717V2.85901C15.7188 1.83252 16.5571 1.00016 17.5909 1.00016M7.6545 32.2585L9.31781 30.607M9.80347 34.3923L11.4661 32.7413M8.98445 36.7949L9.62884 36.1551C10.1777 35.6102 10.1777 34.7265 9.62884 34.1808L7.86761 32.4319C7.31798 31.8871 6.428 31.8871 5.87927 32.4319L1.41155 36.869C0.862816 37.4139 0.862816 38.2976 1.41155 38.8424L3.17286 40.5913C3.7216 41.1362 4.61158 41.1362 5.16031 40.5913L7.26529 38.502M11.8253 14.2807L13.3433 10.3235C13.3743 10.2481 13.4817 10.248 13.5128 10.3232L15.0169 14.2807M12.2987 13.2951H14.5511M26.2696 10.2669V14.2807M16.7418 10.2669V13.0289C16.7418 13.4992 16.9768 13.8159 17.376 14.0691C17.5705 14.1924 17.816 14.2803 18.1211 14.2807C18.3854 14.2811 18.6062 14.2204 18.7889 14.129C19.254 13.8964 19.5507 13.5432 19.5507 13.0259V10.2669M28.4125 10.2669H30.645M29.5243 10.395V14.2808M23.0376 31.764C19.5205 35.2562 13.8185 35.2562 10.3015 31.764C6.78455 28.2718 6.78455 22.6099 10.3015 19.1177C13.8185 15.6256 19.5205 15.6256 23.0376 19.1177C26.5545 22.6099 26.5545 28.2718 23.0376 31.764ZM21.1713 29.9109C18.6851 32.3797 14.654 32.3797 12.1677 29.9109C9.68148 27.4422 9.68148 23.4395 12.1677 20.9708C14.654 18.502 18.6851 18.502 21.1713 20.9708C23.6576 23.4395 23.6576 27.4422 21.1713 29.9109ZM24.3505 12.2738C24.3505 13.3797 23.7324 14.2549 22.7515 14.2719C22.4251 14.2776 21.5814 14.2807 21.5814 14.2807C21.5814 14.2807 21.5761 12.8269 21.5761 12.2694C21.5761 11.8115 21.5732 10.2669 21.5732 10.2669H22.7181C23.7938 10.2669 24.3505 11.1679 24.3505 12.2738ZM16.1294 29.7173C15.7331 29.7173 15.3566 29.5357 15.1115 29.2219L12.9576 26.463C12.5217 25.9048 12.6241 25.1013 13.1863 24.6685C13.7487 24.2357 14.5579 24.3374 14.9937 24.8956L15.9607 26.1341L17.8475 22.8166C18.1975 22.2015 18.9832 21.9844 19.6028 22.3318C20.2222 22.6792 20.4407 23.4595 20.0909 24.0745L17.2513 29.0672C17.0393 29.44 16.6533 29.6829 16.2231 29.7139C16.1919 29.7162 16.1606 29.7173 16.1294 29.7173Z" stroke="white" stroke-miterlimit="10" stroke-linecap="round" stroke-linejoin="round"/>
</svg>
