<svg width="39" height="38" viewBox="0 0 39 38" fill="none" xmlns="http://www.w3.org/2000/svg">
<path d="M38.5682 33.7506L33.7394 29.0649C33.4662 28.7999 33.1041 28.658 32.7232 28.6627C32.5068 28.666 32.2994 28.7181 32.1114 28.811L30.1273 26.8641C31.0178 25.4258 31.5328 23.7315 31.5328 21.9191C31.5328 19.8381 30.8542 17.9128 29.7073 16.352V12.9286C29.7073 12.6683 29.547 12.435 29.3042 12.3415L27.2519 11.5515C26.9606 10.4553 26.5255 9.40558 25.9549 8.42293L26.8482 6.41179C26.9538 6.17401 26.9021 5.89574 26.718 5.71166L23.9955 2.98923C23.8115 2.80523 23.5332 2.75373 23.2954 2.85917L21.2836 3.75266C20.3009 3.18219 19.2516 2.74712 18.156 2.45596L17.3659 0.403062C17.2724 0.16025 17.0391 0 16.7788 0H12.9287C12.6685 0 12.4352 0.16025 12.3417 0.403062L11.5513 2.45596C10.4557 2.74712 9.40645 3.18219 8.42372 3.75266L6.41179 2.85917C6.17394 2.75349 5.89566 2.80523 5.71166 2.98923L2.98923 5.71174C2.80523 5.89582 2.75349 6.17409 2.85917 6.41187L3.75258 8.42348C3.18211 9.40606 2.74697 10.4555 2.45572 11.5513L0.403062 12.3415C0.16025 12.435 0 12.6684 0 12.9286V16.7787C0 17.039 0.16025 17.2723 0.403062 17.3658L2.4554 18.1558C2.74681 19.2521 3.18195 20.3019 3.75242 21.2843L2.85917 23.2954C2.75349 23.5332 2.80523 23.8115 2.98923 23.9955L5.71174 26.718C5.89574 26.902 6.17401 26.9535 6.41187 26.848L8.42372 25.9545C9.40637 26.5249 10.4558 26.96 11.5513 27.2512L12.3415 29.3041C12.4349 29.5469 12.6683 29.7071 12.9286 29.7071H16.7786C16.7892 29.7071 16.7994 29.7052 16.8099 29.7048C18.3211 30.7369 20.1464 31.3412 22.1105 31.3412C24.2395 31.3412 26.2055 30.6311 27.7851 29.4357L29.6954 31.3105C29.6136 31.4962 29.5707 31.6986 29.5739 31.908C29.5797 32.2901 29.7332 32.6467 30.0064 32.9117L34.8353 37.5975C35.1124 37.8662 35.4712 38 35.8298 38C36.2028 38 36.5754 37.8552 36.8551 37.5671L38.5986 35.7703C39.147 35.2052 39.1334 34.2991 38.5682 33.7506ZM12.6084 26.4949C12.5339 26.3013 12.3687 26.1569 12.1669 26.109C10.976 25.8256 9.84191 25.3555 8.79635 24.7116C8.61967 24.6028 8.40076 24.5881 8.21126 24.6724L6.29597 25.5229L4.18426 23.4114L5.03457 21.4969C5.11879 21.3073 5.10408 21.0884 4.99534 20.9117C4.35159 19.8665 3.88138 18.7321 3.59768 17.5402C3.54963 17.3385 3.40527 17.1733 3.21168 17.0988L1.25809 16.3468V13.3605L3.21207 12.6084C3.40558 12.5339 3.55002 12.3687 3.59807 12.1669C3.88153 10.9757 4.35174 9.84159 4.99557 8.7962C5.10432 8.61951 5.11902 8.4006 5.03481 8.21102L4.18426 6.29597L6.29589 4.18426L8.2111 5.03481C8.40076 5.11902 8.61959 5.10432 8.79619 4.99557C9.84183 4.35174 10.9759 3.88153 12.1668 3.59815C12.3686 3.55018 12.5337 3.40582 12.6082 3.21223L13.3605 1.25801H16.3468L17.099 3.21223C17.1734 3.40582 17.3386 3.55018 17.5404 3.59815C18.7314 3.88153 19.8654 4.35174 20.911 4.99557C21.0876 5.10432 21.3066 5.11895 21.4961 5.03481L23.4112 4.18426L25.5229 6.29581L24.6727 8.21039C24.5885 8.39997 24.6032 8.61888 24.712 8.79557C25.3558 9.84104 25.8261 10.9754 26.1096 12.167C26.1576 12.3688 26.302 12.534 26.4956 12.6085L28.4492 13.3604V14.9535C26.7743 13.428 24.5492 12.4967 22.1106 12.4967C22.0103 12.4967 21.9106 12.4988 21.8111 12.502C20.8123 9.53839 18.0229 7.50987 14.8537 7.50987C10.8044 7.50987 7.51011 10.8042 7.51011 14.8536C7.51011 16.523 8.08545 18.1574 9.13022 19.4552C10.0495 20.5973 11.2992 21.4413 12.689 21.871C12.689 21.887 12.6884 21.9029 12.6884 21.919C12.6884 24.4518 13.6933 26.7541 15.3249 28.449H13.3606L12.6084 26.4949ZM12.7841 20.5786C10.3875 19.7204 8.76812 17.4595 8.76812 14.8537C8.76812 11.498 11.498 8.76805 14.8536 8.76805C17.3818 8.76805 19.6185 10.3251 20.5204 12.6316C16.5139 13.3155 13.3623 16.5374 12.7841 20.5786ZM13.9464 21.9191C13.9464 17.4173 17.6088 13.7549 22.1106 13.7549C26.6123 13.7549 30.2747 17.4173 30.2747 21.9191C30.2747 26.4208 26.6123 30.0832 22.1106 30.0832C17.6088 30.0832 13.9464 26.4208 13.9464 21.9191ZM29.3862 27.8995L31.1758 29.6555L30.5072 30.3445L28.7388 28.609C28.9663 28.3835 29.1825 28.1469 29.3862 27.8995ZM37.6957 34.8943L35.9523 36.691C35.8881 36.7572 35.7776 36.7589 35.7114 36.6946L30.8826 32.009C30.8394 31.967 30.8322 31.9159 30.8319 31.8893C30.8315 31.8625 30.837 31.8113 30.879 31.7681L32.6224 29.9713C32.6643 29.9282 32.7153 29.921 32.742 29.9206H32.7445C32.7719 29.9206 32.8213 29.927 32.8632 29.9678L37.692 34.6535C37.7583 34.7178 37.7599 34.8281 37.6957 34.8943ZM22.1105 14.9759C18.2821 14.9759 15.1675 18.0906 15.1675 21.9191C15.1675 25.7475 18.2821 28.8622 22.1105 28.8622C25.9389 28.8622 29.0536 25.7475 29.0536 21.9191C29.0536 18.0906 25.939 14.9759 22.1105 14.9759ZM20.739 16.4023C20.199 18.4655 18.6074 20.1005 16.5596 20.6955C17.0232 18.591 18.6553 16.9206 20.739 16.4023ZM16.4283 22.0261C19.294 21.401 21.5176 19.1168 22.0657 16.2351C22.0807 16.2351 22.0955 16.234 22.1106 16.234C23.633 16.234 25.0165 16.8367 26.038 17.8147C25.75 18.9053 25.3058 19.9461 24.7118 20.911C24.603 21.0877 24.5883 21.3065 24.6725 21.4961L25.5231 23.4112L23.4115 25.5229L21.497 24.6725C21.3073 24.5883 21.0884 24.6031 20.9118 24.7119C20.0366 25.251 19.0962 25.668 18.1128 25.9563C17.0954 24.9489 16.4569 23.5609 16.4283 22.0261ZM22.1105 27.6041C21.1022 27.6041 20.1552 27.3391 19.3333 26.8768C20.0076 26.6255 20.66 26.3173 21.2843 25.9549L23.2954 26.8481C23.5332 26.9538 23.8115 26.9021 23.9955 26.718L26.718 23.9955C26.902 23.8115 26.9537 23.5332 26.8481 23.2954L25.9546 21.2836C26.3755 20.5586 26.7207 19.7966 26.9908 19.0073C27.5013 19.8596 27.7955 20.8555 27.7955 21.9191C27.7955 25.0537 25.2453 27.6041 22.1105 27.6041Z" fill="white"/>
</svg>
