<svg width="39" height="38" viewBox="0 0 39 38" fill="none" xmlns="http://www.w3.org/2000/svg">
<path d="M16.4668 32.9178C19.7457 32.9218 22.9503 31.9412 25.6656 30.1032L32.6591 37.0732C32.9622 37.3795 33.3255 37.6199 33.726 37.7791C34.1265 37.9383 34.5556 38.0129 34.9863 37.9982C35.4171 37.9835 35.8401 37.8799 36.2289 37.6938C36.6176 37.5077 36.9637 37.2432 37.2453 36.917C37.5268 36.5907 37.7379 36.2097 37.8651 35.7979C37.9923 35.3861 38.0329 34.9524 37.9845 34.5242C37.936 34.0959 37.7994 33.6823 37.5833 33.3094C37.3673 32.9365 37.0764 32.6123 36.729 32.3573L29.2371 26.8325C31.5912 23.9327 32.8891 20.3184 32.9173 16.5833C32.9455 12.8483 31.7025 9.21479 29.3925 6.27968C27.0825 3.34457 23.8428 1.28247 20.2057 0.432173C16.5687 -0.418125 12.7506 -0.00604722 9.37872 1.6007C6.00686 3.20745 3.28177 5.91331 1.6512 9.27372C0.0206178 12.6341 -0.418477 16.4492 0.406052 20.0922C1.23058 23.7352 3.26969 26.9894 6.18838 29.3201C9.10706 31.6509 12.7317 32.9196 16.4668 32.9178ZM35.9791 33.3782C36.1941 33.5358 36.3724 33.738 36.5018 33.971C36.6311 34.204 36.7085 34.4623 36.7285 34.7281C36.7486 34.9939 36.7108 35.2608 36.6179 35.5106C36.5249 35.7604 36.3789 35.9871 36.19 36.1751C35.8336 36.5121 35.3616 36.6999 34.871 36.6999C34.3805 36.6999 33.9085 36.5121 33.5521 36.1751L26.6954 29.3419C27.2971 28.8634 27.865 28.3441 28.3954 27.7876L35.9791 33.3782ZM16.4668 1.25025C19.4732 1.25025 22.412 2.14174 24.9117 3.81198C27.4114 5.48222 29.3597 7.8562 30.5102 10.6337C31.6607 13.4112 31.9617 16.4675 31.3752 19.4161C30.7887 22.3647 29.341 25.0732 27.2151 27.199C25.0893 29.3248 22.3809 30.7725 19.4323 31.359C16.4837 31.9455 13.4274 31.6445 10.6499 30.494C7.87238 29.3435 5.4984 27.3952 3.82816 24.8956C2.15792 22.3959 1.26643 19.457 1.26643 16.4507C1.27112 12.4207 2.8741 8.55714 5.72371 5.70753C8.57332 2.85791 12.4369 1.25494 16.4668 1.25025Z" fill="white"/>
<path d="M8.23328 10.7505V22.1508C8.23328 22.8227 8.50019 23.4671 8.9753 23.9422C9.4504 24.4173 10.0948 24.6842 10.7667 24.6842H22.167C22.8389 24.6842 23.4833 24.4173 23.9584 23.9422C24.4335 23.4671 24.7004 22.8227 24.7004 22.1508V10.7505C24.7004 10.0786 24.4335 9.43422 23.9584 8.95912C23.4833 8.48401 22.8389 8.2171 22.167 8.2171H10.7667C10.0948 8.2171 9.4504 8.48401 8.9753 8.95912C8.50019 9.43422 8.23328 10.0786 8.23328 10.7505ZM22.167 23.4175H10.7667C10.4307 23.4175 10.1085 23.2841 9.87099 23.0465C9.63344 22.809 9.49998 22.4868 9.49998 22.1508V14.5506H23.4337V22.1508C23.4337 22.4868 23.3002 22.809 23.0627 23.0465C22.8251 23.2841 22.5029 23.4175 22.167 23.4175ZM23.4337 10.7505V13.2839H9.49998V10.7505C9.49998 10.4146 9.63344 10.0924 9.87099 9.85481C10.1085 9.61726 10.4307 9.4838 10.7667 9.4838H22.167C22.5029 9.4838 22.8251 9.61726 23.0627 9.85481C23.3002 10.0924 23.4337 10.4146 23.4337 10.7505Z" fill="white"/>
<path d="M16.4668 30.3844C20.1623 30.3844 23.7064 28.9164 26.3195 26.3033C28.9325 23.6902 30.4005 20.1461 30.4005 16.4507C30.4005 12.7552 28.9325 9.21111 26.3195 6.59804C23.7064 3.98496 20.1623 2.51695 16.4668 2.51695C16.2989 2.51695 16.1378 2.58368 16.019 2.70245C15.9002 2.82123 15.8335 2.98232 15.8335 3.1503C15.8335 3.31827 15.9002 3.47937 16.019 3.59814C16.1378 3.71692 16.2989 3.78365 16.4668 3.78365C19.6583 3.78494 22.7316 4.99132 25.0717 7.16138C27.4119 9.33145 28.8463 12.3051 29.0879 15.4874C29.3296 18.6698 28.3606 21.8259 26.375 24.3245C24.3894 26.823 21.5335 28.4796 18.3788 28.9628C15.2241 29.446 12.0034 28.7202 9.36091 26.9305C6.71847 25.1408 4.84927 22.4193 4.12734 19.3106C3.40541 16.2018 3.884 12.9351 5.46733 10.1641C7.05067 7.39311 9.62197 5.32218 12.6667 4.3657C12.827 4.31531 12.9606 4.20332 13.0383 4.05437C13.116 3.90543 13.1313 3.73172 13.0809 3.57148C13.0306 3.41123 12.9186 3.27756 12.7696 3.19988C12.6207 3.1222 12.447 3.10687 12.2867 3.15727C9.10991 4.15509 6.39547 6.2576 4.63501 9.084C2.87455 11.9104 2.18448 15.2738 2.68978 18.5651C3.19508 21.8564 4.86234 24.8579 7.3896 27.026C9.91686 29.1941 13.137 30.3855 16.4668 30.3844Z" fill="white"/>
<path d="M11.4 12.0172H12.0334C12.2014 12.0172 12.3625 11.9505 12.4812 11.8317C12.6 11.7129 12.6667 11.5518 12.6667 11.3839C12.6667 11.2159 12.6 11.0548 12.4812 10.936C12.3625 10.8172 12.2014 10.7505 12.0334 10.7505H11.4C11.2321 10.7505 11.071 10.8172 10.9522 10.936C10.8334 11.0548 10.7667 11.2159 10.7667 11.3839C10.7667 11.5518 10.8334 11.7129 10.9522 11.8317C11.071 11.9505 11.2321 12.0172 11.4 12.0172Z" fill="white"/>
<path d="M14.5668 12.0172H15.2001C15.3681 12.0172 15.5292 11.9505 15.648 11.8317C15.7668 11.7129 15.8335 11.5518 15.8335 11.3839C15.8335 11.2159 15.7668 11.0548 15.648 10.936C15.5292 10.8172 15.3681 10.7505 15.2001 10.7505H14.5668C14.3988 10.7505 14.2377 10.8172 14.1189 10.936C14.0002 11.0548 13.9334 11.2159 13.9334 11.3839C13.9334 11.5518 14.0002 11.7129 14.1189 11.8317C14.2377 11.9505 14.3988 12.0172 14.5668 12.0172Z" fill="white"/>
<path d="M20.9003 20.8841H20.2669V18.3507C20.2669 18.1827 20.2002 18.0216 20.0814 17.9029C19.9627 17.7841 19.8016 17.7174 19.6336 17.7174C19.4656 17.7174 19.3045 17.7841 19.1857 17.9029C19.067 18.0216 19.0002 18.1827 19.0002 18.3507V20.8841H17.7335V17.084C17.7335 16.916 17.6668 16.7549 17.548 16.6362C17.4293 16.5174 17.2682 16.4507 17.1002 16.4507C16.9322 16.4507 16.7711 16.5174 16.6523 16.6362C16.5336 16.7549 16.4668 16.916 16.4668 17.084V20.8841H15.2001V18.9841C15.2001 18.8161 15.1334 18.655 15.0146 18.5362C14.8959 18.4174 14.7348 18.3507 14.5668 18.3507C14.3988 18.3507 14.2377 18.4174 14.1189 18.5362C14.0002 18.655 13.9334 18.8161 13.9334 18.9841V20.8841H12.6667V16.4507C12.6667 16.2827 12.6 16.1216 12.4812 16.0028C12.3625 15.884 12.2014 15.8173 12.0334 15.8173C11.8654 15.8173 11.7043 15.884 11.5855 16.0028C11.4668 16.1216 11.4 16.2827 11.4 16.4507V21.5175C11.4 21.6854 11.4668 21.8465 11.5855 21.9653C11.7043 22.0841 11.8654 22.1508 12.0334 22.1508H20.9003C21.0683 22.1508 21.2294 22.0841 21.3481 21.9653C21.4669 21.8465 21.5336 21.6854 21.5336 21.5175C21.5336 21.3495 21.4669 21.1884 21.3481 21.0696C21.2294 20.9508 21.0683 20.8841 20.9003 20.8841Z" fill="white"/>
</svg>
