<svg width="38" height="38" viewBox="0 0 38 38" fill="none" xmlns="http://www.w3.org/2000/svg">
<path d="M24.6604 11.3713C24.3219 11.3713 24.0475 11.6457 24.0475 11.9842V22.6453C24.0475 22.9838 24.3219 23.2582 24.6604 23.2582H28.5022C28.8407 23.2582 29.1151 22.9838 29.1151 22.6453V11.9842C29.1151 11.6457 28.8407 11.3713 28.5022 11.3713H24.6604ZM27.8893 22.0324H25.2733V12.5971H27.8893V22.0324ZM31.181 5.34341V22.6453C31.181 22.9837 31.4555 23.2582 31.7939 23.2582H35.6357C35.9742 23.2582 36.2486 22.9837 36.2486 22.6453V5.34341C36.2486 5.00494 35.9742 4.73051 35.6357 4.73051H31.7939C31.4555 4.73051 31.181 5.00494 31.181 5.34341ZM32.4068 5.95631H35.0228V22.0324H32.4068V5.95631ZM11.8305 11.5358C11.6226 11.2687 11.6705 10.8836 11.9375 10.6756L19.0711 5.12093C19.2314 4.99613 19.443 4.95874 19.6366 5.02149L26.4116 7.2172L32.1013 1.479L31.4462 1.53646C31.108 1.56527 30.8117 1.31651 30.782 0.979414C30.7525 0.642242 31.0018 0.344909 31.3391 0.31526L33.6613 0.111624C33.8447 0.0958421 34.025 0.162495 34.1534 0.294039C34.2818 0.425506 34.3444 0.60769 34.324 0.790334L34.065 3.10694C34.0299 3.42021 33.7646 3.65181 33.4567 3.65181C33.4339 3.65181 33.4109 3.65051 33.3879 3.6479C33.0514 3.61036 32.8092 3.30713 32.8468 2.97072L32.9102 2.40425L27.0168 8.348C26.854 8.51225 26.6127 8.57094 26.3926 8.49954L19.568 6.28774L12.6909 11.6427C12.5789 11.7298 12.4464 11.772 12.3148 11.772C12.132 11.7721 11.9514 11.691 11.8305 11.5358ZM36.6786 24.5491H22.2125C22.2129 24.5138 22.2139 24.4786 22.2139 24.4432C22.2139 23.784 22.133 23.1435 21.9816 22.5305V10.3829C21.9816 10.0444 21.7071 9.77 21.3687 9.77H17.5269C17.1884 9.77 16.914 10.0444 16.914 10.3829V16.9275C16.2601 16.6937 15.5673 16.5425 14.8479 16.4876V15.1395C14.8479 14.801 14.5734 14.5266 14.235 14.5266H10.3932C10.0548 14.5266 9.78035 14.801 9.78035 15.1395V17.8266C8.98626 18.363 8.29353 19.0384 7.73725 19.8176V0.6129C7.73725 0.274426 7.46282 0 7.12435 0H5.40631C5.06784 0 4.79341 0.274426 4.79341 0.6129V26.8799C4.79341 27.2183 5.06784 27.4928 5.40631 27.4928H6.86241C7.01816 27.8679 7.20126 28.2287 7.41003 28.5725L5.84055 30.1126C5.68664 30.0456 5.51939 30.0089 5.34617 30.0063C5.00486 30.0036 4.67903 30.1294 4.43379 30.3675L0.388734 34.2927C-0.118747 34.7852 -0.130928 35.5987 0.36146 36.1062L1.82185 37.6113C2.07283 37.8701 2.40755 38 2.74242 38C3.06435 38 3.38666 37.88 3.63549 37.6385L7.68055 33.7134C7.92587 33.4754 8.06377 33.1553 8.0689 32.8123C8.07143 32.6448 8.0417 32.482 7.98332 32.3305L9.48884 30.8531C10.8161 31.8384 12.4585 32.4221 14.2348 32.4221C17.5547 32.4221 20.4072 30.3837 21.6074 27.4928H36.6784C37.0169 27.4928 37.2913 27.2184 37.2913 26.8799V25.162C37.2915 24.8235 37.0171 24.5491 36.6786 24.5491ZM18.1398 10.9958H20.7558V19.8503C20.0715 18.8818 19.1772 18.072 18.1398 17.4873V10.9958ZM11.0061 15.7524H13.6221V16.4876C12.6974 16.5582 11.8166 16.7875 11.0061 17.1476V15.7524ZM6.01921 26.267V1.2258H6.51145V22.438C6.34497 23.079 6.25617 23.7509 6.25617 24.4431C6.25617 25.0704 6.32919 25.681 6.46678 26.267H6.01921ZM8.56068 30.0465L7.20272 31.3792L6.76235 30.9254L8.13425 29.5792C8.27031 29.7405 8.41251 29.8964 8.56068 30.0465ZM6.82694 32.8336L2.78195 36.7586C2.76065 36.7794 2.72235 36.7789 2.70159 36.7575L1.2412 35.2524C1.22052 35.2312 1.22113 35.1928 1.2425 35.1722L5.28756 31.2469C5.29821 31.2367 5.31216 31.2317 5.32786 31.2318C5.34403 31.2321 5.35743 31.2376 5.36778 31.2482L6.82824 32.7533C6.8385 32.764 6.84356 32.7775 6.84333 32.7936C6.8431 32.81 6.83759 32.8234 6.82694 32.8336ZM14.235 31.1962C10.5113 31.1962 7.48197 28.1668 7.48197 24.4431C7.48197 20.7195 10.5113 17.69 14.235 17.69C17.9586 17.69 20.9881 20.7195 20.9881 24.4431C20.9881 28.1668 17.9586 31.1962 14.235 31.1962ZM36.0657 26.267H22.0032C22.0413 26.1048 22.0741 25.9406 22.1021 25.7748H36.0657V26.267ZM14.235 18.5411C10.9806 18.5411 8.33298 21.1889 8.33298 24.4432C8.33298 27.6975 10.9806 30.3453 14.235 30.3453C17.4894 30.3453 20.1371 27.6975 20.1371 24.4432C20.1371 21.1889 17.4894 18.5411 14.235 18.5411ZM14.235 29.1195C11.6565 29.1195 9.55878 27.0217 9.55878 24.4432C9.55878 21.8647 11.6565 19.7669 14.235 19.7669C16.8135 19.7669 18.9113 21.8647 18.9113 24.4432C18.9113 27.0217 16.8135 29.1195 14.235 29.1195Z" fill="white"/>
</svg>
