<svg width="12" height="12" viewBox="0 0 12 12" fill="none" xmlns="http://www.w3.org/2000/svg">
<path d="M10.2 1.8H9.6V0.6C9.6 0.44087 9.53679 0.288258 9.42426 0.175736C9.31174 0.0632141 9.15913 0 9 0C8.84087 0 8.68826 0.0632141 8.57574 0.175736C8.46321 0.288258 8.4 0.44087 8.4 0.6V1.8H3.6V0.6C3.6 0.44087 3.53679 0.288258 3.42426 0.175736C3.31174 0.0632141 3.15913 0 3 0C2.84087 0 2.68826 0.0632141 2.57574 0.175736C2.46321 0.288258 2.4 0.44087 2.4 0.6V1.8H1.8C1.32261 1.8 0.864773 1.98964 0.527208 2.32721C0.189642 2.66477 0 3.12261 0 3.6V4.2H12V3.6C12 3.12261 11.8104 2.66477 11.4728 2.32721C11.1352 1.98964 10.6774 1.8 10.2 1.8Z" fill="#E63114"/>
<path d="M0 10.2C0 10.6774 0.189642 11.1352 0.527208 11.4728C0.864773 11.8104 1.32261 12 1.8 12H10.2C10.6774 12 11.1352 11.8104 11.4728 11.4728C11.8104 11.1352 12 10.6774 12 10.2V5.4H0V10.2Z" fill="#E63114"/>
</svg>
