<svg width="9" height="5" viewBox="0 0 9 5" fill="none" xmlns="http://www.w3.org/2000/svg">
<path d="M2.13614 4.22533C2.09051 4.27674 2.01159 4.28067 1.96077 4.23404L0.0396138 2.47107C-0.0112073 2.42444 -0.0134169 2.34598 0.0346493 2.2967L0.646741 1.6696C0.694836 1.62033 0.775759 1.61819 0.826581 1.66479L1.87603 2.62777C1.92685 2.6744 2.00577 2.67047 2.0514 2.61906L4.10166 0.309342C4.14728 0.257926 4.22804 0.252055 4.28104 0.296321L4.95592 0.859512C5.00895 0.90375 5.015 0.982044 4.96935 1.03346L2.13614 4.22533Z" fill="#D0C1E8"/>
<path fill-rule="evenodd" clip-rule="evenodd" d="M3.91016 3.03413L5.08478 4.23181C5.13357 4.28155 5.20933 4.27736 5.25313 4.22252L7.97301 0.817861C8.01684 0.763016 8.01103 0.679503 7.96012 0.632315L7.31224 0.0315789C7.26136 -0.0156383 7.18383 -0.0093764 7.14003 0.045468L5.17178 2.50916C5.12798 2.56401 5.05222 2.56819 5.00343 2.51845L4.62437 2.13197L3.91016 3.03413Z" fill="#D0C1E8"/>
</svg>
