<svg width="411" height="122" viewBox="0 0 411 122" fill="none" xmlns="http://www.w3.org/2000/svg">
<path opacity="0.5" d="M0 32.9999C0 14.7745 14.7746 -0.00012207 33 -0.00012207L370.473 -0.00012207C380.527 -0.00012207 388.677 8.15032 388.677 18.2044V39.7742C388.677 43.5327 392.652 45.9613 395.996 44.2461L407.818 38.1835C409.602 37.2681 411.403 39.3846 410.214 40.9999L395.52 60.1037C391.083 65.8723 388.677 72.9457 388.677 80.2232V88.9999C388.677 107.225 373.903 122 355.677 122H33C14.7746 122 0 107.225 0 88.9999V32.9999Z" fill="url(#paint0_linear_732_20515)"/>
<defs>
<linearGradient id="paint0_linear_732_20515" x1="675.5" y1="-541" x2="-4.13235e-05" y2="174.5" gradientUnits="userSpaceOnUse">
<stop stop-color="#E63114"/>
<stop offset="1" stop-color="#E63114" stop-opacity="0"/>
</linearGradient>
</defs>
</svg>
