<svg width="65" height="65" viewBox="0 0 65 65" fill="none" xmlns="http://www.w3.org/2000/svg">
<path d="M63.0288 53.2804H59.8773V21.7849C59.8773 19.1357 57.7205 16.9788 55.0713 16.9788H51.4864C51.0137 16.9788 50.6197 17.3629 50.6197 17.8455C50.6197 18.3281 51.0038 18.7122 51.4864 18.7122H55.0713C56.7652 18.7122 58.1538 20.091 58.1538 21.7948V53.2902H6.84323V21.7849C6.84323 20.091 8.22202 18.7023 9.92581 18.7023H13.5107C13.9834 18.7023 14.3773 18.3182 14.3773 17.8357C14.3773 17.3531 13.9932 16.969 13.5107 16.969H9.92581C7.27656 16.969 5.11974 19.1258 5.11974 21.7751V53.2804H1.96823C1.4955 53.2804 1.10156 53.6644 1.10156 54.147C1.10156 59.0713 5.1099 63.0796 10.0341 63.0796H54.9432C59.8675 63.0796 63.8758 59.0713 63.8758 54.147C63.8955 53.6644 63.5016 53.2804 63.0288 53.2804ZM54.9531 61.3463H10.044C6.36065 61.3463 3.30762 58.569 2.88414 54.994H62.1228C61.6894 58.569 58.6364 61.3463 54.9531 61.3463Z" fill="white"/>
<path d="M29.4135 59.0417H35.5787C36.0514 59.0417 36.4454 58.6576 36.4454 58.175C36.4454 57.6924 36.0613 57.3083 35.5787 57.3083H29.4135C28.9408 57.3083 28.5469 57.6924 28.5469 58.175C28.5469 58.6576 28.9408 59.0417 29.4135 59.0417Z" fill="white"/>
<path d="M9.92917 20.9182C9.45644 20.9182 9.0625 21.3023 9.0625 21.7849V50.1978C9.0625 50.6705 9.44659 51.0644 9.92917 51.0644H55.0845C55.5572 51.0644 55.9511 50.6803 55.9511 50.1978V21.7849C55.9511 21.3122 55.567 20.9182 55.0845 20.9182H51.086C50.6133 20.9182 50.2193 21.3023 50.2193 21.7849C50.2193 22.2675 50.6034 22.6515 51.086 22.6515H54.2178V49.3409H10.786V22.6515H13.9178C14.3905 22.6515 14.7845 22.2675 14.7845 21.7849C14.7845 21.3023 14.4004 20.9182 13.9178 20.9182H9.92917Z" fill="white"/>
<path d="M13.8667 34.6273C13.3939 34.6273 13 35.0114 13 35.4939V46.2682C13 46.7409 13.3841 47.1349 13.8667 47.1349H25.3106C25.7833 47.1349 26.1773 46.7508 26.1773 46.2682V35.4841C26.1773 35.0114 25.7932 34.6174 25.3106 34.6174H13.8667V34.6273ZM24.4439 45.3917H14.7235V36.3409H24.4439V45.3917Z" fill="white"/>
<path d="M17.4111 44.3182C17.6474 44.4561 17.9134 44.5151 18.1793 44.5151C18.455 44.5151 18.7406 44.4364 18.9868 44.2886L22.4437 42.2008C22.9164 41.9151 23.1921 41.4227 23.1921 40.8712C23.1921 40.3197 22.9065 39.8273 22.4437 39.5417L18.9868 37.4538C18.5043 37.1682 17.9035 37.1583 17.4209 37.4341C16.9285 37.7098 16.6331 38.2318 16.6331 38.7932V42.9689C16.6232 43.5205 16.9187 44.0424 17.4111 44.3182ZM18.3467 39.0788L21.3209 40.8712L18.3467 42.6636V39.0788Z" fill="#E63114"/>
<path d="M32.5011 33.7606C41.2761 33.7606 48.4162 26.6204 48.4162 17.8454C48.4162 9.07045 41.2761 1.9303 32.5011 1.9303C23.7261 1.9303 16.5859 9.0606 16.5859 17.8454C16.5859 26.6303 23.7261 33.7606 32.5011 33.7606ZM23.5981 18.7023C23.6768 21.4598 24.1299 24.0008 24.8784 26.1871C24.0215 26.6598 23.214 27.2114 22.4458 27.8318C20.0822 25.4583 18.5753 22.2477 18.3587 18.6924H23.5981V18.7023ZM27.5079 31.1114C26.139 30.5992 24.8784 29.8803 23.7458 28.9939C24.3072 28.5508 24.8882 28.1667 25.4988 27.8121C26.07 29.0924 26.7496 30.2053 27.5079 31.1114ZM27.0746 27.0341C28.5223 26.4333 30.0587 26.0689 31.6443 25.9704V31.9091C29.842 31.4659 28.2268 29.6636 27.0746 27.0341ZM33.3678 31.9189V25.9803C34.9435 26.0788 36.4897 26.4333 37.9375 27.0439C36.7753 29.6636 35.1602 31.4659 33.3678 31.9189ZM39.5034 27.8121C40.114 28.1568 40.695 28.5508 41.2564 28.9939C40.1238 29.8803 38.8632 30.5992 37.4943 31.1114C38.2526 30.2053 38.9321 29.0924 39.5034 27.8121ZM33.3678 24.2568V18.7023H39.6905C39.6117 21.1447 39.2079 23.4492 38.5481 25.4288C36.9034 24.7492 35.1602 24.3553 33.3678 24.2568ZM33.3678 16.9788V11.4242C35.1602 11.3258 36.9034 10.9318 38.5481 10.2523C39.1981 12.2318 39.6018 14.5265 39.6905 16.9788H33.3678ZM33.3678 9.70075V3.76212C35.17 4.2053 36.7852 6.01742 37.9375 8.63712C36.4799 9.24772 34.9435 9.61212 33.3678 9.70075ZM37.4943 4.56969C38.8632 5.08181 40.1238 5.80075 41.2564 6.68712C40.695 7.1303 40.114 7.51439 39.5034 7.86893C38.9321 6.58863 38.2526 5.47575 37.4943 4.56969ZM31.6443 3.76212V9.70075C30.0685 9.60227 28.5223 9.24772 27.0746 8.63712C28.2268 6.02727 29.842 4.21515 31.6443 3.76212ZM25.4988 7.86893C24.8882 7.52424 24.3072 7.1303 23.7458 6.68712C24.8784 5.80075 26.139 5.08181 27.5079 4.56969C26.7496 5.47575 26.07 6.58863 25.4988 7.86893ZM31.6443 11.4242V16.9788H25.3215C25.4003 14.5364 25.8041 12.2318 26.464 10.2523C28.0988 10.9318 29.842 11.3258 31.6443 11.4242ZM31.6443 18.7023V24.2568C29.8518 24.3553 28.1087 24.7492 26.464 25.4288C25.814 23.4492 25.4003 21.1545 25.3215 18.7023H31.6443ZM42.5564 27.8417C41.7882 27.2114 40.9806 26.6598 40.1238 26.197C40.8723 24.0106 41.3253 21.4598 41.4041 18.7121H46.6534C46.4367 22.2576 44.92 25.4682 42.5564 27.8417ZM46.6534 16.9788H41.4041C41.3253 14.2212 40.8723 11.6803 40.1238 9.49393C40.9806 9.02121 41.7882 8.46969 42.5564 7.84924C44.92 10.2227 46.4367 13.4235 46.6534 16.9788ZM22.4359 7.83939C23.2041 8.46969 24.0117 9.02121 24.8685 9.48409C24.12 11.6704 23.667 14.2212 23.5882 16.9689H18.339C18.5655 13.4235 20.0821 10.2227 22.4359 7.83939Z" fill="#E63114"/>
<path d="M28.4609 38.675C28.4609 39.1477 28.845 39.5417 29.3276 39.5417H49.0246C49.4973 39.5417 49.8912 39.1576 49.8912 38.675C49.8912 38.1924 49.5071 37.8083 49.0246 37.8083H29.3276C28.845 37.8182 28.4609 38.2023 28.4609 38.675Z" fill="white"/>
<path d="M29.3276 42.2008C28.8549 42.2008 28.4609 42.5849 28.4609 43.0675C28.4609 43.55 28.845 43.9341 29.3276 43.9341H42.8496C43.3223 43.9341 43.7162 43.55 43.7162 43.0675C43.7162 42.5849 43.3321 42.2008 42.8496 42.2008H29.3276Z" fill="white"/>
</svg>
