<svg width="65" height="65" viewBox="0 0 65 65" fill="none" xmlns="http://www.w3.org/2000/svg">
<g clip-path="url(#clip0_831_3801)">
<path d="M65 27.3914C64.9994 27.0772 64.8313 26.787 64.5591 26.6306L60.0938 24.066L64.5609 21.4876C64.8331 21.3303 65.0006 21.0398 65 20.7256C64.9994 20.4114 64.8313 20.1214 64.5591 19.965C56.9471 15.5952 49.3356 11.2235 41.7247 6.85075C41.453 6.6946 41.1196 6.69498 40.8481 6.85164L0.439767 30.1818C0.16758 30.3387 1.79693e-06 30.6293 0.000636563 30.9433C0.00127133 31.2575 0.168722 31.5474 0.441545 31.7041C1.92969 32.5593 3.41821 33.4134 4.90649 34.2684L0.439133 36.8474C0.166945 37.0043 -0.000632969 37.2949 1.79693e-06 37.6088C0.000636563 37.923 0.168722 38.2132 0.44091 38.3697L4.90611 40.9341L0.439133 43.5126C0.166945 43.6699 -0.000632969 43.9604 1.79693e-06 44.2744C0.000636563 44.5886 0.168722 44.8788 0.44091 45.0352L23.2753 58.1495C23.4109 58.2273 23.5619 58.2661 23.7128 58.2661C23.8644 58.2661 24.0159 58.2269 24.1519 58.1483L64.5607 34.8184C64.8329 34.6615 65.0005 34.3709 64.9999 34.0567C64.9992 33.7427 64.8312 33.4525 64.559 33.2961L60.0938 30.7318L64.5607 28.1528C64.8331 27.9958 65.0006 27.7053 65 27.3914ZM41.2883 8.62606C48.3119 12.6614 55.3361 16.6956 62.3608 20.7286L47.1515 29.5074C46.6677 29.2335 45.7801 28.7259 44.6258 28.0641L53.2722 23.075C53.4798 22.9549 53.6296 22.7553 53.6862 22.5222C53.7433 22.2895 53.7022 22.0432 53.5729 21.8411C53.3871 21.55 53.1143 20.971 53.3785 20.3645C53.5568 19.9542 53.3979 19.4752 53.0102 19.2525L43.6625 13.8801C43.436 13.7503 43.1633 13.7274 42.9179 13.819C41.717 14.2673 40.0781 14.1964 38.7439 13.6391C38.4923 13.5344 38.2035 13.5516 37.9662 13.6891L28.8165 18.9725C28.4797 18.7785 28.1563 18.5924 27.858 18.4206L26.0866 17.4009L41.2883 8.62606ZM51.6923 21.9582L42.8632 27.0528C39.2655 24.9871 34.3096 22.1349 30.5763 19.9857L38.4828 15.4196C39.9953 15.9482 41.7058 16.0146 43.1275 15.5991L51.5464 20.4377C51.472 20.9376 51.5218 21.4552 51.6923 21.9582ZM17.8317 22.1662C18.6803 22.6537 19.5289 23.1407 20.3776 23.6282L11.746 28.6146C11.5384 28.7344 11.3886 28.934 11.332 29.1669C11.2748 29.4 11.316 29.6459 11.4452 29.8481C11.6311 30.1392 11.9039 30.7182 11.6402 31.324C11.4618 31.7343 11.6208 32.2133 12.0085 32.436L21.3533 37.8C21.5791 37.9301 21.8531 37.9527 22.0978 37.8612C23.2976 37.4132 24.9365 37.4835 26.2724 38.0402C26.3805 38.0857 26.4955 38.108 26.6104 38.108C26.7625 38.108 26.9146 38.0685 27.0495 37.9902L28.4894 37.1586C31.0581 35.6752 33.6263 34.192 36.1954 32.7102L38.9068 34.2667L23.7114 43.0427C16.6867 39.0101 9.66139 34.9759 2.63834 30.9404L17.8317 22.1662ZM13.326 29.7306L22.1387 24.6395C25.8558 26.7743 29.573 28.909 33.2903 31.0428L34.4338 31.6992C32.1591 33.0113 29.885 34.3242 27.6112 35.6374L26.5332 36.2601C25.0195 35.7314 23.3102 35.6664 21.888 36.0813L13.4725 31.2508C13.5463 30.7511 13.4965 30.2335 13.326 29.7306ZM6.66758 35.2799C12.2032 38.4599 17.7388 41.6398 23.2753 44.818C23.4109 44.8958 23.5619 44.9347 23.7128 44.9347C23.8644 44.9347 24.0165 44.8954 24.1519 44.8168L39.7913 35.7844L39.8025 40.4188L23.7117 49.7085L2.6386 37.6059L6.66758 35.2799ZM23.7117 56.3741L2.6386 44.2716L6.66796 41.9459L23.2753 51.4839C23.4109 51.5617 23.5619 51.6006 23.7128 51.6006C23.8644 51.6006 24.0159 51.5614 24.1519 51.4828L39.8074 42.4442L39.8187 47.0752L23.7117 56.3741ZM41.5731 46.0624L41.5445 34.2617C41.544 33.9478 41.3758 33.658 41.1036 33.502C41.1036 33.502 24.4476 23.9413 19.5903 21.1506L24.3287 18.4159C24.3287 18.4159 44.8202 30.2139 46.2829 31.0117L46.3075 43.3284L41.5731 46.0624ZM62.3614 34.0598L48.0623 42.3157L48.053 37.6836L58.3348 31.7475L62.3614 34.0598ZM48.0488 35.6576L48.0396 31.0236L58.3343 25.0813L62.3614 27.3942L48.0488 35.6576ZM21.1571 32.6408C20.9146 32.2207 21.0582 31.6834 21.4786 31.4411L25.3266 29.2191C25.7458 28.9761 26.284 29.1198 26.5264 29.5406C26.7688 29.9607 26.6252 30.4979 26.2049 30.7403L22.3568 32.9622C22.2184 33.0423 22.0675 33.08 21.9182 33.08C21.6152 33.0799 21.3195 32.9227 21.1571 32.6408ZM44.3501 19.2489C44.5925 19.669 44.449 20.2062 44.0286 20.4486L40.6443 22.4026C40.5059 22.4827 40.355 22.5204 40.2057 22.5204C39.9026 22.5204 39.607 22.3631 39.4446 22.0813C39.2021 21.6612 39.3457 21.124 39.766 20.8816L43.1504 18.9275C43.5701 18.6848 44.1076 18.828 44.3501 19.2489Z" fill="white"/>
<rect x="14" y="14.707" width="2.51743" height="52" transform="rotate(-45 14 14.707)" fill="#E63114"/>
</g>
<defs>
<clipPath id="clip0_831_3801">
<rect width="65" height="65" fill="white"/>
</clipPath>
</defs>
</svg>
