<svg width="65" height="65" viewBox="0 0 65 65" fill="none" xmlns="http://www.w3.org/2000/svg">
<path d="M21.3307 26.4062V32.4999C21.3307 33.0078 21.6353 33.3124 22.1432 33.5156C22.651 33.7187 23.1588 33.3124 23.2603 32.9062L23.9713 31.4843C24.4791 30.6718 25.2916 30.8749 25.3932 30.9765V31.3828C25.3932 32.4999 26.3072 33.414 27.4244 33.5156V34.5312C27.4244 34.7343 27.526 35.039 27.7291 35.1406L29.4557 36.8671V38.5937C28.6432 37.9843 27.526 37.5781 26.4088 37.5781C25.6978 37.5781 25.0885 37.6796 24.5807 37.8828C23.6666 36.4609 22.1432 35.5468 20.315 35.5468C19.5025 35.5468 18.5885 35.7499 17.8775 36.1562C17.3697 36.4609 17.1666 37.0703 17.4713 37.5781C17.776 38.0859 18.3853 38.289 18.8932 37.9843C19.2994 37.6796 19.8072 37.5781 20.315 37.5781C22.0416 37.5781 23.3619 38.8984 23.3619 40.6249C23.3619 41.1328 23.2603 41.6406 22.9557 42.2499C22.7525 42.7578 22.8541 43.4687 23.3619 43.5703C24.1744 43.7734 24.5807 43.4687 24.6822 43.164C25.0885 42.3515 25.2916 41.539 25.2916 40.7265C25.2916 40.4218 25.2916 40.2187 25.19 39.914C25.6978 39.6093 26.1041 39.6093 26.4088 39.6093C28.1353 39.6093 29.4557 40.9296 29.4557 42.6562C29.4557 43.2656 29.8619 43.6718 30.4713 43.6718C31.0807 43.6718 31.4869 43.2656 31.4869 42.6562V37.5781H33.5182V42.6562C33.5182 43.2656 33.9244 43.6718 34.5338 43.6718C35.1432 43.6718 35.5494 43.2656 35.5494 42.6562C35.5494 40.9296 36.8697 39.6093 38.5963 39.6093C38.901 39.6093 39.3072 39.6093 39.7135 39.8124C39.7135 40.1171 39.6119 40.3203 39.6119 40.6249C39.6119 41.4374 39.815 42.3515 40.2213 43.0624C40.4244 43.4687 40.9322 43.7734 41.5416 43.4687C42.0494 43.2656 42.2525 42.6562 41.9478 42.1484C41.7447 41.6406 41.6432 41.1328 41.6432 40.6249C41.6432 38.8984 42.9635 37.5781 44.69 37.5781C45.1978 37.5781 45.7057 37.6796 46.1119 37.9843C46.6197 38.289 47.2291 38.0859 47.5338 37.5781C47.8385 37.0703 47.6353 36.4609 47.1275 36.1562C46.4166 35.7499 45.5025 35.5468 44.69 35.5468C42.8619 35.5468 41.3385 36.4609 40.4244 37.8828C39.9166 37.6796 39.3072 37.5781 38.5963 37.5781C37.4791 37.5781 36.3619 37.9843 35.5494 38.5937V36.9687L37.276 35.2421C37.4791 35.039 37.5807 34.8359 37.5807 34.6328V33.5156C38.6978 33.414 39.6119 32.4999 39.6119 31.3828V30.9765C39.815 30.8749 40.2213 30.5703 41.0338 31.3828L41.7447 32.9062C41.9478 33.3124 42.3541 33.6171 42.8619 33.5156C43.3697 33.414 43.6744 33.0078 43.6744 32.4999V26.4062C43.6744 26.2031 43.5728 25.8984 43.3697 25.7968L39.6119 21.9374V15.9453C39.6119 13.8124 39.3072 11.7812 38.6978 9.85151C38.4947 9.34369 37.9869 9.03901 37.3775 9.24213C36.8697 9.44526 36.565 9.95307 36.7682 10.5624C37.3775 12.289 37.5807 14.2187 37.5807 16.0468V31.4843H27.4244V15.9453C27.4244 11.2734 29.2525 6.80463 32.5025 3.45307C33.5182 4.46869 34.3307 5.58588 35.0416 6.80463C35.3463 7.31244 35.9557 7.41401 36.4635 7.10932C36.9713 6.80463 37.0728 6.19526 36.7682 5.68744C35.9557 4.26557 34.94 3.04682 33.8228 1.82807L33.2135 1.21869C33.0103 1.01557 32.5025 0.609319 31.7916 1.21869L31.1822 1.82807C27.4244 5.68744 25.3932 10.664 25.3932 15.9453V21.9374L21.6353 25.6953C21.4322 25.8984 21.3307 26.1015 21.3307 26.4062ZM39.6119 24.7812L41.6432 26.8124V29.2499C40.9322 28.7421 39.9166 28.8437 39.6119 28.8437V24.7812ZM29.4557 33.5156H35.5494V34.1249L34.1275 35.5468H30.8775L29.4557 34.1249V33.5156ZM23.3619 26.8124L25.3932 24.7812V28.8437C24.6822 28.6406 23.7682 29.0468 23.3619 29.2499V26.8124Z" fill="white"/>
<path d="M31.4844 22.3438V28.4375C31.4844 29.0469 31.8906 29.4531 32.5 29.4531C33.1094 29.4531 33.5156 29.0469 33.5156 28.4375V22.3438C33.5156 21.7344 33.1094 21.3281 32.5 21.3281C31.8906 21.3281 31.4844 21.7344 31.4844 22.3438Z" fill="#E63114"/>
<path d="M35.5469 12.1875C35.5469 10.4609 34.2266 9.14062 32.5 9.14062C30.7734 9.14062 29.4531 10.4609 29.4531 12.1875C29.4531 12.7969 29.8594 13.2031 30.4688 13.2031C31.0781 13.2031 31.4844 12.7969 31.4844 12.1875C31.4844 11.5781 31.8906 11.1719 32.5 11.1719C33.1094 11.1719 33.5156 11.5781 33.5156 12.1875C33.5156 12.7969 33.1094 13.2031 32.5 13.2031C31.8906 13.2031 31.4844 13.6094 31.4844 14.2188C31.4844 14.8281 31.8906 15.2344 32.5 15.2344C34.2266 15.2344 35.5469 13.9141 35.5469 12.1875Z" fill="white"/>
<path d="M14.2188 33.5156C14.8281 33.5156 15.2344 33.1094 15.2344 32.5C15.2344 26.7109 18.0781 21.3281 22.9531 18.0781C23.4609 17.7734 23.5625 17.1641 23.2578 16.6562C22.9531 16.1484 22.3438 16.0469 21.8359 16.3516C16.4531 20.0078 13.2031 26 13.2031 32.5C13.2031 33.1094 13.6094 33.5156 14.2188 33.5156Z" fill="white"/>
<path d="M14.4219 35.5469C13.9141 35.6485 13.5079 36.2579 13.6094 36.7657C13.8125 37.4766 14.0157 38.1876 14.2188 38.7969C14.3204 39.2032 14.9297 39.711 15.5391 39.4063C16.0469 39.2032 16.3516 38.5938 16.1485 38.086C15.9454 37.4766 15.7422 36.8672 15.6407 36.2579C15.5391 35.7501 15.0313 35.4454 14.4219 35.5469Z" fill="white"/>
<path d="M51.6948 30.2656C51.0854 24.6797 47.937 19.7031 43.1636 16.4531C42.6558 16.1484 42.0464 16.25 41.7417 16.7578C41.437 17.2656 41.5386 17.875 42.0464 18.1797C46.312 21.0234 49.0542 25.4922 49.6636 30.4687C50.3745 36.8672 47.5308 43.1641 42.2495 46.8203C40.6245 47.9375 39.6089 49.8672 39.7104 51.7969H25.3901C25.3901 49.7656 24.4761 47.9375 22.8511 46.8203C21.0229 45.5 19.3979 43.9766 18.1792 42.1484C17.8745 41.6406 17.2651 41.5391 16.7573 41.8438C16.2495 42.1484 16.1479 42.7578 16.4526 43.2656C17.8745 45.2969 19.6011 47.125 21.6323 48.5469C22.6479 49.2578 23.3589 50.375 23.3589 51.6953C23.2573 52.9141 24.2729 53.8281 25.3901 53.9297V59.9219C25.3901 61.1406 26.3042 62.0547 27.5229 62.0547H29.6558C30.062 63.2734 31.1792 64.0859 32.4995 64.0859C33.8198 64.0859 34.937 63.2734 35.3433 62.0547H37.4761C38.6948 62.0547 39.6089 61.1406 39.6089 59.9219V57.8906C39.6089 57.2812 39.2026 56.875 38.5933 56.875C37.9839 56.875 37.5776 57.2812 37.5776 57.8906V59.9219H34.5308C34.0229 59.9219 33.5151 60.3281 33.5151 60.9375C33.5151 61.5469 33.1089 61.9531 32.4995 61.9531C31.8901 61.9531 31.4839 61.4453 31.4839 60.9375C31.4839 60.4297 30.9761 59.9219 30.4683 59.9219H27.4214V53.8281H37.5776V55.0469C37.5776 55.6562 37.9839 56.0625 38.5933 56.0625C39.2026 56.0625 39.6089 55.6562 39.6089 55.0469V53.8281C40.8276 53.8281 41.7417 52.8125 41.7417 51.5938C41.7417 50.2734 42.4526 49.1562 43.5698 48.3438C49.3589 44.2812 52.5073 37.375 51.6948 30.2656Z" fill="white"/>
<path d="M30.4688 55.8594C29.8594 55.8594 29.4531 56.2656 29.4531 56.875C29.4531 57.4844 29.8594 57.8906 30.4688 57.8906H34.5312C35.1406 57.8906 35.5469 57.4844 35.5469 56.875C35.5469 56.2656 35.1406 55.8594 34.5312 55.8594H30.4688Z" fill="white"/>
<path d="M14.5234 15.9453C14.7266 16.1484 15.5391 16.4531 15.9453 15.9453C16.3516 15.5391 16.3516 14.9297 15.9453 14.5234L11.6797 10.2578C11.2734 9.85156 10.6641 9.85156 10.2578 10.2578C9.85156 10.6641 9.85156 11.2734 10.2578 11.6797L14.5234 15.9453Z" fill="#E63114"/>
<path d="M8.125 31.4844H2.03125C1.42187 31.4844 1.01562 31.8906 1.01562 32.5C1.01562 33.1094 1.42187 33.5156 2.03125 33.5156H8.125C8.73438 33.5156 9.14062 33.1094 9.14062 32.5C9.14062 31.8906 8.73438 31.4844 8.125 31.4844Z" fill="#E63114"/>
<path d="M14.5234 49.0547L10.2578 53.3203C9.85156 53.7266 9.85156 54.3359 10.2578 54.7422C10.7656 55.25 11.4766 54.9453 11.6797 54.7422L15.9453 50.4766C16.3516 50.0703 16.3516 49.4609 15.9453 49.0547C15.5391 48.6484 14.9297 48.6484 14.5234 49.0547Z" fill="#E63114"/>
<path d="M50.4766 49.0547C50.0703 48.6484 49.4609 48.6484 49.0547 49.0547C48.6484 49.4609 48.6484 50.0703 49.0547 50.4766L53.3203 54.7422C53.5234 54.9453 54.2344 55.25 54.7422 54.7422C55.1484 54.3359 55.1484 53.7266 54.7422 53.3203L50.4766 49.0547Z" fill="#E63114"/>
<path d="M62.9688 31.4844H56.875C56.2656 31.4844 55.8594 31.8906 55.8594 32.5C55.8594 33.1094 56.2656 33.5156 56.875 33.5156H62.9688C63.5781 33.5156 63.9844 33.1094 63.9844 32.5C63.9844 31.8906 63.5781 31.4844 62.9688 31.4844Z" fill="#E63114"/>
<path d="M53.3226 10.2578L49.057 14.5234C48.6508 14.9297 48.7523 15.5391 49.057 15.9453C49.4633 16.5547 50.2758 16.1484 50.4789 15.9453L54.7445 11.6797C55.1508 11.2734 55.1508 10.6641 54.7445 10.2578C54.3383 9.85156 53.7289 9.85156 53.3226 10.2578Z" fill="#E63114"/>
</svg>
