<svg width="66" height="64" viewBox="0 0 66 64" fill="none" xmlns="http://www.w3.org/2000/svg">
<path d="M22.889 31.839C22.5246 37.8972 22.6746 43.9553 23.3371 50.0121C23.3841 50.4336 23.492 50.8386 23.6534 51.2118C24.2626 52.6362 25.6312 53.648 27.2409 53.7597C33.0184 54.166 38.7961 54.3526 44.5737 54.3234C45.3531 54.3183 46.087 54.6916 46.5312 55.3314C48.4076 58.0317 51.4659 60.6367 53.7649 62.3874C55.0242 63.3471 56.8371 62.4483 56.8371 60.8639V56.1566C56.8371 54.9112 57.8032 53.8791 59.0448 53.7953C59.2124 53.7839 59.38 53.7724 59.5489 53.7597C61.5863 53.6176 63.2305 52.0319 63.4527 50.0019C63.4805 49.7469 63.5071 49.4916 63.5338 49.2351" stroke="white" stroke-width="2" stroke-miterlimit="10" stroke-linecap="round" stroke-linejoin="round"/>
<path d="M40.6406 22.2632C44.7804 22.2137 48.9191 22.2759 53.0591 22.4498C55.2222 22.5387 57.3855 22.6606 59.5488 22.8129C61.5838 22.9551 63.2304 24.533 63.4526 26.5606C64.1419 32.856 64.2765 39.1502 63.8538 45.4446" stroke="white" stroke-width="2" stroke-miterlimit="10" stroke-linecap="round" stroke-linejoin="round"/>
<path d="M33.5 36.3386V36.0341C33.5 35.2312 34.1508 34.5803 34.9537 34.5803H37.8208C38.6238 34.5803 39.2747 35.2312 39.2747 36.0341V47.6132C39.2747 48.4161 38.6238 49.0669 37.8208 49.0669H34.9537C34.1508 49.0669 33.5 48.4161 33.5 47.6132V38.8088V36.3386Z" stroke="#E63114" stroke-width="2" stroke-miterlimit="10" stroke-linecap="round" stroke-linejoin="round"/>
<path d="M39.2678 36.0339C39.2575 35.4775 39.3647 34.9111 39.6037 34.3734C39.9538 33.5854 40.5275 32.97 41.2161 32.5664C42.2591 31.9545 43.0831 31.0287 43.5974 29.9335L44.468 28.0786C44.8872 27.1864 45.7727 26.6631 46.6972 26.6631C47.0474 26.6631 47.4032 26.738 47.7409 26.8965C48.9708 27.4744 49.5002 28.9396 48.9223 30.1695L46.8858 34.5076C46.8929 34.5196 46.8955 34.5226 46.9032 34.5345H52.1251C52.6382 34.5345 53.1023 34.7417 53.4376 35.0776C53.7748 35.4141 53.9819 35.8776 53.9819 36.3907C53.9819 37.417 53.1502 38.248 52.1251 38.248H52.7502C53.7921 38.248 54.6687 39.1002 54.6476 40.1419C54.6279 41.1503 53.8046 41.9617 52.7921 41.9617H52.1251C52.6382 41.9617 53.1023 42.1689 53.4376 42.5048C53.7748 42.8413 53.9819 43.3047 53.9819 43.8179C53.9819 44.8441 53.1502 45.6747 52.1251 45.6747H51.4587C51.9712 45.6747 52.436 45.8824 52.7718 46.2183C52.9501 46.3968 53.0922 46.6111 53.1868 46.85V46.8506C53.2693 47.0614 53.3147 47.2913 53.3147 47.5314C53.3147 48.5571 52.4838 49.3882 51.4587 49.3882H41.3418C40.4562 49.3882 39.6246 49.0344 39.0156 48.4307" stroke="#E63114" stroke-width="2" stroke-miterlimit="10" stroke-linecap="round" stroke-linejoin="round"/>
<path d="M16.2839 34.8083C16.873 34.1583 17.4187 33.4893 17.8886 32.814C18.3152 32.1996 19.021 31.8403 19.77 31.8454C25.3254 31.8732 30.8808 31.6943 36.4362 31.3033C37.9849 31.1954 39.3003 30.2229 39.8868 28.8531C40.0417 28.4938 40.1458 28.1054 40.1902 27.6991C41.0141 20.1836 41.0141 12.6667 40.1902 5.14994C39.9769 3.19994 38.3951 1.68158 36.4387 1.54447C28.1627 0.964423 19.8868 0.847627 11.612 1.19535C9.53254 1.28181 7.4519 1.39848 5.37114 1.54447C3.41479 1.68158 1.83169 3.19994 1.61726 5.14994C0.794479 12.663 0.794479 20.176 1.61587 27.6902C1.83042 29.6415 3.41111 31.1662 5.37114 31.3033C5.53237 31.3146 5.6936 31.3262 5.85483 31.3376C7.04946 31.4176 7.97876 32.4102 7.97876 33.6075V38.1345C7.97876 39.658 9.72182 40.5225 10.933 39.5996C11.7403 38.9851 12.6454 38.2602 13.5571 37.4617" stroke="white" stroke-width="2" stroke-miterlimit="10" stroke-linecap="round" stroke-linejoin="round"/>
<path d="M25.4766 12.3264C25.4766 14.2623 26.4182 15.8315 27.5795 15.8315C28.7412 15.8315 29.6828 14.2623 29.6828 12.3264C29.6828 10.3905 28.7412 8.82119 27.5795 8.82119C26.4182 8.82119 25.4766 10.3905 25.4766 12.3264Z" fill="white"/>
<path d="M25.4766 12.3264C25.4766 14.2623 26.4182 15.8315 27.5795 15.8315C28.7412 15.8315 29.6828 14.2623 29.6828 12.3264C29.6828 10.3905 28.7412 8.82119 27.5795 8.82119C26.4182 8.82119 25.4766 10.3905 25.4766 12.3264Z" stroke="white" stroke-miterlimit="10"/>
<path d="M12.125 12.3264C12.125 14.2623 13.0665 15.8315 14.228 15.8315C15.3896 15.8315 16.3312 14.2623 16.3312 12.3264C16.3312 10.3905 15.3896 8.82119 14.228 8.82119C13.0665 8.82119 12.125 10.3905 12.125 12.3264Z" fill="white"/>
<path d="M12.125 12.3264C12.125 14.2623 13.0665 15.8315 14.228 15.8315C15.3896 15.8315 16.3312 14.2623 16.3312 12.3264C16.3312 10.3905 15.3896 8.82119 14.228 8.82119C13.0665 8.82119 12.125 10.3905 12.125 12.3264Z" stroke="white" stroke-miterlimit="10"/>
<path d="M27.8334 19.3132C26.694 22.0157 24.0206 23.9128 20.905 23.9128C17.7895 23.9128 15.1158 22.0157 13.9766 19.3132" stroke="white" stroke-width="2" stroke-miterlimit="10" stroke-linecap="round" stroke-linejoin="round"/>
</svg>
