<svg width="65" height="65" viewBox="0 0 65 65" fill="none" xmlns="http://www.w3.org/2000/svg">
<path d="M46.6131 38.7928C46.5776 38.7705 46.541 38.7583 46.5045 38.739C46.8721 37.2328 47.0224 34.8603 47.0224 31.333C47.0234 27.4909 42.7629 20.3125 32.5 20.3125C22.2381 20.3125 17.9776 27.4909 17.9776 31.3341C17.9776 34.8613 18.1279 37.2338 18.4955 38.74C18.459 38.7593 18.4224 38.7705 18.3859 38.7938C17.6109 39.2803 17.2656 40.2868 17.2656 42.054C17.2656 45.0846 18.3097 47.5973 19.8636 48.3041C20.1937 48.4534 20.541 48.5205 20.8782 48.5113C21.2205 52.6774 23.0151 54.6071 24.244 55.9295C24.373 56.0686 24.4877 56.1945 24.6005 56.3195C24.5446 56.9146 24.308 58.2004 23.3076 59.2059C22.9115 59.604 22.9135 60.2459 23.3116 60.642C23.5097 60.839 23.7697 60.9375 24.0287 60.9375C24.2897 60.9375 24.5507 60.838 24.7488 60.6379C25.5216 59.8599 25.9787 58.9875 26.2519 58.2045C28.0952 60.2753 28.9087 60.9375 32.5 60.9375C36.0923 60.9375 36.9048 60.2753 38.7481 58.2045C39.0213 58.9875 39.4784 59.8609 40.2523 60.6379C40.4503 60.838 40.7113 60.9375 40.9723 60.9375C41.2313 60.9375 41.4913 60.839 41.6884 60.642C42.0865 60.2459 42.0885 59.603 41.6924 59.2048C40.693 58.2004 40.4554 56.9166 40.3985 56.3205C40.5123 56.1945 40.628 56.0666 40.758 55.9274C41.9859 54.6061 43.7795 52.6754 44.1228 48.5103C44.4691 48.5266 44.8084 48.4534 45.1374 48.3031C46.6913 47.5973 47.7344 45.0856 47.7344 42.054C47.7344 40.2868 47.3891 39.2803 46.6131 38.7928ZM32.5 22.3438C41.2202 22.3438 44.9922 28.2963 44.9922 31.3341C44.9922 35.7317 44.7241 37.6279 44.5037 38.4424C44.1218 37.5131 43.748 35.6657 43.5256 34.5658C42.9213 31.5788 42.5222 29.6045 41.0313 29.6045C40.3985 29.6045 39.9222 29.6908 39.3189 29.7995C38.2454 29.9934 36.6245 30.2859 32.4929 30.3164C32.4726 30.3164 32.4512 30.3174 32.4309 30.3184C30.1874 30.3083 28.5279 29.8116 27.1913 29.4115C26.257 29.1312 25.4485 28.8895 24.6777 28.8895C22.8475 28.8895 22.2463 31.4945 21.4855 34.7923C21.2337 35.882 20.8518 37.5365 20.4892 38.418C20.2698 37.5893 20.0078 35.688 20.0078 31.3341C20.0088 28.2963 23.7809 22.3438 32.5 22.3438ZM44.2955 46.4557C44.2305 46.4831 44.1137 46.538 43.8313 46.2922C43.5287 46.0302 43.1062 45.9692 42.7436 46.1337C42.382 46.2983 42.1484 46.6598 42.1484 47.058C42.1484 51.4475 40.5519 53.1649 39.2691 54.5452C38.9279 54.9128 38.6039 55.2622 38.3317 55.6339C37.9438 56.0513 37.6127 56.4251 37.3161 56.7582C35.7013 58.5782 35.4108 58.9062 32.5 58.9062C29.5882 58.9062 29.2977 58.5782 27.6819 56.7562C27.3863 56.423 27.0552 56.0503 26.6683 55.6339C26.3971 55.2612 26.0731 54.9138 25.7319 54.5462C24.4481 53.1659 22.8516 51.4485 22.8516 47.058C22.8516 46.6598 22.619 46.2983 22.2564 46.1337C21.8959 45.9682 21.4693 46.0302 21.1687 46.2922C20.8873 46.537 20.7665 46.4841 20.7035 46.4557C20.1368 46.1967 19.2969 44.6195 19.2969 42.054C19.2969 41.2252 19.3903 40.8058 19.4563 40.6128C19.4624 40.6159 19.4675 40.6179 19.4746 40.6209C19.7448 40.8271 20.0545 40.9256 20.4141 40.9256H20.4151C22.1569 40.9256 22.7348 38.4201 23.466 35.2483C23.7971 33.8142 24.3405 31.4559 24.8148 30.9248C25.2779 30.9573 25.8995 31.1441 26.6094 31.3564C28.0079 31.7759 29.9234 32.3497 32.5 32.3497C32.5264 32.3497 32.5528 32.3487 32.5782 32.3466C36.8327 32.3121 38.545 32.0034 39.6805 31.7982C40.0847 31.7251 40.3873 31.6702 40.7032 31.6479C40.9845 32.2512 41.3116 33.8609 41.534 34.969C42.1809 38.1652 42.7395 40.9266 44.5859 40.9266H44.587H44.588C44.9465 40.9266 45.2573 40.8281 45.5264 40.622C45.5325 40.6189 45.5376 40.6169 45.5437 40.6138C45.6097 40.8068 45.7031 41.2252 45.7031 42.054C45.7031 44.6195 44.8632 46.1967 44.2955 46.4557Z" fill="white"/>
<path d="M30.4681 12.1876H33.1219L31.5355 16.9448C31.3578 17.477 31.6452 18.0518 32.1774 18.2296C32.285 18.2651 32.3937 18.2814 32.4993 18.2814C32.9249 18.2814 33.321 18.0122 33.4632 17.5867L35.4944 11.4929C35.599 11.1832 35.5462 10.8429 35.3553 10.5778C35.1633 10.3128 34.8566 10.1564 34.5306 10.1564H31.8768L33.4632 5.39917C33.6399 4.86698 33.3535 4.29214 32.8213 4.1144C32.2881 3.93565 31.7143 4.2251 31.5365 4.75628L29.5053 10.85C29.4017 11.1598 29.4545 11.5 29.6454 11.7651C29.8353 12.0312 30.1421 12.1876 30.4681 12.1876Z" fill="white"/>
<path d="M51.4984 8.42283C51.1013 8.02572 50.4594 8.02572 50.0623 8.42283L44.9842 13.501C44.7527 13.7315 44.647 14.0596 44.6998 14.3815C44.7527 14.7035 44.9568 14.9807 45.2483 15.127L47.8919 16.4483L44.0529 19.5196C43.6152 19.8699 43.5441 20.5088 43.8944 20.9465C44.0945 21.1984 44.3891 21.3284 44.6877 21.3284C44.9101 21.3284 45.1335 21.2553 45.3214 21.106L50.3995 17.0435C50.6697 16.8271 50.8109 16.4879 50.7743 16.1436C50.7387 15.7993 50.5285 15.4977 50.2187 15.3423L47.4166 13.9417L51.4984 9.85994C51.8955 9.46182 51.8955 8.81994 51.4984 8.42283Z" fill="white"/>
<path d="M21.3804 20.6336C21.5226 21.0591 21.9187 21.3283 22.3442 21.3283C22.4498 21.3283 22.5585 21.311 22.6652 21.2754C23.1973 21.0977 23.4848 20.5229 23.307 19.9907L21.2758 13.8969C21.1823 13.6176 20.9731 13.3922 20.7009 13.2804C20.4277 13.1677 20.121 13.1779 19.858 13.3099L16.8903 14.7937L15.1952 8.86045C15.0409 8.32115 14.4802 8.00834 13.9399 8.16271C13.4006 8.31709 13.0888 8.87873 13.2422 9.41802L15.2734 16.5274C15.3567 16.8179 15.5649 17.0565 15.8412 17.1784C16.1164 17.2983 16.4333 17.2922 16.7045 17.1571L19.7198 15.6499L21.3804 20.6336Z" fill="white"/>
<rect x="13" y="22.78" width="2.51743" height="52" transform="rotate(-45 13 22.78)" fill="#E63114"/>
</svg>
