<svg width="667" height="442" viewBox="0 0 667 442" fill="none" xmlns="http://www.w3.org/2000/svg">
<g clip-path="url(#clip0_491_22178)">
<path d="M529.38 96.1166C529.38 96.1166 566.493 115.092 539.446 155.849C539.446 155.849 571.341 159.535 579.356 150.368C578.73 152.459 577.843 154.463 576.717 156.333C576.717 156.333 607.609 152.286 618.678 140.577C629.746 128.868 595.256 -26.8576 512.97 5.01414C512.97 5.01414 439.801 11.6823 460.566 94.1373C481.33 176.592 454.055 181.167 454.055 181.167C454.055 181.167 462.264 183.63 465.933 183.014C465.933 183.014 470.939 180.076 471.502 176.944C471.502 176.944 471.221 181.765 470.095 183.472C470.095 183.472 500.01 181.325 512.847 167.742C525.685 154.16 536.472 112.655 529.38 96.1166Z" fill="#8E342E"/>
<path d="M476.394 136.855L479.368 137.269C485.745 138.134 492.205 136.441 497.338 132.559C502.47 128.677 505.857 122.922 506.759 116.552L508.914 101.016C509.78 94.6393 508.087 88.1791 504.204 83.0464C500.322 77.9137 494.566 74.5256 488.193 73.6219L485.228 73.2085C478.849 72.3454 472.388 74.0405 467.255 77.9235C462.122 81.8066 458.733 87.5623 457.829 93.9344L455.674 109.461C454.808 115.838 456.501 122.298 460.383 127.431C464.266 132.563 470.022 135.952 476.394 136.855Z" fill="#E63114"/>
<path d="M467.913 261.353C478.99 269.904 486.003 300.764 503.855 305.857C570.796 324.965 606.729 245.483 618.484 206.732C609.519 200.979 600.887 199.369 595.898 198.507C590.909 197.645 585.903 197.038 581.644 196.607C574.341 190.396 564.223 165.975 563.607 128.869L560.369 129.564L506.24 141.449C506.24 141.449 507.824 158.542 508.202 174.64C508.484 187.238 508.897 190.246 507.92 191.751C503.706 192.437 498.752 203.187 498.752 203.187C486.642 221.549 476.315 241.026 467.913 261.353Z" fill="#F0C29F"/>
<path d="M506.24 141.377C506.24 141.377 507.824 158.452 508.193 174.568C538.592 173.082 554.104 145.001 560.369 129.492L506.24 141.377Z" fill="#E8B795"/>
<path d="M230.903 422.067C230.903 422.067 262.737 423.237 297.307 423.36C301.398 423.36 305.533 423.36 309.625 423.36C337.781 423.237 365.444 422.251 377.216 419.216C388.716 416.261 432.956 386.271 468.361 349.957C471.115 356.502 473.183 361.499 473.236 361.895C474.32 370.053 475.952 378.129 478.119 386.069C483.478 405.405 490.804 424.141 499.984 441.983H518.945L667 441.71C667 441.71 639.038 398.658 646.552 288.351C646.763 285.562 620.781 196.563 620.781 196.563C620.781 196.563 600.614 193.044 577.298 191.152C575.098 193.158 570.567 251.711 541.408 255.098C536.665 255.644 506.213 302.11 506.213 302.11L497.001 254.65L507.92 191.671C493.93 195.762 486.267 197.24 474.635 201.885C466.72 205.058 460.156 210.887 456.07 218.37C435.701 255.591 369.579 375.653 362.804 378.477C356.478 381.116 332.66 385.858 307.46 390.459C273.735 396.617 237.537 402.458 237.537 402.458L230.903 422.067Z" fill="#D2E3FC"/>
<path d="M489.46 441.964H500.062V441.92L489.46 441.964Z" fill="#D2E3FC"/>
<path d="M497.186 157.644C497.186 157.644 569.168 156.237 567.576 111.433C565.983 66.6298 574.236 36.2711 528.21 35.277C482.185 34.2829 473.914 51.6924 470.79 66.7705C467.667 81.8487 478.454 156.861 497.186 157.644Z" fill="#FFCDA8"/>
<path d="M297.307 423.36C301.398 423.36 305.533 423.36 309.625 423.36C337.78 423.236 365.443 422.251 377.216 419.216C388.716 416.26 432.956 386.271 468.361 349.957C468.361 349.957 460.9 321.375 457.68 316.589C454.459 311.804 441.754 358.305 412.085 377.228C382.416 396.15 335.959 409.407 313.408 404.041C298.266 400.399 296.708 414.061 297.307 423.36Z" fill="#B7D3F3"/>
<path d="M511.352 132.704C511.352 132.704 510.894 138.07 499.086 138.924C499.086 138.924 489.179 139.636 488.765 133.865C488.765 133.865 497.784 128.438 511.352 132.704Z" fill="white"/>
<path d="M507.454 150.826C548.35 137.912 558.39 99.2045 558.486 98.8086L554.087 97.7266L556.269 98.272L554.087 97.7266C553.99 98.096 544.496 134.402 506.064 146.542L505.29 146.788L506.601 151.081L507.454 150.826Z" fill="#122544"/>
<path d="M502.826 153.86L506.679 152.638C507.625 152.336 508.413 151.673 508.871 150.793C509.33 149.913 509.421 148.887 509.125 147.94C508.822 146.996 508.158 146.21 507.278 145.754C506.398 145.298 505.373 145.207 504.427 145.503L500.564 146.717C499.619 147.018 498.832 147.682 498.375 148.562C497.918 149.443 497.829 150.469 498.127 151.415C498.428 152.36 499.092 153.148 499.972 153.606C500.852 154.065 501.878 154.156 502.826 153.86Z" fill="#ED7D2B"/>
<path d="M493.122 29.3287C493.122 29.3287 511.599 83.8706 539.2 93.1691C566.801 102.468 576.014 91.4888 576.014 91.4888C576.014 91.4888 555.636 72.7863 553.304 42.5155C553.304 42.4891 508.625 7.03695 493.122 29.3287Z" fill="#8E342E"/>
<path d="M527.541 45.3927C527.541 45.3927 490.015 43.2902 478.796 53.9699C470.71 61.6761 470.878 65.7052 470.271 75.9626C470.271 75.9626 453.852 50.6534 470.746 32.9361C488.651 14.1631 527.541 45.3927 527.541 45.3927Z" fill="#8E342E"/>
<path d="M494.722 35.1093C494.722 35.1093 504.119 87.3287 538.478 106.295C538.478 106.295 505.201 72.2417 504.612 38.1707C504.022 4.09962 494.722 35.1093 494.722 35.1093Z" fill="#8E342E"/>
<path d="M618.704 140.577C607.644 152.286 576.743 156.341 576.743 156.341C578.16 154.388 579.383 150.368 579.383 150.368C563.545 163.238 524.506 153.887 524.506 153.887C555.618 147.025 545.543 102.134 534.967 100.225C528.773 66.3737 516.543 24.2357 510.815 5.27804C512.196 5.05812 512.971 4.98774 512.971 4.98774C595.256 -26.8577 629.773 128.877 618.704 140.577Z" fill="#8E342E"/>
<path d="M551.14 132.255L554.105 132.668C560.483 133.531 566.945 131.836 572.078 127.953C577.211 124.07 580.6 118.315 581.504 111.943L583.659 96.4157C584.525 90.039 582.832 83.5788 578.95 78.4461C575.067 73.3135 569.311 69.9253 562.939 69.0216L559.965 68.6082C553.587 67.7426 547.125 69.4355 541.992 73.3172C536.858 77.1988 533.469 82.9538 532.566 89.3253L530.419 104.861C529.553 111.238 531.246 117.698 535.129 122.83C539.011 127.963 544.767 131.351 551.14 132.255Z" fill="#E63114"/>
<path d="M570.576 75.6025C572.335 72.286 566.176 46.5722 557.034 26.6116C552.635 16.9349 541.522 4.05595 533.595 0.73066C530.726 -0.474539 526.917 0.0180968 523.811 0.73066C521.558 1.24089 515.232 4.18791 515.232 4.18791C541.302 12.3164 563.959 66.9198 562.296 72.5763C562.34 72.4382 562.399 72.3054 562.472 72.1805L570.576 75.6025Z" fill="#E63114"/>
<path d="M557.114 116.808L558.592 117.01C561.77 117.442 564.989 116.599 567.548 114.666C570.106 112.732 571.796 109.866 572.247 106.691L573.321 98.9499C573.745 95.7766 572.897 92.5643 570.962 90.0134C569.027 87.4625 566.162 85.7798 562.991 85.3321L561.513 85.1209C558.335 84.692 555.117 85.5372 552.56 87.4721C550.004 89.4069 548.316 92.2744 547.866 95.4487L546.793 103.19C546.369 106.362 547.216 109.573 549.149 112.124C551.082 114.675 553.945 116.358 557.114 116.808Z" fill="#DB2F13"/>
<path d="M382.451 396.124C382.451 396.124 351.585 394.365 348.585 395.966C343.711 398.605 327.134 409.267 324.538 412.372C321.943 415.478 315.133 427.917 315.133 427.917C315.133 427.917 318.08 428.735 319.409 427.538C320.737 426.342 330.847 415.645 330.847 415.645L320.5 431.356C320.5 431.356 324.072 431.198 325.489 429.641C326.905 428.084 336.575 418.249 336.575 418.249L339.874 417.606C337.979 419.131 336.245 420.847 334.701 422.726C333.538 424.313 332.525 426.003 331.674 427.776C332.985 427.573 334.277 427.261 335.537 426.843C336.461 426.404 345.127 418.812 345.127 418.812L340.534 425.084C340.534 425.084 343.632 424.934 344.652 424.204C345.673 423.474 352.421 417.299 353.618 417.316C354.815 417.334 363.437 416.973 367.133 415.011C370.828 413.05 382.46 408.554 382.46 408.554L382.451 396.124Z" fill="#F0C29F"/>
<path d="M573.048 182.566C573.048 182.566 593.689 188.584 598.37 193.325C598.37 193.325 576.787 248.474 545.675 274.258L537.36 268.355V281.771L506.213 302.145C506.213 302.145 574.614 199.246 573.048 182.566Z" fill="#B7D3F3"/>
<path d="M478.163 386.041C483.522 405.377 490.848 424.113 500.028 441.955H489.469H500.072H598.37C598.37 441.955 586.932 441.955 586.932 441.885C587.205 440.882 570.303 395.084 598.37 376.311C626.438 357.538 636.609 311.275 636.609 311.275L547.338 289.502C547.338 289.502 510.542 343.164 500.072 353.421C492.03 361.277 473.289 361.867 473.289 361.867L478.163 386.041Z" fill="#B7D3F3"/>
<path d="M507.92 191.671C507.92 191.671 498.427 266.71 506.24 302.11C506.24 302.11 493.491 278.692 491.696 274.399L493.842 261.529L485.616 264.388C485.616 264.388 492.875 204.568 499.438 194.073C506.002 183.578 508.422 182.566 508.422 182.566L507.92 191.671Z" fill="#B7D3F3"/>
<path d="M230.904 422.065C230.904 422.065 270.735 423.543 309.661 423.358C319.339 408.403 307.487 390.439 307.487 390.439C273.762 396.597 237.564 402.439 237.564 402.439L230.904 422.065Z" fill="#F0C29F"/>
<path d="M227.129 442H374.312C374.313 440.459 374.009 438.932 373.418 437.508C372.828 436.084 371.962 434.791 370.871 433.702C369.78 432.613 368.485 431.749 367.06 431.161C365.635 430.573 364.108 430.271 362.566 430.273H227.129V442Z" fill="#DB2F13"/>
<path d="M0.000213623 281.734L54.5783 441.999H283.607L227.551 281.734H0.000213623Z" fill="#DB2F13"/>
<path d="M-3.05176e-05 281.734L54.0766 440.521L54.5781 441.999H280.264L224.207 281.734H-3.05176e-05Z" fill="#E63114"/>
<path d="M119.327 360.39C120.744 366.548 126.859 371.474 132.983 371.474C139.106 371.474 142.925 366.513 141.509 360.39C140.092 354.267 133.986 349.297 127.862 349.297C121.738 349.297 117.919 354.258 119.327 360.39Z" fill="#2C115B"/>
<path d="M-0.000213623 281.734L54.0764 440.521H157.769L31.3318 281.734H-0.000213623Z" fill="#DB2F13"/>
<path d="M382.416 408.588C382.416 408.588 458.181 415.203 500.062 413.338V372.203C472.628 379.777 382.451 396.122 382.451 396.122L382.416 408.588Z" fill="#F0C29F"/>
<path d="M598.371 193.324C598.371 193.324 641.695 194.309 655.105 208.789C668.514 223.269 641.801 305.117 641.801 305.117C641.801 305.117 561.064 404.014 520.661 410.99C520.661 410.99 503.002 413.401 494.758 413.532C494.758 413.532 502.844 390.009 487.807 375.248C487.807 375.248 505.114 370.409 505.826 368.263C506.539 366.116 598.371 193.324 598.371 193.324Z" fill="#D2E3FC"/>
</g>
<defs>
<clipPath id="clip0_491_22178">
<rect width="667" height="442" fill="white" transform="matrix(-1 0 0 1 667 0)"/>
</clipPath>
</defs>
</svg>
