<svg width="16" height="20" viewBox="0 0 16 20" fill="none" xmlns="http://www.w3.org/2000/svg">
<path d="M13.481 11.5792C11.1849 10.8264 10.2305 9.8902 10.2305 9.8902L10.1536 9.96374C9.47173 10.608 8.71758 10.9867 8.03056 10.9867H7.96572C7.27874 10.9867 6.52459 10.608 5.84271 9.96374L5.76583 9.8902C5.76583 9.8902 4.81144 10.8264 2.51529 11.5792C-0.87423 12.8502 0.143517 18.0228 0.142536 18.0629C0.249291 18.6389 0.311514 18.8369 0.365729 18.8592C3.76955 20.3803 12.2268 20.3803 15.6307 18.8592C15.6849 18.8369 15.7471 18.6389 15.8539 18.0629C15.8529 18.0228 16.8842 12.8708 13.481 11.5792Z" fill="#E63114"/>
<path d="M11.5579 4.98037L11.5295 4.9494C11.3387 4.77412 11.3537 4.78417 11.3537 4.78417C11.3537 4.78417 11.6863 3.09933 11.4195 2.30257C11.0008 1.03014 8.49942 0.177319 7.99771 0.0781964C7.99779 0.0772532 7.69256 0.0159422 7.67308 0.0158192C7.67308 0.0158192 7.27845 -0.0642746 6.82108 0.13598C6.5232 0.251015 4.96592 0.959885 4.5239 2.30257C4.2572 3.09933 4.58984 4.78417 4.58984 4.78417C4.58984 4.78417 4.60476 4.77412 4.414 4.9494L4.38561 4.98037C4.25659 5.12743 4.28846 5.58757 4.42949 6.06629C4.55728 6.54591 4.72385 6.6748 4.76377 6.78713C5.16836 8.69401 6.57521 10.3221 8.00887 10.3221C9.44252 10.3221 10.7751 8.69401 11.1796 6.78713C11.2196 6.67485 11.3862 6.54591 11.514 6.06629C11.655 5.58753 11.6906 5.09581 11.5579 4.98037Z" fill="#E63114"/>
</svg>
