<svg width="1440" height="515" viewBox="0 0 1440 515" fill="none" xmlns="http://www.w3.org/2000/svg">
<path d="M635.596 645.196C607.934 648.007 578.902 636.007 555.975 624.674C525.764 609.743 499.198 587.966 473.517 566.878C468.706 562.926 463.714 558.857 458.798 554.881C447.419 545.698 436.137 537.148 422.986 533.23C407.561 528.627 390.89 530.796 376.227 532.693C370.836 533.377 365.448 534.094 360.061 534.811C287.226 544.348 211.917 554.239 138.576 543.114C92.2069 536.062 47.1643 520.705 3.59646 505.843C-21.1387 497.406 -46.717 488.683 -69.8448 475.37C-72.9433 473.583 -76.052 471.696 -79.0532 469.865C-89.4649 463.532 -100.206 456.962 -112.066 454.065C-145.692 445.922 -173.897 466.756 -203.738 488.841C-223.506 503.449 -243.92 518.552 -266.542 525.211C-266.985 525.342 -267.449 525.085 -267.578 524.642C-267.708 524.194 -267.449 523.727 -267.002 523.596C-244.675 517.029 -224.361 502.007 -204.758 487.487C-189.582 476.283 -175.295 465.678 -160.069 458.638C-142.968 450.697 -127.164 448.684 -111.689 452.434C-99.5538 455.37 -88.7051 461.997 -78.1825 468.42C-75.1813 470.251 -72.0725 472.139 -69.0076 473.929C-46.058 487.158 -20.5502 495.855 4.11442 504.265C47.6117 519.1 92.5838 534.43 138.815 541.462C211.914 552.544 287.126 542.697 359.86 533.17C365.248 532.453 370.639 531.769 376.027 531.052C390.891 529.135 407.73 526.949 423.504 531.652C436.971 535.674 448.4 544.344 459.891 553.617C464.806 557.593 469.798 561.662 474.609 565.615C500.217 586.642 526.709 608.359 556.742 623.207C582.454 635.917 615.85 649.474 646.093 641.688C671.741 635.082 681.702 614.61 692.254 592.959C694.641 588.072 697.077 583.011 699.739 578.163C711.316 556.917 723.468 535.646 735.943 514.885C760.574 473.904 787.193 433.467 815.102 394.695C829.073 375.307 843.311 357.215 863.997 348.502C873.593 344.475 884.077 342.834 894.19 341.23C904.271 339.629 914.653 337.997 924.119 334.018C955.599 320.716 969.769 286.595 983.473 253.573C984.861 250.211 986.303 246.708 987.758 243.34C996.212 223.394 1007.65 205.823 1019.97 193.825C1035.59 178.643 1052.38 172.021 1069.92 174.103C1081.18 175.433 1091.54 180.551 1101.57 185.498C1110.86 190.08 1120.46 194.8 1130.67 196.474C1160.85 201.408 1184.37 181.22 1209.3 159.837C1226.93 144.723 1245.14 129.073 1266.4 122.336C1314.5 107.04 1363.48 140.778 1396.07 171.775L1396.19 171.865C1399.83 175.326 1403.62 178.907 1408.31 180.363C1420.46 184.112 1431.56 172.814 1439.87 162.544C1509.1 77.1278 1598.91 8.64209 1699.62 -35.6047C1700.05 -35.7942 1700.55 -35.5951 1700.74 -35.162C1700.92 -34.7339 1700.73 -34.2382 1700.3 -34.051C1599.85 10.0678 1510.25 78.3976 1441.13 163.602C1437.67 167.887 1432.36 174.02 1426.33 178.125C1419.89 182.475 1413.64 183.787 1407.76 181.978C1402.69 180.426 1398.78 176.687 1394.99 173.106L1394.88 173.015C1362.59 142.327 1314.19 108.903 1266.88 123.983C1245.95 130.653 1227.85 146.154 1210.35 161.188C1197.68 172.036 1185.74 182.301 1172.73 189.522C1158.13 197.651 1144.27 200.483 1130.34 198.203C1119.89 196.485 1110.14 191.712 1100.75 187.073C1090.86 182.213 1080.61 177.152 1069.63 175.862C1024.17 170.413 996.583 226.713 989.19 244.076C987.768 247.441 986.323 250.91 984.935 254.272C978.148 270.59 971.147 287.473 961.838 302.013C951.241 318.549 939.097 329.547 924.689 335.622C915.062 339.685 904.549 341.363 894.364 342.941C884.351 344.535 873.969 346.166 864.567 350.105C844.267 358.609 830.183 376.551 816.393 395.716C788.515 434.451 761.891 474.855 737.29 515.799C724.846 536.524 712.694 557.794 701.114 579.007C698.482 583.817 696.042 588.845 693.656 593.732C688.522 604.289 683.217 615.168 676.045 624.033C667.966 633.974 658.296 640.279 646.398 643.352C642.887 644.184 639.255 644.824 635.596 645.196Z" fill="url(#paint0_linear_257_326)" fill-opacity="0.7"/>
<defs>
<linearGradient id="paint0_linear_257_326" x1="1465.97" y1="537.693" x2="260.279" y2="-310.852" gradientUnits="userSpaceOnUse">
<stop stop-color="#E63114"/>
<stop offset="0.916667" stop-color="#E63114" stop-opacity="0.01"/>
</linearGradient>
</defs>
</svg>
