<svg width="783" height="515" viewBox="0 0 783 515" fill="none" xmlns="http://www.w3.org/2000/svg">
<g filter="url(#filter0_f_106_30)">
<ellipse cx="391.5" cy="269" rx="225.5" ry="216" fill="#3F1091" fill-opacity="0.4"/>
</g>
<g clip-path="url(#clip0_106_30)">
<path fill-rule="evenodd" clip-rule="evenodd" d="M269.506 388.124L202.848 450.697H672.002L620.541 388.124H269.506Z" fill="#422D63"/>
<path fill-rule="evenodd" clip-rule="evenodd" d="M203.086 450.697H671.762C674.103 450.697 676.001 452.479 676.001 454.679V466.022C676.001 468.223 674.103 470.004 671.762 470.004H203.086C200.746 470.004 198.848 468.223 198.848 466.022V454.679C198.848 452.479 200.746 450.697 203.086 450.697Z" fill="#301D4E"/>
<path d="M273.968 158.342H617.425C622.861 158.342 627.276 162.738 627.276 168.151V374.135C627.276 379.548 622.861 383.944 617.425 383.944H273.968C268.532 383.944 264.117 379.548 264.117 374.135V168.151C264.117 162.738 268.532 158.342 273.968 158.342Z" fill="#999999"/>
<path d="M617.429 153.55H273.453C266.532 153.55 260.922 159.136 260.922 166.027V375.642C260.922 382.533 266.532 388.119 273.453 388.119H617.429C624.35 388.119 629.96 382.533 629.96 375.642V166.027C629.96 159.136 624.35 153.55 617.429 153.55Z" fill="#301D4E"/>
<path fill-rule="evenodd" clip-rule="evenodd" d="M617.432 176.052C619.298 176.052 620.853 177.51 620.853 179.251V375.854C620.853 377.595 619.294 379.053 617.432 379.053H273.46C271.594 379.053 270.035 377.595 270.035 375.854V179.251C270.035 177.51 271.594 176.052 273.46 176.052H617.432Z" fill="#1C063E"/>
<path d="M510.805 133.842C509.68 136.803 508.97 140.443 509.205 144.835C509.53 150.765 512.698 155.723 515.943 160.808C520.62 168.133 525.482 175.741 521.185 186.504C518.952 192.11 518.003 197.577 518.153 203.003L520.724 202.058C520.706 197.244 521.6 192.403 523.575 187.449C528.361 175.458 523.141 167.291 518.125 159.426C515.057 154.625 512.066 149.941 511.776 144.704C511.573 141.001 512.106 137.905 512.983 135.354C512.192 135.116 511.455 134.594 510.8 133.838L510.805 133.842ZM559.568 254.283L559.677 254.22L560.603 251.881L559.663 251.003C559.663 251.003 559.388 251.309 558.868 251.687L559.568 254.283Z" fill="black"/>
<path fill-rule="evenodd" clip-rule="evenodd" d="M501.59 76.1959C501.59 76.1959 503.66 94.7291 505.725 102.963C507.795 111.197 509.345 130.243 509.345 144.137C509.345 158.032 495.386 176.052 481.431 183.26C467.468 190.468 434.904 168.331 430.765 153.406C426.63 138.477 421.461 116.862 419.906 97.8157C418.356 78.7696 431.28 57.1498 456.094 55.6065C480.907 54.0587 483.492 58.1802 489.177 62.2972C494.866 66.4142 501.586 76.1959 501.586 76.1959H501.59Z" fill="#F8CDA6"/>
<path fill-rule="evenodd" clip-rule="evenodd" d="M461.675 181.496C447.96 175.683 433.436 163.044 430.765 153.406C427.593 141.946 423.811 126.549 421.52 111.399C427.688 103.786 433.901 97.1768 433.901 97.1768C433.901 97.1768 432.871 109.532 434.421 123.944C435.971 138.356 434.421 152.772 438.556 159.975C442.664 167.121 461.367 181.258 461.679 181.492L461.675 181.496Z" fill="#CF9480"/>
<path fill-rule="evenodd" clip-rule="evenodd" d="M508.645 100.322C512.992 100.25 517.181 108.277 517.994 118.243C518.812 128.209 515.947 136.344 511.595 136.416C510.777 136.43 509.969 136.155 509.178 135.638C508.726 123.296 507.397 109.604 505.73 102.963C505.653 102.657 505.576 102.342 505.504 102.014C506.417 100.947 507.479 100.34 508.649 100.322H508.645Z" fill="#4D4D4D"/>
<path fill-rule="evenodd" clip-rule="evenodd" d="M516.518 108.11C519.288 108.074 521.955 111.894 522.474 116.632C522.772 119.364 522.068 125.807 517.955 125.244C518.177 123.089 518.199 120.718 517.996 118.239C517.693 114.509 516.916 111.058 515.836 108.196C516.057 108.137 516.283 108.11 516.518 108.106V108.11Z" fill="#333333"/>
<path fill-rule="evenodd" clip-rule="evenodd" d="M448.207 173.802V183.53L453.345 210.495L466.82 252.313L478.692 222.284L488.001 210.702L493.573 185.901C489.6 189.06 484.001 192.844 477.847 194.981C468.357 198.266 453.923 188.434 448.487 184.331L448.347 183.98V173.91L448.212 173.807L448.207 173.802ZM468.334 183.764C468.56 183.822 468.791 183.876 469.012 183.926C468.786 183.876 468.56 183.822 468.334 183.764ZM469.279 183.989C469.514 184.043 469.744 184.092 469.979 184.137C469.749 184.092 469.514 184.043 469.279 183.989ZM470.205 184.182C470.44 184.227 470.675 184.268 470.91 184.308C470.675 184.268 470.44 184.227 470.205 184.182ZM471.118 184.34C471.353 184.38 471.588 184.416 471.818 184.443C471.588 184.412 471.353 184.376 471.118 184.34ZM472.04 184.475C472.266 184.506 472.487 184.529 472.709 184.551C472.483 184.533 472.266 184.506 472.04 184.475ZM472.939 184.574C473.165 184.592 473.386 184.614 473.608 184.623C473.386 184.61 473.165 184.592 472.939 184.574ZM473.798 184.637C474.037 184.65 474.277 184.659 474.512 184.664C474.277 184.664 474.037 184.65 473.798 184.637ZM474.643 184.664C474.896 184.664 475.14 184.664 475.384 184.664C475.14 184.664 474.891 184.664 474.643 184.664ZM475.456 184.664C475.714 184.655 475.967 184.646 476.215 184.628C475.962 184.646 475.714 184.655 475.456 184.664ZM476.279 184.623C476.532 184.605 476.776 184.578 477.024 184.551C476.776 184.578 476.532 184.601 476.279 184.623ZM477.097 184.547C477.345 184.515 477.589 184.479 477.829 184.443C477.589 184.484 477.345 184.52 477.097 184.547ZM477.865 184.434C478.109 184.389 478.348 184.344 478.583 184.29C478.348 184.344 478.109 184.394 477.865 184.434ZM478.642 184.277C478.872 184.223 479.103 184.164 479.338 184.097C479.112 184.164 478.877 184.223 478.642 184.277ZM479.36 184.088C479.6 184.016 479.83 183.944 480.061 183.863C479.835 183.944 479.6 184.02 479.36 184.088ZM480.07 183.858C480.3 183.778 480.531 183.683 480.757 183.584L480.07 183.858ZM480.761 183.584C480.987 183.485 481.213 183.382 481.435 183.269C481.213 183.382 480.992 183.49 480.761 183.584ZM481.435 183.269C481.638 183.166 481.846 183.053 482.049 182.941C481.846 183.053 481.638 183.166 481.435 183.269ZM482.108 182.909C482.311 182.801 482.519 182.684 482.727 182.567C482.519 182.684 482.311 182.797 482.108 182.909ZM482.75 182.554C482.953 182.441 483.161 182.324 483.364 182.203C483.156 182.324 482.953 182.441 482.75 182.554ZM483.419 182.171C483.626 182.05 483.83 181.924 484.038 181.798C483.83 181.928 483.626 182.05 483.419 182.171ZM484.051 181.793C484.25 181.672 484.453 181.546 484.652 181.42C484.453 181.55 484.25 181.672 484.051 181.793ZM485.411 180.925C485.592 180.803 485.777 180.682 485.963 180.556L485.411 180.925ZM486.039 180.502C486.207 180.389 486.374 180.272 486.541 180.16C486.374 180.272 486.207 180.389 486.039 180.502Z" fill="#F8CDA6"/>
<path fill-rule="evenodd" clip-rule="evenodd" d="M448.469 184.533L453.431 210.598L466.907 252.416L478.782 222.387L488.385 210.94L492.14 192.785C489.614 200.857 486.587 209.753 484.969 211.633C481.864 215.237 476.695 218.841 474.11 226.041C471.525 233.249 467.905 249.892 467.905 249.892C467.905 249.892 462.736 230.675 460.666 223.467C459.27 218.585 454.719 201.402 454.602 188.547C454.556 183.624 448.569 184.641 448.569 184.641L448.465 184.533H448.469Z" fill="#CF9480"/>
<path fill-rule="evenodd" clip-rule="evenodd" d="M494.351 173.523V184.479L494.08 185.491C490.085 188.722 484.269 192.749 477.843 194.976C468.354 198.261 453.92 188.43 448.484 184.326L448.344 183.975V173.905C459.646 182.009 473.523 187.345 481.431 183.26C485.892 180.956 490.347 177.55 494.351 173.523Z" fill="#CF9480"/>
<path fill-rule="evenodd" clip-rule="evenodd" d="M448.356 183.584L453.449 210.558L460.945 230.409L466.861 252.398L478.782 222.387L488.082 210.945L494.367 183.152L515.019 200.997C531.545 207.021 549.232 210.526 564.591 219.066C568.058 220.992 571.356 223.606 574.077 226.688C574.054 226.706 555.283 246.067 551.559 250.733C547.835 255.399 525.182 297.379 525.159 312.875C525.137 328.371 519.366 363.449 522.787 376.286C522.968 376.97 523.374 377.771 523.966 378.666L397.947 378.472L397.387 325.753C397.387 325.753 394.291 321.631 391.725 311.332C389.158 301.028 389.045 298.396 389.045 298.396L354.222 360.997C350.928 366.918 339.445 367.971 331.175 366.418C322.91 364.862 259.207 295.008 259.207 295.008L283.578 269.433L330.904 315.116L359.328 238.589C360.454 227.84 372.664 219.93 380.341 217.478L431.283 198.814L448.365 183.588L448.356 183.584ZM574.077 226.688C576.82 229.798 578.966 233.375 580.091 237.199L580.299 237.901C576.621 231.264 574.099 226.724 574.077 226.688Z" fill="#6A2DBA"/>
<path fill-rule="evenodd" clip-rule="evenodd" d="M513.001 378.648L483.805 378.603C480.863 377.757 477.704 376.564 475.3 374.954C469.195 370.855 431.326 343.953 431.326 343.953L425.059 331.012C425.059 331.012 486.52 366.216 513.006 378.648H513.001Z" fill="#5418A3"/>
<path fill-rule="evenodd" clip-rule="evenodd" d="M307.234 292.272L330.895 315.116C330.895 315.116 328.785 320.115 330.444 327.841C332.107 335.566 332.662 336.668 332.662 336.668C332.662 336.668 324.067 322.954 321.984 318.54C319.91 314.122 307.234 292.272 307.234 292.272Z" fill="#5418A3"/>
<path fill-rule="evenodd" clip-rule="evenodd" d="M388.297 299.723L386.639 302.711L366.688 284.682C366.688 284.682 372.707 274.23 372.833 262.846C372.96 251.467 370.271 246.792 370.271 246.792C370.271 246.792 378.703 261.024 381.451 268.322C384.198 275.624 388.415 288.943 388.415 292.776C388.415 294.653 388.36 297.402 388.302 299.723H388.297Z" fill="#5418A3"/>
<path fill-rule="evenodd" clip-rule="evenodd" d="M392.617 314.639C392.315 313.613 392.012 312.515 391.718 311.332C389.151 301.028 389.038 298.396 389.038 298.396L383.313 308.695C375.206 303.602 365.969 297.897 363.778 296.268C360.045 293.487 354.45 290.54 351.147 287.777C347.848 285.024 347.035 284.119 349.254 282.95C351.472 281.78 356.357 283.381 356.357 283.381C356.357 283.381 359.855 283.224 363.705 283.863C367.551 284.502 380.927 290.32 380.927 290.32L388.08 293.28C388.08 293.28 379.553 288.092 382.075 284.362C384.596 280.632 390.927 283.552 394.045 285.865C397.168 288.182 400.241 291.354 403.82 293.699C407.403 296.038 410.892 300.092 412.094 303.593C413.291 307.093 419.577 310.869 419.577 310.869L440.843 321.649C440.843 321.649 433.319 339.539 431.078 338.126C428.836 336.718 417.187 329.217 409.495 325.793C401.8 322.374 397.294 319.98 395.88 316.898C395.234 316.394 394.1 315.611 392.622 314.639H392.617Z" fill="#5418A3"/>
<path fill-rule="evenodd" clip-rule="evenodd" d="M465.753 248.367L466.82 252.313L467.818 249.784V258.958C467.805 259.066 464.718 297.51 465.234 307.21C465.505 312.371 466.508 321.316 467.696 329.496C468.74 336.677 469.92 343.237 470.864 346.059C472.089 349.717 471.135 360.362 470.159 371.251C469.938 373.676 469.721 376.119 469.522 378.491H467.457C467.656 376.061 467.882 373.559 468.103 371.071C469.061 360.394 470.001 349.955 468.907 346.698C467.918 343.737 466.707 337.046 465.649 329.78C464.456 321.559 463.449 312.547 463.168 307.309C462.658 297.645 465.627 260.385 465.753 258.85V248.362V248.367Z" fill="#5418A3"/>
<path fill-rule="evenodd" clip-rule="evenodd" d="M474.855 231.989L488.498 209.982L494.219 183.026L511.843 198.207C509.633 207.98 505.941 239.008 502.457 248.074L486.433 223.881L474.86 231.989H474.855Z" fill="#5418A3"/>
<path fill-rule="evenodd" clip-rule="evenodd" d="M456.133 217.172L460.874 230.333L462.324 235.71L450.76 225.424L430.601 238.806L429.566 199.363L431.148 198.779L433.48 196.695L456.133 217.172Z" fill="#5418A3"/>
<path fill-rule="evenodd" clip-rule="evenodd" d="M575.693 228.529C577.343 230.725 578.68 233.114 579.588 235.62C578.974 237.672 578.45 239.323 578.45 239.323C578.45 239.323 569.66 250.644 562.941 258.878C556.221 267.116 549.52 313.555 549.52 313.555C549.52 313.555 550.532 292.335 551.047 289.762C551.567 287.188 553.117 265.568 559.321 253.217C563.614 244.664 571.134 234.383 575.693 228.524V228.529Z" fill="#492C88"/>
<path d="M429.564 153.833C433.317 152.952 434.48 144.304 432.162 134.518C429.845 124.733 424.923 117.514 421.17 118.396C417.417 119.277 416.254 127.924 418.572 137.71C420.89 147.496 425.811 154.714 429.564 153.833Z" fill="#666666"/>
<path fill-rule="evenodd" clip-rule="evenodd" d="M426.138 152.74C423.377 150.517 420.548 145.343 418.836 138.783C417.032 131.89 416.947 125.325 418.338 121.568C421.1 123.786 423.928 128.965 425.641 135.525C427.444 142.414 427.53 148.983 426.138 152.74Z" fill="#1A1A1A"/>
<path fill-rule="evenodd" clip-rule="evenodd" d="M417.492 128.394C419.932 127.813 422.887 131.395 424.089 136.398C425.291 141.402 424.288 145.928 421.848 146.513C419.408 147.093 416.452 143.512 415.25 138.508C414.048 133.505 415.052 128.979 417.492 128.394Z" fill="#333333"/>
<path fill-rule="evenodd" clip-rule="evenodd" d="M419.686 146.054C417.865 144.929 416.112 142.081 415.249 138.504C414.91 137.091 414.747 135.723 414.738 134.463C414.738 132.884 414.978 131.485 415.439 130.423C417.26 131.548 419.009 134.396 419.872 137.973C420.64 141.159 420.513 144.146 419.686 146.054Z" fill="#666666"/>
<path fill-rule="evenodd" clip-rule="evenodd" d="M438.518 83.8C438.712 84.097 438.92 84.4074 439.151 84.7269C442.201 91.2871 449.169 100.803 464.945 107.346C484.371 115.395 499.736 111.085 506.415 108.295C509.357 107.894 511.444 107.476 511.444 107.476C511.444 107.476 515.028 91.1296 508.308 75.6875C501.589 60.2454 487.67 51.8945 475.261 48.2904C462.852 44.6864 451.998 45.2038 434.934 50.8641C417.875 56.5244 412.191 74.5402 409.606 83.8045C407.021 93.0688 409.606 99.2466 412.191 110.572C414.775 121.892 416.325 127.557 416.325 127.557C416.325 127.557 418.617 123.251 420.225 121.865C421.83 120.479 426.516 121.019 428.581 124.889C430.65 128.754 434.003 140.538 434.003 140.538C434.003 140.538 433.222 136.241 432.743 130.774C433.443 132.817 434.189 134.09 434.189 134.09C434.189 134.09 433.009 131.341 432.521 127.728C432.435 126.234 432.381 124.7 432.381 123.179C432.463 122.189 432.639 121.195 432.928 120.218C434.849 113.766 440.371 103.103 440.954 94.4007C441.202 90.7291 439.991 86.9496 438.518 83.8ZM432.648 117.726C432.811 116.263 433.05 114.887 433.389 113.658C435.974 104.394 439.539 97.5728 438.043 88.4344C437.709 86.3962 437.447 84.7809 437.239 83.4985C437.506 84.0115 437.817 84.6279 438.165 85.3613C442.815 95.0756 435.92 108.29 432.648 117.726ZM446.069 91.881C448.554 93.9597 451.682 96.2499 455.622 98.7291C475.266 111.085 490.255 109.024 496.975 109.024C500.048 109.024 503.337 108.7 506.004 108.349C501.435 109.978 493.084 111.809 481.421 109.748C462.956 106.486 456.725 101.244 450.52 96.3309C448.595 94.8101 447.149 93.2758 446.069 91.8855V91.881Z" fill="#663333"/>
<path fill-rule="evenodd" clip-rule="evenodd" d="M510.739 94.5402C511.322 89.7888 511.231 84.1555 509.374 78.4727C501.864 68.3669 492.568 60.8034 479.73 57.8203C446.66 50.1352 422.529 62.4052 409.126 92.7494C408.964 93.1229 408.805 93.5233 408.656 93.9507C409.09 98.8236 410.645 103.769 412.195 110.567L412.579 112.241C413.311 105.145 414.811 97.8833 417.699 92.3085C425.973 76.3534 439.932 65.0284 463.195 63.4851C486.459 61.9373 503.988 81.5053 507.372 86.6482C508.389 88.196 509.577 91.1566 510.743 94.5402H510.739Z" fill="#572B2B"/>
<path fill-rule="evenodd" clip-rule="evenodd" d="M412.156 133.33C412.156 133.33 409.052 103.476 417.326 87.5209C425.596 71.5614 439.554 60.2363 462.818 58.693C486.081 57.1497 503.61 76.7177 506.995 81.8606C510.38 87.0034 515.667 107.759 515.667 107.759L516.015 108.16C516.177 108.128 516.349 108.11 516.516 108.11C518.997 108.079 521.397 111.138 522.237 115.183C522.237 115.183 521.749 93.6986 513.475 80.3128C505.205 66.9314 494.866 56.6367 479.357 53.0327C446.283 45.3476 422.152 57.6176 408.749 87.9618C404.397 97.8156 404.912 128.695 405.432 134.36C405.947 140.02 406.462 141.568 410.602 145.172C414.737 148.772 417.543 147.633 418.564 145.141C419.59 142.652 418.338 136.349 414.777 133.321L412.152 133.33H412.156Z" fill="#666666"/>
<path fill-rule="evenodd" clip-rule="evenodd" d="M412.115 132.875C411.771 129.087 409.652 102.324 417.325 87.521C425.595 71.5614 439.554 60.2364 462.817 58.6931C486.08 57.1498 503.609 76.7178 506.994 81.8607C510.379 87.0035 515.666 107.759 515.666 107.759L515.711 107.804L516.181 108.128C516.294 108.115 516.407 108.106 516.52 108.106C517.356 108.092 518.178 108.434 518.942 109.042C518.657 107.683 518.092 104.97 517.103 100.38C515.553 93.1722 510.324 82.0181 507.798 77.7347C505.272 73.4512 493.839 62.81 486.166 60.0249C478.498 57.2442 468.506 54.5671 457.498 55.5165C446.49 56.4658 434.388 61.7752 424.049 71.557C402.598 91.8494 408.02 114.738 410.61 141.046C410.61 141.046 410.61 137.96 411.125 135.381C411.229 134.878 411.595 133.982 412.119 132.866L412.115 132.875Z" fill="#333333"/>
<path fill-rule="evenodd" clip-rule="evenodd" d="M530.06 148.65C527.475 161.519 514.551 171.813 514.551 171.813L514.031 169.24C523.453 161.141 533.838 143.552 524.89 131.665C522.802 128.889 520.376 126.499 519.016 125.231C520.177 125.015 520.99 124.137 521.537 122.985C527.163 129.892 532.527 136.371 530.064 148.646L530.06 148.65Z" fill="#808080"/>
<path d="M517.85 173.644C521.6 170.575 523.097 166.218 521.194 163.913C519.291 161.607 514.708 162.226 510.958 165.295C507.208 168.365 505.711 172.722 507.614 175.027C509.518 177.333 514.1 176.714 517.85 173.644Z" fill="#999999"/>
<path fill-rule="evenodd" clip-rule="evenodd" d="M452.86 214.738L458.03 225.546L459.471 225.159L453.344 210.495L448.206 183.53L432.543 197.532L432.697 236.358L452.86 214.738Z" fill="#6A2DBA"/>
<path fill-rule="evenodd" clip-rule="evenodd" d="M507.357 194.342L501.451 243.561L486.462 216.281L476.918 226.774L488.495 209.982L494.216 183.026L507.357 194.342Z" fill="#6A2DBA"/>
<path d="M459.804 272.263C461.089 272.263 462.131 270.42 462.131 268.146C462.131 265.873 461.089 264.029 459.804 264.029C458.519 264.029 457.477 265.873 457.477 268.146C457.477 270.42 458.519 272.263 459.804 272.263Z" fill="#492C88"/>
<path d="M460.318 271.008C461.246 271.008 461.999 269.676 461.999 268.034C461.999 266.391 461.246 265.06 460.318 265.06C459.389 265.06 458.637 266.391 458.637 268.034C458.637 269.676 459.389 271.008 460.318 271.008Z" fill="#5418A3"/>
<path d="M458.898 308.524C460.183 308.524 461.225 306.681 461.225 304.407C461.225 302.133 460.183 300.29 458.898 300.29C457.612 300.29 456.57 302.133 456.57 304.407C456.57 306.681 457.612 308.524 458.898 308.524Z" fill="#492C88"/>
<path d="M459.415 307.264C460.344 307.264 461.096 305.933 461.096 304.29C461.096 302.647 460.344 301.316 459.415 301.316C458.487 301.316 457.734 302.647 457.734 304.29C457.734 305.933 458.487 307.264 459.415 307.264Z" fill="#5418A3"/>
<path d="M458.898 335.292C460.183 335.292 461.225 333.448 461.225 331.175C461.225 328.901 460.183 327.058 458.898 327.058C457.612 327.058 456.57 328.901 456.57 331.175C456.57 333.448 457.612 335.292 458.898 335.292Z" fill="#492C88"/>
<path d="M459.415 334.032C460.344 334.032 461.096 332.7 461.096 331.058C461.096 329.415 460.344 328.083 459.415 328.083C458.487 328.083 457.734 329.415 457.734 331.058C457.734 332.7 458.487 334.032 459.415 334.032Z" fill="#5418A3"/>
<path fill-rule="evenodd" clip-rule="evenodd" d="M462.003 356.907C463.286 356.907 464.33 358.752 464.33 361.024C464.33 363.296 463.286 365.141 462.003 365.141C460.72 365.141 459.676 363.296 459.676 361.024C459.676 358.752 460.72 356.907 462.003 356.907Z" fill="#492C88"/>
<path fill-rule="evenodd" clip-rule="evenodd" d="M462.517 357.941C463.443 357.941 464.198 359.273 464.198 360.916C464.198 362.558 463.448 363.89 462.517 363.89C461.586 363.89 460.836 362.558 460.836 360.916C460.836 359.273 461.586 357.941 462.517 357.941Z" fill="#5418A3"/>
<path fill-rule="evenodd" clip-rule="evenodd" d="M411.623 117.042C411.854 121.429 412.057 126.068 411.849 129.289L411.858 129.406V129.523L411.867 129.55V129.636L411.881 129.748L411.89 129.861V129.969L411.899 130.009V130.081L411.913 130.185L411.922 130.288L411.931 130.392V130.495L411.944 130.599L411.953 130.698L411.962 130.797V130.855V130.891L411.971 130.986L411.98 131.08V131.17L411.994 131.238V131.26L412.003 131.345V131.431L412.017 131.516V131.588L412.026 131.602V131.678L412.039 131.759V131.831L412.053 131.903V131.98L412.062 132.052V132.124L412.075 132.196V132.263V132.326L412.089 132.389V132.448V132.461V132.506L412.102 132.565V132.619L412.112 132.668V132.722L412.121 132.767V132.812L412.134 132.857V132.871L412.179 133.325L414.805 133.316C414.999 130.747 415.925 128.844 417.399 128.416C417.39 127.39 417.435 126.419 417.521 125.51C416.838 126.635 416.35 127.548 416.35 127.548C416.35 127.548 414.131 118.783 412.012 109.784C411.813 112.272 411.7 114.716 411.642 117.033L411.623 117.042ZM418.569 145.141C417.543 147.633 414.737 148.776 410.607 145.172L410.543 145.118C409.287 157.163 407.362 169.001 404.389 176.448C397.113 194.693 386.638 200.002 387.425 214.882L431.014 198.909L432.546 197.591V197.537L448.209 183.534L448.24 183.696L448.344 183.602V173.91C439.695 167.71 432.56 159.881 430.766 153.411L430.725 153.267C430.485 153.46 430.232 153.613 429.961 153.726C427.435 154.752 424.227 151.777 421.665 146.554C420.657 146.707 419.577 146.176 418.574 145.145L418.569 145.141Z" fill="#663333"/>
<path fill-rule="evenodd" clip-rule="evenodd" d="M503.426 162.018C504.42 163.935 505.866 166.464 507.565 169.51C506.557 171.611 506.494 173.69 507.615 175.049C508.442 176.052 509.779 176.502 511.334 176.439C514.623 182.698 518.225 190.234 521.135 198.581C521.687 200.16 522.125 201.82 522.464 203.539C519.96 202.729 517.475 201.888 515.012 200.992L507.353 194.369V194.342L495.644 184.25L494.365 183.148L494.352 183.139V173.519C497.723 170.099 500.994 166.009 503.426 162.014V162.018Z" fill="#663333"/>
<path fill-rule="evenodd" clip-rule="evenodd" d="M258.914 294.684L283.244 269.073L283.569 269.429C282.792 271.989 281.64 275.156 280.108 277.699C277.008 282.846 258.914 294.684 258.914 294.684Z" fill="#492C88"/>
<path fill-rule="evenodd" clip-rule="evenodd" d="M281.07 274.22C280.397 273.298 282.385 275.818 279.629 272.326C276.872 268.835 264.915 253.24 255.552 251.908C246.189 250.576 241.729 251.021 233.703 246.58C225.682 242.139 222.112 238.589 217.652 238.589C213.192 238.589 214.977 241.253 217.652 245.249C220.327 249.244 230.58 254.571 230.58 254.571C230.58 254.571 222.559 255.017 212.744 254.571C202.934 254.13 197.588 248.358 194.022 247.026C190.452 245.694 187.33 248.803 190.005 252.353C192.68 255.908 199.816 259.458 202.043 260.344C204.271 261.231 204.719 263.453 208.731 264.785C212.744 266.117 218.095 268.34 219.88 269.671C221.66 271.003 229.243 274.108 233.256 274.553C237.268 274.999 245.294 276.772 252.425 277.217C259.56 277.662 266.271 283.008 267.139 283.876C268.011 284.74 268.304 284.335 269.574 287.228C274.83 283.719 278.969 280.115 281.066 274.225L281.07 274.22Z" fill="#F8CDA6"/>
<path fill-rule="evenodd" clip-rule="evenodd" d="M214.977 239.683C214.692 240.821 216.002 242.778 217.652 245.244C220.327 249.239 230.58 254.567 230.58 254.567L240.716 253.343L233.477 251.282C233.477 251.282 225.723 247.165 222.103 246.135C219.789 245.478 217.055 242.292 214.977 239.683Z" fill="#CF9480"/>
<path fill-rule="evenodd" clip-rule="evenodd" d="M189.008 249.874C189.048 250.63 189.351 251.476 190.011 252.344C192.686 255.899 199.822 259.449 202.049 260.335C204.277 261.222 204.725 263.444 208.737 264.776C212.75 266.108 218.101 268.331 219.886 269.663C221.666 270.994 229.249 274.099 233.262 274.544C236.8 274.936 243.474 276.367 249.896 277.001C249.683 276.97 242.792 276.034 240.718 274.445C238.612 272.83 232.963 272.385 231.413 271.872C229.863 271.354 226.244 268.268 224.694 267.755C223.144 267.237 217.97 265.694 215.904 265.181C213.835 264.668 210.735 261.582 209.185 261.064C207.63 260.547 201.43 256.947 197.811 255.917C195.497 255.26 191.715 252.083 189.012 249.874H189.008Z" fill="#CF9480"/>
<path fill-rule="evenodd" clip-rule="evenodd" d="M189.008 249.874C189.048 250.63 189.351 251.476 190.011 252.344C192.686 255.899 199.822 259.449 202.049 260.335C204.277 261.222 204.725 263.444 208.737 264.776C212.75 266.108 218.101 268.331 219.886 269.663C221.666 270.994 229.249 274.099 233.262 274.544C236.8 274.936 243.474 276.367 249.896 277.001C249.683 276.97 242.792 276.034 240.718 274.445C238.612 272.83 232.963 272.385 231.413 271.872C229.863 271.354 226.244 268.268 224.694 267.755C223.144 267.237 217.97 265.694 215.904 265.181C213.835 264.668 210.735 261.582 209.185 261.064C207.63 260.547 201.43 256.947 197.811 255.917C195.497 255.26 191.715 252.083 189.012 249.874H189.008Z" fill="#CF9480"/>
<path fill-rule="evenodd" clip-rule="evenodd" d="M255.59 277.703C261.446 279.152 266.408 283.129 267.145 283.867C268.017 284.731 268.311 284.326 269.58 287.219C274.768 283.755 278.867 280.196 280.991 274.441C280.096 275.548 275.469 281.028 271.985 280.592C268.116 280.106 255.59 277.703 255.59 277.703Z" fill="#CF9480"/>
<path fill-rule="evenodd" clip-rule="evenodd" d="M381.419 281.064C381.419 281.064 372.268 273.645 374.451 271.84C376.629 270.036 385.31 273.753 388.798 276.056C392.283 278.36 394.366 278.297 398.342 280.601C402.328 282.904 406.309 287.062 407.8 290.751C409.292 294.441 416.264 298.13 416.264 298.13L439.727 308.47C439.727 308.47 432.691 328.11 430.201 326.724C427.711 325.339 414.773 317.964 406.309 314.733C397.845 311.507 392.865 309.199 391.171 305.968C386.539 302.742 359.674 288.443 355.503 285.672C351.337 282.904 345.155 280.061 341.449 277.294C337.744 274.526 336.817 273.604 339.135 272.223C341.449 270.841 346.79 272.268 346.79 272.268C346.79 272.268 350.541 271.899 354.708 272.362C358.874 272.826 373.574 278.297 373.574 278.297L381.419 281.064Z" fill="#F8CDA6"/>
<path fill-rule="evenodd" clip-rule="evenodd" d="M381.422 281.064C381.422 281.064 372.271 273.645 374.454 271.84C374.503 271.795 374.562 271.759 374.621 271.719C374.576 272.484 374.906 273.546 376.361 274.805C379.397 277.433 387.906 282.094 390.017 283.674C392.127 285.249 393.514 286.63 393.054 286.364C392.593 286.099 384.233 282.729 382.823 281.896C381.553 281.136 378.209 279.93 377.59 279.71L381.417 281.06L381.422 281.064Z" fill="#CF9480"/>
<path fill-rule="evenodd" clip-rule="evenodd" d="M439.734 308.47C439.734 308.47 434.461 323.188 431.429 326.243C430.687 326.126 429.775 326.018 428.708 325.888C424.379 323.462 413.66 317.537 406.317 314.733C397.853 311.507 392.873 309.199 391.178 305.969C386.547 302.742 359.682 288.443 355.511 285.672C351.344 282.904 345.162 280.061 341.457 277.294C340.413 276.511 339.586 275.881 338.994 275.341L338.682 275.048L338.664 275.026L344.005 278.126C344.005 278.126 357.558 283.08 361.245 286.229C364.933 289.375 376.158 291.818 377.21 291.993C378.263 292.169 384.052 297.06 385.281 297.582C386.51 298.108 397.912 302.652 399.317 304.569C400.718 306.49 420.023 315.404 425.107 316.452C430.195 317.501 439.734 308.475 439.734 308.475V308.47Z" fill="#CF9480"/>
<path fill-rule="evenodd" clip-rule="evenodd" d="M563.528 218.594C563.528 218.594 582.34 222.756 582.34 239.408C584.18 302.859 547.847 372.888 547.847 375.228C547.847 377.568 538.141 387.458 522.239 382.513C506.332 377.568 425.055 331.012 425.055 331.012L439.479 305.865L518.325 330.702C518.325 330.702 538.963 262.828 538.963 259.705C538.963 256.582 540.301 234.319 546.569 229.118C552.841 223.917 563.524 218.598 563.524 218.598L563.528 218.594Z" fill="#6A2DBA"/>
<path fill-rule="evenodd" clip-rule="evenodd" d="M581.197 265.082C575.088 320.403 547.848 373.199 547.848 375.228C547.848 377.568 538.141 387.458 522.239 382.513C521.615 382.319 520.883 382.054 520.074 381.743C523.477 380.074 528.949 377.977 533.816 373.581C542.94 365.347 546.081 357.757 557.233 332.223C568.237 307.026 580.867 266.166 581.202 265.082H581.197Z" fill="#5418A3"/>
<path fill-rule="evenodd" clip-rule="evenodd" d="M537.043 267.48C531.39 278.23 523.216 298.72 517.919 311.449C512.628 324.187 493.115 317.105 493.115 317.105L439.484 305.861L518.331 330.698C518.331 330.698 531.924 285.996 537.043 267.48Z" fill="#5418A3"/>
<path fill-rule="evenodd" clip-rule="evenodd" d="M362.062 288.695C365.976 293.951 371.304 301.708 372.967 307.058C375.701 315.854 372.949 327.323 372.949 327.323L387.165 302.891C378.335 297.928 365.886 291.197 363.269 289.465C362.885 289.213 362.478 288.952 362.062 288.695Z" fill="#5418A3"/>
<path fill-rule="evenodd" clip-rule="evenodd" d="M381.122 275.597C381.122 275.597 379.445 277.208 382.202 279.593C384.958 281.982 392.681 286.211 394.597 287.642C396.518 289.073 397.774 290.328 397.354 290.09C396.934 289.852 389.346 286.792 388.072 286.031C386.798 285.276 383.232 284.02 383.232 284.02C383.232 284.02 378.252 280.133 379.328 277.627C380.408 275.12 381.126 275.597 381.126 275.597H381.122Z" fill="#CF9480"/>
<path fill-rule="evenodd" clip-rule="evenodd" d="M276.137 394.49H286.77L282.536 399.89H271.903L276.137 394.49Z" fill="#301D4E"/>
<path fill-rule="evenodd" clip-rule="evenodd" d="M291.005 394.49H301.638L297.403 399.89H286.77L291.005 394.49Z" fill="#301D4E"/>
<path fill-rule="evenodd" clip-rule="evenodd" d="M305.876 394.49H316.509L312.28 399.89H301.642L305.876 394.49Z" fill="#301D4E"/>
<path fill-rule="evenodd" clip-rule="evenodd" d="M320.744 394.49H331.381L327.147 399.89H316.514L320.744 394.49Z" fill="#301D4E"/>
<path fill-rule="evenodd" clip-rule="evenodd" d="M335.615 394.49H346.248L342.014 399.89H331.381L335.615 394.49Z" fill="#301D4E"/>
<path fill-rule="evenodd" clip-rule="evenodd" d="M350.483 394.49H361.116L356.881 399.89H346.248L350.483 394.49Z" fill="#301D4E"/>
<path fill-rule="evenodd" clip-rule="evenodd" d="M364.762 394.49H375.395L371.749 399.89H361.116L364.762 394.49Z" fill="#301D4E"/>
<path fill-rule="evenodd" clip-rule="evenodd" d="M378.495 394.49H389.128L386.033 399.89H375.395L378.495 394.49Z" fill="#301D4E"/>
<path fill-rule="evenodd" clip-rule="evenodd" d="M392.346 394.49H402.979L400.787 399.89H390.154L392.346 394.49Z" fill="#301D4E"/>
<path fill-rule="evenodd" clip-rule="evenodd" d="M405.18 394.49H415.813L413.617 399.89H402.984L405.18 394.49Z" fill="#301D4E"/>
<path fill-rule="evenodd" clip-rule="evenodd" d="M418.605 394.49H429.238L427.047 399.89H416.409L418.605 394.49Z" fill="#301D4E"/>
<path fill-rule="evenodd" clip-rule="evenodd" d="M432.808 394.49H443.441L441.995 399.89H431.362L432.808 394.49Z" fill="#301D4E"/>
<path fill-rule="evenodd" clip-rule="evenodd" d="M447.581 394.49H457.464L459.154 399.89H445.385L447.581 394.49Z" fill="#301D4E"/>
<path fill-rule="evenodd" clip-rule="evenodd" d="M614.704 394.49H604.071L608.301 399.89H618.938L614.704 394.49Z" fill="#301D4E"/>
<path fill-rule="evenodd" clip-rule="evenodd" d="M599.832 394.49H589.199L593.434 399.89H604.067L599.832 394.49Z" fill="#301D4E"/>
<path fill-rule="evenodd" clip-rule="evenodd" d="M584.961 394.49H574.328L578.562 399.89H589.195L584.961 394.49Z" fill="#301D4E"/>
<path fill-rule="evenodd" clip-rule="evenodd" d="M570.093 394.49H559.46L563.695 399.89H574.328L570.093 394.49Z" fill="#301D4E"/>
<path fill-rule="evenodd" clip-rule="evenodd" d="M555.226 394.49H544.593L548.827 399.89H559.46L555.226 394.49Z" fill="#301D4E"/>
<path fill-rule="evenodd" clip-rule="evenodd" d="M540.946 394.49H530.313L533.956 399.89H544.589L540.946 394.49Z" fill="#301D4E"/>
<path fill-rule="evenodd" clip-rule="evenodd" d="M527.218 394.49H516.585L519.68 399.89H530.313L527.218 394.49Z" fill="#301D4E"/>
<path fill-rule="evenodd" clip-rule="evenodd" d="M513.363 394.49H502.725L504.921 399.89H515.554L513.363 394.49Z" fill="#301D4E"/>
<path fill-rule="evenodd" clip-rule="evenodd" d="M500.529 394.49H489.896L492.092 399.89H502.725L500.529 394.49Z" fill="#301D4E"/>
<path fill-rule="evenodd" clip-rule="evenodd" d="M487.103 394.49H476.47L478.662 399.89H489.295L487.103 394.49Z" fill="#301D4E"/>
<path fill-rule="evenodd" clip-rule="evenodd" d="M472.905 394.49H462.272L463.718 399.89H474.351L472.905 394.49Z" fill="#301D4E"/>
<path fill-rule="evenodd" clip-rule="evenodd" d="M266.521 406.27H277.629L273.209 411.674H262.097L266.521 406.27Z" fill="#301D4E"/>
<path fill-rule="evenodd" clip-rule="evenodd" d="M282.057 406.27H293.165L288.745 411.674H277.633L282.057 406.27Z" fill="#301D4E"/>
<path fill-rule="evenodd" clip-rule="evenodd" d="M297.593 406.27H308.701L304.277 411.674H293.169L297.593 406.27Z" fill="#301D4E"/>
<path fill-rule="evenodd" clip-rule="evenodd" d="M313.125 406.27H324.237L319.813 411.674H308.705L313.125 406.27Z" fill="#301D4E"/>
<path fill-rule="evenodd" clip-rule="evenodd" d="M328.661 406.27H339.773L335.349 411.674H324.237L328.661 406.27Z" fill="#301D4E"/>
<path fill-rule="evenodd" clip-rule="evenodd" d="M344.197 406.27H355.309L350.885 411.674H339.773L344.197 406.27Z" fill="#301D4E"/>
<path fill-rule="evenodd" clip-rule="evenodd" d="M359.118 406.27H370.226L366.421 411.674H355.309L359.118 406.27Z" fill="#301D4E"/>
<path fill-rule="evenodd" clip-rule="evenodd" d="M373.461 406.27H384.573L381.338 411.674H370.226L373.461 406.27Z" fill="#301D4E"/>
<path fill-rule="evenodd" clip-rule="evenodd" d="M387.94 406.27H399.048L396.756 411.674H385.644L387.94 406.27Z" fill="#301D4E"/>
<path fill-rule="evenodd" clip-rule="evenodd" d="M401.343 406.27H412.455L410.16 411.674H399.052L401.343 406.27Z" fill="#301D4E"/>
<path fill-rule="evenodd" clip-rule="evenodd" d="M415.374 406.27H426.486L424.191 411.674H413.083L415.374 406.27Z" fill="#301D4E"/>
<path fill-rule="evenodd" clip-rule="evenodd" d="M430.21 406.27H441.318L439.808 411.674H428.696L430.21 406.27Z" fill="#301D4E"/>
<path fill-rule="evenodd" clip-rule="evenodd" d="M445.647 406.27H455.977L457.735 411.674H443.351L445.647 406.27Z" fill="#301D4E"/>
<path fill-rule="evenodd" clip-rule="evenodd" d="M620.258 406.27H609.146L613.57 411.674H624.682L620.258 406.27Z" fill="#301D4E"/>
<path fill-rule="evenodd" clip-rule="evenodd" d="M604.722 406.27H593.61L598.034 411.674H609.146L604.722 406.27Z" fill="#301D4E"/>
<path fill-rule="evenodd" clip-rule="evenodd" d="M589.186 406.27H578.074L582.498 411.674H593.61L589.186 406.27Z" fill="#301D4E"/>
<path fill-rule="evenodd" clip-rule="evenodd" d="M573.65 406.27H562.542L566.962 411.674H578.074L573.65 406.27Z" fill="#301D4E"/>
<path fill-rule="evenodd" clip-rule="evenodd" d="M558.114 406.27H547.006L551.426 411.674H562.538L558.114 406.27Z" fill="#301D4E"/>
<path fill-rule="evenodd" clip-rule="evenodd" d="M543.197 406.27H532.085L535.894 411.674H547.002L543.197 406.27Z" fill="#301D4E"/>
<path fill-rule="evenodd" clip-rule="evenodd" d="M528.849 406.27H517.737L520.977 411.674H532.085L528.849 406.27Z" fill="#301D4E"/>
<path fill-rule="evenodd" clip-rule="evenodd" d="M514.375 406.27H503.263L505.554 411.674H516.666L514.375 406.27Z" fill="#301D4E"/>
<path fill-rule="evenodd" clip-rule="evenodd" d="M500.967 406.27H489.86L492.151 411.674H503.263L500.967 406.27Z" fill="#301D4E"/>
<path fill-rule="evenodd" clip-rule="evenodd" d="M486.936 406.27H475.829L478.12 411.674H489.232L486.936 406.27Z" fill="#301D4E"/>
<path fill-rule="evenodd" clip-rule="evenodd" d="M472.105 406.27H460.993L462.507 411.674H473.614L472.105 406.27Z" fill="#301D4E"/>
<path fill-rule="evenodd" clip-rule="evenodd" d="M256.887 417.815H268.591L260.61 425.694H248.906L256.887 417.815Z" fill="#301D4E"/>
<path fill-rule="evenodd" clip-rule="evenodd" d="M273.25 417.815H284.949L276.969 425.694H265.265L273.25 417.815Z" fill="#301D4E"/>
<path fill-rule="evenodd" clip-rule="evenodd" d="M289.608 417.815H301.308L293.327 425.694H281.628L289.608 417.815Z" fill="#301D4E"/>
<path fill-rule="evenodd" clip-rule="evenodd" d="M305.967 417.815H317.666L309.686 425.694H297.986L305.967 417.815Z" fill="#301D4E"/>
<path fill-rule="evenodd" clip-rule="evenodd" d="M322.33 417.815H334.034L326.053 425.694H314.349L322.33 417.815Z" fill="#301D4E"/>
<path fill-rule="evenodd" clip-rule="evenodd" d="M338.693 417.815H350.392L342.412 425.694H330.708L338.693 417.815Z" fill="#301D4E"/>
<path fill-rule="evenodd" clip-rule="evenodd" d="M354.405 417.815H366.105L358.77 425.694H347.071L354.405 417.815Z" fill="#301D4E"/>
<path fill-rule="evenodd" clip-rule="evenodd" d="M369.516 417.815H381.216L374.483 425.694H362.783L369.516 417.815Z" fill="#301D4E"/>
<path fill-rule="evenodd" clip-rule="evenodd" d="M384.759 417.815H396.463L390.724 425.694H379.024L384.759 417.815Z" fill="#301D4E"/>
<path fill-rule="evenodd" clip-rule="evenodd" d="M629.264 417.815H617.443L622.816 425.694H634.633L629.264 417.815Z" fill="#301D4E"/>
<path fill-rule="evenodd" clip-rule="evenodd" d="M612.738 417.815H600.917L606.285 425.694H618.107L612.738 417.815Z" fill="#301D4E"/>
<path fill-rule="evenodd" clip-rule="evenodd" d="M596.208 417.815H584.387L589.755 425.694H601.577L596.208 417.815Z" fill="#301D4E"/>
<path fill-rule="evenodd" clip-rule="evenodd" d="M579.678 417.815H567.861L573.229 425.694H585.046L579.678 417.815Z" fill="#301D4E"/>
<path fill-rule="evenodd" clip-rule="evenodd" d="M563.157 417.815H551.335L556.704 425.694H568.525L563.157 417.815Z" fill="#301D4E"/>
<path fill-rule="evenodd" clip-rule="evenodd" d="M547.282 417.815H535.46L540.174 425.694H551.995L547.282 417.815Z" fill="#301D4E"/>
<path fill-rule="evenodd" clip-rule="evenodd" d="M532.017 417.815H520.195L524.303 425.694H536.125L532.017 417.815Z" fill="#301D4E"/>
<path fill-rule="evenodd" clip-rule="evenodd" d="M516.616 417.815H504.795L507.895 425.694H519.716L516.616 417.815Z" fill="#301D4E"/>
<path fill-rule="evenodd" clip-rule="evenodd" d="M402.346 417.815H498.73L503.344 425.689H397.028L402.346 417.815Z" fill="#301D4E"/>
<path fill-rule="evenodd" clip-rule="evenodd" d="M394.312 430.324H503.516L516.25 444.614H381.699L394.312 430.324Z" fill="#301D4E"/>
</g>
<defs>
<filter id="filter0_f_106_30" x="0" y="-113" width="783" height="764" filterUnits="userSpaceOnUse" color-interpolation-filters="sRGB">
<feFlood flood-opacity="0" result="BackgroundImageFix"/>
<feBlend mode="normal" in="SourceGraphic" in2="BackgroundImageFix" result="shape"/>
<feGaussianBlur stdDeviation="83" result="effect1_foregroundBlur_106_30"/>
</filter>
<clipPath id="clip0_106_30">
<rect width="487" height="424" fill="white" transform="translate(189 46)"/>
</clipPath>
</defs>
</svg>
