<svg width="1920" height="349" viewBox="0 0 1920 349" fill="none" xmlns="http://www.w3.org/2000/svg">
<path opacity="0.2" d="M389.384 1L-2418.09 628M439.19 1L-2160.32 628M488.996 1L-1902.73 628M538.627 1L-1644.96 628M588.433 1L-1387.2 628M638.238 1L-1129.43 628M688.044 1L-871.662 628M737.85 1L-613.896 628M787.656 1L-356.129 628M837.461 1L-98.3626 628M887.267 1L159.404 628M937.073 1L417.171 628M986.879 1L674.937 628M1036.51 1L932.529 628M1086.32 1L1190.3 628M1136.12 1L1448.06 628M1185.93 1L1705.83 628M1235.73 1L1963.6 628M1285.54 1L2221.36 628M1335.34 1L2479.13 628M1385.15 1L2736.9 628M1434.96 1L2994.66 628M1484.59 1L3252.43 628M1534.39 1L3510.2 628M1584.2 1L3767.79 628M1634 1L4025.55 628M1683.81 1L4283.32 628M1733.62 1L4541.09 628M1749.17 1H373.656M1774.16 6.60085H348.666M1801.07 12.2017H321.754M1830.08 18.6869H292.919M1861.54 25.4669H261.462M1895.62 32.8364H227.385M1932.66 41.0903H190.336M1973.03 49.9337H149.793M2017.6 59.6615H105.404M2066.53 70.2736H56.2976M2120.88 82.0649H2.12244M2181.34 95.33H-58.518M2249.32 110.069H-126.324M2325.87 126.872H-202.867M2413.07 146.032H-290.071M2513.03 167.846H-390.207M2629.07 193.197H-506.245M2765.38 222.676H-642.381M2927.56 258.344H-804.555M3123.81 301.087H-1000.98M3366.37 353.853H-1243.37M3673.42 421.063H-1550.42M4074.84 508.613H-1951.84M4622 628H-2499" stroke="url(#paint0_linear_729_373)" stroke-miterlimit="10"/>
<defs>
<linearGradient id="paint0_linear_729_373" x1="1060.55" y1="47.7083" x2="1060.55" y2="518.141" gradientUnits="userSpaceOnUse">
<stop stop-color="#F9D5DD" stop-opacity="0"/>
<stop offset="0.401042" stop-color="#F9D5DD" stop-opacity="0.35"/>
<stop offset="1" stop-color="#FFEEF1" stop-opacity="0"/>
</linearGradient>
</defs>
</svg>
