<svg width="800" height="515" viewBox="0 0 800 515" fill="none" xmlns="http://www.w3.org/2000/svg">
<g filter="url(#filter0_f_106_28)">
<ellipse cx="391.5" cy="269" rx="225.5" ry="216" fill="#3F1091" fill-opacity="0.4"/>
</g>
<path d="M333.158 120.196L329.954 111.598L321.757 114.048L318.226 105.72L310.102 107.093L306.44 101.292L303.5 103.147L308.4 110.906L316.095 109.6L319.771 118.265L327.831 115.855L330.737 123.648L333.158 120.196Z" fill="#E63114"/>
<path d="M677.638 159.772L669.585 155.368L664.99 162.576L656.866 158.586L651.625 164.935L645.057 162.944L644.047 166.265L652.829 168.932L657.799 162.914L666.251 167.067L670.769 159.973L678.066 163.966L677.638 159.772Z" fill="#E63114"/>
<path d="M465.406 51.4404L461.961 59.9417L469.663 63.6644L466.64 72.1924L473.559 76.657L472.342 83.4072L475.763 84.0221L477.392 74.9961L470.834 70.7655L473.977 61.8933L466.402 58.2341L469.526 50.5281L465.406 51.4404Z" fill="#E63114"/>
<path d="M597.945 116.266L596.163 110.97L604.373 107.163L602.724 99.0966L608.403 95.2436L606.453 92.373L598.855 97.5226L600.42 105.168L591.875 109.128L594.557 117.098L597.945 116.266Z" fill="#E63114"/>
<path d="M235.775 395.417C235.775 395.417 235.484 394 235.428 393.522C235.357 392.961 235.277 391.266 235.277 391.266C235.277 391.266 235.277 385.348 235.712 385.382C236.15 385.415 236.719 386.431 236.846 386.798C236.973 387.163 237.16 387.577 237.287 387.945C237.414 388.309 237.792 388.516 238.26 388.389C238.725 388.262 238.531 386.695 238.357 386.167C237.809 384.519 235.461 380.416 235.23 379.968C234.959 379.44 236.849 369.174 237.214 365.605C237.989 359.781 239.08 353.832 239.163 353.214L249.544 330.287L242.615 323.216C242.615 323.216 230.735 348.499 230.287 349.829C230.073 350.464 229.324 364.101 229.327 364.101C229.381 370.842 229.444 376.78 229.424 377.92C229.424 377.92 228.448 381.315 227.695 383.443C226.946 385.569 227.11 387.828 226.99 388.456C226.973 388.549 226.445 390.695 226.806 393.382C227.117 395.697 227.893 393.345 227.893 393.345C227.893 393.345 228.093 388.94 228.438 389.011C228.705 389.064 228.454 391.467 228.772 394.033C228.852 394.695 228.936 395.347 229.02 395.941C229.234 397.509 230.267 397.816 230.307 396.135C230.321 395.54 230.321 394.555 230.22 393.856C230.113 393.098 230.26 392.366 230.267 391.711C230.281 390.417 230.274 389.472 230.327 389.502C230.398 389.539 230.582 389.281 230.692 389.98C230.822 390.819 230.702 392.666 230.993 393.886C231.157 394.578 231.411 396.042 231.411 396.042C231.411 396.042 232.083 398.367 232.227 398.364C232.996 398.331 232.996 396.523 232.648 395.617C232.729 394.922 232.418 393.392 232.418 393.392C232.418 393.392 232.491 390.143 232.956 390.14C233.337 390.14 234.672 397.936 235.441 397.85C236.07 397.779 235.775 395.413 235.775 395.413V395.417Z" fill="#F7A491"/>
<path d="M245.328 343.567C245.328 343.567 241.021 342.821 238.733 341.973C235.686 340.84 233.68 339.847 233.68 339.847C233.68 339.847 237.024 325.541 241.201 316.853C242.927 313.261 244.669 311.53 247.104 311.115C247.118 311.115 252.235 314.48 252.031 322.591C251.984 324.495 245.328 343.567 245.328 343.567Z" fill="#2B478B"/>
<path d="M258.57 391.647L264.156 442.979C264.156 442.979 261.426 453.833 261.754 456.918C262.082 460.002 267.824 500.457 267.824 500.457L267.584 502.726L267.577 509.426H288.884C288.884 509.426 284.363 507.341 278.035 503.224C277.567 502.92 276.49 501.947 276.226 500.012C274.537 487.544 277.878 445.95 277.878 445.95L280.51 391.811L258.57 391.644V391.647Z" fill="#F7A491"/>
<path d="M241.449 402.444C240.245 402.758 238.392 446.893 237.395 448.851C231.078 461.252 229.576 498.956 229.576 498.956L227.74 504.327L225.773 510.91C225.773 510.91 232.081 512.634 235.392 510.756L235.024 504.266L234.69 498.332L250.629 451.357L259.351 403.444L241.449 402.448V402.444Z" fill="#F7A491"/>
<path d="M273.149 316.946C270.577 313.331 259.968 302.861 258.791 302.881C255.356 302.941 244.079 302.948 241.875 304.101L241.888 306.567C241.949 317.591 243.357 328.572 246.132 339.246C248.066 346.684 249.902 354.628 249.674 357.478L249.728 357.532C256.253 364.011 266.543 363.503 272.51 356.405C272.51 356.405 272.483 348.499 273.403 341.287C274.841 329.989 279.537 325.929 273.149 316.95V316.946Z" fill="#2B478B"/>
<path d="M255.339 291.66C255.339 291.66 255.636 299.015 254.994 301.802C254.352 304.592 253.496 304.803 259.008 305.648C261.175 305.982 263.262 306.48 263.262 306.48C263.262 306.48 262.696 302.387 262.609 300.659C262.469 297.812 263.248 289.02 263.248 289.02L255.339 291.66Z" fill="#F7A491"/>
<path d="M259.531 295.319C260.665 295.95 261.725 296.321 262.702 296.475C262.889 293.003 263.24 289.02 263.24 289.02L255.695 291.539C256.572 293.043 257.816 294.367 259.531 295.322V295.319Z" fill="#F47458"/>
<path d="M257.087 271.061C257.087 271.061 253.937 272.171 252.198 275.639C250.458 279.105 249.81 288.849 256.662 292.662C260.054 294.55 263.97 294.908 265.813 293.247C267.692 291.553 267.465 287.793 267.274 284.665C266.9 278.47 265.539 269.093 257.087 271.065V271.061Z" fill="#F7A491"/>
<path d="M252.037 283.296C252.425 284.923 251.907 286.494 250.877 286.804C249.847 287.115 248.696 286.046 248.308 284.422C247.92 282.794 248.439 281.224 249.469 280.913C250.499 280.602 251.649 281.671 252.037 283.296Z" fill="#F7A491"/>
<path d="M235.023 504.236C232.113 505.57 229 504.748 227.739 504.32L225.719 510.93C225.719 510.93 232.073 512.811 235.381 510.93L235.023 504.236Z" fill="url(#paint0_linear_106_28)"/>
<path d="M237.789 428.657C237.789 428.657 237.795 428.662 237.795 428.657H237.789Z" fill="#F47458"/>
<path d="M267.361 511.09H289.511C290.331 511.013 290.531 510.325 290.247 509.9C289.662 509.025 287.08 508.387 284.174 506.993C279.08 507.545 268.388 503.929 267.585 502.712C267.12 505.149 266.906 510.987 267.361 511.09Z" fill="url(#paint1_linear_106_28)"/>
<path d="M311.852 333.668C312.28 333.074 313.718 330.156 313.718 330.156C313.718 330.156 315.207 325.16 314.899 325.227C314.715 325.267 314.103 325.972 313.377 327.486C312.932 328.409 312.448 330.026 311.986 330.825C311.18 332.225 310.277 332.813 310.501 332.272C310.665 331.877 311.217 331.553 311.702 330.714C312.886 328.669 313.932 325.327 313.478 325.394C313.076 325.454 311.932 327.757 310.665 329.548C310.113 330.33 308.541 331.309 307.558 331.927C307.571 331.486 307.692 331.042 307.759 330.831C307.886 330.44 309.642 328.108 308.956 327.814C308.267 327.52 304.08 332.569 304.08 332.569L302.361 335.496L302.21 335.61H302.204C302.204 335.61 281.314 343.794 280.612 343.573C278.97 343.052 273.354 326.794 273.354 326.794L261.666 328.9C261.499 328.81 273.953 353.1 276.278 354.293C278.318 355.339 300.033 344.034 304.113 341.618C309.732 339.456 311.926 336.89 312.835 335.573C313.324 334.865 315.207 331.794 315.207 331.794C315.207 331.794 315.611 327.536 315.304 327.5C314.274 327.373 313.989 331.386 313.989 331.386C313.989 331.386 312.595 333.281 312.354 333.528C311.752 334.143 311.859 333.672 311.859 333.672L311.852 333.668Z" fill="#F8A492"/>
<path d="M254.113 312.629C252.518 319.386 261.026 334.447 261.026 334.447C261.026 334.447 273.146 328.566 275.277 326.029C275.277 326.029 266.916 312.245 266.397 311.343C265.277 309.398 261.351 305.378 258.705 306.116C257.02 306.587 254.113 312.629 254.113 312.629Z" fill="#2B478B"/>
<path d="M256.041 295.971C256.947 289.772 267.235 277.143 263.262 271.867C260.048 267.596 254.442 268.873 250.871 270.102C234.674 275.67 235.603 296.014 230.493 299.195C221.222 304.963 215.523 308.555 214.854 321.551C214.062 336.963 227.162 344.836 242.914 341.064C251.386 339.035 253.63 336.268 257.028 328.275C258.559 324.673 261.646 313.434 260.804 307.944C260.048 303.028 255.315 300.966 256.044 295.974L256.041 295.971Z" fill="#412E69"/>
<path d="M262.195 284.609C262.195 286.443 261.53 287.93 260.707 287.93C259.884 287.93 259.219 286.443 259.219 284.609C259.219 282.774 259.884 281.287 260.707 281.287C261.53 281.287 262.195 282.774 262.195 284.609Z" fill="#F7A491"/>
<path d="M282.506 425.038L283.265 394.585C283.395 385.98 281.69 377.448 278.275 369.612L272.516 356.406C270.185 357.167 267.991 357.816 265.543 358.1C260.215 358.715 254.978 358.103 249.68 357.478C249.664 357.685 249.64 357.866 249.607 358.016C248.647 362.501 243.292 372.499 241.038 386.163C238.48 401.676 237.52 424.877 237.841 426.699C262.319 427.811 268.152 428.694 282.509 425.038H282.506Z" fill="#301D4E"/>
<path d="M587.417 272.585L605.852 291.008C605.852 291.008 640.958 304.726 644.881 313.154C648.804 321.581 641.349 321.187 633.112 320.011C624.875 318.835 601.534 304.332 601.534 304.332L580.156 279.64L587.414 272.585H587.417Z" fill="#6B42AF"/>
<path d="M641.382 309.458L636.824 307.84L627.998 311.957C627.998 311.957 623.44 315.045 621.232 322.688C619.025 330.33 621.232 376.041 624.911 383.39C628.59 390.738 641.386 309.461 641.386 309.461L641.382 309.458Z" fill="#7A57B5"/>
<path d="M670.331 492.768C670.331 492.768 673.572 494.853 673.84 495.815C674.107 496.774 676.482 507.16 675.592 508.367C674.703 509.57 671.445 508.988 672.709 509.864C673.666 510.525 679.83 511.033 683.766 509.971C684.916 509.66 684.391 499.952 684.559 498.472C684.803 496.323 686.294 491.448 685.388 490.178C684.947 489.56 682.418 488.47 680.144 487.585C677.753 486.652 675.094 484.016 675.094 484.016L670.328 492.771L670.331 492.768Z" fill="#F7A491"/>
<path d="M679.944 487.498C679.944 487.498 678.031 505.924 675.79 507.284C675.195 507.645 672.044 507.915 671.753 509.419C671.747 509.456 671.68 510.963 672.636 511L684.589 510.963C684.589 510.963 684.713 501.904 684.64 498.355C684.64 498.355 686.292 489.295 685.75 488.617C685.211 487.939 679.947 487.498 679.947 487.498H679.944Z" fill="#002A24"/>
<path d="M717.108 492.768C717.108 492.768 720.352 494.853 720.617 495.815C720.884 496.774 723.259 507.16 722.369 508.367C721.479 509.57 718.222 508.988 719.486 509.864C720.443 510.525 726.606 511.033 730.543 509.971C731.693 509.66 731.168 499.952 731.335 498.472C731.58 496.323 733.071 491.448 732.165 490.178C731.723 489.56 729.195 488.47 726.921 487.585C724.53 486.652 721.871 484.016 721.871 484.016L717.102 492.771L717.108 492.768Z" fill="#F7A491"/>
<path d="M658.4 373.014C658.4 373.014 669.329 394.698 671.57 400.52L688.225 442.742L724.954 485.914C724.954 485.914 722.265 492.851 718.198 494.709C718.198 494.709 673.914 458.98 670.269 453.352C664.717 444.774 639.433 392.219 639.433 392.219L634.734 382.11L658.4 373.014Z" fill="#2B478B"/>
<path d="M631.983 372.783L632.157 391.273C632.157 391.273 624.251 451.668 625.783 455.257C629.519 464.012 670.598 493.667 670.598 493.667L676.187 484.066L646.669 451.143L657.849 419.103C660.976 411.661 667.632 397.278 667.461 389.204C667.317 382.287 653.595 366.25 653.595 366.25L631.98 372.783H631.983Z" fill="#2B478B"/>
<path d="M649.719 398.394C660.602 395.925 669.411 392.082 670.314 389.047C670.722 387.674 664.652 373.879 660.187 355.46C658.729 349.445 658.99 343.797 656.655 322.731C656.16 318.263 654.307 308.9 647.384 306.484C644.95 305.638 643.595 305.745 643.595 305.745C643.538 305.755 634.786 305.815 630.779 308.034C629.793 309.374 626.107 316.706 625.127 336.696C624.699 345.425 622.953 373.445 623.314 377.996C623.368 378.671 623.435 379.326 623.518 379.958C625.084 392.055 637.816 401.094 649.719 398.394Z" fill="#7A57B5"/>
<path d="M629.519 323.416C629.519 323.416 629.539 323.416 629.549 323.416C633.984 322.928 645.144 308.318 645.144 308.318L645.121 308.278L638.235 297.381C638.235 297.381 628.091 299.225 630.077 302.313C632.061 305.394 633.174 312.799 633.174 312.799C633.141 312.883 633.098 312.986 633.034 313.107C632.338 314.621 630.064 319.098 629.516 323.416H629.519Z" fill="#F7A491"/>
<path d="M630.085 302.31C628.102 299.225 638.246 297.381 638.246 297.381L638.817 298.286C638.831 299.055 638.747 299.753 638.533 300.355C637.436 303.446 634.801 306.163 632.068 307.473C631.563 305.564 630.898 303.573 630.085 302.306V302.31Z" fill="#FE875E"/>
<path d="M632.511 280.148C632.728 279.94 640.42 292.582 638.574 297.788C636.728 302.995 630.511 307.145 626.822 305.287C622.739 303.232 616.568 288.732 620.287 282.584C624.009 276.435 632.511 280.148 632.511 280.148Z" fill="#F7A491"/>
<path d="M621.369 274.477C625.898 273.504 633.985 274.841 638.536 278.042C644.135 281.979 644.319 288.963 641.797 293.528C639.275 298.093 640.794 301.454 640.794 301.454C640.794 301.454 632.924 300.96 631.332 295.61C630.664 293.364 631.496 291.844 629.985 290.577C628.821 289.601 627.841 286.764 626.687 284.485C626.687 284.485 621.61 281.788 619.677 284.007C619.015 284.766 615.56 275.723 621.369 274.477Z" fill="#2C3A64"/>
<path d="M629.19 291.556C629.879 293.207 631.217 294.223 632.177 293.822C633.137 293.421 633.357 291.76 632.668 290.109C631.979 288.458 630.642 287.443 629.682 287.844C628.722 288.245 628.501 289.905 629.19 291.556Z" fill="#F7A491"/>
<path d="M726.772 487.521C726.772 487.521 724.806 505.924 722.565 507.287C721.97 507.648 718.819 507.919 718.528 509.423C718.522 509.459 718.431 511.013 719.411 510.99L731.351 510.966C731.351 510.966 731.488 501.907 731.411 498.358C731.411 498.358 733.063 489.299 732.522 488.62C731.983 487.942 726.769 487.521 726.769 487.521H726.772Z" fill="#002A24"/>
<path d="M462.764 402.468C453.276 382.635 450.667 353.034 461.011 329.555C478.446 289.925 526.418 273.755 522.886 228.842C521.997 217.531 516.96 208.431 509.542 202.576C490.017 187.171 458.6 195.325 436.175 206.082C421.855 212.959 408.55 222.703 396.276 235.328L390.039 156.006C416.955 136.922 449.523 126.943 482.031 124.39C548.642 119.16 600.083 144.123 605.317 210.7C610.092 271.419 569.026 298.316 541.478 328.673C526.187 345.522 522.733 358.501 523.913 373.535C524.525 381.308 527.442 390.905 532.13 397.021L462.764 402.468ZM510.592 510.94C445.844 516.023 438.346 429.108 503.753 423.972C568.18 418.912 575.093 505.874 510.592 510.94Z" fill="#E63114"/>
<path d="M577.545 276.595C577.424 276.047 577.869 276.482 577.047 272.194C576.809 270.958 576.037 269.655 575.461 268.96C575.15 268.585 574.438 267.94 573.993 267.676C573.251 267.235 572.672 267.954 572.819 268.361C572.966 268.769 573.732 270.176 573.879 270.584C574.027 270.991 574.093 271.991 573.756 272.325C573.418 272.659 568.053 266.513 567.722 265.975C567.438 265.518 566.803 263.519 566.803 263.519C566.803 263.519 566.334 262.066 565.762 262.437C565.388 262.681 564.98 263.877 566.053 266.236C566.993 268.298 568.294 269.945 568.144 270.066C567.759 270.383 565.428 267.596 565.428 267.596C565.428 267.596 564.615 266.042 564.063 265.491C563.716 264.458 563.084 263.175 562.425 263.676C562.301 263.77 562.742 265.969 562.742 265.969C562.742 265.969 563.555 267.422 563.9 268.138C564.512 269.401 565.9 270.931 566.378 271.753C566.776 272.438 566.388 272.278 566.358 272.358C566.334 272.422 565.732 271.653 564.816 270.534C564.354 269.969 563.722 269.431 563.281 268.692C562.873 268.011 562.187 267.148 561.759 266.64C560.552 265.2 559.91 266.179 560.829 267.696C561.181 268.275 561.565 268.899 561.956 269.534C563.485 271.997 565.371 273.919 565.187 274.153C564.95 274.453 561.709 270.744 561.709 270.744C561.709 270.744 559.425 269.224 560.783 271.463C562.361 274.059 564.063 275.723 564.144 275.79C564.682 276.258 566.117 278.463 568.224 279.8C570.331 281.14 573.746 283.162 573.746 283.162C574.137 283.636 575.137 285.174 576.521 287.349L581.628 281.207C579.829 279.339 577.615 276.976 577.531 276.592L577.545 276.595Z" fill="#F8A492"/>
<path d="M573.516 285.254L580.576 279.082L604.823 302.988C604.823 302.988 642.357 306.276 642.458 306.303L643.959 306.774C657.574 311.473 651.969 322.574 649.347 324.295C643.237 328.298 609.298 325.899 598.425 319.159C589.472 313.611 573.516 285.257 573.516 285.257V285.254Z" fill="#7A57B5"/>
<path d="M320.831 319.536C321.102 320.529 321.256 320.86 321.601 321.528C323.818 325.832 328.965 331.978 328.965 331.978L332.945 322.414C332.945 322.414 332.296 319.409 331.169 315.119C327.323 316.188 323.661 316.81 320.828 319.54L320.831 319.536Z" fill="#F8A492"/>
<path d="M343.655 311.239C343.655 311.239 321.451 321.434 320.732 321.241C320.27 321.114 311.625 305.685 311.531 291.172C311.488 284.468 318.016 276.408 325.297 278.002C328.963 278.804 328.906 279.894 334.33 288.298C339.755 296.702 343.651 311.239 343.651 311.239H343.655Z" fill="#7A57B5"/>
<path d="M362.61 494.048C362.61 494.048 362.082 503.348 362.082 503.364C361.888 504.544 361.125 507.461 361.125 508.534C361.125 512.567 379.078 505.112 375.055 503.324C374.69 503.164 372.784 501.941 372.663 500.567C372.479 498.452 372.011 494.175 372.011 494.175L362.61 494.044V494.048Z" fill="#F7A491"/>
<path d="M375.014 503.287C375.014 503.287 370.8 504.52 368.64 504.828C366.482 505.135 363.633 502.539 362.108 503.24C360.426 504.012 360.493 510.96 360.493 510.96C360.493 510.96 383.098 512.938 389.455 510.893C391.974 510.081 383.633 506.158 375.014 503.287Z" fill="#473B1E"/>
<path d="M325.883 494.048C325.883 494.048 325.355 503.348 325.355 503.364C325.161 504.544 324.398 507.461 324.398 508.534C324.398 512.567 342.351 505.112 338.328 503.324C337.963 503.164 335.489 501.025 335.372 499.655C335.188 497.54 335.285 494.178 335.285 494.178L325.887 494.048H325.883Z" fill="#F7A491"/>
<path d="M338.28 503.287C338.28 503.287 334.066 504.52 331.906 504.828C329.745 505.135 326.899 502.539 325.374 503.24C323.692 504.012 323.625 510.96 323.625 510.96C323.625 510.96 346.334 513.266 352.718 510.893C355.196 509.971 346.896 506.158 338.277 503.287H338.28Z" fill="#473B1E"/>
<path d="M331.367 324.689L347.18 301.067C347.247 300.859 347.39 300.435 347.608 299.79C348.404 297.448 350.063 292.569 351.504 287.716L351.521 287.666C351.976 285.969 352.935 283.011 353.865 280.151C354.899 276.969 356.183 273.023 356.226 272.348C356.186 272.234 356.113 272.027 356.012 271.753C355.434 270.149 354.648 266.326 354.37 264.665C354.193 263.606 354.016 261.036 355.196 261.036C357.052 261.036 356.166 263.606 357.022 265.21C357.337 264.137 357.972 262.009 358.307 259.857L358.618 254.834C358.678 254.456 358.3 251.686 359.601 251.686H359.664C360.832 251.78 360.808 254.724 361.293 259.706C361.447 259.131 361.601 258.443 361.718 257.805C361.704 257.464 361.939 255.967 362.113 255.175C361.878 253.788 362.016 251.596 363.4 251.803C364.096 251.907 364.039 254.961 364.039 254.961C364.032 255.382 363.992 258.61 364.012 259.248C364.156 258.166 364.711 253.541 365.798 253.541C366.701 253.541 366.771 254.784 366.755 255.77C366.745 256.351 366.176 261.36 366.146 261.945C366.571 261.187 367.076 256.772 367.494 256.772C369.253 256.772 368.617 263.048 367.972 264.685C367.912 264.852 367.845 265.18 367.771 265.561C367.551 266.68 367.183 268.552 366.263 270.229C365.159 272.244 363.634 275.446 363.403 275.937C363.233 276.936 362.704 280.535 362.039 285.06C361.755 286.998 361.444 289.12 361.116 291.319H361.099C361.039 291.793 360.711 293.307 359.46 298.985C357.748 306.754 357.571 307.092 357.494 307.235C356.751 308.639 339.702 333.328 338.976 334.38L338.548 334.998L331.367 324.689Z" fill="#F7A491"/>
<path d="M360.779 269.594C360.779 269.594 359.495 266.095 357.211 266.089C357.211 266.089 358.488 265.597 359.582 266.523C360.676 267.449 360.779 269.598 360.779 269.598V269.594Z" fill="#F47458"/>
<path d="M327.552 262.831L325.516 276.559C325.516 276.559 333.271 283.199 337.793 281.798C341.586 280.622 338.984 275.332 338.984 275.332C338.984 275.332 336.964 268.004 337.582 264.161C338.201 260.318 327.549 262.827 327.549 262.827L327.552 262.831Z" fill="#F7A491"/>
<path d="M329.009 266.981C330.952 267.96 334.798 269.297 337.788 269.621C337.501 267.7 337.34 265.668 337.581 264.168C337.868 262.393 335.751 261.975 333.39 262.036C330.3 262.32 327.548 262.831 327.548 262.831L327.156 265.471C327.745 266.132 328.36 266.657 329.009 266.981Z" fill="#FE875E"/>
<path d="M317.763 246.995C317.442 246.995 320.83 262.333 326.071 264.97C331.311 267.606 339.127 266.233 340.592 262.102C342.214 257.534 336.298 241.888 328.927 239.9C321.556 237.912 317.763 246.995 317.763 246.995Z" fill="#F7A491"/>
<path d="M323.826 232.906C319.638 235.479 317.719 239.298 317.073 240.862C315.11 241.858 312.732 244.007 311.592 249.801C310.187 256.926 315.177 262.416 320.465 264.071C325.752 265.721 326.645 269.454 326.645 269.454L327.167 265.437C327.167 265.437 325.99 261.942 324.22 260.191C322.451 258.44 325.06 255.89 325.287 253.812C325.464 252.211 324.357 249.1 324.598 246.47C324.598 246.47 327.538 241.721 330.434 240.548C335.374 238.547 329.193 229.607 323.826 232.909V232.906Z" fill="#2C3A64"/>
<path d="M326.053 256.478C326.738 258.249 326.457 260.007 325.427 260.405C324.397 260.802 323.006 259.69 322.32 257.918C321.635 256.147 321.916 254.39 322.946 253.992C323.976 253.594 325.367 254.707 326.053 256.478Z" fill="#F7A491"/>
<path d="M345.578 325.067L376.079 319.764C376.079 319.764 372.608 310.447 371.37 310.447C370.133 310.447 348.307 320.606 348.307 320.606L346.571 324.322L345.578 325.064V325.067Z" fill="#F8A492"/>
<path d="M329.947 347.369C329.947 347.369 326.904 363.055 328.145 374.952C329.385 386.845 329.482 429.098 329.482 429.098L324.75 496.701L335.977 496.961C335.977 496.961 349.291 429.392 349.044 431.126C348.796 432.861 353.509 383.55 353.509 383.55L337.636 345.886L329.947 347.373V347.369Z" fill="#2B478B"/>
<path d="M332.923 346.624C332.923 346.624 330.94 360.75 333.418 366.945C335.9 373.141 354.689 433.923 354.936 438.879C355.184 443.835 361.434 498.612 361.434 498.612L374.491 498.221L377.314 437.319L371.401 360.773L365.658 341.421L332.923 346.624Z" fill="#2B478B"/>
<path d="M325.516 276.559C325.516 276.559 328.736 278.811 331.736 278.55C334.74 278.29 338.984 275.336 338.984 275.336L338.395 273.204C338.395 273.204 330.626 271.997 330.432 272.128C330.235 272.258 325.516 276.562 325.516 276.562V276.559Z" fill="#F7A491"/>
<path d="M359.828 309.989C359.828 309.989 371.366 321.598 376.574 319.617C381.781 317.635 383.938 310.858 371.229 300.943C359.858 292.071 359.828 309.989 359.828 309.989Z" fill="#F8A492"/>
<path d="M367.647 324.325C365.935 314.384 353.51 283.439 352.52 277.742C352.039 274.968 345.337 274.908 338.955 275.269C332.213 275.65 325.517 276.559 325.517 276.559C325.517 276.559 319.551 277.605 316.926 280.228C314.3 282.851 313.601 290.106 317.377 303.881C320.357 314.751 324.049 320.723 325.879 328.643C326.25 331.299 326.568 333.919 326.986 336.98C327.658 348.823 326.979 364.466 326.979 364.466C326.979 364.466 359.467 371.651 371.617 360.75C371.617 360.75 369.406 334.511 367.651 324.325H367.647Z" fill="#7A57B5"/>
<path d="M375.928 302.945C375.928 302.945 363.179 314.166 362.436 314.166C361.958 314.166 344.246 300.271 340.156 288.856C337.895 282.547 342.637 275.486 348.052 275.509C351.804 275.526 353.473 276.555 360.914 283.249C368.356 289.939 375.928 302.945 375.928 302.945Z" fill="#7A57B5"/>
<path d="M242.233 183.662H298.218C308.298 183.662 316.482 191.839 316.482 201.911V213.497C316.482 223.569 308.298 231.746 298.218 231.746H242.233C232.153 231.746 223.969 223.569 223.969 213.497V201.911C223.969 191.839 232.153 183.662 242.233 183.662Z" fill="#E63114"/>
<path d="M305.5 213.594L328.286 223.796L313.032 202.463L305.5 213.594Z" fill="#E63114"/>
<path d="M255.98 207.698C255.98 210.294 254.194 212.397 251.99 212.397C249.786 212.397 248 210.294 248 207.698C248 205.103 249.786 203 251.99 203C254.194 203 255.98 205.103 255.98 207.698Z" fill="white"/>
<path d="M274.55 207.698C274.55 210.294 272.764 212.397 270.56 212.397C268.356 212.397 266.57 210.294 266.57 207.698C266.57 205.103 268.356 203 270.56 203C272.764 203 274.55 205.103 274.55 207.698Z" fill="white"/>
<path d="M293.113 207.698C293.113 210.294 291.327 212.397 289.123 212.397C286.919 212.397 285.133 210.294 285.133 207.698C285.133 205.103 286.919 203 289.123 203C291.327 203 293.113 205.103 293.113 207.698Z" fill="white"/>
<defs>
<filter id="filter0_f_106_28" x="0" y="-113" width="783" height="764" filterUnits="userSpaceOnUse" color-interpolation-filters="sRGB">
<feFlood flood-opacity="0" result="BackgroundImageFix"/>
<feBlend mode="normal" in="SourceGraphic" in2="BackgroundImageFix" result="shape"/>
<feGaussianBlur stdDeviation="83" result="effect1_foregroundBlur_106_28"/>
</filter>
<linearGradient id="paint0_linear_106_28" x1="225.719" y1="508.002" x2="235.381" y2="508.002" gradientUnits="userSpaceOnUse">
<stop stop-color="#FB9A2B"/>
<stop offset="1" stop-color="#E65925"/>
</linearGradient>
<linearGradient id="paint1_linear_106_28" x1="267.107" y1="506.9" x2="290.367" y2="506.9" gradientUnits="userSpaceOnUse">
<stop stop-color="#FB9A2B"/>
<stop offset="1" stop-color="#E65925"/>
</linearGradient>
</defs>
</svg>
