<svg width="793" height="515" viewBox="0 0 793 515" fill="none" xmlns="http://www.w3.org/2000/svg">
<g filter="url(#filter0_f_106_29)">
<ellipse cx="391.5" cy="269" rx="225.5" ry="216" fill="#3F1091" fill-opacity="0.4"/>
</g>
<path d="M403.176 480.42H255.531V513.759H403.176V480.42Z" fill="#341C58"/>
<path d="M357.641 480.42H210V513.762H357.641V480.42Z" fill="#4E2F7E"/>
<path d="M461.25 513.751H571.188V360.089H461.25V513.751Z" fill="#B32C16"/>
<path d="M427.352 513.751H537.289V360.089H427.352V513.751Z" fill="#E63114"/>
<path d="M537.289 360.089L571.187 383.161V360.089H537.289Z" fill="#B22C16"/>
<path d="M635.379 143.15C633.679 142.89 628.557 147.625 628.557 147.625C617.622 148.89 601.635 151.793 595.88 152.9C591.797 153.686 580.825 149.946 570.106 145.651C557.361 140.532 544.972 134.646 544.972 134.646C537.897 134.281 529.865 147.19 544.211 155.394C546.405 156.648 554.627 158.786 564.103 160.735C577.173 163.429 592.619 165.766 597.869 164.947C603.975 163.989 621.267 157.668 631.537 152.827H631.562L631.675 152.776C632.293 152.487 634.809 151.365 636.49 151.464C638.417 151.581 642.705 148.056 642.837 147.113C642.969 146.17 637.083 143.406 635.379 143.15Z" fill="#F0C29F"/>
<path d="M622.024 305.722L615.995 306.947C615.995 306.947 588.441 275.988 584.189 262.958C581.915 256.012 567.371 252.989 552.163 249.066C538.932 245.644 525.204 241.524 518.649 233.481C504.555 216.203 527.496 194.969 527.496 194.969C527.496 194.969 551.892 209.469 572.936 224.443C587.644 234.914 600.721 245.615 602.688 251.764C607.481 266.709 617.626 295.138 622.024 305.722Z" fill="#2B478B"/>
<path d="M613.954 315.936H617.343C618.476 315.757 619.314 315.428 620.476 315.278C622.246 315.044 623.057 315.768 623.218 315.936L623.251 315.969H637.637C638.003 315.454 637.637 314.255 637.312 313.373C637.199 313.078 637.018 312.813 636.784 312.6C636.551 312.387 636.271 312.231 635.966 312.145C634.442 311.703 631.433 311.308 628.676 308.815C627.13 307.414 621.196 303.667 621.196 303.667H621.164C621.032 303.667 620.414 303.857 617.712 306.138C616.319 307.312 613.939 304.475 613.939 304.475C613.613 304.774 613.348 305.134 613.161 305.535C612.828 306.215 612.72 306.984 612.854 307.729C613.066 309.023 612.375 311.432 611.823 313.063C611.486 314.05 611.205 314.752 611.205 314.752C611.205 314.752 611.04 315.571 613.954 315.936Z" fill="#233862"/>
<path d="M572.936 224.435L552.163 249.058C538.932 245.636 525.204 241.516 518.649 233.473C504.555 216.195 527.496 194.961 527.496 194.961C527.496 194.961 551.892 209.461 572.936 224.435Z" fill="#1E3D70"/>
<path d="M554.072 211.578C554.072 211.578 552.398 216.857 549.685 224.801C546.237 234.848 541.104 249.15 535.536 262.414C534.312 265.338 533.065 268.197 531.811 270.954C527.183 281.161 522.441 289.91 518.284 294.352C510.782 302.344 492.55 353.735 492.55 353.735L488.006 352.477C488.006 352.477 481.67 308.606 504.092 283.625C504.344 283.375 504.503 283.046 504.545 282.693C504.845 278.997 505.912 262.446 508.238 245.673C508.808 241.557 509.455 237.433 510.179 233.477L510.321 232.724C513.732 214.444 517.005 206.317 521.223 202.226L552.248 211.059L554.072 211.578Z" fill="#2B478B"/>
<path d="M487.465 360.052H490.854C491.988 359.873 492.825 359.548 493.988 359.394C495.757 359.164 496.569 359.888 496.73 360.052L496.762 360.089H511.149C511.514 359.57 511.149 358.374 510.823 357.493C510.71 357.198 510.529 356.932 510.296 356.719C510.062 356.505 509.782 356.348 509.478 356.261C507.95 355.819 504.944 355.428 502.188 352.934C500.638 351.534 494.704 347.783 494.704 347.783H494.675C494.543 347.783 493.925 347.977 491.224 350.255C489.831 351.432 487.451 348.595 487.451 348.595C487.125 348.893 486.86 349.252 486.672 349.651C486.34 350.332 486.231 351.099 486.361 351.845C486.577 353.143 485.886 355.552 485.334 357.183C484.998 358.17 484.713 358.868 484.713 358.868C484.713 358.868 484.552 359.691 487.465 360.052Z" fill="#233862"/>
<path d="M494.123 151.895C494.123 151.895 488.935 164.596 482.947 176.956C477.913 187.35 472.319 197.503 468.773 199.667C463.772 202.723 449.996 211.34 441.057 217.767C441.057 217.767 434.085 217.716 433.014 219.051C431.943 220.385 429.431 226.384 430.163 226.991C430.894 227.598 436.436 227.317 437.785 225.938C438.959 224.732 441.573 223.869 442.223 223.664L442.344 223.628H442.373C453.231 220.286 470.268 213.325 475.423 209.922C479.865 206.997 489.707 194.867 497.556 184.078C503.248 176.258 507.891 169.136 508.666 166.738C513.741 151.003 499.113 146.868 494.123 151.895Z" fill="#FFB27D"/>
<path d="M521.259 102.098C520.686 101.263 520.066 100.461 519.402 99.6958C520.18 99.7348 520.958 99.6179 521.69 99.3521C523.518 98.599 524.345 92.8117 524.07 91.097C523.796 89.3824 521.266 84.4213 518.144 83.9241C515.022 83.4269 511.797 86.8818 511.797 86.8818C512.375 84.3811 517.647 82.937 517.647 82.937C506.77 84.9441 507.326 92.1975 507.41 92.8665C497.455 89.3203 491.609 108.072 491.609 108.072L517.402 123.269C517.402 123.269 517.468 119.131 519.928 119.398C523.763 119.825 526.959 110.404 521.259 102.098Z" fill="#2C3A64"/>
<path d="M522.915 141.442C516.996 144.232 509.143 140.214 509.183 140.17C509.691 139.666 509.512 138.145 509.048 136.149C508.584 134.076 507.483 131.242 505.454 127.861C505.034 127.129 504.61 126.424 504.102 125.667L504.778 125.415L516.276 120.805C516.276 120.805 518.137 124.146 520.082 127.188C521.73 129.725 523.463 132.006 524.224 131.941C524.268 131.889 531.876 137.128 522.915 141.442Z" fill="#FFB27D"/>
<path d="M516.275 121.953C515.979 126.055 514.586 133.451 509.047 136.16C508.583 134.087 507.482 131.254 505.453 127.872L516.275 121.953Z" fill="#D7A179"/>
<path d="M504.771 132.541C504.771 132.541 519.761 126.64 515.922 117.376C512.083 108.112 511.465 101.107 501.748 104.482C492.03 107.856 491.639 112.159 492.162 115.555C492.685 118.952 500.779 133.835 504.771 132.541Z" fill="#FFB27D"/>
<path d="M510.369 115.262C517.279 114.286 519.297 111.493 519.297 111.493C515.099 110.063 511.527 107.22 509.192 103.45C509.192 103.45 501.423 100.829 495.665 105.208C495.298 105.685 495.048 106.241 494.934 106.832C493.614 106.4 491.643 106.514 490.485 110.243C488.766 115.844 494.872 121.942 494.872 121.942C496.356 121.525 494.682 116.531 494.448 113.866C494.276 111.906 495.336 109.395 495.91 108.206C496.641 109.153 503.953 118.319 512.837 118.684C509.637 117.493 506.615 115.871 503.854 113.862C505.993 114.908 508.256 115.558 510.369 115.262Z" fill="#2C3A64"/>
<path d="M551.412 160.53C551.284 160.084 551.149 159.62 551.006 159.144C552.905 155.611 554.182 151.777 554.783 147.811C555.799 140.96 554.052 136.734 554.052 136.734C554.052 136.734 543.669 131.228 539.084 130.519C539.065 130.515 539.045 130.515 539.026 130.519L538.843 130.5C534.215 129.861 524.198 131.908 524.198 131.908C524.198 131.908 526.128 137.052 520.677 140.485C515.226 143.918 509.398 139.604 509.398 139.604L508.846 139.969C508.846 139.969 494.5 149.434 493.214 151.599C491.927 153.763 486.406 164.475 486.406 164.475C486.406 164.475 488.157 173.465 507.537 174.218C509.131 178.082 510.353 181.851 510.747 184.996C512.287 197.203 510.499 206.829 512.294 213.954C514.089 221.08 546.426 217.014 552.282 215.647C558.139 214.28 556.819 208.021 557.273 201.944C557.85 194.336 553.321 167.264 551.412 160.53Z" fill="#7A57B5"/>
<path d="M554.784 147.826C554.178 151.806 552.892 155.652 550.981 159.196C550.473 156.955 548.404 148.755 545.062 145.033C545.077 145.033 550.685 145.541 554.784 147.826Z" fill="#7A57B5"/>
<path d="M423.107 227.822C423.107 227.822 429.132 220.51 430.419 219.658C431.706 218.806 437.405 217.282 437.731 217.585C438.056 217.889 438.071 218.316 437.365 218.953C436.659 219.589 433.972 221.146 434.353 221.325C434.733 221.504 442.856 217.457 444.03 218.817C445.203 220.177 443.364 225.789 440.235 228.48C437.105 231.171 427.768 232.319 427.183 232.692C422.229 235.88 423.107 227.822 423.107 227.822Z" fill="#F0C29F"/>
<path d="M317.039 210.961C317.039 210.961 325.715 221.23 336.719 216.934C336.719 216.934 339.088 211.202 339.121 206.972C339.121 206.453 339.121 205.948 339.139 205.469C339.198 200.717 339.358 198.037 339.358 198.037C338.858 197.825 322.508 191.116 322.541 191.672C322.79 204.548 317.039 210.961 317.039 210.961Z" fill="#FFB27D"/>
<path d="M324.151 194.731C325.727 197.656 331.138 203.37 339.141 205.458C339.199 200.705 339.36 198.025 339.36 198.025C338.892 197.912 323.683 193.88 324.151 194.731Z" fill="#D7A179"/>
<path d="M342.789 197.543C342.789 197.543 324.403 201.864 321.888 190.374C319.373 178.883 315.307 171.703 326.937 168.457C338.566 165.21 341.816 169.096 343.59 172.727C345.363 176.357 347.505 196.121 342.789 197.543Z" fill="#FFB27D"/>
<path d="M322.513 193.507C322.261 193.664 318.305 194.882 310.814 179.958C309.637 177.615 308.836 172.548 311.578 168.069C314.32 163.591 324.041 160.07 332.117 158.538C340.193 157.006 342.131 161.547 344.032 166.117C346.028 170.91 351.794 174.858 351.794 174.858C344.847 178.748 336.439 173.184 333.536 174.098C330.633 175.012 329.606 179.582 329.386 181.062C329.167 182.543 328.834 183.749 325.178 182.437C321.522 181.124 323.53 187.617 324.111 188.857C324.111 188.857 324.619 192.173 322.513 193.507Z" fill="#412E69"/>
<path d="M275.155 480.42H264.023C261.691 480.42 259.095 478.051 258.448 473.715C257.801 469.379 253.001 467.014 251.962 463.479C250.924 459.943 256.254 454.92 256.254 454.92L257.143 453.761L258.068 452.555L266.886 454.657C266.886 454.657 267.105 456.785 267.251 459.494C267.346 461.453 267.398 463.716 267.288 465.709C267.028 470.443 268.593 475.536 272.743 476.457C276.892 477.378 275.155 480.42 275.155 480.42Z" fill="#2C3A64"/>
<path d="M352.651 480.526H323.155C322.94 480.491 322.73 480.428 322.53 480.34C320.56 479.323 321.177 471.566 321.411 469.16C321.459 468.714 321.492 468.454 321.492 468.454C321.492 468.454 331.867 459.91 333.293 466.451C333.34 466.656 333.391 466.857 333.447 467.054C335.249 473.174 343.299 475.956 347.953 476.731C351.492 477.335 352.403 479.462 352.651 480.526Z" fill="#2C3A64"/>
<path d="M346.706 309.893C346.706 309.893 345.131 329.547 343.266 353.179C340.751 385.286 337.72 424.718 337.417 432.191C336.898 445.162 334.821 465.913 334.821 465.913C334.821 465.913 329.893 470.842 320.033 468.765C320.033 468.765 311.259 439.152 308.74 407.802C308.7 407.287 308.659 406.771 308.623 406.252C306.287 374.347 302.656 307.177 302.656 307.177L346.706 309.893Z" fill="#301D4E"/>
<path d="M346.715 309.893C346.715 309.893 345.139 329.547 343.275 353.179L308.755 407.802C308.715 407.287 308.675 406.771 308.638 406.252C306.302 374.347 302.672 307.177 302.672 307.177L346.715 309.893Z" fill="#22113C"/>
<path d="M339.511 312.222C339.511 312.222 311.097 383.425 292.43 416.887C273.762 450.35 267.935 459.687 267.935 459.687C267.935 459.687 257.219 455.399 256.258 452.474C256.258 452.474 263.398 387.874 275.905 372.128C282.972 363.229 291.26 336.523 291.665 327.186C292.071 317.848 294.192 299.368 294.192 299.368L339.511 312.222Z" fill="#301D4E"/>
<path d="M274.481 300.362C274.481 300.362 273.749 309.254 273.205 310.621C272.66 311.988 269.077 316.218 268.66 316.16C268.244 316.101 267.995 315.765 268.207 314.902C268.419 314.039 269.669 311.378 269.264 311.447C268.858 311.517 264.759 319.015 263.122 318.591C261.484 318.167 259.886 312.84 260.859 309.085C261.831 305.331 268.445 299.408 268.697 298.801C270.839 293.643 274.481 300.362 274.481 300.362Z" fill="#F0C29F"/>
<path d="M271.434 302.618C274.578 303.627 275.09 303.4 275.09 303.4C275.09 303.4 290.39 275.539 291.94 272.991C293.49 270.442 324.431 241.747 324.431 241.747L316.479 212.101C316.479 212.101 281.283 257.669 277.467 264.194C271.189 274.998 267.508 300.092 267.508 300.092C268.578 301.257 269.931 302.127 271.434 302.618Z" fill="#1E3D70"/>
<path d="M352.711 253.387C352.602 259.478 352.247 266.322 351.768 273.276L351.68 274.511C351.377 278.818 351.044 283.136 350.668 287.344C350.514 289.033 350.352 290.697 350.182 292.338L350.156 292.561C350.156 293.175 350.068 293.836 350.002 294.447C348.449 310.211 346.822 322.667 346.522 322.861C346.169 323.107 345.739 323.216 345.312 323.168C341.177 322.649 328.838 323.588 318.741 321.391C310.219 319.592 302.877 316.185 295.101 311.59C294.07 310.979 291.716 309.363 291.91 308.153C292.096 306.826 292.443 304.91 292.886 302.497C294.418 294.111 297.065 279.684 297.964 262.801C298.139 259.657 298.395 256.55 298.728 253.497C299.506 245.997 300.883 238.571 302.848 231.291C306.31 218.824 311.399 209.275 317.783 205.539C318.616 205.071 323.106 207.926 327.226 210.573C330.699 212.796 334.824 213.774 338.925 213.348L342.354 217.142C346.526 221.954 350.953 228.366 352.156 237.506C352.247 238.182 352.324 238.899 352.39 239.663C352.731 244.229 352.838 248.81 352.711 253.387Z" fill="#2A4E96"/>
<path d="M352.708 253.388C352.598 259.478 352.243 266.322 351.765 273.276L351.677 274.512C328.06 259.727 324.422 232.677 324.422 232.677C336.04 233.185 345.261 235.857 352.386 239.678C352.727 244.239 352.834 248.815 352.708 253.388Z" fill="#1E3D70"/>
<path d="M426.698 228.549C425.48 225.258 423.587 225.47 423.587 225.47C423.587 225.47 388.49 234.223 385.316 234.61C382.143 234.998 347.503 221.083 347.503 221.083C347.503 221.083 333.859 214.963 327.469 220.553C321.915 225.412 321.663 231.565 322.961 236.734C323.73 239.744 325.387 242.451 327.717 244.505C330.047 246.558 332.942 247.862 336.024 248.247C350.165 250.049 378.381 253.438 384.282 252.616C397.443 250.788 427.268 233.568 427.268 233.568C427.467 231.874 427.271 230.156 426.698 228.549Z" fill="#2A4E96"/>
<path d="M772.975 292.915C772.975 292.915 777.852 297.438 776.901 300.651C775.951 303.865 771.545 306.004 770.949 309.93C770.354 313.856 767.977 315.999 765.831 315.999H755.62C755.62 315.999 754.044 313.235 757.85 312.405C761.656 311.575 763.093 306.958 762.855 302.673C762.618 298.388 763.221 292.678 763.221 292.678L771.311 290.773L772.975 292.915Z" fill="#2C3A64"/>
<path d="M712.165 315.465C711.672 315.714 709.931 315.886 707.544 315.999H684.453C684.53 315.312 685.067 312.866 688.84 312.256C693.107 311.561 700.495 309.082 702.14 303.628C702.199 303.451 702.247 303.272 702.287 303.09C703.592 297.263 713.112 304.874 713.112 304.874C713.112 304.874 713.141 305.108 713.181 305.507C713.415 307.649 713.993 314.566 712.165 315.465Z" fill="#2C3A64"/>
<path d="M689.977 159.514C689.977 159.514 691.439 177.552 693.121 199.236C695.431 228.688 698.21 264.867 698.484 271.722C698.959 283.625 700.864 302.662 700.864 302.662C700.864 302.662 705.383 307.184 714.431 305.279C714.431 305.279 722.474 278.101 724.792 249.344L724.902 247.922C727.04 218.649 730.386 157.01 730.386 157.01L689.977 159.514Z" fill="#35488B"/>
<path d="M689.977 159.514C689.977 159.514 691.439 177.553 693.121 199.236L724.792 249.348L724.902 247.926C727.04 218.653 730.386 157.014 730.386 157.014L689.977 159.514Z" fill="#2C3A64"/>
<path d="M696.57 161.657C696.57 161.657 722.63 226.984 739.765 257.683C756.9 288.382 762.238 296.951 762.238 296.951C762.238 296.951 772.058 293.025 772.95 290.345C772.95 290.345 766.398 231.079 754.923 216.631C748.437 208.467 740.822 183.965 740.463 175.399C740.105 166.833 738.142 149.874 738.142 149.874L696.57 161.657Z" fill="#35488B"/>
<path d="M616.202 126.223C616.202 126.223 609.135 124.608 607.943 124.688C606.751 124.768 602.595 126.516 602.54 126.849C602.485 127.181 602.679 127.463 603.399 127.51C604.119 127.558 606.484 127.254 606.324 127.54C606.163 127.825 599.355 129.166 599.282 130.541C599.209 131.916 602.938 134.46 606.097 134.632C609.256 134.804 615.456 131.137 615.99 131.089C620.512 130.695 616.202 126.223 616.202 126.223Z" fill="#FFB27D"/>
<path d="M613.178 128.019C612.161 124.791 612.399 124.275 612.399 124.275C612.399 124.275 641.054 108.785 643.676 107.213C646.297 105.641 675.91 74.1304 675.91 74.1304L706.254 82.4769C706.254 82.4769 659.305 118.232 652.57 122.081C641.456 128.443 615.715 132.044 615.715 132.044C614.538 130.942 613.665 129.556 613.178 128.019Z" fill="#B22C16"/>
<path d="M685.109 58.8116C685.109 58.8116 674.477 77.519 664.083 79.9611C664.083 79.9611 664.515 73.6766 667.045 69.3772C666.01 68.1561 665.1 67.0338 664.314 66.0284C662.932 64.2968 661.643 62.4931 660.453 60.6249L663.981 51.1415L666.372 44.707C667.428 46.6304 668.684 48.4367 670.119 50.0959C676.916 57.9269 685.109 58.8116 685.109 58.8116Z" fill="#FFB27D"/>
<path d="M670.111 50.0958C670.111 50.0958 671.365 59.4623 664.298 66.0429C662.917 64.3114 661.628 62.5077 660.438 60.6395L663.965 51.156C667.746 49.9897 670.111 50.0958 670.111 50.0958Z" fill="#D7A179"/>
<path d="M657.645 62.0214C657.645 62.0214 673.534 55.8282 669.523 45.9938C665.512 36.1593 664.865 28.7378 654.552 32.2767C644.239 35.8157 643.811 40.3636 644.352 43.9757C644.893 47.5878 653.411 63.3631 657.645 62.0214Z" fill="#FFB27D"/>
<path d="M739.706 154.812C733.297 164.025 685.382 176.339 685.963 169.959C686.347 165.774 686.347 161.563 685.963 157.379C685.846 156.012 685.675 154.568 685.455 153.036C684.238 144.653 681.346 133.879 674.897 121.405C674.409 120.474 673.906 119.53 673.387 118.575C670.759 113.795 668.537 108.803 666.744 103.651C663.425 94.0546 662.087 84.8783 663.761 78.8752C663.761 78.846 663.761 78.8204 663.787 78.7911C673.804 74.1591 677.679 56.2012 677.679 56.2012C677.679 56.2012 711.847 62.3358 730.99 107.881C730.975 107.881 745.281 146.791 739.706 154.812Z" fill="#E63114"/>
<path d="M685.949 157.379C685.832 156.012 685.66 154.568 685.441 153.036C684.224 144.653 681.332 133.879 674.883 121.405C675.98 114.696 677.519 109.113 679.197 106.598C686.011 96.3872 689.982 94.7896 689.982 94.7896C689.982 94.7896 700.2 137.889 685.949 157.379Z" fill="#E63114"/>
<path d="M632.096 147.124C632.096 147.124 622.641 147.621 621.179 148.148C619.717 148.674 615.11 152.352 615.161 152.794C615.213 153.237 615.556 153.526 616.478 153.314C617.399 153.101 620.261 151.891 620.174 152.304C620.086 152.718 612.006 156.838 612.405 158.585C612.803 160.333 618.401 162.205 622.426 161.291C626.451 160.377 632.929 153.555 633.58 153.306C639.09 151.2 632.096 147.124 632.096 147.124Z" fill="#FFB27D"/>
<path d="M630.301 150.711C628.407 147.651 629.774 146.254 629.774 146.254C629.774 146.254 658.974 123.394 661.263 121.083C663.551 118.773 674.143 81.9939 674.143 81.9939C674.143 81.9939 677.798 67.1106 686.339 65.4691C693.764 64.0396 698.897 67.7139 702.257 72.0242C704.204 74.5411 705.348 77.5864 705.539 80.763C705.73 83.9396 704.959 87.1 703.328 89.8322C695.873 102.394 680.833 127.335 676.442 131.594C666.666 141.077 633.96 154.326 633.96 154.326C632.479 153.418 631.227 152.181 630.301 150.711Z" fill="#E63114"/>
<path d="M671.802 27.7108C671.912 27.4914 672.237 27.2574 673.023 27.0161C672.503 26.8656 671.955 26.8455 671.425 26.9576C670.979 25.8609 669.897 24.0329 667.861 24C668.22 24.1089 668.549 24.2968 668.826 24.5498C669.102 24.8029 669.318 25.1147 669.459 25.4624C666.673 23.6966 661.507 23.1847 648.62 27.4804C631.616 33.1398 640.109 43.0108 642.701 43.8041C645.293 44.5975 650.013 39.5194 654.283 38.8248C658.553 38.1302 660.863 44.0747 662.483 44.5646C664.103 45.0545 663.181 43.7054 664.885 42.371C666.589 41.0366 667.565 44.199 667.528 46.4401C667.492 48.6812 670.819 50.7979 670.819 50.7979L672.767 47.2261C674.712 43.6543 674.182 30.6867 672.321 28.3542L671.802 27.7108Z" fill="#412E69"/>
<path d="M403.168 480.044V499.278L357.641 480.044H403.168Z" fill="#341C58"/>
<path d="M792.769 315.999H642.211V513.751H792.769V315.999Z" fill="#341C58"/>
<path d="M746.359 315.999H595.797V513.751H746.359V315.999Z" fill="#4E2F7E"/>
<path d="M792.767 315.999V345.571L746.344 315.999H792.767Z" fill="#341C58"/>
<defs>
<filter id="filter0_f_106_29" x="0" y="-113" width="783" height="764" filterUnits="userSpaceOnUse" color-interpolation-filters="sRGB">
<feFlood flood-opacity="0" result="BackgroundImageFix"/>
<feBlend mode="normal" in="SourceGraphic" in2="BackgroundImageFix" result="shape"/>
<feGaussianBlur stdDeviation="83" result="effect1_foregroundBlur_106_29"/>
</filter>
</defs>
</svg>
