<svg width="169" height="115" viewBox="0 0 169 115" fill="none" xmlns="http://www.w3.org/2000/svg">
<g clip-path="url(#clip0_731_11249)">
<path d="M128.112 27.262H40.174C36.9195 27.262 34.2812 29.9065 34.2812 33.1687V96.7799C34.2812 100.042 36.9195 102.687 40.174 102.687H128.112C131.367 102.687 134.005 100.042 134.005 96.7799V33.1687C134.005 29.9065 131.367 27.262 128.112 27.262Z" fill="#BFCAD9"/>
<path d="M129.473 92.2363V37.7124C129.473 34.4502 126.834 31.8057 123.58 31.8057L44.7075 31.8057C41.453 31.8057 38.8147 34.4502 38.8147 37.7124V92.2363C38.8147 95.4985 41.453 98.1431 44.7075 98.1431H123.58C126.834 98.1431 129.473 95.4985 129.473 92.2363Z" fill="#D5E7F2"/>
<path d="M124.938 89.0557V40.8929C124.938 38.3835 122.908 36.3492 120.405 36.3492L47.8783 36.3492C45.3748 36.3492 43.3454 38.3835 43.3454 40.8929V89.0557C43.3454 91.5651 45.3748 93.5993 47.8783 93.5993H120.405C122.908 93.5993 124.938 91.5651 124.938 89.0557Z" fill="#392066"/>
<path d="M120.407 36.3492H47.8806C46.6784 36.3492 45.5254 36.8279 44.6753 37.68C43.8252 38.5322 43.3477 39.6878 43.3477 40.8929V43.6191C43.3477 42.414 43.8252 41.2583 44.6753 40.4062C45.5254 39.5541 46.6784 39.0754 47.8806 39.0754H120.407C121.609 39.0754 122.762 39.5541 123.612 40.4062C124.462 41.2583 124.94 42.414 124.94 43.6191V40.8929C124.94 39.6878 124.462 38.5322 123.612 37.68C122.762 36.8279 121.609 36.3492 120.407 36.3492Z" fill="#7894BD"/>
<path d="M147.15 108.593H21.135C19.5721 108.593 18.0732 107.971 16.9681 106.863C15.863 105.756 15.2422 104.253 15.2422 102.687H153.042C153.042 104.253 152.421 105.756 151.316 106.863C150.211 107.971 148.712 108.593 147.15 108.593Z" fill="white"/>
<path d="M141.486 14.0853H55.361C52.8576 14.0853 50.8281 16.1196 50.8281 18.629V80.4227C50.8281 82.9321 52.8576 84.9664 55.361 84.9664H141.486C143.99 84.9664 146.019 82.9321 146.019 80.4227V18.629C146.019 16.1196 143.99 14.0853 141.486 14.0853Z" fill="white"/>
<path d="M124.939 88.5877V84.9664H56.2656L124.939 88.5877Z" fill="#7894BD"/>
<path d="M135.137 27.262H62.1577C61.0758 27.262 60.0381 26.8311 59.273 26.0642C58.5079 25.2973 58.0781 24.2572 58.0781 23.1727C58.0781 22.0881 58.5079 21.048 59.273 20.2811C60.0381 19.5142 61.0758 19.0834 62.1577 19.0834H135.137C136.219 19.0834 137.257 19.5142 138.022 20.2811C138.787 21.048 139.217 22.0881 139.217 23.1727C139.217 24.2572 138.787 25.2973 138.022 26.0642C137.257 26.8311 136.219 27.262 135.137 27.262Z" fill="#5418A3"/>
<path d="M135.141 24.3086C135.767 24.3086 136.274 23.8 136.274 23.1727C136.274 22.5453 135.767 22.0367 135.141 22.0367C134.515 22.0367 134.008 22.5453 134.008 23.1727C134.008 23.8 134.515 24.3086 135.141 24.3086Z" fill="white"/>
<path d="M130.606 24.3086C131.232 24.3086 131.739 23.8 131.739 23.1727C131.739 22.5453 131.232 22.0367 130.606 22.0367C129.98 22.0367 129.473 22.5453 129.473 23.1727C129.473 23.8 129.98 24.3086 130.606 24.3086Z" fill="white"/>
<path d="M126.071 24.3086C126.697 24.3086 127.204 23.8 127.204 23.1727C127.204 22.5453 126.697 22.0367 126.071 22.0367C125.445 22.0367 124.938 22.5453 124.938 23.1727C124.938 23.8 125.445 24.3086 126.071 24.3086Z" fill="white"/>
<path opacity="0.1" d="M50.8281 18.629V38.9937C51.4265 39.0436 52.0293 39.0754 52.6413 39.0754C58.41 39.0694 63.9407 36.7697 68.0198 32.6809C72.0989 28.5922 74.3932 23.0483 74.3992 17.2659C74.3989 16.2013 74.3201 15.1382 74.1635 14.0853H55.361C54.1588 14.0853 53.0059 14.564 52.1558 15.4161C51.3057 16.2682 50.8281 17.4239 50.8281 18.629Z" fill="black"/>
<path d="M52.6391 34.5318C62.1522 34.5318 69.8641 26.8016 69.8641 17.2659C69.8641 7.73021 62.1522 0 52.6391 0C43.126 0 35.4141 7.73021 35.4141 17.2659C35.4141 26.8016 43.126 34.5318 52.6391 34.5318Z" fill="#E63114"/>
<path d="M52.6391 34.5318C62.1522 34.5318 69.8641 26.8016 69.8641 17.2659C69.8641 7.73021 62.1522 0 52.6391 0C43.126 0 35.4141 7.73021 35.4141 17.2659C35.4141 26.8016 43.126 34.5318 52.6391 34.5318Z" fill="#E63114"/>
<path d="M52.6413 29.9882C59.651 29.9882 65.3334 24.2922 65.3334 17.2659C65.3334 10.2396 59.651 4.5437 52.6413 4.5437C45.6317 4.5437 39.9492 10.2396 39.9492 17.2659C39.9492 24.2922 45.6317 29.9882 52.6413 29.9882Z" fill="white"/>
<path d="M52.6397 25.4445C57.1459 25.4445 60.7989 21.7828 60.7989 17.2659C60.7989 12.749 57.1459 9.08728 52.6397 9.08728C48.1335 9.08728 44.4805 12.749 44.4805 17.2659C44.4805 21.7828 48.1335 25.4445 52.6397 25.4445Z" fill="#E63114"/>
<path d="M52.6419 20.9008C54.6447 20.9008 56.2683 19.2734 56.2683 17.2659C56.2683 15.2584 54.6447 13.631 52.6419 13.631C50.6392 13.631 49.0156 15.2584 49.0156 17.2659C49.0156 19.2734 50.6392 20.9008 52.6419 20.9008Z" fill="white"/>
<path d="M53.0936 17.4567V16.8115H52.4499H10.4844V17.7203H51.5434H52.8307L53.0936 17.4567Z" fill="#101426"/>
<path opacity="0.1" d="M40.1484 29.143C40.357 29.3657 40.57 29.5974 40.7921 29.7882L53.0944 17.4567V16.8115H52.4507L40.1484 29.143Z" fill="black"/>
<path d="M15.9247 16.3571H9.12533L8.21875 14.994H15.0181L15.9247 16.3571Z" fill="white"/>
<path d="M8.21875 19.5378H15.0181L15.9247 18.1747H9.12533L8.21875 19.5378Z" fill="white"/>
<path d="M121.089 40.893H73.9465C73.1049 40.893 72.2979 40.5579 71.7028 39.9614C71.1077 39.3649 70.7734 38.556 70.7734 37.7124C70.7734 36.8689 71.1077 36.0599 71.7028 35.4634C72.2979 34.867 73.1049 34.5319 73.9465 34.5319H121.089C121.93 34.5319 122.737 34.867 123.332 35.4634C123.927 36.0599 124.262 36.8689 124.262 37.7124C124.262 38.556 123.927 39.3649 123.332 39.9614C122.737 40.5579 121.93 40.893 121.089 40.893Z" fill="#F0F0F2"/>
<path d="M96.1568 46.7997H73.4924C73.3721 46.7997 73.2568 46.7519 73.1718 46.6666C73.0868 46.5814 73.0391 46.4659 73.0391 46.3454C73.0391 46.2249 73.0868 46.1093 73.1718 46.0241C73.2568 45.9389 73.3721 45.891 73.4924 45.891H96.1568C96.2771 45.891 96.3924 45.9389 96.4774 46.0241C96.5624 46.1093 96.6101 46.2249 96.6101 46.3454C96.6101 46.4659 96.5624 46.5814 96.4774 46.6666C96.3924 46.7519 96.2771 46.7997 96.1568 46.7997Z" fill="#F0F0F2"/>
<path d="M91.6228 49.0716H76.6642C76.544 49.0716 76.4287 49.0237 76.3437 48.9385C76.2587 48.8533 76.2109 48.7377 76.2109 48.6172C76.2109 48.4967 76.2587 48.3811 76.3437 48.2959C76.4287 48.2107 76.544 48.1628 76.6642 48.1628H91.6228C91.743 48.1628 91.8583 48.2107 91.9433 48.2959C92.0283 48.3811 92.0761 48.4967 92.0761 48.6172C92.0761 48.7377 92.0283 48.8533 91.9433 48.9385C91.8583 49.0237 91.743 49.0716 91.6228 49.0716Z" fill="#F0F0F2"/>
<path d="M95.7035 51.3433H73.4924C73.3721 51.3433 73.2568 51.2954 73.1718 51.2102C73.0868 51.125 73.0391 51.0094 73.0391 50.8889C73.0391 50.7684 73.0868 50.6529 73.1718 50.5677C73.2568 50.4824 73.3721 50.4346 73.4924 50.4346H95.7035C95.8238 50.4346 95.9391 50.4824 96.0241 50.5677C96.1091 50.6529 96.1568 50.7684 96.1568 50.8889C96.1568 51.0094 96.1091 51.125 96.0241 51.2102C95.9391 51.2954 95.8238 51.3433 95.7035 51.3433Z" fill="#F0F0F2"/>
<path d="M74.3989 49.0716H73.4924C73.3721 49.0716 73.2568 49.0237 73.1718 48.9385C73.0868 48.8533 73.0391 48.7377 73.0391 48.6172C73.0391 48.4967 73.0868 48.3811 73.1718 48.2959C73.2568 48.2107 73.3721 48.1628 73.4924 48.1628H74.3989C74.5192 48.1628 74.6344 48.2107 74.7195 48.2959C74.8045 48.3811 74.8522 48.4967 74.8522 48.6172C74.8522 48.7377 74.8045 48.8533 74.7195 48.9385C74.6344 49.0237 74.5192 49.0716 74.3989 49.0716Z" fill="#E63114"/>
<path d="M123.352 46.7997H100.688C100.567 46.7997 100.452 46.7519 100.367 46.6666C100.282 46.5814 100.234 46.4659 100.234 46.3454C100.234 46.2249 100.282 46.1093 100.367 46.0241C100.452 45.9389 100.567 45.891 100.688 45.891H123.352C123.472 45.891 123.588 45.9389 123.673 46.0241C123.758 46.1093 123.805 46.2249 123.805 46.3454C123.805 46.4659 123.758 46.5814 123.673 46.6666C123.588 46.7519 123.472 46.7997 123.352 46.7997Z" fill="#F0F0F2"/>
<path d="M118.818 49.0716H103.86C103.739 49.0716 103.624 49.0237 103.539 48.9385C103.454 48.8533 103.406 48.7377 103.406 48.6172C103.406 48.4967 103.454 48.3811 103.539 48.2959C103.624 48.2107 103.739 48.1628 103.86 48.1628H118.818C118.938 48.1628 119.054 48.2107 119.139 48.2959C119.224 48.3811 119.271 48.4967 119.271 48.6172C119.271 48.7377 119.224 48.8533 119.139 48.9385C119.054 49.0237 118.938 49.0716 118.818 49.0716Z" fill="#F0F0F2"/>
<path d="M122.899 51.3433H100.688C100.567 51.3433 100.452 51.2954 100.367 51.2102C100.282 51.125 100.234 51.0094 100.234 50.8889C100.234 50.7684 100.282 50.6529 100.367 50.5677C100.452 50.4824 100.567 50.4346 100.688 50.4346H122.899C123.019 50.4346 123.134 50.4824 123.219 50.5677C123.304 50.6529 123.352 50.7684 123.352 50.8889C123.352 51.0094 123.304 51.125 123.219 51.2102C123.134 51.2954 123.019 51.3433 122.899 51.3433Z" fill="#F0F0F2"/>
<path d="M101.594 49.0716H100.688C100.567 49.0716 100.452 49.0237 100.367 48.9385C100.282 48.8533 100.234 48.7377 100.234 48.6172C100.234 48.4967 100.282 48.3811 100.367 48.2959C100.452 48.2107 100.567 48.1628 100.688 48.1628H101.594C101.714 48.1628 101.83 48.2107 101.915 48.2959C102 48.3811 102.048 48.4967 102.048 48.6172C102.048 48.7377 102 48.8533 101.915 48.9385C101.83 49.0237 101.714 49.0716 101.594 49.0716Z" fill="#E63114"/>
<path d="M123.352 55.887H100.688C100.567 55.887 100.452 55.8391 100.367 55.7539C100.282 55.6687 100.234 55.5531 100.234 55.4326C100.234 55.3121 100.282 55.1966 100.367 55.1114C100.452 55.0261 100.567 54.9783 100.688 54.9783H123.352C123.472 54.9783 123.588 55.0261 123.673 55.1114C123.758 55.1966 123.805 55.3121 123.805 55.4326C123.805 55.5531 123.758 55.6687 123.673 55.7539C123.588 55.8391 123.472 55.887 123.352 55.887Z" fill="#F0F0F2"/>
<path d="M118.818 58.1589H103.86C103.739 58.1589 103.624 58.111 103.539 58.0258C103.454 57.9406 103.406 57.825 103.406 57.7045C103.406 57.584 103.454 57.4684 103.539 57.3832C103.624 57.298 103.739 57.2501 103.86 57.2501H118.818C118.938 57.2501 119.054 57.298 119.139 57.3832C119.224 57.4684 119.271 57.584 119.271 57.7045C119.271 57.825 119.224 57.9406 119.139 58.0258C119.054 58.111 118.938 58.1589 118.818 58.1589Z" fill="#F0F0F2"/>
<path d="M122.899 60.4307H100.688C100.567 60.4307 100.452 60.3828 100.367 60.2976C100.282 60.2124 100.234 60.0968 100.234 59.9763C100.234 59.8558 100.282 59.7403 100.367 59.6551C100.452 59.5698 100.567 59.522 100.688 59.522H122.899C123.019 59.522 123.134 59.5698 123.219 59.6551C123.304 59.7403 123.352 59.8558 123.352 59.9763C123.352 60.0968 123.304 60.2124 123.219 60.2976C123.134 60.3828 123.019 60.4307 122.899 60.4307Z" fill="#F0F0F2"/>
<path d="M101.594 58.1589H100.688C100.567 58.1589 100.452 58.111 100.367 58.0258C100.282 57.9406 100.234 57.825 100.234 57.7045C100.234 57.584 100.282 57.4684 100.367 57.3832C100.452 57.298 100.567 57.2501 100.688 57.2501H101.594C101.714 57.2501 101.83 57.298 101.915 57.3832C102 57.4684 102.048 57.584 102.048 57.7045C102.048 57.825 102 57.9406 101.915 58.0258C101.83 58.111 101.714 58.1589 101.594 58.1589Z" fill="#E63114"/>
<path d="M96.1568 55.887H73.4924C73.3721 55.887 73.2568 55.8391 73.1718 55.7539C73.0868 55.6687 73.0391 55.5531 73.0391 55.4326C73.0391 55.3121 73.0868 55.1966 73.1718 55.1114C73.2568 55.0261 73.3721 54.9783 73.4924 54.9783H96.1568C96.2771 54.9783 96.3924 55.0261 96.4774 55.1114C96.5624 55.1966 96.6101 55.3121 96.6101 55.4326C96.6101 55.5531 96.5624 55.6687 96.4774 55.7539C96.3924 55.8391 96.2771 55.887 96.1568 55.887Z" fill="#F0F0F2"/>
<path d="M91.6228 58.1589H76.6642C76.544 58.1589 76.4287 58.111 76.3437 58.0258C76.2587 57.9406 76.2109 57.825 76.2109 57.7045C76.2109 57.584 76.2587 57.4684 76.3437 57.3832C76.4287 57.298 76.544 57.2501 76.6642 57.2501H91.6228C91.743 57.2501 91.8583 57.298 91.9433 57.3832C92.0283 57.4684 92.0761 57.584 92.0761 57.7045C92.0761 57.825 92.0283 57.9406 91.9433 58.0258C91.8583 58.111 91.743 58.1589 91.6228 58.1589Z" fill="#F0F0F2"/>
<path d="M95.7035 60.4307H73.4924C73.3721 60.4307 73.2568 60.3828 73.1718 60.2976C73.0868 60.2124 73.0391 60.0968 73.0391 59.9763C73.0391 59.8558 73.0868 59.7403 73.1718 59.6551C73.2568 59.5698 73.3721 59.522 73.4924 59.522H95.7035C95.8238 59.522 95.9391 59.5698 96.0241 59.6551C96.1091 59.7403 96.1568 59.8558 96.1568 59.9763C96.1568 60.0968 96.1091 60.2124 96.0241 60.2976C95.9391 60.3828 95.8238 60.4307 95.7035 60.4307Z" fill="#F0F0F2"/>
<path d="M74.3989 58.1589H73.4924C73.3721 58.1589 73.2568 58.111 73.1718 58.0258C73.0868 57.9406 73.0391 57.825 73.0391 57.7045C73.0391 57.584 73.0868 57.4684 73.1718 57.3832C73.2568 57.298 73.3721 57.2501 73.4924 57.2501H74.3989C74.5192 57.2501 74.6344 57.298 74.7195 57.3832C74.8045 57.4684 74.8522 57.584 74.8522 57.7045C74.8522 57.825 74.8045 57.9406 74.7195 58.0258C74.6344 58.111 74.5192 58.1589 74.3989 58.1589Z" fill="#E63114"/>
<path d="M96.1568 64.9743H73.4924C73.3721 64.9743 73.2568 64.9264 73.1718 64.8412C73.0868 64.756 73.0391 64.6404 73.0391 64.5199C73.0391 64.3994 73.0868 64.2838 73.1718 64.1986C73.2568 64.1134 73.3721 64.0656 73.4924 64.0656H96.1568C96.2771 64.0656 96.3924 64.1134 96.4774 64.1986C96.5624 64.2838 96.6101 64.3994 96.6101 64.5199C96.6101 64.6404 96.5624 64.756 96.4774 64.8412C96.3924 64.9264 96.2771 64.9743 96.1568 64.9743Z" fill="#F0F0F2"/>
<path d="M91.6228 67.2461H76.6642C76.544 67.2461 76.4287 67.1983 76.3437 67.1131C76.2587 67.0278 76.2109 66.9123 76.2109 66.7918C76.2109 66.6713 76.2587 66.5557 76.3437 66.4705C76.4287 66.3853 76.544 66.3374 76.6642 66.3374H91.6228C91.743 66.3374 91.8583 66.3853 91.9433 66.4705C92.0283 66.5557 92.0761 66.6713 92.0761 66.7918C92.0761 66.9123 92.0283 67.0278 91.9433 67.1131C91.8583 67.1983 91.743 67.2461 91.6228 67.2461Z" fill="#F0F0F2"/>
<path d="M95.7035 69.518H73.4924C73.3721 69.518 73.2568 69.4701 73.1718 69.3849C73.0868 69.2997 73.0391 69.1841 73.0391 69.0636C73.0391 68.9431 73.0868 68.8275 73.1718 68.7423C73.2568 68.6571 73.3721 68.6093 73.4924 68.6093H95.7035C95.8238 68.6093 95.9391 68.6571 96.0241 68.7423C96.1091 68.8275 96.1568 68.9431 96.1568 69.0636C96.1568 69.1841 96.1091 69.2997 96.0241 69.3849C95.9391 69.4701 95.8238 69.518 95.7035 69.518Z" fill="#F0F0F2"/>
<path d="M74.3989 67.2461H73.4924C73.3721 67.2461 73.2568 67.1983 73.1718 67.1131C73.0868 67.0278 73.0391 66.9123 73.0391 66.7918C73.0391 66.6713 73.0868 66.5557 73.1718 66.4705C73.2568 66.3853 73.3721 66.3374 73.4924 66.3374H74.3989C74.5192 66.3374 74.6344 66.3853 74.7195 66.4705C74.8045 66.5557 74.8522 66.6713 74.8522 66.7918C74.8522 66.9123 74.8045 67.0278 74.7195 67.1131C74.6344 67.1983 74.5192 67.2461 74.3989 67.2461Z" fill="#E63114"/>
<path d="M123.352 64.9743H100.688C100.567 64.9743 100.452 64.9264 100.367 64.8412C100.282 64.756 100.234 64.6404 100.234 64.5199C100.234 64.3994 100.282 64.2838 100.367 64.1986C100.452 64.1134 100.567 64.0656 100.688 64.0656H123.352C123.472 64.0656 123.588 64.1134 123.673 64.1986C123.758 64.2838 123.805 64.3994 123.805 64.5199C123.805 64.6404 123.758 64.756 123.673 64.8412C123.588 64.9264 123.472 64.9743 123.352 64.9743Z" fill="#F0F0F2"/>
<path d="M118.818 67.2461H103.86C103.739 67.2461 103.624 67.1983 103.539 67.1131C103.454 67.0278 103.406 66.9123 103.406 66.7918C103.406 66.6713 103.454 66.5557 103.539 66.4705C103.624 66.3853 103.739 66.3374 103.86 66.3374H118.818C118.938 66.3374 119.054 66.3853 119.139 66.4705C119.224 66.5557 119.271 66.6713 119.271 66.7918C119.271 66.9123 119.224 67.0278 119.139 67.1131C119.054 67.1983 118.938 67.2461 118.818 67.2461Z" fill="#F0F0F2"/>
<path d="M122.899 69.518H100.688C100.567 69.518 100.452 69.4701 100.367 69.3849C100.282 69.2997 100.234 69.1841 100.234 69.0636C100.234 68.9431 100.282 68.8275 100.367 68.7423C100.452 68.6571 100.567 68.6093 100.688 68.6093H122.899C123.019 68.6093 123.134 68.6571 123.219 68.7423C123.304 68.8275 123.352 68.9431 123.352 69.0636C123.352 69.1841 123.304 69.2997 123.219 69.3849C123.134 69.4701 123.019 69.518 122.899 69.518Z" fill="#F0F0F2"/>
<path d="M101.594 67.2461H100.688C100.567 67.2461 100.452 67.1983 100.367 67.1131C100.282 67.0278 100.234 66.9123 100.234 66.7918C100.234 66.6713 100.282 66.5557 100.367 66.4705C100.452 66.3853 100.567 66.3374 100.688 66.3374H101.594C101.714 66.3374 101.83 66.3853 101.915 66.4705C102 66.5557 102.048 66.6713 102.048 66.7918C102.048 66.9123 102 67.0278 101.915 67.1131C101.83 67.1983 101.714 67.2461 101.594 67.2461Z" fill="#E63114"/>
<path d="M141.943 67.1689L140.52 68.6093C143.671 74.0223 146.823 79.4308 149.975 84.8347C155.415 90.2871 163.597 82.1085 158.134 76.6561L141.943 67.1689ZM156.167 83.1126C155.787 83.4942 155.302 83.7542 154.775 83.8597C154.247 83.9652 153.7 83.9114 153.203 83.7051C152.706 83.4989 152.281 83.1495 151.982 82.7011C151.683 82.2527 151.523 81.7255 151.523 81.1861C151.523 80.6468 151.683 80.1196 151.982 79.6712C152.281 79.2228 152.706 78.8734 153.203 78.6671C153.7 78.4609 154.247 78.4071 154.775 78.5126C155.302 78.618 155.787 78.878 156.167 79.2596C156.676 79.7708 156.962 80.4637 156.962 81.1861C156.962 81.9086 156.676 82.6015 156.167 83.1126Z" fill="#BFCAD9"/>
<path d="M144.785 75.9655C146.636 74.8671 148.181 73.3184 149.277 71.4627L141.943 67.1689L140.52 68.6093L144.785 75.9655Z" fill="#7894BD"/>
<path d="M114.304 40.893C111.324 43.8794 109.295 47.6845 108.472 51.8271C107.65 55.9698 108.071 60.2638 109.684 64.1663C111.296 68.0687 114.027 71.4043 117.53 73.751C121.034 76.0978 125.153 77.3504 129.367 77.3504C133.581 77.3504 137.7 76.0978 141.204 73.751C144.708 71.4043 147.438 68.0687 149.051 64.1663C150.663 60.2638 151.084 55.9698 150.262 51.8271C149.44 47.6845 147.41 43.8794 144.43 40.893C140.435 36.8892 135.017 34.64 129.367 34.64C123.718 34.64 118.3 36.8892 114.304 40.893ZM141.225 67.8778C138.88 70.2293 135.891 71.8308 132.638 72.4798C129.384 73.1288 126.012 72.7961 122.947 71.5238C119.882 70.2514 117.263 68.0967 115.42 65.3319C113.576 62.5672 112.593 59.3167 112.593 55.9916C112.593 52.6664 113.576 49.4159 115.42 46.6512C117.263 43.8864 119.882 41.7317 122.947 40.4594C126.012 39.187 129.384 38.8543 132.638 39.5033C135.891 40.1523 138.88 41.7538 141.225 44.1053C142.784 45.6666 144.021 47.5206 144.865 49.5613C145.709 51.602 146.143 53.7893 146.143 55.9984C146.143 58.2074 145.709 60.3948 144.865 62.4354C144.021 64.4761 142.784 66.3301 141.225 67.8914V67.8778Z" fill="#BFCAD9"/>
<path opacity="0.1" d="M129.365 72.8167C138.628 72.8167 146.137 65.2899 146.137 56.0051C146.137 46.7204 138.628 39.1936 129.365 39.1936C120.103 39.1936 112.594 46.7204 112.594 56.0051C112.594 65.2899 120.103 72.8167 129.365 72.8167Z" fill="#7ABAF2"/>
<path opacity="0.6" d="M130.205 53.7334C132.959 53.7334 135.191 51.4957 135.191 48.7353C135.191 45.975 132.959 43.7373 130.205 43.7373C127.451 43.7373 125.219 45.975 125.219 48.7353C125.219 51.4957 127.451 53.7334 130.205 53.7334Z" fill="white"/>
<path d="M20.9115 66.3374C17.0645 66.3374 13.375 67.8693 10.6547 70.596C7.93448 73.3227 6.40625 77.0209 6.40625 80.8771C6.40625 91.7819 18.1918 94.0537 20.9115 109.048C23.178 93.5994 35.4168 91.3275 35.4168 80.8771C35.4168 77.0209 33.8886 73.3227 31.1683 70.596C28.448 67.8693 24.7586 66.3374 20.9115 66.3374ZM20.9115 89.9644C19.1185 89.9644 17.3657 89.4315 15.8748 88.4329C14.384 87.4344 13.222 86.0152 12.5358 84.3547C11.8497 82.6942 11.6701 80.867 12.0199 79.1043C12.3697 77.3415 13.2332 75.7223 14.501 74.4514C15.7689 73.1805 17.3843 72.315 19.1429 71.9644C20.9015 71.6138 22.7243 71.7937 24.3808 72.4815C26.0374 73.1693 27.4533 74.3341 28.4495 75.8285C29.4456 77.3229 29.9773 79.0798 29.9773 80.8771C29.9773 83.2872 29.0222 85.5986 27.322 87.3028C25.6218 89.007 23.3159 89.9644 20.9115 89.9644Z" fill="#E63114"/>
<path d="M165.804 115H3.19577C2.35607 114.994 1.55244 114.657 0.958662 114.062C0.364885 113.467 0.0286794 112.661 0.0227449 111.819H8.03783e-05C-0.00290954 111.397 0.0775425 110.978 0.236802 110.587C0.396061 110.195 0.63098 109.84 0.928026 109.54C1.22507 109.24 1.57837 109.002 1.96758 108.839C2.35678 108.677 2.77419 108.593 3.19577 108.593H165.804C166.225 108.59 166.642 108.671 167.031 108.831C167.42 108.991 167.773 109.227 168.071 109.525C168.368 109.823 168.603 110.177 168.763 110.567C168.923 110.957 169.003 111.375 169 111.797C169.003 112.218 168.923 112.636 168.763 113.026C168.603 113.416 168.368 113.77 168.071 114.069C167.773 114.367 167.42 114.602 167.031 114.762C166.642 114.922 166.225 115.003 165.804 115Z" fill="#7894BD"/>
<path d="M6.59474 111.433H3.875V111.888H6.59474V111.433Z" fill="white"/>
<path d="M156.72 111.888H151.357V111.433H156.72V111.888ZM145.995 111.888H140.632V111.433H145.995V111.888ZM135.27 111.888H129.912V111.433H135.27V111.888ZM124.55 111.888H119.187V111.433H124.55V111.888ZM113.825 111.888H108.462V111.433H113.825V111.888ZM103.105 111.888H97.7421V111.433H103.105V111.888ZM92.3797 111.888H87.0309V111.433H92.3797V111.888ZM81.6594 111.888H76.297V111.433H81.6594V111.888ZM70.9346 111.888H65.5721V111.433H70.9346V111.888ZM60.2097 111.888H54.8473V111.433H60.2052L60.2097 111.888ZM49.4894 111.888H44.127V111.433H49.4894V111.888ZM38.7646 111.888H33.4022V111.433H38.7646V111.888ZM28.0443 111.888H22.6637V111.433H28.0443V111.888ZM17.3194 111.888H11.957V111.433H17.3194V111.888Z" fill="white"/>
<path d="M164.798 111.433H162.078V111.888H164.798V111.433Z" fill="white"/>
<path d="M45.8421 43.6191H20.0046C19.0032 43.6191 18.1914 44.4328 18.1914 45.4366V62.7025C18.1914 63.7063 19.0032 64.52 20.0046 64.52H45.8421C46.8435 64.52 47.6552 63.7063 47.6552 62.7025V45.4366C47.6552 44.4328 46.8435 43.6191 45.8421 43.6191Z" fill="#5418A3"/>
<path d="M47.6552 50.4346H18.1914V53.6151H47.6552V50.4346Z" fill="white"/>
<path d="M47.6552 53.6151H18.1914V54.5238H47.6552V53.6151Z" fill="#5418A3"/>
<path d="M44.9363 60.4307H26.8047V61.3394H44.9363V60.4307Z" fill="white"/>
<path d="M21.8169 62.2482C22.5679 62.2482 23.1768 61.6379 23.1768 60.8851C23.1768 60.1323 22.5679 59.522 21.8169 59.522C21.0659 59.522 20.457 60.1323 20.457 60.8851C20.457 61.6379 21.0659 62.2482 21.8169 62.2482Z" fill="white"/>
<path d="M24.0825 62.2482C24.8336 62.2482 25.4424 61.6379 25.4424 60.8851C25.4424 60.1323 24.8336 59.522 24.0825 59.522C23.3315 59.522 22.7227 60.1323 22.7227 60.8851C22.7227 61.6379 23.3315 62.2482 24.0825 62.2482Z" fill="#E63114"/>
<path d="M149.191 39.9842C154.198 39.9842 158.257 35.9157 158.257 30.8969C158.257 25.8781 154.198 21.8096 149.191 21.8096C144.184 21.8096 140.125 25.8781 140.125 30.8969C140.125 35.9157 144.184 39.9842 149.191 39.9842Z" fill="#E63114"/>
<path d="M149.19 37.7124C152.945 37.7124 155.989 34.661 155.989 30.8969C155.989 27.1328 152.945 24.0814 149.19 24.0814C145.435 24.0814 142.391 27.1328 142.391 30.8969C142.391 34.661 145.435 37.7124 149.19 37.7124Z" fill="#F29F05"/>
<path d="M149.192 36.1675C152.096 36.1675 154.45 33.8078 154.45 30.8969C154.45 27.986 152.096 25.6262 149.192 25.6262C146.288 25.6262 143.934 27.986 143.934 30.8969C143.934 33.8078 146.288 36.1675 149.192 36.1675Z" fill="#E63114"/>
<path d="M149.878 33.5322V34.4682H149.425V33.5595H149.094V34.4682H148.641V33.5595C147.308 33.3959 146.95 32.6507 146.95 31.8329H148.197C148.197 32.1827 148.265 32.4508 148.65 32.5735V31.3512C148.228 31.296 147.819 31.1701 147.44 30.9787C147.275 30.8721 147.141 30.7251 147.05 30.5516C146.959 30.3782 146.913 30.1842 146.918 29.9881C146.918 29.2021 147.503 28.566 148.609 28.3979V27.4891H149.062V28.3979H149.393V27.4891H149.847V28.3979C151.007 28.5751 151.438 29.2294 151.438 30.1699H150.255C150.255 29.7791 150.168 29.5156 149.847 29.3929V30.5788C150.225 30.6307 150.596 30.7252 150.953 30.8605C151.152 30.9524 151.319 31.1039 151.429 31.2942C151.539 31.4846 151.588 31.7044 151.569 31.9237C151.601 32.7143 151.148 33.3686 149.878 33.5322ZM148.609 30.3516V29.3702C148.499 29.398 148.402 29.4646 148.336 29.558C148.27 29.6514 148.24 29.7653 148.251 29.8791C148.234 29.9703 148.249 30.0644 148.291 30.1467C148.334 30.229 148.403 30.2947 148.487 30.3335L148.609 30.3516ZM149.062 29.2975V30.4425L149.393 30.4834V29.293H149.062V29.2975ZM149.393 32.6235V31.4921L149.062 31.4376V32.628H149.194C149.265 32.6306 149.336 32.6275 149.407 32.6189L149.393 32.6235ZM150.241 32.0192C150.254 31.9306 150.235 31.8402 150.187 31.7649C150.138 31.6897 150.064 31.6347 149.978 31.6102L149.865 31.583V32.5508C149.985 32.5275 150.093 32.4592 150.165 32.3597C150.237 32.2602 150.269 32.1369 150.255 32.0146L150.241 32.0192Z" fill="#F29F05"/>
<path d="M89.3557 105.413H80.7432C80.0219 105.413 79.3301 105.126 78.82 104.614C78.31 104.103 78.0234 103.41 78.0234 102.687H92.0754C92.0754 103.41 91.7889 104.103 91.2788 104.614C90.7688 105.126 90.077 105.413 89.3557 105.413Z" fill="#F0F0F2"/>
</g>
<defs>
<clipPath id="clip0_731_11249">
<rect width="169" height="115" fill="white"/>
</clipPath>
</defs>
</svg>
