<svg width="167" height="119" viewBox="0 0 167 119" fill="none" xmlns="http://www.w3.org/2000/svg">
<g clip-path="url(#clip0_731_11188)">
<path d="M103.853 101.254H70.4531V119H103.853V101.254Z" fill="#B6D6F2"/>
<path d="M103.853 101.254H70.4531V109.083H103.853V101.254Z" fill="#91C9E8"/>
<path d="M135.751 103.342H38.0352C36.6956 103.327 35.4132 102.797 34.4534 101.863C33.4936 100.928 32.9299 99.6599 32.8791 98.3211L30.9116 21.0755C30.8801 20.3823 30.988 19.6899 31.2291 19.0393C31.4701 18.3887 31.8394 17.7931 32.3149 17.2878C32.7904 16.7826 33.3625 16.3779 33.9973 16.098C34.6321 15.818 35.3166 15.6683 36.0103 15.6578H137.776C138.469 15.6703 139.152 15.8217 139.785 16.1029C140.419 16.3842 140.989 16.7896 141.463 17.2952C141.937 17.8008 142.305 18.3963 142.545 19.0465C142.784 19.6967 142.891 20.3884 142.859 21.0807L140.892 98.3263C140.84 99.6615 140.278 100.926 139.321 101.859C138.365 102.792 137.087 103.323 135.751 103.342Z" fill="#B6D6F2"/>
<path d="M37.983 93.0392C37.6281 79.1089 36.647 40.4548 36.2869 26.2322C36.2688 25.5355 36.3904 24.8421 36.6445 24.1932C36.8987 23.5442 37.2802 22.9527 37.7666 22.4536C38.2531 21.9544 38.8345 21.5578 39.4767 21.2871C40.1189 21.0163 40.8088 20.877 41.5057 20.8772H132.312C133.008 20.877 133.697 21.016 134.338 21.2861C134.98 21.5562 135.561 21.9519 136.047 22.4499C136.533 22.9479 136.915 23.5382 137.17 24.1859C137.425 24.8337 137.547 25.5259 137.531 26.2218C137.171 40.4548 136.189 79.1089 135.835 93.0288C135.799 94.3894 135.234 95.6823 134.259 96.632C133.284 97.5816 131.977 98.1128 130.616 98.1124H43.2018C41.8426 98.1129 40.5369 97.5831 39.5623 96.6357C38.5877 95.6883 38.0211 94.398 37.983 93.0392Z" fill="#67B8DE"/>
<path d="M121.598 93.4254H51.145C48.2642 93.4254 45.8532 91.2489 45.7697 88.5506L43.0664 5.58982C43.0388 4.86201 43.1591 4.13617 43.4201 3.45619C43.681 2.77621 44.0771 2.15622 44.5844 1.63371C45.0918 1.11119 45.6998 0.697006 46.3718 0.416195C47.0437 0.135385 47.7656 -0.00621826 48.4939 -5.10186e-05H124.249C124.977 -0.00621826 125.699 0.135385 126.371 0.416195C127.043 0.697006 127.651 1.11119 128.159 1.63371C128.666 2.15622 129.062 2.77621 129.323 3.45619C129.584 4.13617 129.704 4.86201 129.677 5.58982L126.973 88.5767C126.89 91.2489 124.479 93.4254 121.598 93.4254Z" fill="#D5E7F2"/>
<path d="M110.116 119H64.1914C64.1914 118.031 64.5763 117.102 65.2614 116.417C65.9465 115.731 66.8757 115.346 67.8445 115.346H106.463C107.432 115.346 108.361 115.731 109.046 116.417C109.732 117.102 110.116 118.031 110.116 119Z" fill="white"/>
<path d="M73.7774 78.8114H31.6412C30.3261 78.795 29.0675 78.2741 28.1255 77.3562C27.1834 76.4383 26.6298 75.1936 26.5791 73.8792L25.2378 34.2125C25.1335 31.201 27.3984 28.7062 30.2687 28.7062H75.15C78.0203 28.7062 80.2852 31.201 80.1808 34.2282L78.8396 73.8949C78.785 75.2065 78.2297 76.4473 77.288 77.3619C76.3464 78.2764 75.09 78.7952 73.7774 78.8114Z" fill="white"/>
<path d="M75.15 28.7062H30.2687C27.3984 28.7062 25.1335 31.201 25.2378 34.2282L25.3527 37.579H80.066L80.1808 34.2282C80.2852 31.201 78.0203 28.7062 75.15 28.7062Z" fill="#E63114"/>
<path d="M75.1484 42.7982H30.7891V44.8859H75.1484V42.7982Z" fill="#B6D6F2"/>
<path d="M49.0547 48.5394H32.8766C31.7237 48.5394 30.7891 49.4741 30.7891 50.6271V64.1973C30.7891 65.3503 31.7237 66.285 32.8766 66.285H49.0547C50.2076 66.285 51.1422 65.3503 51.1422 64.1973V50.6271C51.1422 49.4741 50.2076 48.5394 49.0547 48.5394Z" fill="#E63114"/>
<path d="M75.1484 48.5394H54.2734V49.5833H75.1484V48.5394Z" fill="#B6D6F2"/>
<path d="M75.1484 53.7588H54.2734V54.8026H75.1484V53.7588Z" fill="#B6D6F2"/>
<path d="M75.1484 58.978H54.2734V60.0219H75.1484V58.978Z" fill="#B6D6F2"/>
<path d="M75.1484 64.1974H54.2734V65.2412H75.1484V64.1974Z" fill="#B6D6F2"/>
<path d="M75.1484 69.4166H30.7891V72.0263H75.1484V69.4166Z" fill="#B6D6F2"/>
<path d="M38.3285 63.0039H35.8569L39.6229 52.0948H42.5952L46.3558 63.0039H43.8842L41.1516 54.5877H41.0664L38.3285 63.0039ZM38.174 58.7159H44.0121V60.5163H38.174V58.7159Z" fill="white"/>
<path d="M140.055 79.3333H97.9186C96.6035 79.3169 95.3449 78.7959 94.4028 77.878C93.4607 76.9601 92.9071 75.7155 92.8564 74.4011L91.5152 34.7344C91.4108 31.7229 93.6757 29.228 96.5461 29.228H141.427C144.298 29.228 146.563 31.7229 146.458 34.75L145.117 74.4167C145.062 75.7283 144.507 76.9691 143.565 77.8837C142.624 78.7983 141.367 79.3171 140.055 79.3333Z" fill="white"/>
<path d="M141.427 29.228H96.5461C93.6757 29.228 91.4108 31.7229 91.5152 34.75L91.63 38.1008H146.343L146.458 34.75C146.563 31.7229 144.298 29.228 141.427 29.228Z" fill="#331C56"/>
<path d="M138.559 49.0614H99.9406C99.1794 49.0614 98.4493 48.759 97.911 48.2206C97.3727 47.6823 97.0703 46.9521 97.0703 46.1908C97.0703 45.4295 97.3727 44.6993 97.911 44.161C98.4493 43.6226 99.1794 43.3202 99.9406 43.3202H138.559C139.321 43.3202 140.051 43.6226 140.589 44.161C141.127 44.6993 141.43 45.4295 141.43 46.1908C141.43 46.9521 141.127 47.6823 140.589 48.2206C140.051 48.759 139.321 49.0614 138.559 49.0614Z" fill="#B6D6F2"/>
<path d="M140.125 72.5482H98.375C98.029 72.5482 97.6971 72.4108 97.4524 72.1661C97.2078 71.9214 97.0703 71.5895 97.0703 71.2434C97.0703 70.8974 97.2078 70.5655 97.4524 70.3208C97.6971 70.0761 98.029 69.9386 98.375 69.9386H140.125C140.471 69.9386 140.803 70.0761 141.048 70.3208C141.292 70.5655 141.43 70.8974 141.43 71.2434C141.43 71.5895 141.292 71.9214 141.048 72.1661C140.803 72.4108 140.471 72.5482 140.125 72.5482Z" fill="#B6D6F2"/>
<path d="M138.82 51.1492H99.6797C98.2386 51.1492 97.0703 52.3175 97.0703 53.7588V65.2413C97.0703 66.6825 98.2386 67.8509 99.6797 67.8509H138.82C140.261 67.8509 141.43 66.6825 141.43 65.2413V53.7588C141.43 52.3175 140.261 51.1492 138.82 51.1492Z" fill="#331C56"/>
<path d="M115.772 65.0917V54.1826H120.14C120.943 54.1826 121.612 54.3015 122.148 54.5395C122.685 54.7774 123.088 55.1077 123.358 55.5302C123.627 55.9493 123.762 56.4322 123.762 56.9791C123.762 57.4052 123.677 57.7799 123.507 58.103C123.336 58.4226 123.102 58.6854 122.804 58.8914C122.509 59.0938 122.172 59.2376 121.792 59.3229V59.4294C122.207 59.4471 122.596 59.5643 122.958 59.781C123.324 59.9976 123.62 60.3012 123.848 60.6918C124.075 61.0789 124.189 61.5405 124.189 62.0768C124.189 62.6556 124.045 63.1723 123.757 63.6268C123.473 64.0778 123.052 64.4347 122.495 64.6975C121.937 64.9603 121.25 65.0917 120.433 65.0917H115.772ZM118.079 63.206H119.959C120.602 63.206 121.071 63.0835 121.365 62.8385C121.66 62.5899 121.808 62.2596 121.808 61.8477C121.808 61.5459 121.735 61.2795 121.589 61.0487C121.444 60.8179 121.236 60.6368 120.966 60.5054C120.7 60.374 120.382 60.3083 120.012 60.3083H118.079V63.206ZM118.079 58.7476H119.789C120.105 58.7476 120.385 58.6925 120.63 58.5824C120.879 58.4688 121.074 58.309 121.216 58.103C121.362 57.8971 121.435 57.6503 121.435 57.3626C121.435 56.9685 121.294 56.6506 121.014 56.4091C120.737 56.1677 120.343 56.0469 119.831 56.0469H118.079V58.7476Z" fill="white"/>
<path d="M124.249 -5.10186e-05H48.4939C47.7656 -0.00621826 47.0437 0.135385 46.3718 0.416195C45.6998 0.697006 45.0918 1.11119 44.5844 1.63371C44.0771 2.15622 43.681 2.77621 43.4201 3.45619C43.1591 4.13617 43.0388 4.86201 43.0664 5.58982L43.2386 10.9605H129.505L129.677 5.58982C129.704 4.86201 129.584 4.13617 129.323 3.45619C129.062 2.77621 128.666 2.15622 128.159 1.63371C127.651 1.11119 127.043 0.697006 126.371 0.416195C125.699 0.135385 124.977 -0.00621826 124.249 -5.10186e-05Z" fill="#6018A0"/>
<path d="M48.4939 0.521879H124.249C125.662 0.510533 127.023 1.05538 128.037 2.03875C129.052 3.02213 129.639 4.36512 129.672 5.77771V5.58982C129.699 4.86245 129.579 4.13705 129.318 3.45742C129.058 2.7778 128.662 2.15805 128.155 1.63561C127.648 1.11317 127.041 0.698871 126.37 0.417744C125.698 0.136617 124.977 -0.00550898 124.249 -5.10186e-05H48.4939C47.7656 -0.00621826 47.0437 0.135385 46.3718 0.416195C45.6998 0.697006 45.0918 1.11119 44.5844 1.63371C44.0771 2.15622 43.681 2.77621 43.4201 3.45619C43.1591 4.13617 43.0388 4.86201 43.0664 5.58982V5.77771C43.0992 4.36421 43.687 3.02043 44.7026 2.03691C45.7183 1.05339 47.0802 0.509155 48.4939 0.521879Z" fill="#6018A0"/>
<path d="M43.3061 13.0483H129.436L129.504 10.9606H43.2383L43.3061 13.0483Z" fill="#B6D6F2"/>
<path opacity="0.1" d="M146.648 34.4473V44.364C146.476 44.364 146.304 44.364 146.127 44.364C142.113 44.364 138.263 42.7693 135.425 39.9308C132.587 37.0922 130.992 33.2423 130.992 29.228H141.43C142.814 29.228 144.141 29.7779 145.12 30.7567C146.099 31.7355 146.648 33.0631 146.648 34.4473Z" fill="black"/>
<path d="M146.124 41.2324C152.753 41.2324 158.127 35.8579 158.127 29.228C158.127 22.5982 152.753 17.2236 146.124 17.2236C139.495 17.2236 134.121 22.5982 134.121 29.228C134.121 35.8579 139.495 41.2324 146.124 41.2324Z" fill="white"/>
<path d="M141.844 33.9045L139.219 28.7792L141.546 27.5892L142.825 30.0944L151.133 24.4941L152.594 26.6549L141.844 33.9045Z" fill="#331C56"/>
<path d="M124.206 7.30699C125.071 7.30699 125.772 6.60597 125.772 5.7412C125.772 4.87644 125.071 4.17542 124.206 4.17542C123.342 4.17542 122.641 4.87644 122.641 5.7412C122.641 6.60597 123.342 7.30699 124.206 7.30699Z" fill="white"/>
<path d="M118.987 7.30699C119.852 7.30699 120.553 6.60597 120.553 5.7412C120.553 4.87644 119.852 4.17542 118.987 4.17542C118.123 4.17542 117.422 4.87644 117.422 5.7412C117.422 6.60597 118.123 7.30699 118.987 7.30699Z" fill="white"/>
<path d="M113.769 7.30699C114.633 7.30699 115.334 6.60597 115.334 5.7412C115.334 4.87644 114.633 4.17542 113.769 4.17542C112.904 4.17542 112.203 4.87644 112.203 5.7412C112.203 6.60597 112.904 7.30699 113.769 7.30699Z" fill="white"/>
<path d="M127.339 82.9869L99.6797 79.3334H127.339V82.9869Z" fill="#B6D6F2"/>
<path d="M160.737 87.6843H122.118C120.457 87.6843 118.864 87.0244 117.69 85.8498C116.515 84.6753 115.855 83.0822 115.855 81.4211V75.158H160.737C162.398 75.158 163.991 75.8178 165.165 76.9924C166.339 78.167 166.999 79.76 166.999 81.4211C166.999 83.0822 166.339 84.6753 165.165 85.8498C163.991 87.0244 162.398 87.6843 160.737 87.6843Z" fill="#2D1A4C"/>
<path d="M161.005 78.2529L161.6 79.4586C161.642 79.5434 161.704 79.6167 161.78 79.6722C161.856 79.7277 161.945 79.7637 162.039 79.777L163.37 79.9701C163.477 79.987 163.578 80.0334 163.661 80.1043C163.744 80.1752 163.806 80.2677 163.84 80.3716C163.873 80.4754 163.877 80.5866 163.851 80.6926C163.826 80.7987 163.771 80.8955 163.693 80.9722L162.733 81.9065C162.664 81.9726 162.612 82.0551 162.583 82.1462C162.554 82.2374 162.548 82.3344 162.566 82.4284L162.79 83.7489C162.808 83.8566 162.796 83.9672 162.754 84.0683C162.713 84.1694 162.644 84.257 162.556 84.3214C162.468 84.3858 162.364 84.4244 162.255 84.433C162.146 84.4416 162.037 84.4197 161.94 84.37L160.75 83.7436C160.669 83.7032 160.579 83.6822 160.489 83.6822C160.398 83.6822 160.309 83.7032 160.228 83.7436L159.038 84.37C158.941 84.4197 158.832 84.4416 158.723 84.433C158.614 84.4244 158.51 84.3858 158.421 84.3214C158.333 84.257 158.265 84.1694 158.223 84.0683C158.182 83.9672 158.17 83.8566 158.187 83.7489L158.412 82.4284C158.43 82.3344 158.424 82.2374 158.395 82.1462C158.365 82.0551 158.314 81.9726 158.245 81.9065L157.284 80.9722C157.207 80.8955 157.152 80.7987 157.126 80.6926C157.1 80.5866 157.104 80.4754 157.138 80.3716C157.171 80.2677 157.233 80.1752 157.316 80.1043C157.399 80.0334 157.5 79.987 157.608 79.9701L158.939 79.777C159.032 79.7637 159.121 79.7277 159.198 79.6722C159.274 79.6167 159.336 79.5434 159.377 79.4586L159.972 78.2529C160.023 78.1604 160.098 78.0833 160.189 78.0296C160.28 77.9759 160.383 77.9475 160.489 77.9475C160.594 77.9475 160.698 77.9759 160.789 78.0296C160.88 78.0833 160.955 78.1604 161.005 78.2529Z" fill="#FFCB34"/>
<path d="M163.347 79.9701L162.016 79.777C161.923 79.7636 161.834 79.7277 161.757 79.6722C161.681 79.6167 161.619 79.5434 161.578 79.4586L160.983 78.2529C160.935 78.1555 160.861 78.0735 160.768 78.0163C160.676 77.9591 160.569 77.9289 160.461 77.9293C160.189 78.979 160.142 80.0742 160.322 81.1434C160.502 82.2126 160.905 83.232 161.505 84.1351L161.948 84.3699C162.045 84.4197 162.155 84.4415 162.263 84.433C162.372 84.4244 162.477 84.3857 162.565 84.3213C162.653 84.257 162.722 84.1693 162.763 84.0683C162.804 83.9672 162.817 83.8566 162.799 83.7488L162.574 82.4284C162.557 82.3343 162.563 82.2373 162.592 82.1462C162.621 82.055 162.672 81.9726 162.742 81.9064L163.702 80.9722C163.78 80.8934 163.835 80.7941 163.859 80.6857C163.883 80.5773 163.876 80.4642 163.839 80.3595C163.802 80.2548 163.736 80.1627 163.649 80.0938C163.562 80.0249 163.457 79.982 163.347 79.9701Z" fill="#FFEC50"/>
<path d="M151.607 78.2529L152.202 79.4586C152.244 79.5434 152.305 79.6167 152.382 79.6722C152.458 79.7277 152.547 79.7637 152.64 79.777L153.971 79.9701C154.079 79.987 154.18 80.0334 154.263 80.1043C154.346 80.1752 154.408 80.2677 154.441 80.3716C154.475 80.4754 154.479 80.5866 154.453 80.6926C154.427 80.7987 154.372 80.8955 154.295 80.9722L153.334 81.9065C153.265 81.9726 153.214 82.0551 153.185 82.1462C153.155 82.2374 153.15 82.3344 153.167 82.4284L153.392 83.7489C153.41 83.8566 153.397 83.9672 153.356 84.0683C153.315 84.1694 153.246 84.257 153.158 84.3214C153.07 84.3858 152.965 84.4244 152.856 84.433C152.747 84.4416 152.638 84.4197 152.541 84.37L151.351 83.7436C151.27 83.7032 151.181 83.6822 151.09 83.6822C151 83.6822 150.91 83.7032 150.829 83.7436L149.64 84.37C149.542 84.4197 149.433 84.4416 149.324 84.433C149.216 84.4244 149.111 84.3858 149.023 84.3214C148.935 84.257 148.866 84.1694 148.825 84.0683C148.784 83.9672 148.771 83.8566 148.789 83.7489L149.013 82.4284C149.031 82.3344 149.025 82.2374 148.996 82.1462C148.967 82.0551 148.915 81.9726 148.846 81.9065L147.886 80.9722C147.808 80.8955 147.754 80.7987 147.728 80.6926C147.702 80.5866 147.706 80.4754 147.739 80.3716C147.773 80.2677 147.835 80.1752 147.918 80.1043C148.001 80.0334 148.102 79.987 148.21 79.9701L149.54 79.777C149.634 79.7637 149.723 79.7277 149.799 79.6722C149.875 79.6167 149.937 79.5434 149.979 79.4586L150.574 78.2529C150.625 78.1604 150.699 78.0833 150.79 78.0296C150.881 77.9759 150.985 77.9475 151.09 77.9475C151.196 77.9475 151.3 77.9759 151.39 78.0296C151.481 78.0833 151.556 78.1604 151.607 78.2529Z" fill="#FFCB34"/>
<path d="M153.952 79.9701L152.622 79.777C152.528 79.7636 152.439 79.7277 152.363 79.6722C152.286 79.6167 152.225 79.5434 152.183 79.4586L151.588 78.2529C151.54 78.1555 151.466 78.0735 151.374 78.0163C151.281 77.9591 151.175 77.9289 151.066 77.9293C150.795 78.979 150.747 80.0742 150.927 81.1434C151.107 82.2126 151.51 83.232 152.11 84.1351L152.554 84.3699C152.651 84.4197 152.76 84.4415 152.869 84.433C152.978 84.4244 153.082 84.3857 153.17 84.3213C153.258 84.257 153.327 84.1693 153.368 84.0683C153.41 83.9672 153.422 83.8566 153.404 83.7488L153.18 82.4284C153.162 82.3343 153.168 82.2373 153.197 82.1462C153.226 82.055 153.278 81.9726 153.347 81.9064L154.307 80.9722C154.386 80.8934 154.44 80.7941 154.464 80.6857C154.489 80.5773 154.482 80.4642 154.445 80.3595C154.408 80.2548 154.342 80.1627 154.255 80.0938C154.168 80.0249 154.063 79.982 153.952 79.9701Z" fill="#FFEC50"/>
<path d="M142.216 78.2529L142.811 79.4586C142.853 79.5434 142.915 79.6167 142.991 79.6722C143.067 79.7277 143.156 79.7637 143.25 79.777L144.58 79.9701C144.688 79.987 144.789 80.0334 144.872 80.1043C144.955 80.1752 145.017 80.2677 145.051 80.3716C145.084 80.4754 145.088 80.5866 145.062 80.6926C145.036 80.7987 144.982 80.8955 144.904 80.9722L143.944 81.9065C143.875 81.9726 143.823 82.0551 143.794 82.1462C143.765 82.2374 143.759 82.3344 143.777 82.4284L144.001 83.7489C144.019 83.8566 144.007 83.9672 143.965 84.0683C143.924 84.1694 143.855 84.257 143.767 84.3214C143.679 84.3858 143.575 84.4244 143.466 84.433C143.357 84.4416 143.248 84.4197 143.151 84.37L141.961 83.7436C141.88 83.7032 141.79 83.6822 141.7 83.6822C141.609 83.6822 141.52 83.7032 141.439 83.7436L140.249 84.37C140.152 84.4197 140.043 84.4416 139.934 84.433C139.825 84.4244 139.721 84.3858 139.632 84.3214C139.544 84.257 139.476 84.1694 139.434 84.0683C139.393 83.9672 139.38 83.8566 139.398 83.7489L139.623 82.4284C139.641 82.3344 139.635 82.2374 139.605 82.1462C139.576 82.0551 139.525 81.9726 139.456 81.9065L138.495 80.9722C138.418 80.8955 138.363 80.7987 138.337 80.6926C138.311 80.5866 138.315 80.4754 138.349 80.3716C138.382 80.2677 138.444 80.1752 138.527 80.1043C138.61 80.0334 138.711 79.987 138.819 79.9701L140.15 79.777C140.243 79.7637 140.332 79.7277 140.408 79.6722C140.485 79.6167 140.547 79.5434 140.588 79.4586L141.183 78.2529C141.234 78.1604 141.309 78.0833 141.4 78.0296C141.491 77.9759 141.594 77.9475 141.7 77.9475C141.805 77.9475 141.909 77.9759 142 78.0296C142.091 78.0833 142.165 78.1604 142.216 78.2529Z" fill="#FFCB34"/>
<path d="M144.562 79.9701L143.231 79.777C143.137 79.7636 143.049 79.7277 142.972 79.6722C142.896 79.6167 142.834 79.5434 142.793 79.4586L142.198 78.2529C142.15 78.1555 142.075 78.0735 141.983 78.0163C141.891 77.9591 141.784 77.9289 141.676 77.9293C141.404 78.979 141.357 80.0742 141.537 81.1434C141.716 82.2126 142.119 83.232 142.72 84.1351L143.163 84.3699C143.26 84.4197 143.369 84.4415 143.478 84.433C143.587 84.4244 143.691 84.3857 143.78 84.3213C143.868 84.257 143.936 84.1693 143.978 84.0683C144.019 83.9672 144.032 83.8566 144.014 83.7488L143.789 82.4284C143.771 82.3343 143.777 82.2373 143.807 82.1462C143.836 82.055 143.887 81.9726 143.956 81.9064L144.917 80.9722C144.995 80.8934 145.049 80.7941 145.074 80.6857C145.098 80.5773 145.091 80.4642 145.054 80.3595C145.017 80.2548 144.951 80.1627 144.864 80.0938C144.777 80.0249 144.672 79.982 144.562 79.9701Z" fill="#FFEC50"/>
<path d="M132.822 78.2529L133.417 79.4586C133.458 79.5434 133.52 79.6167 133.596 79.6722C133.673 79.7277 133.762 79.7637 133.855 79.777L135.186 79.9701C135.294 79.987 135.395 80.0334 135.478 80.1043C135.561 80.1752 135.623 80.2677 135.656 80.3716C135.69 80.4754 135.694 80.5866 135.668 80.6926C135.642 80.7987 135.587 80.8955 135.51 80.9722L134.549 81.9065C134.48 81.9726 134.429 82.0551 134.399 82.1462C134.37 82.2374 134.364 82.3344 134.382 82.4284L134.607 83.7489C134.624 83.8566 134.612 83.9672 134.571 84.0683C134.529 84.1694 134.461 84.257 134.373 84.3214C134.284 84.3858 134.18 84.4244 134.071 84.433C133.962 84.4416 133.853 84.4197 133.756 84.37L132.566 83.7436C132.485 83.7032 132.396 83.6822 132.305 83.6822C132.215 83.6822 132.125 83.7032 132.044 83.7436L130.854 84.37C130.757 84.4197 130.648 84.4416 130.539 84.433C130.43 84.4244 130.326 84.3858 130.238 84.3214C130.15 84.257 130.081 84.1694 130.04 84.0683C129.998 83.9672 129.986 83.8566 130.004 83.7489L130.228 82.4284C130.246 82.3344 130.24 82.2374 130.211 82.1462C130.182 82.0551 130.13 81.9726 130.061 81.9065L129.101 80.9722C129.023 80.8955 128.968 80.7987 128.943 80.6926C128.917 80.5866 128.921 80.4754 128.954 80.3716C128.988 80.2677 129.05 80.1752 129.133 80.1043C129.216 80.0334 129.317 79.987 129.424 79.9701L130.755 79.777C130.849 79.7637 130.938 79.7277 131.014 79.6722C131.09 79.6167 131.152 79.5434 131.194 79.4586L131.789 78.2529C131.839 78.1604 131.914 78.0833 132.005 78.0296C132.096 77.9759 132.2 77.9475 132.305 77.9475C132.411 77.9475 132.514 77.9759 132.605 78.0296C132.696 78.0833 132.771 78.1604 132.822 78.2529Z" fill="#FFCB34"/>
<path d="M135.163 79.9701L133.833 79.777C133.739 79.7636 133.65 79.7277 133.574 79.6722C133.497 79.6167 133.436 79.5434 133.394 79.4586L132.799 78.2529C132.751 78.1555 132.677 78.0735 132.585 78.0163C132.492 77.9591 132.386 77.9289 132.277 77.9293C132.006 78.979 131.958 80.0742 132.138 81.1434C132.318 82.2126 132.721 83.232 133.321 84.1351L133.765 84.3699C133.862 84.4197 133.971 84.4415 134.08 84.433C134.189 84.4244 134.293 84.3857 134.381 84.3213C134.469 84.257 134.538 84.1693 134.579 84.0683C134.621 83.9672 134.633 83.8566 134.615 83.7488L134.391 82.4284C134.373 82.3343 134.379 82.2373 134.408 82.1462C134.437 82.055 134.489 81.9726 134.558 81.9064L135.518 80.9722C135.596 80.8934 135.651 80.7941 135.675 80.6857C135.7 80.5773 135.693 80.4642 135.656 80.3595C135.619 80.2548 135.553 80.1627 135.466 80.0938C135.379 80.0249 135.274 79.982 135.163 79.9701Z" fill="#FFEC50"/>
<path d="M123.427 78.2529L124.022 79.4586C124.064 79.5434 124.126 79.6167 124.202 79.6722C124.278 79.7277 124.367 79.7637 124.461 79.777L125.791 79.9701C125.899 79.987 126 80.0334 126.083 80.1043C126.166 80.1752 126.228 80.2677 126.262 80.3716C126.295 80.4754 126.299 80.5866 126.273 80.6926C126.247 80.7987 126.193 80.8955 126.115 80.9722L125.155 81.9065C125.086 81.9726 125.034 82.0551 125.005 82.1462C124.976 82.2374 124.97 82.3344 124.988 82.4284L125.212 83.7489C125.23 83.8566 125.217 83.9672 125.176 84.0683C125.135 84.1694 125.066 84.257 124.978 84.3214C124.89 84.3858 124.785 84.4244 124.677 84.433C124.568 84.4416 124.459 84.4197 124.361 84.37L123.172 83.7436C123.091 83.7032 123.001 83.6822 122.911 83.6822C122.82 83.6822 122.731 83.7032 122.65 83.7436L121.46 84.37C121.363 84.4197 121.254 84.4416 121.145 84.433C121.036 84.4244 120.931 84.3858 120.843 84.3214C120.755 84.257 120.687 84.1694 120.645 84.0683C120.604 83.9672 120.591 83.8566 120.609 83.7489L120.834 82.4284C120.851 82.3344 120.846 82.2374 120.816 82.1462C120.787 82.0551 120.736 81.9726 120.667 81.9065L119.706 80.9722C119.629 80.8955 119.574 80.7987 119.548 80.6926C119.522 80.5866 119.526 80.4754 119.56 80.3716C119.593 80.2677 119.655 80.1752 119.738 80.1043C119.821 80.0334 119.922 79.987 120.03 79.9701L121.361 79.777C121.454 79.7637 121.543 79.7277 121.619 79.6722C121.696 79.6167 121.757 79.5434 121.799 79.4586L122.394 78.2529C122.445 78.1604 122.52 78.0833 122.611 78.0296C122.701 77.9759 122.805 77.9475 122.911 77.9475C123.016 77.9475 123.12 77.9759 123.211 78.0296C123.302 78.0833 123.376 78.1604 123.427 78.2529Z" fill="#FFCB34"/>
<path d="M125.773 79.9701L124.442 79.777C124.348 79.7636 124.26 79.7277 124.183 79.6722C124.107 79.6167 124.045 79.5434 124.004 79.4586L123.409 78.2529C123.361 78.1555 123.286 78.0735 123.194 78.0163C123.102 77.9591 122.995 77.9289 122.887 77.9293C122.615 78.979 122.568 80.0742 122.748 81.1434C122.927 82.2126 123.33 83.232 123.93 84.1351L124.374 84.3699C124.471 84.4197 124.58 84.4415 124.689 84.433C124.798 84.4244 124.902 84.3857 124.991 84.3213C125.079 84.257 125.147 84.1693 125.189 84.0683C125.23 83.9672 125.242 83.8566 125.225 83.7488L125 82.4284C124.982 82.3343 124.988 82.2373 125.018 82.1462C125.047 82.055 125.098 81.9726 125.167 81.9064L126.128 80.9722C126.206 80.8934 126.26 80.7941 126.285 80.6857C126.309 80.5773 126.302 80.4642 126.265 80.3595C126.228 80.2548 126.162 80.1627 126.075 80.0938C125.988 80.0249 125.883 79.982 125.773 79.9701Z" fill="#FFEC50"/>
<path d="M45.4023 82.4649V78.8114H70.4523L45.4023 82.4649Z" fill="#B6D6F2"/>
<path d="M35.7477 90.8157H11.7414C8.904 90.8157 6.18281 89.6885 4.17647 87.6819C2.17012 85.6754 1.04297 82.9539 1.04297 80.1162C1.04297 77.2785 2.17012 74.557 4.17647 72.5505C6.18281 70.5439 8.904 69.4166 11.7414 69.4166H46.4461V80.1162C46.4461 82.9539 45.3189 85.6754 43.3126 87.6819C41.3063 89.6885 38.5851 90.8157 35.7477 90.8157Z" fill="#D5E7F2"/>
<path d="M40.1859 76.7237H21.9203C21.7819 76.7237 21.6492 76.6687 21.5513 76.5708C21.4534 76.4729 21.3984 76.3402 21.3984 76.2017C21.3984 76.0633 21.4534 75.9306 21.5513 75.8327C21.6492 75.7348 21.7819 75.6798 21.9203 75.6798H40.1859C40.3243 75.6798 40.4571 75.7348 40.555 75.8327C40.6528 75.9306 40.7078 76.0633 40.7078 76.2017C40.7078 76.3402 40.6528 76.4729 40.555 76.5708C40.4571 76.6687 40.3243 76.7237 40.1859 76.7237Z" fill="#B6D6F2"/>
<path d="M30.2703 79.8553H21.9203C21.7819 79.8553 21.6492 79.8003 21.5513 79.7024C21.4534 79.6045 21.3984 79.4718 21.3984 79.3333C21.3984 79.1949 21.4534 79.0622 21.5513 78.9643C21.6492 78.8664 21.7819 78.8114 21.9203 78.8114H30.2703C30.4087 78.8114 30.5415 78.8664 30.6393 78.9643C30.7372 79.0622 30.7922 79.1949 30.7922 79.3333C30.7922 79.4718 30.7372 79.6045 30.6393 79.7024C30.5415 79.8003 30.4087 79.8553 30.2703 79.8553Z" fill="#B6D6F2"/>
<path d="M39.85 81.99L40.1683 82.6424C40.1844 82.6729 40.2074 82.6992 40.2355 82.7192C40.2636 82.7391 40.296 82.7522 40.3301 82.7572L41.0451 82.8616C41.0837 82.8667 41.1202 82.8825 41.1503 82.9073C41.1805 82.9321 41.2031 82.9648 41.2155 83.0017C41.228 83.0387 41.2299 83.0784 41.221 83.1163C41.2121 83.1543 41.1927 83.189 41.1651 83.2165L40.6432 83.7385C40.6184 83.7624 40.5998 83.792 40.5889 83.8247C40.578 83.8574 40.5751 83.8923 40.5806 83.9264L40.7059 84.6414C40.7122 84.6797 40.7078 84.719 40.693 84.7549C40.6783 84.7908 40.6538 84.8219 40.6224 84.8447C40.5909 84.8675 40.5537 84.881 40.515 84.8838C40.4763 84.8867 40.4376 84.8786 40.4032 84.8606L39.7613 84.5214C39.7305 84.5058 39.6966 84.4976 39.6621 84.4976C39.6276 84.4976 39.5937 84.5058 39.5629 84.5214L38.921 84.8606C38.8866 84.8786 38.8479 84.8867 38.8092 84.8838C38.7705 84.881 38.7333 84.8675 38.7018 84.8447C38.6704 84.8219 38.6459 84.7908 38.6312 84.7549C38.6164 84.719 38.612 84.6797 38.6184 84.6414L38.7436 83.9264C38.7491 83.8923 38.7462 83.8574 38.7353 83.8247C38.7244 83.792 38.7058 83.7624 38.681 83.7385L38.1591 83.2165C38.1315 83.189 38.1121 83.1543 38.1032 83.1163C38.0943 83.0784 38.0962 83.0387 38.1087 83.0017C38.1212 82.9648 38.1438 82.9321 38.1739 82.9073C38.204 82.8825 38.2405 82.8667 38.2791 82.8616L38.9941 82.7572C39.0282 82.7522 39.0606 82.7391 39.0887 82.7192C39.1168 82.6992 39.1398 82.6729 39.1559 82.6424L39.4742 81.99C39.4926 81.9562 39.5198 81.928 39.5528 81.9084C39.5859 81.8888 39.6237 81.8784 39.6621 81.8784C39.7006 81.8784 39.7383 81.8888 39.7714 81.9084C39.8044 81.928 39.8316 81.9562 39.85 81.99Z" fill="#B6D6F2"/>
<path d="M35.6742 81.99L35.9925 82.6424C36.0086 82.6729 36.0316 82.6992 36.0597 82.7192C36.0878 82.7391 36.1202 82.7522 36.1543 82.7572L36.8693 82.8616C36.908 82.8667 36.9444 82.8825 36.9745 82.9073C37.0047 82.9321 37.0273 82.9648 37.0398 83.0017C37.0523 83.0387 37.0542 83.0784 37.0452 83.1163C37.0363 83.1543 37.017 83.189 36.9893 83.2165L36.4674 83.7385C36.4426 83.7624 36.424 83.792 36.4131 83.8247C36.4022 83.8574 36.3994 83.8923 36.4048 83.9264L36.5301 84.6414C36.5364 84.6797 36.532 84.719 36.5172 84.7549C36.5025 84.7908 36.478 84.8219 36.4466 84.8447C36.4151 84.8675 36.378 84.881 36.3392 84.8838C36.3005 84.8867 36.2618 84.8786 36.2274 84.8606L35.5855 84.5214C35.5548 84.5058 35.5208 84.4976 35.4863 84.4976C35.4519 84.4976 35.4179 84.5058 35.3872 84.5214L34.7453 84.8606C34.7109 84.8786 34.6721 84.8867 34.6334 84.8838C34.5947 84.881 34.5575 84.8675 34.5261 84.8447C34.4946 84.8219 34.4702 84.7908 34.4554 84.7549C34.4407 84.719 34.4362 84.6797 34.4426 84.6414L34.5678 83.9264C34.5733 83.8923 34.5705 83.8574 34.5596 83.8247C34.5487 83.792 34.53 83.7624 34.5052 83.7385L33.9833 83.2165C33.9557 83.189 33.9363 83.1543 33.9274 83.1163C33.9185 83.0784 33.9204 83.0387 33.9329 83.0017C33.9454 82.9648 33.968 82.9321 33.9981 82.9073C34.0282 82.8825 34.0647 82.8667 34.1034 82.8616L34.8183 82.7572C34.8524 82.7522 34.8848 82.7391 34.9129 82.7192C34.9411 82.6992 34.9641 82.6729 34.9801 82.6424L35.2984 81.99C35.3168 81.9562 35.344 81.928 35.3771 81.9084C35.4101 81.8888 35.4479 81.8784 35.4863 81.8784C35.5248 81.8784 35.5625 81.8888 35.5956 81.9084C35.6286 81.928 35.6558 81.9562 35.6742 81.99Z" fill="#B6D6F2"/>
<path d="M31.5023 81.99L31.8207 82.6424C31.8367 82.6729 31.8597 82.6992 31.8878 82.7192C31.9159 82.7391 31.9484 82.7522 31.9824 82.7572L32.6974 82.8616C32.7361 82.8667 32.7725 82.8825 32.8027 82.9073C32.8328 82.9321 32.8554 82.9648 32.8679 83.0017C32.8804 83.0387 32.8823 83.0784 32.8734 83.1163C32.8645 83.1543 32.8451 83.189 32.8174 83.2165L32.2956 83.7385C32.2708 83.7624 32.2521 83.792 32.2412 83.8247C32.2303 83.8574 32.2275 83.8923 32.2329 83.9264L32.3582 84.6414C32.3646 84.6797 32.3601 84.719 32.3454 84.7549C32.3306 84.7908 32.3062 84.8219 32.2747 84.8447C32.2433 84.8675 32.2061 84.881 32.1674 84.8838C32.1286 84.8867 32.0899 84.8786 32.0555 84.8606L31.4136 84.5214C31.3829 84.5058 31.3489 84.4976 31.3144 84.4976C31.28 84.4976 31.246 84.5058 31.2153 84.5214L30.5734 84.8606C30.539 84.8786 30.5002 84.8867 30.4615 84.8838C30.4228 84.881 30.3856 84.8675 30.3542 84.8447C30.3227 84.8219 30.2983 84.7908 30.2835 84.7549C30.2688 84.719 30.2643 84.6797 30.2707 84.6414L30.3959 83.9264C30.4014 83.8923 30.3986 83.8574 30.3877 83.8247C30.3768 83.792 30.3581 83.7624 30.3333 83.7385L29.8114 83.2165C29.7838 83.189 29.7644 83.1543 29.7555 83.1163C29.7466 83.0784 29.7485 83.0387 29.761 83.0017C29.7735 82.9648 29.7961 82.9321 29.8262 82.9073C29.8564 82.8825 29.8928 82.8667 29.9315 82.8616L30.6464 82.7572C30.6805 82.7522 30.713 82.7391 30.7411 82.7192C30.7692 82.6992 30.7922 82.6729 30.8082 82.6424L31.1266 81.99C31.145 81.9562 31.1721 81.928 31.2052 81.9084C31.2383 81.8888 31.276 81.8784 31.3144 81.8784C31.3529 81.8784 31.3906 81.8888 31.4237 81.9084C31.4568 81.928 31.4839 81.9562 31.5023 81.99Z" fill="#B6D6F2"/>
<path d="M27.3226 81.99L27.641 82.6424C27.657 82.6729 27.68 82.6992 27.7081 82.7192C27.7362 82.7391 27.7687 82.7522 27.8028 82.7572L28.5177 82.8616C28.5564 82.8667 28.5929 82.8825 28.623 82.9073C28.6531 82.9321 28.6757 82.9648 28.6882 83.0017C28.7007 83.0387 28.7026 83.0784 28.6937 83.1163C28.6848 83.1543 28.6654 83.189 28.6378 83.2165L28.1159 83.7385C28.0911 83.7624 28.0724 83.792 28.0615 83.8247C28.0506 83.8574 28.0478 83.8923 28.0533 83.9264L28.1785 84.6414C28.1849 84.6797 28.1804 84.719 28.1657 84.7549C28.1509 84.7908 28.1265 84.8219 28.095 84.8447C28.0636 84.8675 28.0264 84.881 27.9877 84.8838C27.949 84.8867 27.9102 84.8786 27.8758 84.8606L27.2339 84.5214C27.2032 84.5058 27.1692 84.4976 27.1348 84.4976C27.1003 84.4976 27.0663 84.5058 27.0356 84.5214L26.3937 84.8606C26.3593 84.8786 26.3206 84.8867 26.2818 84.8838C26.2431 84.881 26.2059 84.8675 26.1745 84.8447C26.1431 84.8219 26.1186 84.7908 26.1038 84.7549C26.0891 84.719 26.0846 84.6797 26.091 84.6414L26.2163 83.9264C26.2217 83.8923 26.2189 83.8574 26.208 83.8247C26.1971 83.792 26.1784 83.7624 26.1536 83.7385L25.6318 83.2165C25.6041 83.189 25.5848 83.1543 25.5758 83.1163C25.5669 83.0784 25.5688 83.0387 25.5813 83.0017C25.5938 82.9648 25.6164 82.9321 25.6465 82.9073C25.6767 82.8825 25.7131 82.8667 25.7518 82.8616L26.4668 82.7572C26.5009 82.7522 26.5333 82.7391 26.5614 82.7192C26.5895 82.6992 26.6125 82.6729 26.6285 82.6424L26.9469 81.99C26.9653 81.9562 26.9924 81.928 27.0255 81.9084C27.0586 81.8888 27.0963 81.8784 27.1348 81.8784C27.1732 81.8784 27.211 81.8888 27.244 81.9084C27.2771 81.928 27.3042 81.9562 27.3226 81.99Z" fill="#B6D6F2"/>
<path d="M23.1508 81.99L23.4691 82.6424C23.4851 82.6729 23.5082 82.6992 23.5363 82.7192C23.5644 82.7391 23.5968 82.7522 23.6309 82.7572L24.3459 82.8616C24.3845 82.8667 24.421 82.8825 24.4511 82.9073C24.4812 82.9321 24.5038 82.9648 24.5163 83.0017C24.5288 83.0387 24.5307 83.0784 24.5218 83.1163C24.5129 83.1543 24.4935 83.189 24.4659 83.2165L23.944 83.7385C23.9192 83.7624 23.9006 83.792 23.8897 83.8247C23.8788 83.8574 23.8759 83.8923 23.8814 83.9264L24.0066 84.6414C24.013 84.6797 24.0086 84.719 23.9938 84.7549C23.9791 84.7908 23.9546 84.8219 23.9231 84.8447C23.8917 84.8675 23.8545 84.881 23.8158 84.8838C23.7771 84.8867 23.7383 84.8786 23.7039 84.8606L23.062 84.5214C23.0313 84.5058 22.9973 84.4976 22.9629 84.4976C22.9284 84.4976 22.8945 84.5058 22.8637 84.5214L22.2218 84.8606C22.1874 84.8786 22.1487 84.8867 22.11 84.8838C22.0712 84.881 22.0341 84.8675 22.0026 84.8447C21.9712 84.8219 21.9467 84.7908 21.932 84.7549C21.9172 84.719 21.9128 84.6797 21.9191 84.6414L22.0444 83.9264C22.0499 83.8923 22.047 83.8574 22.0361 83.8247C22.0252 83.792 22.0066 83.7624 21.9818 83.7385L21.4599 83.2165C21.4323 83.189 21.4129 83.1543 21.404 83.1163C21.3951 83.0784 21.3969 83.0387 21.4094 83.0017C21.4219 82.9648 21.4445 82.9321 21.4747 82.9073C21.5048 82.8825 21.5413 82.8667 21.5799 82.8616L22.2949 82.7572C22.329 82.7522 22.3614 82.7391 22.3895 82.7192C22.4176 82.6992 22.4406 82.6729 22.4567 82.6424L22.775 81.99C22.7934 81.9562 22.8206 81.928 22.8536 81.9084C22.8867 81.8888 22.9244 81.8784 22.9629 81.8784C23.0013 81.8784 23.0391 81.8888 23.0721 81.9084C23.1052 81.928 23.1324 81.9562 23.1508 81.99Z" fill="#FFCB34"/>
<path d="M34.9648 79.8553H32.8773C32.7389 79.8553 32.6062 79.8003 32.5083 79.7024C32.4105 79.6045 32.3555 79.4718 32.3555 79.3333C32.3555 79.1949 32.4105 79.0622 32.5083 78.9643C32.6062 78.8664 32.7389 78.8114 32.8773 78.8114H34.9648C35.1033 78.8114 35.236 78.8664 35.3339 78.9643C35.4317 79.0622 35.4867 79.1949 35.4867 79.3333C35.4867 79.4718 35.4317 79.6045 35.3339 79.7024C35.236 79.8003 35.1033 79.8553 34.9648 79.8553Z" fill="#B6D6F2"/>
<path d="M12.0031 86.6404C15.75 86.6404 18.7875 83.6026 18.7875 79.8553C18.7875 76.108 15.75 73.0702 12.0031 73.0702C8.25622 73.0702 5.21875 76.108 5.21875 79.8553C5.21875 83.6026 8.25622 86.6404 12.0031 86.6404Z" fill="#DF5A49"/>
<path d="M11.5933 75.539C11.3257 75.2311 10.9681 75.015 10.571 74.9214C10.174 74.8277 9.75755 74.8612 9.38055 75.017L11.0088 76.4837L9.54233 78.0808L8.19589 76.3062C8.05025 76.7129 8.01651 77.1512 8.09822 77.5754C8.17992 77.9996 8.37407 78.3941 8.66036 78.7175C8.97415 79.0756 9.40854 79.3058 9.88097 79.3645C10.3534 79.4232 10.8309 79.3063 11.2228 79.0359L14.7037 83.1696C14.7644 83.242 14.8403 83.3002 14.9259 83.3402C15.0116 83.3801 15.1049 83.4008 15.1995 83.4008C15.294 83.4008 15.3873 83.3801 15.473 83.3402C15.5586 83.3002 15.6345 83.242 15.6952 83.1696C15.8306 83.0222 15.9057 82.8295 15.9057 82.6294C15.9057 82.4293 15.8306 82.2365 15.6952 82.0892L11.9064 78.2948C12.1442 77.859 12.2417 77.3605 12.1857 76.8673C12.1296 76.3741 11.9228 75.9102 11.5933 75.539Z" fill="#FFCB34"/>
<path d="M11.6526 80.9827L14.5803 77.7832L14.7316 77.945L16.1929 76.3479L15.6084 75.7112L14.1419 77.3083L14.288 77.4649L11.3603 80.6591L10.9219 80.1841L8.42737 82.8982L8.71962 83.2165L8.28125 83.6967L8.86575 84.3387L9.30934 83.8585L9.60159 84.1769L12.0909 81.4576L11.6526 80.9827Z" fill="white"/>
<path d="M10.4375 64.1974C16.202 64.1974 20.875 59.5239 20.875 53.7588C20.875 47.9937 16.202 43.3202 10.4375 43.3202C4.67303 43.3202 0 47.9937 0 53.7588C0 59.5239 4.67303 64.1974 10.4375 64.1974Z" fill="#FFCB34"/>
<path d="M10.4361 62.1879C15.0909 62.1879 18.8644 58.4141 18.8644 53.7588C18.8644 49.1035 15.0909 45.3296 10.4361 45.3296C5.78128 45.3296 2.00781 49.1035 2.00781 53.7588C2.00781 58.4141 5.78128 62.1879 10.4361 62.1879Z" fill="#F2B33D"/>
<path d="M10.4399 60.1838C13.9879 60.1838 16.8642 57.3072 16.8642 53.7588C16.8642 50.2104 13.9879 47.3339 10.4399 47.3339C6.89187 47.3339 4.01562 50.2104 4.01562 53.7588C4.01562 57.3072 6.89187 60.1838 10.4399 60.1838Z" fill="#FFCB34"/>
<path d="M11.3797 56.8903V58.049H10.7952V56.9425H10.3829V58.049H9.79844V56.8903C8.14409 56.6816 7.71094 55.763 7.71094 54.7452H9.27656C9.27656 55.1784 9.36528 55.5124 9.82975 55.6638V54.1763C9.30547 54.1073 8.79701 53.9484 8.32675 53.7066C8.1255 53.5677 7.96418 53.3784 7.85887 53.1577C7.75357 52.937 7.70796 52.6926 7.72659 52.4487C7.72659 51.4727 8.45722 50.6846 9.81409 50.4758V49.3171H10.3986V50.4236H10.8109V49.3171H11.3797V50.4758C12.8253 50.695 13.3628 51.5197 13.3628 52.6784H11.8912C11.8912 52.193 11.7816 51.8642 11.3693 51.7128V53.1899C11.8406 53.2493 12.3032 53.3649 12.747 53.5343C12.9959 53.6483 13.2037 53.8362 13.3419 54.0725C13.4801 54.3088 13.5421 54.582 13.5194 54.8548C13.5298 55.8465 12.9662 56.6659 11.3797 56.8903ZM9.81409 52.9341V51.7024C9.67771 51.7387 9.55848 51.8219 9.47735 51.9374C9.39622 52.0529 9.35839 52.1933 9.3705 52.3339C9.35985 52.4404 9.38217 52.5475 9.43444 52.6409C9.48672 52.7342 9.56642 52.8093 9.66275 52.8558C9.69406 52.8819 9.74625 52.908 9.79844 52.9185L9.81409 52.9341ZM10.3986 51.6189V53.0385C10.5291 53.0385 10.67 53.075 10.8109 53.0959V51.6032H10.3986V51.6189ZM10.8109 55.7525V54.3538L10.3986 54.2859V55.763H10.5656C10.6426 55.7591 10.7193 55.7504 10.7952 55.7369L10.8109 55.7525ZM11.8546 55.001C11.8756 54.8885 11.8534 54.7723 11.7925 54.6756C11.7315 54.5788 11.6363 54.5086 11.5258 54.479L11.3849 54.4425V55.6481C11.5305 55.6145 11.6585 55.5281 11.7442 55.4058C11.83 55.2834 11.8674 55.1336 11.8494 54.9853L11.8546 55.001Z" fill="#F2B33D"/>
</g>
<defs>
<clipPath id="clip0_731_11188">
<rect width="167" height="119" fill="white"/>
</clipPath>
</defs>
</svg>
