<svg width="1245" height="105" viewBox="0 0 1245 105" fill="none" xmlns="http://www.w3.org/2000/svg">
<path d="M88.0547 34.635H72.5069C71.9089 31.308 70.7959 28.3803 69.1681 25.8517C67.5402 23.3232 65.5469 21.1773 63.1881 19.414C60.8293 17.6507 58.1882 16.3199 55.2647 15.4216C52.3744 14.5233 49.3013 14.0742 46.0456 14.0742C40.1653 14.0742 34.8996 15.5547 30.2486 18.5157C25.6307 21.4767 21.9763 25.8185 19.2853 31.5409C16.6276 37.2633 15.2987 44.25 15.2987 52.501C15.2987 60.8185 16.6276 67.8384 19.2853 73.5609C21.9763 79.2833 25.6473 83.6084 30.2984 86.5361C34.9495 89.4639 40.1819 90.9278 45.9958 90.9278C49.2183 90.9278 52.2747 90.4953 55.165 89.6303C58.0885 88.732 60.7297 87.4178 63.0884 85.6878C65.4472 83.9577 67.4405 81.8451 69.0684 79.3498C70.7295 76.8213 71.8756 73.9268 72.5069 70.6664L88.0547 70.7163C87.2242 75.7401 85.6129 80.3646 83.2209 84.5899C80.8622 88.7819 77.8224 92.4083 74.1015 95.4691C70.4139 98.4967 66.1947 100.842 61.444 102.506C56.6932 104.169 51.5106 105.001 45.8961 105.001C37.0591 105.001 29.1855 102.905 22.2753 98.713C15.3651 94.4877 9.91675 88.4492 5.93011 80.5975C1.9767 72.7457 0 63.3803 0 52.501C0 41.5884 1.99332 32.2229 5.97995 24.4045C9.96658 16.5528 15.415 10.5309 22.3251 6.3389C29.2353 2.11362 37.0923 0.000976562 45.8961 0.000976562C51.3113 0.000976562 56.361 0.782822 61.0453 2.34651C65.7628 3.87693 69.9986 6.13928 73.7527 9.13358C77.5068 12.0946 80.613 15.721 83.0714 20.0129C85.5299 24.2714 87.1909 29.1455 88.0547 34.635Z" fill="#291943" fill-opacity="0.3"/>
<path d="M101.447 14.673V1.39832H180.432V14.673H148.589V103.604H133.241V14.673H101.447Z" fill="#291943" fill-opacity="0.3"/>
<path d="M197.886 103.604V1.39832H234.264C242.204 1.39832 248.782 2.84556 253.998 5.74004C259.214 8.63453 263.118 12.5937 265.709 17.6174C268.3 22.6079 269.596 28.2305 269.596 34.4853C269.596 40.7733 268.284 46.4292 265.659 51.453C263.068 56.4435 259.148 60.4026 253.899 63.3303C248.683 66.2248 242.121 67.6721 234.215 67.6721H209.198V54.597H232.819C237.836 54.597 241.905 53.732 245.028 52.0019C248.151 50.2386 250.443 47.8432 251.905 44.8156C253.367 41.788 254.098 38.3446 254.098 34.4853C254.098 30.626 253.367 27.1992 251.905 24.2049C250.443 21.2106 248.135 18.865 244.979 17.1683C241.856 15.4715 237.736 14.6231 232.62 14.6231H213.285V103.604H197.886Z" fill="#291943" fill-opacity="0.3"/>
<path d="M376.301 52.501C376.301 63.4135 374.307 72.7957 370.321 80.6474C366.334 88.4658 360.869 94.4877 353.926 98.713C347.016 102.905 339.158 105.001 330.355 105.001C321.518 105.001 313.627 102.905 306.684 98.713C299.774 94.4877 294.326 88.4492 290.339 80.5975C286.352 72.7457 284.359 63.3803 284.359 52.501C284.359 41.5884 286.352 32.2229 290.339 24.4045C294.326 16.5528 299.774 10.5309 306.684 6.3389C313.627 2.11362 321.518 0.000976562 330.355 0.000976562C339.158 0.000976562 347.016 2.11362 353.926 6.3389C360.869 10.5309 366.334 16.5528 370.321 24.4045C374.307 32.2229 376.301 41.5884 376.301 52.501ZM361.052 52.501C361.052 44.1835 359.706 37.1802 357.015 31.491C354.358 25.7686 350.703 21.4435 346.052 18.5157C341.434 15.5547 336.202 14.0742 330.355 14.0742C324.474 14.0742 319.225 15.5547 314.607 18.5157C309.99 21.4435 306.335 25.7686 303.644 31.491C300.986 37.1802 299.658 44.1835 299.658 52.501C299.658 60.8185 300.986 67.8384 303.644 73.5609C306.335 79.25 309.99 83.5751 314.607 86.5361C319.225 89.4639 324.474 90.9278 330.355 90.9278C336.202 90.9278 341.434 89.4639 346.052 86.5361C350.703 83.5751 354.358 79.25 357.015 73.5609C359.706 67.8384 361.052 60.8185 361.052 52.501Z" fill="#291943" fill-opacity="0.3"/>
<path d="M395.499 1.39832H410.748V76.4554H411.694L463.62 1.39832H477.872V103.604H462.474V28.6464H461.527L409.701 103.604H395.499V1.39832Z" fill="#291943" fill-opacity="0.3"/>
<path d="M495.302 14.673V1.39832H574.287V14.673H542.443V103.604H527.095V14.673H495.302Z" fill="#291943" fill-opacity="0.3"/>
<path d="M591.741 103.604V1.39832H655.726V14.673H607.139V45.8137H652.387V59.0385H607.139V90.3289H656.324V103.604H591.741Z" fill="#291943" fill-opacity="0.3"/>
<path d="M668.57 103.604V90.2291L671.56 90.1293C675.614 90.0295 678.803 88.6488 681.128 85.9872C683.487 83.3256 685.198 79.0338 686.261 73.1117C687.358 67.1897 688.088 59.2881 688.454 49.4069L690.198 1.39832H754.732V103.604H739.533V14.4734H704.699L703.105 53.4991C702.673 64.4449 701.576 73.644 699.816 81.0965C698.055 88.5157 695.065 94.1217 690.846 97.9145C686.66 101.707 680.697 103.604 672.956 103.604H668.57Z" fill="#291943" fill-opacity="0.3"/>
<path d="M787.97 42.6198H815.478C823.052 42.6198 829.498 43.8508 834.813 46.3128C840.129 48.7747 844.182 52.2515 846.972 56.7429C849.796 61.2343 851.191 66.5243 851.158 72.6127C851.191 78.7011 849.796 84.0742 846.972 88.732C844.182 93.3898 840.129 97.0328 834.813 99.6611C829.498 102.289 823.052 103.604 815.478 103.604H777.256V1.39832H792.704V90.6284H815.478C819.896 90.6284 823.617 89.7633 826.641 88.0333C829.697 86.3033 832.006 84.0575 833.567 81.2961C835.162 78.5347 835.959 75.5737 835.959 72.413C835.959 67.8218 834.198 63.8793 830.677 60.5856C827.155 57.2586 822.089 55.5951 815.478 55.5951H787.97V42.6198Z" fill="#291943" fill-opacity="0.3"/>
<path d="M954.699 34.635H939.151C938.553 31.308 937.44 28.3803 935.812 25.8517C934.184 23.3232 932.191 21.1773 929.832 19.414C927.473 17.6507 924.832 16.3199 921.908 15.4216C919.018 14.5233 915.945 14.0742 912.689 14.0742C906.809 14.0742 901.543 15.5547 896.892 18.5157C892.275 21.4767 888.62 25.8185 885.929 31.5409C883.271 37.2633 881.943 44.25 881.943 52.501C881.943 60.8185 883.271 67.8384 885.929 73.5609C888.62 79.2833 892.291 83.6084 896.942 86.5361C901.593 89.4639 906.826 90.9278 912.64 90.9278C915.862 90.9278 918.919 90.4953 921.809 89.6303C924.732 88.732 927.373 87.4178 929.732 85.6878C932.091 83.9577 934.084 81.8451 935.712 79.3498C937.373 76.8213 938.519 73.9268 939.151 70.6664L954.699 70.7163C953.868 75.7401 952.257 80.3646 949.865 84.5899C947.506 88.7819 944.466 92.4083 940.745 95.4691C937.058 98.4967 932.839 100.842 928.088 102.506C923.337 104.169 918.154 105.001 912.54 105.001C903.703 105.001 895.829 102.905 888.919 98.713C882.009 94.4877 876.56 88.4492 872.574 80.5975C868.62 72.7457 866.644 63.3803 866.644 52.501C866.644 41.5884 868.637 32.2229 872.624 24.4045C876.61 16.5528 882.059 10.5309 888.969 6.3389C895.879 2.11362 903.736 0.000976562 912.54 0.000976562C917.955 0.000976562 923.005 0.782822 927.689 2.34651C932.407 3.87693 936.642 6.13928 940.396 9.13358C944.151 12.0946 947.257 15.721 949.715 20.0129C952.174 24.2714 953.835 29.1455 954.699 34.635Z" fill="#291943" fill-opacity="0.3"/>
<path d="M968.091 14.673V1.39832H1047.08V14.673H1015.23V103.604H999.884V14.673H968.091Z" fill="#291943" fill-opacity="0.3"/>
<path d="M1064.53 103.604V1.39832H1101.9C1109.15 1.39832 1115.14 2.59603 1119.89 4.99147C1124.65 7.35364 1128.2 10.5642 1130.56 14.6231C1132.92 18.6488 1134.1 23.1901 1134.1 28.2472C1134.1 32.5057 1133.32 36.0989 1131.75 39.0266C1130.19 41.9211 1128.1 44.25 1125.48 46.0133C1122.88 47.7434 1120.03 49.0076 1116.9 49.8061V50.8042C1120.29 50.9706 1123.6 52.0685 1126.82 54.0979C1130.08 56.0941 1132.77 58.9387 1134.89 62.6317C1137.02 66.3246 1138.08 70.8161 1138.08 76.106C1138.08 81.3294 1136.85 86.0205 1134.4 90.1792C1131.97 94.3047 1128.22 97.5818 1123.13 100.01C1118.05 102.406 1111.56 103.604 1103.65 103.604H1064.53ZM1079.93 90.3788H1102.15C1109.53 90.3788 1114.81 88.9482 1118 86.087C1121.19 83.2258 1122.78 79.6493 1122.78 75.3574C1122.78 72.1303 1121.97 69.1692 1120.34 66.4744C1118.72 63.7795 1116.39 61.6336 1113.37 60.0366C1110.38 58.4397 1106.82 57.6412 1102.7 57.6412H1079.93V90.3788ZM1079.93 45.6141H1100.56C1104.01 45.6141 1107.12 44.9487 1109.88 43.6179C1112.67 42.2871 1114.88 40.424 1116.51 38.0285C1118.17 35.5998 1119 32.7386 1119 29.4449C1119 25.2196 1117.52 21.6764 1114.56 18.8151C1111.61 15.9539 1107.07 14.5233 1100.96 14.5233H1079.93V45.6141Z" fill="#291943" fill-opacity="0.3"/>
<path d="M1245 52.501C1245 63.4135 1243.01 72.7957 1239.02 80.6474C1235.03 88.4658 1229.57 94.4877 1222.62 98.713C1215.71 102.905 1207.86 105.001 1199.05 105.001C1190.22 105.001 1182.33 102.905 1175.38 98.713C1168.47 94.4877 1163.02 88.4492 1159.04 80.5975C1155.05 72.7457 1153.06 63.3803 1153.06 52.501C1153.06 41.5884 1155.05 32.2229 1159.04 24.4045C1163.02 16.5528 1168.47 10.5309 1175.38 6.3389C1182.33 2.11362 1190.22 0.000976562 1199.05 0.000976562C1207.86 0.000976562 1215.71 2.11362 1222.62 6.3389C1229.57 10.5309 1235.03 16.5528 1239.02 24.4045C1243.01 32.2229 1245 41.5884 1245 52.501ZM1229.75 52.501C1229.75 44.1835 1228.41 37.1802 1225.71 31.491C1223.06 25.7686 1219.4 21.4435 1214.75 18.5157C1210.13 15.5547 1204.9 14.0742 1199.05 14.0742C1193.17 14.0742 1187.92 15.5547 1183.31 18.5157C1178.69 21.4435 1175.03 25.7686 1172.34 31.491C1169.69 37.1802 1168.36 44.1835 1168.36 52.501C1168.36 60.8185 1169.69 67.8384 1172.34 73.5609C1175.03 79.25 1178.69 83.5751 1183.31 86.5361C1187.92 89.4639 1193.17 90.9278 1199.05 90.9278C1204.9 90.9278 1210.13 89.4639 1214.75 86.5361C1219.4 83.5751 1223.06 79.25 1225.71 73.5609C1228.41 67.8384 1229.75 60.8185 1229.75 52.501Z" fill="#291943" fill-opacity="0.3"/>
</svg>
