<svg width="39" height="30" viewBox="0 0 39 30" fill="none" xmlns="http://www.w3.org/2000/svg">
<path d="M0 29.6335V21.8352C0 19.4669 0.418797 16.9541 1.25639 14.2969C2.12287 11.6108 3.36482 9.02581 4.98224 6.54191C6.62855 4.02912 8.60701 1.84848 10.9176 0L16.4631 4.50568C14.6435 7.10511 13.0549 9.82008 11.6974 12.6506C10.3688 15.4522 9.70455 18.456 9.70455 21.6619V29.6335H0ZM22.1818 29.6335V21.8352C22.1818 19.4669 22.6006 16.9541 23.4382 14.2969C24.3047 11.6108 25.5466 9.02581 27.1641 6.54191C28.8104 4.02912 30.7888 1.84848 33.0994 0L38.6449 4.50568C36.8253 7.10511 35.2367 9.82008 33.8793 12.6506C32.5507 15.4522 31.8864 18.456 31.8864 21.6619V29.6335H22.1818Z" fill="#E63114"/>
</svg>
