<svg width="39" height="41" viewBox="0 0 39 41" fill="none" xmlns="http://www.w3.org/2000/svg">
<path d="M35.4474 11.6113H3.55263C1.59371 11.6113 0 13.2279 0 15.2148V29.6289C0 31.6159 1.59371 33.2324 3.55263 33.2324H35.4474C37.4063 33.2324 39 31.6159 39 29.6289V15.2148C39 13.2279 37.4063 11.6113 35.4474 11.6113ZM9.37429 24.2907C9.07153 24.2907 8.55426 24.2929 8.07008 24.2954V27.0658C8.07008 27.7292 7.53987 28.267 6.88587 28.267C6.23187 28.267 5.70166 27.7292 5.70166 27.0658L5.68421 17.9413C5.68318 17.6222 5.80753 17.3156 6.02968 17.0895C6.25184 16.8633 6.55374 16.7363 6.86842 16.7363H9.37429C11.455 16.7363 13.1479 18.4308 13.1479 20.5135C13.1479 22.5963 11.455 24.2907 9.37429 24.2907ZM19.5402 27.9774C18.8349 27.9899 17.0706 27.9967 16.9959 27.997C16.9944 27.997 16.9929 27.997 16.9914 27.997C16.6789 27.997 16.379 27.8718 16.1571 27.6483C15.9342 27.4239 15.8083 27.1188 15.8072 26.8001C15.8071 26.7681 15.7895 17.9398 15.7895 17.9398C15.7889 17.6209 15.9133 17.3147 16.1355 17.089C16.3577 16.8633 16.6592 16.7363 16.9737 16.7363H19.4471C22.2649 16.7363 24.1581 18.999 24.1581 22.3667C24.1581 25.5703 22.2159 27.93 19.5402 27.9774ZM31.6753 21.0886C32.3293 21.0886 32.8595 21.6264 32.8595 22.2897C32.8595 22.9531 32.3293 23.4909 31.6753 23.4909H29.5263V26.9062C29.5263 27.5696 28.9961 28.1074 28.3421 28.1074C27.6881 28.1074 27.1579 27.5696 27.1579 26.9062V17.8448C27.1579 17.1814 27.6881 16.6436 28.3421 16.6436H31.9629C32.6169 16.6436 33.1471 17.1814 33.1471 17.8448C33.1471 18.5081 32.6169 19.0459 31.9629 19.0459H29.5263V21.0886H31.6753Z" fill="#E63114"/>
<path d="M19.4471 19.1387H18.16C18.1618 20.2229 18.1683 24.5451 18.1716 25.5884C18.6644 25.5852 19.1921 25.5808 19.4988 25.5754C21.0813 25.5473 21.7897 23.9436 21.7897 22.3667C21.7896 21.6094 21.6208 19.1387 19.4471 19.1387Z" fill="#E63114"/>
<path d="M9.37429 19.1387H8.05618C8.0576 19.6732 8.05895 20.2418 8.05895 20.5135C8.05895 20.831 8.06116 21.3817 8.06368 21.8931C8.54968 21.8906 9.06884 21.8884 9.37437 21.8884C10.1361 21.8884 10.7796 21.2588 10.7796 20.5135C10.7796 19.7682 10.136 19.1387 9.37429 19.1387Z" fill="#E63114"/>
<path d="M34.2201 9.20898C33.9456 8.44584 33.5193 7.74051 32.9548 7.13656L28.036 1.87375C26.923 0.682986 25.3569 0 23.7391 0H7.97368C6.01476 0 4.42105 1.61654 4.42105 3.60352V9.20898H34.2201Z" fill="#E63114"/>
<path d="M4.42105 35.6348V37.3965C4.42105 39.3835 6.01476 41 7.97368 41H31.0263C32.9852 41 34.5789 39.3835 34.5789 37.3965V35.6348H4.42105Z" fill="#E63114"/>
</svg>
