<svg width="398" height="222" viewBox="0 0 398 222" fill="none" xmlns="http://www.w3.org/2000/svg">
<path d="M340.795 215.56H0L32.3001 189.852H308.491L340.795 215.56Z" fill="white"/>
<path d="M127.387 213.075C126.293 213.075 125.827 212.044 126.343 210.802L128.656 205.214C129.109 204.123 130.278 203.254 131.273 203.254H209.817C210.809 203.254 211.985 204.123 212.438 205.214L214.751 210.802C215.266 212.044 214.804 213.075 213.71 213.075H127.387Z" fill="#B3B3B3"/>
<path d="M213.329 212.114H127.762C127.128 212.114 126.857 211.523 127.148 210.792L129.411 205.205C129.538 204.893 129.746 204.621 130.015 204.418C130.284 204.216 130.603 204.09 130.938 204.055H210.133C210.469 204.09 210.788 204.215 211.058 204.418C211.327 204.62 211.536 204.892 211.663 205.205L213.937 210.792C214.231 211.523 213.96 212.114 213.329 212.114Z" fill="#F2F2F2"/>
<path d="M299.831 200.763H41.9688L52.2123 192.016H289.505L299.831 200.763Z" fill="#BABABA"/>
<path d="M0 215.56V219.327C-5.412e-07 220.035 0.281187 220.714 0.7818 221.216C1.28241 221.717 1.96151 221.999 2.66992 222H338.122C338.83 221.999 339.509 221.717 340.01 221.216C340.51 220.714 340.792 220.035 340.792 219.327V215.56H0Z" fill="#203E63"/>
<path d="M308.492 4.05444V185.497C308.492 186.029 308.388 186.556 308.184 187.048C307.981 187.54 307.682 187.987 307.306 188.363C306.93 188.74 306.483 189.039 305.991 189.242C305.5 189.446 304.973 189.551 304.44 189.551H36.3513C35.276 189.551 34.2448 189.124 33.4844 188.364C32.724 187.603 32.2969 186.572 32.2969 185.497V4.05444C32.2969 2.97914 32.724 1.94788 33.4844 1.18752C34.2448 0.427167 35.276 0 36.3513 0H304.444C304.976 0.000433757 305.502 0.105653 305.994 0.309642C306.485 0.513632 306.931 0.812395 307.307 1.18888C307.683 1.56538 307.981 2.01222 308.184 2.50389C308.388 2.99556 308.492 3.52244 308.492 4.05444Z" fill="#20113A"/>
<path d="M300.478 8.51172H40.3125V181.035H300.478V8.51172Z" fill="#73C6CE"/>
<path d="M300.478 8.51172H40.3125V181.035H300.478V8.51172Z" fill="#301D4E"/>
<path d="M289.573 55.1929H232.781V170.135H289.573V55.1929Z" fill="white"/>
<path d="M226.753 55.1929H51.2188V170.135H226.753V55.1929Z" fill="white"/>
<path d="M291.523 24.0397V44.4309C291.523 46.9785 289.709 49.057 287.469 49.057H53.9958C51.7555 49.057 49.9414 46.995 49.9414 44.4309V24.0397C49.9414 21.492 51.7555 19.4136 53.9958 19.4136H287.469C289.709 19.4136 291.523 21.4821 291.523 24.0397Z" fill="#CCCCCC"/>
<path d="M53.9935 47.6925C52.4967 47.6925 51.2773 46.2253 51.2773 44.4212V24.0399C51.2773 22.2357 52.4967 20.7686 53.9935 20.7686H287.466C288.963 20.7686 290.179 22.2357 290.179 24.0399V44.4311C290.179 46.2353 288.963 47.7024 287.466 47.7024L53.9935 47.6925Z" fill="white"/>
<path d="M291.522 24.0397V44.4309C291.522 46.9785 289.708 49.057 287.468 49.057H259.711V19.4136H287.468C289.708 19.4136 291.522 21.4821 291.522 24.0397Z" fill="#E63114"/>
<path d="M281.662 36.2296C282.432 35.4556 282.964 34.4765 283.193 33.4089C283.423 32.3413 283.341 31.2302 282.957 30.2079C282.573 29.1857 281.903 28.2954 281.027 27.643C280.151 26.9906 279.107 26.6037 278.017 26.5283C276.928 26.4528 275.84 26.6921 274.883 27.2176C273.925 27.7431 273.139 28.5326 272.618 29.4922C272.097 30.4517 271.862 31.5409 271.943 32.63C272.023 33.719 272.414 34.762 273.071 35.6349L273.031 35.6712L268.107 40.5947C268.034 40.668 267.976 40.7551 267.936 40.851C267.896 40.9469 267.875 41.0497 267.875 41.1536C267.875 41.2575 267.895 41.3604 267.935 41.4564C267.974 41.5524 268.032 41.6397 268.106 41.7132C268.179 41.7868 268.266 41.8452 268.362 41.885C268.458 41.9249 268.561 41.9455 268.665 41.9457C268.769 41.9458 268.871 41.9255 268.968 41.8859C269.064 41.8463 269.151 41.7882 269.224 41.7149L274.151 36.7914L274.188 36.7484C275.286 37.5796 276.648 37.985 278.022 37.8896C279.396 37.7943 280.689 37.2046 281.662 36.2296ZM274.723 35.1128C274.147 34.5372 273.754 33.8036 273.595 33.0047C273.435 32.2059 273.517 31.3778 273.828 30.6252C274.139 29.8726 274.667 29.2293 275.344 28.7766C276.022 28.324 276.818 28.0824 277.632 28.0824C278.447 28.0824 279.243 28.324 279.92 28.7766C280.597 29.2293 281.125 29.8726 281.437 30.6252C281.748 31.3778 281.829 32.2059 281.67 33.0047C281.511 33.8036 281.118 34.5372 280.542 35.1128C279.769 35.883 278.723 36.3155 277.632 36.3155C276.542 36.3155 275.495 35.883 274.723 35.1128Z" fill="white"/>
<path d="M63.3945 36.5958L65.0038 36.2654C65.1998 37.1796 65.9411 37.6367 67.2276 37.6367C67.7065 37.6673 68.1825 37.5434 68.5857 37.2831C68.731 37.1892 68.8505 37.0606 68.9336 36.9088C69.0167 36.7571 69.0607 36.587 69.0615 36.4141C69.0632 36.1651 68.9882 35.9217 68.8467 35.7168C68.606 35.4488 68.2806 35.2715 67.9248 35.2146L66.1636 34.7553C65.6961 34.6524 65.2492 34.4714 64.8418 34.22C64.5405 34.0045 64.302 33.7124 64.1512 33.374C63.9793 33.0094 63.8912 32.6108 63.8935 32.2076C63.8794 31.8284 63.9549 31.4513 64.1139 31.1068C64.273 30.7623 64.511 30.4602 64.8088 30.225C65.4784 29.7074 66.3093 29.443 67.1549 29.4782C67.8938 29.4661 68.6233 29.6448 69.273 29.997C69.5632 30.1456 69.8192 30.3531 70.0246 30.6063C70.23 30.8595 70.3803 31.1528 70.4659 31.4674L68.8864 31.8573C68.6452 31.1601 68.0768 30.8132 67.1879 30.8132C66.7677 30.7875 66.3511 30.9039 66.005 31.1436C65.8759 31.2378 65.7716 31.3619 65.7008 31.5051C65.63 31.6484 65.595 31.8066 65.5985 31.9664C65.5985 32.4907 66.0248 32.8586 66.8773 33.0701L68.4436 33.4633C69.3886 33.7012 70.0264 34.0514 70.3502 34.5174C70.6687 34.9674 70.8386 35.5058 70.8359 36.0572C70.8522 36.4692 70.7678 36.879 70.5898 37.251C70.4119 37.6229 70.1459 37.9459 69.8149 38.1918C69.0445 38.7373 68.1144 39.0105 67.1714 38.9683C66.3368 38.9884 65.5113 38.7914 64.7758 38.3967C64.4329 38.2091 64.133 37.9521 63.8951 37.642C63.6573 37.3319 63.4868 36.9755 63.3945 36.5958Z" fill="#2A1A46"/>
<path d="M78.9184 38.8257H72.9375V29.623H78.8556V30.9778H74.5963V33.4726H78.0196V34.7944H74.5963V37.3685H78.9184V38.8257Z" fill="#2A1A46"/>
<path d="M88.2531 38.8257H86.4787L85.7451 36.6349H82.2061L81.4858 38.8257H80.0781L83.1313 29.623H85.1734L88.2531 38.8257ZM85.299 35.3065L83.9574 31.1992L82.6159 35.3065H85.299Z" fill="#2A1A46"/>
<path d="M97.2218 38.8257H95.4672L94.0397 35.0422H91.7069V38.8257H90.0547V29.623H94.0463C95.1478 29.623 95.9629 29.8742 96.4916 30.3764C96.7514 30.627 96.9554 30.9296 97.0903 31.2644C97.2253 31.5992 97.2881 31.9587 97.2747 32.3194C97.3045 32.8507 97.159 33.3772 96.8605 33.8178C96.562 34.2584 96.1271 34.5887 95.6225 34.758L97.2218 38.8257ZM91.7069 33.7138H93.7688C94.24 33.7479 94.7081 33.6144 95.0905 33.3371C95.2398 33.2099 95.3581 33.0503 95.4366 32.8706C95.515 32.6908 95.5515 32.4955 95.5432 32.2996C95.5507 32.1124 95.5156 31.9259 95.4407 31.7542C95.3657 31.5825 95.2528 31.43 95.1104 31.3083C94.767 31.0415 94.3383 30.9088 93.9043 30.9349H91.7069V33.7138Z" fill="#2A1A46"/>
<path d="M104.658 35.6304L106.195 35.7989C106.123 36.6608 105.743 37.4679 105.124 38.0723C104.802 38.3751 104.422 38.6101 104.007 38.7634C103.592 38.9166 103.151 38.985 102.709 38.9645C101.975 38.9977 101.251 38.7746 100.663 38.3334C100.115 37.877 99.6973 37.2828 99.4541 36.6118C99.1626 35.8483 99.0179 35.0366 99.0278 34.2194C99.0278 32.8184 99.3583 31.6784 100.019 30.7994C100.313 30.4317 100.678 30.1269 101.092 29.903C101.506 29.6792 101.961 29.541 102.43 29.4966C102.898 29.4522 103.371 29.5025 103.82 29.6446C104.268 29.7867 104.684 30.0176 105.042 30.3236C105.691 30.9709 106.097 31.8233 106.188 32.7358L104.652 32.8977C104.368 31.5099 103.743 30.8159 102.778 30.8159C102.48 30.8115 102.187 30.8901 101.932 31.043C101.676 31.196 101.468 31.4171 101.331 31.6817C100.987 32.261 100.815 33.0981 100.815 34.193C100.815 35.2878 100.999 36.1293 101.367 36.7175C101.514 36.9767 101.727 37.1922 101.984 37.342C102.241 37.4918 102.533 37.5705 102.831 37.57C103.067 37.5716 103.3 37.5212 103.514 37.4224C103.729 37.3236 103.918 37.1788 104.07 36.9984C104.413 36.6206 104.62 36.1392 104.658 35.6304Z" fill="#2A1A46"/>
<path d="M115.031 38.8257H113.378V34.8274H109.859V38.8257H108.207V29.623H109.859V33.4032H113.372V29.623H115.024L115.031 38.8257Z" fill="#2A1A46"/>
<path d="M118.438 37.5867C118.437 37.3106 118.518 37.0406 118.671 36.8108C118.824 36.5809 119.042 36.4017 119.297 36.2957C119.552 36.1898 119.832 36.1619 120.103 36.2156C120.374 36.2693 120.623 36.4022 120.818 36.5974C121.013 36.7926 121.146 37.0414 121.2 37.3122C121.253 37.583 121.226 37.8636 121.12 38.1186C121.014 38.3735 120.834 38.5913 120.605 38.7442C120.375 38.8972 120.105 38.9785 119.829 38.9779C119.46 38.9779 119.106 38.8313 118.845 38.5704C118.584 38.3095 118.438 37.9557 118.438 37.5867Z" fill="#2A1A46"/>
<path d="M125.215 38.9681C125.985 38.9681 126.609 38.3438 126.609 37.5736C126.609 36.8035 125.985 36.1792 125.215 36.1792C124.445 36.1792 123.82 36.8035 123.82 37.5736C123.82 38.3438 124.445 38.9681 125.215 38.9681Z" fill="#2A1A46"/>
<path d="M130.609 38.9681C131.379 38.9681 132.004 38.3438 132.004 37.5736C132.004 36.8035 131.379 36.1792 130.609 36.1792C129.839 36.1792 129.215 36.8035 129.215 37.5736C129.215 38.3438 129.839 38.9681 130.609 38.9681Z" fill="#2A1A46"/>
<path d="M91.707 135.367H67.1094V159.307H91.707V135.367Z" fill="#44345F"/>
<path d="M121.863 123.586H97.2656V159.309H121.863V123.586Z" fill="#44345F"/>
<path d="M152.027 104.51H127.43V159.306H152.027V104.51Z" fill="#44345F"/>
<path d="M182.184 116.535H157.586V159.307H182.184V116.535Z" fill="#44345F"/>
<path d="M212.344 92.8618H187.746V159.306H212.344V92.8618Z" fill="#E63114"/>
<path d="M280.194 61.9702H242.161C241.192 61.9702 240.406 62.7558 240.406 63.7248V89.9185C240.406 90.8875 241.192 91.6731 242.161 91.6731H280.194C281.163 91.6731 281.949 90.8875 281.949 89.9185V63.7248C281.949 62.7558 281.163 61.9702 280.194 61.9702Z" fill="#E63114"/>
<path d="M281.377 95.9878H241.001C240.848 95.9878 240.702 95.9272 240.594 95.8194C240.486 95.7116 240.426 95.5653 240.426 95.4128C240.426 95.2604 240.486 95.1141 240.594 95.0063C240.702 94.8985 240.848 94.8379 241.001 94.8379H281.393C281.546 94.8379 281.692 94.8985 281.8 95.0063C281.908 95.1141 281.968 95.2604 281.968 95.4128C281.968 95.4898 281.953 95.5659 281.923 95.6368C281.893 95.7076 281.849 95.7718 281.794 95.8254C281.739 95.879 281.673 95.921 281.602 95.9489C281.53 95.9768 281.454 95.99 281.377 95.9878Z" fill="#E2E2E2"/>
<path d="M281.377 99.4805H241.001C240.848 99.4805 240.702 99.4199 240.594 99.3121C240.486 99.2042 240.426 99.058 240.426 98.9055C240.426 98.753 240.486 98.6068 240.594 98.499C240.702 98.3911 240.848 98.3306 241.001 98.3306H281.393C281.546 98.3306 281.692 98.3911 281.8 98.499C281.908 98.6068 281.968 98.753 281.968 98.9055C281.968 98.9824 281.953 99.0586 281.923 99.1294C281.893 99.2003 281.849 99.2644 281.794 99.318C281.739 99.3716 281.673 99.4136 281.602 99.4416C281.53 99.4695 281.454 99.4827 281.377 99.4805Z" fill="#E2E2E2"/>
<path d="M271.058 101.827H251.302C251.079 101.827 250.898 102.008 250.898 102.23V102.574C250.898 102.797 251.079 102.977 251.302 102.977H271.058C271.281 102.977 271.461 102.797 271.461 102.574V102.23C271.461 102.008 271.281 101.827 271.058 101.827Z" fill="#E2E2E2"/>
<path d="M266.991 76.8231L258.277 71.7905V81.8523L266.991 76.8231Z" fill="white"/>
<path d="M261.18 86.2536C259.314 86.2536 257.49 85.7003 255.938 84.6635C254.387 83.6267 253.178 82.1532 252.464 80.4291C251.75 78.7051 251.563 76.8081 251.928 74.978C252.292 73.1479 253.191 71.4669 254.51 70.1477C255.83 68.8285 257.511 67.9302 259.342 67.5666C261.172 67.203 263.069 67.3903 264.793 68.1048C266.516 68.8194 267.989 70.029 269.026 71.5809C270.062 73.1327 270.615 74.957 270.614 76.823C270.61 79.3236 269.615 81.7208 267.847 83.4888C266.078 85.2567 263.681 86.251 261.18 86.2536ZM261.18 67.9706C259.429 67.9706 257.718 68.4898 256.262 69.4625C254.806 70.4352 253.672 71.8178 253.002 73.4353C252.331 75.0529 252.156 76.8328 252.498 78.55C252.839 80.2672 253.682 81.8445 254.92 83.0826C256.158 84.3206 257.736 85.1637 259.453 85.5053C261.17 85.8468 262.95 85.6715 264.568 85.0015C266.185 84.3315 267.568 83.1969 268.541 81.7411C269.513 80.2853 270.032 78.5738 270.032 76.823C270.025 74.4789 269.09 72.233 267.431 70.577C265.772 68.921 263.524 67.9897 261.18 67.9871V67.9706Z" fill="white"/>
<path d="M280.194 110.306H242.161C241.192 110.306 240.406 111.092 240.406 112.061V138.254C240.406 139.223 241.192 140.009 242.161 140.009H280.194C281.163 140.009 281.949 139.223 281.949 138.254V112.061C281.949 111.092 281.163 110.306 280.194 110.306Z" fill="#44345F"/>
<path d="M281.377 144.318H241.001C240.848 144.318 240.702 144.258 240.594 144.15C240.486 144.042 240.426 143.896 240.426 143.743C240.426 143.591 240.486 143.445 240.594 143.337C240.702 143.229 240.848 143.168 241.001 143.168H281.393C281.546 143.168 281.692 143.229 281.8 143.337C281.908 143.445 281.968 143.591 281.968 143.743C281.968 143.82 281.953 143.896 281.923 143.967C281.893 144.038 281.849 144.102 281.794 144.156C281.739 144.21 281.673 144.252 281.602 144.279C281.53 144.307 281.454 144.321 281.377 144.318Z" fill="#E2E2E2"/>
<path d="M281.377 147.817H241.001C240.848 147.817 240.702 147.756 240.594 147.649C240.486 147.541 240.426 147.394 240.426 147.242C240.426 147.089 240.486 146.943 240.594 146.835C240.702 146.728 240.848 146.667 241.001 146.667H281.393C281.546 146.667 281.692 146.728 281.8 146.835C281.908 146.943 281.968 147.089 281.968 147.242C281.968 147.319 281.953 147.395 281.923 147.466C281.893 147.537 281.849 147.601 281.794 147.654C281.739 147.708 281.673 147.75 281.602 147.778C281.53 147.806 281.454 147.819 281.377 147.817Z" fill="#E2E2E2"/>
<path d="M271.058 150.163H251.302C251.079 150.163 250.898 150.344 250.898 150.566V150.91C250.898 151.133 251.079 151.313 251.302 151.313H271.058C271.281 151.313 271.461 151.133 271.461 150.91V150.566C271.461 150.344 271.281 150.163 271.058 150.163Z" fill="#E2E2E2"/>
<path d="M252.556 127.572L243.172 137.977H261.937L252.556 127.572Z" fill="white"/>
<path d="M270.565 121.531L261.184 137.977H279.949L270.565 121.531Z" fill="white"/>
<path d="M256.372 124.657C258.098 124.657 259.498 123.257 259.498 121.531C259.498 119.804 258.098 118.405 256.372 118.405C254.646 118.405 253.246 119.804 253.246 121.531C253.246 123.257 254.646 124.657 256.372 124.657Z" fill="white"/>
<path d="M307.892 97.0824L319.276 108.449C318.638 110.202 318.315 112.053 318.321 113.918L379.207 174.718C380.269 175.791 381.614 176.539 383.086 176.876C384.557 177.213 386.094 177.125 387.517 176.622L387.57 176.598C388.659 176.198 389.701 175.68 390.676 175.052C391.438 174.563 392.158 174.01 392.827 173.4C393.006 173.238 393.178 173.069 393.346 172.904C394.982 171.267 396.243 169.294 397.04 167.122L397.06 167.069C397.564 165.645 397.652 164.107 397.314 162.636C396.975 161.164 396.225 159.819 395.15 158.758L334.267 97.958C332.398 97.9581 330.544 98.2869 328.789 98.9295L317.409 87.5592L315.066 85.2197L312.323 87.9656L311.897 88.3919L308.728 91.5641L305.562 94.733L307.892 97.0824Z" fill="#051320"/>
<path d="M238.063 92.6645C247.304 101.923 259.657 107.417 272.722 108.079C273.59 108.13 274.457 108.154 275.323 108.152C277.285 108.159 279.247 108.056 281.198 107.845L281.456 107.818C281.842 107.772 282.226 107.729 282.609 107.676L282.867 107.64C284.816 107.366 286.749 106.984 288.656 106.497C289.502 106.282 290.344 106.041 291.18 105.783C297.228 103.913 302.888 100.965 307.887 97.0824C309.664 95.7047 311.351 94.2159 312.94 92.6248C313.6 91.964 314.225 91.3031 314.836 90.6422C315.733 89.6487 316.585 88.6288 317.394 87.5824C325.345 77.2906 329.231 64.4325 328.311 51.4594C327.391 38.4863 321.729 26.3055 312.404 17.2391C303.08 8.17264 290.745 2.85464 277.751 2.29889C264.757 1.74314 252.013 5.98851 241.949 14.2257C240.597 15.3359 239.285 16.5387 238.027 17.7845C236.768 19.0302 235.608 20.3255 234.514 21.6605C226.191 31.8269 221.945 44.7243 222.601 57.8466C223.257 70.9688 228.768 83.3786 238.063 92.6645ZM232.604 67.3961C230.487 59.9615 230.34 52.1044 232.176 44.5956C234.012 37.0868 237.769 30.1845 243.078 24.5658C248.387 18.9472 255.065 14.8053 262.458 12.5467C269.851 10.2881 277.704 9.99033 285.246 11.6826C292.789 13.3749 299.762 16.9991 305.481 22.1995C311.2 27.4 315.469 33.998 317.869 41.3461C320.268 48.6943 320.716 56.5401 319.168 64.1136C317.621 71.6871 314.131 78.7281 309.04 84.5457C308.397 85.2837 307.724 86.0029 307.022 86.7034C302.314 91.4289 296.603 95.0329 290.311 97.2476C289.483 97.5428 288.645 97.8105 287.797 98.0506C285.887 98.5966 283.943 99.0161 281.978 99.3063L281.756 99.336C281.376 99.3889 280.996 99.4384 280.613 99.4814L280.395 99.5045C278.428 99.7219 276.449 99.8091 274.47 99.7656C273.598 99.7457 272.732 99.7028 271.863 99.6268C262.818 98.8861 254.213 95.4038 247.198 89.6449C240.183 83.8859 235.092 76.1243 232.604 67.3961Z" fill="#051320"/>
<g style="mix-blend-mode:multiply" opacity="0.05">
<path d="M243.642 87.0934C249.949 93.3948 257.983 97.6842 266.729 99.4193C275.474 101.154 284.537 100.257 292.773 96.8411C301.008 93.4251 308.046 87.6437 312.995 80.228C317.945 72.8123 320.584 64.0954 320.579 55.1797C320.575 46.264 317.926 37.5498 312.969 30.1393C308.012 22.7287 300.968 16.9546 292.73 13.5471C284.491 10.1396 275.426 9.25185 266.683 10.996C257.939 12.7401 249.91 17.0379 243.609 23.3458C239.425 27.5336 236.107 32.5044 233.844 37.9745C231.582 43.4446 230.419 49.3069 230.422 55.2264C230.425 61.146 231.594 67.007 233.862 72.4748C236.131 77.9425 239.454 82.91 243.642 87.0934ZM232.618 67.3961C229.656 56.9625 230.599 45.807 235.27 36.0184C239.941 26.2299 248.02 18.4796 257.994 14.2188C267.968 9.95797 279.153 9.47889 289.454 12.8712C299.756 16.2635 308.468 23.2947 313.959 32.648C319.45 42.0013 321.343 53.0353 319.284 63.684C317.225 74.3327 311.355 83.8657 302.773 90.498C294.192 97.1303 283.487 100.407 272.663 99.7147C261.839 99.0223 251.639 94.4082 243.972 86.7365C238.595 81.365 234.68 74.7072 232.602 67.3961H232.618Z" fill="#999999"/>
</g>
<path style="mix-blend-mode:multiply" opacity="0.3" d="M232.607 67.3953C235.282 76.8077 240.979 85.0787 248.819 90.9324C256.66 96.7862 266.209 99.8973 275.994 99.7859C285.778 99.6746 295.254 96.3469 302.959 90.3162C310.665 84.2856 316.172 75.887 318.631 66.4162C321.09 56.9453 320.365 46.9284 316.567 37.9107C312.769 28.893 306.109 21.3755 297.615 16.5179C289.121 11.6604 279.265 9.73263 269.566 11.0321C259.868 12.3316 250.867 16.786 243.951 23.7083C238.323 29.3083 234.302 36.3163 232.306 44.0008C230.311 51.6854 230.415 59.7646 232.607 67.3953Z" fill="url(#paint0_radial_731_11437)"/>
<g style="mix-blend-mode:lighten" opacity="0.3">
<path d="M302.36 29.0784C303.872 25.9114 300.841 21.3122 295.591 18.8057C290.341 16.2991 284.859 16.8345 283.347 20.0015C281.835 23.1685 284.866 27.7678 290.116 30.2743C295.366 32.7808 300.848 32.2454 302.36 29.0784Z" fill="white"/>
</g>
<g style="mix-blend-mode:lighten" opacity="0.1">
<path d="M243.974 86.7363C249.447 92.2004 256.247 96.1469 263.707 98.1881C271.167 100.229 279.029 100.295 286.522 98.3789C294.014 96.4627 300.88 92.6306 306.443 87.2588C312.007 81.887 316.078 75.1603 318.256 67.7395C310.547 59.581 297.286 53.2202 281.667 51.188C259.131 48.257 239.041 55.2986 232.594 67.3959C234.668 74.711 238.587 81.3707 243.974 86.7363Z" fill="white"/>
</g>
<path d="M79.7372 114.393L79.0664 112.53L109.014 101.774L139.606 70.3826L169.824 91.9436L199.395 66.4009L200.69 67.901L169.943 94.4648L139.84 72.9832L110.114 103.482L79.7372 114.393Z" fill="#E63114"/>
<path d="M79.4075 118.709C82.3055 118.709 84.6548 116.36 84.6548 113.462C84.6548 110.564 82.3055 108.214 79.4075 108.214C76.5095 108.214 74.1602 110.564 74.1602 113.462C74.1602 116.36 76.5095 118.709 79.4075 118.709Z" fill="#E63114"/>
<path d="M109.564 108.225C112.462 108.225 114.811 105.875 114.811 102.977C114.811 100.079 112.462 97.73 109.564 97.73C106.666 97.73 104.316 100.079 104.316 102.977C104.316 105.875 106.666 108.225 109.564 108.225Z" fill="#E63114"/>
<path d="M139.724 77.0376C142.622 77.0376 144.971 74.6883 144.971 71.7903C144.971 68.8923 142.622 66.543 139.724 66.543C136.826 66.543 134.477 68.8923 134.477 71.7903C134.477 74.6883 136.826 77.0376 139.724 77.0376Z" fill="#E63114"/>
<path d="M169.888 98.1094C172.786 98.1094 175.135 95.7601 175.135 92.8621C175.135 89.9641 172.786 87.6147 169.888 87.6147C166.99 87.6147 164.641 89.9641 164.641 92.8621C164.641 95.7601 166.99 98.1094 169.888 98.1094Z" fill="#E63114"/>
<path d="M205.3 68.0019C205.763 65.1328 203.813 62.4311 200.944 61.9675C198.075 61.5038 195.374 63.4537 194.91 66.3227C194.446 69.1918 196.396 71.8935 199.265 72.3571C202.134 72.8208 204.836 70.8709 205.3 68.0019Z" fill="#2565AE"/>
<path d="M63.393 77.626H59.0742L63.393 82.3975L67.7085 77.626H63.393Z" fill="#4AA1D6"/>
<path d="M63.393 68.9249H59.0742L63.393 64.1567L67.7085 68.9249H63.393Z" fill="#EC596F"/>
<path d="M90.0486 64.5503H71.5078V68.5321H90.0486V64.5503Z" fill="#E6E6E6"/>
<path d="M90.0486 78.022H71.5078V82.0037H90.0486V78.022Z" fill="#E6E6E6"/>
<defs>
<radialGradient id="paint0_radial_731_11437" cx="0" cy="0" r="1" gradientUnits="userSpaceOnUse" gradientTransform="translate(276.593 51.6745) rotate(174.232) scale(44.3513 44.3513)">
<stop stop-color="white"/>
<stop offset="0.38" stop-color="#FDFDFD"/>
<stop offset="0.52" stop-color="#F6F6F6"/>
<stop offset="0.62" stop-color="#EAEAEA"/>
<stop offset="0.69" stop-color="#DADADA"/>
<stop offset="0.76" stop-color="#C4C4C4"/>
<stop offset="0.82" stop-color="#A8A8A8"/>
<stop offset="0.88" stop-color="#888888"/>
<stop offset="0.93" stop-color="#626262"/>
<stop offset="0.97" stop-color="#393939"/>
<stop offset="1" stop-color="#1A1A1A"/>
</radialGradient>
</defs>
</svg>
