<svg width="8" height="12" viewBox="0 0 8 12" fill="none" xmlns="http://www.w3.org/2000/svg">
<path d="M1.54945 12C1.24285 12.0021 0.942608 11.9113 0.687234 11.7391C0.431861 11.567 0.232997 11.3215 0.116145 11.0339C-0.000707626 10.7464 -0.030221 10.43 0.0313897 10.1253C0.0930004 9.82069 0.242926 9.54164 0.46194 9.32399L3.7743 5.982L0.46194 2.62514C0.190104 2.32923 0.0421128 1.93785 0.0491476 1.53345C0.0561819 1.12905 0.217691 0.743201 0.49965 0.457202C0.781609 0.171203 1.162 0.00737838 1.56069 0.000243195C1.95938 -0.00689199 2.34523 0.143219 2.63696 0.418951L7.91329 5.7709C7.94077 5.79854 7.96257 5.83142 7.97746 5.86765C7.99234 5.90389 8 5.94275 8 5.982C8 6.02125 7.99234 6.06011 7.97746 6.09635C7.96257 6.13258 7.94077 6.16546 7.91329 6.1931L2.63696 11.545C2.34797 11.8365 1.95698 12.0001 1.54945 12Z" fill="white"/>
</svg>
