<svg width="8" height="12" viewBox="0 0 8 12" fill="none" xmlns="http://www.w3.org/2000/svg">
<path d="M1.74743 11.1829C1.48264 11.1848 1.22334 11.1063 1.00279 10.9577C0.782239 10.809 0.610493 10.597 0.509575 10.3486C0.408657 10.1003 0.383169 9.82707 0.436378 9.56396C0.489587 9.30084 0.619068 9.05984 0.808217 8.87187L3.66889 5.98561L0.808217 3.0865C0.573449 2.83094 0.445639 2.49293 0.451714 2.14368C0.457789 1.79442 0.597275 1.46119 0.840785 1.21419C1.08429 0.967193 1.41282 0.825708 1.75714 0.819546C2.10146 0.813384 2.4347 0.943025 2.68664 1.18116L7.24348 5.80329C7.2672 5.82716 7.28604 5.85556 7.29889 5.88685C7.31174 5.91815 7.31836 5.95171 7.31836 5.98561C7.31836 6.01951 7.31174 6.05307 7.29889 6.08436C7.28604 6.11565 7.2672 6.14405 7.24348 6.16793L2.68664 10.7901C2.43706 11.0418 2.09939 11.183 1.74743 11.1829Z" fill="#E63114"/>
</svg>
