<svg width="37" height="42" viewBox="0 0 37 42" fill="none" xmlns="http://www.w3.org/2000/svg">
<path d="M18.6517 9.56684C16.6046 9.56684 15.2532 10.2626 15.2532 11.7879C15.2532 17.8357 36.6612 14.2498 36.6612 29.1017C36.6612 37.8388 28.9142 42 19.7088 42C12.6175 41.9667 5.71871 39.6905 0 35.4973L0.36126 34.7882C1.37076 32.759 3.11757 31.1924 5.24421 30.4089C7.37084 29.6254 9.71651 29.6843 11.8012 30.5735C14.3346 31.7139 17.0555 32.3805 19.8292 32.5403C22.4115 32.5403 24.0573 31.6572 24.0573 29.784C24.084 23.5222 2.676 27.4559 2.676 12.9654C2.676 5.0444 9.36601 0.000130674 19.6552 0.000130674C25.7126 -0.0168731 31.659 1.62588 36.8486 4.75004L36.126 6.3155C35.192 8.28331 33.5696 9.84087 31.5653 10.6939C29.561 11.5468 27.3137 11.6362 25.2481 10.945C23.133 10.1501 20.9082 9.68533 18.6517 9.56684Z" fill="url(#paint0_linear_734_31932)"/>
<defs>
<linearGradient id="paint0_linear_734_31932" x1="3.6546e-08" y1="-21.5" x2="-5.14845" y2="92.8486" gradientUnits="userSpaceOnUse">
<stop stop-color="#E63114"/>
<stop offset="1" stop-color="#AB0404"/>
</linearGradient>
</defs>
</svg>
