<svg width="14" height="14" viewBox="0 0 14 14" fill="none" xmlns="http://www.w3.org/2000/svg">
<circle cx="7" cy="7" r="7" fill="#5418A3"/>
<path d="M6.01 7.00019L4.15382 5.14401C3.94873 4.93892 3.94873 4.60642 4.15382 4.40165L4.40127 4.1542C4.60642 3.94905 4.93892 3.94905 5.14369 4.1542L6.99981 6.01032L8.85599 4.15382C9.06108 3.94873 9.39358 3.94873 9.59835 4.15382L9.84618 4.40127C10.0513 4.60642 10.0513 4.93892 9.84618 5.14369L7.98968 7.00019L9.8458 8.85631C10.051 9.06146 10.051 9.39396 9.8458 9.59873L9.59835 9.84618C9.39326 10.0513 9.06076 10.0513 8.85599 9.84618L6.99981 7.99L5.14369 9.84618C4.93854 10.0513 4.60604 10.0513 4.40127 9.84618L4.15382 9.59873C3.94873 9.39358 3.94873 9.06108 4.15382 8.85631L6.01 7.00019Z" fill="#241143"/>
</svg>
