<svg width="192" height="214" viewBox="0 0 192 214" fill="none" xmlns="http://www.w3.org/2000/svg">
<g clip-path="url(#clip0_733_22333)">
<path d="M169.269 119.037L152.799 109.481L152.676 11.0615L169.146 20.6171L169.269 119.037Z" fill="#BBBBBB"/>
<path d="M169.146 20.6173L152.676 11.0617L171.866 0L188.336 9.55556L169.146 20.6173Z" fill="white"/>
<path d="M174.289 1.40771V17.6299L188.335 9.55586L174.289 1.40771Z" fill="white"/>
<path d="M188.335 9.55566L188.458 107.975L169.268 119.037L169.145 20.6174L188.335 9.55566Z" fill="#F3F1F8"/>
<path d="M146.965 131.876L130.495 122.32L130.445 38.3945L146.915 47.9501L146.965 131.876Z" fill="#BBBBBB"/>
<g style="mix-blend-mode:screen">
<path d="M146.915 47.9508L130.445 38.3952L149.635 27.3335L166.105 36.8891L146.915 47.9508Z" fill="white"/>
</g>
<path opacity="0.95" d="M166.104 36.8892L166.154 120.815L146.964 131.877L146.914 47.9509L166.104 36.8892Z" fill="#F3F1F8"/>
<path d="M124.659 144.741L108.461 135.186L108.238 63.5562L124.708 73.1117L124.659 144.741Z" fill="#BBBBBB"/>
<g style="mix-blend-mode:screen">
<path d="M127.428 52.4692L143.898 62.0248L124.708 73.1112L108.238 63.5557L127.428 52.4692Z" fill="white"/>
</g>
<path opacity="0.95" d="M143.896 62.0249L143.871 133.655L124.656 144.741L124.706 73.1113L143.896 62.0249Z" fill="#F3F1F8"/>
<path d="M102.376 157.58L85.9062 148.025L85.9804 87.9258L102.45 97.4813L102.376 157.58Z" fill="#BBBBBB"/>
<g style="mix-blend-mode:screen">
<path d="M102.45 97.4815L85.9805 87.926L105.195 76.8643L121.665 86.3951L102.45 97.4815Z" fill="white"/>
</g>
<path opacity="0.95" d="M121.664 86.3955L121.59 146.519L102.375 157.581L102.449 97.4819L121.664 86.3955Z" fill="#F3F1F8"/>
<path d="M80.0961 170.445L63.6262 160.889L63.4531 112.988L79.923 122.543L80.0961 170.445Z" fill="#BBBBBB"/>
<g style="mix-blend-mode:screen">
<path d="M79.923 122.543L63.4531 112.988L82.668 101.926L99.1378 111.481L79.923 122.543Z" fill="white"/>
</g>
<path opacity="0.95" d="M99.1367 111.481L99.2851 159.358L80.095 170.444L79.9219 122.543L99.1367 111.481Z" fill="#F3F1F8"/>
<path d="M57.7902 183.284L41.3203 173.729V136.988L57.7902 146.543V183.284Z" fill="#BBBBBB"/>
<g style="mix-blend-mode:screen">
<path d="M57.7902 146.544L41.3203 136.988L60.5352 125.926L77.005 135.482L57.7902 146.544Z" fill="white"/>
</g>
<path opacity="0.95" d="M77.0039 135.481V172.197L57.7891 183.283V146.543L77.0039 135.481Z" fill="#F3F1F8"/>
<path d="M35.5089 196.123L19.0391 186.568L19.0885 161.234L35.5584 170.79L35.5089 196.123Z" fill="#BBBBBB"/>
<g style="mix-blend-mode:screen">
<path d="M35.5597 170.79L19.0898 161.234L38.3047 150.148L54.7745 159.728L35.5597 170.79Z" fill="white"/>
</g>
<path opacity="0.95" d="M54.7721 159.728L54.7226 185.061L35.5078 196.123L35.5573 170.79L54.7721 159.728Z" fill="#F3F1F8"/>
<path d="M184.085 75.8024L174.465 70.2222L175.157 70.5925L184.777 76.1975L184.085 75.8024Z" fill="#4247BE"/>
<path d="M146.026 128.741L136.406 123.16L148.326 102.222L157.946 107.802L146.026 128.741Z" fill="#391D76"/>
<path d="M157.94 107.802L148.32 102.222L159.894 95.5552L169.514 101.135L157.94 107.802Z" fill="#9250E7"/>
<path d="M120.948 154.593L111.328 149.012L121.269 131.876L130.889 137.457L120.948 154.593Z" fill="#391D76"/>
<path d="M130.889 137.457L121.27 131.877L136.404 123.161L146.024 128.741L130.889 137.457Z" fill="#9250E7"/>
<path d="M104.303 164.173L94.6836 158.592L111.327 149.012L120.946 154.592L104.303 164.173Z" fill="#9250E7"/>
<path d="M97.2096 176.445L87.5898 170.864L94.6872 158.593L104.307 164.173L97.2096 176.445Z" fill="#391D76"/>
<path d="M65.8513 214L56.2315 208.42L55.5391 208.025L65.1588 213.605L65.8513 214Z" fill="#653AAA"/>
<path d="M65.1588 213.604L55.5391 208.024L71.7369 180L81.3567 185.58L65.1588 213.604Z" fill="#391D76"/>
<path d="M184.081 75.8022L184.773 76.1973L169.935 102.024L158.337 108.691L146.417 129.605L131.283 138.321L121.342 155.481L104.723 165.062L97.6014 177.333L81.7498 186.469L65.8487 214L65.1562 213.605L81.3541 185.58L97.2057 176.444L104.303 164.173L120.946 154.592L130.887 137.457L146.022 128.741L157.941 107.802L169.515 101.136L184.081 75.8022Z" fill="#4C50D8"/>
<path d="M81.3581 185.58L71.7383 180L87.5899 170.864L97.2097 176.445L81.3581 185.58Z" fill="#9250E7"/>
<path d="M192.001 51.4077L167.915 66.7657L174.32 70.4694L159.902 95.5559L169.522 101.136L183.964 76.025L191.977 80.6423L192.001 51.4077Z" fill="#391D76"/>
<g clip-path="url(#clip1_733_22333)">
<path d="M109.162 137.359C108.596 138.526 102.514 151.505 96.6289 164.989C96.637 165.014 96.637 165.042 96.6289 165.068L163.049 126.316C163.049 126.316 163.049 126.316 163.128 126.236C169 112.74 175.082 99.7206 175.661 98.6069L109.162 137.359Z" fill="#191715"/>
<path d="M179.993 106.761L176.596 98.5809C176.56 98.5139 176.516 98.4516 176.465 98.3953C176.42 98.3461 176.366 98.3056 176.307 98.276L175.464 97.7324C175.372 97.7324 175.293 97.7324 175.24 97.7324L108.715 136.511C108.748 136.495 108.784 136.486 108.82 136.486C108.857 136.486 108.893 136.495 108.925 136.511L109.794 137.015C109.846 137.051 109.894 137.091 109.939 137.134L110.058 137.32L113.454 145.46C113.499 145.522 113.524 145.596 113.524 145.672C113.524 145.749 113.499 145.823 113.454 145.885L179.94 107.172C180.046 107.119 180.059 107.013 179.993 106.761Z" fill="#373431"/>
<path d="M113.458 145.46L110.062 137.294C110.008 137.163 109.916 137.052 109.798 136.975L108.929 136.472C108.912 136.452 108.891 136.436 108.867 136.425C108.843 136.414 108.817 136.409 108.791 136.409C108.765 136.409 108.739 136.414 108.715 136.425C108.691 136.436 108.67 136.452 108.653 136.472C108.653 136.551 102.426 149.61 96.0272 164.313C96.0036 164.415 96.007 164.521 96.0371 164.621C96.0671 164.721 96.1227 164.811 96.1983 164.883L96.3037 164.976C96.4222 164.976 96.5406 164.976 96.5933 164.909C102.478 151.426 108.561 138.394 109.127 137.28L109.627 137.572L113.577 146.852C113.598 146.385 113.559 145.917 113.458 145.46Z" fill="#1E1B19"/>
<path d="M120.359 200.52L119.451 199.989C118.134 196.622 116.383 196.449 113.869 196.741L113.25 196.383V145.023L139.581 138.009L120.359 200.52Z" fill="#1E1B19"/>
<path d="M186.954 161.807L120.363 200.52V149.159L186.954 110.446V161.807Z" fill="#2D2B29"/>
<path d="M120.359 149.159L113.25 145.023L179.828 106.31L186.951 110.446L120.359 149.159Z" fill="#373431"/>
<path d="M114.594 145.023L179.829 107.092L185.609 110.446L120.36 148.377L114.594 145.023Z" fill="#191715"/>
<path d="M133.466 171.856L132.387 171.22V164.312L133.466 164.949V171.856Z" fill="#B6B5B3"/>
<path d="M141.851 166.977L133.465 171.856V164.949L141.851 160.07V166.977Z" fill="#E0DED7"/>
<path d="M133.466 164.949L132.387 164.312L140.773 159.434L141.853 160.07L133.466 164.949Z" fill="url(#paint0_linear_733_22333)"/>
<path d="M169.158 151.109L168.078 150.472V143.565L169.158 144.188V151.109Z" fill="#B6B5B3"/>
<path d="M177.543 146.23L169.156 151.108V144.188L177.543 139.309V146.23Z" fill="#E0DED7"/>
<path d="M169.158 144.188L168.078 143.565L176.465 138.686L177.544 139.309L169.158 144.188Z" fill="url(#paint1_linear_733_22333)"/>
</g>
</g>
<defs>
<linearGradient id="paint0_linear_733_22333" x1="132.387" y1="162.191" x2="141.853" y2="162.191" gradientUnits="userSpaceOnUse">
<stop stop-color="#F0EFEC"/>
<stop offset="1" stop-color="#F7F6F3"/>
</linearGradient>
<linearGradient id="paint1_linear_733_22333" x1="168.078" y1="141.444" x2="177.544" y2="141.444" gradientUnits="userSpaceOnUse">
<stop stop-color="#F0EFEC"/>
<stop offset="1" stop-color="#F7F6F3"/>
</linearGradient>
<clipPath id="clip0_733_22333">
<rect width="192" height="214" fill="white"/>
</clipPath>
<clipPath id="clip1_733_22333">
<rect width="90.9474" height="102.787" fill="white" transform="translate(96 97.7324)"/>
</clipPath>
</defs>
</svg>
