<svg width="246" height="188" viewBox="0 0 246 188" fill="none" xmlns="http://www.w3.org/2000/svg">
<g clip-path="url(#clip0_733_21182)">
<g opacity="0.4">
<path d="M188.259 177.29C188.532 177.323 188.798 177.406 189.041 177.536L138.492 148.262C138.247 148.133 137.983 148.042 137.71 147.995C136.069 147.921 134.429 148.171 132.885 148.731L120.175 141.39C120.622 141.145 121.113 140.922 121.56 140.654C145.394 126.821 145.193 104.33 121.292 90.5193C108.805 83.3126 92.2535 79.8989 75.925 80.1889C59.5741 79.8989 43.0669 83.3126 30.6474 90.5193C6.83592 104.33 6.96995 126.843 30.9378 140.565C43.4243 147.772 59.9762 151.185 76.3047 150.895C86.7609 151.145 97.1918 149.759 107.219 146.79L121.493 155.045C121.006 155.489 120.585 156 120.242 156.563C119.773 157.388 119.818 158.057 120.443 158.414L171.059 187.688C171.303 187.821 171.567 187.911 171.841 187.955C174.499 188.357 180.307 186.304 184.841 183.493C186.609 182.51 188.136 181.146 189.309 179.499C189.867 178.272 189.577 177.491 188.259 177.29ZM76.3047 150.36C61.5622 150.07 46.9089 146.723 35.7403 140.23C12.1969 126.642 12.0628 104.531 35.4723 90.9656C46.6409 84.4505 61.2494 81.1037 76.0143 80.836C90.7569 81.1037 105.388 84.4505 116.646 90.9656C140.212 104.531 140.346 126.665 116.936 140.23C105.656 146.723 91.0473 150.07 76.3047 150.36Z" fill="#6637A2"/>
<path d="M21.7788 101.118L0 113.679L113.004 178.852H125.267L21.7788 101.118Z" fill="#ADA6A3"/>
</g>
<path d="M125.561 178.852L9.98828 112.206V101.251L125.561 124.009V178.852Z" fill="#D2CFCC"/>
<path d="M207.268 131.729L125.559 178.852V124.009L207.268 120.774V131.729Z" fill="#E9E6E6"/>
<path d="M207.271 120.775L125.561 167.897L9.98828 101.252L91.7202 54.1289L207.271 120.775Z" fill="#F8F5F4"/>
<path d="M95.9846 95.7853L94.3539 96.0308L95.1804 96.4993L79.9688 105.268L80.7729 105.736L95.9846 96.9678L96.7217 97.3918L97.1684 96.4547L97.5928 95.5176L95.9846 95.7853Z" fill="#6439BF"/>
<path d="M91.0678 108.592L91.4922 107.655L92.3187 108.146L107.53 99.377L108.312 99.8232L93.1229 108.592L93.8823 109.038L92.2517 109.283L90.6211 109.529L91.0678 108.592Z" fill="#6231A0"/>
<path d="M70.5639 115.42L70.9883 116.357L71.8148 115.888L83.8993 122.849L84.6811 122.381L72.619 115.42L73.3561 114.996L71.7478 114.75L70.1172 114.482L70.5639 115.42Z" fill="#6231A0"/>
<path d="M116.396 90.3854L114.766 90.14L115.592 89.6491L103.508 82.6878L104.312 82.2192L116.396 89.2029L117.156 88.7566L117.58 89.6937L118.027 90.6308L116.396 90.3854Z" fill="#6439BF"/>
<path d="M82.4214 106.137L56.1081 121.309L43.7109 114.17L70.0242 98.9976L82.4214 106.137Z" fill="#6439BF"/>
<path d="M126.765 80.568L100.452 95.7401L88.0547 88.6003L114.368 73.4282L126.765 80.568Z" fill="#6439BF"/>
<path d="M73.2408 100.849L70.0242 98.9976L43.7109 114.17L46.9275 116.022L73.2408 100.849Z" fill="#6231A0"/>
<path d="M117.585 75.2801L114.368 73.4282L88.0547 88.6003L91.2713 90.4522L117.585 75.2801Z" fill="#6231A0"/>
<path d="M100.274 116.446L73.9608 131.618L61.5859 124.456L87.8992 109.284L100.274 116.446Z" fill="#6439BF"/>
<path d="M144.61 90.877L118.297 106.049L105.922 98.8869L132.235 83.7148L144.61 90.877Z" fill="#6439BF"/>
<path d="M91.0934 111.136L87.8992 109.284L61.5859 124.456L64.7802 126.33L91.0934 111.136Z" fill="#6231A0"/>
<path d="M135.429 85.5667L132.235 83.7148L105.922 98.8869L109.116 100.761L135.429 85.5667Z" fill="#6231A0"/>
<path d="M95.8066 143.644L95.3599 143.912L92.2773 142.127L92.7241 141.881L95.8066 143.644Z" fill="#5420C1"/>
<path d="M99.7168 145.898L99.27 146.165L96.1875 144.381L96.6342 144.113L99.7168 145.898Z" fill="#5420C1"/>
<path d="M103.597 148.151L103.172 148.397L100.09 146.634L100.537 146.366L103.597 148.151Z" fill="#5420C1"/>
<path d="M107.51 150.405L107.063 150.65L103.98 148.887L104.427 148.62L107.51 150.405Z" fill="#5420C1"/>
<path d="M111.42 152.657L110.973 152.903L107.891 151.118L108.337 150.873L111.42 152.657Z" fill="#5420C1"/>
<path d="M115.308 154.889L114.861 155.157L111.801 153.372L112.225 153.126L115.308 154.889Z" fill="#5420C1"/>
<path d="M125.782 125.862L96.3637 142.841L94.1523 141.547L123.57 124.59L125.782 125.862Z" fill="#7844E5"/>
<path d="M126.52 129.922L100.274 145.072L98.0625 143.8L124.309 128.65L126.52 129.922Z" fill="#6439BF"/>
<path d="M116.129 140.431L104.157 147.325L101.945 146.054L113.896 139.159L116.129 140.431Z" fill="#6439BF"/>
<path d="M129.042 137.486L108.067 149.579L105.855 148.307L126.83 136.214L129.042 137.486Z" fill="#97CC66"/>
<path d="M131.614 140.498L111.98 151.832L109.746 150.561L129.403 139.226L131.614 140.498Z" fill="#F25A5A"/>
<path d="M131.541 145.027L115.86 154.086L113.648 152.792L129.329 143.755L131.541 145.027Z" fill="#6439BF"/>
<path d="M117.826 138.155C117.91 138.184 117.983 138.238 118.035 138.31C118.086 138.382 118.114 138.468 118.114 138.557C118.114 138.645 118.086 138.732 118.035 138.804C117.983 138.876 117.91 138.93 117.826 138.958C117.611 139.068 117.374 139.125 117.133 139.125C116.893 139.125 116.655 139.068 116.441 138.958C116.357 138.93 116.284 138.876 116.232 138.804C116.18 138.732 116.152 138.645 116.152 138.557C116.152 138.468 116.18 138.382 116.232 138.31C116.284 138.238 116.357 138.184 116.441 138.155C116.655 138.045 116.893 137.988 117.133 137.988C117.374 137.988 117.611 138.045 117.826 138.155Z" fill="#6439BF"/>
<path d="M130.826 135.188C131.206 135.389 131.206 135.746 130.826 135.969C130.612 136.078 130.374 136.136 130.133 136.136C129.893 136.136 129.655 136.078 129.441 135.969C129.061 135.746 129.061 135.389 129.441 135.188C129.655 135.078 129.893 135.021 130.133 135.021C130.374 135.021 130.612 135.078 130.826 135.188Z" fill="#97CC66"/>
<path d="M133.443 138.333C133.823 138.534 133.823 138.891 133.443 139.114C133.229 139.224 132.991 139.281 132.751 139.281C132.51 139.281 132.273 139.224 132.058 139.114C131.679 138.891 131.679 138.534 132.058 138.333C132.273 138.224 132.51 138.167 132.751 138.167C132.991 138.167 133.229 138.224 133.443 138.333Z" fill="#F25A5A"/>
<path d="M127.326 123.697C127.41 123.725 127.483 123.78 127.535 123.852C127.586 123.924 127.614 124.01 127.614 124.099C127.614 124.187 127.586 124.274 127.535 124.346C127.483 124.418 127.41 124.472 127.326 124.5C127.111 124.61 126.874 124.667 126.633 124.667C126.393 124.667 126.155 124.61 125.941 124.5C125.857 124.472 125.784 124.418 125.732 124.346C125.68 124.274 125.652 124.187 125.652 124.099C125.652 124.01 125.68 123.924 125.732 123.852C125.784 123.78 125.857 123.725 125.941 123.697C126.155 123.587 126.393 123.53 126.633 123.53C126.874 123.53 127.111 123.587 127.326 123.697Z" fill="#7844E5"/>
<path d="M133.262 142.796C133.346 142.824 133.419 142.878 133.471 142.95C133.522 143.022 133.55 143.109 133.55 143.197C133.55 143.286 133.522 143.372 133.471 143.444C133.419 143.516 133.346 143.57 133.262 143.599C133.047 143.708 132.81 143.766 132.569 143.766C132.328 143.766 132.091 143.708 131.877 143.599C131.788 143.581 131.708 143.536 131.647 143.47C131.586 143.403 131.548 143.319 131.538 143.23C131.528 143.14 131.547 143.05 131.592 142.972C131.636 142.894 131.705 142.832 131.787 142.796C132.013 142.671 132.267 142.605 132.524 142.605C132.782 142.605 133.036 142.671 133.262 142.796Z" fill="#6439BF"/>
<path d="M128.22 127.646C128.304 127.675 128.377 127.729 128.429 127.801C128.481 127.873 128.509 127.959 128.509 128.048C128.509 128.137 128.481 128.223 128.429 128.295C128.377 128.367 128.304 128.421 128.22 128.449C128.006 128.559 127.769 128.616 127.528 128.616C127.287 128.616 127.05 128.559 126.835 128.449C126.751 128.421 126.678 128.367 126.626 128.295C126.575 128.223 126.547 128.137 126.547 128.048C126.547 127.959 126.575 127.873 126.626 127.801C126.678 127.729 126.751 127.675 126.835 127.646C127.053 127.548 127.289 127.497 127.528 127.497C127.767 127.497 128.003 127.548 128.22 127.646Z" fill="#6439BF"/>
<path d="M34.9139 106.896L34.1545 107.343L24.8398 101.988L25.5993 101.542L34.9139 106.896Z" fill="#5420C1"/>
<path d="M35.6984 106.45L34.8943 106.918L26.5625 102.121L27.3666 101.653L35.6984 106.45Z" fill="#6231A0"/>
<path d="M37.9314 105.155L37.172 105.602L28.3711 100.515L29.1306 100.068L37.9314 105.155Z" fill="#5420C1"/>
<path d="M38.7306 104.71L37.9041 105.178L28.3438 99.6448L29.1479 99.1763L38.7306 104.71Z" fill="#6231A0"/>
<path d="M40.9615 103.416L40.2021 103.839L29.0781 97.436L29.8376 96.9897L40.9615 103.416Z" fill="#5420C1"/>
<path d="M41.7697 102.947L40.9432 103.416L35.2695 100.136L36.0737 99.6675L41.7697 102.947Z" fill="#6231A0"/>
<path d="M44.0005 101.653L43.2411 102.099L32.9883 96.1865L33.7477 95.7402L44.0005 101.653Z" fill="#5420C1"/>
<path d="M44.7873 101.207L43.9832 101.675L34.6016 96.2537L35.4057 95.7852L44.7873 101.207Z" fill="#6231A0"/>
<path d="M53.0933 96.4095L52.3338 96.8557L41.9023 90.8315L42.6618 90.3853L53.0933 96.4095Z" fill="#5420C1"/>
<path d="M53.8986 95.9639L53.0945 96.4325L46.5273 92.6394L47.3315 92.1709L53.8986 95.9639Z" fill="#6231A0"/>
<path d="M56.1337 94.6697L55.3743 95.0936L46.9531 90.2296L47.7126 89.8057L56.1337 94.6697Z" fill="#5420C1"/>
<path d="M56.9341 94.2011L56.1076 94.6696L49.0938 90.6311L49.8979 90.1626L56.9341 94.2011Z" fill="#6231A0"/>
<path d="M59.1749 92.9066L58.4154 93.3528L45.4375 85.8561L46.197 85.4321L59.1749 92.9066Z" fill="#5420C1"/>
<path d="M59.9724 92.4609L59.1459 92.9295L47.7539 86.3475L48.5804 85.8789L59.9724 92.4609Z" fill="#6231A0"/>
<path d="M62.207 91.1666L61.4475 91.5905L49.6758 84.8077L50.4352 84.3838L62.207 91.1666Z" fill="#5420C1"/>
<path d="M62.9894 90.6983L62.1853 91.1668L51.9102 85.2542L52.7143 84.7856L62.9894 90.6983Z" fill="#6231A0"/>
<path d="M65.2448 89.404L64.4853 89.8503L56.0195 84.964L56.779 84.54L65.2448 89.404Z" fill="#5420C1"/>
<path d="M66.0302 88.9577L65.2261 89.4262L55.6211 83.8929L56.4476 83.4243L66.0302 88.9577Z" fill="#6231A0"/>
<path d="M47.0428 99.9121L46.2833 100.358L42.5977 98.2387L43.3571 97.7925L47.0428 99.9121Z" fill="#5420C1"/>
<path d="M47.8232 99.444L47.0191 99.9126L40.5859 96.2088L41.3901 95.7402L47.8232 99.444Z" fill="#6231A0"/>
<path d="M50.0595 98.1724L49.3 98.5963L45.6367 96.4767L46.3962 96.0527L50.0595 98.1724Z" fill="#5420C1"/>
<path d="M50.8607 97.7036L50.0566 98.1721L47.3984 96.6326L48.2026 96.1641L50.8607 97.7036Z" fill="#6231A0"/>
<path d="M67.4987 88.846L33.7471 108.302L33.0547 107.9L66.8063 88.4443L67.4987 88.846Z" fill="#5420C1"/>
<path d="M72.1911 85.41L71.4316 85.8563L66.3164 82.9111L67.0759 82.4648L72.1911 85.41Z" fill="#5420C1"/>
<path d="M72.9756 84.9417L72.1715 85.4103L68.0391 83.0452L68.8432 82.5767L72.9756 84.9417Z" fill="#6231A0"/>
<path d="M75.2078 83.6698L74.4483 84.0937L72.5273 82.9781L73.2868 82.5542L75.2078 83.6698Z" fill="#5420C1"/>
<path d="M76.0148 83.2007L75.1883 83.6692L72.5078 82.1297L73.312 81.6611L76.0148 83.2007Z" fill="#6231A0"/>
<path d="M78.2502 81.9065L77.4908 82.3528L71.5938 78.9391L72.3532 78.5151L78.2502 81.9065Z" fill="#5420C1"/>
<path d="M79.0489 81.4605L78.2224 81.9291L75.3633 80.2557L76.1674 79.7871L79.0489 81.4605Z" fill="#6231A0"/>
<path d="M81.2843 80.1669L80.5249 80.5908L78.4922 79.4306L79.2517 78.9844L81.2843 80.1669Z" fill="#5420C1"/>
<path d="M82.066 79.6981L81.2618 80.1667L77.9336 78.2478L78.7377 77.7793L82.066 79.6981Z" fill="#6231A0"/>
<path d="M90.3776 74.9228L89.6181 75.3467L78.8516 69.1217L79.611 68.6978L90.3776 74.9228Z" fill="#5420C1"/>
<path d="M91.1816 74.455L90.3551 74.9235L80.5938 69.2786L81.4202 68.8101L91.1816 74.455Z" fill="#6231A0"/>
<path d="M93.4131 73.1611L92.6537 73.6073L78.9609 65.6866L79.7204 65.2627L93.4131 73.1611Z" fill="#5420C1"/>
<path d="M94.2191 72.7148L93.3926 73.1833L80.3477 65.6419L81.1518 65.1733L94.2191 72.7148Z" fill="#6231A0"/>
<path d="M96.4558 71.4202L95.6963 71.8442L85.6445 66.0431L86.404 65.6191L96.4558 71.4202Z" fill="#5420C1"/>
<path d="M97.2574 70.952L96.4309 71.4206L87.6523 66.3558L88.4565 65.8872L97.2574 70.952Z" fill="#6231A0"/>
<path d="M99.4899 69.658L98.7304 70.1043L90.957 65.6196L91.7165 65.1733L99.4899 69.658Z" fill="#5420C1"/>
<path d="M100.272 69.2115L99.4682 69.6801L93.1914 66.0433L93.9955 65.5747L100.272 69.2115Z" fill="#6231A0"/>
<path d="M102.526 67.9172L101.767 68.3411L97.9023 66.1323L98.6618 65.686L102.526 67.9172Z" fill="#5420C1"/>
<path d="M103.312 67.4483L102.507 67.9169L99.0898 65.9534L99.9163 65.4849L103.312 67.4483Z" fill="#6231A0"/>
<path d="M84.3254 78.404L83.5659 78.8502L77.1328 75.1464L77.8923 74.7002L84.3254 78.404Z" fill="#5420C1"/>
<path d="M85.1085 77.9581L84.3044 78.4266L76.8438 74.1204L77.6479 73.6519L85.1085 77.9581Z" fill="#6231A0"/>
<path d="M87.3414 76.6632L86.5819 77.1094L80.3945 73.5395L81.154 73.0933L87.3414 76.6632Z" fill="#5420C1"/>
<path d="M88.1426 76.2173L87.3162 76.6859L82.1562 73.6961L82.9604 73.2275L88.1426 76.2173Z" fill="#6231A0"/>
<path d="M104.784 67.3372L71.0323 86.8154L70.3398 86.4138L104.091 66.9355L104.784 67.3372Z" fill="#5420C1"/>
<path d="M160.206 104.353C149.395 103.639 139.634 108.123 138.405 114.348C137.177 120.573 144.95 126.218 155.761 126.932C166.572 127.646 176.334 123.161 177.562 116.914C178.791 110.667 171.017 105.067 160.206 104.353ZM168.962 116.356C168.27 119.859 162.797 122.381 156.744 121.979C150.691 121.577 146.312 118.409 147.005 114.928C147.697 111.448 153.17 108.904 159.246 109.306C165.321 109.707 169.767 112.853 168.962 116.356Z" fill="#6231A0"/>
<path d="M176.149 116.825C177.31 111.046 170.095 105.825 160.043 105.155C149.992 104.486 140.945 108.658 139.806 114.437C138.667 120.216 145.882 125.459 155.911 126.129C165.94 126.798 175.009 122.715 176.149 116.825ZM143.469 114.593C144.385 109.975 151.622 106.65 159.641 107.186C167.66 107.721 173.423 111.871 172.508 116.512C171.592 121.153 164.354 124.545 156.358 124.009C148.361 123.474 142.553 119.301 143.469 114.683V114.593Z" fill="#6231A0"/>
<path d="M158.859 107.275C158.859 107.275 161.339 107.432 162.143 107.565L163.26 105.535C162.232 105.357 159.217 105.022 158.792 104.977C156.197 104.96 153.609 105.26 151.086 105.87L152.538 107.833C154.622 107.442 156.739 107.255 158.859 107.275Z" fill="#6439BF"/>
<path d="M144.143 113.188V112.965C146.028 110.394 148.795 108.607 151.916 107.945L150.464 106.004C146.475 106.709 142.892 108.873 140.412 112.073C140.412 112.073 139.452 113.858 139.742 114.304L143.383 114.549C143.569 114.062 143.825 113.603 144.143 113.188Z" fill="#F25A5A"/>
<path d="M172.487 114.705L176.173 114.482C175.806 113.135 175.156 111.881 174.266 110.804C173.377 109.726 172.268 108.851 171.013 108.235L170.298 107.833C168.236 106.777 166.032 106.026 163.754 105.602L162.637 107.632C164.426 107.954 166.158 108.541 167.774 109.373L168.846 110.064C170.551 111.155 171.835 112.791 172.487 114.705Z" fill="#97CC66"/>
<path d="M161.253 126.017L160.561 123.92C159.156 124.032 157.744 124.032 156.339 123.92C152.304 123.853 148.419 122.386 145.349 119.77L144.589 118.9C144.12 118.326 143.776 117.66 143.58 116.945C143.384 116.231 143.34 115.483 143.45 114.75L139.787 114.504C139.637 115.467 139.699 116.451 139.969 117.388C140.239 118.324 140.71 119.191 141.351 119.926V120.439L142.021 120.796C145.862 124.095 150.737 125.95 155.803 126.04C157.617 126.185 159.44 126.177 161.253 126.017Z" fill="#7844E5"/>
<path d="M176.599 116.87C177.76 110.935 170.367 105.58 160.091 104.911C149.816 104.241 140.546 108.503 139.362 114.415C138.179 120.328 145.595 125.705 155.87 126.375C166.145 127.044 175.437 122.715 176.599 116.87ZM139.809 114.438C140.948 108.659 150.017 104.509 160.047 105.156C170.076 105.803 177.313 111.046 176.152 116.825C174.99 122.604 165.966 126.776 155.914 126.129C145.863 125.482 138.67 120.239 139.809 114.438Z" fill="#6231A0"/>
<path d="M172.513 116.602C173.429 111.961 167.666 107.788 159.647 107.275C151.628 106.762 144.39 110.064 143.475 114.683C142.559 119.301 148.322 123.608 156.341 124.009C164.36 124.411 171.597 121.22 172.513 116.602ZM143.899 114.705C144.792 110.243 151.829 107.007 159.535 107.521C167.241 108.034 172.937 112.095 172.022 116.557C171.106 121.019 164.114 124.277 156.385 123.764C148.657 123.251 142.961 119.19 143.899 114.705Z" fill="#6231A0"/>
<path d="M176.127 116.825C176.227 116.152 176.227 115.468 176.127 114.795L172.508 114.996C172.598 115.527 172.598 116.07 172.508 116.602C171.816 120.172 167.147 123.117 161.094 123.876L161.719 125.929C169.359 124.947 175.233 121.31 176.127 116.825Z" fill="#6439BF"/>
<path d="M65.5124 97.7255L40.4501 112.184L36.8984 110.131L61.9385 95.6729L65.5124 97.7255Z" fill="#6231A0"/>
<path d="M42.7731 110.845L40.4501 112.184L36.8984 110.131L39.1992 108.792L42.7731 110.845Z" fill="#F25A5A"/>
<path d="M88.364 84.5625L63.3016 99.0206L59.75 96.9456L84.79 82.5098L88.364 84.5625Z" fill="#6231A0"/>
<path d="M65.6247 97.6819L63.3016 99.0207L59.75 96.9457L62.0507 95.6069L65.6247 97.6819Z" fill="#97CC66"/>
<path d="M111.218 71.3759L86.156 85.834L82.582 83.7813L107.644 69.3232L111.218 71.3759Z" fill="#6231A0"/>
<path d="M88.4791 84.4951L86.156 85.8338L82.582 83.7811L84.9051 82.4424L88.4791 84.4951Z" fill="#7844E5"/>
<path d="M120.96 158.927C121.589 158.927 122.099 158.638 122.099 158.28C122.099 157.923 121.589 157.633 120.96 157.633C120.33 157.633 119.82 157.923 119.82 158.28C119.82 158.638 120.33 158.927 120.96 158.927Z" fill="#5420C1"/>
<path d="M125.694 160.088C125.786 160.124 125.865 160.187 125.921 160.268C125.977 160.35 126.007 160.447 126.007 160.545C126.007 160.644 125.977 160.741 125.921 160.823C125.865 160.904 125.786 160.967 125.694 161.003C125.442 161.134 125.162 161.202 124.878 161.202C124.595 161.202 124.315 161.134 124.063 161.003C123.971 160.967 123.892 160.904 123.836 160.823C123.78 160.741 123.75 160.644 123.75 160.545C123.75 160.447 123.78 160.35 123.836 160.268C123.892 160.187 123.971 160.124 124.063 160.088C124.315 159.957 124.595 159.889 124.878 159.889C125.162 159.889 125.442 159.957 125.694 160.088Z" fill="#5420C1"/>
<path d="M159.846 136.527C160.475 136.527 160.985 136.227 160.985 135.857C160.985 135.488 160.475 135.188 159.846 135.188C159.217 135.188 158.707 135.488 158.707 135.857C158.707 136.227 159.217 136.527 159.846 136.527Z" fill="#5420C1"/>
<path d="M164.578 137.664C164.67 137.7 164.749 137.763 164.805 137.845C164.861 137.926 164.891 138.023 164.891 138.122C164.891 138.22 164.861 138.317 164.805 138.399C164.749 138.48 164.67 138.543 164.578 138.579C164.33 138.71 164.054 138.778 163.773 138.778C163.493 138.778 163.217 138.71 162.969 138.579C162.877 138.543 162.798 138.48 162.742 138.399C162.686 138.317 162.656 138.22 162.656 138.122C162.656 138.023 162.686 137.926 162.742 137.845C162.798 137.763 162.877 137.7 162.969 137.664C163.216 137.531 163.493 137.462 163.773 137.462C164.054 137.462 164.33 137.531 164.578 137.664Z" fill="#5420C1"/>
<path d="M142.734 146.7L145.191 145.339L144.879 145.161L142.533 146.522L142.734 146.7ZM132.303 152.702L137.53 149.69L137.239 149.489L131.99 152.524L132.303 152.702ZM137.954 149.489L142.422 146.968L142.131 146.79L137.664 149.311L137.954 149.489ZM131.789 152.948L131.499 152.769L124.06 157.053L124.373 157.232L131.789 152.948ZM145.482 145.027L148.81 143.108L148.497 142.93L145.191 145.027H145.482ZM123.301 156.518L125.758 155.09L125.445 154.933L122.988 156.339L123.301 156.518ZM144.722 143.8L145.035 143.978L147.939 142.305L147.649 142.126L144.722 143.8ZM139.339 147.258L144.611 144.224L144.32 144.045L139.049 147.08L139.339 147.258ZM136.592 148.842L138.937 147.504L138.624 147.258L136.391 148.597L136.592 148.842ZM133.263 150.761L136.257 149.088L135.944 148.909L133.04 150.583L133.263 150.761ZM126.16 154.867L132.861 151.007L132.571 150.828L125.87 154.688L126.16 154.867Z" fill="#5420C1"/>
<path d="M140.189 150.694L140.479 150.873L144.947 148.352L144.634 148.173L140.189 150.694ZM140.189 151.118L139.876 150.94L134.537 153.952L134.828 154.13L140.189 151.118ZM141.127 151.609L141.417 151.788L144.321 150.114L144.031 149.936L141.127 151.609ZM144.433 149.69L144.746 149.869L146.979 148.53L146.667 148.352L144.433 149.69ZM152.34 145.027L147.069 148.062L147.381 148.24L152.653 145.206L152.34 145.027ZM133.778 156.183L133.488 156.027L127.859 159.262L128.149 159.441L133.778 156.183ZM149.771 145.228L144.969 147.95L145.259 148.106L150.084 145.34L149.771 145.228ZM134.426 154.443L134.024 154.197L126.652 158.414L126.943 158.593L134.426 154.443ZM150.173 145.027L150.486 145.206L153.301 143.577L152.988 143.398L150.173 145.027ZM140.904 152.122L140.591 151.944L133.89 155.804L134.202 155.982L140.904 152.122Z" fill="#5420C1"/>
<path d="M171.104 130.235L176.331 127.178L176.04 126.999L170.791 130.011L171.104 130.235ZM176.755 126.977L181.222 124.456L180.932 124.277L176.465 126.798L176.755 126.977ZM170.679 130.48L170.389 130.301L163.062 134.585L163.375 134.764L170.679 130.48ZM162.102 134.028L164.537 132.622L164.246 132.443L161.789 133.871L162.102 134.028ZM183.523 121.332L183.836 121.511L186.74 119.815L186.427 119.659L183.523 121.332ZM178.14 124.79L183.412 121.734L183.166 121.578L177.894 124.612L178.14 124.79ZM175.392 126.375L177.626 125.014L177.425 124.947L175.08 126.308L175.392 126.375ZM171.997 128.293L174.923 126.598L174.611 126.441L171.707 128.115L171.997 128.293ZM164.894 132.376L171.595 128.517L171.282 128.338L164.581 132.22L164.894 132.376Z" fill="#5420C1"/>
<path d="M182.293 126.575L182.606 126.754L186.961 124.233L186.671 124.054L182.293 126.575Z" fill="#5420C1"/>
<path d="M178.25 130.279L178.563 130.458L181.467 128.784L181.176 128.606L178.25 130.279Z" fill="#5420C1"/>
<path d="M181.89 126.821L176.641 129.833L176.953 130.012L182.18 126.977L181.89 126.821Z" fill="#5420C1"/>
<path d="M186.09 125.772L181.578 128.383L181.891 128.539L186.403 125.951L186.09 125.772Z" fill="#5420C1"/>
<path d="M176.528 130.235L176.237 130.079L165.672 136.17L165.985 136.326L176.528 130.235Z" fill="#5420C1"/>
<path d="M187.07 123.809L187.383 123.987L189.728 122.649L189.416 122.47L187.07 123.809Z" fill="#5420C1"/>
<path d="M171.041 134.808L170.75 134.629L166.953 136.816L167.244 136.994L171.041 134.808Z" fill="#5420C1"/>
<path d="M177.846 130.524L171.145 134.384L171.435 134.563L178.136 130.703L177.846 130.524Z" fill="#5420C1"/>
<path d="M189.84 122.225L190.13 122.403L192.118 121.265L191.806 121.087L189.84 122.225Z" fill="#5420C1"/>
<path d="M111.218 128.137L110.794 127.892L120.622 122.247L121.047 122.492L111.218 128.137ZM108.605 129.632L108.18 129.409L109.99 128.36L110.436 128.606L108.605 129.632ZM97.1904 136.214L96.766 135.969L107.399 129.833L107.823 130.078L97.1904 136.214ZM89.5958 140.676L89.1714 140.409L95.8725 136.482L96.297 136.727L89.5958 140.676ZM113.005 123.876L122.856 118.253L123.303 118.498L113.43 124.054L113.005 123.876ZM123.571 117.762L127.703 115.375L128.128 115.62L123.995 118.008L123.571 117.762ZM110.816 125.616L110.392 125.37L112.201 124.322L112.625 124.567L110.816 125.616ZM99.4018 132.131L98.9774 131.886L109.61 125.75L110.034 125.995L99.4018 132.131ZM87.1163 139.204L86.6919 138.936L98.1509 132.243L98.5754 132.488L87.1163 139.204ZM149.661 100.403L149.236 100.158L154.999 96.8335L155.424 97.079L149.661 100.403ZM141.82 104.866L141.396 104.62L148.454 100.56L148.879 100.805L141.82 104.866ZM137.04 107.632L136.616 107.387L140.614 105.156L141.038 105.401L137.04 107.632ZM129.289 112.095L128.865 111.849L135.834 107.833L136.258 108.079L129.289 112.095ZM122.186 116.267L121.761 116.022L128.083 112.363L128.507 112.608L122.186 116.267ZM113.787 121.109L113.363 120.863L120.98 116.401L121.404 116.646L113.787 121.109ZM105.5 125.884L104.986 125.638L112.491 121.31L112.916 121.555L105.5 125.884ZM95.0684 131.908L94.6217 131.662L104.294 126.084L104.718 126.352L95.0684 131.908ZM84.8826 137.82L84.4582 137.575L93.8175 132.109L94.2419 132.354L84.8826 137.82ZM137.286 104.866L136.861 104.62L152.631 95.5394L153.056 95.7849L137.286 104.866ZM129.557 109.328L129.133 109.083L136.191 105.022L136.616 105.267L129.557 109.328ZM121.114 114.192L120.622 113.969L128.284 109.507L128.708 109.752L121.114 114.192ZM117.026 116.557L116.602 116.312L119.907 114.393L120.332 114.638L117.026 116.557ZM112.089 119.391L111.665 119.145L115.82 116.758L116.244 117.003L112.089 119.391ZM101.412 125.504L100.988 125.259L110.771 119.636L111.196 119.882L101.412 125.504ZM98.8211 127.022L98.3967 126.776L100.206 125.727L100.63 125.973L98.8211 127.022ZM87.4067 133.715L86.9823 133.47L97.6149 127.178L98.0393 127.423L87.4067 133.715ZM82.4255 136.459L82.0011 136.214L86.1782 133.871L86.6249 134.117L82.4255 136.459ZM148.7 95.5171L148.253 95.2717L150.264 94.1338L150.688 94.3792L148.7 95.5171ZM144.88 97.7483L144.456 97.5029L147.427 95.7402L147.851 95.9857L144.88 97.7483ZM137.04 102.211L136.616 101.965L143.674 97.9045L144.099 98.1499L137.04 102.211ZM128.597 107.097L128.172 106.852L135.834 102.389L136.258 102.635L128.597 107.097ZM124.509 109.44L124.084 109.328L127.323 107.32L127.748 107.566L124.509 109.44ZM117.406 113.567L116.981 113.322L123.303 109.663L123.727 109.908L117.406 113.567ZM109.007 118.409L108.582 118.253L116.155 113.791L116.579 114.036L109.007 118.409ZM100.72 123.184L100.295 122.938L107.801 118.61L108.225 118.855L100.72 123.184ZM90.2882 129.208L89.8415 128.963L99.5135 123.407L99.9379 123.652L90.2882 129.208ZM80.0578 135.098L79.6334 134.853L89.0597 129.409L89.4841 129.654L80.0578 135.098ZM135.186 100.582L134.762 100.403L147.896 92.8174L148.32 93.0628L135.186 100.582ZM127.346 105.044L126.921 104.866L134.025 100.783L134.449 101.028L127.346 105.044ZM118.902 109.908L118.388 109.73L126.05 105.267L126.475 105.513L118.902 109.908ZM114.815 112.34L114.39 112.095L117.696 110.176L118.12 110.421L114.815 112.34ZM109.878 115.174L109.454 114.928L113.608 112.541L114.033 112.787L109.878 115.174ZM99.3125 121.265L98.8881 121.02L108.672 115.375L109.096 115.62L99.3125 121.265ZM96.7214 122.715L96.297 122.47L98.1063 121.444L98.5307 121.689L96.7214 122.715ZM85.307 129.409L84.8826 129.119L95.5151 122.983L95.9396 123.228L85.307 129.409ZM77.69 133.871L77.2656 133.626L84.1008 129.699L84.5252 129.944L77.69 133.871Z" fill="#5420C1"/>
<path d="M90.9583 80.2781L87.1833 82.4424L86.7812 82.2193L90.5562 80.0327L90.9583 80.2781Z" fill="#E1E9F4"/>
<path d="M93.1493 79.0063L91.5857 79.9211L91.1836 79.6757L92.7472 78.7832L93.1493 79.0063Z" fill="#E1E9F4"/>
<path d="M90.9571 82.2417L88.9021 83.4465L88.5 83.2011L90.555 82.0186L90.9571 82.2417Z" fill="#E1E9F4"/>
<path d="M96.2095 79.2298L91.5857 81.8849L91.1836 81.6618L95.8074 78.9844L96.2095 79.2298Z" fill="#E1E9F4"/>
<path d="M99.4045 77.3779L96.8357 78.8505L96.4336 78.6274L99.0024 77.1548L99.4045 77.3779Z" fill="#E1E9F4"/>
<path d="M68.3294 93.3305L64.5544 95.4948L64.1523 95.2717L67.9273 93.1074L68.3294 93.3305Z" fill="#E1E9F4"/>
<path d="M70.5193 92.0591L68.9333 92.9738L68.5312 92.7284L70.0949 91.8359L70.5193 92.0591Z" fill="#E1E9F4"/>
<path d="M68.3271 95.2939L66.2497 96.4988L65.8477 96.2533L67.925 95.0708L68.3271 95.2939Z" fill="#E1E9F4"/>
<path d="M73.5795 92.2821L68.9333 94.9372L68.5312 94.714L73.1774 92.0366L73.5795 92.2821Z" fill="#E1E9F4"/>
<path d="M76.7493 90.4306L74.2029 91.9255L73.8008 91.6801L76.3472 90.2075L76.7493 90.4306Z" fill="#E1E9F4"/>
<path d="M45.6849 106.383L41.9099 108.57L41.5078 108.324L45.2828 106.16L45.6849 106.383Z" fill="#E1E9F4"/>
<path d="M47.8719 105.134L46.3083 106.026L45.9062 105.803L47.4699 104.888L47.8719 105.134Z" fill="#E1E9F4"/>
<path d="M45.6798 108.347L43.6247 109.551L43.2227 109.306L45.2777 108.124L45.6798 108.347Z" fill="#E1E9F4"/>
<path d="M50.9321 105.335L46.3083 108.012L45.9062 107.767L50.5301 105.089L50.9321 105.335Z" fill="#E1E9F4"/>
<path d="M54.1271 103.505L51.5583 104.977L51.1562 104.732L53.725 103.259L54.1271 103.505Z" fill="#E1E9F4"/>
<path d="M117.874 79.4526L119.259 78.6717L118.902 78.4709L117.539 79.2518L117.874 79.4526ZM106.035 86.3023L111.977 82.8663L111.687 82.6655L105.723 86.1015L106.035 86.3023ZM112.446 82.5539L117.405 79.6757L117.07 79.4749L112.111 82.3531L112.446 82.5539ZM105.566 86.5701L105.209 86.3693L96.7878 91.2333L97.1228 91.4341L105.566 86.5701ZM95.8049 90.6085L98.5747 89.0021L98.2843 88.8013L95.4922 90.4077L95.8049 90.6085ZM114.032 80.0996L117.874 77.8684L117.539 77.6899L113.697 79.9211L114.032 80.0996ZM110.905 81.9069L113.563 80.3227L113.228 80.1219L110.57 81.6615L110.905 81.9069ZM107.13 84.1381L110.436 82.2416L110.101 82.0408L106.795 83.9373L107.13 84.1381ZM99.0438 88.8013L106.661 84.3389L106.326 84.1381L98.7087 88.6005L99.0438 88.8013Z" fill="#E1E9F4"/>
<path d="M120.243 79.2744L120.578 79.4752L117.361 81.3271L117.026 81.1263L120.243 79.2744ZM112.425 85.3433L112.782 85.5441L116.155 83.6476L115.798 83.4467L112.425 85.3433ZM116.557 81.394L110.593 84.7855L110.95 84.9863L116.892 81.5502L116.557 81.394ZM119.26 81.394L116.155 83.179L116.512 83.3798L119.573 81.6172L119.26 81.394ZM110.481 85.2763L110.124 85.0755L98.1289 91.9922L98.464 92.193L110.481 85.2763ZM104.227 90.4527L103.892 90.2519L99.5808 92.7508L99.9159 92.9516L104.227 90.4527ZM111.956 85.611L104.339 90.0734L104.696 90.2742L112.313 85.8118L111.956 85.611Z" fill="#E1E9F4"/>
<path d="M80.1046 122.225L89.7543 116.669L89.3522 116.468L79.7248 122.024L80.1046 122.225ZM79.6355 122.492L79.3004 122.292L70.857 127.178L71.192 127.379L79.6355 122.492ZM69.8741 126.553L72.6663 124.947L72.3312 124.746L69.5391 126.352L69.8741 126.553ZM84.9964 117.829L87.6546 116.29L87.2972 116.022L84.639 117.561L84.9964 117.829ZM81.2214 120.06L84.5274 118.142L84.17 117.941L80.864 119.86L81.2214 120.06ZM73.1354 124.724L80.7524 120.261L80.4173 120.083L72.8226 124.545L73.1354 124.724Z" fill="#E1E9F4"/>
<path d="M84.0061 122.715L84.3412 122.916L88.3842 120.685L88.0268 120.484L84.0061 122.715ZM88.4735 118.587L84.6986 120.819L85.0336 121.019L88.8086 118.788L88.4735 118.587ZM84.5645 121.22L84.2295 121.042L72.2344 127.958L72.5694 128.159L84.5645 121.22ZM78.3101 126.419L77.975 126.218L73.7086 128.695L74.066 128.895L78.3101 126.419ZM83.5594 123.005L78.4441 125.95L78.7792 126.151L83.8944 123.184L83.5594 123.005Z" fill="#E1E9F4"/>
<path d="M129.246 91.9025L129.581 92.1033L134.25 89.4259L133.892 89.2474L129.246 91.9025ZM129.246 92.3711L128.889 92.1703L122.612 95.8071L122.858 95.941L129.246 92.3711ZM126.007 95.4278L126.342 95.6286L129.559 93.7098L129.224 93.509L126.007 95.4278ZM129.782 93.1966L130.117 93.3974L136.818 89.5821L136.26 89.4259L129.782 93.1966ZM121.651 98.1722H121.316L114.928 101.742L115.263 101.943L121.651 98.1722ZM135.634 88.1318L134.361 88.8681L134.696 89.0689L135.992 88.3326L135.634 88.1318ZM122.389 96.1864L122.031 95.9856L113.543 100.872L113.878 101.073L122.389 96.1864ZM125.761 95.941L125.426 95.7402L121.785 97.8375L122.12 98.0383L125.761 95.941Z" fill="#E1E9F4"/>
<path d="M126.873 98.3508L132.815 94.9371L132.48 94.7363L126.516 98.1723L126.873 98.3508ZM133.284 94.647L137.751 92.0589L137.416 91.8581L132.949 94.4686L133.284 94.647ZM126.404 98.6186L126.047 98.4401L117.625 103.304L117.96 103.505L126.404 98.6186ZM116.643 102.635L119.435 101.028L119.077 100.827L116.285 102.434L116.643 102.635ZM134.87 92.1258L138.712 89.8946L138.488 89.7607L134.646 91.9919L134.87 92.1258ZM131.743 93.9331L134.401 92.3935L134.021 92.2374L131.407 93.7099L131.743 93.9331ZM127.968 96.1643L131.273 94.2677L130.938 94.0669L127.632 95.9411L127.968 96.1643ZM119.881 100.827L127.498 96.3651L127.163 96.1643L119.546 100.627L119.881 100.827Z" fill="#E1E9F4"/>
<path d="M66.746 107.097H67.0141L71.6602 104.42L71.4815 104.286L66.746 107.097ZM66.612 107.566L66.277 107.365L60.0002 110.979L60.3353 111.18L66.612 107.566ZM63.3955 110.6L63.7305 110.801L67.0141 108.77L66.679 108.57L63.3955 110.6ZM67.1705 108.369L67.5055 108.57L74.2067 104.754L73.7153 104.487L67.1705 108.369ZM59.1514 113.389L58.8163 113.188L52.4055 116.892L52.7629 117.07L59.1514 113.389ZM73.1345 103.349L71.8613 104.085L72.1963 104.286L73.4696 103.549L73.1345 103.349ZM59.8662 111.336L59.5311 111.135L51.043 116.022L51.378 116.2L59.8662 111.336ZM63.2614 110.957L62.9264 110.756L59.2631 112.854L59.6205 113.054L63.2614 110.957Z" fill="#E1E9F4"/>
<path d="M64.3507 113.433L70.3147 109.997L69.9573 109.797L64.0156 113.233L64.3507 113.433ZM70.7838 109.73L75.2512 107.119L74.9162 106.918L70.4487 109.529L70.7838 109.73ZM63.8816 113.79L63.5465 113.59L55.1031 118.454L55.4604 118.654L63.8816 113.79ZM54.1426 117.829L56.9124 116.222L56.5773 116.022L53.7852 117.628L54.1426 117.829ZM72.3697 107.32L76.2117 105.089L75.9437 104.866L72.124 107.097L72.3697 107.32ZM69.2425 109.127L71.9007 107.588L71.4762 107.298L68.8181 108.837L69.2425 109.127ZM65.4675 111.358L68.7734 109.328L68.4384 109.127L65.1325 111.024L65.4675 111.358ZM57.3815 116.022L64.9985 111.559L64.7751 111.292L57.1581 115.754L57.3815 116.022Z" fill="#E1E9F4"/>
<g style="mix-blend-mode:multiply" opacity="0.4">
<path d="M143.112 139.561L158.86 148.686V159.641L140.99 169.905V158.95L125.086 149.713C124.461 149.356 124.416 148.709 124.885 147.883C125.241 147.323 125.661 146.807 126.136 146.344L111.885 138.088C101.909 141.091 91.5212 142.506 81.1041 142.283L79.9426 141.613H80.9031C95.668 141.346 110.254 137.977 121.445 131.484C144.855 117.896 144.721 95.7848 121.177 82.2192C110.009 75.7264 95.2659 72.3797 80.5234 72.0896C70.9837 72.2182 61.518 73.7827 52.4455 76.7305L58.0744 73.6291C65.4767 72.1415 73.0187 71.4607 80.568 71.5987C96.9189 71.2864 113.448 74.7001 125.935 81.9068C149.88 95.651 150.015 118.253 126.203 131.975L124.796 132.689L137.483 140.052C139.03 139.471 140.681 139.22 142.331 139.315C142.604 139.348 142.869 139.431 143.112 139.561ZM21.0393 94.937C18.9996 98.1679 17.8017 101.857 17.5547 105.669L22.6252 108.592C22.0445 101.898 24.7026 95.3163 30.555 89.4482L21.0393 94.937Z" fill="#6637A2"/>
</g>
<path d="M165.293 66.6013V76.1731C165.293 67.0476 159.374 58.0113 147.423 50.9384C123.478 37.1273 84.611 37.1273 60.7995 50.9384C48.9831 57.8105 43.0637 66.8021 42.9297 75.8162V66.2444C42.9297 57.3196 48.8714 48.2387 60.7995 41.3666C84.5886 27.5555 123.455 27.5555 147.401 41.3666C159.463 48.3279 165.472 57.4535 165.449 66.6013H165.293Z" fill="url(#paint0_linear_733_21182)"/>
<path d="M210.839 71.3535L109.54 129.766L7.72656 71.0411L109.026 12.6509L210.839 71.3535Z" fill="#F8F5F4"/>
<path d="M160.108 54.039L157.249 54.4852L158.701 55.3108L131.852 70.7952L133.259 71.5985L160.108 56.1363L161.426 56.8949L162.208 55.2439L162.967 53.5928L160.108 54.039Z" fill="#6439BF"/>
<path d="M151.442 76.6637L152.201 75.0126L153.653 75.8604L180.503 60.376L181.91 61.2015L155.061 76.6637L156.401 77.4446L153.519 77.8908L150.66 78.3147L151.442 76.6637Z" fill="#6231A0"/>
<path d="M115.239 88.7341L115.998 90.3852L117.45 89.5373L138.782 101.831L140.19 101.028L118.857 88.7341L120.198 87.9532L117.316 87.5069L114.457 87.083L115.239 88.7341Z" fill="#6231A0"/>
<path d="M196.165 44.5121L193.306 44.0659L194.758 43.218L173.426 30.9242L174.833 30.0986L196.165 42.4148L197.505 41.6339L198.265 43.285L199.024 44.936L196.165 44.5121Z" fill="#6439BF"/>
<path d="M136.193 72.3352L89.7314 99.1318L67.8633 86.5033L114.302 59.729L136.193 72.3352Z" fill="#6439BF"/>
<path d="M214.481 27.176L168.019 53.9726L146.129 41.3664L192.59 14.5698L214.481 27.176Z" fill="#6439BF"/>
<path d="M119.976 62.9865L114.302 59.729L67.8633 86.5033L73.5146 89.7831L119.976 62.9865Z" fill="#6231A0"/>
<path d="M198.264 17.8497L192.59 14.5698L146.129 41.3664L151.803 44.6239L198.264 17.8497Z" fill="#6231A0"/>
<path d="M167.705 90.5196L121.243 117.316L99.375 104.688L145.836 77.8911L167.705 90.5196Z" fill="#6439BF"/>
<path d="M245.998 45.3601L199.536 72.1567L177.668 59.5282L224.107 32.7539L245.998 45.3601Z" fill="#6439BF"/>
<path d="M151.51 81.171L145.836 77.8911L99.375 104.688L105.049 107.968L151.51 81.171Z" fill="#6231A0"/>
<path d="M229.781 36.0114L224.107 32.7539L177.668 59.5282L183.342 62.808L229.781 36.0114Z" fill="#6231A0"/>
<path d="M52.2659 73.6741L50.9257 74.455L34.5078 64.9948L35.848 64.2139L52.2659 73.6741Z" fill="#5420C1"/>
<path d="M53.6744 72.8701L52.2448 73.6957L37.5469 65.2171L38.9765 64.3916L53.6744 72.8701Z" fill="#6231A0"/>
<path d="M57.6241 70.5949L56.2839 71.3758L40.7148 62.4064L42.0551 61.6255L57.6241 70.5949Z" fill="#5420C1"/>
<path d="M59.0342 69.7918L57.5823 70.6173L40.6953 60.867L42.1249 60.0415L59.0342 69.7918Z" fill="#6231A0"/>
<path d="M62.9853 67.5156L61.6451 68.2742L41.9883 56.9398L43.3509 56.1812L62.9853 67.5156Z" fill="#5420C1"/>
<path d="M64.3993 66.6904L62.9474 67.5159L52.918 61.7372L54.3476 60.9116L64.3993 66.6904Z" fill="#6231A0"/>
<path d="M68.3279 64.4143L66.9877 65.1952L48.8945 54.7532L50.2348 53.9946L68.3279 64.4143Z" fill="#5420C1"/>
<path d="M69.7343 63.611L68.3047 64.4366L51.7305 54.8871L53.1824 54.0615L69.7343 63.611Z" fill="#6231A0"/>
<path d="M84.4091 55.155L83.0688 55.9359L64.6406 45.2931L65.9809 44.5122L84.4091 55.155Z" fill="#5420C1"/>
<path d="M85.8156 54.3518L84.3637 55.1773L72.793 48.4837L74.2226 47.6582L85.8156 54.3518Z" fill="#6231A0"/>
<path d="M89.7743 52.0539L88.4341 52.8349L73.5352 44.2448L74.8754 43.4639L89.7743 52.0539Z" fill="#5420C1"/>
<path d="M91.1811 51.2502L89.7292 52.0757L77.332 44.9359L78.7616 44.1104L91.1811 51.2502Z" fill="#6231A0"/>
<path d="M95.1321 48.9746L93.7919 49.7555L70.8516 36.5246L72.1918 35.7437L95.1321 48.9746Z" fill="#5420C1"/>
<path d="M96.5175 48.171L95.0879 48.9966L74.9844 37.3944L76.414 36.5688L96.5175 48.171Z" fill="#6231A0"/>
<path d="M100.473 45.896L99.133 46.6546L78.3594 34.6732L79.6996 33.9146L100.473 45.896Z" fill="#5420C1"/>
<path d="M101.876 45.0702L100.446 45.8958L82.3086 35.4315L83.7382 34.606L101.876 45.0702Z" fill="#6231A0"/>
<path d="M105.831 42.794L104.49 43.5749L89.5469 34.9402L90.8871 34.1816L105.831 42.794Z" fill="#5420C1"/>
<path d="M107.239 41.9909L105.809 42.8164L88.8555 33.0438L90.2851 32.2183L107.239 41.9909Z" fill="#6231A0"/>
<path d="M73.693 61.3355L72.3528 62.1164L65.875 58.368L67.2152 57.6094L73.693 61.3355Z" fill="#5420C1"/>
<path d="M75.0922 60.5323L73.6626 61.3579L62.293 54.7982L63.7449 53.9727L75.0922 60.5323Z" fill="#6231A0"/>
<path d="M79.0524 58.2567L77.7122 59.0153L71.2344 55.2892L72.5746 54.5083L79.0524 58.2567Z" fill="#5420C1"/>
<path d="M80.4591 57.4307L79.0072 58.2562L74.3164 55.5565L75.7683 54.731L80.4591 57.4307Z" fill="#6231A0"/>
<path d="M109.829 41.7902L50.2336 76.1505L49.0273 75.4588L108.623 41.0762L109.829 41.7902Z" fill="#5420C1"/>
<path d="M118.092 35.7216L116.752 36.5025L107.75 31.3039L109.09 30.5229L118.092 35.7216Z" fill="#5420C1"/>
<path d="M119.499 34.9186L118.07 35.7441L110.766 31.5272L112.195 30.7017L119.499 34.9186Z" fill="#6231A0"/>
<path d="M123.457 32.6422L122.117 33.4008L118.699 31.4596L120.039 30.6787L123.457 32.6422Z" fill="#5420C1"/>
<path d="M124.845 31.8391L123.415 32.6646L118.68 29.9203L120.109 29.0947L124.845 31.8391Z" fill="#6231A0"/>
<path d="M128.819 29.541L127.478 30.3219L117.047 24.2977L118.387 23.5391L128.819 29.541Z" fill="#5420C1"/>
<path d="M130.223 28.7378L128.771 29.5633L123.723 26.6405L125.152 25.8149L130.223 28.7378Z" fill="#6231A0"/>
<path d="M134.151 26.4617L132.811 27.2426L129.215 25.1676L130.555 24.3867L134.151 26.4617Z" fill="#5420C1"/>
<path d="M135.561 25.6583L134.131 26.4839L128.234 23.0702L129.664 22.2446L135.561 25.6583Z" fill="#6231A0"/>
<path d="M150.235 17.2021L148.895 17.9607L129.863 6.98321L131.204 6.22461L150.235 17.2021Z" fill="#5420C1"/>
<path d="M151.642 16.3769L150.19 17.2024L132.945 7.27363L134.397 6.42578L151.642 16.3769Z" fill="#6231A0"/>
<path d="M155.597 14.1012L154.257 14.8821L130.043 0.914854L131.383 0.15625L155.597 14.1012Z" fill="#5420C1"/>
<path d="M156.986 13.2979L155.556 14.1234L132.504 0.82554L133.956 0L156.986 13.2979Z" fill="#6231A0"/>
<path d="M160.958 11.0219L159.595 11.7805L141.859 1.53937L143.2 0.780762L160.958 11.0219Z" fill="#5420C1"/>
<path d="M162.345 10.1966L160.915 11.0221L145.391 2.07505L146.82 1.24951L162.345 10.1966Z" fill="#6231A0"/>
<path d="M166.301 7.92072L164.961 8.70164L151.246 0.780916L152.586 0L166.301 7.92072Z" fill="#5420C1"/>
<path d="M167.707 7.11738L166.277 7.94292L155.176 1.53941L156.605 0.713867L167.707 7.11738Z" fill="#6231A0"/>
<path d="M171.657 4.8413L170.317 5.5999L163.504 1.67301L164.844 0.89209L171.657 4.8413Z" fill="#5420C1"/>
<path d="M173.066 4.01596L171.637 4.8415L165.605 1.38316L167.035 0.557617L173.066 4.01596Z" fill="#6231A0"/>
<path d="M139.516 23.3601L138.175 24.1411L126.828 17.6037L128.168 16.8228L139.516 23.3601Z" fill="#5420C1"/>
<path d="M140.921 22.5572L139.491 23.3828L126.312 15.7967L127.764 14.9712L140.921 22.5572Z" fill="#6231A0"/>
<path d="M144.875 20.2817L143.535 21.0626L132.59 14.7484L133.93 13.9897L144.875 20.2817Z" fill="#5420C1"/>
<path d="M146.261 19.4785L144.831 20.304L135.695 15.0384L137.125 14.2129L146.261 19.4785Z" fill="#6231A0"/>
<path d="M175.657 3.8152L116.062 38.1978L114.855 37.4838L174.451 3.12354L175.657 3.8152Z" fill="#5420C1"/>
<path d="M106.32 57.4977L62.0697 83.0002L55.793 79.3857L100.021 53.8608L106.32 57.4977Z" fill="#6231A0"/>
<path d="M66.1798 80.6578L62.0697 83.0006L55.793 79.3861L59.8807 77.021L66.1798 80.6578Z" fill="#F25A5A"/>
<path d="M146.667 34.2267L102.417 59.7292L96.1406 56.1146L140.368 30.5898L146.667 34.2267Z" fill="#6231A0"/>
<path d="M106.527 57.3859L102.417 59.7286L96.1406 56.1141L100.228 53.749L106.527 57.3859Z" fill="#97CC66"/>
<path d="M187.007 10.9549L142.78 36.4797L136.48 32.8428L180.708 7.34033L187.007 10.9549Z" fill="#6231A0"/>
<path d="M146.867 34.1149L142.78 36.4799L136.48 32.8431L140.568 30.478L146.867 34.1149Z" fill="#7844E5"/>
<path d="M151.246 26.6632L144.59 30.5008L143.875 30.0769L150.531 26.2393L151.246 26.6632Z" fill="#E1E9F4"/>
<path d="M155.106 24.4319L152.336 26.016L151.621 25.6144L154.391 24.0303L155.106 24.4319Z" fill="#E1E9F4"/>
<path d="M151.266 30.1433L147.625 32.2406L146.91 31.839L150.529 29.7417L151.266 30.1433Z" fill="#E1E9F4"/>
<path d="M160.534 24.7883L152.336 29.5185L151.621 29.0945L159.819 24.3867L160.534 24.7883Z" fill="#E1E9F4"/>
<path d="M166.141 21.553L161.629 24.1635L160.914 23.7395L165.426 21.1514L166.141 21.553Z" fill="#E1E9F4"/>
<path d="M111.285 49.7105L104.629 53.5482L103.914 53.1466L110.571 49.2866L111.285 49.7105Z" fill="#E1E9F4"/>
<path d="M115.145 47.4793L112.375 49.0857L111.66 48.6618L114.43 47.0776L115.145 47.4793Z" fill="#E1E9F4"/>
<path d="M111.285 53.1917L107.644 55.289L106.93 54.8874L110.571 52.79L111.285 53.1917Z" fill="#E1E9F4"/>
<path d="M120.55 47.8367L112.375 52.5668L111.66 52.1652L119.836 47.4351L120.55 47.8367Z" fill="#E1E9F4"/>
<path d="M126.18 44.6013L121.668 47.2118L120.953 46.8102L125.465 44.1997L126.18 44.6013Z" fill="#E1E9F4"/>
<path d="M71.3194 72.759L64.6406 76.5967L63.9258 76.1951L70.6046 72.3574L71.3194 72.759Z" fill="#E1E9F4"/>
<path d="M75.1643 70.5276L72.3945 72.1341L71.6797 71.7101L74.4495 70.126L75.1643 70.5276Z" fill="#E1E9F4"/>
<path d="M71.3206 76.24L67.6796 78.3373L66.9648 77.9357L70.6058 75.8384L71.3206 76.24Z" fill="#E1E9F4"/>
<path d="M80.5922 70.885L72.3945 75.6151L71.6797 75.2135L79.8774 70.4834L80.5922 70.885Z" fill="#E1E9F4"/>
<path d="M86.1957 67.6497L81.6835 70.2602L80.9688 69.8585L85.4809 67.248L86.1957 67.6497Z" fill="#E1E9F4"/>
<path d="M198.799 25.213L201.212 23.8297L200.609 23.4727L198.196 24.856L198.799 25.213ZM177.869 37.2838L188.368 31.2372L187.765 30.9026L177.244 36.9491L177.869 37.2838ZM189.217 30.7464L197.995 25.6816L197.37 25.3469L188.613 30.3894L189.217 30.7464ZM177.043 37.7523L176.462 37.4176L161.563 46.0077L162.166 46.3424L177.043 37.7523ZM159.821 44.9144L164.735 42.0808L164.132 41.7238L159.195 44.6244L159.821 44.9144ZM192.098 26.3509L198.799 22.424L198.196 22.0894L191.495 25.9939L192.098 26.3509ZM186.581 29.5415L191.16 26.7749L190.557 26.4179L185.866 29.1399L186.581 29.5415ZM179.813 33.4684L185.643 30.0993L185.039 29.7423L179.209 33.0222L179.813 33.4684ZM165.539 41.7015L178.941 33.937L178.383 33.4684L164.981 41.233L165.539 41.7015Z" fill="#E1E9F4"/>
<path d="M202.933 24.8999L203.559 25.2569L197.885 28.5144L197.26 28.1798L202.933 24.8999ZM189.151 35.6989L189.777 36.0335L195.607 32.6868L195.004 32.3298L189.151 35.6989ZM196.433 28.7152L185.935 34.7841L186.538 35.1187L197.059 29.0053L196.433 28.7152ZM201.213 28.7152L195.83 31.8389L196.433 32.1736L201.839 29.0053L201.213 28.7152ZM185.711 35.5873L185.108 35.2303L163.91 47.4572L164.513 47.7919L185.711 35.5873ZM174.677 44.6236L174.074 44.2666L166.457 48.729L167.06 49.0637L174.677 44.6236ZM188.347 36.0335L174.945 43.7981L175.548 44.1328L188.95 36.3905L188.347 36.0335Z" fill="#E1E9F4"/>
<path d="M132.076 100.716L149.097 90.8987L148.494 90.564L131.473 100.404L132.076 100.716ZM131.249 101.207L130.646 100.85L115.747 109.44L116.35 109.797L131.249 101.207ZM114.027 108.347L118.941 105.513L118.383 105.178L113.469 108.012L114.027 108.347ZM140.72 92.9737L145.411 90.274L144.808 89.917L140.117 92.6167L140.72 92.9737ZM134.019 96.8114L139.849 93.4423L139.246 93.0853L133.416 96.4544L134.019 96.8114ZM119.746 105.044L133.148 97.2799L132.545 96.9452L119.142 104.687L119.746 105.044Z" fill="#E1E9F4"/>
<path d="M138.981 101.608L139.584 101.965L146.71 97.8601L146.085 97.5031L138.981 101.608ZM146.822 94.3125L140.12 98.1501L140.724 98.5071L147.425 94.6695L146.822 94.3125ZM139.942 98.9757L139.339 98.6187L118.141 110.846L118.744 111.203L139.942 98.9757ZM128.907 108.124L128.304 107.767L120.687 112.229L121.29 112.586L128.907 108.124ZM138.155 102.099L129.22 107.298L129.823 107.655L138.758 102.434L138.155 102.099Z" fill="#E1E9F4"/>
<path d="M218.901 47.2118L219.504 47.5465L227.702 42.8164L227.099 42.4594L218.901 47.2118ZM218.677 48.0374L218.074 47.6804L206.906 54.0616L207.509 54.4186L218.677 48.0374ZM212.959 53.3922L213.585 53.7492L219.415 50.3801L218.811 50.0455L212.959 53.3922ZM219.66 49.5546L220.263 49.9116L231.968 43.218L231.365 42.8833L219.66 49.5546ZM205.498 58.4794L204.828 58.0108L193.66 64.5259L194.263 64.8829L205.498 58.4794ZM230.069 40.6968L227.836 41.9909L228.439 42.3479L230.673 41.0538L230.069 40.6968ZM206.727 54.8871L206.124 54.5525L191.113 63.1872L191.716 63.5442L206.727 54.8871ZM212.713 54.2178L212.2 53.8831L205.767 57.5869L206.37 57.9439L212.713 54.2178Z" fill="#E1E9F4"/>
<path d="M214.661 58.5914L225.16 52.5225L224.556 52.1879L214.036 58.2344L214.661 58.5914ZM225.986 52.054L233.96 47.4577L233.357 47.1007L225.383 51.697L225.986 52.054ZM213.835 59.0599L213.209 58.7252L198.333 67.3153L198.936 67.65L213.835 59.0599ZM196.568 66.222L201.482 63.3884L200.879 63.0314L195.965 65.865L196.568 66.222ZM228.778 47.6585L235.479 43.754L234.876 43.397L228.175 47.3016L228.778 47.6585ZM223.373 50.8268L228.063 48.1271L227.46 47.7701L222.747 50.4922L223.373 50.8268ZM216.671 54.6868L222.457 51.3177L221.854 50.9607L216.001 54.3298L216.671 54.6868ZM202.331 62.9199L215.733 55.1553L215.13 54.7983L201.728 62.5629L202.331 62.9199Z" fill="#E1E9F4"/>
<path d="M108.489 73.8082L109.092 74.1651L117.29 69.435L116.687 69.1673L108.489 73.8082ZM108.266 74.6337L107.662 74.2767L96.4938 80.6802L97.097 81.0149L108.266 74.6337ZM102.57 80.0109L103.173 80.3455L109.003 76.9987L108.4 76.6418L102.57 80.0109ZM109.271 76.1732L109.874 76.5079L121.579 69.8143L120.975 69.4573L109.271 76.1732ZM95.1313 85.098L94.4835 84.7856L83.1809 91.3007L83.784 91.6353L95.1313 85.098ZM119.702 67.3823L117.469 68.6764L118.072 69.0334L120.305 67.7393L119.702 67.3823ZM96.3598 81.5057L95.7567 81.1488L80.7461 89.8058L81.3715 90.1405L96.3598 81.5057ZM102.346 80.8364L101.743 80.4794L95.2876 84.1832L95.9131 84.5402L102.346 80.8364Z" fill="#E1E9F4"/>
<path d="M104.291 85.1866L114.79 79.1401L114.187 78.7831L103.688 84.785L104.291 85.1866ZM115.616 78.6492L123.613 74.0529L122.987 73.629L115.013 78.3145L115.616 78.6492ZM103.465 85.6774L102.862 85.3205L87.9626 93.9105L88.5657 94.2675L103.465 85.6774ZM86.2426 92.8172L91.1568 89.9836L90.5537 89.6266L85.6172 92.4826L86.2426 92.8172ZM118.386 74.2538L125.087 70.3492L124.484 69.9922L117.783 73.8968L118.386 74.2538ZM112.869 77.4444L117.559 74.7223L116.956 74.3876L112.266 77.0874L112.869 77.4444ZM106.167 81.282L111.997 77.9129L111.394 77.5559L105.542 80.925L106.167 81.282ZM91.8939 89.5151L105.296 81.7506L104.671 81.4159L91.3579 89.2473L91.8939 89.5151Z" fill="#E1E9F4"/>
<path d="M60.7377 48.149C84.5268 34.338 123.394 34.338 147.339 48.149C158.508 54.5525 164.382 62.7856 165.209 71.1526C166.214 61.3577 160.25 51.3396 147.339 43.8651C123.394 30.0541 84.5268 30.0541 60.7377 43.8651C47.9385 51.295 42.0638 61.2238 43.0913 70.9741C43.9401 62.6517 49.8148 54.4856 60.7377 48.149Z" fill="#6F96C1"/>
<path d="M166.502 66.6011V76.1729C166.502 85.3431 160.449 94.5133 148.409 101.497C124.196 115.553 84.6363 115.553 60.2441 101.497C47.9809 94.4241 41.8605 85.12 41.8829 75.8159V66.2441C41.8829 75.5482 47.9809 84.8523 60.2664 91.9251C84.6363 105.982 124.196 105.982 148.431 91.9251C160.471 84.9415 166.48 75.7713 166.525 66.6011H166.502Z" fill="url(#paint1_linear_733_21182)"/>
<path d="M148.114 40.9201C172.506 54.9766 172.685 77.8686 148.404 91.9251C124.124 105.982 84.6089 105.982 60.306 91.9251C36.0031 77.8686 35.735 54.9766 60.0156 40.9201C84.2962 26.8636 123.744 26.7744 148.114 40.9201ZM60.9985 91.4788C84.877 105.29 123.811 105.29 147.622 91.4788C171.434 77.6678 171.277 55.1774 147.421 41.3663C123.565 27.5553 84.6089 27.5553 60.8198 41.3663C37.0306 55.1774 37.0529 77.6678 60.9985 91.4788Z" fill="url(#paint2_linear_733_21182)"/>
<path d="M164.714 104.264C164.921 104.297 165.119 104.373 165.295 104.487L148.564 94.8703C148.382 94.7734 148.186 94.7056 147.983 94.6695C146.152 94.3125 143.158 96.0082 141.282 98.4625C140.495 99.4035 140.019 100.565 139.919 101.787C139.895 102.091 139.955 102.395 140.093 102.667C140.231 102.939 140.441 103.167 140.701 103.327L157.432 112.943C157.619 113.051 157.823 113.127 158.035 113.166C159.867 113.501 162.837 111.805 164.736 109.351C165.523 108.41 165.999 107.248 166.099 106.026C166.137 105.611 166.016 105.197 165.758 104.869C165.5 104.541 165.127 104.325 164.714 104.264Z" fill="#C7C6C4"/>
<path d="M168.02 102.278C167.729 102.113 167.411 102 167.082 101.943C164.155 101.407 159.398 104.174 156.449 108.034C155.176 109.541 154.396 111.403 154.215 113.367C154.177 113.851 154.273 114.337 154.494 114.77C154.715 115.203 155.051 115.567 155.466 115.821L211.51 147.905C211.798 148.077 212.117 148.191 212.449 148.24C215.375 148.798 220.133 146.009 223.081 142.149C224.353 140.649 225.132 138.795 225.315 136.839C225.349 136.384 225.267 135.928 225.075 135.514C224.883 135.1 224.589 134.742 224.22 134.474C223.885 134.273 168.02 102.278 168.02 102.278Z" fill="url(#paint3_linear_733_21182)"/>
<path style="mix-blend-mode:screen" d="M222.662 135.879C222.037 135.121 219.669 135.991 217.391 137.843C215.112 139.695 213.794 141.837 214.442 142.617C215.09 143.398 217.435 142.506 219.714 140.654C221.992 138.802 223.377 136.66 222.662 135.879Z" fill="url(#paint4_linear_733_21182)"/>
</g>
<defs>
<linearGradient id="paint0_linear_733_21182" x1="42.9297" y1="53.5935" x2="165.382" y2="53.5935" gradientUnits="userSpaceOnUse">
<stop stop-color="#E4E2E2"/>
<stop offset="1" stop-color="#D6D5D4"/>
</linearGradient>
<linearGradient id="paint1_linear_733_21182" x1="41.8382" y1="89.1361" x2="166.502" y2="89.1361" gradientUnits="userSpaceOnUse">
<stop stop-color="#D6D5D4"/>
<stop offset="1" stop-color="#E4E2E2"/>
</linearGradient>
<linearGradient id="paint2_linear_733_21182" x1="41.8555" y1="66.4226" x2="166.497" y2="66.4226" gradientUnits="userSpaceOnUse">
<stop stop-color="#F0EFEC"/>
<stop offset="1" stop-color="#FFFEFB"/>
</linearGradient>
<linearGradient id="paint3_linear_733_21182" x1="154.26" y1="125.103" x2="225.27" y2="125.103" gradientUnits="userSpaceOnUse">
<stop stop-color="#312F2C"/>
<stop offset="1" stop-color="#252321"/>
</linearGradient>
<linearGradient id="paint4_linear_733_21182" x1="217.324" y1="137.887" x2="219.577" y2="140.389" gradientUnits="userSpaceOnUse">
<stop stop-color="#312F2C"/>
<stop offset="1" stop-color="#252321"/>
</linearGradient>
<clipPath id="clip0_733_21182">
<rect width="246" height="188" fill="white"/>
</clipPath>
</defs>
</svg>
