<svg width="239" height="155" viewBox="0 0 239 155" fill="none" xmlns="http://www.w3.org/2000/svg">
<g clip-path="url(#clip0_733_22157)">
<g opacity="0.4">
<path d="M25.1151 54.5459L0 69.1508L130.311 144.822H144.448L25.1151 54.5459Z" fill="#ADA6A3"/>
</g>
<path d="M144.785 144.822L11.5312 67.4184V54.7383L144.785 81.133V144.822Z" fill="#D2CFCC"/>
<path d="M238.999 90.1076L144.781 144.822V81.1329L238.999 77.3794V90.1076Z" fill="#E9E6E6"/>
<path d="M239.002 77.3797L144.785 132.118L11.5312 54.7384L105.773 0L239.002 77.3797Z" fill="#F8F5F4"/>
<path d="M39.5164 60.8497L38.6314 61.355L31.7188 57.3368L32.6038 56.8315L39.5164 60.8497Z" fill="#AE7BE1"/>
<path d="M40.4244 60.3207L39.4916 60.85L33.7031 57.5055L34.636 56.9521L40.4244 60.3207Z" fill="#642DD8"/>
<path d="M43.0048 58.8288L42.1198 59.334L35.7812 55.6527L36.6423 55.1475L43.0048 58.8288Z" fill="#AE7BE1"/>
<path d="M43.9142 58.2995L42.9814 58.8289L35.7578 54.6423L36.6907 54.0889L43.9142 58.2995Z" fill="#642DD8"/>
<path d="M46.4997 56.7837L45.6147 57.289L36.6211 52.0678L37.4822 51.5625L46.4997 56.7837Z" fill="#AE7BE1"/>
<path d="M47.4086 56.2543L46.4757 56.8077L39.9219 52.982L40.8547 52.4526L47.4086 56.2543Z" fill="#642DD8"/>
<path d="M49.9951 54.7624L49.134 55.2677L41.1211 50.6239L42.0061 50.1187L49.9951 54.7624Z" fill="#AE7BE1"/>
<path d="M50.8977 54.2333L49.9649 54.7626L42.9805 50.6963L43.9133 50.167L50.8977 54.2333Z" fill="#642DD8"/>
<path d="M60.4916 48.6508L59.6066 49.156L51.4023 44.392L52.2634 43.8867L60.4916 48.6508Z" fill="#AE7BE1"/>
<path d="M61.4019 48.1218L60.4691 48.6751L52.8867 44.272L53.8435 43.7427L61.4019 48.1218Z" fill="#642DD8"/>
<path d="M63.984 46.6297L63.1229 47.1349L57.2148 43.6942L58.0759 43.189L63.984 46.6297Z" fill="#AE7BE1"/>
<path d="M64.9164 46.1007L63.9597 46.63L55.875 41.9382L56.8078 41.3848L64.9164 46.1007Z" fill="#642DD8"/>
<path d="M67.4762 44.6087L66.6151 45.114L55.4688 38.6176L56.3298 38.1123L67.4762 44.6087Z" fill="#AE7BE1"/>
<path d="M68.4097 44.0552L67.4769 44.6086L58.1484 39.1949L59.1052 38.6655L68.4097 44.0552Z" fill="#642DD8"/>
<path d="M70.9912 42.5635L70.1062 43.0688L60.3711 37.4145L61.2322 36.9092L70.9912 42.5635Z" fill="#AE7BE1"/>
<path d="M71.9033 42.034L70.9704 42.5874L62.9336 37.9196L63.8664 37.3662L71.9033 42.034Z" fill="#642DD8"/>
<path d="M74.481 40.5424L73.596 41.0477L67.6641 37.5829L68.5491 37.0776L74.481 40.5424Z" fill="#AE7BE1"/>
<path d="M75.3913 40.0134L74.4584 40.5427L67.2109 36.3321L68.1438 35.8027L75.3913 40.0134Z" fill="#642DD8"/>
<path d="M53.4815 52.7174L52.6204 53.2227L48.3867 50.7685L49.2478 50.2632L53.4815 52.7174Z" fill="#AE7BE1"/>
<path d="M54.4186 52.1882L53.4618 52.7416L46.0469 48.4347L47.0036 47.8813L54.4186 52.1882Z" fill="#642DD8"/>
<path d="M56.9776 50.6964L56.1165 51.2017L51.8828 48.7475L52.7678 48.2422L56.9776 50.6964Z" fill="#AE7BE1"/>
<path d="M57.9086 50.1667L56.9757 50.6961L53.9141 48.9396L54.8469 48.3862L57.9086 50.1667Z" fill="#642DD8"/>
<path d="M77.0925 39.8683L38.1761 62.4614L37.3867 62.0043L76.3032 39.4111L77.0925 39.8683Z" fill="#AE7BE1"/>
<path d="M82.4957 35.8746L81.6107 36.3799L75.7266 32.9633L76.6116 32.458L82.4957 35.8746Z" fill="#AE7BE1"/>
<path d="M83.4037 35.3456L82.4708 35.899L77.7109 33.132L78.6438 32.5786L83.4037 35.3456Z" fill="#642DD8"/>
<path d="M85.9884 33.8535L85.1034 34.3588L82.8789 33.0595L83.7639 32.5542L85.9884 33.8535Z" fill="#AE7BE1"/>
<path d="M86.8978 33.3241L85.965 33.8534L82.8555 32.0729L83.7883 31.5195L86.8978 33.3241Z" fill="#642DD8"/>
<path d="M89.4827 31.8088L88.6216 32.3381L81.8047 28.3681L82.6897 27.8628L89.4827 31.8088Z" fill="#AE7BE1"/>
<path d="M90.4139 31.2792L89.4571 31.8326L86.1562 29.9078L87.0891 29.3784L90.4139 31.2792Z" fill="#642DD8"/>
<path d="M92.9708 29.7875L92.1097 30.2928L89.7656 28.9454L90.6267 28.416L92.9708 29.7875Z" fill="#AE7BE1"/>
<path d="M93.9049 29.2582L92.9721 29.8116L89.1211 27.5739L90.0539 27.0205L93.9049 29.2582Z" fill="#642DD8"/>
<path d="M103.472 23.7L102.611 24.2052L94 19.2006L94.8611 18.6953L103.472 23.7Z" fill="#AE7BE1"/>
<path d="M104.407 23.1703L103.451 23.6996L96.0117 19.3928L96.9446 18.8394L104.407 23.1703Z" fill="#642DD8"/>
<path d="M106.99 21.6548L106.105 22.16L94.1211 15.2064L95.0061 14.7012L106.99 21.6548Z" fill="#AE7BE1"/>
<path d="M107.901 21.125L106.969 21.6784L95.7266 15.1579L96.6594 14.6045L107.901 21.125Z" fill="#642DD8"/>
<path d="M110.487 19.6338L109.602 20.1391L101.828 15.6156L102.713 15.1104L110.487 19.6338Z" fill="#AE7BE1"/>
<path d="M111.392 19.1047L110.459 19.634L104.145 15.9767L105.077 15.4233L111.392 19.1047Z" fill="#642DD8"/>
<path d="M113.975 17.5887L113.09 18.1181L104.145 12.8969L105.006 12.3916L113.975 17.5887Z" fill="#AE7BE1"/>
<path d="M114.887 17.0593L113.955 17.6127L106.707 13.402L107.64 12.8486L114.887 17.0593Z" fill="#642DD8"/>
<path d="M117.466 15.5678L116.605 16.0731L112.156 13.4986L113.017 12.9692L117.466 15.5678Z" fill="#AE7BE1"/>
<path d="M118.403 15.0382L117.446 15.5676L113.523 13.3058L114.456 12.7524L118.403 15.0382Z" fill="#642DD8"/>
<path d="M96.4913 27.7659L95.6063 28.2712L88.1914 23.9643L89.0764 23.459L96.4913 27.7659Z" fill="#AE7BE1"/>
<path d="M97.4031 27.2125L96.4703 27.7659L87.8594 22.7853L88.8161 22.2319L97.4031 27.2125Z" fill="#642DD8"/>
<path d="M99.9817 25.721L99.0967 26.2263L91.9688 22.0878L92.8298 21.5825L99.9817 25.721Z" fill="#AE7BE1"/>
<path d="M100.889 25.1918L99.9563 25.7452L93.9766 22.2805L94.9094 21.7271L100.889 25.1918Z" fill="#642DD8"/>
<path d="M120.073 14.8937L81.1565 37.5109L80.3672 37.0537L119.284 14.4365L120.073 14.8937Z" fill="#AE7BE1"/>
<path d="M74.7975 50.1911L45.9032 66.9856L41.7891 64.5795L70.6834 47.8091L74.7975 50.1911Z" fill="#642DD8"/>
<path d="M48.5821 65.4211L45.9032 66.985L41.7891 64.579L44.468 63.0391L48.5821 65.4211Z" fill="#F25A5A"/>
<path d="M101.153 34.8884L72.2586 51.6828L68.1445 49.2768L97.0388 32.5063L101.153 34.8884Z" fill="#642DD8"/>
<path d="M74.9376 50.1184L72.2586 51.6823L68.1445 49.2762L70.8235 47.7363L74.9376 50.1184Z" fill="#97CC66"/>
<path d="M127.489 19.5856L98.5946 36.3801L94.4805 33.9981L123.375 17.2036L127.489 19.5856Z" fill="#642DD8"/>
<path d="M101.274 34.8161L98.5946 36.3801L94.4805 33.998L97.1594 32.4341L101.274 34.8161Z" fill="#7844E5"/>
<path d="M104.144 29.9318L99.7904 32.4341L99.3359 32.1695L103.665 29.6431L104.144 29.9318Z" fill="#E1E9F4"/>
<path d="M106.651 28.4645L104.857 29.4991L104.379 29.2345L106.197 28.1758L106.651 28.4645Z" fill="#E1E9F4"/>
<path d="M104.143 32.2173L101.775 33.5888L101.297 33.3241L103.689 31.9526L104.143 32.2173Z" fill="#E1E9F4"/>
<path d="M110.191 28.7047L104.857 31.8086L104.379 31.5199L109.737 28.416L110.191 28.7047Z" fill="#E1E9F4"/>
<path d="M113.877 26.563L110.911 28.2713L110.457 28.0067L113.399 26.2983L113.877 26.563Z" fill="#E1E9F4"/>
<path d="M78.0465 45.0895L73.6932 47.6159L73.2148 47.3272L77.5681 44.8008L78.0465 45.0895Z" fill="#E1E9F4"/>
<path d="M80.5575 43.6222L78.7396 44.6568L78.2852 44.3922L80.0791 43.3335L80.5575 43.6222Z" fill="#E1E9F4"/>
<path d="M78.0495 47.376L75.6576 48.7475L75.2031 48.4828L77.5711 47.1113L78.0495 47.376Z" fill="#E1E9F4"/>
<path d="M84.0975 43.8625L78.7396 46.9663L78.2852 46.6776L83.643 43.5737L84.0975 43.8625Z" fill="#E1E9F4"/>
<path d="M87.7598 41.7217L84.8177 43.43L84.3633 43.1654L87.3053 41.457L87.7598 41.7217Z" fill="#E1E9F4"/>
<path d="M51.9288 60.2487L47.5756 62.7751L47.1211 62.4863L51.4744 59.96L51.9288 60.2487Z" fill="#E1E9F4"/>
<path d="M54.4637 58.7808L52.6459 59.8154L52.1914 59.5507L53.9853 58.5161L54.4637 58.7808Z" fill="#E1E9F4"/>
<path d="M51.9284 62.5337L49.5604 63.9052L49.082 63.6405L51.4739 62.269L51.9284 62.5337Z" fill="#E1E9F4"/>
<path d="M58.0038 59.0216L52.6459 62.1255L52.1914 61.8368L57.5254 58.7329L58.0038 59.0216Z" fill="#E1E9F4"/>
<path d="M61.6626 56.8799L58.7206 58.5882L58.2422 58.3236L61.1842 56.6152L61.6626 56.8799Z" fill="#E1E9F4"/>
<path d="M159.781 63.0154C148.156 69.7525 129.308 69.7525 117.683 63.0154C106.059 56.2784 106.059 45.3307 117.683 38.5696C129.308 31.8085 148.156 31.8326 159.781 38.5696C171.406 45.3067 171.406 56.2543 159.781 63.0154Z" fill="#5832C5"/>
<path d="M159.781 63.0154C148.157 69.7525 129.308 69.7525 117.684 63.0154V65.4215C129.308 72.1585 148.157 72.1585 159.781 65.4215C165.665 62.0049 168.56 57.5055 168.488 53.0302V50.5278C168.56 55.0994 165.665 59.5988 159.781 63.0154Z" fill="#642DD8"/>
<path d="M139.183 42.8048L139.016 50.4802L138.489 50.6486L117.68 38.5701L117.704 30.4375L139.183 42.8048Z" fill="#642DD8"/>
<path d="M139.016 42.8044V50.8648L160.041 38.6418L160.064 30.5093L139.016 42.8044Z" fill="#642DD8"/>
<path opacity="0.4" d="M160.064 30.5093L139.015 42.8044L117.703 30.4371C129.424 23.7001 148.296 23.7242 160.064 30.5093Z" fill="#5832C5"/>
<path d="M108.879 45.7637V49.9503L139.017 50.5518V45.7637H108.879Z" fill="#642DD8"/>
<path opacity="0.4" d="M117.681 33.3242C111.845 36.7649 108.879 41.2643 108.879 45.7396H139.017L117.681 33.3242Z" fill="#5832C5"/>
<path d="M117.66 60.5132C113.823 58.566 110.84 55.2569 109.288 51.2257C109.014 50.2882 108.877 49.3156 108.881 48.3384V49.0602C108.802 51.2659 108.938 53.474 109.288 55.6529V55.8213C110.013 57.9113 111.14 59.837 112.605 61.4884C114.07 63.1399 115.845 64.4846 117.827 65.4456L118.425 65.7584V60.9463L117.66 60.5132Z" fill="#642DD8"/>
<path d="M139.02 48.3862V50.8645L118.449 63.4483V60.9701L139.02 48.3862Z" fill="#642DD8"/>
<path opacity="0.4" d="M139.017 48.3865L118.447 60.9463L117.657 60.5132C113.82 58.566 110.838 55.2569 109.286 51.2257C109.02 50.2863 108.883 49.3149 108.879 48.3384L139.017 48.3865Z" fill="#5832C5"/>
<path d="M77.5175 66.6006L62.9986 75.0459L61.5156 74.1797L76.0345 65.7344L77.5175 66.6006Z" fill="#F25A5A"/>
<path d="M72.8321 72.5674L65.776 76.6577L64.293 75.7915L71.3252 71.7012L72.8321 72.5674Z" fill="#F25A5A"/>
<path d="M91.42 65.0128L68.5533 78.2703L67.0703 77.4041L89.9131 64.1226L91.42 65.0128Z" fill="#97CC66"/>
<path d="M104.909 60.3926L71.3267 79.8818L69.8438 79.0157L103.402 59.5264L104.909 60.3926Z" fill="#97CC66"/>
<path d="M105.127 63.497L74.1041 81.4946L72.6211 80.6284L103.62 62.6309L105.127 63.497Z" fill="#97CC66"/>
<path d="M103.472 67.6587L76.8975 83.1057L75.3906 82.2395L101.989 66.7925L103.472 67.6587Z" fill="#642DD8"/>
<path d="M101.011 72.3271L79.6749 84.7185L78.168 83.8523L99.5278 71.4609L101.011 72.3271Z" fill="#642DD8"/>
<path d="M99.3113 76.5371L82.4483 86.3299L80.9414 85.4637L97.8283 75.6709L99.3113 76.5371Z" fill="#7844E5"/>
<path d="M111.8 72.4951L85.2257 87.9422L83.7188 87.076L110.317 71.6289L111.8 72.4951Z" fill="#7844E5"/>
<path d="M115.765 73.4336L87.9952 89.5543L86.4883 88.6882L114.258 72.5674L115.765 73.4336Z" fill="#CA86FF"/>
<path d="M113.735 77.8369L90.7725 91.1666L89.2656 90.3004L112.228 76.9707L113.735 77.8369Z" fill="#CA86FF"/>
<path d="M112.442 81.8071L93.546 92.7789L92.0391 91.9127L110.959 80.9409L112.442 81.8071Z" fill="#642DD8"/>
<path d="M123.017 78.8955L96.3228 94.3907L94.8398 93.5245L121.534 78.0293L123.017 78.8955Z" fill="#F25A5A"/>
<path d="M127.444 79.5454L99.1002 96.003L97.6172 95.1368L125.937 78.6792L127.444 79.5454Z" fill="#F25A5A"/>
<path d="M100.006 96.1714L99.0967 96.6766L60.3477 74.1797L61.2566 73.6504L100.006 96.1714Z" fill="#CA86FF"/>
<path d="M112.155 102.283C112.358 102.348 112.535 102.477 112.661 102.65C112.786 102.822 112.854 103.031 112.854 103.245C112.854 103.459 112.786 103.668 112.661 103.841C112.535 104.014 112.358 104.142 112.155 104.208C111.644 104.468 111.078 104.603 110.505 104.603C109.932 104.603 109.366 104.468 108.855 104.208C108.652 104.142 108.475 104.014 108.349 103.841C108.224 103.668 108.156 103.459 108.156 103.245C108.156 103.031 108.224 102.822 108.349 102.65C108.475 102.477 108.652 102.348 108.855 102.283C109.366 102.023 109.932 101.887 110.505 101.887C111.078 101.887 111.644 102.023 112.155 102.283Z" fill="#642DD8"/>
<path d="M120.171 106.95C120.365 107.021 120.533 107.15 120.652 107.32C120.771 107.49 120.834 107.693 120.834 107.901C120.834 108.108 120.771 108.311 120.652 108.481C120.533 108.651 120.365 108.781 120.171 108.851C119.659 109.111 119.094 109.247 118.521 109.247C117.947 109.247 117.382 109.111 116.87 108.851C116.676 108.781 116.508 108.651 116.389 108.481C116.271 108.311 116.207 108.108 116.207 107.901C116.207 107.693 116.271 107.49 116.389 107.32C116.508 107.15 116.676 107.021 116.87 106.95C117.382 106.69 117.947 106.555 118.521 106.555C119.094 106.555 119.659 106.69 120.171 106.95Z" fill="#642DD8"/>
<path d="M128.062 111.522C128.264 111.587 128.441 111.716 128.567 111.889C128.692 112.062 128.76 112.27 128.76 112.485C128.76 112.699 128.692 112.907 128.567 113.08C128.441 113.253 128.264 113.382 128.062 113.447C127.55 113.707 126.985 113.843 126.411 113.843C125.838 113.843 125.273 113.707 124.761 113.447C124.558 113.382 124.381 113.253 124.256 113.08C124.13 112.907 124.062 112.699 124.062 112.485C124.062 112.27 124.13 112.062 124.256 111.889C124.381 111.716 124.558 111.587 124.761 111.522C125.273 111.262 125.838 111.126 126.411 111.126C126.985 111.126 127.55 111.262 128.062 111.522Z" fill="#642DD8"/>
<path d="M136.03 116.142C136.233 116.207 136.41 116.335 136.536 116.508C136.661 116.681 136.729 116.89 136.729 117.104C136.729 117.318 136.661 117.527 136.536 117.7C136.41 117.873 136.233 118.001 136.03 118.067C135.519 118.327 134.953 118.462 134.38 118.462C133.807 118.462 133.241 118.327 132.73 118.067C132.527 118.001 132.35 117.873 132.224 117.7C132.099 117.527 132.031 117.318 132.031 117.104C132.031 116.89 132.099 116.681 132.224 116.508C132.35 116.335 132.527 116.207 132.73 116.142C133.241 115.882 133.807 115.746 134.38 115.746C134.953 115.746 135.519 115.882 136.03 116.142Z" fill="#642DD8"/>
<path d="M143.921 120.738C144.115 120.809 144.283 120.938 144.402 121.108C144.521 121.278 144.584 121.481 144.584 121.688C144.584 121.896 144.521 122.099 144.402 122.269C144.283 122.439 144.115 122.568 143.921 122.639C143.409 122.899 142.844 123.034 142.271 123.034C141.697 123.034 141.132 122.899 140.62 122.639C140.426 122.568 140.258 122.439 140.139 122.269C140.021 122.099 139.957 121.896 139.957 121.688C139.957 121.481 140.021 121.278 140.139 121.108C140.258 120.938 140.426 120.809 140.62 120.738C141.132 120.478 141.697 120.342 142.271 120.342C142.844 120.342 143.409 120.478 143.921 120.738Z" fill="#642DD8"/>
<path d="M154.925 79.4004L159.709 76.6334L159.087 76.2725L154.303 79.0395L154.925 79.4004ZM133.637 91.7436L144.329 85.56L143.707 85.1991L133.039 91.4308L133.637 91.7436ZM145.166 85.0547L154.064 79.8816L153.466 79.5207L144.544 84.6938L145.166 85.0547ZM132.8 92.273L132.202 91.9121L117.061 100.694L117.683 101.055L132.8 92.273ZM160.522 76.1763L167.291 72.1822L166.669 71.8213L159.9 75.7672L160.522 76.1763ZM115.315 99.5875L120.314 96.7242L119.596 96.3633L114.812 99.2747L115.315 99.5875ZM158.991 73.5536L159.589 73.9145L165.545 70.4498L165.043 70.0889L158.991 73.5536ZM148.012 80.6275L158.752 74.3958L158.154 74.0349L147.39 80.2666L148.012 80.6275ZM142.415 83.8998L147.199 81.1328L146.577 80.7719L141.793 83.5389L142.415 83.8998ZM135.646 87.8217L141.578 84.381L140.956 84.0201L135.024 87.4608L135.646 87.8217ZM121.151 96.243L134.809 88.3029L134.187 87.942L120.529 95.8821L121.151 96.243Z" fill="#CA86FF"/>
<path d="M149.708 87.7016L150.33 88.0625L159.228 82.8654L158.606 82.5285L149.708 87.7016ZM149.493 88.5437L148.871 88.1828L138.179 94.3905L138.801 94.7274L149.493 88.5437ZM151.382 89.5543L152.004 89.9152L157.865 86.4745L157.243 86.1136L151.382 89.5543ZM158.152 85.6324L158.773 85.9933L163.557 83.2263L162.935 82.8654L158.152 85.6324ZM174.512 76.008L163.749 82.2638L164.371 82.6248L175.11 76.3689L174.512 76.008ZM136.672 98.8177L136.05 98.4809L124.593 105.122L125.191 105.483L136.672 98.8177ZM169.25 76.3449L159.467 82.0232L160.065 82.3842L169.824 76.7058L169.25 76.3449ZM137.964 95.2327L137.342 94.8717L122.105 103.726L122.727 104.087L137.964 95.2327ZM170.087 75.984L170.709 76.3449L176.426 73.0004L175.804 72.6636L170.087 75.984ZM151.167 90.4205L150.545 90.0596L136.887 97.9756L137.509 98.3365L151.167 90.4205Z" fill="#CA86FF"/>
<path d="M153.492 94.9924L154.114 95.3533L160.045 91.8886L159.424 91.5517L153.492 94.9924ZM154.975 97.6872L154.353 97.3263L143.804 103.462L144.426 103.823L154.975 97.6872ZM165.045 88.2794L160.261 91.0464L160.883 91.4074L165.666 88.6404L165.045 88.2794ZM165.882 87.7982L166.504 88.1591L177.243 81.8071L176.621 81.4702L165.882 87.7982ZM177.004 84.8628L183.247 81.2296L182.625 80.8687L176.382 84.5019L177.004 84.8628ZM138.734 104.256L138.112 103.895L130.434 108.274L131.055 108.635L138.734 104.256ZM152.607 95.4736L138.997 103.462L139.619 103.823L153.276 95.8827L152.607 95.4736ZM155.142 96.8451L155.764 97.206L166.432 90.9983L165.81 90.6374L155.142 96.8451ZM175.569 84.9831L166.647 90.1562L167.269 90.5171L176.191 85.344L175.569 84.9831ZM180.616 79.2085L177.411 81.0612L178.033 81.4221L181.238 79.5694L180.616 79.2085ZM143.517 104.304L142.895 103.943L132.778 109.814L133.4 110.175L143.517 104.304Z" fill="#CA86FF"/>
<path d="M157.316 105.555L167.983 99.3713L167.433 99.0104L156.765 105.218L157.316 105.555ZM168.821 98.866L177.742 93.6929L177.121 93.332L168.199 98.6495L168.821 98.866ZM156.478 106.084L155.856 105.723L140.716 114.506L141.338 114.866L156.478 106.084ZM138.97 113.303L143.969 110.391L143.347 110.03L138.348 113.086L138.97 113.303ZM182.646 87.2928L183.268 87.6537L189.2 84.213L188.578 83.8521L182.646 87.2928ZM171.667 94.3666L182.431 88.1349L181.785 87.774L171.045 94.0298L171.667 94.3666ZM166.07 97.6389L170.854 94.8719L170.232 94.511L165.448 97.278L166.07 97.6389ZM159.301 101.561L165.233 98.1201L164.611 97.7592L158.679 101.2L159.301 101.561ZM144.806 109.982L158.464 102.042L157.866 101.681L144.208 109.621L144.806 109.982Z" fill="#CA86FF"/>
<path d="M180.012 97.9758L180.634 98.3367L189.555 93.1637L188.934 92.8027L180.012 97.9758Z" fill="#CA86FF"/>
<path d="M171.789 105.603L172.411 105.964L178.343 102.524L177.721 102.163L171.789 105.603Z" fill="#CA86FF"/>
<path d="M179.18 98.457L168.512 104.665L169.134 105.026L179.802 98.8179L179.18 98.457Z" fill="#CA86FF"/>
<path d="M187.767 96.3159L178.559 101.681L179.18 102.042L188.389 96.6768L187.767 96.3159Z" fill="#CA86FF"/>
<path d="M168.294 105.507L167.672 105.146L146.145 117.658L146.766 118.019L168.294 105.507Z" fill="#CA86FF"/>
<path d="M189.773 92.3212L190.395 92.6821L195.155 89.9151L194.533 89.5542L189.773 92.3212Z" fill="#CA86FF"/>
<path d="M157.078 114.866L156.456 114.505L148.73 119.005L149.352 119.366L157.078 114.866Z" fill="#CA86FF"/>
<path d="M170.947 106.084L157.289 114.024L157.911 114.385L171.569 106.445L170.947 106.084Z" fill="#CA86FF"/>
<path d="M195.398 89.0728L195.996 89.4097L200.039 87.0758L199.441 86.7148L195.398 89.0728Z" fill="#CA86FF"/>
<path d="M27.8173 95.7624V92.7548L16.4796 86.0659V89.0254C16.4477 89.2869 16.4864 89.5523 16.5916 89.7936C16.6968 90.0349 16.8647 90.2433 17.0776 90.3969L28.3913 97.0617C28.1905 96.9151 28.0317 96.7177 27.9309 96.4896C27.8302 96.2615 27.791 96.0107 27.8173 95.7624Z" fill="#8851CE"/>
<path d="M30.3986 76.2973C30.1583 76.1804 29.8907 76.132 29.625 76.1575C29.3594 76.1829 29.1057 76.2812 28.8917 76.4416L18.5586 82.4328L29.8723 89.0254L40.2293 83.0102C40.4419 82.8567 40.691 82.7625 40.9515 82.7371C41.212 82.7118 41.4744 82.7562 41.7123 82.8659L30.3986 76.2973Z" fill="#A378FF"/>
<path d="M27.7942 92.7547L16.4805 86.0658C16.5216 85.3389 16.7312 84.6318 17.0926 84.0009C17.4539 83.3701 17.9569 82.833 18.5614 82.4326L29.8752 89.0253C29.2694 89.4243 28.7653 89.961 28.4038 90.5922C28.0423 91.2233 27.8335 91.9311 27.7942 92.6585V92.7547Z" fill="#A378FF"/>
<path d="M40.2343 83.107C41.3825 82.4333 42.3153 82.9626 42.3153 84.31V87.3176C42.2771 88.0513 42.0663 88.7653 41.7004 89.4011C41.3345 90.0368 40.8238 90.5762 40.2104 90.9749L29.9013 96.966C28.7532 97.6397 27.8203 97.0863 27.8203 95.763V92.7554C27.842 92.0136 28.0401 91.2879 28.398 90.639C28.7559 89.9902 29.2632 89.437 29.8774 89.0259L40.2343 83.107Z" fill="#252321"/>
<path d="M87.9245 109.308L34.25 78.0291C34.4957 77.8484 34.7852 77.7374 35.0882 77.7077C35.3911 77.6781 35.6965 77.7309 35.9722 77.8607L89.6467 109.14C89.3684 109.016 89.0623 108.968 88.7598 109.002C88.4573 109.036 88.1691 109.15 87.9245 109.332V109.308Z" fill="#373431"/>
<path d="M73.5992 123.889V120.424L19.9246 89.0249V92.5137C19.8982 92.8147 19.9506 93.1174 20.0765 93.3918C20.2024 93.6661 20.3974 93.9026 20.6422 94.0777L74.3167 125.357C74.0846 125.192 73.8973 124.971 73.772 124.715C73.6466 124.459 73.5872 124.175 73.5992 123.889Z" fill="#1E1B19"/>
<path d="M75.987 116.238L22.3125 84.9349L34.2481 78.0054L87.9227 109.309L75.987 116.238Z" fill="#2D2B29"/>
<path d="M73.6003 120.424L19.9258 89.025C19.9715 88.1877 20.2117 87.3728 20.6271 86.6457C21.0425 85.9187 21.6215 85.2997 22.3177 84.8384L75.9922 116.117C75.296 116.579 74.717 117.198 74.3016 117.925C73.8862 118.652 73.646 119.467 73.6003 120.304V120.424Z" fill="#373431"/>
<path d="M87.9257 109.308C89.2652 108.514 90.3176 109.14 90.3176 110.679V114.168C90.2756 115.006 90.0371 115.823 89.6213 116.55C89.2056 117.278 88.6245 117.896 87.9257 118.355L75.9661 125.284C74.6506 126.078 73.5742 125.429 73.5742 123.889V120.424C73.6199 119.587 73.8601 118.772 74.2755 118.045C74.6909 117.318 75.2699 116.699 75.9661 116.237L87.9257 109.308Z" fill="#252321"/>
<path d="M88.9312 111.426C88.725 111.34 88.5005 111.308 88.2787 111.333C88.057 111.358 87.8452 111.44 87.6634 111.57L77.4978 117.465C76.993 117.8 76.5725 118.248 76.2695 118.774C75.9665 119.3 75.7892 119.89 75.7517 120.497V123.023C75.7308 123.242 75.7686 123.462 75.8611 123.661C75.9537 123.86 76.0976 124.03 76.2779 124.154L90.4859 126.993C90.9027 127.087 91.3383 127.045 91.7297 126.873L94.1216 125.429C95.1023 124.852 95.2458 120.834 95.2458 120.834L88.9312 111.426Z" fill="#1E1B19"/>
<path d="M100.218 124.057L93.2812 119.991C93.4194 119.911 93.5762 119.869 93.7357 119.869C93.8953 119.869 94.052 119.911 94.1902 119.991L101.055 124.057C100.923 123.971 100.77 123.926 100.612 123.926C100.455 123.926 100.302 123.971 100.17 124.057H100.218Z" fill="#373431"/>
<path d="M96.1332 129.736V127.907L89.2684 123.841V125.669C89.2483 125.828 89.2736 125.99 89.3414 126.135C89.4092 126.279 89.5166 126.402 89.6511 126.488L96.5159 130.554C96.3871 130.462 96.2841 130.339 96.217 130.196C96.1499 130.052 96.1211 129.894 96.1332 129.736Z" fill="#1E1B19"/>
<path d="M97.3765 125.694L90.5117 121.627L93.3342 119.991L100.223 124.058L97.3765 125.694Z" fill="#2D2B29"/>
<path d="M96.107 127.907L89.2422 123.841C89.2611 123.397 89.3862 122.964 89.6069 122.578C89.8276 122.193 90.1373 121.867 90.5099 121.627L97.3747 125.694C97.0061 125.937 96.6995 126.265 96.4794 126.649C96.2592 127.033 96.1317 127.464 96.107 127.907Z" fill="#373431"/>
<path d="M100.219 124.058C100.913 123.649 101.487 124.058 101.487 124.78V126.608C101.468 127.053 101.343 127.486 101.122 127.871C100.901 128.256 100.592 128.583 100.219 128.822L97.3966 130.458C96.6791 130.867 96.1289 130.458 96.1289 129.736V127.908C96.1536 127.465 96.2811 127.034 96.5013 126.649C96.7214 126.265 97.0281 125.938 97.3966 125.694L100.219 124.058Z" fill="#252321"/>
<path d="M100.653 124.948L97.1367 126.993V129.399L101.179 131.805C101.231 131.837 101.289 131.857 101.35 131.861C101.41 131.866 101.471 131.857 101.527 131.833C101.584 131.809 101.633 131.773 101.673 131.726C101.712 131.679 101.739 131.624 101.753 131.564L102.638 128.773C102.648 128.669 102.648 128.565 102.638 128.461V126.56C102.636 126.43 102.601 126.303 102.539 126.19C102.476 126.077 102.387 125.981 102.279 125.91L100.653 124.948Z" fill="#A378FF"/>
<path d="M44.2053 92.7791L31.0977 85.1758L35.14 82.8179L48.2477 90.4211L44.2053 92.7791Z" fill="#3F474F"/>
<path d="M52.1702 94.8957L53.7249 95.81L53.414 95.9785L51.8353 95.0882L52.1702 94.8957ZM50.7589 95.8822L51.0699 95.7138L49.85 94.992L49.0368 94.5348L48.7258 94.7032L49.5391 95.1845L50.7589 95.8822ZM48.367 94.198L46.3578 93.019L46.0469 93.2115L48.0561 94.3664L48.367 94.198ZM50.3284 94.198L51.1656 94.7032L51.5004 94.5108L50.2327 93.8371L47.8408 92.4415L47.5059 92.61L50.5437 94.3664L50.3284 94.198ZM49.2042 92.1047L51.1656 93.2596L51.4765 93.0671L49.5152 91.9122L48.8693 91.5513L48.5584 91.7438L49.2042 92.1047ZM53.1509 94.5108L53.7728 94.8957L54.0837 94.7032L53.2465 94.222L52.0506 93.5243L51.7396 93.7167L53.1509 94.5108ZM58.724 97.3981L57.8629 96.8928L57.552 97.0612L58.4131 97.5905L58.724 97.3981ZM57.4085 96.4837L56.6431 96.0506L56.3321 96.2191L57.0975 96.6762L57.4085 96.4837ZM57.6237 98.0477L56.1886 97.2296L55.8776 97.3981L57.3128 98.2402L57.6237 98.0477ZM54.2272 97.5184L53.6053 97.1575L53.2944 97.3499L53.9163 97.7109L54.2272 97.5184ZM54.8013 97.8552L54.4903 98.0477L56.0929 98.962L56.4039 98.7936L54.8013 97.8552Z" fill="#3F474F"/>
<path d="M16.4337 118.908V115.901L5.11999 109.212V112.244C5.09512 112.504 5.13964 112.765 5.24896 113.002C5.35828 113.239 5.52844 113.442 5.74189 113.591L17.0556 120.304C16.8325 120.153 16.6558 119.943 16.5459 119.696C16.4359 119.449 16.3971 119.176 16.4337 118.908Z" fill="#CE307C"/>
<path d="M19.1353 99.4433C18.8951 99.3264 18.6275 99.278 18.3618 99.3035C18.0961 99.3289 17.8425 99.4272 17.6284 99.5876L7.17578 105.579L18.4895 112.268L28.8226 106.252C29.0398 106.099 29.2929 106.005 29.5571 105.98C29.8213 105.955 30.0874 105.999 30.3295 106.108L19.1353 99.4433Z" fill="#FF398F"/>
<path d="M16.4348 115.901L5.12109 109.212C5.15956 108.487 5.36552 107.781 5.7226 107.151C6.07969 106.52 6.57807 105.982 7.17814 105.579L18.4919 112.268C17.8861 112.667 17.382 113.203 17.0205 113.834C16.659 114.466 16.4502 115.173 16.4109 115.901H16.4348Z" fill="#FF398F"/>
<path d="M28.8476 106.252C29.9957 105.579 30.9525 106.252 30.9525 107.456V110.463C30.9188 111.195 30.7126 111.908 30.3507 112.544C29.9889 113.18 29.4819 113.72 28.8715 114.12L18.5385 120.112C17.3664 120.785 16.4336 120.256 16.4336 118.909V115.901C16.4729 115.174 16.6817 114.466 17.0432 113.835C17.4047 113.203 17.9087 112.667 18.5146 112.268L28.8476 106.252Z" fill="#252321"/>
<path d="M76.5452 132.455L22.8945 101.055C23.1402 100.875 23.4297 100.764 23.7327 100.734C24.0357 100.704 24.341 100.757 24.6167 100.887L78.2913 132.335C78.0168 132.2 77.7105 132.144 77.4065 132.174C77.1024 132.203 76.8125 132.317 76.5691 132.503L76.5452 132.455Z" fill="#373431"/>
<path d="M62.1918 147.06V143.571L8.51723 112.292V115.781C8.48579 116.08 8.53337 116.382 8.65517 116.657C8.77697 116.931 8.96866 117.169 9.21089 117.345L62.8854 148.624C62.6394 148.451 62.4449 148.214 62.3227 147.939C62.2004 147.663 62.1552 147.359 62.1918 147.06Z" fill="#1E1B19"/>
<path d="M64.6316 139.384L10.957 108.081L22.8927 101.151L76.5672 132.455L64.6316 139.384Z" fill="#2D2B29"/>
<path d="M62.1941 143.571L8.51953 112.292C8.56149 111.454 8.8001 110.638 9.21582 109.91C9.63155 109.182 10.2126 108.564 10.9114 108.105L64.586 139.385C63.8871 139.843 63.3061 140.461 62.8904 141.189C62.4746 141.917 62.236 142.733 62.1941 143.571Z" fill="#373431"/>
<path d="M76.5429 132.455C77.8824 131.685 78.9348 132.286 78.9348 133.826V137.315C78.8928 138.153 78.6542 138.969 78.2385 139.697C77.8228 140.425 77.2417 141.043 76.5429 141.501L64.5833 148.431C63.2438 149.225 62.1914 148.599 62.1914 147.06V143.571C62.2334 142.732 62.472 141.916 62.8877 141.189C63.3034 140.461 63.8845 139.843 64.5833 139.384L76.5429 132.455Z" fill="#252321"/>
<path d="M77.5453 134.596C77.3471 134.499 77.126 134.458 76.9065 134.48C76.687 134.501 76.4776 134.583 76.3015 134.716L66.1358 140.611C65.6253 140.945 65.2008 141.396 64.8973 141.928C64.5938 142.459 64.4198 143.055 64.3897 143.667V146.073C64.3668 146.293 64.401 146.515 64.4891 146.717C64.5772 146.92 64.716 147.096 64.892 147.228L79.1 150.043C79.5021 150.188 79.9417 150.188 80.3438 150.043L82.7357 148.599C83.6925 148.046 83.836 144.004 83.836 144.004L77.5453 134.596Z" fill="#1E1B19"/>
<path d="M88.8374 147.204L81.9727 143.138C82.1129 143.064 82.2688 143.026 82.4271 143.026C82.5854 143.026 82.7413 143.064 82.8816 143.138L89.7464 147.204C89.6099 147.119 89.4525 147.074 89.2919 147.074C89.1313 147.074 88.9739 147.119 88.8374 147.204Z" fill="#373431"/>
<path d="M84.7457 152.883V151.054L77.857 146.988V148.816C77.8397 148.972 77.8639 149.13 77.9269 149.274C77.9899 149.418 78.0895 149.542 78.2158 149.634L85.1045 153.701C84.9744 153.612 84.8717 153.488 84.8082 153.344C84.7448 153.199 84.7231 153.039 84.7457 152.883Z" fill="#1E1B19"/>
<path d="M86.0137 148.841L79.125 144.774L81.9714 143.138L88.8362 147.204L86.0137 148.841Z" fill="#2D2B29"/>
<path d="M84.7481 151.055L77.8594 146.989C77.8841 146.546 78.0116 146.115 78.2318 145.73C78.4519 145.346 78.7586 145.019 79.1271 144.775L86.1115 148.841C85.7429 149.085 85.4363 149.412 85.2161 149.796C84.996 150.181 84.8685 150.612 84.8438 151.055H84.7481Z" fill="#373431"/>
<path d="M88.8343 147.205C89.5519 146.796 90.1021 147.205 90.126 147.927V149.755C90.1013 150.198 89.9737 150.629 89.7536 151.014C89.5334 151.398 89.2268 151.725 88.8583 151.969L86.1076 153.605C85.4139 154.014 84.8398 153.605 84.8398 152.883V151.055C84.8645 150.612 84.9921 150.181 85.2122 149.796C85.4324 149.412 85.739 149.085 86.1076 148.841L88.8343 147.205Z" fill="#252321"/>
<path d="M89.2656 148.094L85.7734 150.139V152.546L89.7919 154.952C89.8439 154.984 89.9024 155.004 89.9631 155.01C90.0238 155.016 90.0852 155.009 90.1426 154.988C90.2001 154.967 90.2521 154.934 90.2949 154.89C90.3377 154.846 90.3702 154.793 90.3898 154.735L91.2509 151.92C91.2722 151.817 91.2722 151.71 91.2509 151.607V149.73C91.2357 149.617 91.1956 149.509 91.1335 149.413C91.0715 149.317 90.989 149.237 90.8921 149.177L89.2656 148.094Z" fill="#FF398F"/>
<path d="M32.8421 115.925L19.7344 108.322L23.7767 105.964L36.8844 113.567L32.8421 115.925Z" fill="#3F474F"/>
<path d="M40.7835 118.042L42.3621 118.957L42.0512 119.149L40.4725 118.235L40.7835 118.042ZM39.3722 119.029L39.7071 118.861L38.4633 118.139L37.674 117.682L37.363 117.85L38.1524 118.331L39.3722 119.029ZM36.9803 117.345L34.9711 116.166L34.6602 116.358L36.6694 117.537L36.9803 117.345ZM38.9417 117.345L39.7789 117.826L40.0898 117.633L38.6307 116.791L36.2388 115.396L35.9279 115.564L38.9656 117.345H38.9417ZM37.7936 115.227L39.7789 116.382L40.0898 116.19L38.2719 115.131L37.65 114.746L37.3391 114.939L37.961 115.299L37.7936 115.227ZM41.7402 117.513L42.386 117.898H42.8166L41.9794 117.417L40.7835 116.719L40.4725 116.912L41.8598 117.706L41.7402 117.513ZM47.3373 120.4L46.4523 119.895L46.1413 120.088L47.0264 120.593L47.3373 120.4ZM45.8782 119.558L45.1367 119.125L44.8258 119.294L45.5673 119.751L45.8782 119.558ZM46.1174 121.146L44.778 120.304L44.467 120.473L45.9261 121.315L46.1174 121.146ZM42.697 120.593L42.1947 120.304L41.8837 120.497L42.5056 120.858L42.697 120.593ZM43.271 120.93L42.9601 121.122L44.5627 122.037L44.8736 121.868L43.271 120.93Z" fill="#3F474F"/>
</g>
<defs>
<clipPath id="clip0_733_22157">
<rect width="239" height="155" fill="white"/>
</clipPath>
</defs>
</svg>
