<svg width="25" height="23" viewBox="0 0 25 23" fill="none" xmlns="http://www.w3.org/2000/svg">
<path d="M12.4996 16.0597C11.8007 16.0597 11.2148 16.6456 11.2148 17.3445C11.2148 18.0434 11.8007 18.6293 12.4996 18.6293C13.1729 18.6293 13.7844 18.0434 13.7536 17.3753C13.7844 16.6404 13.2037 16.0597 12.4996 16.0597Z" fill="white"/>
<path d="M24.3916 20.6129C25.1985 19.2202 25.2036 17.5603 24.4019 16.1727L16.354 2.2354C15.5575 0.832418 14.1185 -0.00012207 12.5048 -0.00012207C10.8911 -0.00012207 9.45218 0.837557 8.65561 2.23026L0.597449 16.183C-0.204256 17.586 -0.199117 19.2562 0.612866 20.6489C1.41457 22.0262 2.84839 22.8536 4.4518 22.8536H20.527C22.1356 22.8536 23.5797 22.0159 24.3916 20.6129ZM22.6443 19.6057C22.1972 20.3765 21.4058 20.8339 20.5219 20.8339H4.44666C3.57301 20.8339 2.78672 20.3868 2.34989 19.6314C1.90793 18.8656 1.90279 17.9509 2.34475 17.18L10.4029 3.23239C10.8397 2.46666 11.6209 2.01442 12.5048 2.01442C13.3836 2.01442 14.1699 2.4718 14.6067 3.23753L22.6598 17.1851C23.0914 17.9355 23.0863 18.8399 22.6443 19.6057Z" fill="#E63114"/>
<path d="M12.1833 7.04042C11.5717 7.21515 11.1914 7.77018 11.1914 8.44341C11.2222 8.8494 11.2479 9.26053 11.2788 9.66652C11.3661 11.2134 11.4535 12.7294 11.5409 14.2763C11.5717 14.8005 11.9777 15.1808 12.5019 15.1808C13.0261 15.1808 13.4372 14.7748 13.4629 14.2455C13.4629 13.9269 13.4629 13.6339 13.4937 13.3102C13.5503 12.3183 13.6119 11.3265 13.6685 10.3346C13.6993 9.69221 13.7558 9.04982 13.7867 8.40743C13.7867 8.17617 13.7558 7.9706 13.6685 7.76504C13.4064 7.18946 12.7948 6.89653 12.1833 7.04042Z" fill="white"/>
</svg>
