<svg width="65" height="65" viewBox="0 0 65 65" fill="none" xmlns="http://www.w3.org/2000/svg">
<g clip-path="url(#clip0_731_11147)">
<path d="M18.7299 27.7656H60.5589C61.7858 27.7656 62.8923 28.2658 63.6962 29.0692V29.0768C64.4995 29.8807 65.0002 30.9872 65.0002 32.2064V60.5581C65.0002 61.7769 64.4995 62.891 63.6962 63.6944C62.8923 64.4987 61.7858 64.9984 60.5589 64.9984H18.7299C17.5106 64.9984 16.3965 64.4987 15.5931 63.6944C14.7893 62.891 14.2891 61.784 14.2891 60.5581V32.2064C14.2891 30.9872 14.7893 29.873 15.5931 29.0692C16.397 28.2658 17.5106 27.7656 18.7299 27.7656ZM60.5589 29.7959H18.7299C18.0672 29.7959 17.468 30.0706 17.0312 30.5073C16.594 30.9445 16.3193 31.5438 16.3193 32.2064V60.5581C16.3193 61.2208 16.594 61.8266 17.0312 62.2639C17.4675 62.7001 18.0672 62.9682 18.7299 62.9682H60.5589C61.2216 62.9682 61.8274 62.7006 62.2646 62.2639C62.7014 61.8266 62.97 61.2203 62.97 60.5581V32.2064C62.97 31.5438 62.7019 30.9379 62.2646 30.5007V30.5078C61.8274 30.0711 61.2216 29.7959 60.5589 29.7959Z" fill="white"/>
<path d="M31.1654 19.2999H48.1324C49.0982 19.2999 49.9859 19.6945 50.6207 20.3359C51.2549 20.9772 51.6571 21.8588 51.6571 22.8241V28.7803V29.7954H50.6415H46.3561H45.3414V28.7803V25.482H33.9568V28.7808V29.7959H32.9412H28.6557H27.6406V28.7808V22.8241C27.6406 21.8588 28.0352 20.9701 28.6695 20.3359C29.3108 19.6945 30.1929 19.2999 31.1654 19.2999ZM48.1319 21.3302H31.1654C30.7561 21.3302 30.3828 21.4988 30.1076 21.774C29.84 22.0421 29.6714 22.4154 29.6714 22.8241V27.7652H31.9266V24.4664V23.4518H32.9417H46.3561H47.3717V24.4664V27.7657H49.6269V22.8247C49.6269 22.4154 49.4578 22.0421 49.1902 21.7745H49.1825C48.9144 21.4993 48.5412 21.3302 48.1319 21.3302Z" fill="white"/>
<path d="M11.2145 55.0951C11.7716 55.0951 12.2296 55.5455 12.2296 56.1097C12.2296 56.6663 11.7716 57.1243 11.2145 57.1243H3.04535C2.21356 57.1243 1.45234 56.779 0.895274 56.2296V56.2225C0.345313 55.6725 0 54.9118 0 54.0724V3.04484C0 2.21305 0.345313 1.45184 0.895274 0.895273C1.44473 0.345313 2.20594 0 3.04535 0H31.6002C32.0374 0 32.4462 0.0848047 32.8275 0.253906C33.2013 0.423008 33.5395 0.669297 33.8427 0.98668V0.993789V0.98668L41.505 9.1848C41.5259 9.20613 41.5401 9.22695 41.5614 9.24828C41.8072 9.52301 41.9839 9.82668 42.1109 10.1436C42.2378 10.4894 42.3084 10.8555 42.3084 11.2435V16.22C42.3084 16.7837 41.8504 17.2352 41.2933 17.2352C40.7296 17.2352 40.2711 16.7837 40.2711 16.22V11.2435C40.2711 11.1023 40.2574 10.9759 40.2147 10.8626C40.1725 10.7712 40.1233 10.6864 40.0598 10.6016C40.0456 10.5879 40.0309 10.5808 40.0172 10.5666L32.3619 2.36844C32.2557 2.2557 32.1364 2.1709 32.0095 2.10742C31.8901 2.05816 31.7561 2.03023 31.6007 2.03023H3.04535C2.77063 2.03023 2.51672 2.14297 2.3334 2.3334L2.32629 2.32629C2.14297 2.5091 2.03023 2.77012 2.03023 3.04484V54.0724C2.03023 54.3542 2.14297 54.6081 2.32629 54.7914L2.3334 54.7986C2.51672 54.9753 2.77012 55.0951 3.04535 55.0951H11.2145Z" fill="white"/>
<path d="M35.965 46.2698L18.5471 42.9629C17.37 42.7446 16.2837 42.2302 15.5022 41.4476C14.7542 40.7006 14.2891 39.7211 14.2891 38.5435H16.3193C16.3193 39.1427 16.5595 39.6363 16.9398 40.0171C17.4263 40.496 18.1383 40.8276 18.9208 40.9754L36.3388 44.2812L35.965 46.2698ZM64.9997 38.5435C64.9997 39.7206 64.5346 40.6935 63.7871 41.4405V41.4476C63.0045 42.2302 61.9193 42.7451 60.7493 42.9629L43.3309 46.2972L42.9505 44.3097L60.3685 40.9754C61.1581 40.8205 61.8701 40.4965 62.3561 40.0171C62.7369 39.6363 62.9695 39.1422 62.9695 38.5435H64.9997Z" fill="white"/>
<path d="M25.8666 9.07153C26.4303 9.07153 26.8818 9.52298 26.8818 10.0867C26.8818 10.6437 26.4303 11.1018 25.8666 11.1018H11.6987C11.1345 11.1018 10.683 10.6437 10.683 10.0867C10.683 9.52298 11.1345 9.07153 11.6987 9.07153H25.8666ZM6.86227 9.07153C7.42645 9.07153 7.885 9.52298 7.885 10.0867C7.885 10.6437 7.42695 11.1018 6.86227 11.1018H6.10156C5.54398 11.1018 5.08594 10.6437 5.08594 10.0867C5.08594 9.52298 5.54398 9.07153 6.10156 9.07153H6.86227Z" fill="white"/>
<path d="M19.1909 18.2848C19.748 18.2848 20.2061 18.7423 20.2061 19.2999C20.2061 19.8636 19.748 20.3145 19.1909 20.3145H11.6982C11.1345 20.3145 10.683 19.8636 10.683 19.2999C10.683 18.7428 11.1345 18.2848 11.6982 18.2848H19.1909ZM6.86277 18.2848C7.42645 18.2848 7.885 18.7423 7.885 19.2999C7.885 19.8636 7.42695 20.3145 6.86277 20.3145H6.10156C5.54449 20.3145 5.08594 19.8636 5.08594 19.2999C5.08594 18.7428 5.54398 18.2848 6.10156 18.2848H6.86277Z" fill="white"/>
<path d="M25.8666 13.6814C26.4303 13.6814 26.8818 14.1328 26.8818 14.6965C26.8818 15.2531 26.4303 15.7116 25.8666 15.7116H11.6987C11.1345 15.7116 10.683 15.2536 10.683 14.6965C10.683 14.1328 11.1345 13.6814 11.6987 13.6814H25.8666ZM6.86227 13.6814C7.42645 13.6814 7.885 14.1328 7.885 14.6965C7.885 15.2531 7.42695 15.7116 6.86227 15.7116H6.10156C5.54398 15.7116 5.08594 15.2536 5.08594 14.6965C5.08594 14.1328 5.54398 13.6814 6.10156 13.6814H6.86227Z" fill="white"/>
<path d="M32.6446 0.373242L41.8853 10.4041C42.259 10.8129 42.2382 11.4542 41.8218 11.8346C41.6314 12.0108 41.3856 12.1027 41.1383 12.1027H34.7734C33.6882 12.1027 32.7081 11.6584 31.9961 10.9469C31.9753 10.9256 31.9535 10.9048 31.9327 10.8834C31.2557 10.1781 30.8398 9.21984 30.8398 8.16918V1.01512C30.8398 0.458047 31.2913 0 31.8555 0C32.1718 0 32.4542 0.147773 32.6446 0.373242ZM38.8267 10.073L32.8701 3.61563V8.16969C32.8701 8.67699 33.0676 9.13504 33.385 9.47324C33.3987 9.48746 33.4134 9.50168 33.4277 9.5159C33.773 9.86121 34.2518 10.0725 34.7734 10.0725L38.8267 10.073Z" fill="white"/>
<path d="M46.157 5.46969C46.0443 6.01914 45.509 6.37156 44.9591 6.25223C44.4091 6.13899 44.0567 5.60375 44.1694 5.06039L44.5574 3.21348L45.0647 0.81C45.1632 0.331133 45.5862 -0.000976562 46.0585 -0.000976562H47.8348H49.6112C50.1256 -0.000976562 50.5491 0.379883 50.6192 0.880078L51.3662 4.43273C51.8877 4.58102 52.3955 4.75723 52.8886 4.96137C53.3893 5.16602 53.8753 5.4057 54.3404 5.66672L57.4492 3.63648C57.8509 3.37547 58.3796 3.43895 58.7106 3.77055H58.7183L59.9731 5.02535C59.9868 5.04668 60.0081 5.0609 60.0228 5.08172L61.2279 6.28727C61.5798 6.63258 61.6158 7.18254 61.3411 7.57711L59.3317 10.657C59.5993 11.1227 59.8324 11.6086 60.0437 12.1093C60.2412 12.6024 60.4174 13.1102 60.5652 13.6318L64.1884 14.4001C64.6891 14.4986 65.0273 14.95 64.9994 15.4431V17.1641V18.9404C64.9994 19.4548 64.619 19.885 64.1183 19.9484L60.5657 20.6954C60.4179 21.2241 60.2412 21.7319 60.0442 22.2179C59.7481 22.9298 59.3957 23.6062 58.994 24.2344C58.6985 24.7132 58.0708 24.8544 57.5914 24.5513C57.1192 24.2481 56.9785 23.6209 57.2812 23.1482C57.627 22.6058 57.923 22.0345 58.1698 21.4429C58.4095 20.8645 58.5994 20.2724 58.7406 19.6666C58.8041 19.2649 59.1138 18.9333 59.5303 18.8419L62.9692 18.1229V17.1641H62.9763V16.2125L59.5292 15.4863C59.156 15.4091 58.8386 15.1197 58.7467 14.718C58.6126 14.0908 58.4156 13.4845 58.1688 12.8858C57.922 12.2937 57.626 11.7224 57.2801 11.18C57.076 10.8555 57.0689 10.4325 57.2872 10.0872L59.2124 7.1409L58.5913 6.51375C58.5705 6.50004 58.5568 6.48531 58.5349 6.46398L57.8585 5.78758L54.9752 7.66953C54.6441 7.92293 54.1855 7.95137 53.8199 7.71879C53.2771 7.37348 52.7063 7.07742 52.1142 6.83063C51.5358 6.59094 50.9371 6.40051 50.3307 6.25984C49.9362 6.19637 49.5974 5.8932 49.5131 5.4702L48.786 2.02977H47.8348H46.8756L46.5445 3.62277L46.157 5.46969ZM47.8348 10.8764C47.2706 10.8764 46.8192 10.4249 46.8192 9.86125C46.8192 9.29758 47.2706 8.84613 47.8348 8.84613C50.1322 8.84613 52.2117 9.77695 53.7204 11.2852C55.222 12.7868 56.1523 14.8663 56.1523 17.1641C56.1523 17.7704 56.0888 18.3696 55.9619 18.9404C55.8349 19.5249 55.6445 20.0896 55.3987 20.632C55.1656 21.1398 54.5664 21.3652 54.052 21.1327C53.5447 20.8996 53.3258 20.3004 53.5589 19.793C53.7417 19.3985 53.8829 18.9684 53.9814 18.5169C54.0733 18.0802 54.1226 17.6288 54.1226 17.1636C54.1226 15.4294 53.4177 13.8572 52.2828 12.7157C51.1407 11.5817 49.5685 10.8764 47.8348 10.8764Z" fill="#E63114"/>
<path d="M36.2955 38.5724H42.9986C43.5278 38.5724 44.0066 38.7907 44.3525 39.1356L44.3596 39.1427C44.7054 39.489 44.9232 39.975 44.9232 40.5036V47.9334C44.9232 49.3852 44.3316 50.7035 43.3724 51.6618C42.4213 52.621 41.0959 53.2131 39.6435 53.2131C38.1912 53.2131 36.8729 52.621 35.9146 51.6618C34.9625 50.7035 34.3633 49.3857 34.3633 47.9334V40.5036C34.3633 39.975 34.5821 39.488 34.9346 39.1427V39.1356C35.287 38.7907 35.7669 38.5724 36.2955 38.5724ZM42.8935 40.6026H36.4011V47.9334C36.4011 48.8211 36.7607 49.6391 37.3528 50.2247C37.9449 50.8168 38.7559 51.1829 39.6435 51.1829C40.5393 51.1829 41.3493 50.8168 41.9414 50.2247C42.5264 49.6397 42.8935 48.8211 42.8935 47.9334V40.6026Z" fill="white"/>
<path d="M39.6401 48.8139C40.2008 48.8139 40.6552 48.3594 40.6552 47.7988C40.6552 47.2382 40.2008 46.7837 39.6401 46.7837C39.0795 46.7837 38.625 47.2382 38.625 47.7988C38.625 48.3594 39.0795 48.8139 39.6401 48.8139Z" fill="white"/>
</g>
<defs>
<clipPath id="clip0_731_11147">
<rect width="65" height="65" fill="white"/>
</clipPath>
</defs>
</svg>
