<svg width="70" height="70" viewBox="0 0 70 70" fill="none" xmlns="http://www.w3.org/2000/svg">
<path d="M66.5547 20.9453H61.6875C61.3047 18.5391 59.3906 16.6797 56.9844 16.2422V12.4141L66.8828 8.47657C67.7031 8.14845 67.7031 7.00001 66.8828 6.67189C64.6406 5.79689 56.3281 2.51564 56.3281 2.51564C55.7266 2.29689 55.0156 2.6797 55.0156 3.39064V16.1875C52.6094 16.5703 50.75 18.4844 50.3125 20.8906H45.4453C44.8984 20.8906 44.4609 21.3281 44.4609 21.875V37.3516H24.5C23.9531 37.3516 23.5703 37.7891 23.5156 38.2813V53.7578H3.44531C2.89844 53.7578 2.51562 54.1953 2.46094 54.6875V66.4453C2.46094 66.9922 2.89844 67.375 3.39062 67.4297H66.5C67.0469 67.4297 67.4297 66.9922 67.4844 66.5V21.9297C67.4844 21.3828 67.1016 20.9453 66.5547 20.9453ZM56.9844 10.3906V4.8672L63.9297 7.65626L56.9844 10.3906ZM56.0547 18.1016C57.8047 18.1016 59.3359 19.3047 59.7734 20.9453H52.3359C52.7734 19.3047 54.3047 18.1016 56.0547 18.1016ZM4.42969 55.7266H23.5703V65.5703H4.42969V55.7266ZM25.4297 39.3203H44.5703V65.625H25.4297V39.3203ZM65.5703 65.5703H46.4844V22.8594H65.625L65.5703 65.5703Z" fill="white"/>
<path d="M24.9925 29.5313L34.2347 34.8906C34.3988 35 34.5628 35 34.7269 35H41.18C41.7269 35 42.1644 34.5625 42.1644 34.0703C42.1644 33.9063 42.1644 33.3047 42.1644 33.1406C42.1644 31.9375 41.4534 30.8984 40.3597 30.4063L37.0784 28.9844C36.2581 27.7813 36.0941 26.25 36.6409 24.8828C36.805 24.4453 36.6409 23.9531 36.2034 23.7344L31.8284 21.2188C31.3909 20.9453 30.8441 21.1094 30.5706 21.5469C29.9144 22.4766 29.0941 23.2969 28.1644 23.9531C26.6331 25.1563 25.3753 26.6875 24.6644 28.4922C24.4456 28.8203 24.6097 29.3125 24.9925 29.5313ZM29.2581 25.375C30.1331 24.7188 30.8988 24.0078 31.6097 23.1875L34.6175 24.9375C34.1253 26.7969 34.5628 28.8203 35.7659 30.3516C35.8753 30.461 35.9847 30.5156 36.0941 30.5703L39.5941 32.1016C39.9769 32.2656 40.2503 32.6485 40.2503 33.086H35.0003L26.7425 28.3281C27.3441 27.125 28.2191 26.1406 29.2581 25.375Z" fill="#E63114"/>
<path d="M3.99209 45.9375L13.2343 51.2969C13.3983 51.4063 13.5624 51.4063 13.7265 51.4063H20.1796C20.7265 51.4063 21.164 50.9688 21.164 50.4219C21.1093 50.1484 21.5468 47.7422 19.3046 46.7578L16.0233 45.336C15.203 44.1328 15.039 42.6016 15.5858 41.2344C15.7499 40.7969 15.5858 40.3047 15.1483 40.086L10.7733 37.5703C10.3358 37.2969 9.78897 37.461 9.51553 37.8985C8.85928 38.8281 8.03897 39.6485 7.10928 40.3047C5.57803 41.5078 4.32022 43.0391 3.55459 44.8438C3.39053 45.2266 3.55459 45.7188 3.99209 45.9375ZM8.20303 41.7813C9.07803 41.125 9.84366 40.4141 10.5546 39.5938L13.5624 41.3438C13.0702 43.2031 13.5077 45.2266 14.7108 46.7578C14.8202 46.8672 14.9296 46.9219 15.039 46.9766L18.539 48.5078C18.9218 48.6719 19.1952 49.0547 19.1952 49.4922H13.9999L5.74209 44.7344C6.28897 43.586 7.16397 42.5469 8.20303 41.7813Z" fill="#E63114"/>
</svg>
