<svg width="70" height="70" viewBox="0 0 70 70" fill="none" xmlns="http://www.w3.org/2000/svg">
<path d="M10.9375 24.0625V27.9844L9.07031 29.8516L10.6171 31.3984L15.539 26.4765C15.769 26.2465 16.081 26.1173 16.4062 26.1173C16.7315 26.1173 17.0434 26.2465 17.2734 26.4765C17.5034 26.7065 17.6326 27.0185 17.6326 27.3438C17.6326 27.669 17.5034 27.981 17.2734 28.211L12.3516 33.1328C12.25 33.2344 12.1694 33.355 12.1145 33.4877C12.0595 33.6204 12.0312 33.7626 12.0312 33.9062C12.0312 34.0499 12.0595 34.1921 12.1145 34.3248C12.1694 34.4575 12.25 34.5781 12.3516 34.6797C13.3052 35.6357 13.8408 36.9309 13.8408 38.2812C13.8408 39.6316 13.3052 40.9268 12.3516 41.8828L6.88281 47.3516L8.42965 48.8984L10.9375 46.3906V54.6875C10.9388 55.8474 11.4001 56.9595 12.2203 57.7797C13.0405 58.5998 14.1526 59.0612 15.3125 59.0625H40.4687V56.875H20.7812V54.6875H40.4687V52.5H15.3125C14.7325 52.4993 14.1765 52.2686 13.7664 51.8585C13.3564 51.4485 13.1257 50.8924 13.125 50.3125V44.2031L13.8984 43.4297C15.1296 42.1979 15.8788 40.5659 16.0102 38.8293C16.1415 37.0927 15.6464 35.3665 14.6145 33.9635L18.8203 29.7578C19.456 29.1166 19.8118 28.2497 19.8098 27.3468C19.8079 26.4439 19.4484 25.5785 18.8099 24.9401C18.1715 24.3016 17.3061 23.9421 16.4032 23.9401C15.5003 23.9382 14.6334 24.294 13.9922 24.9297L13.125 25.7969V13.125C13.1257 12.545 13.3564 11.9891 13.7664 11.579C14.1765 11.1689 14.7325 10.9382 15.3125 10.9375H61.25C61.8299 10.9382 62.3859 11.1689 62.796 11.579C63.2061 11.9891 63.4368 12.545 63.4375 13.125V43.75H65.625V13.125C65.6237 11.9651 65.1623 10.853 64.3421 10.0328C63.5219 9.21266 62.4099 8.7513 61.25 8.75H15.3125C14.1526 8.7513 13.0405 9.21266 12.2203 10.0328C11.4001 10.853 10.9388 11.9651 10.9375 13.125V21.875H7.65623C6.49631 21.8763 5.38427 22.3377 4.56408 23.1578C3.74389 23.978 3.28253 25.0901 3.28123 26.25V35.6408L1.41406 37.5078L2.9609 39.0547L5.1484 36.8672C5.24996 36.7656 5.33052 36.645 5.38549 36.5123C5.44045 36.3796 5.46874 36.2374 5.46873 36.0938V26.25C5.46942 25.67 5.70011 25.114 6.11019 24.704C6.52028 24.2939 7.07628 24.0632 7.65623 24.0625H10.9375ZM15.3125 54.6875H18.5937V56.875H15.3125C14.7325 56.8743 14.1765 56.6436 13.7664 56.2335C13.3564 55.8235 13.1257 55.2674 13.125 54.6875V54.0996C13.7894 54.4854 14.5442 54.6883 15.3125 54.6875Z" fill="white"/>
<path d="M63.4372 45.9375C63.0645 45.9374 62.6946 46.001 62.3434 46.1256V45.9375C62.3439 45.3643 62.1941 44.8011 61.909 44.3039C61.6238 43.8067 61.2134 43.3929 60.7185 43.1038C60.2236 42.8147 59.6615 42.6604 59.0884 42.6562C58.5153 42.652 57.9511 42.7982 57.452 43.0801C57.0541 42.4546 56.4558 41.9826 55.755 41.7412C55.0541 41.4997 54.2921 41.503 53.5934 41.7506V40.4688C53.5934 39.5985 53.2477 38.7639 52.6323 38.1486C52.017 37.5332 51.1824 37.1875 50.3122 37.1875C49.4419 37.1875 48.6073 37.5332 47.992 38.1486C47.3766 38.7639 47.0309 39.5985 47.0309 40.4688V49.6366L45.8855 50.2093C44.9704 50.6665 44.1915 51.356 43.6268 52.2089C43.062 53.0618 42.7313 54.0481 42.6676 55.069C42.6039 56.09 42.8095 57.1097 43.2639 58.0262C43.7183 58.9427 44.4054 59.7237 45.2566 60.2911L48.2403 62.2803C48.5412 62.4801 48.7879 62.7513 48.9586 63.0696C49.1292 63.3879 49.2185 63.7435 49.2184 64.1047V67.8125H51.4059V64.1047C51.4064 63.3835 51.2284 62.6734 50.888 62.0377C50.5475 61.4019 50.0551 60.8603 49.4545 60.461L47.6362 59.2449L46.4697 58.4709C45.6808 57.9455 45.1273 57.1337 44.9266 56.2074C44.7258 55.281 44.8934 54.3129 45.394 53.508C45.7487 52.9316 46.2582 52.4664 46.8644 52.1655L47.0315 52.0819V55.7812H49.219V40.4688C49.219 40.1787 49.3342 39.9005 49.5393 39.6954C49.7444 39.4902 50.0226 39.375 50.3127 39.375C50.6028 39.375 50.881 39.4902 51.0861 39.6954C51.2912 39.9005 51.4065 40.1787 51.4065 40.4688V49.2188H53.594V44.8438C53.594 44.5537 53.7092 44.2755 53.9143 44.0704C54.1194 43.8652 54.3976 43.75 54.6877 43.75C54.9778 43.75 55.256 43.8652 55.4611 44.0704C55.6662 44.2755 55.7815 44.5537 55.7815 44.8438V50.3125H57.969V45.9375C57.969 45.6474 58.0842 45.3692 58.2893 45.1641C58.4944 44.959 58.7726 44.8438 59.0627 44.8438C59.3528 44.8438 59.631 44.959 59.8361 45.1641C60.0412 45.3692 60.1565 45.6474 60.1565 45.9375V51.4062H62.344V49.2188C62.344 48.9287 62.4592 48.6505 62.6643 48.4454C62.8694 48.2402 63.1476 48.125 63.4377 48.125C63.7278 48.125 64.006 48.2402 64.2111 48.4454C64.4162 48.6505 64.5315 48.9287 64.5315 49.2188V53.0774C64.5279 56.1239 63.8187 59.1282 62.4595 61.8547C62.3833 62.0065 62.3436 62.1739 62.3434 62.3438V67.8125H64.5309V62.5983C65.9667 59.6295 66.7144 56.3751 66.7184 53.0774V49.2188C66.7174 48.3488 66.3714 47.5148 65.7562 46.8997C65.1411 46.2845 64.3071 45.9385 63.4372 45.9375Z" fill="white"/>
<path d="M49.5438 20.3342C48.7425 20.3342 47.9592 20.5719 47.2929 21.0171C46.6266 21.4623 46.1073 22.095 45.8006 22.8354C45.4939 23.5757 45.4137 24.3904 45.57 25.1763C45.7264 25.9623 46.1123 26.6842 46.6789 27.2508C47.2455 27.8175 47.9675 28.2034 48.7534 28.3597C49.5394 28.516 50.354 28.4358 51.0943 28.1291C51.8347 27.8225 52.4675 27.3032 52.9127 26.6369C53.3579 25.9706 53.5955 25.1872 53.5955 24.3859C53.5943 23.3117 53.1671 22.2818 52.4075 21.5223C51.6479 20.7627 50.618 20.3354 49.5438 20.3342ZM49.5438 26.25C49.1752 26.25 48.8147 26.1407 48.5082 25.9359C48.2016 25.731 47.9627 25.4399 47.8216 25.0993C47.6805 24.7586 47.6436 24.3838 47.7155 24.0222C47.7874 23.6606 47.965 23.3284 48.2257 23.0677C48.4864 22.807 48.8186 22.6295 49.1802 22.5575C49.5418 22.4856 49.9166 22.5225 50.2572 22.6636C50.5979 22.8047 50.889 23.0437 51.0938 23.3502C51.2987 23.6568 51.408 24.0172 51.408 24.3859C51.4075 24.8801 51.2109 25.354 50.8614 25.7034C50.5119 26.0529 50.0381 26.2495 49.5438 26.25Z" fill="#E63114"/>
<path d="M59.7935 22.5467C59.9611 22.3954 60.0778 22.1959 60.1275 21.9755C60.1773 21.7552 60.1576 21.5249 60.0711 21.3162L59.1574 19.1101C59.0719 18.9008 58.9232 18.7234 58.7321 18.6026C58.5409 18.4818 58.3168 18.4237 58.091 18.4364L56.0266 18.5417L55.384 17.8991L55.4894 15.8346C55.5009 15.6091 55.4424 15.3854 55.3217 15.1945C55.201 15.0036 55.0242 14.8546 54.8155 14.7682L52.6094 13.8547C52.4008 13.7681 52.1705 13.7483 51.9501 13.798C51.7298 13.8477 51.5302 13.9645 51.379 14.1322L49.9943 15.6661H49.0854L47.7011 14.1326C47.5497 13.965 47.3502 13.8483 47.1299 13.7986C46.9096 13.7489 46.6793 13.7686 46.4706 13.8551L44.2645 14.7686C44.0559 14.8551 43.8791 15.004 43.7584 15.1949C43.6378 15.3859 43.5792 15.6095 43.5908 15.8351L43.6961 17.8995L43.0535 18.5421L40.989 18.4368C40.7632 18.4239 40.539 18.4819 40.3478 18.6027C40.1566 18.7235 40.0079 18.9011 39.9226 19.1106L39.0091 21.3167C38.9226 21.5253 38.9029 21.7556 38.9526 21.9759C39.0023 22.1962 39.119 22.3958 39.2866 22.5471L40.8204 23.9318V24.8407L39.287 26.225C39.1194 26.3763 39.0027 26.5759 38.953 26.7962C38.9033 27.0165 38.923 27.2468 39.0095 27.4555L39.923 29.6616C40.0087 29.8708 40.1575 30.0481 40.3486 30.1688C40.5397 30.2896 40.7637 30.3478 40.9894 30.3354L43.0539 30.23L43.6965 30.8726L43.5912 32.9371C43.5796 33.1626 43.6382 33.3862 43.7588 33.5772C43.8795 33.7681 44.0563 33.917 44.2649 34.0035L46.471 34.9172C46.6797 35.0036 46.91 35.0233 47.1303 34.9736C47.3506 34.9239 47.5502 34.8072 47.7015 34.6395L49.0862 33.1058H49.9951L51.3798 34.6395C51.5311 34.8072 51.7306 34.9239 51.951 34.9736C52.1713 35.0233 52.4016 35.0036 52.6103 34.9172L54.8163 34.0035C55.025 33.9171 55.2019 33.7682 55.3225 33.5772C55.4432 33.3863 55.5018 33.1626 55.4902 32.9371L55.3848 30.8726L56.0274 30.23L58.0919 30.3354C58.3175 30.3474 58.5413 30.289 58.7323 30.1682C58.9234 30.0475 59.0722 29.8705 59.1583 29.6616L60.072 27.4555C60.1584 27.2468 60.1781 27.0165 60.1284 26.7962C60.0786 26.5758 59.9619 26.3763 59.7943 26.225L58.2606 24.8403V23.9314L59.7935 22.5467ZM56.433 26.1385L57.7547 27.3316L57.4318 28.1109L55.6533 28.0201C55.5005 28.0124 55.3478 28.0368 55.205 28.0917C55.0621 28.1466 54.9324 28.2308 54.8241 28.3389L53.4939 29.6692C53.3857 29.7774 53.3014 29.9072 53.2465 30.05C53.1916 30.1928 53.1672 30.3456 53.175 30.4984L53.2658 32.2768L52.4865 32.5998L51.2934 31.2781C51.1908 31.1645 51.0655 31.0737 50.9257 31.0116C50.7858 30.9494 50.6345 30.9173 50.4814 30.9173H48.6002C48.4471 30.9173 48.2958 30.9494 48.156 31.0116C48.0161 31.0737 47.8909 31.1645 47.7883 31.2781L46.595 32.5998L45.8157 32.2768L45.9065 30.4984C45.9144 30.3456 45.8901 30.1928 45.8352 30.0499C45.7803 29.9071 45.6959 29.7774 45.5877 29.6692L44.2576 28.3389C44.1493 28.2308 44.0195 28.1466 43.8767 28.0917C43.7338 28.0367 43.5811 28.0124 43.4282 28.0201L41.6499 28.1109L41.3269 27.3316L42.6485 26.1385C42.7621 26.0359 42.853 25.9106 42.9152 25.7708C42.9773 25.6309 43.0095 25.4795 43.0094 25.3265V23.4452C43.0094 23.2922 42.9773 23.1409 42.9151 23.001C42.853 22.8612 42.7621 22.7359 42.6485 22.6334L41.3269 21.4401L41.6499 20.6608L43.4282 20.7516C43.5811 20.7595 43.7339 20.7352 43.8768 20.6803C44.0196 20.6253 44.1494 20.541 44.2576 20.4328L45.5877 19.1026C45.6959 18.9944 45.7802 18.8647 45.8351 18.7218C45.89 18.5789 45.9144 18.4261 45.9065 18.2733L45.8157 16.495L46.595 16.1719L47.7883 17.4936C47.8909 17.6072 48.0161 17.698 48.1559 17.7602C48.2958 17.8224 48.4471 17.8545 48.6002 17.8545H50.4814C50.6345 17.8545 50.7858 17.8224 50.9257 17.7602C51.0656 17.6981 51.1908 17.6072 51.2934 17.4936L52.4865 16.1719L53.2658 16.495L53.175 18.2733C53.1672 18.4261 53.1915 18.5789 53.2464 18.7218C53.3014 18.8647 53.3857 18.9944 53.4939 19.1026L54.8241 20.4328C54.9324 20.541 55.0621 20.6252 55.2049 20.6802C55.3477 20.7351 55.5005 20.7594 55.6533 20.7516L57.4318 20.6608L57.7547 21.4401L56.433 22.6334C56.3195 22.7359 56.2287 22.8612 56.1665 23.001C56.1044 23.1409 56.0722 23.2922 56.0722 23.4452V25.3265C56.0722 25.4795 56.1043 25.6309 56.1665 25.7708C56.2286 25.9106 56.3194 26.0359 56.433 26.1385Z" fill="#E63114"/>
<path d="M18.5938 45.9375V48.125H42.6562V45.9375H40.4688V42.6562H38.2812V45.9375H36.0938V40.4688H33.9062V45.9375H31.7188V37.1875H29.5312V45.9375H27.3438V40.4688H25.1562V45.9375H22.9688V42.6562H20.7812V45.9375H18.5938Z" fill="white"/>
<path d="M19.6875 15.3125H21.875V17.5H19.6875V15.3125Z" fill="white"/>
<path d="M24.0625 15.3125H35V17.5H24.0625V15.3125Z" fill="white"/>
<path d="M17.5 19.6875H35V21.875H17.5V19.6875Z" fill="white"/>
<path d="M21.875 24.0625H35V26.25H21.875V24.0625Z" fill="white"/>
<path d="M21.875 28.4375H32.8125V30.625H21.875V28.4375Z" fill="white"/>
<path d="M20.7812 4.375H49.2188V6.5625H20.7812V4.375Z" fill="white"/>
<path d="M51.4062 4.375H53.5938V6.5625H51.4062V4.375Z" fill="white"/>
</svg>
