<svg width="50" height="50" viewBox="0 0 50 50" fill="none" xmlns="http://www.w3.org/2000/svg">
<g clip-path="url(#clip0_729_9683)">
<path d="M6.36914 22.4968H8.04238C8.87705 22.4968 9.55605 21.8177 9.55605 20.9831V19.3099C9.55605 18.4753 8.87705 17.7963 8.04238 17.7963H6.36914C5.53447 17.7963 4.85547 18.4753 4.85547 19.3099V20.9831C4.85547 21.8177 5.53447 22.4968 6.36914 22.4968ZM6.32031 19.3098C6.32031 19.2829 6.34229 19.261 6.36914 19.261H8.04238C8.06924 19.261 8.09121 19.2829 8.09121 19.3098V20.983C8.09121 21.0099 8.06924 21.0318 8.04238 21.0318H6.36914C6.34229 21.0318 6.32031 21.0099 6.32031 20.983V19.3098Z" fill="#E63114"/>
<path d="M12.8379 22.4968H14.511C15.3457 22.4968 16.0247 21.8177 16.0247 20.9831V19.3099C16.0247 18.4753 15.3457 17.7963 14.511 17.7963H12.8379C12.0032 17.7963 11.3242 18.4753 11.3242 19.3099V20.9831C11.3242 21.8177 12.0032 22.4968 12.8379 22.4968ZM12.7891 19.3098C12.7891 19.2829 12.811 19.261 12.8379 19.261H14.511C14.5379 19.261 14.5599 19.2829 14.5599 19.3098V20.983C14.5599 21.0099 14.5379 21.0318 14.511 21.0318H12.8379C12.811 21.0318 12.7891 21.0099 12.7891 20.983V19.3098Z" fill="#E63114"/>
<path d="M19.3105 22.4968H20.9837C21.8184 22.4968 22.4974 21.8177 22.4974 20.9831V19.3099C22.4974 18.4753 21.8184 17.7963 20.9837 17.7963H19.3105C18.4759 17.7963 17.7969 18.4753 17.7969 19.3099V20.9831C17.7969 21.8177 18.4759 22.4968 19.3105 22.4968ZM19.2617 19.3098C19.2617 19.2829 19.2837 19.261 19.3105 19.261H20.9837C21.0105 19.261 21.0325 19.2829 21.0325 19.3098V20.983C21.0325 21.0099 21.0105 21.0318 20.9837 21.0318H19.3105C19.2837 21.0318 19.2617 21.0099 19.2617 20.983V19.3098Z" fill="#E63114"/>
<path d="M27.4563 22.4968C28.291 22.4968 28.97 21.8177 28.97 20.9831V19.3099C28.97 18.4753 28.291 17.7963 27.4563 17.7963H25.7832C24.9485 17.7963 24.2695 18.4753 24.2695 19.3099V20.9831C24.2695 21.8177 24.9485 22.4968 25.7832 22.4968H27.4563ZM25.7344 20.9831V19.3099C25.7344 19.283 25.7563 19.2611 25.7832 19.2611H27.4563C27.4832 19.2611 27.5052 19.283 27.5052 19.3099V20.9831C27.5052 21.01 27.4832 21.0319 27.4563 21.0319H25.7832C25.7563 21.0319 25.7344 21.01 25.7344 20.9831Z" fill="white"/>
<path d="M33.9251 22.4968C34.7598 22.4968 35.4388 21.8177 35.4388 20.9831V19.3099C35.4388 18.4753 34.7598 17.7963 33.9251 17.7963H32.252C31.4173 17.7963 30.7383 18.4753 30.7383 19.3099V20.9831C30.7383 21.8177 31.4173 22.4968 32.252 22.4968H33.9251ZM32.2031 20.9831V19.3099C32.2031 19.283 32.2251 19.2611 32.252 19.2611H33.9251C33.952 19.2611 33.9739 19.283 33.9739 19.3099V20.9831C33.9739 21.01 33.952 21.0319 33.9251 21.0319H32.252C32.225 21.0319 32.2031 21.01 32.2031 20.9831Z" fill="white"/>
<path d="M40.3978 22.4968C41.2324 22.4968 41.9114 21.8177 41.9114 20.9831V19.3099C41.9114 18.4753 41.2324 17.7963 40.3978 17.7963H38.7246C37.8899 17.7963 37.2109 18.4753 37.2109 19.3099V20.9831C37.2109 21.8177 37.8899 22.4968 38.7246 22.4968H40.3978ZM38.6758 20.9831V19.3099C38.6758 19.283 38.6978 19.2611 38.7246 19.2611H40.3978C40.4246 19.2611 40.4466 19.283 40.4466 19.3099V20.9831C40.4466 21.01 40.4246 21.0319 40.3978 21.0319H38.7246C38.6978 21.0319 38.6758 21.01 38.6758 20.9831Z" fill="white"/>
<path d="M4.85547 27.4544C4.85547 28.2891 5.53447 28.9681 6.36914 28.9681H8.04238C8.87705 28.9681 9.55605 28.2891 9.55605 27.4544V25.7813C9.55605 24.9466 8.87705 24.2676 8.04238 24.2676H6.36914C5.53447 24.2676 4.85547 24.9466 4.85547 25.7813V27.4544ZM6.32031 25.7813C6.32031 25.7543 6.34229 25.7324 6.36914 25.7324H8.04238C8.06924 25.7324 8.09121 25.7543 8.09121 25.7813V27.4544C8.09121 27.4813 8.06924 27.5032 8.04238 27.5032H6.36914C6.34229 27.5032 6.32031 27.4813 6.32031 27.4544V25.7813Z" fill="#E63114"/>
<path d="M11.3242 27.4544C11.3242 28.2891 12.0032 28.9681 12.8379 28.9681H14.511C15.3457 28.9681 16.0247 28.2891 16.0247 27.4544V25.7813C16.0247 24.9466 15.3457 24.2676 14.511 24.2676H12.8379C12.0032 24.2676 11.3242 24.9466 11.3242 25.7813V27.4544ZM12.7891 25.7813C12.7891 25.7543 12.811 25.7324 12.8379 25.7324H14.511C14.5379 25.7324 14.5599 25.7543 14.5599 25.7813V27.4544C14.5599 27.4813 14.5379 27.5032 14.511 27.5032H12.8379C12.811 27.5032 12.7891 27.4813 12.7891 27.4544V25.7813Z" fill="#E63114"/>
<path d="M17.7969 27.4544C17.7969 28.2891 18.4759 28.9681 19.3105 28.9681H20.9837C21.8184 28.9681 22.4974 28.2891 22.4974 27.4544V25.7813C22.4974 24.9466 21.8184 24.2676 20.9837 24.2676H19.3105C18.4759 24.2676 17.7969 24.9466 17.7969 25.7813V27.4544ZM19.2617 25.7813C19.2617 25.7543 19.2837 25.7324 19.3105 25.7324H20.9837C21.0105 25.7324 21.0325 25.7543 21.0325 25.7813V27.4544C21.0325 27.4813 21.0105 27.5032 20.9837 27.5032H19.3105C19.2837 27.5032 19.2617 27.4813 19.2617 27.4544V25.7813Z" fill="white"/>
<path d="M4.85547 33.9258C4.85547 34.7604 5.53447 35.4394 6.36914 35.4394H8.04238C8.87705 35.4394 9.55605 34.7604 9.55605 33.9258V32.2526C9.55605 31.418 8.87705 30.739 8.04238 30.739H6.36914C5.53447 30.739 4.85547 31.418 4.85547 32.2526V33.9258ZM6.32031 32.2526C6.32031 32.2257 6.34229 32.2038 6.36914 32.2038H8.04238C8.06924 32.2038 8.09121 32.2257 8.09121 32.2526V33.9258C8.09121 33.9527 8.06924 33.9746 8.04238 33.9746H6.36914C6.34229 33.9746 6.32031 33.9527 6.32031 33.9258V32.2526Z" fill="white"/>
<path d="M11.3242 33.9258C11.3242 34.7604 12.0032 35.4394 12.8379 35.4394H14.511C15.3457 35.4394 16.0247 34.7604 16.0247 33.9258V32.2526C16.0247 31.418 15.3457 30.739 14.511 30.739H12.8379C12.0032 30.739 11.3242 31.418 11.3242 32.2526V33.9258ZM12.7891 32.2526C12.7891 32.2257 12.811 32.2038 12.8379 32.2038H14.511C14.5379 32.2038 14.5599 32.2257 14.5599 32.2526V33.9258C14.5599 33.9527 14.5379 33.9746 14.511 33.9746H12.8379C12.811 33.9746 12.7891 33.9527 12.7891 33.9258V32.2526Z" fill="white"/>
<path d="M17.7969 33.9258C17.7969 34.7604 18.4759 35.4394 19.3105 35.4394H20.9837C21.8184 35.4394 22.4974 34.7604 22.4974 33.9258V32.2526C22.4974 31.418 21.8184 30.739 20.9837 30.739H19.3105C18.4759 30.739 17.7969 31.418 17.7969 32.2526V33.9258ZM19.2617 32.2526C19.2617 32.2257 19.2837 32.2038 19.3105 32.2038H20.9837C21.0105 32.2038 21.0325 32.2257 21.0325 32.2526V33.9258C21.0325 33.9527 21.0105 33.9746 20.9837 33.9746H19.3105C19.2837 33.9746 19.2617 33.9527 19.2617 33.9258V32.2526Z" fill="white"/>
<path d="M45.149 28.6139V7.20371C45.149 5.01572 43.369 3.23574 41.181 3.23574H35.4398V2.75479C35.4398 1.23574 34.2041 0 32.6852 0C31.1662 0 29.9305 1.23574 29.9305 2.75469V3.23564H16.8337V2.75469C16.8337 1.23574 15.5979 0 14.079 0C12.56 0 11.3242 1.23574 11.3242 2.75469V3.23564H5.58525C3.39727 3.23564 1.61719 5.01572 1.61719 7.20361V18.6816C1.61719 19.0861 1.94502 19.4141 2.34961 19.4141C2.7542 19.4141 3.08203 19.0861 3.08203 18.6816V16.0254H43.6842V27.1995C41.461 25.3686 38.6151 24.2676 35.5169 24.2676C33.1271 24.2676 30.888 24.9232 28.9685 26.063V25.8089C28.9685 24.959 28.277 24.2676 27.4271 24.2676H25.8094C24.9595 24.2676 24.2681 24.959 24.2681 25.8089V27.4268C24.2681 28.2037 24.8465 28.8465 25.5949 28.9514C23.7564 31.1768 22.6507 34.0285 22.6507 37.1338C22.6507 37.1594 22.6515 37.1847 22.6517 37.2103H5.58525C4.20498 37.2103 3.08203 36.0873 3.08203 34.7071V21.6113C3.08203 21.2068 2.7542 20.8789 2.34961 20.8789C1.94502 20.8789 1.61719 21.2068 1.61719 21.6113V37.9428C1.61719 40.1308 3.39717 41.9107 5.58525 41.9107H7.35723C7.76182 41.9107 8.08965 41.5828 8.08965 41.1783C8.08965 40.7738 7.76182 40.4459 7.35723 40.4459H5.58525C4.20498 40.4459 3.08203 39.3229 3.08203 37.9428V37.7831C3.76533 38.3402 4.63682 38.6751 5.58525 38.6751H22.7434C22.8158 39.2792 22.9303 39.8704 23.0837 40.446H10.2868C9.88223 40.446 9.55439 40.7739 9.55439 41.1784C9.55439 41.5829 9.88223 41.9108 10.2868 41.9108H23.5707C25.4714 46.6468 30.1097 50 35.5169 50C42.6113 50 48.3831 44.2282 48.3831 37.1338C48.3831 33.8689 47.1602 30.8849 45.149 28.6139ZM31.3953 2.75469C31.3953 2.04346 31.9739 1.46484 32.6852 1.46484C33.3964 1.46484 33.975 2.04346 33.975 2.75469V6.79932C33.975 7.51055 33.3964 8.08926 32.6852 8.08926C31.9739 8.08926 31.3953 7.51064 31.3953 6.79932V2.75469ZM12.7891 2.75469C12.7891 2.04346 13.3678 1.46484 14.079 1.46484C14.7902 1.46484 15.3688 2.04346 15.3688 2.75469V6.79932C15.3688 7.51055 14.7902 8.08926 14.079 8.08926C13.3678 8.08926 12.7891 7.51064 12.7891 6.79932V2.75469ZM5.58525 4.70049H11.3242V6.47129H10.4389C10.0343 6.47129 9.70644 6.79922 9.70644 7.20371C9.70644 7.6082 10.0343 7.93613 10.4389 7.93613H11.5708C12.0046 8.88926 12.9653 9.554 14.079 9.554C15.1927 9.554 16.1534 8.88936 16.5871 7.93613H17.719C18.1236 7.93613 18.4515 7.6082 18.4515 7.20371C18.4515 6.79922 18.1236 6.47129 17.719 6.47129H16.8337V4.70049H29.9305V6.47129H29.045C28.6404 6.47129 28.3126 6.79922 28.3126 7.20371C28.3126 7.6082 28.6404 7.93613 29.045 7.93613H30.177C30.6108 8.88926 31.5716 9.554 32.6852 9.554C33.7987 9.554 34.7596 8.88936 35.1933 7.93613H36.3253C36.7299 7.93613 37.0577 7.6082 37.0577 7.20371C37.0577 6.79922 36.7299 6.47129 36.3253 6.47129H35.4398V4.70049H41.181C42.5612 4.70049 43.6842 5.82344 43.6842 7.20361V11.3248H3.08213V7.20371C3.08213 5.82344 4.20508 4.70049 5.58525 4.70049ZM3.08213 14.5605V12.7897H43.6843V14.5605H3.08213ZM25.7329 25.8089C25.7329 25.7667 25.7673 25.7324 25.8094 25.7324H27.4271C27.4693 25.7324 27.5036 25.7668 27.5036 25.8089V27.0754C27.3304 27.2137 27.1609 27.3563 26.9951 27.5032H25.8093C25.7671 27.5032 25.7328 27.4688 25.7328 27.4268V25.8089H25.7329ZM35.5169 48.5352C29.2302 48.5352 24.1155 43.4205 24.1155 37.1338C24.1155 30.8471 29.2302 25.7324 35.5169 25.7324C41.8036 25.7324 46.9183 30.8471 46.9183 37.1338C46.9183 43.4205 41.8036 48.5352 35.5169 48.5352Z" fill="white"/>
<path d="M35.5172 27.5032C30.2069 27.5032 25.8867 31.8235 25.8867 37.1338C25.8867 42.4442 30.2069 46.7644 35.5172 46.7644C40.8275 46.7644 45.1478 42.4442 45.1478 37.1338C45.1478 31.8235 40.8275 27.5032 35.5172 27.5032ZM35.5172 45.2995C31.0146 45.2995 27.3516 41.6364 27.3516 37.1338C27.3516 32.6312 31.0146 28.9681 35.5172 28.9681C40.0197 28.9681 43.6829 32.6312 43.6829 37.1338C43.6829 41.6364 40.0198 45.2995 35.5172 45.2995Z" fill="white"/>
<path d="M39.5627 36.4014H37.7509C37.5182 35.6937 36.9582 35.1337 36.2506 34.901V31.4714C36.2506 31.0669 35.9228 30.739 35.5182 30.739C35.1136 30.739 34.7857 31.0669 34.7857 31.4714V34.901C33.8475 35.2096 33.168 36.0935 33.168 37.1338C33.168 38.4298 34.2223 39.4841 35.5182 39.4841C36.5584 39.4841 37.4424 38.8045 37.7509 37.8662H39.5627C39.9673 37.8662 40.2951 37.5383 40.2951 37.1338C40.2951 36.7293 39.9673 36.4014 39.5627 36.4014ZM35.5181 38.0192C35.0299 38.0192 34.6327 37.6221 34.6327 37.1338C34.6327 36.6455 35.0299 36.2483 35.5181 36.2483C36.0063 36.2483 36.4034 36.6455 36.4034 37.1338C36.4034 37.6221 36.0063 38.0192 35.5181 38.0192Z" fill="#E63114"/>
</g>
<defs>
<clipPath id="clip0_729_9683">
<rect width="50" height="50" fill="white"/>
</clipPath>
</defs>
</svg>
