<svg width="50" height="50" viewBox="0 0 50 50" fill="none" xmlns="http://www.w3.org/2000/svg">
<path d="M26.4717 24.9766C26.0753 25.3552 25.5482 25.5665 25 25.5665C24.4518 25.5665 23.9247 25.3552 23.5283 24.9766C23.4174 24.8714 23.2699 24.8137 23.1172 24.8158C22.9645 24.8178 22.8185 24.8794 22.7106 24.9874C22.6026 25.0955 22.5411 25.2414 22.5391 25.3942C22.5372 25.5469 22.5949 25.6944 22.7001 25.8052C23.0022 26.1073 23.3608 26.3469 23.7555 26.5104C24.1502 26.6739 24.5732 26.758 25.0004 26.758C25.4276 26.758 25.8506 26.6739 26.2453 26.5104C26.6399 26.3469 26.9986 26.1073 27.3006 25.8052C27.3574 25.7513 27.4028 25.6867 27.4341 25.615C27.4655 25.5433 27.4822 25.4661 27.4832 25.3879C27.4843 25.3096 27.4696 25.232 27.4402 25.1595C27.4107 25.087 27.3671 25.0212 27.3118 24.9659C27.2565 24.9105 27.1907 24.8668 27.1182 24.8373C27.0457 24.8079 26.9681 24.7932 26.8899 24.7942C26.8117 24.7952 26.7344 24.8118 26.6627 24.8432C26.591 24.8745 26.5264 24.9198 26.4725 24.9766H26.4717Z" fill="white"/>
<path d="M25 23.2422C25.1554 23.2422 25.3044 23.1805 25.4143 23.0706C25.5242 22.9607 25.5859 22.8117 25.5859 22.6562V20.7031C25.5859 20.5477 25.5242 20.3987 25.4143 20.2888C25.3044 20.1789 25.1554 20.1172 25 20.1172C24.8446 20.1172 24.6956 20.1789 24.5857 20.2888C24.4758 20.3987 24.4141 20.5477 24.4141 20.7031V22.6562C24.4141 22.8117 24.4758 22.9607 24.5857 23.0706C24.6956 23.1805 24.8446 23.2422 25 23.2422Z" fill="white"/>
<path d="M20.7031 19.5312C21.2425 19.5312 21.6797 19.094 21.6797 18.5547C21.6797 18.0153 21.2425 17.5781 20.7031 17.5781C20.1638 17.5781 19.7266 18.0153 19.7266 18.5547C19.7266 19.094 20.1638 19.5312 20.7031 19.5312Z" fill="white"/>
<path d="M29.2969 19.5312C29.8362 19.5312 30.2734 19.094 30.2734 18.5547C30.2734 18.0153 29.8362 17.5781 29.2969 17.5781C28.7575 17.5781 28.3203 18.0153 28.3203 18.5547C28.3203 19.094 28.7575 19.5312 29.2969 19.5312Z" fill="white"/>
<path d="M27.2103 16.0713C27.2447 16.1401 27.2924 16.2015 27.3505 16.2519C27.4086 16.3024 27.4761 16.3408 27.5491 16.3652C27.6222 16.3895 27.6992 16.3992 27.776 16.3938C27.8528 16.3883 27.9277 16.3678 27.9965 16.3333C28.4006 16.1324 28.8457 16.0278 29.297 16.0278C29.7482 16.0278 30.1934 16.1324 30.5974 16.3333C30.7365 16.4028 30.8974 16.4143 31.0448 16.3651C31.1923 16.316 31.3141 16.2102 31.3836 16.0712C31.4531 15.9322 31.4645 15.7713 31.4154 15.6239C31.3662 15.4764 31.2605 15.3546 31.1215 15.2851C30.5546 15.0032 29.9301 14.8565 29.297 14.8565C28.6639 14.8565 28.0394 15.0032 27.4724 15.2851C27.4036 15.3195 27.3422 15.3671 27.2918 15.4252C27.2413 15.4834 27.2028 15.5509 27.1785 15.6239C27.1542 15.6969 27.1445 15.774 27.1499 15.8508C27.1554 15.9275 27.1759 16.0025 27.2103 16.0713Z" fill="#E63114"/>
<path d="M22.7898 16.0713C22.8242 16.0025 22.8448 15.9275 22.8502 15.8508C22.8557 15.774 22.846 15.6969 22.8216 15.6239C22.7973 15.5509 22.7588 15.4834 22.7084 15.4252C22.6579 15.3671 22.5966 15.3195 22.5277 15.2851C21.9608 15.0032 21.3363 14.8565 20.7032 14.8565C20.0701 14.8565 19.4456 15.0032 18.8786 15.2851C18.7396 15.3546 18.6339 15.4764 18.5848 15.6239C18.5356 15.7713 18.547 15.9322 18.6165 16.0712C18.686 16.2102 18.8079 16.316 18.9553 16.3651C19.1028 16.4143 19.2637 16.4028 19.4027 16.3333C19.8068 16.1324 20.2519 16.0278 20.7032 16.0278C21.1544 16.0278 21.5996 16.1324 22.0036 16.3333C22.0725 16.3678 22.1474 16.3883 22.2242 16.3938C22.3009 16.3992 22.378 16.3895 22.451 16.3652C22.524 16.3408 22.5915 16.3024 22.6496 16.2519C22.7078 16.2015 22.7554 16.1401 22.7898 16.0713Z" fill="#E63114"/>
<path d="M35.0853 33.5907L30.1304 31.8422L29.4922 31.0444V29.0908C30.5909 28.471 31.5505 27.6321 32.3114 26.626C33.0723 25.6199 33.6182 24.4681 33.9154 23.2422H35.9375C36.5071 23.2415 37.0532 23.015 37.456 22.6122C37.8587 22.2094 38.0853 21.6633 38.0859 21.0937V20.1172H39.0625C39.1893 20.1171 39.3126 20.0759 39.414 19.9999C39.5154 19.9238 39.5894 19.8169 39.625 19.6953C40.2872 17.4248 40.4117 15.0314 39.9886 12.7045C39.5656 10.3775 38.6065 8.18109 37.1875 6.28904C35.7685 4.39699 33.9284 2.86131 31.813 1.80362C29.6976 0.745935 27.3651 0.195287 25 0.195287C21.661 0.183329 18.413 1.28275 15.7677 3.32029H14.4531C14.3225 3.3203 14.1956 3.36396 14.0926 3.44435C13.9896 3.52474 13.9165 3.63723 13.8848 3.76396L13.5967 4.9156C13.5519 5.09529 13.5316 5.27622 13.4964 5.45654C11.8217 7.37651 10.6578 9.68755 10.1123 12.1762C9.56672 14.6648 9.65707 17.2508 10.375 19.6953C10.4106 19.8169 10.4846 19.9238 10.586 19.9999C10.6874 20.0759 10.8107 20.1171 10.9375 20.1172H11.9141V21.0937C11.9156 21.5598 12.0689 22.0127 12.3508 22.3839C12.6328 22.755 13.028 23.0242 13.4766 23.1507V28.125C13.4771 28.6946 13.7037 29.2407 14.1065 29.6435C14.5092 30.0463 15.0554 30.2728 15.625 30.2734H18.2555C18.3635 30.6549 18.575 30.9989 18.8666 31.2675C19.1581 31.5361 19.5184 31.7187 19.9074 31.795L19.8696 31.8418L14.9147 33.5904C12.6679 34.386 10.7226 35.8579 9.34598 37.8036C7.96937 39.7494 7.229 42.0737 7.22656 44.4572V49.2187C7.22656 49.3741 7.2883 49.5232 7.39818 49.633C7.50806 49.7429 7.6571 49.8047 7.8125 49.8047H42.1875C42.3429 49.8047 42.4919 49.7429 42.6018 49.633C42.7117 49.5232 42.7734 49.3741 42.7734 49.2187V44.4572C42.7709 42.0738 42.0305 39.7496 40.6539 37.8038C39.2773 35.8581 37.332 34.3863 35.0853 33.5907ZM20.7494 32.6183L23.4916 37.5543L18.8594 34.9808L20.7494 32.6183ZM29.2505 32.6183L31.1405 34.9808L26.5083 37.5547L29.2505 32.6183ZM28.3203 31.8794L25 37.8559L21.6797 31.8793V31.8359H22.6562C23.1249 31.8344 23.5802 31.6795 23.9524 31.3947C24.3247 31.11 24.5934 30.7112 24.7176 30.2593C24.8121 30.2628 24.9047 30.2734 25 30.2734C26.1364 30.2718 27.2625 30.0578 28.3203 29.6424V31.8794ZM33.0078 21.0937C33.0054 23.2168 32.161 25.2522 30.6597 26.7535C29.1585 28.2547 27.1231 29.0991 25 29.1015C24.9016 29.1015 24.8059 29.091 24.7086 29.0867C24.5797 28.6416 24.31 28.2502 23.94 27.9712C23.5701 27.6922 23.1196 27.5406 22.6562 27.539H20.3125C20.3001 27.539 20.2886 27.5426 20.2762 27.5427C19.2611 26.8009 18.4349 25.8306 17.8644 24.7102C17.2939 23.5899 16.9951 22.351 16.9922 21.0937V14.6484H17.804C21.4049 14.6522 24.9337 13.6392 27.9844 11.726L28.3041 12.1529C28.8577 12.8872 29.566 13.4908 30.3789 13.9209C31.1918 14.351 32.0894 14.597 33.008 14.6415L33.0078 21.0937ZM36.9141 21.0937C36.9138 21.3527 36.8109 21.6009 36.6278 21.784C36.4447 21.9671 36.1964 22.0701 35.9375 22.0703H34.1262C34.1613 21.7459 34.1791 21.42 34.1797 21.0937V16.9922H35.9375C36.1964 16.9924 36.4447 17.0954 36.6278 17.2784C36.8109 17.4615 36.9138 17.7098 36.9141 17.9687V21.0937ZM25 1.36716C27.1462 1.36724 29.2638 1.85852 31.1908 2.80338C33.1178 3.74824 34.803 5.12162 36.1173 6.8183C37.4315 8.51499 38.34 10.49 38.7732 12.592C39.2063 14.694 39.1526 16.8672 38.6162 18.9453H38.0859V17.9687C38.0849 17.5347 37.9523 17.1111 37.7056 16.7539C37.4589 16.3968 37.1098 16.1227 36.7042 15.968C36.8414 15.3421 36.9117 14.7033 36.9141 14.0625C36.9108 11.2145 35.778 8.48407 33.7641 6.47023C31.7503 4.45639 29.0199 3.32357 26.1719 3.32029H17.8624C20.0212 2.03574 22.488 1.36074 25 1.36716ZM14.9105 4.49216H26.1719C28.7092 4.49497 31.1418 5.50418 32.936 7.29835C34.7302 9.09252 35.7394 11.5251 35.7422 14.0625C35.7335 14.6549 35.6589 15.2444 35.5196 15.8203H34.1797V14.0625C34.1797 13.9071 34.118 13.758 34.0081 13.6482C33.8982 13.5383 33.7492 13.4765 33.5938 13.4765H33.2951C32.5088 13.4747 31.7336 13.2907 31.0303 12.939C30.327 12.5873 29.7148 12.0774 29.2416 11.4494L28.5937 10.5859C28.5039 10.4661 28.3715 10.3853 28.2239 10.36C28.0762 10.3348 27.9245 10.367 27.7999 10.4501C24.8412 12.4266 21.3622 13.48 17.804 13.4765H16.688C15.7254 12.353 15.0458 11.0155 14.7057 9.57566C14.3657 8.13583 14.3753 6.63553 14.7335 5.20013L14.9105 4.49216ZM11.9141 17.9687V18.9453H11.3838C10.8862 17.0347 10.7992 15.0404 11.1285 13.0937C11.4579 11.147 12.196 9.29229 13.2944 7.65169C13.3399 10.0833 14.2333 12.4227 15.8203 14.2656V15.8203H14.0625C13.4929 15.8209 12.9467 16.0474 12.544 16.4502C12.1412 16.853 11.9146 17.3991 11.9141 17.9687ZM13.0859 21.0937V17.9687C13.0862 17.7098 13.1891 17.4615 13.3722 17.2784C13.5553 17.0954 13.8036 16.9924 14.0625 16.9922H15.8203V21.0937C15.8227 21.4201 15.8427 21.7461 15.8801 22.0703H14.0625C13.8036 22.0701 13.5553 21.9671 13.3722 21.784C13.1891 21.6009 13.0862 21.3527 13.0859 21.0937ZM18.2555 29.1015H15.625C15.3661 29.1013 15.1178 28.9983 14.9347 28.8153C14.7516 28.6322 14.6487 28.3839 14.6484 28.125V23.2422H16.0795C16.5297 25.0949 17.5449 26.7618 18.9844 28.012C18.6334 28.29 18.3785 28.6711 18.2555 29.1015ZM19.3359 29.6875C19.3362 29.4285 19.4391 29.1803 19.6222 28.9972C19.8053 28.8141 20.0536 28.7111 20.3125 28.7109H22.6562C22.9153 28.7109 23.1636 28.8138 23.3468 28.9969C23.5299 29.1801 23.6328 29.4285 23.6328 29.6875C23.6328 29.9465 23.5299 30.1949 23.3468 30.378C23.1636 30.5611 22.9153 30.664 22.6562 30.664H20.3125C20.0536 30.6638 19.8053 30.5608 19.6222 30.3778C19.4391 30.1947 19.3362 29.9464 19.3359 29.6875ZM41.6016 48.6328H36.5234V40.625C36.5234 40.4696 36.4617 40.3205 36.3518 40.2107C36.2419 40.1008 36.0929 40.039 35.9375 40.039C35.7821 40.039 35.6331 40.1008 35.5232 40.2107C35.4133 40.3205 35.3516 40.4696 35.3516 40.625V48.6328H14.6484V40.625C14.6484 40.4696 14.5867 40.3205 14.4768 40.2107C14.3669 40.1008 14.2179 40.039 14.0625 40.039C13.9071 40.039 13.7581 40.1008 13.6482 40.2107C13.5383 40.3205 13.4766 40.4696 13.4766 40.625V48.6328H8.39844V44.4572C8.40078 42.3161 9.06592 40.2283 10.3025 38.4804C11.5391 36.7325 13.2865 35.4102 15.3047 34.6953L18.485 33.5729L17.5116 34.7898C17.4583 34.8564 17.4201 34.9337 17.3998 35.0165C17.3795 35.0993 17.3774 35.1856 17.3939 35.2692C17.4103 35.3529 17.4448 35.4319 17.495 35.5009C17.5452 35.5698 17.6098 35.627 17.6843 35.6684L24.7155 39.5747C24.8026 39.6229 24.9006 39.6483 25.0002 39.6483C25.0997 39.6483 25.1977 39.6229 25.2848 39.5747L32.316 35.6684C32.3905 35.627 32.4551 35.5698 32.5053 35.5009C32.5555 35.4319 32.59 35.3529 32.6064 35.2692C32.6229 35.1856 32.6209 35.0993 32.6005 35.0165C32.5802 34.9337 32.5421 34.8564 32.4888 34.7898L31.5153 33.5729L34.6953 34.6953C36.7135 35.4102 38.4609 36.7324 39.6974 38.4803C40.934 40.2282 41.5992 42.316 41.6016 44.4571V48.6328Z" fill="white"/>
<path d="M25 44.5312C25.4315 44.5312 25.7812 44.1815 25.7812 43.75C25.7812 43.3185 25.4315 42.9688 25 42.9688C24.5685 42.9688 24.2188 43.3185 24.2188 43.75C24.2188 44.1815 24.5685 44.5312 25 44.5312Z" fill="#E63114"/>
<path d="M25 41.4062C25.4315 41.4062 25.7812 41.0565 25.7812 40.625C25.7812 40.1935 25.4315 39.8438 25 39.8438C24.5685 39.8438 24.2188 40.1935 24.2188 40.625C24.2188 41.0565 24.5685 41.4062 25 41.4062Z" fill="#E63114"/>
<path d="M25 47.6562C25.4315 47.6562 25.7812 47.3065 25.7812 46.875C25.7812 46.4435 25.4315 46.0938 25 46.0938C24.5685 46.0938 24.2188 46.4435 24.2188 46.875C24.2188 47.3065 24.5685 47.6562 25 47.6562Z" fill="#E63114"/>
</svg>
