<svg width="50" height="50" viewBox="0 0 50 50" fill="none" xmlns="http://www.w3.org/2000/svg">
<g clip-path="url(#clip0_729_9700)">
<path d="M38.3238 0H3.19297C1.4582 0 0.046875 1.41133 0.046875 3.14619V8.15986C0.046875 9.89473 1.4582 11.3061 3.19297 11.3061H6.5001L8.65156 14.4928C8.7875 14.6941 9.01455 14.8148 9.25742 14.8148C9.50029 14.8148 9.72734 14.6941 9.86328 14.4928L12.0147 11.3061H38.3238C40.0586 11.3061 41.4699 9.89473 41.4699 8.15986V3.14619C41.4699 1.41133 40.0586 0 38.3238 0ZM40.0078 8.15986C40.0078 9.08848 39.2523 9.84404 38.3237 9.84404H11.6262C11.3833 9.84404 11.1562 9.96475 11.0203 10.1661L9.25732 12.7774L7.49434 10.1661C7.3584 9.96475 7.13135 9.84404 6.88848 9.84404H3.19297C2.26436 9.84404 1.50889 9.08848 1.50889 8.15986V3.14619C1.50889 2.21758 2.26436 1.46201 3.19297 1.46201H38.3236C39.2522 1.46201 40.0077 2.21758 40.0077 3.14619V8.15986H40.0078Z" fill="white"/>
<path d="M38.3238 35.1852H3.19297C1.4582 35.1852 0.046875 36.5965 0.046875 38.3314V43.345C0.046875 45.0799 1.4582 46.4912 3.19297 46.4912H6.5001L8.65156 49.678C8.7875 49.8793 9.01455 50 9.25742 50C9.50029 50 9.72734 49.8793 9.86328 49.678L12.0147 46.4912H38.3238C40.0586 46.4912 41.4699 45.0799 41.4699 43.345V38.3314C41.4699 36.5965 40.0586 35.1852 38.3238 35.1852ZM38.3238 45.0292H11.6262C11.3833 45.0292 11.1562 45.1499 11.0203 45.3513L9.25732 47.9626L7.49434 45.3513C7.3584 45.1499 7.13135 45.0292 6.88848 45.0292H3.19297C2.26436 45.0292 1.50889 44.2737 1.50889 43.345V38.3314C1.50889 37.4028 2.26436 36.6472 3.19297 36.6472H38.3236C39.2522 36.6472 40.0077 37.4028 40.0077 38.3314V43.345H40.0078C40.0079 44.2737 39.2524 45.0292 38.3238 45.0292Z" fill="white"/>
<path d="M46.8041 18.1286H11.6735C9.93594 18.1286 8.52734 19.5372 8.52734 21.2748V26.2885C8.52734 28.0261 9.93594 29.4347 11.6735 29.4347H27.8634C28.2671 29.4347 28.5943 29.1074 28.5943 28.7037C28.5943 28.3 28.2671 27.9727 27.8634 27.9727H11.6734C10.7434 27.9727 9.98936 27.2187 9.98936 26.2887V21.2749C9.98936 20.3448 10.7434 19.5907 11.6735 19.5907H46.8042C47.7343 19.5907 48.4883 20.3447 48.4883 21.2748V26.2886C48.4883 27.2186 47.7343 27.9727 46.8041 27.9727H43.1086C42.8657 27.9727 42.6386 28.0934 42.5026 28.2948L40.7397 30.9061L38.9768 28.2947C38.8409 28.0934 38.6138 27.9727 38.371 27.9727H32.6198C32.2161 27.9727 31.8889 28.3 31.8889 28.7037C31.8889 29.1074 32.2162 29.4347 32.6198 29.4347H37.9825L40.1231 32.6055C40.2173 32.7448 40.3515 32.8562 40.5117 32.9075C40.8334 33.0104 41.1676 32.8851 41.3456 32.6215L43.497 29.4348H46.804C48.5416 29.4348 49.9502 28.0262 49.9502 26.2886V21.2749C49.9503 19.5372 48.5417 18.1286 46.8041 18.1286Z" fill="white"/>
<path d="M6.14092 2.729C4.55547 2.729 3.26562 4.01885 3.26562 5.6043C3.26562 7.18965 4.55537 8.47949 6.14092 8.47949C7.72646 8.47949 9.01621 7.18965 9.01621 5.6043C9.01621 4.01895 7.72637 2.729 6.14092 2.729ZM6.14092 7.01758C5.36172 7.01758 4.72764 6.38359 4.72764 5.6043C4.72764 4.8251 5.36162 4.19102 6.14092 4.19102C6.92021 4.19102 7.5542 4.825 7.5542 5.6043C7.5542 6.3835 6.92021 7.01758 6.14092 7.01758Z" fill="#E63114"/>
<path d="M43.8597 20.8577C42.2742 20.8577 40.9844 22.1476 40.9844 23.733C40.9844 25.3185 42.2741 26.6083 43.8597 26.6083C45.4452 26.6083 46.735 25.3185 46.735 23.733C46.7349 22.1476 45.4451 20.8577 43.8597 20.8577ZM43.8597 25.1462C43.0805 25.1462 42.4464 24.5122 42.4464 23.7329C42.4464 22.9537 43.0804 22.3196 43.8597 22.3196C44.639 22.3196 45.273 22.9536 45.273 23.7329C45.273 24.5122 44.6389 25.1462 43.8597 25.1462Z" fill="#E63114"/>
<path d="M6.14092 37.9142C4.55547 37.9142 3.26562 39.2041 3.26562 40.7895C3.26562 42.3749 4.55537 43.6648 6.14092 43.6648C7.72646 43.6648 9.01621 42.375 9.01621 40.7895C9.01621 39.2041 7.72637 37.9142 6.14092 37.9142ZM6.14092 42.2027C5.36172 42.2027 4.72764 41.5687 4.72764 40.7894C4.72764 40.0101 5.36162 39.3762 6.14092 39.3762C6.92021 39.3762 7.5542 40.0101 7.5542 40.7894C7.5542 41.5687 6.92021 42.2027 6.14092 42.2027Z" fill="#E63114"/>
<path d="M28.6535 2.92401H11.0122C10.6084 2.92401 10.2812 3.25126 10.2812 3.65497C10.2812 4.05868 10.6084 4.38593 11.0122 4.38593H28.6535C29.0573 4.38593 29.3845 4.05868 29.3845 3.65497C29.3845 3.25126 29.0573 2.92401 28.6535 2.92401Z" fill="white"/>
<path d="M35.9647 2.92401H31.6763C31.2725 2.92401 30.9453 3.25126 30.9453 3.65497C30.9453 4.05868 31.2725 4.38593 31.6763 4.38593H35.9647C36.3686 4.38593 36.6957 4.05868 36.6957 3.65497C36.6957 3.25126 36.3686 2.92401 35.9647 2.92401Z" fill="#E63114"/>
<path d="M28.6535 6.43274H11.0122C10.6084 6.43274 10.2812 6.75999 10.2812 7.1637C10.2812 7.56741 10.6084 7.89465 11.0122 7.89465H28.6535C29.0573 7.89465 29.3845 7.56741 29.3845 7.1637C29.3845 6.76008 29.0573 6.43274 28.6535 6.43274Z" fill="white"/>
<path d="M35.9647 6.43274H31.6763C31.2725 6.43274 30.9453 6.75999 30.9453 7.1637C30.9453 7.56741 31.2725 7.89465 31.6763 7.89465H35.9647C36.3686 7.89465 36.6957 7.56741 36.6957 7.1637C36.6957 6.76008 36.3686 6.43274 35.9647 6.43274Z" fill="white"/>
<path d="M30.6027 21.2476H12.9614C12.5576 21.2476 12.2305 21.5748 12.2305 21.9785C12.2305 22.3822 12.5576 22.7095 12.9614 22.7095H30.6027C31.0065 22.7095 31.3337 22.3821 31.3337 21.9785C31.3337 21.5749 31.0065 21.2476 30.6027 21.2476Z" fill="white"/>
<path d="M35.9647 38.4016H31.6763C31.2725 38.4016 30.9453 38.7288 30.9453 39.1325C30.9453 39.5362 31.2725 39.8635 31.6763 39.8635H35.9647C36.3686 39.8635 36.6957 39.5361 36.6957 39.1325C36.6957 38.7289 36.3686 38.4016 35.9647 38.4016Z" fill="white"/>
<path d="M18.9068 24.7563H12.9614C12.5576 24.7563 12.2305 25.0836 12.2305 25.4873C12.2305 25.891 12.5576 26.2183 12.9614 26.2183H18.9068C19.3106 26.2183 19.6378 25.891 19.6378 25.4873C19.6378 25.0836 19.3106 24.7563 18.9068 24.7563Z" fill="#E63114"/>
<path d="M35.964 41.9103H27.2895C26.8857 41.9103 26.5586 42.2376 26.5586 42.6413C26.5586 43.045 26.8857 43.3723 27.2895 43.3723H35.964C36.3678 43.3723 36.6949 43.045 36.6949 42.6413C36.6949 42.2376 36.3678 41.9103 35.964 41.9103Z" fill="#E63114"/>
<path d="M28.9466 38.4016H12.3286C11.9248 38.4016 11.5977 38.7288 11.5977 39.1325C11.5977 39.5362 11.9248 39.8635 12.3286 39.8635H28.9466C29.3504 39.8635 29.6775 39.5361 29.6775 39.1325C29.6775 38.7289 29.3504 38.4016 28.9466 38.4016Z" fill="white"/>
<path d="M24.3657 41.9103H12.3286C11.9248 41.9103 11.5977 42.2376 11.5977 42.6413C11.5977 43.045 11.9248 43.3723 12.3286 43.3723H24.3656C24.7694 43.3723 25.0966 43.045 25.0966 42.6413C25.0967 42.2376 24.7695 41.9103 24.3657 41.9103Z" fill="white"/>
<path d="M37.6231 21.2476H34.4067C34.0029 21.2476 33.6758 21.5748 33.6758 21.9785C33.6758 22.3822 34.0029 22.7095 34.4067 22.7095H37.6231C38.027 22.7095 38.3541 22.3821 38.3541 21.9785C38.3541 21.5749 38.027 21.2476 37.6231 21.2476Z" fill="white"/>
<path d="M37.6206 24.7563H23.0981C22.6943 24.7563 22.3672 25.0836 22.3672 25.4873C22.3672 25.891 22.6943 26.2183 23.0981 26.2183H37.6206C38.0244 26.2183 38.3516 25.891 38.3516 25.4873C38.3516 25.0836 38.0244 24.7563 37.6206 24.7563Z" fill="white"/>
</g>
<defs>
<clipPath id="clip0_729_9700">
<rect width="50" height="50" fill="white"/>
</clipPath>
</defs>
</svg>
