<svg width="278" height="28" viewBox="0 0 278 28" fill="none" xmlns="http://www.w3.org/2000/svg" preserveAspectRatio="false">
<path d="M0.828125 25.001V24.2979L3.46875 21.4072C3.77865 21.0687 4.03385 20.7744 4.23438 20.5244C4.4349 20.2718 4.58333 20.0348 4.67969 19.8135C4.77865 19.5895 4.82813 19.3551 4.82813 19.1104C4.82813 18.8291 4.76042 18.5856 4.625 18.3799C4.49219 18.1742 4.3099 18.0153 4.07813 17.9033C3.84635 17.7913 3.58594 17.7354 3.29687 17.7354C2.98958 17.7354 2.72135 17.7992 2.49219 17.9268C2.26563 18.0518 2.08984 18.2275 1.96484 18.4541C1.84245 18.6807 1.78125 18.9463 1.78125 19.251H0.859375C0.859375 18.7822 0.967448 18.3708 1.18359 18.0166C1.39974 17.6624 1.69401 17.3864 2.06641 17.1885C2.44141 16.9906 2.86198 16.8916 3.32812 16.8916C3.79688 16.8916 4.21224 16.9906 4.57422 17.1885C4.9362 17.3864 5.22005 17.6533 5.42578 17.9893C5.63151 18.3252 5.73437 18.6989 5.73437 19.1104C5.73437 19.4046 5.68099 19.6924 5.57422 19.9736C5.47005 20.2523 5.28776 20.5635 5.02734 20.9072C4.76953 21.2484 4.41146 21.665 3.95312 22.1572L2.15625 24.0791V24.1416H5.875V25.001H0.828125ZM10.0977 25.1104C9.50911 25.1104 9.00781 24.9502 8.59375 24.6299C8.17969 24.307 7.86328 23.8395 7.64453 23.2275C7.42578 22.613 7.31641 21.8708 7.31641 21.001C7.31641 20.1364 7.42578 19.3981 7.64453 18.7861C7.86589 18.1715 8.18359 17.7028 8.59766 17.3799C9.01432 17.0544 9.51432 16.8916 10.0977 16.8916C10.681 16.8916 11.1797 17.0544 11.5938 17.3799C12.0104 17.7028 12.3281 18.1715 12.5469 18.7861C12.7682 19.3981 12.8789 20.1364 12.8789 21.001C12.8789 21.8708 12.7695 22.613 12.5508 23.2275C12.332 23.8395 12.0156 24.307 11.6016 24.6299C11.1875 24.9502 10.6862 25.1104 10.0977 25.1104ZM10.0977 24.251C10.681 24.251 11.1341 23.9697 11.457 23.4072C11.7799 22.8447 11.9414 22.0426 11.9414 21.001C11.9414 20.3083 11.8672 19.7184 11.7188 19.2314C11.5729 18.7445 11.362 18.3734 11.0859 18.1182C10.8125 17.863 10.4831 17.7354 10.0977 17.7354C9.51953 17.7354 9.06771 18.0205 8.74219 18.5908C8.41667 19.1585 8.25391 19.9619 8.25391 21.001C8.25391 21.6937 8.32682 22.2822 8.47266 22.7666C8.61849 23.251 8.82813 23.6195 9.10156 23.8721C9.3776 24.1247 9.70964 24.251 10.0977 24.251ZM16.9727 25.1104C16.3841 25.1104 15.8828 24.9502 15.4688 24.6299C15.0547 24.307 14.7383 23.8395 14.5195 23.2275C14.3008 22.613 14.1914 21.8708 14.1914 21.001C14.1914 20.1364 14.3008 19.3981 14.5195 18.7861C14.7409 18.1715 15.0586 17.7028 15.4727 17.3799C15.8893 17.0544 16.3893 16.8916 16.9727 16.8916C17.556 16.8916 18.0547 17.0544 18.4688 17.3799C18.8854 17.7028 19.2031 18.1715 19.4219 18.7861C19.6432 19.3981 19.7539 20.1364 19.7539 21.001C19.7539 21.8708 19.6445 22.613 19.4258 23.2275C19.207 23.8395 18.8906 24.307 18.4766 24.6299C18.0625 24.9502 17.5612 25.1104 16.9727 25.1104ZM16.9727 24.251C17.556 24.251 18.0091 23.9697 18.332 23.4072C18.6549 22.8447 18.8164 22.0426 18.8164 21.001C18.8164 20.3083 18.7422 19.7184 18.5938 19.2314C18.4479 18.7445 18.237 18.3734 17.9609 18.1182C17.6875 17.863 17.3581 17.7354 16.9727 17.7354C16.3945 17.7354 15.9427 18.0205 15.6172 18.5908C15.2917 19.1585 15.1289 19.9619 15.1289 21.001C15.1289 21.6937 15.2018 22.2822 15.3477 22.7666C15.4935 23.251 15.7031 23.6195 15.9766 23.8721C16.2526 24.1247 16.5846 24.251 16.9727 24.251ZM61.2695 23.3604V22.5635L64.7852 17.001H65.3633V18.2354H64.9727L62.3164 22.4385V22.501H67.0508V23.3604H61.2695ZM65.0352 25.001V23.1182V22.7471V17.001H65.957V25.001H65.0352ZM71.124 25.1104C70.5355 25.1104 70.0342 24.9502 69.6201 24.6299C69.2061 24.307 68.8896 23.8395 68.6709 23.2275C68.4521 22.613 68.3428 21.8708 68.3428 21.001C68.3428 20.1364 68.4521 19.3981 68.6709 18.7861C68.8923 18.1715 69.21 17.7028 69.624 17.3799C70.0407 17.0544 70.5407 16.8916 71.124 16.8916C71.7074 16.8916 72.2061 17.0544 72.6201 17.3799C73.0368 17.7028 73.3545 18.1715 73.5732 18.7861C73.7946 19.3981 73.9053 20.1364 73.9053 21.001C73.9053 21.8708 73.7959 22.613 73.5771 23.2275C73.3584 23.8395 73.042 24.307 72.6279 24.6299C72.2139 24.9502 71.7126 25.1104 71.124 25.1104ZM71.124 24.251C71.7074 24.251 72.1605 23.9697 72.4834 23.4072C72.8063 22.8447 72.9678 22.0426 72.9678 21.001C72.9678 20.3083 72.8936 19.7184 72.7451 19.2314C72.5993 18.7445 72.3883 18.3734 72.1123 18.1182C71.8389 17.863 71.5094 17.7354 71.124 17.7354C70.5459 17.7354 70.0941 18.0205 69.7686 18.5908C69.443 19.1585 69.2803 19.9619 69.2803 21.001C69.2803 21.6937 69.3532 22.2822 69.499 22.7666C69.6449 23.251 69.8545 23.6195 70.1279 23.8721C70.404 24.1247 70.736 24.251 71.124 24.251ZM77.999 25.1104C77.4105 25.1104 76.9092 24.9502 76.4951 24.6299C76.0811 24.307 75.7646 23.8395 75.5459 23.2275C75.3271 22.613 75.2178 21.8708 75.2178 21.001C75.2178 20.1364 75.3271 19.3981 75.5459 18.7861C75.7673 18.1715 76.085 17.7028 76.499 17.3799C76.9157 17.0544 77.4157 16.8916 77.999 16.8916C78.5824 16.8916 79.0811 17.0544 79.4951 17.3799C79.9118 17.7028 80.2295 18.1715 80.4482 18.7861C80.6696 19.3981 80.7803 20.1364 80.7803 21.001C80.7803 21.8708 80.6709 22.613 80.4521 23.2275C80.2334 23.8395 79.917 24.307 79.5029 24.6299C79.0889 24.9502 78.5876 25.1104 77.999 25.1104ZM77.999 24.251C78.5824 24.251 79.0355 23.9697 79.3584 23.4072C79.6813 22.8447 79.8428 22.0426 79.8428 21.001C79.8428 20.3083 79.7686 19.7184 79.6201 19.2314C79.4743 18.7445 79.2633 18.3734 78.9873 18.1182C78.7139 17.863 78.3844 17.7354 77.999 17.7354C77.4209 17.7354 76.9691 18.0205 76.6436 18.5908C76.318 19.1585 76.1553 19.9619 76.1553 21.001C76.1553 21.6937 76.2282 22.2822 76.374 22.7666C76.5199 23.251 76.7295 23.6195 77.0029 23.8721C77.279 24.1247 77.611 24.251 77.999 24.251ZM125.14 25.1104C124.812 25.1051 124.483 25.0426 124.155 24.9229C123.827 24.8031 123.528 24.6012 123.257 24.3174C122.986 24.0309 122.769 23.6442 122.604 23.1572C122.44 22.6676 122.358 22.0531 122.358 21.3135C122.358 20.6051 122.425 19.9775 122.558 19.4307C122.69 18.8812 122.883 18.4189 123.136 18.0439C123.388 17.6663 123.693 17.3799 124.05 17.1846C124.409 16.9893 124.814 16.8916 125.265 16.8916C125.713 16.8916 126.111 16.9814 126.46 17.1611C126.812 17.3382 127.098 17.5856 127.319 17.9033C127.541 18.221 127.684 18.5869 127.749 19.001H126.796C126.707 18.6416 126.535 18.3434 126.28 18.1064C126.025 17.8695 125.687 17.751 125.265 17.751C124.645 17.751 124.157 18.0205 123.8 18.5596C123.446 19.0986 123.267 19.8551 123.265 20.8291H123.327C123.473 20.6077 123.646 20.4189 123.847 20.2627C124.05 20.1038 124.274 19.9814 124.519 19.8955C124.763 19.8096 125.022 19.7666 125.296 19.7666C125.754 19.7666 126.174 19.8812 126.554 20.1104C126.934 20.3369 127.239 20.6507 127.468 21.0518C127.697 21.4502 127.812 21.9072 127.812 22.4229C127.812 22.9176 127.701 23.3708 127.479 23.7822C127.258 24.1911 126.947 24.5166 126.546 24.7588C126.147 24.9984 125.679 25.1156 125.14 25.1104ZM125.14 24.251C125.468 24.251 125.762 24.1689 126.022 24.0049C126.285 23.8408 126.493 23.6208 126.644 23.3447C126.797 23.0687 126.874 22.7614 126.874 22.4229C126.874 22.0921 126.8 21.7913 126.651 21.5205C126.506 21.2471 126.304 21.0296 126.046 20.8682C125.791 20.7067 125.499 20.626 125.171 20.626C124.924 20.626 124.693 20.6755 124.479 20.7744C124.266 20.8708 124.078 21.0036 123.917 21.1729C123.758 21.3421 123.633 21.5361 123.542 21.7549C123.451 21.971 123.405 22.1989 123.405 22.4385C123.405 22.7562 123.479 23.0531 123.628 23.3291C123.779 23.6051 123.985 23.8278 124.245 23.9971C124.508 24.1663 124.806 24.251 125.14 24.251ZM131.957 25.1104C131.368 25.1104 130.867 24.9502 130.453 24.6299C130.039 24.307 129.723 23.8395 129.504 23.2275C129.285 22.613 129.176 21.8708 129.176 21.001C129.176 20.1364 129.285 19.3981 129.504 18.7861C129.725 18.1715 130.043 17.7028 130.457 17.3799C130.874 17.0544 131.374 16.8916 131.957 16.8916C132.54 16.8916 133.039 17.0544 133.453 17.3799C133.87 17.7028 134.188 18.1715 134.406 18.7861C134.628 19.3981 134.738 20.1364 134.738 21.001C134.738 21.8708 134.629 22.613 134.41 23.2275C134.191 23.8395 133.875 24.307 133.461 24.6299C133.047 24.9502 132.546 25.1104 131.957 25.1104ZM131.957 24.251C132.54 24.251 132.993 23.9697 133.316 23.4072C133.639 22.8447 133.801 22.0426 133.801 21.001C133.801 20.3083 133.727 19.7184 133.578 19.2314C133.432 18.7445 133.221 18.3734 132.945 18.1182C132.672 17.863 132.342 17.7354 131.957 17.7354C131.379 17.7354 130.927 18.0205 130.602 18.5908C130.276 19.1585 130.113 19.9619 130.113 21.001C130.113 21.6937 130.186 22.2822 130.332 22.7666C130.478 23.251 130.688 23.6195 130.961 23.8721C131.237 24.1247 131.569 24.251 131.957 24.251ZM138.832 25.1104C138.243 25.1104 137.742 24.9502 137.328 24.6299C136.914 24.307 136.598 23.8395 136.379 23.2275C136.16 22.613 136.051 21.8708 136.051 21.001C136.051 20.1364 136.16 19.3981 136.379 18.7861C136.6 18.1715 136.918 17.7028 137.332 17.3799C137.749 17.0544 138.249 16.8916 138.832 16.8916C139.415 16.8916 139.914 17.0544 140.328 17.3799C140.745 17.7028 141.063 18.1715 141.281 18.7861C141.503 19.3981 141.613 20.1364 141.613 21.001C141.613 21.8708 141.504 22.613 141.285 23.2275C141.066 23.8395 140.75 24.307 140.336 24.6299C139.922 24.9502 139.421 25.1104 138.832 25.1104ZM138.832 24.251C139.415 24.251 139.868 23.9697 140.191 23.4072C140.514 22.8447 140.676 22.0426 140.676 21.001C140.676 20.3083 140.602 19.7184 140.453 19.2314C140.307 18.7445 140.096 18.3734 139.82 18.1182C139.547 17.863 139.217 17.7354 138.832 17.7354C138.254 17.7354 137.802 18.0205 137.477 18.5908C137.151 19.1585 136.988 19.9619 136.988 21.001C136.988 21.6937 137.061 22.2822 137.207 22.7666C137.353 23.251 137.563 23.6195 137.836 23.8721C138.112 24.1247 138.444 24.251 138.832 24.251ZM185.879 25.1104C185.342 25.1104 184.868 25.0153 184.457 24.8252C184.048 24.6325 183.729 24.3682 183.5 24.0322C183.271 23.6937 183.158 23.3083 183.16 22.876C183.158 22.5374 183.224 22.2249 183.359 21.9385C183.495 21.6494 183.68 21.4085 183.914 21.2158C184.151 21.0205 184.415 20.8968 184.707 20.8447V20.7979C184.324 20.6989 184.02 20.484 183.793 20.1533C183.566 19.82 183.454 19.4411 183.457 19.0166C183.454 18.6104 183.557 18.2471 183.766 17.9268C183.974 17.6064 184.26 17.3538 184.625 17.1689C184.992 16.984 185.41 16.8916 185.879 16.8916C186.342 16.8916 186.757 16.984 187.121 17.1689C187.486 17.3538 187.772 17.6064 187.98 17.9268C188.191 18.2471 188.298 18.6104 188.301 19.0166C188.298 19.4411 188.182 19.82 187.953 20.1533C187.727 20.484 187.426 20.6989 187.051 20.7979V20.8447C187.34 20.8968 187.6 21.0205 187.832 21.2158C188.064 21.4085 188.249 21.6494 188.387 21.9385C188.525 22.2249 188.595 22.5374 188.598 22.876C188.595 23.3083 188.478 23.6937 188.246 24.0322C188.017 24.3682 187.698 24.6325 187.289 24.8252C186.883 25.0153 186.413 25.1104 185.879 25.1104ZM185.879 24.251C186.241 24.251 186.553 24.1924 186.816 24.0752C187.079 23.958 187.283 23.7926 187.426 23.5791C187.569 23.3656 187.642 23.1156 187.645 22.8291C187.642 22.527 187.564 22.2601 187.41 22.0283C187.257 21.7965 187.047 21.6143 186.781 21.4814C186.518 21.3486 186.217 21.2822 185.879 21.2822C185.538 21.2822 185.233 21.3486 184.965 21.4814C184.699 21.6143 184.49 21.7965 184.336 22.0283C184.185 22.2601 184.111 22.527 184.113 22.8291C184.111 23.1156 184.18 23.3656 184.32 23.5791C184.464 23.7926 184.668 23.958 184.934 24.0752C185.199 24.1924 185.514 24.251 185.879 24.251ZM185.879 20.4541C186.165 20.4541 186.419 20.3968 186.641 20.2822C186.865 20.1676 187.04 20.0075 187.168 19.8018C187.296 19.596 187.361 19.3551 187.363 19.0791C187.361 18.8083 187.297 18.5726 187.172 18.3721C187.047 18.1689 186.874 18.0127 186.652 17.9033C186.431 17.7913 186.173 17.7354 185.879 17.7354C185.579 17.7354 185.318 17.7913 185.094 17.9033C184.87 18.0127 184.697 18.1689 184.574 18.3721C184.452 18.5726 184.392 18.8083 184.395 19.0791C184.392 19.3551 184.453 19.596 184.578 19.8018C184.706 20.0075 184.882 20.1676 185.105 20.2822C185.329 20.3968 185.587 20.4541 185.879 20.4541ZM192.704 25.1104C192.116 25.1104 191.614 24.9502 191.2 24.6299C190.786 24.307 190.47 23.8395 190.251 23.2275C190.032 22.613 189.923 21.8708 189.923 21.001C189.923 20.1364 190.032 19.3981 190.251 18.7861C190.472 18.1715 190.79 17.7028 191.204 17.3799C191.621 17.0544 192.121 16.8916 192.704 16.8916C193.287 16.8916 193.786 17.0544 194.2 17.3799C194.617 17.7028 194.935 18.1715 195.153 18.7861C195.375 19.3981 195.485 20.1364 195.485 21.001C195.485 21.8708 195.376 22.613 195.157 23.2275C194.938 23.8395 194.622 24.307 194.208 24.6299C193.794 24.9502 193.293 25.1104 192.704 25.1104ZM192.704 24.251C193.287 24.251 193.741 23.9697 194.063 23.4072C194.386 22.8447 194.548 22.0426 194.548 21.001C194.548 20.3083 194.474 19.7184 194.325 19.2314C194.179 18.7445 193.968 18.3734 193.692 18.1182C193.419 17.863 193.09 17.7354 192.704 17.7354C192.126 17.7354 191.674 18.0205 191.349 18.5908C191.023 19.1585 190.86 19.9619 190.86 21.001C190.86 21.6937 190.933 22.2822 191.079 22.7666C191.225 23.251 191.435 23.6195 191.708 23.8721C191.984 24.1247 192.316 24.251 192.704 24.251ZM199.579 25.1104C198.991 25.1104 198.489 24.9502 198.075 24.6299C197.661 24.307 197.345 23.8395 197.126 23.2275C196.907 22.613 196.798 21.8708 196.798 21.001C196.798 20.1364 196.907 19.3981 197.126 18.7861C197.347 18.1715 197.665 17.7028 198.079 17.3799C198.496 17.0544 198.996 16.8916 199.579 16.8916C200.162 16.8916 200.661 17.0544 201.075 17.3799C201.492 17.7028 201.81 18.1715 202.028 18.7861C202.25 19.3981 202.36 20.1364 202.36 21.001C202.36 21.8708 202.251 22.613 202.032 23.2275C201.813 23.8395 201.497 24.307 201.083 24.6299C200.669 24.9502 200.168 25.1104 199.579 25.1104ZM199.579 24.251C200.162 24.251 200.616 23.9697 200.938 23.4072C201.261 22.8447 201.423 22.0426 201.423 21.001C201.423 20.3083 201.349 19.7184 201.2 19.2314C201.054 18.7445 200.843 18.3734 200.567 18.1182C200.294 17.863 199.965 17.7354 199.579 17.7354C199.001 17.7354 198.549 18.0205 198.224 18.5908C197.898 19.1585 197.735 19.9619 197.735 21.001C197.735 21.6937 197.808 22.2822 197.954 22.7666C198.1 23.251 198.31 23.6195 198.583 23.8721C198.859 24.1247 199.191 24.251 199.579 24.251ZM249.376 21.4385L244.345 24.001V23.001L248.204 21.1416L248.173 21.2041V21.0479L248.204 21.1104L244.345 19.251V18.251L249.376 20.8135V21.4385ZM254.127 17.001V25.001H253.158V18.0166H253.111L251.158 19.3135V18.3291L253.158 17.001H254.127ZM259.037 25.1104C258.449 25.1104 257.947 24.9502 257.533 24.6299C257.119 24.307 256.803 23.8395 256.584 23.2275C256.365 22.613 256.256 21.8708 256.256 21.001C256.256 20.1364 256.365 19.3981 256.584 18.7861C256.805 18.1715 257.123 17.7028 257.537 17.3799C257.954 17.0544 258.454 16.8916 259.037 16.8916C259.62 16.8916 260.119 17.0544 260.533 17.3799C260.95 17.7028 261.268 18.1715 261.486 18.7861C261.708 19.3981 261.818 20.1364 261.818 21.001C261.818 21.8708 261.709 22.613 261.49 23.2275C261.271 23.8395 260.955 24.307 260.541 24.6299C260.127 24.9502 259.626 25.1104 259.037 25.1104ZM259.037 24.251C259.62 24.251 260.074 23.9697 260.396 23.4072C260.719 22.8447 260.881 22.0426 260.881 21.001C260.881 20.3083 260.807 19.7184 260.658 19.2314C260.512 18.7445 260.301 18.3734 260.025 18.1182C259.752 17.863 259.423 17.7354 259.037 17.7354C258.459 17.7354 258.007 18.0205 257.682 18.5908C257.356 19.1585 257.193 19.9619 257.193 21.001C257.193 21.6937 257.266 22.2822 257.412 22.7666C257.558 23.251 257.768 23.6195 258.041 23.8721C258.317 24.1247 258.649 24.251 259.037 24.251ZM265.912 25.1104C265.324 25.1104 264.822 24.9502 264.408 24.6299C263.994 24.307 263.678 23.8395 263.459 23.2275C263.24 22.613 263.131 21.8708 263.131 21.001C263.131 20.1364 263.24 19.3981 263.459 18.7861C263.68 18.1715 263.998 17.7028 264.412 17.3799C264.829 17.0544 265.329 16.8916 265.912 16.8916C266.495 16.8916 266.994 17.0544 267.408 17.3799C267.825 17.7028 268.143 18.1715 268.361 18.7861C268.583 19.3981 268.693 20.1364 268.693 21.001C268.693 21.8708 268.584 22.613 268.365 23.2275C268.146 23.8395 267.83 24.307 267.416 24.6299C267.002 24.9502 266.501 25.1104 265.912 25.1104ZM265.912 24.251C266.495 24.251 266.949 23.9697 267.271 23.4072C267.594 22.8447 267.756 22.0426 267.756 21.001C267.756 20.3083 267.682 19.7184 267.533 19.2314C267.387 18.7445 267.176 18.3734 266.9 18.1182C266.627 17.863 266.298 17.7354 265.912 17.7354C265.334 17.7354 264.882 18.0205 264.557 18.5908C264.231 19.1585 264.068 19.9619 264.068 21.001C264.068 21.6937 264.141 22.2822 264.287 22.7666C264.433 23.251 264.643 23.6195 264.916 23.8721C265.192 24.1247 265.524 24.251 265.912 24.251ZM272.787 25.1104C272.199 25.1104 271.697 24.9502 271.283 24.6299C270.869 24.307 270.553 23.8395 270.334 23.2275C270.115 22.613 270.006 21.8708 270.006 21.001C270.006 20.1364 270.115 19.3981 270.334 18.7861C270.555 18.1715 270.873 17.7028 271.287 17.3799C271.704 17.0544 272.204 16.8916 272.787 16.8916C273.37 16.8916 273.869 17.0544 274.283 17.3799C274.7 17.7028 275.018 18.1715 275.236 18.7861C275.458 19.3981 275.568 20.1364 275.568 21.001C275.568 21.8708 275.459 22.613 275.24 23.2275C275.021 23.8395 274.705 24.307 274.291 24.6299C273.877 24.9502 273.376 25.1104 272.787 25.1104ZM272.787 24.251C273.37 24.251 273.824 23.9697 274.146 23.4072C274.469 22.8447 274.631 22.0426 274.631 21.001C274.631 20.3083 274.557 19.7184 274.408 19.2314C274.262 18.7445 274.051 18.3734 273.775 18.1182C273.502 17.863 273.173 17.7354 272.787 17.7354C272.209 17.7354 271.757 18.0205 271.432 18.5908C271.106 19.1585 270.943 19.9619 270.943 21.001C270.943 21.6937 271.016 22.2822 271.162 22.7666C271.308 23.251 271.518 23.6195 271.791 23.8721C272.067 24.1247 272.399 24.251 272.787 24.251Z" fill="#D0C1E8"/>
<path d="M2.5 0.000976562V8.00098M5.5 0.000976562V5.00098M8.5 0.000976562L8.5 5.00098M11.5 0.000976562V5.00098M15 0.000976562V8.00098M18 0.000976562V5.00098M21 0.000976562V5.00098M24 0.000976562V5.00098M27.5 0.000976562V8.00098M30.5 0.000976562V5.00098M33.5 0.000976562V5.00098M36.5 0.000976562V5.00098M40 0.000976562V8.00098M43 0.000976562V5.00098M46 0.000976562V5.00098M49 0.000976562V5.00098M52.5 0.000976562V8.00098M55.5 0.000976562V5.00098M58.5 0.000976562V5.00098M61.5 0.000976562V5.00098M65 0.000976562V8.00098M68 0.000976562V5.00098M71 0.000976562V5.00098M74 0.000976562V5.00098M77.5 0.000976562V8.00098M80.5 0.000976562V5.00098M83.5 0.000976562V5.00098M86.5 0.000976562V5.00098M90 0.000976562V8.00098M93 0.000976562V5.00098M96 0.000976562V5.00098M99 0.000976562V5.00098M102.5 0.000976562V8.00098M105.5 0.000976562V5.00098M108.5 0.000976562V5.00098M111.5 0.000976562V5.00098M115 0.000976562V8.00098M118 0.000976562V5.00098M121 0.000976562V5.00098M124 0.000976562V5.00098M127.5 0.000976562V8.00098M130.5 0.000976562V5.00098M133.5 0.000976562V5.00098M136.5 0.000976562V5.00098M140 0.000976562V8.00098M143 0.000976562V5.00098M146 0.000976562V5.00098M149 0.000976562V5.00098M152.5 0.000976562V8.00098M155.5 0.000976562V5.00098M158.5 0.000976562V5.00098M161.5 0.000976562V5.00098M165 0.000976562V8.00098M168 0.000976562V5.00098M171 0.000976562V5.00098M174 0.000976562V5.00098M177.5 0.000976562V8.00098M180.5 0.000976562V5.00098M183.5 0.000976562V5.00098M186.5 0.000976562V5.00098M190 0.000976562V8.00098M193 0.000976562V5.00098M196 0.000976562V5.00098M199 0.000976562V5.00098M202.5 0.000976562V8.00098M205.5 0.000976562V5.00098M208.5 0.000976562V5.00098M211.5 0.000976562V5.00098M215 0.000976562V8.00098M218 0.000976562V5.00098M221 0.000976562V5.00098M224 0.000976562V5.00098M227.5 0.000976562V8.00098M230.5 0.000976562V5.00098M233.5 0.000976562V5.00098M236.5 0.000976562V5.00098M240 0.000976562V8.00098M243 0.000976562V5.00098M246 0.000976562V5.00098M249 0.000976562V5.00098M252.5 0.000976562V8.00098M255.5 0.000976562V5.00098M258.5 0.000976562V5.00098M261.5 0.000976562V5.00098M265 0.000976562V8.00098M268 0.000976562V5.00098M271 0.000976562V5.00098M274 0.000976562V5.00098M277.5 0.000976562V8.00098" stroke="#D0C1E8" stroke-width="0.5"/>
</svg>
