<svg width="281" height="29" viewBox="0 0 281 29" fill="none" xmlns="http://www.w3.org/2000/svg" preserveAspectRatio="false">
<path d="M3.4375 25.1113C2.84896 25.1113 2.34766 24.9512 1.93359 24.6309C1.51953 24.3079 1.20313 23.8405 0.984375 23.2285C0.765625 22.6139 0.65625 21.8717 0.65625 21.002C0.65625 20.1374 0.765625 19.3991 0.984375 18.7871C1.20573 18.1725 1.52344 17.7038 1.9375 17.3809C2.35417 17.0553 2.85417 16.8926 3.4375 16.8926C4.02083 16.8926 4.51953 17.0553 4.93359 17.3809C5.35026 17.7038 5.66797 18.1725 5.88672 18.7871C6.10807 19.3991 6.21875 20.1374 6.21875 21.002C6.21875 21.8717 6.10938 22.6139 5.89063 23.2285C5.67188 23.8405 5.35547 24.3079 4.94141 24.6309C4.52734 24.9512 4.02604 25.1113 3.4375 25.1113ZM3.4375 24.252C4.02083 24.252 4.47396 23.9707 4.79688 23.4082C5.11979 22.8457 5.28125 22.0436 5.28125 21.002C5.28125 20.3092 5.20703 19.7194 5.05859 19.2324C4.91276 18.7454 4.70182 18.3743 4.42578 18.1191C4.15234 17.8639 3.82292 17.7363 3.4375 17.7363C2.85938 17.7363 2.40755 18.0215 2.08203 18.5918C1.75651 19.1595 1.59375 19.9629 1.59375 21.002C1.59375 21.6947 1.66667 22.2832 1.8125 22.7676C1.95833 23.252 2.16797 23.6204 2.44141 23.873C2.71745 24.1257 3.04948 24.252 3.4375 24.252ZM66.4844 25.002V24.2988L69.125 21.4082C69.4349 21.0697 69.6901 20.7754 69.8906 20.5254C70.0911 20.2728 70.2396 20.0358 70.3359 19.8145C70.4349 19.5905 70.4844 19.3561 70.4844 19.1113C70.4844 18.8301 70.4167 18.5866 70.2813 18.3809C70.1484 18.1751 69.9661 18.0163 69.7344 17.9043C69.5026 17.7923 69.2422 17.7363 68.9531 17.7363C68.6458 17.7363 68.3776 17.8001 68.1484 17.9277C67.9219 18.0527 67.7461 18.2285 67.6211 18.4551C67.4987 18.6816 67.4375 18.9473 67.4375 19.252H66.5156C66.5156 18.7832 66.6237 18.3717 66.8398 18.0176C67.056 17.6634 67.3503 17.3874 67.7227 17.1895C68.0977 16.9915 68.5182 16.8926 68.9844 16.8926C69.4531 16.8926 69.8685 16.9915 70.2305 17.1895C70.5924 17.3874 70.8763 17.6543 71.082 17.9902C71.2878 18.3262 71.3906 18.6999 71.3906 19.1113C71.3906 19.4056 71.3372 19.6934 71.2305 19.9746C71.1263 20.2533 70.944 20.5645 70.6836 20.9082C70.4258 21.2493 70.0677 21.666 69.6094 22.1582L67.8125 24.0801V24.1426H71.5313V25.002H66.4844ZM137.52 25.1113C137.061 25.1113 136.648 25.0202 136.281 24.8379C135.914 24.6556 135.62 24.4056 135.398 24.0879C135.177 23.7702 135.056 23.4082 135.035 23.002H135.973C136.009 23.3639 136.173 23.6634 136.465 23.9004C136.759 24.1348 137.111 24.252 137.52 24.252C137.848 24.252 138.139 24.1751 138.395 24.0215C138.652 23.8678 138.854 23.6569 139 23.3887C139.148 23.1178 139.223 22.8118 139.223 22.4707C139.223 22.1217 139.146 21.8105 138.992 21.5371C138.841 21.2611 138.633 21.0436 138.367 20.8848C138.102 20.7259 137.798 20.6452 137.457 20.6426C137.212 20.64 136.961 20.6777 136.703 20.7559C136.445 20.8314 136.233 20.929 136.066 21.0488L135.16 20.9395L135.645 17.002H139.801V17.8613H136.457L136.176 20.2207H136.223C136.387 20.0905 136.592 19.9824 136.84 19.8965C137.087 19.8105 137.345 19.7676 137.613 19.7676C138.103 19.7676 138.539 19.8848 138.922 20.1191C139.307 20.3509 139.609 20.6686 139.828 21.0723C140.049 21.4759 140.16 21.9368 140.16 22.4551C140.16 22.9655 140.046 23.4212 139.816 23.8223C139.59 24.2207 139.277 24.5358 138.879 24.7676C138.48 24.9967 138.027 25.1113 137.52 25.1113ZM197.649 25.002L201.228 17.9238V17.8613H197.103V17.002H202.228V17.9082L198.665 25.002H197.649ZM267.777 21.4395L262.746 24.002V23.002L266.605 21.1426L266.574 21.2051V21.0488L266.605 21.1113L262.746 19.252V18.252L267.777 20.8145V21.4395ZM272.528 17.002V25.002H271.56V18.0176H271.513L269.56 19.3145V18.3301L271.56 17.002H272.528ZM277.438 25.1113C276.85 25.1113 276.349 24.9512 275.935 24.6309C275.521 24.3079 275.204 23.8405 274.985 23.2285C274.767 22.6139 274.657 21.8717 274.657 21.002C274.657 20.1374 274.767 19.3991 274.985 18.7871C275.207 18.1725 275.524 17.7038 275.938 17.3809C276.355 17.0553 276.855 16.8926 277.438 16.8926C278.022 16.8926 278.521 17.0553 278.935 17.3809C279.351 17.7038 279.669 18.1725 279.888 18.7871C280.109 19.3991 280.22 20.1374 280.22 21.002C280.22 21.8717 280.11 22.6139 279.892 23.2285C279.673 23.8405 279.356 24.3079 278.942 24.6309C278.528 24.9512 278.027 25.1113 277.438 25.1113ZM277.438 24.252C278.022 24.252 278.475 23.9707 278.798 23.4082C279.121 22.8457 279.282 22.0436 279.282 21.002C279.282 20.3092 279.208 19.7194 279.06 19.2324C278.914 18.7454 278.703 18.3743 278.427 18.1191C278.153 17.8639 277.824 17.7363 277.438 17.7363C276.86 17.7363 276.409 18.0215 276.083 18.5918C275.757 19.1595 275.595 19.9629 275.595 21.002C275.595 21.6947 275.668 22.2832 275.813 22.7676C275.959 23.252 276.169 23.6204 276.442 23.873C276.718 24.1257 277.05 24.252 277.438 24.252Z" fill="#D0C1E8"/>
<path d="M2.5 0.00195312V8.00195M5.5 0.00195312V5.00195M8.5 0.00195312L8.5 5.00195M11.5 0.00195312V5.00195M15 0.00195312V8.00195M18 0.00195312V5.00195M21 0.00195312V5.00195M24 0.00195312V5.00195M27.5 0.00195312V8.00195M30.5 0.00195312V5.00195M33.5 0.00195312V5.00195M36.5 0.00195312V5.00195M40 0.00195312V8.00195M43 0.00195312V5.00195M46 0.00195312V5.00195M49 0.00195312V5.00195M52.5 0.00195312V8.00195M55.5 0.00195312V5.00195M58.5 0.00195312V5.00195M61.5 0.00195312V5.00195M65 0.00195312V8.00195M68 0.00195312V5.00195M71 0.00195312V5.00195M74 0.00195312V5.00195M77.5 0.00195312V8.00195M80.5 0.00195312V5.00195M83.5 0.00195312V5.00195M86.5 0.00195312V5.00195M90 0.00195312V8.00195M93 0.00195312V5.00195M96 0.00195312V5.00195M99 0.00195312V5.00195M102.5 0.00195312V8.00195M105.5 0.00195312V5.00195M108.5 0.00195312V5.00195M111.5 0.00195312V5.00195M115 0.00195312V8.00195M118 0.00195312V5.00195M121 0.00195312V5.00195M124 0.00195312V5.00195M127.5 0.00195312V8.00195M130.5 0.00195312V5.00195M133.5 0.00195312V5.00195M136.5 0.00195312V5.00195M140 0.00195312V8.00195M143 0.00195312V5.00195M146 0.00195312V5.00195M149 0.00195312V5.00195M152.5 0.00195312V8.00195M155.5 0.00195312V5.00195M158.5 0.00195312V5.00195M161.5 0.00195312V5.00195M165 0.00195312V8.00195M168 0.00195312V5.00195M171 0.00195312V5.00195M174 0.00195312V5.00195M177.5 0.00195312V8.00195M180.5 0.00195312V5.00195M183.5 0.00195312V5.00195M186.5 0.00195312V5.00195M190 0.00195312V8.00195M193 0.00195312V5.00195M196 0.00195312V5.00195M199 0.00195312V5.00195M202.5 0.00195312V8.00195M205.5 0.00195312V5.00195M208.5 0.00195312V5.00195M211.5 0.00195312V5.00195M215 0.00195312V8.00195M218 0.00195312V5.00195M221 0.00195312V5.00195M224 0.00195312V5.00195M227.5 0.00195312V8.00195M230.5 0.00195312V5.00195M233.5 0.00195312V5.00195M236.5 0.00195312V5.00195M240 0.00195312V8.00195M243 0.00195312V5.00195M246 0.00195312V5.00195M249 0.00195312V5.00195M252.5 0.00195312V8.00195M255.5 0.00195312V5.00195M258.5 0.00195312V5.00195M261.5 0.00195312V5.00195M265 0.00195312V8.00195M268 0.00195312V5.00195M271 0.00195312V5.00195M274 0.00195312V5.00195M277.5 0.00195312V8.00195" stroke="#D0C1E8" stroke-width="0.5"/>
</svg>
