<svg width="297" height="227" viewBox="0 0 297 227" fill="none" xmlns="http://www.w3.org/2000/svg">
<g style="mix-blend-mode:multiply" opacity="0.2">
<path d="M49.8177 104.846L0 133.58L161.094 226.458H183.538L49.8177 104.846Z" fill="#7F647E"/>
</g>
<path d="M183.538 226.459L25.1631 135.155V128.479L183.538 219.784V226.459Z" fill="#CBC7BC"/>
<path d="M296.999 161.022L183.537 226.46V219.784L296.999 154.371V161.022Z" fill="#EEE8DE"/>
<path d="M183.538 219.784L25.1631 128.48L138.651 63.0664L297 154.371L183.538 219.784Z" fill="#F7F5ED"/>
<path d="M181.504 220.24L23.1299 128.936L136.618 63.4971L294.967 154.801L181.504 220.24Z" fill="#F7F5ED"/>
<path d="M183.538 220.24L25.1631 128.935V125.559L183.538 216.889V220.24Z" fill="#CBC7BC"/>
<path d="M296.999 154.802L183.537 220.24V216.89L296.999 151.451V154.802Z" fill="#EEE8DE"/>
<path d="M183.538 216.889L25.1631 125.559L138.651 60.1464L297 151.451L183.538 216.889Z" fill="#F7F5ED"/>
<path d="M183.512 217.676L25.1377 126.347L138.625 60.9336L296.975 152.238L183.512 217.676Z" fill="#F7F5ED"/>
<path d="M183.538 216.889L25.1631 125.559V119.924L183.538 211.228V216.889Z" fill="#CBC7BC"/>
<path d="M296.999 151.451L183.537 216.889V211.229L296.999 145.79V151.451Z" fill="#EEE8DE"/>
<path d="M183.538 211.228L25.1631 119.924L138.651 54.4854L297 145.79L183.538 211.228Z" fill="#F7F5ED"/>
<path d="M182.597 212.447L24.2227 121.117L137.71 55.7041L296.06 147.008L182.597 212.447Z" fill="#F7F5ED"/>
<path d="M183.538 211.228L25.1631 119.924V114.264L183.538 205.593V211.228Z" fill="#CBC7BC"/>
<path d="M296.999 145.79L183.537 211.229V205.594L296.999 140.155V145.79Z" fill="#EEE8DE"/>
<path d="M183.538 205.593L25.1631 114.264L138.651 48.8506L297 140.155L183.538 205.593Z" fill="#F7F5ED"/>
<path d="M74.4724 128.708L72.7186 129.698L71.8799 129.216L73.6337 128.2L74.4724 128.708Z" fill="#CBC7BC"/>
<path d="M78.1324 126.575L75.5907 128.047L74.752 127.565L77.2937 126.093L78.1324 126.575Z" fill="#CBC7BC"/>
<path d="M86.266 121.88L79.2763 125.916L78.4375 125.433L85.4272 121.397L86.266 121.88Z" fill="#CBC7BC"/>
<path d="M90.1795 119.645L87.4091 121.245L86.5703 120.762L89.3408 119.163L90.1795 119.645Z" fill="#CBC7BC"/>
<path d="M90.46 118.503L91.2987 118.985L95.7976 116.396L94.9588 115.914L90.46 118.503Z" fill="#CBC7BC"/>
<path d="M99.4576 114.289L96.9413 115.736L96.1025 115.254L98.6188 113.807L99.4576 114.289Z" fill="#CBC7BC"/>
<path d="M102.711 112.411L100.576 113.63L99.7373 113.147L101.872 111.929L102.711 112.411Z" fill="#CBC7BC"/>
<path d="M78.92 128.759L75.0058 131.018L74.167 130.535L78.0812 128.276L78.92 128.759Z" fill="#CBC7BC"/>
<path d="M82.5797 126.651L80.038 128.123L79.1992 127.616L81.7409 126.169L82.5797 126.651Z" fill="#CBC7BC"/>
<path d="M86.8252 124.189L83.7243 125.991L82.8855 125.509L85.9864 123.707L86.8252 124.189Z" fill="#CBC7BC"/>
<path d="M89.875 122.437L87.9687 123.554L87.1045 123.072L89.0362 121.955L89.875 122.437Z" fill="#CBC7BC"/>
<path d="M90.1807 121.295L91.0194 121.777L96.5604 118.579L95.7216 118.097L90.1807 121.295Z" fill="#CBC7BC"/>
<path d="M99.9153 116.65L97.704 117.919L96.8652 117.437L99.0765 116.168L99.9153 116.65Z" fill="#CBC7BC"/>
<path d="M106.955 112.589L101.033 116.015L100.194 115.533L106.117 112.106L106.955 112.589Z" fill="#CBC7BC"/>
<path d="M79.0222 131.322L77.2938 132.337L76.4551 131.855L78.1834 130.84L79.0222 131.322Z" fill="#CBC7BC"/>
<path d="M82.7076 129.215L80.1659 130.687L79.3271 130.179L81.8689 128.732L82.7076 129.215Z" fill="#CBC7BC"/>
<path d="M86.4695 127.032L83.8261 128.555L82.9873 128.073L85.6307 126.55L86.4695 127.032Z" fill="#CBC7BC"/>
<path d="M94.73 122.26L87.6132 126.372L86.7744 125.889L93.8912 121.777L94.73 122.26Z" fill="#CBC7BC"/>
<path d="M95.0349 121.143L95.8737 121.625L100.373 119.01L99.5338 118.528L95.0349 121.143Z" fill="#CBC7BC"/>
<path d="M104.007 116.929L101.517 118.375L100.652 117.893L103.169 116.446L104.007 116.929Z" fill="#CBC7BC"/>
<path d="M107.286 115.025L105.151 116.269L104.312 115.787L106.447 114.543L107.286 115.025Z" fill="#CBC7BC"/>
<path d="M83.4698 131.398L79.581 133.657L78.7422 133.15L82.631 130.916L83.4698 131.398Z" fill="#CBC7BC"/>
<path d="M87.1559 129.265L84.6142 130.738L83.7754 130.255L86.3171 128.783L87.1559 129.265Z" fill="#CBC7BC"/>
<path d="M91.3996 126.829L88.2733 128.631L87.4346 128.149L90.5609 126.347L91.3996 126.829Z" fill="#CBC7BC"/>
<path d="M94.4502 125.078L92.5185 126.169L91.6797 125.687L93.6114 124.596L94.4502 125.078Z" fill="#CBC7BC"/>
<path d="M94.7295 123.936L95.5683 124.418L101.135 121.22L100.296 120.737L94.7295 123.936Z" fill="#CBC7BC"/>
<path d="M104.465 119.29L102.279 120.559L101.44 120.077L103.626 118.808L104.465 119.29Z" fill="#CBC7BC"/>
<path d="M112.09 114.898L105.608 118.63L104.77 118.147L111.251 114.416L112.09 114.898Z" fill="#CBC7BC"/>
<path d="M83.5964 133.962L81.8681 134.952L81.0293 134.469L82.7577 133.479L83.5964 133.962Z" fill="#CBC7BC"/>
<path d="M87.2828 131.854L84.7411 133.301L83.9023 132.819L86.4441 131.347L87.2828 131.854Z" fill="#CBC7BC"/>
<path d="M95.9248 126.854L88.4013 131.195L87.5625 130.713L95.086 126.372L95.9248 126.854Z" fill="#CBC7BC"/>
<path d="M99.3046 124.9L95.5429 127.083L94.7041 126.601L98.4659 124.418L99.3046 124.9Z" fill="#CBC7BC"/>
<path d="M99.6104 123.757L100.449 124.265L104.948 121.65L104.109 121.168L99.6104 123.757Z" fill="#CBC7BC"/>
<path d="M108.582 119.544L106.065 121.016L105.227 120.534L107.743 119.062L108.582 119.544Z" fill="#CBC7BC"/>
<path d="M111.861 117.665L109.7 118.909L108.861 118.426L111.022 117.183L111.861 117.665Z" fill="#CBC7BC"/>
<path d="M88.045 134.038L84.1562 136.272L83.292 135.789L87.2062 133.53L88.045 134.038Z" fill="#CBC7BC"/>
<path d="M91.7311 131.905L89.1894 133.377L88.3506 132.895L90.8923 131.423L91.7311 131.905Z" fill="#CBC7BC"/>
<path d="M94.1959 130.484L92.8488 131.246L92.01 130.763L93.3571 130.002L94.1959 130.484Z" fill="#CBC7BC"/>
<path d="M99.0253 127.692L95.3144 129.85L94.4756 129.342L98.1865 127.21L99.0253 127.692Z" fill="#CBC7BC"/>
<path d="M99.3047 126.575L100.143 127.058L105.71 123.859L104.871 123.352L99.3047 126.575Z" fill="#CBC7BC"/>
<path d="M109.039 121.93L106.828 123.199L105.989 122.716L108.201 121.447L109.039 121.93Z" fill="#CBC7BC"/>
<path d="M117.224 117.209L110.183 121.27L109.345 120.788L116.36 116.727L117.224 117.209Z" fill="#CBC7BC"/>
<path d="M107.743 109.492L103.829 111.751L102.99 111.269L106.904 109.01L107.743 109.492Z" fill="#CBC7BC"/>
<path d="M111.429 107.386L108.888 108.858L108.049 108.376L110.591 106.903L111.429 107.386Z" fill="#CBC7BC"/>
<path d="M119.689 102.639L112.547 106.725L111.708 106.243L118.825 102.131L119.689 102.639Z" fill="#CBC7BC"/>
<path d="M124.976 99.5673L120.808 101.979L119.969 101.496L124.137 99.085L124.976 99.5673Z" fill="#CBC7BC"/>
<path d="M125.281 98.4251L126.12 98.9074L130.06 96.6483L129.221 96.166L125.281 98.4251Z" fill="#CBC7BC"/>
<path d="M133.694 94.5409L131.178 95.9877L130.339 95.5054L132.855 94.0586L133.694 94.5409Z" fill="#CBC7BC"/>
<path d="M112.192 109.568L108.074 111.954L107.235 111.472L111.353 109.086L112.192 109.568Z" fill="#CBC7BC"/>
<path d="M115.877 107.462L113.335 108.934L112.496 108.426L115.038 106.979L115.877 107.462Z" fill="#CBC7BC"/>
<path d="M120.121 104.999L116.995 106.801L116.156 106.319L119.257 104.517L120.121 104.999Z" fill="#CBC7BC"/>
<path d="M124.697 102.359L121.24 104.365L120.401 103.882L123.858 101.877L124.697 102.359Z" fill="#CBC7BC"/>
<path d="M124.977 101.243L125.815 101.725L129.297 99.7196L128.459 99.2373L124.977 101.243Z" fill="#CBC7BC"/>
<path d="M134.151 96.9022L130.415 99.0598L129.576 98.5775L133.313 96.4199L134.151 96.9022Z" fill="#CBC7BC"/>
<path d="M112.318 112.132L108.404 114.391L107.565 113.909L111.48 111.649L112.318 112.132Z" fill="#CBC7BC"/>
<path d="M115.978 110.025L113.436 111.472L112.598 110.99L115.139 109.543L115.978 110.025Z" fill="#CBC7BC"/>
<path d="M121.19 107.029L117.123 109.364L116.284 108.882L120.351 106.547L121.19 107.029Z" fill="#CBC7BC"/>
<path d="M129.551 102.207L122.308 106.37L121.469 105.887L128.713 101.725L129.551 102.207Z" fill="#CBC7BC"/>
<path d="M129.831 101.065L130.67 101.547L134.609 99.2879L133.771 98.7803L129.831 101.065Z" fill="#CBC7BC"/>
<path d="M138.27 97.1805L135.754 98.6274L134.915 98.1451L137.431 96.6982L138.27 97.1805Z" fill="#CBC7BC"/>
<path d="M116.766 112.208L113.208 114.264L112.369 113.781L115.928 111.725L116.766 112.208Z" fill="#CBC7BC"/>
<path d="M120.427 110.076L117.886 111.548L117.047 111.066L119.589 109.594L120.427 110.076Z" fill="#CBC7BC"/>
<path d="M125.637 107.081L121.57 109.441L120.732 108.959L124.798 106.599L125.637 107.081Z" fill="#CBC7BC"/>
<path d="M129.246 104.999L126.78 106.446L125.941 105.938L128.407 104.517L129.246 104.999Z" fill="#CBC7BC"/>
<path d="M129.552 103.857L130.39 104.339L133.847 102.359L133.008 101.877L129.552 103.857Z" fill="#CBC7BC"/>
<path d="M138.727 99.5417L134.991 101.699L134.152 101.217L137.888 99.0594L138.727 99.5417Z" fill="#CBC7BC"/>
<path d="M116.868 114.771L112.979 117.03L112.141 116.548L116.029 114.289L116.868 114.771Z" fill="#CBC7BC"/>
<path d="M120.553 112.665L118.012 114.112L117.173 113.629L119.715 112.157L120.553 112.665Z" fill="#CBC7BC"/>
<path d="M126.959 108.959L121.697 112.005L120.833 111.523L126.12 108.477L126.959 108.959Z" fill="#CBC7BC"/>
<path d="M121.342 114.848L118.317 116.574L117.479 116.091L120.503 114.365L121.342 114.848Z" fill="#CBC7BC"/>
<path d="M125.002 112.716L122.46 114.188L121.621 113.706L124.163 112.233L125.002 112.716Z" fill="#CBC7BC"/>
<path d="M127.874 111.066L126.145 112.082L125.307 111.574L127.035 110.584L127.874 111.066Z" fill="#CBC7BC"/>
<path d="M152.681 83.6004L147.089 86.8241L146.225 86.3419L151.842 83.1182L152.681 83.6004Z" fill="#CBC7BC"/>
<path d="M157.409 80.8591L153.799 82.9406L152.961 82.4583L156.57 80.3768L157.409 80.8591Z" fill="#CBC7BC"/>
<path d="M157.714 79.7426L158.553 80.2249L162.086 78.1688L161.247 77.6865L157.714 79.7426Z" fill="#CBC7BC"/>
<path d="M165.719 76.0614L163.203 77.5336L162.364 77.026L164.881 75.5791L165.719 76.0614Z" fill="#CBC7BC"/>
<path d="M168.262 74.6151L166.864 75.4274L166.025 74.9451L167.449 74.1328L168.262 74.6151Z" fill="#CBC7BC"/>
<path d="M152.554 86.3163L149.428 88.0931L148.589 87.6108L151.715 85.834L152.554 86.3163Z" fill="#CBC7BC"/>
<path d="M157.129 83.6766L153.672 85.6565L152.833 85.1742L156.29 83.1943L157.129 83.6766Z" fill="#CBC7BC"/>
<path d="M157.408 82.5346L158.247 83.0169L161.322 81.2401L160.484 80.7578L157.408 82.5346Z" fill="#CBC7BC"/>
<path d="M166.178 78.4481L162.441 80.6057L161.603 80.098L165.339 77.9658L166.178 78.4481Z" fill="#CBC7BC"/>
<path d="M170.549 75.9344L167.321 77.7874L166.482 77.3051L169.71 75.4268L170.549 75.9344Z" fill="#CBC7BC"/>
<path d="M152.503 88.9823L151.639 89.4646L150.8 88.9823L151.664 88.4746L152.503 88.9823Z" fill="#CBC7BC"/>
<path d="M161.984 83.4989L153.622 88.3217L152.783 87.8394L161.145 83.0166L161.984 83.4989Z" fill="#CBC7BC"/>
<path d="M162.264 82.357L163.102 82.8393L166.661 80.8086L165.797 80.3263L162.264 82.357Z" fill="#CBC7BC"/>
<path d="M170.295 78.702L167.779 80.1489L166.94 79.6666L169.457 78.2197L170.295 78.702Z" fill="#CBC7BC"/>
<path d="M172.837 77.2294L171.414 78.067L170.575 77.5593L171.999 76.7471L172.837 77.2294Z" fill="#CBC7BC"/>
<path d="M157.104 88.9315L154.003 90.7337L153.164 90.2514L156.265 88.4492L157.104 88.9315Z" fill="#CBC7BC"/>
<path d="M161.704 86.2909L158.247 88.2962L157.408 87.8139L160.84 85.8086L161.704 86.2909Z" fill="#CBC7BC"/>
<path d="M161.983 85.1753L162.822 85.6576L165.898 83.8807L165.059 83.3984L161.983 85.1753Z" fill="#CBC7BC"/>
<path d="M170.753 81.0626L167.017 83.2202L166.178 82.7379L169.914 80.5803L170.753 81.0626Z" fill="#CBC7BC"/>
<path d="M175.124 78.5497L171.896 80.428L171.058 79.9458L174.286 78.0674L175.124 78.5497Z" fill="#CBC7BC"/>
<path d="M162.264 88.6014L156.215 92.1043L155.376 91.6221L161.4 88.1191L162.264 88.6014Z" fill="#CBC7BC"/>
<path d="M166.559 86.1385L163.382 87.9661L162.543 87.4839L165.72 85.6562L166.559 86.1385Z" fill="#CBC7BC"/>
<path d="M166.839 84.9965L167.678 85.4788L171.211 83.4481L170.372 82.9658L166.839 84.9965Z" fill="#CBC7BC"/>
<path d="M160.129 92.4598L158.578 93.3736L157.714 92.8913L159.29 91.9775L160.129 92.4598Z" fill="#CBC7BC"/>
<path d="M166.254 88.9315L161.247 91.8252L160.408 91.3429L165.415 88.4492L166.254 88.9315Z" fill="#CBC7BC"/>
<path d="M166.56 87.7894L167.398 88.2717L171.414 85.9618L170.575 85.4795L166.56 87.7894Z" fill="#CBC7BC"/>
<path d="M93.1289 139.47L91.4005 140.46L90.5618 139.977L92.2901 138.962L93.1289 139.47Z" fill="#CBC7BC"/>
<path d="M96.8141 137.338L94.2724 138.81L93.4336 138.328L95.9753 136.855L96.8141 137.338Z" fill="#CBC7BC"/>
<path d="M104.948 132.667L97.9325 136.677L97.0938 136.195L104.109 132.159L104.948 132.667Z" fill="#CBC7BC"/>
<path d="M108.836 130.408L106.065 132.007L105.227 131.525L107.997 129.926L108.836 130.408Z" fill="#CBC7BC"/>
<path d="M109.142 129.266L109.98 129.748L114.479 127.159L113.64 126.677L109.142 129.266Z" fill="#CBC7BC"/>
<path d="M118.113 125.052L115.597 126.498L114.758 126.016L117.274 124.569L118.113 125.052Z" fill="#CBC7BC"/>
<path d="M121.393 123.174L119.258 124.417L118.419 123.91L120.554 122.691L121.393 123.174Z" fill="#CBC7BC"/>
<path d="M97.5772 139.52L93.6884 141.779L92.8496 141.297L96.7384 139.038L97.5772 139.52Z" fill="#CBC7BC"/>
<path d="M101.262 137.414L98.7206 138.886L97.8818 138.404L100.424 136.932L101.262 137.414Z" fill="#CBC7BC"/>
<path d="M105.507 134.951L102.381 136.753L101.542 136.271L104.668 134.469L105.507 134.951Z" fill="#CBC7BC"/>
<path d="M108.557 133.2L106.625 134.317L105.786 133.835L107.718 132.718L108.557 133.2Z" fill="#CBC7BC"/>
<path d="M108.836 132.058L109.675 132.54L115.241 129.342L114.403 128.859L108.836 132.058Z" fill="#CBC7BC"/>
<path d="M118.571 127.412L116.359 128.707L115.521 128.199L117.732 126.93L118.571 127.412Z" fill="#CBC7BC"/>
<path d="M125.637 123.351L119.715 126.778L118.876 126.296L124.798 122.869L125.637 123.351Z" fill="#CBC7BC"/>
<path d="M126.425 120.28L122.511 122.514L121.672 122.032L125.586 119.798L126.425 120.28Z" fill="#CBC7BC"/>
<path d="M130.086 118.148L127.544 119.62L126.705 119.138L129.247 117.665L130.086 118.148Z" fill="#CBC7BC"/>
<path d="M138.346 113.401L131.229 117.488L130.391 117.006L137.507 112.919L138.346 113.401Z" fill="#CBC7BC"/>
<path d="M143.658 110.33L139.489 112.741L138.625 112.259L142.819 109.848L143.658 110.33Z" fill="#CBC7BC"/>
<path d="M143.938 109.187L144.776 109.669L148.716 107.41L147.877 106.928L143.938 109.187Z" fill="#CBC7BC"/>
<path d="M152.376 105.304L149.859 106.75L149.021 106.268L151.537 104.821L152.376 105.304Z" fill="#CBC7BC"/>
<path d="M130.873 120.331L126.756 122.717L125.917 122.234L130.035 119.848L130.873 120.331Z" fill="#CBC7BC"/>
<path d="M134.533 118.223L131.991 119.696L131.152 119.188L133.694 117.741L134.533 118.223Z" fill="#CBC7BC"/>
<path d="M138.778 115.762L135.677 117.564L134.838 117.082L137.939 115.279L138.778 115.762Z" fill="#CBC7BC"/>
<path d="M143.353 113.122L139.922 115.127L139.083 114.645L142.514 112.639L143.353 113.122Z" fill="#CBC7BC"/>
<path d="M143.658 112.005L144.497 112.488L147.954 110.482L147.115 110L143.658 112.005Z" fill="#CBC7BC"/>
<path d="M152.834 107.664L149.098 109.822L148.259 109.339L151.995 107.182L152.834 107.664Z" fill="#CBC7BC"/>
<path d="M171.338 94.3641L165.746 97.5878L164.907 97.1055L170.499 93.8818L171.338 94.3641Z" fill="#CBC7BC"/>
<path d="M176.09 91.6219L172.48 93.7034L171.642 93.2211L175.251 91.1396L176.09 91.6219Z" fill="#CBC7BC"/>
<path d="M176.37 90.5053L177.209 90.9876L180.742 88.9315L179.903 88.4492L176.37 90.5053Z" fill="#CBC7BC"/>
<path d="M184.402 86.8495L181.886 88.2963L181.047 87.814L183.563 86.3672L184.402 86.8495Z" fill="#CBC7BC"/>
<path d="M186.944 85.3778L185.52 86.1901L184.682 85.7078L186.105 84.8955L186.944 85.3778Z" fill="#CBC7BC"/>
<path d="M171.21 97.0799L168.109 98.8568L167.271 98.3745L170.371 96.5977L171.21 97.0799Z" fill="#CBC7BC"/>
<path d="M175.811 94.4393L172.354 96.4192L171.49 95.9369L174.947 93.957L175.811 94.4393Z" fill="#CBC7BC"/>
<path d="M176.091 93.2974L176.93 93.7796L179.98 92.0028L179.141 91.5205L176.091 93.2974Z" fill="#CBC7BC"/>
<path d="M102.558 144.902L100.83 145.892L99.9912 145.41L101.72 144.395L102.558 144.902Z" fill="#CBC7BC"/>
<path d="M106.244 142.769L103.702 144.242L102.838 143.759L105.38 142.287L106.244 142.769Z" fill="#CBC7BC"/>
<path d="M114.352 138.074L107.362 142.11L106.523 141.628L113.513 137.592L114.352 138.074Z" fill="#CBC7BC"/>
<path d="M118.266 135.84L115.496 137.439L114.657 136.957L117.428 135.358L118.266 135.84Z" fill="#CBC7BC"/>
<path d="M118.546 134.698L119.41 135.18L123.884 132.591L123.045 132.108L118.546 134.698Z" fill="#CBC7BC"/>
<path d="M127.544 130.484L125.027 131.931L124.188 131.449L126.705 130.002L127.544 130.484Z" fill="#CBC7BC"/>
<path d="M130.822 128.605L128.662 129.849L127.823 129.341L129.958 128.123L130.822 128.605Z" fill="#CBC7BC"/>
<path d="M107.006 144.953L103.092 147.212L102.253 146.73L106.167 144.471L107.006 144.953Z" fill="#CBC7BC"/>
<path d="M110.692 142.845L108.15 144.318L107.286 143.835L109.853 142.363L110.692 142.845Z" fill="#CBC7BC"/>
<path d="M114.911 140.384L111.81 142.186L110.972 141.704L114.073 139.901L114.911 140.384Z" fill="#CBC7BC"/>
<path d="M117.987 138.632L116.056 139.749L115.217 139.266L117.148 138.149L117.987 138.632Z" fill="#CBC7BC"/>
<path d="M118.267 137.489L119.105 137.972L124.672 134.773L123.833 134.291L118.267 137.489Z" fill="#CBC7BC"/>
<path d="M128.001 132.844L125.79 134.139L124.951 133.631L127.162 132.362L128.001 132.844Z" fill="#CBC7BC"/>
<path d="M135.041 128.783L129.119 132.21L128.28 131.728L134.202 128.301L135.041 128.783Z" fill="#CBC7BC"/>
<path d="M107.134 147.516L105.38 148.532L104.541 148.05L106.295 147.034L107.134 147.516Z" fill="#CBC7BC"/>
<path d="M110.794 145.409L108.252 146.881L107.413 146.374L109.955 144.927L110.794 145.409Z" fill="#CBC7BC"/>
<path d="M114.555 143.226L111.937 144.749L111.099 144.267L113.717 142.744L114.555 143.226Z" fill="#CBC7BC"/>
<path d="M122.841 138.479L115.699 142.591L114.86 142.109L122.003 137.972L122.841 138.479Z" fill="#CBC7BC"/>
<path d="M123.121 137.338L123.96 137.82L128.459 135.231L127.62 134.749L123.121 137.338Z" fill="#CBC7BC"/>
<path d="M132.118 133.124L129.602 134.571L128.763 134.088L131.254 132.642L132.118 133.124Z" fill="#CBC7BC"/>
<path d="M135.372 131.246L133.237 132.464L132.398 131.982L134.533 130.738L135.372 131.246Z" fill="#CBC7BC"/>
<path d="M111.581 147.593L107.667 149.852L106.828 149.369L110.742 147.11L111.581 147.593Z" fill="#CBC7BC"/>
<path d="M115.242 145.461L112.7 146.933L111.861 146.451L114.403 144.979L115.242 145.461Z" fill="#CBC7BC"/>
<path d="M119.487 143.023L116.386 144.826L115.547 144.343L118.648 142.541L119.487 143.023Z" fill="#CBC7BC"/>
<path d="M122.536 141.272L120.604 142.389L119.766 141.907L121.697 140.79L122.536 141.272Z" fill="#CBC7BC"/>
<path d="M122.842 140.13L123.681 140.612L129.222 137.414L128.383 136.932L122.842 140.13Z" fill="#CBC7BC"/>
<path d="M132.576 135.484L130.365 136.753L129.526 136.271L131.738 135.002L132.576 135.484Z" fill="#CBC7BC"/>
<path d="M140.176 131.093L133.694 134.824L132.855 134.342L139.337 130.61L140.176 131.093Z" fill="#CBC7BC"/>
<path d="M111.683 150.156L109.955 151.171L109.116 150.664L110.845 149.674L111.683 150.156Z" fill="#CBC7BC"/>
<path d="M115.369 148.049L112.827 149.496L111.988 149.013L114.53 147.566L115.369 148.049Z" fill="#CBC7BC"/>
<path d="M124.036 143.049L116.487 147.389L115.648 146.907L123.197 142.566L124.036 143.049Z" fill="#CBC7BC"/>
<path d="M127.391 141.094L123.629 143.277L122.79 142.794L126.552 140.611L127.391 141.094Z" fill="#CBC7BC"/>
<path d="M127.696 139.952L128.535 140.46L133.034 137.846L132.195 137.363L127.696 139.952Z" fill="#CBC7BC"/>
<path d="M136.668 135.764L134.151 137.21L133.312 136.728L135.829 135.256L136.668 135.764Z" fill="#CBC7BC"/>
<path d="M139.946 133.86L137.811 135.104L136.947 134.622L139.108 133.378L139.946 133.86Z" fill="#CBC7BC"/>
<path d="M116.132 150.232L112.243 152.466L111.404 151.984L115.293 149.75L116.132 150.232Z" fill="#CBC7BC"/>
<path d="M119.817 148.1L117.275 149.573L116.437 149.09L118.978 147.618L119.817 148.1Z" fill="#CBC7BC"/>
<path d="M122.283 146.679L120.935 147.465L120.097 146.983L121.444 146.196L122.283 146.679Z" fill="#CBC7BC"/>
<path d="M127.111 143.912L123.4 146.044L122.562 145.562L126.272 143.404L127.111 143.912Z" fill="#CBC7BC"/>
<path d="M127.391 142.769L128.229 143.252L133.796 140.053L132.957 139.571L127.391 142.769Z" fill="#CBC7BC"/>
<path d="M137.125 138.124L134.914 139.393L134.075 138.911L136.286 137.642L137.125 138.124Z" fill="#CBC7BC"/>
<path d="M145.31 133.403L138.269 137.465L137.431 136.982L144.471 132.921L145.31 133.403Z" fill="#CBC7BC"/>
<path d="M135.83 125.712L131.941 127.946L131.103 127.463L134.991 125.229L135.83 125.712Z" fill="#CBC7BC"/>
<path d="M139.515 123.58L136.974 125.052L136.135 124.57L138.676 123.098L139.515 123.58Z" fill="#CBC7BC"/>
<path d="M147.776 118.833L140.634 122.92L139.795 122.437L146.937 118.351L147.776 118.833Z" fill="#CBC7BC"/>
<path d="M153.087 115.762L148.893 118.173L148.055 117.691L152.249 115.279L153.087 115.762Z" fill="#CBC7BC"/>
<path d="M153.367 114.619L154.206 115.102L158.146 112.843L157.307 112.36L153.367 114.619Z" fill="#CBC7BC"/>
<path d="M161.781 110.736L159.265 112.183L158.426 111.701L160.942 110.254L161.781 110.736Z" fill="#CBC7BC"/>
<path d="M140.303 125.763L136.16 128.149L135.321 127.666L139.439 125.28L140.303 125.763Z" fill="#CBC7BC"/>
<path d="M143.963 123.656L141.421 125.128L140.582 124.621L143.124 123.174L143.963 123.656Z" fill="#CBC7BC"/>
<path d="M148.207 121.193L145.106 122.995L144.242 122.513L147.369 120.711L148.207 121.193Z" fill="#CBC7BC"/>
<path d="M152.783 118.554L149.326 120.559L148.488 120.077L151.944 118.071L152.783 118.554Z" fill="#CBC7BC"/>
<path d="M153.088 117.437L153.927 117.919L157.384 115.914L156.545 115.432L153.088 117.437Z" fill="#CBC7BC"/>
<path d="M162.238 113.097L158.502 115.254L157.663 114.772L161.399 112.614L162.238 113.097Z" fill="#CBC7BC"/>
<path d="M140.404 128.326L136.49 130.585L135.651 130.103L139.566 127.844L140.404 128.326Z" fill="#CBC7BC"/>
<path d="M144.089 126.22L141.548 127.692L140.684 127.184L143.225 125.737L144.089 126.22Z" fill="#CBC7BC"/>
<path d="M149.276 123.224L145.209 125.56L144.37 125.077L148.437 122.742L149.276 123.224Z" fill="#CBC7BC"/>
<path d="M157.637 118.401L150.419 122.564L149.555 122.082L156.799 117.919L157.637 118.401Z" fill="#CBC7BC"/>
<path d="M157.942 117.259L158.781 117.741L162.721 115.482L161.882 115L157.942 117.259Z" fill="#CBC7BC"/>
<path d="M166.356 113.376L163.84 114.823L163.001 114.34L165.517 112.894L166.356 113.376Z" fill="#CBC7BC"/>
<path d="M144.853 128.402L141.295 130.458L140.456 129.976L144.014 127.92L144.853 128.402Z" fill="#CBC7BC"/>
<path d="M148.539 126.27L145.997 127.743L145.133 127.26L147.7 125.788L148.539 126.27Z" fill="#CBC7BC"/>
<path d="M153.723 123.275L149.656 125.636L148.818 125.153L152.884 122.793L153.723 123.275Z" fill="#CBC7BC"/>
<path d="M157.358 121.193L154.867 122.64L154.028 122.158L156.519 120.711L157.358 121.193Z" fill="#CBC7BC"/>
<path d="M157.637 120.051L158.476 120.534L161.958 118.554L161.094 118.071L157.637 120.051Z" fill="#CBC7BC"/>
<path d="M166.813 115.736L163.077 117.894L162.238 117.411L165.974 115.254L166.813 115.736Z" fill="#CBC7BC"/>
<path d="M144.98 130.967L141.065 133.226L140.227 132.743L144.141 130.484L144.98 130.967Z" fill="#CBC7BC"/>
<path d="M148.639 128.86L146.098 130.307L145.259 129.825L147.801 128.353L148.639 128.86Z" fill="#CBC7BC"/>
<path d="M155.045 125.154L149.784 128.2L148.945 127.718L154.207 124.672L155.045 125.154Z" fill="#CBC7BC"/>
<path d="M162.212 121.015L156.188 124.493L155.35 124.011L161.373 120.533L162.212 121.015Z" fill="#CBC7BC"/>
<path d="M162.492 119.899L163.331 120.381L167.271 118.097L166.432 117.614L162.492 119.899Z" fill="#CBC7BC"/>
<path d="M170.93 116.015L168.414 117.462L167.575 116.98L170.066 115.533L170.93 116.015Z" fill="#CBC7BC"/>
<path d="M149.428 131.043L146.429 132.769L145.59 132.287L148.589 130.561L149.428 131.043Z" fill="#CBC7BC"/>
<path d="M153.088 128.91L150.546 130.382L149.707 129.9L152.249 128.428L153.088 128.91Z" fill="#CBC7BC"/>
<path d="M155.96 127.261L154.231 128.276L153.393 127.794L155.121 126.778L155.96 127.261Z" fill="#CBC7BC"/>
<path d="M161.907 123.834L157.103 126.601L156.265 126.118L161.068 123.352L161.907 123.834Z" fill="#CBC7BC"/>
<path d="M162.213 122.691L163.052 123.173L166.508 121.168L165.67 120.686L162.213 122.691Z" fill="#CBC7BC"/>
<path d="M171.389 118.376L167.652 120.533L166.813 120.051L170.55 117.894L171.389 118.376Z" fill="#CBC7BC"/>
<path d="M180.767 99.7958L175.175 103.019L174.336 102.537L179.928 99.3135L180.767 99.7958Z" fill="#CBC7BC"/>
<path d="M185.52 97.0545L181.886 99.136L181.047 98.6537L184.682 96.5723L185.52 97.0545Z" fill="#CBC7BC"/>
<path d="M185.8 95.9379L186.639 96.4202L190.172 94.3641L189.333 93.8818L185.8 95.9379Z" fill="#CBC7BC"/>
<path d="M193.806 92.2821L191.315 93.7289L190.477 93.2467L192.967 91.7998L193.806 92.2821Z" fill="#CBC7BC"/>
<path d="M196.373 90.8094L194.95 91.6217L194.111 91.1394L195.535 90.3271L196.373 90.8094Z" fill="#CBC7BC"/>
<path d="M180.64 102.512L177.514 104.288L176.675 103.806L179.801 102.029L180.64 102.512Z" fill="#CBC7BC"/>
<path d="M185.214 99.8719L181.758 101.852L180.919 101.37L184.376 99.3896L185.214 99.8719Z" fill="#CBC7BC"/>
<path d="M185.495 98.729L186.359 99.2113L189.409 97.4344L188.571 96.9521L185.495 98.729Z" fill="#CBC7BC"/>
<path d="M194.289 94.6426L190.552 96.8002L189.714 96.3179L193.45 94.1603L194.289 94.6426Z" fill="#CBC7BC"/>
<path d="M198.662 92.1297L195.408 93.9827L194.569 93.5004L197.823 91.6221L198.662 92.1297Z" fill="#CBC7BC"/>
<path d="M180.59 105.177L179.725 105.659L178.887 105.177L179.751 104.669L180.59 105.177Z" fill="#CBC7BC"/>
<path d="M190.07 99.6942L181.733 104.517L180.869 104.035L189.231 99.2119L190.07 99.6942Z" fill="#CBC7BC"/>
<path d="M190.374 98.5522L191.213 99.0344L194.746 97.0038L193.907 96.5215L190.374 98.5522Z" fill="#CBC7BC"/>
<path d="M198.381 94.8965L195.865 96.3433L195.026 95.861L197.543 94.4142L198.381 94.8965Z" fill="#CBC7BC"/>
<path d="M200.922 93.4237L199.524 94.2613L198.686 93.7791L200.084 92.9414L200.922 93.4237Z" fill="#CBC7BC"/>
<path d="M185.19 105.126L182.089 106.928L181.25 106.446L184.351 104.644L185.19 105.126Z" fill="#CBC7BC"/>
<path d="M189.79 102.486L186.334 104.491L185.495 104.009L188.952 102.004L189.79 102.486Z" fill="#CBC7BC"/>
<path d="M190.07 101.369L190.909 101.851L193.985 100.074L193.146 99.5918L190.07 101.369Z" fill="#CBC7BC"/>
<path d="M198.839 97.2821L195.102 99.4143L194.264 98.932L198 96.7998L198.839 97.2821Z" fill="#CBC7BC"/>
<path d="M203.21 94.744L199.982 96.6224L199.144 96.1401L202.372 94.2617L203.21 94.744Z" fill="#CBC7BC"/>
<path d="M190.349 104.796L184.3 108.299L183.461 107.816L189.51 104.313L190.349 104.796Z" fill="#CBC7BC"/>
<path d="M194.645 102.334L191.468 104.161L190.629 103.679L193.806 101.852L194.645 102.334Z" fill="#CBC7BC"/>
<path d="M194.925 101.192L195.764 101.674L199.322 99.6434L198.458 99.1611L194.925 101.192Z" fill="#CBC7BC"/>
<path d="M188.214 108.654L186.664 109.568L185.825 109.086L187.375 108.172L188.214 108.654Z" fill="#CBC7BC"/>
<path d="M194.366 105.126L189.333 108.02L188.494 107.537L193.501 104.644L194.366 105.126Z" fill="#CBC7BC"/>
<path d="M194.645 103.984L195.483 104.466L198.533 102.715L197.695 102.232L194.645 103.984Z" fill="#CBC7BC"/>
<path d="M129.424 160.386L127.696 161.376L126.857 160.893L128.586 159.903L129.424 160.386Z" fill="#CBC7BC"/>
<path d="M133.11 158.254L130.568 159.726L129.704 159.244L132.246 157.771L133.11 158.254Z" fill="#CBC7BC"/>
<path d="M141.218 153.583L134.228 157.619L133.39 157.137L140.379 153.101L141.218 153.583Z" fill="#CBC7BC"/>
<path d="M145.132 151.323L142.361 152.922L141.522 152.44L144.293 150.841L145.132 151.323Z" fill="#CBC7BC"/>
<path d="M145.412 150.182L146.276 150.664L150.775 148.075L149.911 147.593L145.412 150.182Z" fill="#CBC7BC"/>
<path d="M154.41 145.968L151.893 147.44L151.054 146.932L153.571 145.485L154.41 145.968Z" fill="#CBC7BC"/>
<path d="M157.689 144.09L155.528 145.333L154.689 144.851L156.85 143.607L157.689 144.09Z" fill="#CBC7BC"/>
<path d="M133.872 160.436L129.958 162.696L129.119 162.213L133.033 159.954L133.872 160.436Z" fill="#CBC7BC"/>
<path d="M137.558 158.33L135.016 159.802L134.152 159.32L136.694 157.847L137.558 158.33Z" fill="#CBC7BC"/>
<path d="M141.777 155.892L138.676 157.669L137.837 157.187L140.938 155.41L141.777 155.892Z" fill="#CBC7BC"/>
<path d="M144.853 154.116L142.921 155.233L142.082 154.751L144.014 153.634L144.853 154.116Z" fill="#CBC7BC"/>
<path d="M145.133 152.999L145.972 153.481L151.538 150.283L150.699 149.775L145.133 152.999Z" fill="#CBC7BC"/>
<path d="M154.867 148.354L152.656 149.624L151.817 149.141L154.029 147.872L154.867 148.354Z" fill="#CBC7BC"/>
<path d="M161.907 144.293L156.011 147.694L155.146 147.212L161.069 143.811L161.907 144.293Z" fill="#CBC7BC"/>
<path d="M133.999 163.025L132.245 164.015L131.406 163.533L133.16 162.543L133.999 163.025Z" fill="#CBC7BC"/>
<path d="M137.66 160.893L135.118 162.366L134.279 161.883L136.821 160.411L137.66 160.893Z" fill="#CBC7BC"/>
<path d="M141.422 158.736L138.804 160.259L137.965 159.752L140.583 158.254L141.422 158.736Z" fill="#CBC7BC"/>
<path d="M149.707 153.964L142.564 158.076L141.726 157.594L148.868 153.481L149.707 153.964Z" fill="#CBC7BC"/>
<path d="M138.447 163.077L134.533 165.336L133.694 164.854L137.609 162.595L138.447 163.077Z" fill="#CBC7BC"/>
<path d="M142.108 160.97L139.566 162.442L138.728 161.96L141.269 160.487L142.108 160.97Z" fill="#CBC7BC"/>
<path d="M146.352 158.533L143.251 160.31L142.412 159.828L145.513 158.025L146.352 158.533Z" fill="#CBC7BC"/>
<path d="M149.402 156.756L147.471 157.873L146.632 157.39L148.564 156.273L149.402 156.756Z" fill="#CBC7BC"/>
<path d="M149.707 155.613L150.546 156.096L156.087 152.897L155.248 152.415L149.707 155.613Z" fill="#CBC7BC"/>
<path d="M162.721 141.196L158.807 143.455L157.968 142.973L161.857 140.714L162.721 141.196Z" fill="#CBC7BC"/>
<path d="M166.381 139.063L163.84 140.536L163.001 140.053L165.543 138.581L166.381 139.063Z" fill="#CBC7BC"/>
<path d="M174.642 134.317L167.5 138.429L166.661 137.947L173.803 133.835L174.642 134.317Z" fill="#CBC7BC"/>
<path d="M179.954 131.245L175.76 133.656L174.921 133.174L179.115 130.763L179.954 131.245Z" fill="#CBC7BC"/>
<path d="M180.233 130.128L181.072 130.611L185.012 128.326L184.173 127.844L180.233 130.128Z" fill="#CBC7BC"/>
<path d="M188.647 126.245L186.131 127.692L185.292 127.184L187.808 125.737L188.647 126.245Z" fill="#CBC7BC"/>
<path d="M167.168 141.271L163.025 143.632L162.187 143.15L166.304 140.764L167.168 141.271Z" fill="#CBC7BC"/>
<path d="M170.829 139.14L168.287 140.612L167.448 140.129L169.99 138.657L170.829 139.14Z" fill="#CBC7BC"/>
<path d="M175.073 136.703L171.973 138.48L171.108 137.997L174.235 136.22L175.073 136.703Z" fill="#CBC7BC"/>
<path d="M179.649 134.063L176.192 136.043L175.354 135.561L178.81 133.581L179.649 134.063Z" fill="#CBC7BC"/>
<path d="M179.953 132.921L180.792 133.404L184.249 131.398L183.41 130.916L179.953 132.921Z" fill="#CBC7BC"/>
<path d="M189.104 128.605L185.368 130.763L184.529 130.255L188.265 128.123L189.104 128.605Z" fill="#CBC7BC"/>
<path d="M167.271 143.836L163.356 146.069L162.518 145.587L166.432 143.353L167.271 143.836Z" fill="#CBC7BC"/>
<path d="M170.956 141.704L168.414 143.176L167.55 142.694L170.092 141.222L170.956 141.704Z" fill="#CBC7BC"/>
<path d="M176.141 138.708L172.074 141.043L171.235 140.561L175.302 138.226L176.141 138.708Z" fill="#CBC7BC"/>
<path d="M171.718 143.887L168.16 145.943L167.321 145.46L170.88 143.404L171.718 143.887Z" fill="#CBC7BC"/>
<path d="M175.404 141.78L172.862 143.252L171.998 142.745L174.565 141.298L175.404 141.78Z" fill="#CBC7BC"/>
<path d="M180.589 138.784L176.522 141.12L175.684 140.637L179.75 138.302L180.589 138.784Z" fill="#CBC7BC"/>
<path d="M120.503 155.233L118.774 156.248L117.936 155.766L119.664 154.751L120.503 155.233Z" fill="#CBC7BC"/>
<path d="M124.188 153.126L121.646 154.598L120.782 154.09L123.324 152.644L124.188 153.126Z" fill="#CBC7BC"/>
<path d="M132.296 148.431L125.307 152.466L124.468 151.984L131.483 147.948L132.296 148.431Z" fill="#CBC7BC"/>
<path d="M136.211 146.171L133.44 147.77L132.602 147.288L135.372 145.688L136.211 146.171Z" fill="#CBC7BC"/>
<path d="M136.49 145.054L137.354 145.536L141.853 142.922L141.014 142.439L136.49 145.054Z" fill="#CBC7BC"/>
<path d="M145.488 140.841L142.972 142.288L142.133 141.805L144.649 140.359L145.488 140.841Z" fill="#CBC7BC"/>
<path d="M148.767 138.937L146.606 140.18L145.768 139.698L147.928 138.454L148.767 138.937Z" fill="#CBC7BC"/>
<path d="M124.95 155.309L121.061 157.569L120.223 157.086L124.111 154.827L124.95 155.309Z" fill="#CBC7BC"/>
<path d="M128.636 153.177L126.095 154.649L125.23 154.167L127.798 152.694L128.636 153.177Z" fill="#CBC7BC"/>
<path d="M132.856 150.74L129.755 152.542L128.916 152.06L132.017 150.258L132.856 150.74Z" fill="#CBC7BC"/>
<path d="M135.932 148.989L134 150.106L133.161 149.598L135.093 148.507L135.932 148.989Z" fill="#CBC7BC"/>
<path d="M136.211 147.847L137.05 148.329L142.616 145.131L141.777 144.648L136.211 147.847Z" fill="#CBC7BC"/>
<path d="M145.945 143.201L143.734 144.47L142.895 143.988L145.107 142.719L145.945 143.201Z" fill="#CBC7BC"/>
<path d="M152.986 139.14L147.089 142.541L146.225 142.059L152.147 138.657L152.986 139.14Z" fill="#CBC7BC"/>
<path d="M153.8 136.043L149.886 138.302L149.047 137.82L152.936 135.561L153.8 136.043Z" fill="#CBC7BC"/>
<path d="M157.459 133.936L154.918 135.409L154.079 134.926L156.621 133.454L157.459 133.936Z" fill="#CBC7BC"/>
<path d="M165.72 129.164L158.603 133.276L157.739 132.794L164.881 128.682L165.72 129.164Z" fill="#CBC7BC"/>
<path d="M171.032 126.118L166.838 128.529L165.999 128.047L170.193 125.636L171.032 126.118Z" fill="#CBC7BC"/>
<path d="M171.312 124.976L172.15 125.458L176.09 123.199L175.251 122.717L171.312 124.976Z" fill="#CBC7BC"/>
<path d="M179.725 121.092L177.209 122.539L176.37 122.056L178.886 120.61L179.725 121.092Z" fill="#CBC7BC"/>
<path d="M158.247 136.119L154.104 138.48L153.266 137.997L157.383 135.637L158.247 136.119Z" fill="#CBC7BC"/>
<path d="M161.908 133.987L159.366 135.459L158.527 134.977L161.069 133.505L161.908 133.987Z" fill="#CBC7BC"/>
<path d="M166.152 131.551L163.051 133.353L162.187 132.871L165.313 131.068L166.152 131.551Z" fill="#CBC7BC"/>
<path d="M170.727 128.91L167.27 130.89L166.432 130.408L169.888 128.428L170.727 128.91Z" fill="#CBC7BC"/>
<path d="M171.032 127.768L171.871 128.251L175.328 126.271L174.489 125.788L171.032 127.768Z" fill="#CBC7BC"/>
<path d="M180.183 123.453L176.446 125.61L175.607 125.128L179.344 122.971L180.183 123.453Z" fill="#CBC7BC"/>
<path d="M198.712 110.152L193.12 113.376L192.281 112.894L197.873 109.67L198.712 110.152Z" fill="#CBC7BC"/>
<path d="M203.464 107.41L199.855 109.492L198.991 109.009L202.626 106.928L203.464 107.41Z" fill="#CBC7BC"/>
<path d="M203.744 106.268L204.583 106.75L208.116 104.72L207.277 104.237L203.744 106.268Z" fill="#CBC7BC"/>
<path d="M211.751 102.613L209.26 104.06L208.421 103.578L210.912 102.131L211.751 102.613Z" fill="#CBC7BC"/>
<path d="M214.318 101.14L212.894 101.978L212.056 101.496L213.479 100.658L214.318 101.14Z" fill="#CBC7BC"/>
<path d="M198.584 112.843L195.483 114.645L194.645 114.163L197.745 112.36L198.584 112.843Z" fill="#CBC7BC"/>
<path d="M203.16 110.203L199.703 112.208L198.864 111.726L202.321 109.721L203.16 110.203Z" fill="#CBC7BC"/>
<path d="M203.464 109.086L204.303 109.569L207.353 107.792L206.514 107.31L203.464 109.086Z" fill="#CBC7BC"/>
<path d="M57.5446 120.813L50.4023 116.778C50.4023 116.778 50.4023 116.625 50.4023 116.549L53.1728 114.95C53.7279 114.624 54.3589 114.449 55.0029 114.442C55.6367 114.44 56.2597 114.606 56.8075 114.925L57.3667 115.255C58.0529 115.635 58.1546 116.092 57.7225 116.574C58.0787 116.404 58.4719 116.326 58.8663 116.346C59.294 116.374 59.7103 116.496 60.0863 116.701L60.8234 117.133C61.408 117.463 61.6876 117.818 61.6622 118.174C61.6367 118.529 61.3826 118.884 60.798 119.214L57.9258 120.864C57.8641 120.893 57.7953 120.904 57.7277 120.895C57.6602 120.886 57.5966 120.858 57.5446 120.813ZM54.6724 117.717L56.1975 116.854C56.7821 116.498 56.8075 116.168 56.1975 115.838L55.6637 115.534C55.4108 115.368 55.1148 115.279 54.8122 115.279C54.5096 115.279 54.2136 115.368 53.9607 115.534L52.4103 116.422C52.4103 116.422 52.4103 116.422 52.4103 116.549L54.4183 117.717C54.4569 117.739 54.5007 117.751 54.5453 117.751C54.59 117.751 54.6338 117.739 54.6724 117.717ZM58.0275 119.646L59.6542 118.707C60.2388 118.377 60.2642 118.047 59.6542 117.717L58.9171 117.311C58.6553 117.143 58.351 117.054 58.0402 117.054C57.7294 117.054 57.4251 117.143 57.1633 117.311L55.562 118.25L57.7225 119.519C57.7558 119.567 57.8022 119.605 57.8563 119.627C57.9104 119.65 57.9698 119.656 58.0275 119.646Z" fill="#341862" fill-opacity="0.2"/>
<path d="M60.5946 110.609L61.3317 110.203C61.3914 110.162 61.4624 110.139 61.5351 110.139C61.6078 110.139 61.6787 110.162 61.7384 110.203L67.2539 113.376C67.8131 113.715 68.0927 114.07 68.0927 114.442C68.0927 114.798 67.8131 115.153 67.2285 115.483L65.9322 116.244C65.3836 116.561 64.7612 116.727 64.1276 116.727C63.4941 116.727 62.8717 116.561 62.323 116.244L56.8075 113.046C56.6719 113.046 56.6719 112.97 56.8075 112.818L57.5446 112.412C57.6054 112.373 57.6759 112.353 57.7479 112.353C57.8199 112.353 57.8904 112.373 57.9512 112.412L63.3905 115.559C63.6495 115.721 63.949 115.807 64.2547 115.807C64.5604 115.807 64.8599 115.721 65.1189 115.559L66.0593 115.001C66.6524 114.696 66.6524 114.366 66.0593 114.011L60.5946 110.863C60.476 110.779 60.476 110.694 60.5946 110.609Z" fill="#341862" fill-opacity="0.2"/>
<path d="M68.6265 112.488L68.3215 112.31C68.1859 112.31 68.1859 112.234 68.3215 112.082L69.084 111.65C69.141 111.614 69.2071 111.595 69.2746 111.595C69.3421 111.595 69.4082 111.614 69.4652 111.65L69.694 111.777C69.9703 111.946 70.2852 112.042 70.609 112.056C70.9403 112.039 71.2627 111.943 71.5494 111.777L72.3628 111.295C72.6932 111.117 72.8457 110.939 72.8457 110.762C72.8457 110.584 72.6678 110.406 72.312 110.203L72.0578 110.051C71.788 109.898 71.4761 109.836 71.1682 109.873C70.8326 109.893 70.5043 109.979 70.2023 110.127L69.084 110.533L67.8894 110.914C67.4693 110.992 67.0385 110.992 66.6185 110.914C66.1342 110.859 65.6667 110.703 65.246 110.457L64.7631 110.178C64.2039 109.848 63.8989 109.518 63.8989 109.137C63.8989 108.756 64.2039 108.401 64.7631 108.071L66.0085 107.36C66.5632 107.036 67.196 106.87 67.8385 106.878C68.4803 106.876 69.1115 107.042 69.6686 107.36L69.9227 107.513C70.0414 107.513 70.0414 107.589 69.9227 107.741L69.1602 108.173C69.1032 108.209 69.0371 108.228 68.9696 108.228C68.9021 108.228 68.836 108.209 68.779 108.173H68.6265C68.3464 107.991 68.0198 107.895 67.686 107.895C67.3523 107.895 67.0256 107.991 66.7456 108.173L66.0085 108.604C65.6781 108.807 65.5256 108.985 65.5256 109.162C65.5256 109.34 65.7289 109.518 66.0847 109.721L66.4406 109.924C66.6716 110.031 66.9231 110.086 67.1777 110.086C67.4323 110.086 67.6838 110.031 67.9148 109.924C68.2179 109.833 68.515 109.722 68.8044 109.594C69.1589 109.426 69.524 109.282 69.8973 109.162L70.9394 108.909C71.3181 108.846 71.7046 108.846 72.0832 108.909C72.496 108.98 72.8923 109.126 73.2524 109.34L73.7099 109.594C74.2691 109.932 74.5487 110.288 74.5487 110.66C74.5487 111.015 74.2691 111.371 73.7099 111.701L72.3882 112.462C71.8335 112.786 71.2008 112.953 70.5582 112.945C69.8831 112.987 69.2107 112.828 68.6265 112.488Z" fill="#341862" fill-opacity="0.2"/>
<path d="M70.9903 104.873L78.1071 108.959C78.2257 108.959 78.2257 109.036 78.1071 109.188L77.37 109.619C77.3091 109.658 77.2386 109.678 77.1666 109.678C77.0947 109.678 77.0242 109.658 76.9633 109.619L69.8465 105.507C69.7279 105.507 69.7279 105.431 69.8465 105.279L70.5836 104.873C70.6395 104.823 70.7119 104.795 70.7869 104.795C70.862 104.795 70.9343 104.823 70.9903 104.873Z" fill="#341862" fill-opacity="0.2"/>
<path d="M80.9792 107.538L80.2675 107.944C80.2067 107.982 80.1362 108.003 80.0642 108.003C79.9922 108.003 79.9217 107.982 79.8609 107.944L72.7441 103.832C72.6254 103.832 72.6254 103.756 72.7441 103.604L73.4049 103.248C73.5277 103.201 73.6634 103.201 73.7862 103.248L81.6909 104.543L76.7346 101.547C76.7346 101.547 76.6075 101.395 76.7346 101.319L77.4462 100.888C77.5071 100.849 77.5776 100.829 77.6496 100.829C77.7215 100.829 77.792 100.849 77.8529 100.888L84.9697 105C84.9697 105 85.1222 105.152 84.9697 105.228L84.3343 105.583C84.1786 105.642 84.007 105.642 83.8514 105.583L76.0229 104.314L80.9792 107.233C80.9792 107.233 81.1317 107.462 80.9792 107.538Z" fill="#341862" fill-opacity="0.2"/>
<path d="M90.8157 101.852L87.0793 104.086C87.0185 104.124 86.948 104.144 86.876 104.144C86.804 104.144 86.7335 104.124 86.6727 104.086L79.5559 99.9991C79.4372 99.9991 79.4372 99.9229 79.5559 99.7706L83.2922 97.5877C83.3554 97.5563 83.425 97.5401 83.4955 97.5401C83.5661 97.5401 83.6357 97.5563 83.6989 97.5877L84.2835 97.9176C84.4105 97.9176 84.4105 98.0699 84.2835 98.1461L81.6147 99.6945C81.6147 99.6945 81.6147 99.6945 81.6147 99.8468L83.5718 100.964C83.6143 100.988 83.6625 101.001 83.7116 101.001C83.7607 101.001 83.8089 100.988 83.8514 100.964L86.0881 99.6691C86.1477 99.6276 86.2187 99.6054 86.2914 99.6054C86.3641 99.6054 86.4351 99.6276 86.4948 99.6691L87.1048 100.024C87.1048 100.024 87.1048 100.177 87.1048 100.253L84.8681 101.547C84.8681 101.547 84.8681 101.674 84.8681 101.7L86.9523 102.918C86.9899 102.943 87.0341 102.957 87.0793 102.957C87.1246 102.957 87.1688 102.943 87.2064 102.918L89.8752 101.395C89.9322 101.359 89.9984 101.34 90.0659 101.34C90.1334 101.34 90.1995 101.359 90.2565 101.395L90.8665 101.751C90.9428 101.725 90.9428 101.801 90.8157 101.852Z" fill="#341862" fill-opacity="0.2"/>
<path d="M90.5361 99.9229L90.2311 99.7452C90.2311 99.7452 90.2311 99.5929 90.2311 99.5168L90.9682 99.0853C91.0289 99.0045 91.1192 98.9511 91.2193 98.9368C91.3194 98.9225 91.421 98.9485 91.5019 99.0091H91.7053C91.9803 99.1914 92.303 99.2886 92.633 99.2886C92.963 99.2886 93.2858 99.1914 93.5607 99.0091L94.3741 98.5268C94.7045 98.3492 94.8824 98.1461 94.8824 97.9938C94.8824 97.8415 94.7045 97.6384 94.3487 97.4354L94.0437 97.4861C93.7732 97.335 93.4619 97.2728 93.1541 97.3084C92.8143 97.3361 92.4803 97.413 92.1628 97.5369C91.8578 97.6892 91.4765 97.8161 91.0699 97.9684L89.8752 98.3492C89.4467 98.4278 89.0075 98.4278 88.579 98.3492C88.1027 98.2933 87.6437 98.1376 87.2318 97.8923L86.7489 97.613C86.1643 97.2831 85.8847 96.9277 85.8847 96.5723C85.8847 96.2169 86.1643 95.8362 86.7235 95.5062L87.969 94.7955C88.532 94.4663 89.172 94.2912 89.8244 94.2878C90.4607 94.2916 91.0842 94.467 91.629 94.7955L91.8832 94.9478C92.0357 94.9478 92.0357 95.0239 91.8832 95.1762L91.1461 95.6077C91.0852 95.6461 91.0147 95.6664 90.9428 95.6664C90.8708 95.6664 90.8003 95.6461 90.7394 95.6077H90.5869C90.3119 95.4255 89.9892 95.3282 89.6592 95.3282C89.3292 95.3282 89.0064 95.4255 88.7315 95.6077L87.9944 96.0393C87.6639 96.2423 87.486 96.42 87.486 96.5977C87.486 96.7754 87.6894 96.9531 88.0706 97.1561L88.4265 97.3592C88.6575 97.466 88.909 97.5214 89.1636 97.5214C89.4181 97.5214 89.6697 97.466 89.9007 97.3592L90.7648 97.0292L91.7561 96.6485C92.1058 96.5399 92.4625 96.4551 92.8236 96.3946C93.2023 96.3317 93.5888 96.3317 93.9674 96.3946C94.3722 96.4662 94.7601 96.6125 95.1112 96.8261L95.5687 97.08C96.1533 97.41 96.4329 97.7653 96.4329 98.1461C96.4329 98.5268 96.1533 98.8568 95.5687 99.1868L94.2724 99.9483C93.7153 100.267 93.0842 100.433 92.4424 100.431C91.7716 100.446 91.1103 100.269 90.5361 99.9229Z" fill="#341862" fill-opacity="0.2"/>
<path d="M96.9412 96.2423L96.5854 96.0647C96.4498 96.0647 96.4498 95.9885 96.5854 95.8362L97.3225 95.4047C97.3834 95.3664 97.4538 95.346 97.5258 95.346C97.5978 95.346 97.6683 95.3664 97.7292 95.4047H97.9325C98.202 95.6007 98.5268 95.7063 98.8602 95.7063C99.1936 95.7063 99.5184 95.6007 99.7879 95.4047L100.601 94.9478C100.932 94.7447 101.11 94.567 101.11 94.3893C101.11 94.2117 100.932 94.034 100.576 93.8309L100.322 93.6786C100.051 93.5275 99.74 93.4653 99.4321 93.5009C99.089 93.525 98.7532 93.611 98.4408 93.7548L97.3479 94.1863L96.1533 94.567C95.7333 94.6449 95.3025 94.6449 94.8824 94.567C94.3973 94.5154 93.929 94.3596 93.5099 94.1101L93.0778 93.9324C92.4932 93.6025 92.2136 93.2471 92.2136 92.8663C92.2136 92.4856 92.4932 92.1556 93.0778 91.8256L94.2978 91.1149C94.8534 90.7916 95.4849 90.6212 96.1279 90.6212C96.7709 90.6212 97.4024 90.7916 97.9579 91.1149L98.2121 91.2672C98.3646 91.2672 98.3646 91.4195 98.2121 91.4956L97.4496 91.9271C97.3887 91.9655 97.3182 91.9858 97.2462 91.9858C97.1743 91.9858 97.1038 91.9655 97.0429 91.9271C96.7612 91.7459 96.4371 91.6409 96.1025 91.6226C95.7665 91.6333 95.4404 91.7389 95.162 91.9271L94.4249 92.3333C94.0945 92.5364 93.9166 92.714 93.942 92.8917C93.9674 93.0694 94.1199 93.2471 94.5012 93.4755L94.857 93.6786C95.0897 93.7792 95.3406 93.8311 95.5941 93.8311C95.8477 93.8311 96.0985 93.7792 96.3312 93.6786L97.2208 93.3232L98.1867 92.9679C98.533 92.8474 98.8907 92.7623 99.2542 92.714C99.6328 92.6506 100.019 92.6506 100.398 92.714C100.808 92.797 101.202 92.9426 101.567 93.1456L101.999 93.4248C102.584 93.7548 102.863 94.0847 102.863 94.4655C102.863 94.8462 102.584 95.2016 101.999 95.5062L100.703 96.2677C100.151 96.6006 99.5179 96.7762 98.8729 96.7754C98.1928 96.7742 97.5255 96.59 96.9412 96.2423Z" fill="#341862" fill-opacity="0.2"/>
<path d="M106.142 90.9372L105.837 90.7595C105.685 90.7595 105.685 90.6834 105.837 90.5311L106.574 90.0996C106.635 90.0612 106.706 90.0409 106.778 90.0409C106.85 90.0409 106.92 90.0612 106.981 90.0996H107.184C107.462 90.2658 107.776 90.3617 108.099 90.3788C108.435 90.368 108.761 90.2624 109.04 90.0742L109.853 89.6173C110.184 89.4142 110.336 89.2365 110.336 89.0588C110.336 88.8811 110.158 88.7035 109.828 88.5004L109.548 88.3481C109.283 88.2065 108.983 88.1448 108.684 88.1704C108.343 88.2069 108.009 88.2924 107.693 88.4242L106.574 88.8558L105.405 89.2365C104.977 89.3152 104.537 89.3152 104.109 89.2365C103.633 89.1806 103.174 89.0249 102.762 88.7796L102.253 88.5004C101.694 88.1789 101.415 87.8235 101.415 87.4343C101.415 87.0789 101.694 86.7235 102.253 86.3936L103.499 85.6828C104.054 85.3568 104.685 85.1818 105.329 85.1752C105.974 85.1744 106.607 85.35 107.159 85.6828L107.413 85.8097C107.549 85.8097 107.549 85.8859 107.413 86.0382L106.676 86.4697C106.615 86.5081 106.545 86.5284 106.473 86.5284C106.401 86.5284 106.33 86.5081 106.269 86.4697H106.117C105.838 86.2815 105.512 86.1759 105.176 86.1651C104.844 86.1953 104.523 86.2994 104.236 86.4697L103.524 86.9012C103.168 87.0789 103.016 87.2566 103.016 87.4343C103.016 87.612 103.219 87.7896 103.575 88.0181L103.956 88.2212C104.183 88.3293 104.43 88.3854 104.681 88.3854C104.931 88.3854 105.179 88.3293 105.405 88.2212C105.71 88.1248 106.007 88.006 106.295 87.8658C106.618 87.7281 106.949 87.6095 107.286 87.5104C107.632 87.3899 107.99 87.3049 108.354 87.2566C108.724 87.1936 109.102 87.1936 109.472 87.2566C109.883 87.319 110.28 87.4566 110.641 87.6627L111.099 87.942C111.683 88.2719 111.963 88.6273 111.963 88.9827C111.963 89.338 111.683 89.7188 111.099 90.0488L109.802 90.7849C109.247 91.1109 108.616 91.2859 107.972 91.2926C107.341 91.3399 106.709 91.2172 106.142 90.9372Z" fill="#341862" fill-opacity="0.2"/>
<path d="M116.563 87.0281L115.826 87.4343C115.767 87.4758 115.696 87.498 115.623 87.498C115.55 87.498 115.479 87.4758 115.42 87.4343L109.294 83.7791C109.262 83.7522 109.221 83.7375 109.18 83.7375C109.138 83.7375 109.097 83.7522 109.065 83.7791L107.591 84.6167C107.53 84.6551 107.46 84.6754 107.388 84.6754C107.316 84.6754 107.245 84.6551 107.184 84.6167L106.6 84.2867C106.6 84.2867 106.6 84.1344 106.6 84.0583L110.946 81.5199C111.007 81.4816 111.077 81.4613 111.149 81.4613C111.221 81.4613 111.292 81.4816 111.353 81.5199L111.937 81.8499C112.09 81.8499 112.09 82.0022 111.937 82.1038L110.463 82.9414C110.463 82.9414 110.463 82.9414 110.463 83.0937L116.665 86.6728C116.665 86.6728 116.69 86.952 116.563 87.0281Z" fill="#341862" fill-opacity="0.2"/>
<path d="M120.503 84.7436L119.791 85.1752C119.73 85.2135 119.66 85.2338 119.588 85.2338C119.516 85.2338 119.445 85.2135 119.385 85.1752L112.268 81.063C112.115 81.063 112.115 80.9869 112.268 80.8346L114.987 79.2608C115.565 78.8957 116.235 78.702 116.919 78.7024C117.563 78.709 118.194 78.8841 118.749 79.2101L119.715 79.7685C120.63 80.2762 120.808 80.8346 120.3 81.393L124.392 82.2307C124.646 82.2307 124.646 82.3068 124.392 82.4591L123.68 82.8907C123.501 82.964 123.3 82.964 123.121 82.8907L119.181 82.0784L117.987 82.7637C117.987 82.7637 117.987 82.7637 117.987 82.8907L120.528 84.3883C120.664 84.5575 120.655 84.676 120.503 84.7436ZM116.919 82.3576L118.393 81.4946C118.978 81.1646 118.978 80.8346 118.393 80.5046L117.402 79.9208C117.143 79.7586 116.844 79.6726 116.538 79.6726C116.232 79.6726 115.933 79.7586 115.674 79.9208L114.199 80.7838C114.199 80.7838 114.199 80.7838 114.199 80.9361L116.741 82.3576C116.769 82.3695 116.8 82.3756 116.83 82.3756C116.861 82.3756 116.891 82.3695 116.919 82.3576Z" fill="#341862" fill-opacity="0.2"/>
<path d="M126.323 81.393L125.485 81.8753C125.443 81.9128 125.388 81.9335 125.332 81.9335C125.276 81.9335 125.222 81.9128 125.18 81.8753L120.096 76.5956C120.096 76.5956 120.096 76.4179 120.096 76.3163L121.265 75.6564C121.336 75.6186 121.414 75.5988 121.494 75.5988C121.574 75.5988 121.653 75.6186 121.723 75.6564L130.899 78.5755C131.051 78.5755 131.077 78.7024 130.899 78.7785L130.06 79.2608H129.653L127.696 78.6516L125.154 80.1239L126.247 81.2661C126.247 81.2661 126.425 81.2407 126.323 81.393ZM121.85 76.5956L124.544 79.337L126.654 78.1186L122.003 76.5702L121.85 76.5956Z" fill="#341862" fill-opacity="0.2"/>
<path d="M134.381 76.7479L133.644 77.1794C133.583 77.2177 133.512 77.2381 133.44 77.2381C133.368 77.2381 133.298 77.2177 133.237 77.1794L127.086 73.6257C127.052 73.6028 127.012 73.5905 126.972 73.5905C126.931 73.5905 126.891 73.6028 126.857 73.6257L125.358 74.4634C125.297 74.5017 125.226 74.522 125.154 74.522C125.082 74.522 125.012 74.5017 124.951 74.4634L124.366 74.108C124.366 74.108 124.366 73.9557 124.366 73.8795L128.713 71.3412C128.774 71.3029 128.844 71.2825 128.916 71.2825C128.988 71.2825 129.059 71.3029 129.119 71.3412L129.729 71.6712C129.729 71.6712 129.729 71.8489 129.729 71.925L128.255 72.7627C128.255 72.7627 128.255 72.7627 128.255 72.915L134.457 76.494C134.542 76.5956 134.516 76.6802 134.381 76.7479Z" fill="#341862" fill-opacity="0.2"/>
<path d="M141.345 72.7373L137.609 74.8949C137.548 74.9332 137.477 74.9535 137.405 74.9535C137.333 74.9535 137.263 74.9332 137.202 74.8949L130.085 70.7828C130.085 70.7828 129.933 70.6305 130.085 70.5543L133.822 68.3967C133.879 68.3606 133.945 68.3414 134.012 68.3414C134.08 68.3414 134.146 68.3606 134.203 68.3967L134.813 68.7521C134.948 68.7521 134.948 68.8282 134.813 68.9805L132.271 70.5035C132.271 70.5035 132.271 70.5035 132.271 70.6558L134.254 71.7981C134.254 71.7981 134.406 71.7981 134.508 71.7981L136.77 70.5035C136.831 70.4652 136.901 70.4449 136.973 70.4449C137.045 70.4449 137.116 70.4652 137.177 70.5035L137.761 70.8335C137.914 70.8335 137.914 70.9858 137.761 71.0874L135.499 72.3819C135.499 72.3819 135.499 72.3819 135.499 72.5342L137.583 73.7272C137.626 73.7517 137.674 73.7646 137.723 73.7646C137.772 73.7646 137.82 73.7517 137.863 73.7272L140.405 72.1788C140.459 72.1356 140.526 72.112 140.595 72.112C140.665 72.112 140.732 72.1356 140.786 72.1788L141.37 72.5088C141.472 72.585 141.472 72.6611 141.345 72.7373Z" fill="#341862" fill-opacity="0.2"/>
<path d="M145.971 70.072L144.7 70.7828C144.157 71.1148 143.532 71.2905 142.896 71.2905C142.259 71.2905 141.634 71.1148 141.091 70.7828L137.253 68.549C136.694 68.219 136.389 67.8637 136.389 67.5083C136.389 67.1529 136.694 66.7976 137.253 66.4422L138.524 65.7315C139.067 65.3994 139.691 65.2237 140.328 65.2237C140.965 65.2237 141.59 65.3994 142.133 65.7315L142.565 65.9853C142.565 65.9853 142.718 66.1376 142.565 66.2137L141.828 66.6453C141.768 66.6868 141.697 66.709 141.625 66.709C141.552 66.709 141.481 66.6868 141.421 66.6453L141.065 66.4422C140.804 66.2855 140.506 66.2028 140.201 66.2028C139.897 66.2028 139.598 66.2855 139.337 66.4422L138.422 66.9752C137.863 67.3052 137.863 67.6352 138.422 67.9652L142.209 70.1482C142.466 70.3163 142.766 70.4059 143.073 70.4059C143.38 70.4059 143.681 70.3163 143.938 70.1482L144.853 69.6151C145.412 69.2851 145.412 68.9552 144.853 68.6252L143.811 68.016C143.771 67.9977 143.727 67.9883 143.683 67.9883C143.64 67.9883 143.596 67.9977 143.556 68.016L142.616 68.549C142.555 68.5873 142.485 68.6077 142.413 68.6077C142.341 68.6077 142.27 68.5873 142.209 68.549L141.625 68.219C141.472 68.219 141.472 68.1429 141.625 67.9906L143.582 66.8483C143.653 66.8003 143.737 66.7747 143.823 66.7747C143.909 66.7747 143.993 66.8003 144.065 66.8483L146.047 67.9906C146.606 68.2952 146.886 68.6506 146.886 69.0313C146.886 69.4121 146.53 69.742 145.971 70.072Z" fill="#341862" fill-opacity="0.2"/>
<path d="M151.842 66.6706L151.105 67.1022C151.044 67.1405 150.974 67.1608 150.902 67.1608C150.83 67.1608 150.759 67.1405 150.699 67.1022L148.157 65.6045L141.447 64.2592H141.294C141.294 64.2592 141.294 64.2592 141.294 64.1323L142.336 63.4723C142.478 63.4321 142.627 63.4321 142.768 63.4723L147.42 64.513L145.691 61.797C145.691 61.797 145.691 61.6193 145.691 61.5432L146.606 61.0101H146.81C146.859 60.9927 146.913 60.9927 146.962 61.0101L149.301 64.8684L151.842 66.366C151.995 66.4845 151.995 66.586 151.842 66.6706Z" fill="#341862" fill-opacity="0.2"/>
<path d="M202.168 177.088C201.776 176.578 201.314 176.125 200.796 175.743C200.443 175.423 200.027 175.181 199.576 175.032H199.321C199.06 174.995 198.795 174.995 198.533 175.032C198.152 174.118 196.805 173.255 194.518 172.494L193.755 172.265C193.171 172.09 192.559 172.021 191.95 172.062C190.807 172.062 190.857 172.748 190.908 173.001H191.061C191.315 173.001 191.9 173.001 191.849 173.001C191.798 173.001 191.849 172.57 192.281 172.443C192.547 172.368 192.828 172.368 193.094 172.443L193.653 172.621C194.334 172.81 194.997 173.056 195.636 173.357C196.398 173.619 197.057 174.117 197.517 174.778C196.517 174.681 195.507 174.775 194.543 175.058C194.333 174.942 194.112 174.848 193.882 174.778H193.399C192.027 174.778 192.179 175.261 192.077 175.464C191.976 175.667 191.34 176.022 191.061 176.327C190.781 176.631 191.061 177.088 191.264 177.444C191.359 178.059 191.261 178.688 190.985 179.246L189.155 177.469C189.003 177.441 188.848 177.441 188.697 177.469C188.112 176.961 187.477 176.454 186.816 175.971C186.334 175.595 185.824 175.256 185.291 174.956C184.773 174.644 184.218 174.396 183.639 174.22H183.232C180.97 173.814 181.58 174.854 181.682 175.108C182.059 176.027 182.483 176.925 182.953 177.799C183.536 178.951 184.262 180.026 185.113 180.997C185.61 181.582 186.154 182.126 186.74 182.622C187.073 182.893 187.464 183.084 187.884 183.18L188.621 183.333C188.831 183.374 189.046 183.374 189.256 183.333C190.044 183.053 190.044 182.723 190.095 182.368C190.146 181.853 190.146 181.334 190.095 180.82C190.069 180.495 190.018 180.172 189.942 179.855C190.513 180.542 190.898 181.363 191.061 182.241C191.121 182.783 191.053 183.331 190.863 183.842C190.674 184.354 190.367 184.814 189.968 185.186C188.912 186.034 187.679 186.637 186.36 186.948C185.04 187.26 183.668 187.274 182.343 186.988C181.834 186.988 181.58 186.988 181.885 187.216H182.063C188.417 187.876 190.883 185.566 191.595 184.399C191.969 183.741 192.133 182.985 192.065 182.232C191.997 181.479 191.7 180.765 191.213 180.185C191.442 180.185 191.645 180.185 191.696 180.185C192.007 179.759 192.21 179.264 192.29 178.743C192.369 178.222 192.323 177.689 192.154 177.19C192.154 176.86 192.154 176.707 192.586 176.403C192.758 176.302 192.913 176.173 193.043 176.022C193.043 176.022 193.043 175.743 193.043 175.692C193.306 175.597 193.594 175.597 193.857 175.692H194.009C193.602 175.896 193.268 176.219 193.05 176.619C192.832 177.018 192.741 177.474 192.789 177.926C192.789 178.662 193.323 179.423 194.67 180.109C195.297 180.41 195.953 180.648 196.627 180.82C197.689 181.094 198.784 181.222 199.881 181.2C202.422 181.2 202.575 180.49 202.727 179.982C202.902 179.494 202.943 178.968 202.844 178.459C202.746 177.95 202.512 177.476 202.168 177.088ZM188.697 182.774H188.545C187.788 182.569 187.136 182.089 186.714 181.429C186.3 181.056 185.909 180.658 185.545 180.236C184.869 179.383 184.282 178.465 183.791 177.494C183.529 177.034 183.291 176.559 183.08 176.073C183.08 175.819 182.851 175.565 182.749 175.337C182.648 175.108 182.266 174.778 182.444 174.601C182.105 174.364 182.36 174.313 183.207 174.448H183.537C183.946 174.572 184.332 174.761 184.681 175.007C185.339 175.41 185.968 175.86 186.562 176.352C187.223 176.885 187.884 177.418 188.443 177.951C188.74 178.641 188.945 179.366 189.053 180.109C189.091 180.556 189.091 181.007 189.053 181.454C189.18 181.86 189.409 182.368 188.697 182.774ZM197.618 175.159C197.125 175.325 196.668 175.583 196.271 175.921L195.077 175.159C195.898 174.865 196.797 174.865 197.618 175.159ZM201.558 180.236C200.767 180.611 199.889 180.769 199.016 180.693C198.451 180.659 197.889 180.574 197.339 180.439H197.186C196.651 180.309 196.131 180.122 195.636 179.88C194.925 179.599 194.321 179.101 193.908 178.459C193.783 178.215 193.717 177.946 193.717 177.672C193.717 177.398 193.783 177.129 193.908 176.885C194.038 176.577 194.209 176.286 194.416 176.022L194.619 175.819L195.916 176.403C196.181 176.478 196.463 176.478 196.729 176.403L197.873 175.718L198.254 175.159C198.447 175.119 198.646 175.119 198.838 175.159C199.096 175.233 199.337 175.353 199.55 175.514C200.098 175.896 200.594 176.349 201.024 176.86C201.384 177.301 201.628 177.824 201.736 178.383C201.914 178.941 202.143 179.601 201.558 180.033V180.236Z" fill="#CBC7BC"/>
<path d="M236.99 148.328L231.297 151.552L230.458 151.07L236.05 147.846L236.99 148.328ZM240.879 145.105L237.27 147.237L238.109 147.719L241.718 145.638L240.879 145.105ZM242.023 144.47L242.862 144.952L246.395 142.896L245.556 142.414L242.023 144.47ZM235.999 150.562L232.898 152.339L233.737 152.821L236.838 151.044L235.999 150.562ZM240.599 148.024L237.143 150.004L237.981 150.486L241.464 148.405L240.599 148.024ZM241.718 147.237L242.557 147.719L246.954 145.181L246.115 144.699L241.718 147.237Z" fill="#CBC7BC"/>
<path d="M176.725 183.078L171.134 186.302L170.295 185.82L175.887 182.596L176.725 183.078ZM179.089 180.743L177.005 181.936L177.844 182.418L179.928 181.225L179.089 180.743ZM175.76 185.312L172.633 187.114L173.497 187.597L176.598 185.82L175.76 185.312ZM178.784 183.561L176.878 184.678L177.717 185.16L179.648 184.043L178.784 183.561Z" fill="#CBC7BC"/>
<path d="M248.377 139.622C248.377 144.42 255.138 148.303 263.449 148.303C271.761 148.303 278.522 144.42 278.522 139.622C278.522 134.825 271.786 130.916 263.449 130.916C255.113 130.916 248.377 134.799 248.377 139.622ZM277.937 139.622C277.937 144.217 271.456 147.973 263.449 147.973C255.443 147.973 249.089 144.191 249.089 139.622C249.089 135.053 255.57 131.271 263.551 131.271C271.532 131.271 277.937 134.977 277.937 139.622Z" fill="#7676DE"/>
<path d="M253.13 139.622C253.13 142.922 257.756 145.587 263.449 145.587C269.143 145.587 273.794 142.922 273.794 139.622C273.794 136.322 269.168 133.657 263.449 133.657C257.73 133.657 253.13 136.297 253.13 139.622ZM270.236 139.622C270.236 141.78 267.211 143.531 263.449 143.531C259.688 143.531 256.714 141.755 256.714 139.622C256.714 137.49 259.738 135.713 263.475 135.713C267.211 135.713 270.236 137.439 270.236 139.622Z" fill="#7676DE"/>
<path d="M249.876 139.622C249.876 143.937 255.951 147.465 263.449 147.465C270.947 147.465 277.047 143.912 277.047 139.622C277.047 135.332 270.972 131.778 263.449 131.778C255.925 131.778 249.876 135.256 249.876 139.622ZM276.513 139.622C276.513 143.785 270.667 147.237 263.449 147.237C256.23 147.237 250.41 143.886 250.41 139.622C250.41 135.357 256.256 132.007 263.449 132.007C270.642 132.007 276.513 135.434 276.513 139.622Z" fill="#7676DE"/>
<path d="M108.226 0.977763C108.154 1.49902 107.966 1.99751 107.675 2.43671C107.385 2.87592 107 3.24472 106.549 3.51611C105.608 4.04916 104.871 3.71917 104.871 2.80537C104.938 2.28244 105.124 1.78177 105.415 1.34176C105.706 0.901762 106.093 0.534117 106.549 0.267027C107.464 -0.266025 108.226 0.0131928 108.226 0.977763Z" fill="#EEE8DE"/>
<path d="M70.8892 67.6599C70.8353 68.2036 70.6557 68.7273 70.3646 69.1898C70.0735 69.6523 69.6789 70.041 69.2117 70.3252C68.2713 70.8582 67.5342 70.5283 67.5342 69.6145C67.5822 69.0692 67.7594 68.5432 68.051 68.0797C68.3427 67.6163 68.7405 67.2288 69.2117 66.9492C70.1267 66.4161 70.8892 66.7461 70.8892 67.6599Z" fill="#EEE8DE"/>
<path d="M45.1412 96.4706C45.0671 96.9913 44.8782 97.4891 44.5881 97.928C44.298 98.367 43.914 98.7361 43.4637 99.0089C42.5233 99.542 41.7607 99.212 41.7607 98.2982C41.8135 97.7511 41.9954 97.2244 42.2914 96.7611C42.5874 96.2978 42.9892 95.9112 43.4637 95.6329C44.3787 95.2268 45.1412 95.5314 45.1412 96.4706Z" fill="#EEE8DE"/>
<path d="M31.8479 114.899H31.6954C31.6253 114.861 31.5728 114.797 31.549 114.721C31.5253 114.645 31.5322 114.563 31.5683 114.492L36.0417 105.583C36.0914 105.512 36.1627 105.458 36.245 105.431C36.2849 105.412 36.3283 105.403 36.3721 105.403C36.416 105.403 36.4593 105.412 36.4992 105.431L40.2864 107.969L43.2094 97.2571C43.2303 97.1852 43.2751 97.1225 43.3364 97.0794L47.6574 94.4141C47.6857 94.3857 47.7194 94.3632 47.7564 94.3478C47.7935 94.3325 47.8333 94.3245 47.8734 94.3245C47.9135 94.3245 47.9533 94.3325 47.9904 94.3478C48.0274 94.3632 48.0611 94.3857 48.0895 94.4141L52.1308 100.684L52.9187 97.8155C52.9298 97.7766 52.9491 97.7406 52.9754 97.71C53.0018 97.6793 53.0344 97.6547 53.0712 97.6378L55.9179 96.1148L57.9005 89.0582C57.9193 88.9954 57.9578 88.9402 58.0105 88.901C58.0632 88.8618 58.1271 88.8406 58.1928 88.8406C58.2585 88.8406 58.3224 88.8618 58.3751 88.901C58.4277 88.9402 58.4663 88.9954 58.4851 89.0582L61.281 96.0133L68.9061 68.5738C68.9335 68.498 68.9878 68.4348 69.0586 68.3961L75.9213 64.4363C75.9655 64.4175 76.013 64.4077 76.0611 64.4077C76.1091 64.4077 76.1567 64.4175 76.2009 64.4363C76.2434 64.448 76.2822 64.4705 76.3134 64.5016C76.3446 64.5328 76.3671 64.5715 76.3788 64.614L82.1485 78.9049L85.5544 76.9503L106.244 1.86615C106.263 1.80507 106.3 1.75095 106.35 1.71039C106.399 1.66982 106.46 1.64456 106.524 1.6377C106.574 1.65392 106.62 1.68035 106.659 1.7153C106.699 1.75025 106.73 1.79297 106.752 1.84076L123.782 43.9519L134.305 39.0529C134.337 39.026 134.377 39.0113 134.419 39.0113C134.461 39.0113 134.501 39.026 134.533 39.0529C134.576 39.0645 134.615 39.087 134.646 39.1182C134.677 39.1493 134.7 39.1881 134.711 39.2306L139.998 52.2523C140.019 52.3301 140.013 52.4126 139.98 52.4864C139.948 52.5602 139.891 52.6209 139.82 52.6584C139.782 52.6747 139.741 52.6829 139.699 52.6827C139.658 52.6825 139.616 52.6738 139.578 52.6572C139.54 52.6406 139.506 52.6163 139.478 52.586C139.449 52.5556 139.427 52.5198 139.413 52.4807L134.33 39.789L123.833 44.688C123.75 44.7134 123.661 44.7134 123.579 44.688C123.542 44.6712 123.509 44.6466 123.483 44.6159C123.456 44.5852 123.437 44.5492 123.426 44.5103L106.6 2.93225L86.1136 77.1788C86.1025 77.2177 86.0832 77.2537 86.0569 77.2844C86.0305 77.315 85.9978 77.3396 85.9611 77.3565L82.1485 79.5648C82.1091 79.5849 82.0656 79.5953 82.0214 79.5953C81.9772 79.5953 81.9337 79.5849 81.8943 79.5648C81.8537 79.5496 81.8168 79.5258 81.7861 79.4952C81.7555 79.4645 81.7317 79.4277 81.7164 79.3872L75.9467 65.0963L69.4653 68.8276L61.6877 97.0033C61.6756 97.0682 61.6409 97.1268 61.5898 97.1686C61.5386 97.2104 61.4742 97.2328 61.4081 97.2317C61.3436 97.2287 61.2811 97.2082 61.2274 97.1724C61.1736 97.1366 61.1307 97.0869 61.1031 97.0286L58.3072 90.0736L56.528 96.4702C56.5187 96.513 56.5002 96.5533 56.4739 96.5883C56.4476 96.6234 56.414 96.6524 56.3755 96.6733L53.5541 98.2724L52.5883 101.547C52.5736 101.606 52.5416 101.659 52.4963 101.7C52.451 101.741 52.3945 101.767 52.3341 101.775C52.2878 101.802 52.2352 101.816 52.1816 101.816C52.1281 101.816 52.0755 101.802 52.0291 101.775L47.7844 95.0995L43.8194 97.6378L40.6676 108.629C40.6529 108.68 40.627 108.727 40.5918 108.766C40.5566 108.806 40.5131 108.837 40.4643 108.857C40.3745 108.893 40.2745 108.893 40.1847 108.857L36.3467 106.319L32.0258 114.899C31.9676 114.915 31.9061 114.915 31.8479 114.899Z" fill="#EEE8DE"/>
<path d="M132.17 20.3203C132.122 20.8655 131.944 21.3916 131.653 21.855C131.361 22.3184 130.963 22.7059 130.492 22.9855C129.552 23.5186 128.814 23.214 128.814 22.2748C128.885 21.753 129.073 21.2538 129.363 20.8143C129.653 20.3749 130.039 20.0065 130.492 19.7365C131.432 19.0765 132.17 19.4065 132.17 20.3203Z" fill="#E63114"/>
<path d="M79.4801 64.6139C79.4234 65.1598 79.2399 65.685 78.9443 66.1477C78.6487 66.6104 78.249 66.9978 77.7771 67.2792C76.8621 67.8122 76.0996 67.4822 76.0996 66.5684C76.172 66.0472 76.3602 65.5487 76.6505 65.1095C76.9407 64.6703 77.3257 64.3015 77.7771 64.0301C78.7938 63.4716 79.4801 63.6747 79.4801 64.6139Z" fill="#E63114"/>
<path d="M110.59 44.9931C110.542 45.5384 110.365 46.0644 110.074 46.5279C109.782 46.9913 109.384 47.3788 108.913 47.6584C107.972 48.1915 107.235 47.8869 107.235 46.9477C107.306 46.4259 107.493 45.9267 107.784 45.4872C108.074 45.0477 108.46 44.6793 108.913 44.4093C109.853 43.7494 110.59 44.0793 110.59 44.9931Z" fill="#E63114"/>
<path d="M53.732 79.6662C53.6753 80.2121 53.4919 80.7373 53.1962 81.2C52.9006 81.6626 52.501 82.0501 52.0291 82.3314C51.1141 82.8645 50.3516 82.5345 50.3516 81.6207C50.4239 81.0994 50.6121 80.601 50.9024 80.1618C51.1927 79.7225 51.5776 79.3537 52.0291 79.0824C52.9695 78.4224 53.732 78.7016 53.732 79.6662Z" fill="#E63114"/>
<path d="M40.4133 119.848H40.2862C40.2493 119.832 40.216 119.808 40.1883 119.779C40.1606 119.75 40.1391 119.715 40.1249 119.677C40.1107 119.639 40.1042 119.599 40.1057 119.559C40.1072 119.519 40.1167 119.479 40.1337 119.442L41.0233 117.691C41.0519 117.637 41.0962 117.593 41.1504 117.564L48.7755 113.325L51.851 80.5295C51.8549 80.4782 51.8707 80.4286 51.8972 80.3845C51.9236 80.3405 51.9601 80.3032 52.0035 80.2756L56.3244 77.7373C56.3669 77.7128 56.4152 77.6999 56.4642 77.6999C56.5133 77.6999 56.5615 77.7128 56.604 77.7373C56.6894 77.789 56.7527 77.8704 56.782 77.9657L62.0941 102.486L65.5763 100.481C65.6234 100.456 65.6757 100.444 65.7288 100.444C65.7819 100.444 65.8342 100.456 65.8813 100.481L67.0251 101.09L68.3214 98.9578L70.8631 97.4602L77.3445 65.6548C77.3498 65.6105 77.3667 65.5685 77.3935 65.5328C77.4202 65.4972 77.4559 65.4692 77.497 65.4517L84.385 61.4665C84.4275 61.442 84.4757 61.4291 84.5248 61.4291C84.5739 61.4291 84.6221 61.442 84.6646 61.4665L90.4343 64.2841L94.0436 62.2026L97.7036 56.8467C97.7583 56.7693 97.8398 56.715 97.9324 56.6944C97.9324 56.6944 98.1357 56.6944 98.1866 56.6944L102.762 61.7711L108.43 45.9826C108.419 45.9324 108.419 45.8806 108.43 45.8303L116.182 41.3628C116.222 41.3446 116.265 41.3351 116.309 41.3351C116.353 41.3351 116.396 41.3446 116.436 41.3628C116.482 41.3729 116.525 41.3944 116.561 41.4255C116.596 41.4566 116.623 41.4962 116.639 41.5405L122.612 55.6791L125.154 54.283L130.085 21.2845C130.091 21.2191 130.119 21.1578 130.166 21.1114C130.212 21.065 130.274 21.0364 130.339 21.0307C130.407 21.0141 130.478 21.0231 130.539 21.056C130.6 21.0888 130.647 21.1431 130.67 21.2084L142.692 51.6685L145.234 50.1963C145.278 50.1774 145.326 50.1677 145.374 50.1677C145.422 50.1677 145.469 50.1774 145.513 50.1963C145.554 50.2115 145.591 50.2353 145.622 50.2659C145.652 50.2966 145.676 50.3334 145.691 50.374L148.487 57.3798C148.513 57.4575 148.51 57.5421 148.477 57.6171C148.444 57.6922 148.384 57.7524 148.309 57.7859C148.231 57.8067 148.149 57.8004 148.075 57.7682C148.001 57.7359 147.94 57.6795 147.903 57.6082L145.386 50.7801L142.845 52.2523C142.807 52.2774 142.763 52.2908 142.717 52.2908C142.672 52.2908 142.628 52.2774 142.59 52.2523C142.544 52.2423 142.501 52.2207 142.466 52.1896C142.43 52.1586 142.403 52.119 142.387 52.0746L130.67 22.4776L125.891 54.3845C125.888 54.4325 125.872 54.4787 125.845 54.5188C125.818 54.5588 125.782 54.5913 125.739 54.613L122.867 56.2629C122.829 56.288 122.785 56.3014 122.74 56.3014C122.694 56.3014 122.65 56.288 122.612 56.2629C122.57 56.2513 122.531 56.2288 122.5 56.1976C122.469 56.1664 122.446 56.1277 122.435 56.0852L116.462 41.9467L109.091 46.1857L103.295 62.3549C103.279 62.4059 103.249 62.4515 103.208 62.4872C103.168 62.5229 103.119 62.5473 103.067 62.558C102.977 62.5934 102.877 62.5934 102.787 62.558L98.1103 57.4813L94.6536 62.558L90.841 64.7664C90.7427 64.8034 90.6343 64.8034 90.536 64.7664L84.7917 61.9488L78.1578 65.7563L71.5748 97.5871C71.5723 97.6322 71.5565 97.6756 71.5293 97.7118C71.5022 97.7479 71.4649 97.7752 71.4223 97.7902L68.8805 99.3132L67.4826 101.648C67.4565 101.676 67.4249 101.698 67.39 101.713C67.355 101.728 67.3173 101.736 67.2793 101.736C67.2412 101.736 67.2035 101.728 67.1685 101.713C67.1336 101.698 67.102 101.676 67.0759 101.648L65.8051 100.989L62.1196 103.121C62.0771 103.145 62.0288 103.158 61.9798 103.158C61.9307 103.158 61.8825 103.145 61.84 103.121C61.7906 103.115 61.7451 103.09 61.7124 103.053C61.6796 103.016 61.6617 102.967 61.6621 102.918L56.3499 78.3719L52.5373 80.6056L49.3601 113.528C49.3516 113.581 49.3311 113.631 49.3003 113.675C49.2695 113.719 49.2291 113.756 49.1822 113.782L41.5571 118.046L40.7183 119.696C40.6914 119.752 40.6469 119.797 40.5917 119.824C40.5366 119.852 40.4738 119.86 40.4133 119.848Z" fill="#E63114"/>
<path d="M239.76 100.963C239.693 101.486 239.507 101.986 239.217 102.426C238.926 102.866 238.538 103.234 238.083 103.501C237.142 104.034 236.405 103.729 236.405 102.79C236.476 102.268 236.663 101.769 236.954 101.33C237.244 100.89 237.63 100.522 238.083 100.252C238.922 99.7189 239.76 100.049 239.76 100.963Z" fill="#E63114"/>
<path d="M187.07 140.611C186.998 141.136 186.808 141.638 186.513 142.077C186.217 142.517 185.826 142.884 185.367 143.15C184.452 143.683 183.689 143.353 183.689 142.439C183.762 141.918 183.95 141.419 184.24 140.98C184.531 140.541 184.916 140.172 185.367 139.901C186.307 139.368 187.07 139.622 187.07 140.611Z" fill="#E63114"/>
<path d="M218.181 121.017C218.114 121.54 217.928 122.04 217.637 122.48C217.347 122.92 216.959 123.288 216.504 123.555C215.563 124.088 214.826 123.783 214.826 122.844C214.893 122.321 215.079 121.821 215.37 121.381C215.661 120.941 216.049 120.573 216.504 120.306C217.444 119.747 218.181 120.077 218.181 121.017Z" fill="#E63114"/>
<path d="M161.297 165.005C161.227 165.527 161.039 166.026 160.749 166.466C160.458 166.905 160.073 167.274 159.62 167.543C158.679 168.077 157.942 167.747 157.942 166.833C158.009 166.31 158.195 165.809 158.486 165.369C158.777 164.929 159.165 164.561 159.62 164.294C160.56 163.711 161.297 164.015 161.297 165.005Z" fill="#E63114"/>
<path d="M148.004 181.886C147.928 181.847 147.87 181.781 147.841 181.701C147.813 181.62 147.817 181.532 147.852 181.454L152.224 172.621C152.23 172.551 152.262 172.486 152.314 172.439C152.366 172.393 152.433 172.367 152.503 172.367C152.586 172.343 152.674 172.343 152.757 172.367L156.545 174.905L159.493 165.59C159.52 165.514 159.575 165.45 159.645 165.412L163.966 162.873C164.021 162.83 164.088 162.807 164.157 162.807C164.226 162.807 164.294 162.83 164.348 162.873L168.389 167.671L169.152 165.006C169.139 164.939 169.139 164.87 169.152 164.803L173.142 162.467C173.189 162.443 173.241 162.43 173.295 162.43C173.348 162.43 173.4 162.443 173.447 162.467L174.591 163.077L175.887 160.944L178.429 159.421L184.91 141.653C184.938 141.592 184.982 141.539 185.037 141.501L191.925 137.515C191.968 137.491 192.016 137.478 192.065 137.478C192.114 137.478 192.162 137.491 192.205 137.515L198.254 140.155L201.863 138.074L205.524 132.718C205.548 132.68 205.582 132.648 205.622 132.626C205.662 132.604 205.707 132.592 205.752 132.591C205.835 132.566 205.924 132.566 206.006 132.591L210.582 137.668L216.046 121.854C216.036 121.804 216.036 121.752 216.046 121.702L223.671 117.234H223.849L229.873 117.742L232.567 116.193L237.473 101.852C237.493 101.794 237.531 101.743 237.581 101.707C237.631 101.671 237.691 101.65 237.753 101.649C237.815 101.646 237.877 101.662 237.931 101.693C237.985 101.725 238.029 101.771 238.058 101.826L242.201 110.66L250.156 106.065C250.196 106.047 250.239 106.038 250.283 106.038C250.327 106.038 250.37 106.047 250.41 106.065C250.451 106.081 250.488 106.104 250.518 106.135C250.549 106.166 250.573 106.202 250.588 106.243L256.231 119.316C256.246 119.354 256.253 119.395 256.252 119.436C256.252 119.477 256.243 119.518 256.226 119.555C256.21 119.593 256.186 119.627 256.156 119.656C256.126 119.684 256.091 119.707 256.053 119.722C256.015 119.737 255.974 119.744 255.932 119.743C255.891 119.742 255.85 119.733 255.813 119.717C255.775 119.7 255.741 119.677 255.712 119.647C255.684 119.617 255.661 119.582 255.646 119.544L250.563 106.852L242.633 111.421C242.593 111.441 242.55 111.452 242.506 111.452C242.461 111.452 242.418 111.441 242.378 111.421C242.34 111.41 242.303 111.391 242.273 111.365C242.242 111.338 242.217 111.306 242.201 111.269L238.159 102.74L233.482 116.473C233.471 116.511 233.452 116.547 233.426 116.578C233.399 116.609 233.367 116.633 233.33 116.65L230.458 118.3H230.28L224.256 117.793L216.631 122.158L210.963 138.378C210.946 138.429 210.916 138.475 210.876 138.511C210.836 138.546 210.787 138.571 210.734 138.582C210.691 138.604 210.643 138.615 210.594 138.615C210.546 138.615 210.498 138.604 210.454 138.582L205.778 133.505L202.321 138.582L198.508 140.765C198.41 140.802 198.302 140.802 198.203 140.765L192.434 137.947L185.546 141.805L179.09 159.574C179.079 159.61 179.059 159.642 179.032 159.669C179.006 159.695 178.973 159.715 178.937 159.726L176.395 161.249L174.997 163.584C174.939 163.63 174.868 163.654 174.794 163.654C174.72 163.654 174.649 163.63 174.591 163.584L173.32 162.924L169.736 164.98L168.796 168.407C168.778 168.46 168.749 168.509 168.709 168.549C168.669 168.588 168.62 168.618 168.567 168.636C168.52 168.66 168.468 168.673 168.414 168.673C168.361 168.673 168.309 168.66 168.262 168.636L163.992 163.559L160.001 165.894L156.951 175.514C156.935 175.559 156.908 175.598 156.873 175.629C156.837 175.66 156.794 175.682 156.748 175.692C156.705 175.717 156.657 175.73 156.608 175.73C156.559 175.73 156.511 175.717 156.468 175.692L152.503 173.128L148.182 181.708C148.169 181.749 148.145 181.787 148.115 181.818C148.084 181.849 148.046 181.872 148.004 181.886Z" fill="#E63114"/>
</svg>
