<svg width="672" height="400" viewBox="0 0 672 400" fill="none" xmlns="http://www.w3.org/2000/svg">
<g opacity="0.6" filter="url(#filter0_f_112_570)">
<ellipse cx="336" cy="231" rx="170" ry="182" fill="#3F1091"/>
</g>
<g clip-path="url(#clip0_112_570)">
<g style="mix-blend-mode:multiply" opacity="0.2">
<path d="M204.139 187.015L130 229.777L369.743 367.999H403.144L204.139 187.015Z" fill="#7F647E"/>
</g>
<path d="M403.144 368L167.448 232.12V222.184L403.144 358.065V368Z" fill="#CBC7BC"/>
<path d="M572 270.614L403.144 368V358.065L572 260.716V270.614Z" fill="#EEE8DE"/>
<path d="M403.144 358.065L167.448 222.184L336.343 124.836L572 260.716L403.144 358.065Z" fill="#F7F5ED"/>
<path d="M400.117 358.744L164.422 222.864L333.316 125.477L568.974 261.358L400.117 358.744Z" fill="#F7F5ED"/>
<path d="M403.144 358.745L167.448 222.864V217.84L403.144 353.758V358.745Z" fill="#CBC7BC"/>
<path d="M572 261.358L403.144 358.745V353.759L572 256.372V261.358Z" fill="#EEE8DE"/>
<path d="M403.144 353.758L167.448 217.84L336.343 120.491L572 256.371L403.144 353.758Z" fill="#F7F5ED"/>
<path d="M403.106 354.929L167.41 219.011L336.304 121.662L571.962 257.542L403.106 354.929Z" fill="#F7F5ED"/>
<path d="M403.144 353.758L167.448 217.84V209.454L403.144 345.334V353.758Z" fill="#CBC7BC"/>
<path d="M572 256.372L403.144 353.759V345.335L572 247.948V256.372Z" fill="#EEE8DE"/>
<path d="M403.144 345.334L167.448 209.454L336.343 112.067L572 247.948L403.144 345.334Z" fill="#F7F5ED"/>
<path d="M401.744 347.148L166.049 211.23L334.943 113.881L570.601 249.761L401.744 347.148Z" fill="#F7F5ED"/>
<path d="M403.144 345.335L167.448 209.454V201.03L403.144 336.949V345.335Z" fill="#CBC7BC"/>
<path d="M572 247.949L403.144 345.335V336.949L572 239.562V247.949Z" fill="#EEE8DE"/>
<path d="M403.144 336.949L167.448 201.03L336.343 103.682L572 239.562L403.144 336.949Z" fill="#F7F5ED"/>
<path d="M240.831 222.525L238.221 223.998L236.973 223.28L239.583 221.769L240.831 222.525Z" fill="#CBC7BC"/>
<path d="M246.278 219.351L242.495 221.542L241.247 220.825L245.03 218.634L246.278 219.351Z" fill="#CBC7BC"/>
<path d="M258.382 212.363L247.98 218.37L246.731 217.652L257.134 211.645L258.382 212.363Z" fill="#CBC7BC"/>
<path d="M264.207 209.038L260.084 211.418L258.836 210.7L262.959 208.32L264.207 209.038Z" fill="#CBC7BC"/>
<path d="M264.624 207.338L265.872 208.056L272.568 204.203L271.319 203.485L264.624 207.338Z" fill="#CBC7BC"/>
<path d="M278.015 201.067L274.27 203.22L273.021 202.503L276.766 200.349L278.015 201.067Z" fill="#CBC7BC"/>
<path d="M282.856 198.272L279.679 200.086L278.431 199.368L281.608 197.555L282.856 198.272Z" fill="#CBC7BC"/>
<path d="M247.45 222.6L241.625 225.963L240.377 225.245L246.202 221.883L247.45 222.6Z" fill="#CBC7BC"/>
<path d="M252.897 219.465L249.114 221.656L247.866 220.9L251.649 218.747L252.897 219.465Z" fill="#CBC7BC"/>
<path d="M259.215 215.801L254.6 218.483L253.352 217.765L257.966 215.083L259.215 215.801Z" fill="#CBC7BC"/>
<path d="M263.754 213.194L260.917 214.856L259.631 214.139L262.506 212.476L263.754 213.194Z" fill="#CBC7BC"/>
<path d="M264.208 211.494L265.456 212.212L273.702 207.452L272.454 206.734L264.208 211.494Z" fill="#CBC7BC"/>
<path d="M278.695 204.581L275.405 206.47L274.156 205.752L277.447 203.863L278.695 204.581Z" fill="#CBC7BC"/>
<path d="M289.173 198.537L280.36 203.637L279.111 202.919L287.925 197.819L289.173 198.537Z" fill="#CBC7BC"/>
<path d="M247.602 226.416L245.03 227.927L243.781 227.209L246.353 225.698L247.602 226.416Z" fill="#CBC7BC"/>
<path d="M253.087 223.28L249.304 225.471L248.056 224.715L251.838 222.562L253.087 223.28Z" fill="#CBC7BC"/>
<path d="M258.685 220.031L254.751 222.298L253.503 221.58L257.437 219.313L258.685 220.031Z" fill="#CBC7BC"/>
<path d="M270.978 212.929L260.387 219.049L259.139 218.331L269.73 212.212L270.978 212.929Z" fill="#CBC7BC"/>
<path d="M271.433 211.267L272.681 211.985L279.376 208.094L278.128 207.376L271.433 211.267Z" fill="#CBC7BC"/>
<path d="M284.785 204.996L281.078 207.149L279.792 206.431L283.537 204.278L284.785 204.996Z" fill="#CBC7BC"/>
<path d="M289.665 202.163L286.488 204.014L285.239 203.296L288.417 201.445L289.665 202.163Z" fill="#CBC7BC"/>
<path d="M254.221 226.529L248.434 229.891L247.186 229.136L252.973 225.811L254.221 226.529Z" fill="#CBC7BC"/>
<path d="M259.707 223.355L255.924 225.546L254.676 224.829L258.458 222.638L259.707 223.355Z" fill="#CBC7BC"/>
<path d="M266.023 219.729L261.37 222.411L260.122 221.694L264.775 219.012L266.023 219.729Z" fill="#CBC7BC"/>
<path d="M270.563 217.123L267.688 218.747L266.439 218.03L269.314 216.405L270.563 217.123Z" fill="#CBC7BC"/>
<path d="M270.979 215.423L272.227 216.14L280.511 211.381L279.262 210.663L270.979 215.423Z" fill="#CBC7BC"/>
<path d="M285.466 208.51L282.213 210.398L280.965 209.681L284.218 207.792L285.466 208.51Z" fill="#CBC7BC"/>
<path d="M296.814 201.974L287.168 207.527L285.92 206.81L295.566 201.257L296.814 201.974Z" fill="#CBC7BC"/>
<path d="M254.41 230.345L251.838 231.818L250.59 231.1L253.162 229.627L254.41 230.345Z" fill="#CBC7BC"/>
<path d="M259.895 227.209L256.113 229.362L254.864 228.644L258.647 226.453L259.895 227.209Z" fill="#CBC7BC"/>
<path d="M272.756 219.766L261.56 226.226L260.312 225.508L271.508 219.049L272.756 219.766Z" fill="#CBC7BC"/>
<path d="M277.787 216.858L272.189 220.107L270.94 219.389L276.539 216.141L277.787 216.858Z" fill="#CBC7BC"/>
<path d="M278.241 215.158L279.489 215.913L286.185 212.022L284.936 211.305L278.241 215.158Z" fill="#CBC7BC"/>
<path d="M291.594 208.887L287.849 211.078L286.601 210.361L290.345 208.17L291.594 208.887Z" fill="#CBC7BC"/>
<path d="M296.473 206.092L293.258 207.943L292.01 207.225L295.225 205.374L296.473 206.092Z" fill="#CBC7BC"/>
<path d="M261.031 230.458L255.243 233.782L253.957 233.064L259.782 229.702L261.031 230.458Z" fill="#CBC7BC"/>
<path d="M266.515 227.284L262.733 229.475L261.484 228.757L265.267 226.566L266.515 227.284Z" fill="#CBC7BC"/>
<path d="M270.184 225.169L268.179 226.302L266.931 225.584L268.935 224.451L270.184 225.169Z" fill="#CBC7BC"/>
<path d="M277.371 221.014L271.849 224.224L270.601 223.469L276.123 220.296L277.371 221.014Z" fill="#CBC7BC"/>
<path d="M277.787 219.351L279.035 220.069L287.319 215.309L286.071 214.554L277.787 219.351Z" fill="#CBC7BC"/>
<path d="M292.275 212.438L288.984 214.327L287.735 213.609L291.026 211.721L292.275 212.438Z" fill="#CBC7BC"/>
<path d="M304.455 205.412L293.977 211.456L292.729 210.738L303.169 204.694L304.455 205.412Z" fill="#CBC7BC"/>
<path d="M290.346 193.928L284.521 197.29L283.272 196.572L289.098 193.21L290.346 193.928Z" fill="#CBC7BC"/>
<path d="M295.831 190.793L292.048 192.984L290.8 192.266L294.582 190.075L295.831 190.793Z" fill="#CBC7BC"/>
<path d="M308.124 183.728L297.494 189.81L296.246 189.092L306.837 182.973L308.124 183.728Z" fill="#CBC7BC"/>
<path d="M315.992 179.158L309.788 182.747L308.54 182.029L314.744 178.44L315.992 179.158Z" fill="#CBC7BC"/>
<path d="M316.445 177.458L317.694 178.175L323.557 174.813L322.308 174.096L316.445 177.458Z" fill="#CBC7BC"/>
<path d="M328.966 171.678L325.221 173.831L323.973 173.113L327.717 170.96L328.966 171.678Z" fill="#CBC7BC"/>
<path d="M296.965 194.041L290.837 197.592L289.589 196.874L295.717 193.323L296.965 194.041Z" fill="#CBC7BC"/>
<path d="M302.45 190.906L298.667 193.097L297.419 192.341L301.202 190.188L302.45 190.906Z" fill="#CBC7BC"/>
<path d="M308.767 187.242L304.114 189.924L302.866 189.206L307.481 186.524L308.767 187.242Z" fill="#CBC7BC"/>
<path d="M315.575 183.313L310.431 186.298L309.183 185.58L314.327 182.596L315.575 183.313Z" fill="#CBC7BC"/>
<path d="M315.992 181.651L317.24 182.369L322.423 179.385L321.174 178.667L315.992 181.651Z" fill="#CBC7BC"/>
<path d="M329.647 175.191L324.086 178.402L322.838 177.684L328.398 174.474L329.647 175.191Z" fill="#CBC7BC"/>
<path d="M297.155 197.856L291.329 201.218L290.081 200.501L295.906 197.139L297.155 197.856Z" fill="#CBC7BC"/>
<path d="M302.601 194.721L298.819 196.875L297.57 196.157L301.353 194.004L302.601 194.721Z" fill="#CBC7BC"/>
<path d="M310.356 190.264L304.304 193.739L303.056 193.021L309.108 189.546L310.356 190.264Z" fill="#CBC7BC"/>
<path d="M322.8 183.087L312.02 189.282L310.771 188.564L321.552 182.369L322.8 183.087Z" fill="#CBC7BC"/>
<path d="M323.217 181.386L324.465 182.104L330.328 178.742L329.08 177.986L323.217 181.386Z" fill="#CBC7BC"/>
<path d="M335.775 175.606L332.03 177.76L330.782 177.042L334.527 174.889L335.775 175.606Z" fill="#CBC7BC"/>
<path d="M303.773 197.97L298.478 201.029L297.229 200.312L302.525 197.252L303.773 197.97Z" fill="#CBC7BC"/>
<path d="M309.221 194.797L305.439 196.988L304.19 196.27L307.973 194.079L309.221 194.797Z" fill="#CBC7BC"/>
<path d="M316.975 190.34L310.923 193.853L309.675 193.135L315.727 189.622L316.975 190.34Z" fill="#CBC7BC"/>
<path d="M322.346 187.242L318.677 189.395L317.429 188.64L321.098 186.524L322.346 187.242Z" fill="#CBC7BC"/>
<path d="M322.801 185.542L324.049 186.26L329.193 183.313L327.945 182.596L322.801 185.542Z" fill="#CBC7BC"/>
<path d="M336.456 179.12L330.896 182.331L329.647 181.613L335.208 178.402L336.456 179.12Z" fill="#CBC7BC"/>
<path d="M303.925 201.785L298.138 205.147L296.89 204.429L302.677 201.067L303.925 201.785Z" fill="#CBC7BC"/>
<path d="M309.41 198.65L305.627 200.803L304.379 200.086L308.162 197.895L309.41 198.65Z" fill="#CBC7BC"/>
<path d="M318.942 193.135L311.112 197.668L309.826 196.95L317.694 192.417L318.942 193.135Z" fill="#CBC7BC"/>
<path d="M310.583 201.898L306.081 204.467L304.833 203.749L309.334 201.181L310.583 201.898Z" fill="#CBC7BC"/>
<path d="M316.03 198.725L312.247 200.916L310.999 200.199L314.782 198.008L316.03 198.725Z" fill="#CBC7BC"/>
<path d="M320.304 196.27L317.732 197.781L316.483 197.026L319.056 195.552L320.304 196.27Z" fill="#CBC7BC"/>
<path d="M357.222 155.396L348.9 160.194L347.614 159.476L355.974 154.679L357.222 155.396Z" fill="#CBC7BC"/>
<path d="M364.258 151.316L358.887 154.414L357.639 153.696L363.01 150.599L364.258 151.316Z" fill="#CBC7BC"/>
<path d="M364.712 149.655L365.96 150.372L371.218 147.312L369.97 146.595L364.712 149.655Z" fill="#CBC7BC"/>
<path d="M376.627 144.177L372.882 146.368L371.634 145.612L375.379 143.459L376.627 144.177Z" fill="#CBC7BC"/>
<path d="M380.41 142.023L378.329 143.232L377.081 142.514L379.199 141.306L380.41 142.023Z" fill="#CBC7BC"/>
<path d="M357.034 159.438L352.381 162.083L351.133 161.365L355.785 158.721L357.034 159.438Z" fill="#CBC7BC"/>
<path d="M363.842 155.51L358.697 158.456L357.449 157.739L362.594 154.792L363.842 155.51Z" fill="#CBC7BC"/>
<path d="M364.258 153.81L365.506 154.528L370.083 151.884L368.835 151.166L364.258 153.81Z" fill="#CBC7BC"/>
<path d="M377.308 147.728L371.747 150.939L370.499 150.184L376.059 147.011L377.308 147.728Z" fill="#CBC7BC"/>
<path d="M383.814 143.988L379.01 146.745L377.762 146.028L382.566 143.232L383.814 143.988Z" fill="#CBC7BC"/>
<path d="M356.957 163.405L355.671 164.123L354.423 163.405L355.709 162.649L356.957 163.405Z" fill="#CBC7BC"/>
<path d="M371.067 155.245L358.622 162.422L357.374 161.705L369.819 154.527L371.067 155.245Z" fill="#CBC7BC"/>
<path d="M371.483 153.545L372.732 154.263L378.027 151.241L376.741 150.523L371.483 153.545Z" fill="#CBC7BC"/>
<path d="M383.436 148.105L379.692 150.259L378.443 149.541L382.188 147.388L383.436 148.105Z" fill="#CBC7BC"/>
<path d="M387.219 145.915L385.101 147.161L383.853 146.406L385.971 145.197L387.219 145.915Z" fill="#CBC7BC"/>
<path d="M363.804 163.329L359.19 166.011L357.941 165.293L362.556 162.611L363.804 163.329Z" fill="#CBC7BC"/>
<path d="M370.65 159.4L365.506 162.385L364.258 161.667L369.364 158.682L370.65 159.4Z" fill="#CBC7BC"/>
<path d="M371.066 157.739L372.315 158.457L376.892 155.812L375.643 155.095L371.066 157.739Z" fill="#CBC7BC"/>
<path d="M384.117 151.619L378.557 154.83L377.309 154.112L382.869 150.901L384.117 151.619Z" fill="#CBC7BC"/>
<path d="M390.623 147.879L385.82 150.674L384.571 149.956L389.375 147.161L390.623 147.879Z" fill="#CBC7BC"/>
<path d="M371.483 162.839L362.481 168.052L361.232 167.334L370.197 162.121L371.483 162.839Z" fill="#CBC7BC"/>
<path d="M377.876 159.174L373.148 161.894L371.899 161.176L376.628 158.456L377.876 159.174Z" fill="#CBC7BC"/>
<path d="M378.292 157.474L379.54 158.192L384.798 155.17L383.55 154.452L378.292 157.474Z" fill="#CBC7BC"/>
<path d="M368.305 168.58L365.998 169.94L364.712 169.222L367.057 167.862L368.305 168.58Z" fill="#CBC7BC"/>
<path d="M377.422 163.329L369.97 167.635L368.722 166.918L376.173 162.611L377.422 163.329Z" fill="#CBC7BC"/>
<path d="M377.876 161.63L379.124 162.348L385.101 158.91L383.853 158.192L377.876 161.63Z" fill="#CBC7BC"/>
<path d="M268.596 238.542L266.024 240.015L264.775 239.297L267.348 237.786L268.596 238.542Z" fill="#CBC7BC"/>
<path d="M274.081 235.368L270.298 237.559L269.05 236.841L272.832 234.65L274.081 235.368Z" fill="#CBC7BC"/>
<path d="M286.184 228.417L275.744 234.386L274.496 233.668L284.936 227.662L286.184 228.417Z" fill="#CBC7BC"/>
<path d="M291.972 225.055L287.849 227.435L286.601 226.718L290.724 224.338L291.972 225.055Z" fill="#CBC7BC"/>
<path d="M292.426 223.356L293.674 224.074L300.369 220.221L299.121 219.503L292.426 223.356Z" fill="#CBC7BC"/>
<path d="M305.778 217.085L302.033 219.238L300.785 218.52L304.53 216.367L305.778 217.085Z" fill="#CBC7BC"/>
<path d="M310.658 214.289L307.481 216.14L306.232 215.384L309.41 213.571L310.658 214.289Z" fill="#CBC7BC"/>
<path d="M275.215 238.617L269.428 241.979L268.18 241.261L273.967 237.899L275.215 238.617Z" fill="#CBC7BC"/>
<path d="M280.7 235.481L276.917 237.672L275.669 236.955L279.452 234.764L280.7 235.481Z" fill="#CBC7BC"/>
<path d="M287.017 231.817L282.364 234.499L281.116 233.782L285.769 231.099L287.017 231.817Z" fill="#CBC7BC"/>
<path d="M291.556 229.211L288.681 230.873L287.433 230.155L290.307 228.493L291.556 229.211Z" fill="#CBC7BC"/>
<path d="M291.972 227.511L293.22 228.228L301.504 223.469L300.256 222.751L291.972 227.511Z" fill="#CBC7BC"/>
<path d="M306.459 220.598L303.168 222.524L301.92 221.769L305.211 219.88L306.459 220.598Z" fill="#CBC7BC"/>
<path d="M316.975 214.554L308.161 219.653L306.913 218.936L315.727 213.836L316.975 214.554Z" fill="#CBC7BC"/>
<path d="M318.148 209.983L312.322 213.308L311.074 212.59L316.899 209.266L318.148 209.983Z" fill="#CBC7BC"/>
<path d="M323.595 206.809L319.813 209L318.564 208.283L322.347 206.092L323.595 206.809Z" fill="#CBC7BC"/>
<path d="M335.888 199.746L325.297 205.828L324.049 205.11L334.64 199.028L335.888 199.746Z" fill="#CBC7BC"/>
<path d="M343.794 195.175L337.591 198.763L336.305 198.046L342.546 194.457L343.794 195.175Z" fill="#CBC7BC"/>
<path d="M344.21 193.474L345.458 194.192L351.321 190.83L350.073 190.112L344.21 193.474Z" fill="#CBC7BC"/>
<path d="M356.768 187.695L353.024 189.848L351.775 189.13L355.52 186.977L356.768 187.695Z" fill="#CBC7BC"/>
<path d="M324.768 210.058L318.64 213.609L317.392 212.892L323.519 209.341L324.768 210.058Z" fill="#CBC7BC"/>
<path d="M330.214 206.923L326.432 209.114L325.184 208.358L328.966 206.205L330.214 206.923Z" fill="#CBC7BC"/>
<path d="M336.531 203.259L331.916 205.941L330.668 205.223L335.283 202.541L336.531 203.259Z" fill="#CBC7BC"/>
<path d="M343.34 199.33L338.234 202.314L336.985 201.597L342.092 198.612L343.34 199.33Z" fill="#CBC7BC"/>
<path d="M343.794 197.668L345.042 198.386L350.187 195.401L348.938 194.684L343.794 197.668Z" fill="#CBC7BC"/>
<path d="M357.449 191.208L351.889 194.419L350.641 193.701L356.201 190.49L357.449 191.208Z" fill="#CBC7BC"/>
<path d="M384.987 171.414L376.665 176.211L375.417 175.494L383.739 170.696L384.987 171.414Z" fill="#CBC7BC"/>
<path d="M392.06 167.334L386.689 170.431L385.44 169.714L390.812 166.616L392.06 167.334Z" fill="#CBC7BC"/>
<path d="M392.477 165.671L393.725 166.389L398.983 163.329L397.734 162.611L392.477 165.671Z" fill="#CBC7BC"/>
<path d="M404.43 160.231L400.685 162.385L399.437 161.667L403.181 159.514L404.43 160.231Z" fill="#CBC7BC"/>
<path d="M408.212 158.041L406.094 159.25L404.846 158.532L406.964 157.323L408.212 158.041Z" fill="#CBC7BC"/>
<path d="M384.798 175.456L380.183 178.1L378.935 177.382L383.549 174.738L384.798 175.456Z" fill="#CBC7BC"/>
<path d="M391.644 171.527L386.5 174.474L385.214 173.756L390.358 170.809L391.644 171.527Z" fill="#CBC7BC"/>
<path d="M392.061 169.827L393.309 170.545L397.848 167.9L396.6 167.183L392.061 169.827Z" fill="#CBC7BC"/>
<path d="M282.629 246.626L280.057 248.099L278.809 247.381L281.381 245.87L282.629 246.626Z" fill="#CBC7BC"/>
<path d="M288.114 243.452L284.331 245.643L283.045 244.925L286.828 242.734L288.114 243.452Z" fill="#CBC7BC"/>
<path d="M300.181 236.464L289.779 242.47L288.53 241.752L298.932 235.746L300.181 236.464Z" fill="#CBC7BC"/>
<path d="M306.006 233.139L301.883 235.519L300.635 234.802L304.758 232.422L306.006 233.139Z" fill="#CBC7BC"/>
<path d="M306.422 231.44L307.708 232.158L314.365 228.305L313.117 227.587L306.422 231.44Z" fill="#CBC7BC"/>
<path d="M319.812 225.169L316.068 227.322L314.819 226.604L318.564 224.451L319.812 225.169Z" fill="#CBC7BC"/>
<path d="M324.692 222.373L321.477 224.224L320.229 223.468L323.406 221.655L324.692 222.373Z" fill="#CBC7BC"/>
<path d="M289.248 246.701L283.423 250.063L282.175 249.345L288 245.983L289.248 246.701Z" fill="#CBC7BC"/>
<path d="M294.734 243.565L290.951 245.756L289.665 245.039L293.486 242.848L294.734 243.565Z" fill="#CBC7BC"/>
<path d="M301.012 239.901L296.398 242.584L295.149 241.866L299.764 239.184L301.012 239.901Z" fill="#CBC7BC"/>
<path d="M305.59 237.295L302.715 238.957L301.467 238.239L304.342 236.577L305.59 237.295Z" fill="#CBC7BC"/>
<path d="M306.006 235.595L307.254 236.312L315.538 231.553L314.29 230.835L306.006 235.595Z" fill="#CBC7BC"/>
<path d="M320.493 228.681L317.202 230.608L315.954 229.853L319.245 227.964L320.493 228.681Z" fill="#CBC7BC"/>
<path d="M330.971 222.638L322.157 227.737L320.909 227.02L329.723 221.92L330.971 222.638Z" fill="#CBC7BC"/>
<path d="M289.437 250.516L286.827 252.027L285.579 251.31L288.189 249.799L289.437 250.516Z" fill="#CBC7BC"/>
<path d="M294.884 247.381L291.102 249.572L289.854 248.816L293.636 246.663L294.884 247.381Z" fill="#CBC7BC"/>
<path d="M300.483 244.133L296.587 246.399L295.339 245.681L299.235 243.415L300.483 244.133Z" fill="#CBC7BC"/>
<path d="M312.814 237.068L302.185 243.188L300.937 242.47L311.566 236.312L312.814 237.068Z" fill="#CBC7BC"/>
<path d="M313.23 235.369L314.479 236.086L321.174 232.233L319.926 231.516L313.23 235.369Z" fill="#CBC7BC"/>
<path d="M326.621 229.098L322.876 231.251L321.628 230.533L325.335 228.38L326.621 229.098Z" fill="#CBC7BC"/>
<path d="M331.463 226.302L328.285 228.115L327.037 227.398L330.215 225.547L331.463 226.302Z" fill="#CBC7BC"/>
<path d="M296.057 250.63L290.232 253.992L288.983 253.274L294.809 249.912L296.057 250.63Z" fill="#CBC7BC"/>
<path d="M301.505 247.457L297.722 249.648L296.474 248.93L300.256 246.739L301.505 247.457Z" fill="#CBC7BC"/>
<path d="M307.821 243.83L303.206 246.512L301.958 245.794L306.573 243.112L307.821 243.83Z" fill="#CBC7BC"/>
<path d="M312.36 241.224L309.486 242.886L308.237 242.168L311.112 240.506L312.36 241.224Z" fill="#CBC7BC"/>
<path d="M312.814 239.523L314.063 240.241L322.309 235.481L321.061 234.764L312.814 239.523Z" fill="#CBC7BC"/>
<path d="M327.302 232.61L324.011 234.499L322.763 233.781L326.054 231.892L327.302 232.61Z" fill="#CBC7BC"/>
<path d="M338.612 226.075L328.966 231.628L327.718 230.91L337.363 225.357L338.612 226.075Z" fill="#CBC7BC"/>
<path d="M296.209 254.445L293.637 255.956L292.389 255.201L294.961 253.727L296.209 254.445Z" fill="#CBC7BC"/>
<path d="M301.693 251.309L297.91 253.463L296.662 252.745L300.445 250.592L301.693 251.309Z" fill="#CBC7BC"/>
<path d="M314.592 243.868L303.358 250.328L302.109 249.61L313.344 243.15L314.592 243.868Z" fill="#CBC7BC"/>
<path d="M319.585 240.959L313.987 244.208L312.738 243.49L318.337 240.241L319.585 240.959Z" fill="#CBC7BC"/>
<path d="M320.039 239.259L321.287 240.015L327.983 236.124L326.734 235.406L320.039 239.259Z" fill="#CBC7BC"/>
<path d="M333.392 233.026L329.647 235.179L328.398 234.461L332.143 232.27L333.392 233.026Z" fill="#CBC7BC"/>
<path d="M338.271 230.193L335.094 232.044L333.808 231.326L337.023 229.475L338.271 230.193Z" fill="#CBC7BC"/>
<path d="M302.829 254.558L297.041 257.883L295.793 257.165L301.58 253.841L302.829 254.558Z" fill="#CBC7BC"/>
<path d="M308.313 251.385L304.53 253.576L303.282 252.859L307.065 250.668L308.313 251.385Z" fill="#CBC7BC"/>
<path d="M311.983 249.27L309.978 250.441L308.729 249.724L310.734 248.553L311.983 249.27Z" fill="#CBC7BC"/>
<path d="M319.169 245.152L313.647 248.325L312.398 247.607L317.921 244.396L319.169 245.152Z" fill="#CBC7BC"/>
<path d="M319.585 243.452L320.833 244.17L329.117 239.41L327.869 238.692L319.585 243.452Z" fill="#CBC7BC"/>
<path d="M334.072 236.539L330.781 238.428L329.533 237.71L332.824 235.821L334.072 236.539Z" fill="#CBC7BC"/>
<path d="M346.253 229.513L335.775 235.557L334.526 234.839L345.004 228.795L346.253 229.513Z" fill="#CBC7BC"/>
<path d="M332.144 218.067L326.357 221.392L325.108 220.674L330.896 217.349L332.144 218.067Z" fill="#CBC7BC"/>
<path d="M337.629 214.893L333.846 217.084L332.598 216.367L336.38 214.176L337.629 214.893Z" fill="#CBC7BC"/>
<path d="M349.922 207.83L339.293 213.912L338.045 213.194L348.674 207.112L349.922 207.83Z" fill="#CBC7BC"/>
<path d="M357.827 203.259L351.586 206.847L350.338 206.13L356.579 202.541L357.827 203.259Z" fill="#CBC7BC"/>
<path d="M358.244 201.559L359.492 202.277L365.355 198.915L364.107 198.197L358.244 201.559Z" fill="#CBC7BC"/>
<path d="M370.765 195.779L367.02 197.932L365.771 197.215L369.516 195.061L370.765 195.779Z" fill="#CBC7BC"/>
<path d="M338.801 218.142L332.635 221.693L331.387 220.976L337.515 217.425L338.801 218.142Z" fill="#CBC7BC"/>
<path d="M344.248 215.007L340.465 217.198L339.217 216.442L342.999 214.289L344.248 215.007Z" fill="#CBC7BC"/>
<path d="M350.565 211.343L345.95 214.025L344.664 213.307L349.317 210.625L350.565 211.343Z" fill="#CBC7BC"/>
<path d="M357.374 207.414L352.23 210.398L350.981 209.68L356.126 206.696L357.374 207.414Z" fill="#CBC7BC"/>
<path d="M357.828 205.752L359.076 206.47L364.221 203.485L362.973 202.767L357.828 205.752Z" fill="#CBC7BC"/>
<path d="M371.445 199.292L365.885 202.503L364.637 201.785L370.197 198.574L371.445 199.292Z" fill="#CBC7BC"/>
<path d="M338.952 221.958L333.127 225.32L331.879 224.602L337.704 221.24L338.952 221.958Z" fill="#CBC7BC"/>
<path d="M344.437 218.822L340.654 221.013L339.368 220.258L343.151 218.104L344.437 218.822Z" fill="#CBC7BC"/>
<path d="M352.154 214.365L346.102 217.84L344.854 217.123L350.906 213.647L352.154 214.365Z" fill="#CBC7BC"/>
<path d="M364.598 207.187L353.855 213.383L352.569 212.665L363.35 206.47L364.598 207.187Z" fill="#CBC7BC"/>
<path d="M365.053 205.488L366.301 206.206L372.164 202.844L370.916 202.126L365.053 205.488Z" fill="#CBC7BC"/>
<path d="M377.573 199.708L373.828 201.861L372.58 201.143L376.325 198.99L377.573 199.708Z" fill="#CBC7BC"/>
<path d="M345.572 222.071L340.277 225.131L339.028 224.413L344.324 221.353L345.572 222.071Z" fill="#CBC7BC"/>
<path d="M351.057 218.898L347.274 221.089L345.988 220.372L349.809 218.181L351.057 218.898Z" fill="#CBC7BC"/>
<path d="M358.773 214.44L352.721 217.954L351.473 217.236L357.525 213.723L358.773 214.44Z" fill="#CBC7BC"/>
<path d="M364.183 211.343L360.476 213.496L359.228 212.778L362.935 210.625L364.183 211.343Z" fill="#CBC7BC"/>
<path d="M364.599 209.643L365.847 210.361L371.029 207.414L369.743 206.696L364.599 209.643Z" fill="#CBC7BC"/>
<path d="M378.254 203.221L372.694 206.432L371.445 205.714L377.006 202.503L378.254 203.221Z" fill="#CBC7BC"/>
<path d="M345.761 225.887L339.936 229.249L338.688 228.531L344.513 225.169L345.761 225.887Z" fill="#CBC7BC"/>
<path d="M351.208 222.751L347.425 224.905L346.177 224.187L349.959 221.996L351.208 222.751Z" fill="#CBC7BC"/>
<path d="M360.74 217.236L352.91 221.769L351.662 221.052L359.492 216.518L360.74 217.236Z" fill="#CBC7BC"/>
<path d="M371.407 211.078L362.443 216.253L361.194 215.536L370.159 210.36L371.407 211.078Z" fill="#CBC7BC"/>
<path d="M371.823 209.416L373.072 210.134L378.935 206.734L377.686 206.016L371.823 209.416Z" fill="#CBC7BC"/>
<path d="M384.382 203.636L380.637 205.79L379.389 205.072L383.096 202.919L384.382 203.636Z" fill="#CBC7BC"/>
<path d="M352.381 226L347.917 228.569L346.669 227.851L351.132 225.282L352.381 226Z" fill="#CBC7BC"/>
<path d="M357.828 222.827L354.045 225.018L352.797 224.3L356.58 222.109L357.828 222.827Z" fill="#CBC7BC"/>
<path d="M362.102 220.371L359.53 221.882L358.281 221.164L360.853 219.653L362.102 220.371Z" fill="#CBC7BC"/>
<path d="M370.953 215.271L363.804 219.389L362.556 218.671L369.705 214.554L370.953 215.271Z" fill="#CBC7BC"/>
<path d="M371.407 213.571L372.656 214.289L377.8 211.305L376.552 210.587L371.407 213.571Z" fill="#CBC7BC"/>
<path d="M385.063 207.149L379.502 210.36L378.254 209.642L383.814 206.432L385.063 207.149Z" fill="#CBC7BC"/>
<path d="M399.02 179.498L390.698 184.295L389.45 183.578L397.772 178.78L399.02 179.498Z" fill="#CBC7BC"/>
<path d="M406.094 175.418L400.685 178.515L399.437 177.798L404.846 174.7L406.094 175.418Z" fill="#CBC7BC"/>
<path d="M406.51 173.756L407.758 174.474L413.016 171.414L411.768 170.696L406.51 173.756Z" fill="#CBC7BC"/>
<path d="M418.425 168.316L414.718 170.469L413.47 169.752L417.177 167.599L418.425 168.316Z" fill="#CBC7BC"/>
<path d="M422.245 166.125L420.127 167.334L418.879 166.616L420.997 165.407L422.245 166.125Z" fill="#CBC7BC"/>
<path d="M398.832 183.54L394.179 186.184L392.931 185.466L397.583 182.822L398.832 183.54Z" fill="#CBC7BC"/>
<path d="M405.64 179.611L400.495 182.558L399.247 181.84L404.391 178.893L405.64 179.611Z" fill="#CBC7BC"/>
<path d="M406.057 177.911L407.343 178.629L411.882 175.984L410.634 175.266L406.057 177.911Z" fill="#CBC7BC"/>
<path d="M419.144 171.829L413.583 175.04L412.335 174.322L417.895 171.111L419.144 171.829Z" fill="#CBC7BC"/>
<path d="M425.651 168.089L420.809 170.847L419.561 170.129L424.402 167.334L425.651 168.089Z" fill="#CBC7BC"/>
<path d="M398.756 187.506L397.47 188.224L396.222 187.506L397.508 186.751L398.756 187.506Z" fill="#CBC7BC"/>
<path d="M412.865 179.346L400.458 186.524L399.172 185.806L411.617 178.629L412.865 179.346Z" fill="#CBC7BC"/>
<path d="M413.318 177.647L414.567 178.365L419.824 175.343L418.576 174.625L413.318 177.647Z" fill="#CBC7BC"/>
<path d="M425.234 172.207L421.489 174.36L420.241 173.642L423.986 171.489L425.234 172.207Z" fill="#CBC7BC"/>
<path d="M429.016 170.015L426.936 171.262L425.688 170.544L427.768 169.298L429.016 170.015Z" fill="#CBC7BC"/>
<path d="M405.602 187.431L400.988 190.113L399.739 189.395L404.354 186.713L405.602 187.431Z" fill="#CBC7BC"/>
<path d="M412.449 183.502L407.305 186.486L406.057 185.768L411.201 182.784L412.449 183.502Z" fill="#CBC7BC"/>
<path d="M412.865 181.84L414.114 182.557L418.69 179.913L417.442 179.195L412.865 181.84Z" fill="#CBC7BC"/>
<path d="M425.915 175.758L420.355 178.931L419.106 178.213L424.667 175.04L425.915 175.758Z" fill="#CBC7BC"/>
<path d="M432.421 171.98L427.617 174.776L426.369 174.058L431.173 171.263L432.421 171.98Z" fill="#CBC7BC"/>
<path d="M413.281 186.939L404.279 192.152L403.03 191.435L412.033 186.222L413.281 186.939Z" fill="#CBC7BC"/>
<path d="M419.674 183.275L414.946 185.995L413.697 185.277L418.426 182.557L419.674 183.275Z" fill="#CBC7BC"/>
<path d="M420.09 181.576L421.338 182.293L426.634 179.271L425.348 178.554L420.09 181.576Z" fill="#CBC7BC"/>
<path d="M410.104 192.681L407.796 194.041L406.548 193.324L408.855 191.964L410.104 192.681Z" fill="#CBC7BC"/>
<path d="M419.257 187.431L411.768 191.737L410.52 191.019L417.971 186.713L419.257 187.431Z" fill="#CBC7BC"/>
<path d="M419.674 185.731L420.922 186.448L425.461 183.842L424.213 183.124L419.674 185.731Z" fill="#CBC7BC"/>
<path d="M322.611 269.669L320.039 271.142L318.791 270.424L321.363 268.951L322.611 269.669Z" fill="#CBC7BC"/>
<path d="M328.096 266.496L324.313 268.687L323.027 267.969L326.81 265.778L328.096 266.496Z" fill="#CBC7BC"/>
<path d="M340.163 259.545L329.761 265.551L328.513 264.833L338.915 258.827L340.163 259.545Z" fill="#CBC7BC"/>
<path d="M345.988 256.182L341.864 258.562L340.616 257.845L344.739 255.465L345.988 256.182Z" fill="#CBC7BC"/>
<path d="M346.404 254.483L347.69 255.201L354.386 251.348L353.1 250.63L346.404 254.483Z" fill="#CBC7BC"/>
<path d="M359.795 248.212L356.05 250.403L354.802 249.647L358.547 247.494L359.795 248.212Z" fill="#CBC7BC"/>
<path d="M364.674 245.417L361.459 247.268L360.211 246.55L363.426 244.699L364.674 245.417Z" fill="#CBC7BC"/>
<path d="M329.231 269.745L323.406 273.107L322.157 272.389L327.982 269.027L329.231 269.745Z" fill="#CBC7BC"/>
<path d="M334.716 266.609L330.934 268.8L329.647 268.082L333.43 265.891L334.716 266.609Z" fill="#CBC7BC"/>
<path d="M340.995 262.982L336.38 265.627L335.132 264.909L339.747 262.265L340.995 262.982Z" fill="#CBC7BC"/>
<path d="M345.572 260.339L342.697 262.001L341.449 261.283L344.324 259.621L345.572 260.339Z" fill="#CBC7BC"/>
<path d="M345.988 258.676L347.237 259.394L355.521 254.634L354.272 253.879L345.988 258.676Z" fill="#CBC7BC"/>
<path d="M360.476 251.764L357.185 253.652L355.937 252.935L359.227 251.046L360.476 251.764Z" fill="#CBC7BC"/>
<path d="M370.953 245.719L362.178 250.781L360.892 250.063L369.705 245.001L370.953 245.719Z" fill="#CBC7BC"/>
<path d="M329.42 273.598L326.81 275.071L325.562 274.353L328.172 272.88L329.42 273.598Z" fill="#CBC7BC"/>
<path d="M334.867 270.425L331.084 272.616L329.836 271.898L333.619 269.707L334.867 270.425Z" fill="#CBC7BC"/>
<path d="M340.466 267.214L336.57 269.48L335.321 268.725L339.217 266.496L340.466 267.214Z" fill="#CBC7BC"/>
<path d="M352.796 260.111L342.167 266.231L340.919 265.513L351.548 259.393L352.796 260.111Z" fill="#CBC7BC"/>
<path d="M336.039 273.674L330.214 277.036L328.966 276.318L334.791 272.956L336.039 273.674Z" fill="#CBC7BC"/>
<path d="M341.487 270.538L337.704 272.729L336.456 272.011L340.239 269.82L341.487 270.538Z" fill="#CBC7BC"/>
<path d="M347.804 266.912L343.189 269.556L341.94 268.838L346.555 266.156L347.804 266.912Z" fill="#CBC7BC"/>
<path d="M352.343 264.267L349.468 265.93L348.22 265.212L351.095 263.55L352.343 264.267Z" fill="#CBC7BC"/>
<path d="M352.797 262.567L354.045 263.285L362.291 258.525L361.043 257.807L352.797 262.567Z" fill="#CBC7BC"/>
<path d="M372.163 241.11L366.338 244.472L365.09 243.755L370.877 240.392L372.163 241.11Z" fill="#CBC7BC"/>
<path d="M377.611 237.937L373.828 240.128L372.58 239.411L376.363 237.22L377.611 237.937Z" fill="#CBC7BC"/>
<path d="M389.905 230.873L379.276 236.993L378.027 236.275L388.657 230.155L389.905 230.873Z" fill="#CBC7BC"/>
<path d="M397.81 226.302L391.569 229.89L390.32 229.173L396.562 225.584L397.81 226.302Z" fill="#CBC7BC"/>
<path d="M398.227 224.64L399.475 225.358L405.338 221.958L404.09 221.24L398.227 224.64Z" fill="#CBC7BC"/>
<path d="M410.747 218.86L407.002 221.013L405.754 220.258L409.499 218.104L410.747 218.86Z" fill="#CBC7BC"/>
<path d="M378.783 241.223L372.617 244.736L371.369 244.019L377.497 240.468L378.783 241.223Z" fill="#CBC7BC"/>
<path d="M384.23 238.051L380.447 240.242L379.199 239.524L382.982 237.333L384.23 238.051Z" fill="#CBC7BC"/>
<path d="M390.547 234.424L385.933 237.068L384.646 236.35L389.299 233.706L390.547 234.424Z" fill="#CBC7BC"/>
<path d="M397.357 230.495L392.212 233.442L390.964 232.724L396.108 229.777L397.357 230.495Z" fill="#CBC7BC"/>
<path d="M397.81 228.796L399.058 229.513L404.202 226.529L402.954 225.811L397.81 228.796Z" fill="#CBC7BC"/>
<path d="M411.428 222.373L405.867 225.584L404.619 224.828L410.18 221.655L411.428 222.373Z" fill="#CBC7BC"/>
<path d="M378.935 245.039L373.11 248.363L371.861 247.646L377.687 244.321L378.935 245.039Z" fill="#CBC7BC"/>
<path d="M384.419 241.866L380.637 244.057L379.351 243.339L383.133 241.148L384.419 241.866Z" fill="#CBC7BC"/>
<path d="M392.136 237.408L386.084 240.883L384.836 240.166L390.888 236.69L392.136 237.408Z" fill="#CBC7BC"/>
<path d="M385.555 245.114L380.259 248.174L379.011 247.456L384.306 244.396L385.555 245.114Z" fill="#CBC7BC"/>
<path d="M391.039 241.979L387.257 244.17L385.971 243.415L389.791 241.262L391.039 241.979Z" fill="#CBC7BC"/>
<path d="M398.756 237.522L392.703 240.997L391.455 240.279L397.507 236.804L398.756 237.522Z" fill="#CBC7BC"/>
<path d="M309.334 262.001L306.762 263.512L305.514 262.794L308.086 261.283L309.334 262.001Z" fill="#CBC7BC"/>
<path d="M314.819 258.865L311.036 261.056L309.75 260.301L313.533 258.147L314.819 258.865Z" fill="#CBC7BC"/>
<path d="M326.886 251.877L316.484 257.883L315.235 257.165L325.675 251.159L326.886 251.877Z" fill="#CBC7BC"/>
<path d="M332.711 248.514L328.588 250.894L327.34 250.177L331.463 247.797L332.711 248.514Z" fill="#CBC7BC"/>
<path d="M333.127 246.852L334.413 247.569L341.108 243.679L339.86 242.961L333.127 246.852Z" fill="#CBC7BC"/>
<path d="M346.517 240.582L342.773 242.735L341.524 242.017L345.269 239.864L346.517 240.582Z" fill="#CBC7BC"/>
<path d="M351.397 237.748L348.182 239.599L346.934 238.881L350.149 237.03L351.397 237.748Z" fill="#CBC7BC"/>
<path d="M315.954 262.114L310.166 265.476L308.918 264.758L314.705 261.396L315.954 262.114Z" fill="#CBC7BC"/>
<path d="M321.439 258.94L317.656 261.131L316.37 260.414L320.191 258.223L321.439 258.94Z" fill="#CBC7BC"/>
<path d="M327.718 255.314L323.103 257.996L321.854 257.279L326.469 254.597L327.718 255.314Z" fill="#CBC7BC"/>
<path d="M332.295 252.708L329.42 254.37L328.172 253.614L331.047 251.99L332.295 252.708Z" fill="#CBC7BC"/>
<path d="M332.711 251.008L333.959 251.725L342.243 246.966L340.995 246.248L332.711 251.008Z" fill="#CBC7BC"/>
<path d="M347.198 244.095L343.907 245.983L342.659 245.266L345.95 243.377L347.198 244.095Z" fill="#CBC7BC"/>
<path d="M357.676 238.051L348.9 243.113L347.614 242.395L356.428 237.333L357.676 238.051Z" fill="#CBC7BC"/>
<path d="M358.887 233.442L353.062 236.804L351.813 236.087L357.601 232.724L358.887 233.442Z" fill="#CBC7BC"/>
<path d="M364.334 230.306L360.551 232.497L359.303 231.78L363.085 229.589L364.334 230.306Z" fill="#CBC7BC"/>
<path d="M376.627 223.204L366.036 229.324L364.75 228.606L375.379 222.486L376.627 223.204Z" fill="#CBC7BC"/>
<path d="M384.533 218.672L378.291 222.26L377.043 221.543L383.284 217.954L384.533 218.672Z" fill="#CBC7BC"/>
<path d="M384.949 216.971L386.197 217.689L392.061 214.327L390.812 213.609L384.949 216.971Z" fill="#CBC7BC"/>
<path d="M397.47 211.191L393.725 213.344L392.477 212.627L396.221 210.474L397.47 211.191Z" fill="#CBC7BC"/>
<path d="M365.507 233.556L359.341 237.069L358.093 236.351L364.221 232.838L365.507 233.556Z" fill="#CBC7BC"/>
<path d="M370.954 230.382L367.171 232.573L365.923 231.855L369.705 229.664L370.954 230.382Z" fill="#CBC7BC"/>
<path d="M377.27 226.756L372.655 229.438L371.369 228.72L376.022 226.038L377.27 226.756Z" fill="#CBC7BC"/>
<path d="M384.079 222.827L378.935 225.774L377.687 225.056L382.831 222.109L384.079 222.827Z" fill="#CBC7BC"/>
<path d="M384.533 221.127L385.781 221.845L390.926 218.898L389.678 218.181L384.533 221.127Z" fill="#CBC7BC"/>
<path d="M398.151 214.705L392.59 217.916L391.342 217.198L396.902 213.987L398.151 214.705Z" fill="#CBC7BC"/>
<path d="M425.726 194.91L417.405 199.708L416.156 198.99L424.478 194.192L425.726 194.91Z" fill="#CBC7BC"/>
<path d="M432.799 190.83L427.428 193.928L426.142 193.21L431.551 190.112L432.799 190.83Z" fill="#CBC7BC"/>
<path d="M433.216 189.13L434.464 189.848L439.722 186.826L438.474 186.108L433.216 189.13Z" fill="#CBC7BC"/>
<path d="M445.131 183.69L441.424 185.844L440.176 185.126L443.883 182.973L445.131 183.69Z" fill="#CBC7BC"/>
<path d="M448.951 181.5L446.833 182.746L445.585 182.029L447.703 180.782L448.951 181.5Z" fill="#CBC7BC"/>
<path d="M425.537 198.915L420.922 201.597L419.674 200.879L424.289 198.197L425.537 198.915Z" fill="#CBC7BC"/>
<path d="M432.346 194.986L427.201 197.97L425.953 197.253L431.098 194.268L432.346 194.986Z" fill="#CBC7BC"/>
<path d="M432.799 193.324L434.047 194.042L438.586 191.397L437.338 190.68L432.799 193.324Z" fill="#CBC7BC"/>
<path d="M215.639 210.776L205.01 204.77C205.01 204.77 205.01 204.543 205.01 204.43L209.133 202.05C209.959 201.565 210.898 201.305 211.856 201.295C212.8 201.291 213.727 201.539 214.542 202.012L215.374 202.504C216.395 203.07 216.547 203.75 215.904 204.468C216.434 204.214 217.019 204.097 217.606 204.128C218.242 204.17 218.862 204.351 219.422 204.657L220.519 205.299C221.389 205.79 221.805 206.319 221.767 206.848C221.729 207.377 221.351 207.906 220.481 208.397L216.206 210.852C216.114 210.895 216.012 210.911 215.912 210.897C215.811 210.884 215.716 210.842 215.639 210.776ZM211.365 206.168L213.634 204.883C214.504 204.355 214.542 203.863 213.634 203.372L212.84 202.919C212.463 202.672 212.023 202.54 211.573 202.54C211.122 202.54 210.682 202.672 210.305 202.919L207.998 204.241C207.998 204.241 207.998 204.241 207.998 204.43L210.986 206.168C211.044 206.201 211.109 206.218 211.175 206.218C211.242 206.218 211.307 206.201 211.365 206.168ZM216.358 209.039L218.779 207.641C219.649 207.15 219.686 206.659 218.779 206.168L217.682 205.563C217.292 205.314 216.839 205.182 216.377 205.182C215.914 205.182 215.461 205.314 215.072 205.563L212.689 206.961L215.904 208.85C215.953 208.922 216.022 208.978 216.103 209.011C216.183 209.045 216.272 209.054 216.358 209.039Z" fill="#341862" fill-opacity="0.2"/>
<path d="M220.178 195.591L221.275 194.986C221.364 194.924 221.469 194.891 221.578 194.891C221.686 194.891 221.791 194.924 221.88 194.986L230.089 199.708C230.921 200.212 231.337 200.741 231.337 201.295C231.337 201.824 230.921 202.352 230.051 202.844L228.122 203.977C227.305 204.448 226.379 204.695 225.436 204.695C224.493 204.695 223.567 204.448 222.75 203.977L214.542 199.217C214.34 199.217 214.34 199.104 214.542 198.877L215.639 198.273C215.73 198.216 215.834 198.185 215.942 198.185C216.049 198.185 216.154 198.216 216.244 198.273L224.339 202.957C224.724 203.198 225.17 203.326 225.625 203.326C226.08 203.326 226.526 203.198 226.911 202.957L228.311 202.126C229.193 201.672 229.193 201.181 228.311 200.653L220.178 195.968C220.002 195.842 220.002 195.716 220.178 195.591Z" fill="#341862" fill-opacity="0.2"/>
<path d="M232.131 198.386L231.677 198.122C231.476 198.122 231.476 198.008 231.677 197.782L232.812 197.139C232.897 197.086 232.995 197.057 233.096 197.057C233.196 197.057 233.295 197.086 233.379 197.139L233.72 197.328C234.131 197.58 234.6 197.723 235.082 197.744C235.575 197.718 236.054 197.576 236.481 197.328L237.692 196.61C238.183 196.346 238.41 196.082 238.41 195.817C238.41 195.553 238.146 195.288 237.616 194.986L237.238 194.759C236.836 194.532 236.372 194.439 235.914 194.495C235.414 194.525 234.926 194.653 234.476 194.873L232.812 195.477L231.034 196.044C230.409 196.16 229.768 196.16 229.143 196.044C228.422 195.961 227.726 195.73 227.1 195.364L226.382 194.948C225.549 194.457 225.096 193.966 225.096 193.4C225.096 192.833 225.549 192.304 226.382 191.813L228.235 190.755C229.061 190.273 230.002 190.025 230.959 190.037C231.914 190.034 232.853 190.282 233.682 190.755L234.06 190.982C234.237 190.982 234.237 191.095 234.06 191.322L232.926 191.964C232.841 192.018 232.742 192.046 232.642 192.046C232.541 192.046 232.443 192.018 232.358 191.964H232.131C231.714 191.694 231.228 191.55 230.732 191.55C230.235 191.55 229.749 191.694 229.332 191.964L228.235 192.606C227.743 192.908 227.516 193.173 227.516 193.437C227.516 193.702 227.819 193.966 228.349 194.268L228.878 194.571C229.222 194.73 229.596 194.812 229.975 194.812C230.354 194.812 230.728 194.73 231.072 194.571C231.523 194.434 231.965 194.27 232.396 194.079C232.924 193.83 233.467 193.616 234.023 193.437L235.573 193.06C236.137 192.966 236.712 192.966 237.276 193.06C237.89 193.166 238.48 193.383 239.016 193.702L239.696 194.079C240.529 194.583 240.945 195.112 240.945 195.666C240.945 196.195 240.529 196.724 239.696 197.215L237.729 198.348C236.904 198.83 235.962 199.078 235.006 199.066C234.001 199.129 233.001 198.893 232.131 198.386Z" fill="#341862" fill-opacity="0.2"/>
<path d="M235.649 187.053L246.24 193.135C246.417 193.135 246.417 193.248 246.24 193.475L245.143 194.117C245.053 194.174 244.948 194.205 244.841 194.205C244.734 194.205 244.629 194.174 244.538 194.117L233.947 187.998C233.77 187.998 233.77 187.884 233.947 187.658L235.044 187.053C235.127 186.979 235.235 186.938 235.346 186.938C235.458 186.938 235.566 186.979 235.649 187.053Z" fill="#341862" fill-opacity="0.2"/>
<path d="M250.515 191.02L249.456 191.624C249.365 191.681 249.26 191.711 249.153 191.711C249.046 191.711 248.941 191.681 248.85 191.624L238.259 185.504C238.083 185.504 238.083 185.391 238.259 185.164L239.243 184.635C239.425 184.566 239.627 184.566 239.81 184.635L251.574 186.562L244.198 182.104C244.198 182.104 244.009 181.878 244.198 181.764L245.257 181.122C245.348 181.065 245.452 181.035 245.56 181.035C245.667 181.035 245.772 181.065 245.862 181.122L256.454 187.242C256.454 187.242 256.68 187.469 256.454 187.582L255.508 188.111C255.276 188.198 255.021 188.198 254.789 188.111L243.139 186.222L250.515 190.566C250.515 190.566 250.742 190.906 250.515 191.02Z" fill="#341862" fill-opacity="0.2"/>
<path d="M265.154 182.558L259.593 185.882C259.502 185.939 259.398 185.969 259.29 185.969C259.183 185.969 259.078 185.939 258.988 185.882L248.396 179.8C248.22 179.8 248.22 179.687 248.396 179.46L253.957 176.211C254.051 176.165 254.155 176.141 254.26 176.141C254.365 176.141 254.468 176.165 254.562 176.211L255.432 176.703C255.621 176.703 255.621 176.929 255.432 177.042L251.46 179.347C251.46 179.347 251.46 179.347 251.46 179.574L254.373 181.236C254.436 181.272 254.508 181.291 254.581 181.291C254.654 181.291 254.726 181.272 254.789 181.236L258.118 179.309C258.207 179.247 258.312 179.214 258.42 179.214C258.529 179.214 258.634 179.247 258.723 179.309L259.631 179.838C259.631 179.838 259.631 180.065 259.631 180.178L256.302 182.104C256.302 182.104 256.302 182.293 256.302 182.331L259.404 184.144C259.46 184.182 259.526 184.202 259.593 184.202C259.66 184.202 259.726 184.182 259.782 184.144L263.754 181.878C263.839 181.824 263.937 181.796 264.038 181.796C264.138 181.796 264.237 181.824 264.321 181.878L265.229 182.407C265.343 182.369 265.343 182.482 265.154 182.558Z" fill="#341862" fill-opacity="0.2"/>
<path d="M264.737 179.687L264.284 179.422C264.284 179.422 264.284 179.196 264.284 179.082L265.381 178.44C265.471 178.32 265.605 178.24 265.754 178.219C265.903 178.198 266.054 178.237 266.175 178.327H266.477C266.887 178.598 267.367 178.743 267.858 178.743C268.349 178.743 268.83 178.598 269.239 178.327L270.449 177.609C270.941 177.345 271.206 177.042 271.206 176.816C271.206 176.589 270.941 176.287 270.411 175.985L269.957 176.06C269.555 175.835 269.092 175.743 268.634 175.796C268.128 175.837 267.631 175.952 267.158 176.136C266.704 176.363 266.137 176.551 265.532 176.778L263.754 177.345C263.116 177.462 262.463 177.462 261.825 177.345C261.116 177.262 260.433 177.03 259.82 176.665L259.101 176.249C258.231 175.758 257.815 175.229 257.815 174.7C257.815 174.172 258.231 173.605 259.064 173.114L260.917 172.056C261.755 171.566 262.707 171.306 263.678 171.301C264.625 171.306 265.553 171.567 266.364 172.056L266.742 172.283C266.969 172.283 266.969 172.396 266.742 172.623L265.645 173.265C265.555 173.322 265.45 173.352 265.343 173.352C265.236 173.352 265.131 173.322 265.04 173.265H264.813C264.404 172.994 263.924 172.849 263.432 172.849C262.941 172.849 262.461 172.994 262.052 173.265L260.955 173.907C260.463 174.209 260.198 174.474 260.198 174.738C260.198 175.003 260.501 175.267 261.068 175.569L261.598 175.871C261.942 176.03 262.316 176.113 262.695 176.113C263.074 176.113 263.448 176.03 263.792 175.871L265.078 175.38L266.553 174.814C267.074 174.652 267.604 174.526 268.142 174.436C268.705 174.342 269.28 174.342 269.844 174.436C270.446 174.542 271.024 174.76 271.546 175.078L272.227 175.456C273.097 175.947 273.513 176.476 273.513 177.042C273.513 177.609 273.097 178.1 272.227 178.591L270.298 179.725C269.469 180.198 268.53 180.446 267.574 180.442C266.576 180.465 265.592 180.203 264.737 179.687Z" fill="#341862" fill-opacity="0.2"/>
<path d="M274.27 174.209L273.74 173.945C273.538 173.945 273.538 173.832 273.74 173.605L274.837 172.963C274.928 172.906 275.033 172.875 275.14 172.875C275.247 172.875 275.352 172.906 275.442 172.963H275.745C276.146 173.254 276.629 173.412 277.126 173.412C277.622 173.412 278.105 173.254 278.506 172.963L279.717 172.283C280.208 171.981 280.473 171.716 280.473 171.452C280.473 171.187 280.208 170.923 279.679 170.621L279.301 170.394C278.898 170.169 278.435 170.076 277.977 170.129C277.466 170.165 276.966 170.293 276.501 170.507L274.875 171.149L273.097 171.716C272.472 171.832 271.831 171.832 271.206 171.716C270.484 171.639 269.787 171.407 269.163 171.036L268.52 170.772C267.65 170.281 267.234 169.752 267.234 169.185C267.234 168.618 267.65 168.127 268.52 167.636L270.336 166.579C271.163 166.097 272.102 165.844 273.059 165.844C274.016 165.844 274.956 166.097 275.783 166.579L276.161 166.805C276.388 166.805 276.388 167.032 276.161 167.145L275.026 167.787C274.936 167.844 274.831 167.875 274.724 167.875C274.616 167.875 274.512 167.844 274.421 167.787C274.002 167.518 273.519 167.361 273.021 167.334C272.521 167.35 272.036 167.507 271.622 167.787L270.525 168.392C270.033 168.694 269.768 168.958 269.806 169.223C269.844 169.487 270.071 169.752 270.638 170.092L271.168 170.394C271.514 170.544 271.888 170.621 272.265 170.621C272.642 170.621 273.016 170.544 273.362 170.394L274.686 169.865L276.123 169.336C276.639 169.157 277.171 169.03 277.712 168.958C278.275 168.864 278.851 168.864 279.414 168.958C280.024 169.082 280.611 169.299 281.154 169.601L281.797 170.016C282.667 170.507 283.083 170.998 283.083 171.565C283.083 172.132 282.667 172.66 281.797 173.114L279.868 174.247C279.046 174.742 278.104 175.004 277.144 175.003C276.132 175.001 275.139 174.727 274.27 174.209Z" fill="#341862" fill-opacity="0.2"/>
<path d="M287.963 166.314L287.509 166.05C287.282 166.05 287.282 165.936 287.509 165.71L288.606 165.068C288.696 165.01 288.801 164.98 288.908 164.98C289.016 164.98 289.12 165.01 289.211 165.068H289.514C289.927 165.315 290.394 165.458 290.875 165.483C291.375 165.467 291.861 165.31 292.275 165.03L293.485 164.35C293.977 164.048 294.204 163.783 294.204 163.519C294.204 163.254 293.939 162.99 293.448 162.688L293.031 162.461C292.637 162.25 292.191 162.158 291.745 162.197C291.238 162.251 290.741 162.378 290.27 162.574L288.606 163.216L286.866 163.783C286.228 163.9 285.574 163.9 284.937 163.783C284.228 163.7 283.545 163.468 282.932 163.103L282.175 162.688C281.343 162.209 280.927 161.68 280.927 161.101C280.927 160.572 281.343 160.043 282.175 159.552L284.029 158.494C284.855 158.009 285.794 157.749 286.752 157.739C287.712 157.738 288.654 157.999 289.476 158.494L289.854 158.683C290.056 158.683 290.056 158.797 289.854 159.023L288.757 159.666C288.667 159.723 288.562 159.753 288.455 159.753C288.347 159.753 288.243 159.723 288.152 159.666H287.925C287.511 159.385 287.025 159.228 286.525 159.212C286.031 159.257 285.553 159.412 285.126 159.666L284.067 160.308C283.537 160.572 283.31 160.837 283.31 161.101C283.31 161.365 283.613 161.63 284.142 161.97L284.71 162.272C285.046 162.433 285.415 162.516 285.788 162.516C286.161 162.516 286.529 162.433 286.866 162.272C287.32 162.129 287.762 161.952 288.19 161.743C288.671 161.538 289.163 161.362 289.665 161.214C290.18 161.035 290.713 160.908 291.254 160.837C291.804 160.743 292.367 160.743 292.918 160.837C293.53 160.929 294.12 161.134 294.658 161.441L295.339 161.857C296.209 162.348 296.625 162.876 296.625 163.405C296.625 163.934 296.209 164.501 295.339 164.992L293.41 166.087C292.584 166.573 291.645 166.833 290.686 166.843C289.747 166.913 288.807 166.731 287.963 166.314Z" fill="#341862" fill-opacity="0.2"/>
<path d="M303.472 160.497L302.375 161.101C302.286 161.163 302.18 161.196 302.072 161.196C301.964 161.196 301.858 161.163 301.769 161.101L292.653 155.661C292.606 155.621 292.545 155.599 292.483 155.599C292.421 155.599 292.36 155.621 292.313 155.661L290.119 156.908C290.028 156.965 289.923 156.995 289.816 156.995C289.709 156.995 289.604 156.965 289.514 156.908L288.644 156.417C288.644 156.417 288.644 156.19 288.644 156.077L295.112 152.299C295.203 152.242 295.307 152.212 295.415 152.212C295.522 152.212 295.627 152.242 295.717 152.299L296.587 152.79C296.814 152.79 296.814 153.017 296.587 153.168L294.393 154.415C294.393 154.415 294.393 154.415 294.393 154.641L303.623 159.968C303.623 159.968 303.661 160.383 303.472 160.497Z" fill="#341862" fill-opacity="0.2"/>
<path d="M309.335 157.097L308.276 157.739C308.185 157.796 308.08 157.826 307.973 157.826C307.866 157.826 307.761 157.796 307.67 157.739L297.079 151.619C296.852 151.619 296.852 151.506 297.079 151.279L301.126 148.937C301.986 148.394 302.983 148.105 304.001 148.106C304.959 148.116 305.898 148.376 306.725 148.862L308.162 149.693C309.524 150.448 309.789 151.279 309.032 152.11L315.122 153.357C315.5 153.357 315.5 153.47 315.122 153.697L314.063 154.339C313.796 154.448 313.497 154.448 313.231 154.339L307.368 153.13L305.59 154.15C305.59 154.15 305.59 154.15 305.59 154.339L309.372 156.568C309.574 156.82 309.562 156.996 309.335 157.097ZM304.001 153.546L306.195 152.261C307.065 151.77 307.065 151.279 306.195 150.788L304.72 149.919C304.334 149.678 303.889 149.55 303.434 149.55C302.979 149.55 302.533 149.678 302.148 149.919L299.954 151.204C299.954 151.204 299.954 151.204 299.954 151.43L303.736 153.546C303.778 153.563 303.823 153.573 303.869 153.573C303.914 153.573 303.959 153.563 304.001 153.546Z" fill="#341862" fill-opacity="0.2"/>
<path d="M317.997 152.11L316.749 152.828C316.686 152.884 316.605 152.915 316.522 152.915C316.438 152.915 316.357 152.884 316.295 152.828L308.729 144.971C308.729 144.971 308.729 144.706 308.729 144.555L310.469 143.573C310.574 143.517 310.691 143.487 310.81 143.487C310.929 143.487 311.046 143.517 311.15 143.573L324.806 147.917C325.033 147.917 325.07 148.106 324.806 148.219L323.557 148.937H322.952L320.039 148.03L316.257 150.222L317.883 151.921C317.883 151.921 318.148 151.884 317.997 152.11ZM311.339 144.971L315.349 149.05L318.489 147.237L311.566 144.933L311.339 144.971Z" fill="#341862" fill-opacity="0.2"/>
<path d="M329.988 145.197L328.891 145.839C328.8 145.897 328.695 145.927 328.588 145.927C328.481 145.927 328.376 145.897 328.286 145.839L319.132 140.551C319.081 140.517 319.022 140.499 318.961 140.499C318.901 140.499 318.841 140.517 318.791 140.551L316.559 141.797C316.469 141.855 316.364 141.885 316.257 141.885C316.15 141.885 316.045 141.855 315.954 141.797L315.084 141.269C315.084 141.269 315.084 141.042 315.084 140.929L321.553 137.151C321.643 137.094 321.748 137.064 321.855 137.064C321.962 137.064 322.067 137.094 322.158 137.151L323.066 137.642C323.066 137.642 323.066 137.907 323.066 138.02L320.872 139.266C320.872 139.266 320.872 139.266 320.872 139.493L330.101 144.82C330.227 144.971 330.19 145.097 329.988 145.197Z" fill="#341862" fill-opacity="0.2"/>
<path d="M340.352 139.229L334.792 142.44C334.701 142.497 334.596 142.527 334.489 142.527C334.382 142.527 334.277 142.497 334.186 142.44L323.595 136.32C323.595 136.32 323.368 136.093 323.595 135.98L329.156 132.769C329.24 132.715 329.339 132.687 329.439 132.687C329.54 132.687 329.638 132.715 329.723 132.769L330.631 133.298C330.833 133.298 330.833 133.411 330.631 133.638L326.848 135.904C326.848 135.904 326.848 135.904 326.848 136.131L329.799 137.831C329.799 137.831 330.026 137.831 330.177 137.831L333.543 135.904C333.634 135.847 333.739 135.817 333.846 135.817C333.953 135.817 334.058 135.847 334.149 135.904L335.019 136.395C335.246 136.395 335.246 136.622 335.019 136.773L331.652 138.7C331.652 138.7 331.652 138.7 331.652 138.926L334.754 140.702C334.817 140.738 334.889 140.758 334.962 140.758C335.035 140.758 335.107 140.738 335.17 140.702L338.953 138.398C339.033 138.333 339.133 138.298 339.236 138.298C339.339 138.298 339.439 138.333 339.52 138.398L340.39 138.889C340.541 139.002 340.541 139.115 340.352 139.229Z" fill="#341862" fill-opacity="0.2"/>
<path d="M347.237 135.262L345.345 136.32C344.537 136.814 343.607 137.076 342.66 137.076C341.712 137.076 340.782 136.814 339.974 136.32L334.262 132.996C333.43 132.505 332.976 131.976 332.976 131.447C332.976 130.918 333.43 130.389 334.262 129.86L336.153 128.803C336.962 128.308 337.891 128.047 338.839 128.047C339.787 128.047 340.716 128.308 341.525 128.803L342.168 129.18C342.168 129.18 342.395 129.407 342.168 129.52L341.071 130.162C340.982 130.224 340.876 130.257 340.768 130.257C340.66 130.257 340.554 130.224 340.466 130.162L339.936 129.86C339.548 129.627 339.103 129.504 338.65 129.504C338.197 129.504 337.752 129.627 337.364 129.86L336.002 130.654C335.17 131.145 335.17 131.636 336.002 132.127L341.638 135.376C342.02 135.626 342.467 135.759 342.924 135.759C343.381 135.759 343.828 135.626 344.21 135.376L345.572 134.582C346.404 134.091 346.404 133.6 345.572 133.109L344.021 132.202C343.962 132.175 343.897 132.161 343.832 132.161C343.767 132.161 343.702 132.175 343.643 132.202L342.243 132.996C342.153 133.053 342.048 133.083 341.941 133.083C341.834 133.083 341.729 133.053 341.638 132.996L340.768 132.505C340.541 132.505 340.541 132.391 340.768 132.165L343.681 130.465C343.787 130.393 343.912 130.355 344.04 130.355C344.168 130.355 344.293 130.393 344.4 130.465L347.35 132.165C348.182 132.618 348.598 133.147 348.598 133.713C348.598 134.28 348.069 134.771 347.237 135.262Z" fill="#341862" fill-opacity="0.2"/>
<path d="M355.974 130.2L354.877 130.842C354.787 130.899 354.682 130.93 354.575 130.93C354.468 130.93 354.363 130.899 354.272 130.842L350.49 128.614L340.503 126.611H340.277C340.277 126.611 340.277 126.611 340.277 126.423L341.827 125.44C342.038 125.381 342.26 125.381 342.47 125.44L349.393 126.989L346.82 122.947C346.82 122.947 346.82 122.683 346.82 122.569L348.182 121.776H348.485C348.558 121.75 348.638 121.75 348.712 121.776L352.192 127.518L355.974 129.747C356.201 129.923 356.201 130.074 355.974 130.2Z" fill="#341862" fill-opacity="0.2"/>
<path d="M430.87 294.526C430.286 293.767 429.599 293.093 428.828 292.524C428.303 292.048 427.685 291.688 427.012 291.466H426.634C426.245 291.411 425.85 291.411 425.461 291.466C424.894 290.106 422.889 288.822 419.485 287.689L418.35 287.349C417.48 287.088 416.57 286.985 415.664 287.046C413.962 287.046 414.038 288.066 414.113 288.444H414.34C414.719 288.444 415.589 288.444 415.513 288.444C415.437 288.444 415.513 287.802 416.156 287.613C416.552 287.502 416.971 287.502 417.366 287.613L418.199 287.877C419.211 288.159 420.198 288.526 421.149 288.973C422.284 289.363 423.264 290.104 423.948 291.088C422.46 290.943 420.957 291.084 419.522 291.504C419.21 291.331 418.88 291.192 418.539 291.088H417.82C415.778 291.088 416.005 291.806 415.853 292.108C415.702 292.411 414.756 292.939 414.34 293.393C413.924 293.846 414.34 294.526 414.643 295.055C414.784 295.97 414.639 296.907 414.227 297.737L411.503 295.093C411.278 295.051 411.047 295.051 410.822 295.093C409.952 294.337 409.007 293.582 408.023 292.864C407.306 292.304 406.547 291.799 405.754 291.353C404.982 290.888 404.157 290.52 403.295 290.257H402.69C399.323 289.653 400.231 291.202 400.382 291.579C400.943 292.946 401.574 294.282 402.274 295.584C403.142 297.299 404.222 298.898 405.489 300.344C406.228 301.214 407.038 302.023 407.91 302.761C408.406 303.165 408.988 303.45 409.612 303.592L410.709 303.819C411.021 303.88 411.342 303.88 411.655 303.819C412.827 303.403 412.827 302.912 412.903 302.383C412.978 301.617 412.978 300.845 412.903 300.079C412.864 299.595 412.788 299.116 412.676 298.644C413.525 299.666 414.098 300.888 414.34 302.195C414.429 303.001 414.329 303.817 414.046 304.578C413.764 305.338 413.308 306.023 412.714 306.577C411.142 307.84 409.307 308.736 407.344 309.2C405.38 309.664 403.338 309.684 401.366 309.259C400.609 309.259 400.231 309.259 400.685 309.599H400.95C410.406 310.581 414.075 307.143 415.135 305.405C415.692 304.427 415.936 303.302 415.835 302.181C415.734 301.06 415.291 299.997 414.567 299.135C414.908 299.135 415.21 299.135 415.286 299.135C415.748 298.5 416.05 297.764 416.169 296.989C416.287 296.213 416.218 295.42 415.967 294.677C415.967 294.186 415.967 293.959 416.61 293.506C416.867 293.356 417.097 293.165 417.291 292.939C417.291 292.939 417.291 292.524 417.291 292.448C417.682 292.307 418.11 292.307 418.501 292.448H418.728C418.123 292.752 417.624 293.233 417.3 293.827C416.976 294.421 416.84 295.1 416.912 295.773C416.912 296.868 417.707 298.001 419.712 299.021C420.645 299.47 421.621 299.824 422.624 300.079C424.205 300.488 425.834 300.678 427.466 300.646C431.249 300.646 431.476 299.588 431.703 298.832C431.963 298.106 432.023 297.323 431.877 296.565C431.73 295.808 431.383 295.104 430.87 294.526ZM410.822 302.988H410.595C409.47 302.682 408.499 301.968 407.872 300.986C407.255 300.431 406.674 299.838 406.132 299.21C405.126 297.942 404.252 296.575 403.522 295.13C403.131 294.445 402.778 293.738 402.463 293.015C402.463 292.637 402.122 292.259 401.971 291.919C401.82 291.579 401.252 291.088 401.517 290.824C401.013 290.471 401.391 290.396 402.652 290.597H403.144C403.752 290.782 404.327 291.062 404.846 291.428C405.825 292.029 406.761 292.698 407.645 293.43C408.628 294.224 409.612 295.017 410.444 295.81C410.886 296.837 411.191 297.916 411.352 299.021C411.408 299.688 411.408 300.357 411.352 301.023C411.541 301.628 411.882 302.383 410.822 302.988ZM424.099 291.655C423.365 291.902 422.685 292.287 422.095 292.788L420.317 291.655C421.539 291.217 422.877 291.217 424.099 291.655ZM429.963 299.21C428.785 299.768 427.479 300.003 426.18 299.89C425.338 299.84 424.502 299.713 423.683 299.512H423.456C422.659 299.319 421.886 299.041 421.149 298.681C420.091 298.262 419.192 297.522 418.577 296.566C418.391 296.203 418.294 295.802 418.294 295.395C418.294 294.988 418.391 294.586 418.577 294.224C418.772 293.764 419.026 293.333 419.333 292.939L419.636 292.637L421.565 293.506C421.961 293.617 422.38 293.617 422.776 293.506L424.478 292.486L425.045 291.655C425.332 291.596 425.628 291.596 425.915 291.655C426.298 291.764 426.657 291.944 426.974 292.184C427.79 292.752 428.528 293.425 429.168 294.186C429.703 294.843 430.067 295.621 430.227 296.453C430.492 297.284 430.833 298.266 429.963 298.908V299.21Z" fill="#CBC7BC"/>
<path d="M482.692 251.725L474.219 256.523L472.971 255.805L481.293 251.008L482.692 251.725ZM488.479 246.928L483.108 250.101L484.356 250.819L489.728 247.721L488.479 246.928ZM490.182 245.983L491.43 246.701L496.688 243.641L495.44 242.924L490.182 245.983ZM481.217 255.05L476.602 257.694L477.85 258.412L482.465 255.767L481.217 255.05ZM488.063 251.272L482.919 254.219L484.167 254.936L489.349 251.839L488.063 251.272ZM489.728 250.101L490.976 250.819L497.52 247.041L496.272 246.323L489.728 250.101Z" fill="#CBC7BC"/>
<path d="M393.006 303.441L384.684 308.239L383.436 307.521L391.757 302.723L393.006 303.441ZM396.523 299.966L393.422 301.741L394.67 302.459L397.772 300.683L396.523 299.966ZM391.568 306.765L386.916 309.447L388.202 310.165L392.816 307.521L391.568 306.765ZM396.07 304.159L393.233 305.821L394.481 306.539L397.356 304.877L396.07 304.159Z" fill="#CBC7BC"/>
<path d="M499.639 238.769C499.639 245.908 509.7 251.688 522.07 251.688C534.439 251.688 544.501 245.908 544.501 238.769C544.501 231.629 534.477 225.811 522.07 225.811C509.663 225.811 499.639 231.591 499.639 238.769ZM543.631 238.769C543.631 245.606 533.985 251.197 522.07 251.197C510.154 251.197 500.698 245.568 500.698 238.769C500.698 231.969 510.344 226.34 522.221 226.34C534.098 226.34 543.631 231.856 543.631 238.769Z" fill="#7676DE"/>
<path d="M506.712 238.768C506.712 243.679 513.596 247.645 522.069 247.645C530.542 247.645 537.465 243.679 537.465 238.768C537.465 233.857 530.58 229.891 522.069 229.891C513.558 229.891 506.712 233.819 506.712 238.768ZM532.169 238.768C532.169 241.979 527.668 244.585 522.069 244.585C516.471 244.585 512.045 241.941 512.045 238.768C512.045 235.595 516.547 232.95 522.107 232.95C527.668 232.95 532.169 235.519 532.169 238.768Z" fill="#7676DE"/>
<path d="M501.87 238.768C501.87 245.19 510.911 250.441 522.069 250.441C533.228 250.441 542.306 245.152 542.306 238.768C542.306 232.384 533.266 227.095 522.069 227.095C510.873 227.095 501.87 232.271 501.87 238.768ZM541.512 238.768C541.512 244.963 532.812 250.101 522.069 250.101C511.327 250.101 502.664 245.115 502.664 238.768C502.664 232.422 511.365 227.435 522.069 227.435C532.774 227.435 541.512 232.535 541.512 238.768Z" fill="#7676DE"/>
<path d="M291.064 32.4355C290.957 33.2112 290.677 33.9531 290.245 34.6067C289.813 35.2603 289.24 35.8092 288.568 36.2131C287.168 37.0064 286.071 36.5153 286.071 35.1553C286.171 34.3771 286.448 33.632 286.881 32.9772C287.313 32.3224 287.89 31.7752 288.568 31.3777C289.93 30.5844 291.064 31 291.064 32.4355Z" fill="#EEE8DE"/>
<path d="M235.498 131.673C235.418 132.482 235.15 133.261 234.717 133.949C234.284 134.638 233.697 135.216 233.001 135.639C231.602 136.433 230.505 135.941 230.505 134.581C230.576 133.77 230.84 132.987 231.274 132.297C231.708 131.608 232.3 131.031 233.001 130.615C234.363 129.822 235.498 130.313 235.498 131.673Z" fill="#EEE8DE"/>
<path d="M197.179 174.549C197.069 175.324 196.788 176.065 196.356 176.718C195.924 177.372 195.353 177.921 194.683 178.327C193.283 179.12 192.148 178.629 192.148 177.269C192.227 176.455 192.498 175.671 192.938 174.982C193.379 174.292 193.977 173.717 194.683 173.303C196.045 172.698 197.179 173.152 197.179 174.549Z" fill="#EEE8DE"/>
<path d="M177.396 201.975H177.169C177.065 201.918 176.987 201.824 176.951 201.711C176.916 201.598 176.926 201.476 176.98 201.37L183.637 188.111C183.711 188.005 183.817 187.925 183.94 187.884C183.999 187.857 184.064 187.843 184.129 187.843C184.194 187.843 184.259 187.857 184.318 187.884L189.954 191.662L194.304 175.72C194.336 175.613 194.402 175.52 194.494 175.456L200.924 171.489C200.966 171.447 201.016 171.413 201.071 171.391C201.127 171.368 201.186 171.356 201.246 171.356C201.305 171.356 201.364 171.368 201.42 171.391C201.475 171.413 201.525 171.447 201.567 171.489L207.581 180.82L208.754 176.551C208.77 176.493 208.799 176.44 208.838 176.394C208.878 176.348 208.926 176.312 208.981 176.287L213.218 174.02L216.168 163.519C216.196 163.425 216.253 163.343 216.332 163.285C216.41 163.226 216.505 163.195 216.603 163.195C216.701 163.195 216.796 163.226 216.874 163.285C216.953 163.343 217.01 163.425 217.038 163.519L221.199 173.869L232.547 133.033C232.588 132.92 232.668 132.826 232.774 132.769L242.987 126.876C243.053 126.848 243.123 126.833 243.195 126.833C243.266 126.833 243.337 126.848 243.403 126.876C243.466 126.893 243.524 126.927 243.57 126.973C243.617 127.019 243.65 127.077 243.668 127.14L252.254 148.408L257.323 145.499L288.114 33.7578C288.142 33.6669 288.197 33.5864 288.271 33.526C288.345 33.4657 288.435 33.4281 288.53 33.4178C288.604 33.442 288.673 33.4813 288.732 33.5333C288.79 33.5854 288.837 33.6489 288.87 33.7201L314.214 96.3905L329.874 89.0997C329.921 89.0598 329.982 89.0378 330.044 89.0378C330.106 89.0378 330.167 89.0598 330.214 89.0997C330.278 89.1171 330.335 89.1506 330.382 89.1969C330.428 89.2433 330.462 89.3009 330.479 89.3642L338.347 108.743C338.378 108.859 338.368 108.982 338.32 109.092C338.272 109.202 338.188 109.292 338.082 109.348C338.025 109.372 337.964 109.384 337.902 109.384C337.84 109.384 337.779 109.371 337.722 109.346C337.666 109.321 337.615 109.285 337.572 109.24C337.53 109.195 337.498 109.141 337.477 109.083L329.912 90.1952L314.289 97.486C314.166 97.5239 314.034 97.5239 313.911 97.486C313.856 97.461 313.808 97.4243 313.769 97.3787C313.729 97.333 313.701 97.2794 313.684 97.2216L288.643 35.3444L258.155 145.839C258.139 145.897 258.11 145.951 258.071 145.996C258.032 146.042 257.983 146.079 257.928 146.104L252.254 149.39C252.196 149.42 252.131 149.436 252.065 149.436C251.999 149.436 251.935 149.42 251.876 149.39C251.816 149.368 251.761 149.332 251.715 149.287C251.669 149.241 251.634 149.186 251.611 149.126L243.025 127.858L233.379 133.411L221.804 175.342C221.786 175.439 221.735 175.526 221.658 175.589C221.582 175.651 221.486 175.684 221.388 175.682C221.292 175.678 221.199 175.647 221.119 175.594C221.039 175.541 220.975 175.467 220.934 175.38L216.773 165.03L214.125 174.549C214.112 174.613 214.084 174.673 214.045 174.725C214.006 174.777 213.956 174.82 213.898 174.851L209.7 177.231L208.262 182.104C208.24 182.192 208.193 182.272 208.125 182.332C208.058 182.393 207.974 182.432 207.884 182.444C207.815 182.484 207.737 182.505 207.657 182.505C207.577 182.505 207.499 182.484 207.43 182.444L201.113 172.509L195.212 176.287L190.522 192.644C190.5 192.719 190.461 192.789 190.409 192.848C190.357 192.907 190.292 192.953 190.219 192.984C190.085 193.036 189.937 193.036 189.803 192.984L184.091 189.206L177.661 201.975C177.574 201.999 177.483 201.999 177.396 201.975Z" fill="#EEE8DE"/>
<path d="M326.696 61.2208C326.625 62.0323 326.361 62.8151 325.927 63.5048C325.493 64.1945 324.901 64.7712 324.2 65.1873C322.8 65.9806 321.703 65.5273 321.703 64.1296C321.808 63.353 322.087 62.6101 322.519 61.9561C322.952 61.302 323.526 60.7537 324.2 60.352C325.599 59.3698 326.696 59.8609 326.696 61.2208Z" fill="#E63114"/>
<path d="M248.283 127.14C248.198 127.952 247.925 128.734 247.485 129.423C247.045 130.111 246.451 130.688 245.748 131.106C244.387 131.9 243.252 131.409 243.252 130.049C243.36 129.273 243.64 128.531 244.072 127.878C244.504 127.224 245.077 126.675 245.748 126.271C247.262 125.44 248.283 125.742 248.283 127.14Z" fill="#E63114"/>
<path d="M294.582 97.9396C294.51 98.751 294.247 99.5339 293.813 100.224C293.379 100.913 292.787 101.49 292.085 101.906C290.686 102.699 289.589 102.246 289.589 100.848C289.694 100.072 289.973 99.3288 290.405 98.6748C290.837 98.0208 291.412 97.4725 292.085 97.0707C293.485 96.0885 294.582 96.5796 294.582 97.9396Z" fill="#E63114"/>
<path d="M209.964 149.541C209.88 150.353 209.607 151.135 209.167 151.823C208.727 152.512 208.132 153.089 207.43 153.507C206.068 154.301 204.934 153.809 204.934 152.45C205.041 151.674 205.321 150.932 205.753 150.278C206.185 149.625 206.758 149.076 207.43 148.672C208.83 147.69 209.964 148.105 209.964 149.541Z" fill="#E63114"/>
<path d="M190.144 209.341H189.955C189.9 209.316 189.85 209.281 189.809 209.237C189.768 209.194 189.736 209.142 189.714 209.086C189.693 209.03 189.684 208.97 189.686 208.91C189.688 208.85 189.702 208.791 189.728 208.736L191.051 206.13C191.094 206.049 191.16 205.983 191.241 205.941L202.588 199.632L207.165 150.826C207.171 150.749 207.195 150.675 207.234 150.61C207.274 150.544 207.328 150.489 207.392 150.448L213.823 146.67C213.886 146.634 213.958 146.615 214.031 146.615C214.104 146.615 214.176 146.634 214.239 146.67C214.366 146.747 214.46 146.868 214.504 147.01L222.409 183.502L227.592 180.518C227.662 180.481 227.74 180.462 227.819 180.462C227.898 180.462 227.975 180.481 228.046 180.518L229.748 181.424L231.677 178.251L235.46 176.022L245.105 128.689C245.113 128.623 245.138 128.56 245.178 128.507C245.218 128.454 245.271 128.413 245.332 128.387L255.583 122.456C255.646 122.419 255.718 122.4 255.791 122.4C255.864 122.4 255.936 122.419 255.999 122.456L264.586 126.649L269.957 123.551L275.404 115.581C275.485 115.465 275.607 115.385 275.744 115.354C275.744 115.354 276.047 115.354 276.123 115.354L282.931 122.909L291.367 99.4124C291.351 99.3376 291.351 99.2605 291.367 99.1858L302.904 92.5372C302.963 92.51 303.028 92.4959 303.093 92.4959C303.158 92.4959 303.223 92.51 303.282 92.5372C303.351 92.5521 303.415 92.5842 303.467 92.6305C303.52 92.6767 303.561 92.7356 303.585 92.8016L312.474 113.843L316.256 111.765L323.595 62.6563C323.603 62.559 323.646 62.4678 323.715 62.3987C323.784 62.3296 323.876 62.2871 323.973 62.2786C324.073 62.2539 324.179 62.2673 324.27 62.3161C324.361 62.365 324.43 62.4459 324.465 62.543L342.357 107.874L346.139 105.683C346.205 105.655 346.276 105.641 346.347 105.641C346.419 105.641 346.49 105.655 346.555 105.683C346.616 105.706 346.671 105.741 346.716 105.787C346.762 105.833 346.797 105.887 346.82 105.948L350.981 116.374C351.02 116.489 351.014 116.615 350.965 116.727C350.916 116.839 350.828 116.928 350.716 116.978C350.6 117.009 350.477 117 350.367 116.952C350.257 116.904 350.167 116.82 350.111 116.714L346.366 106.552L342.584 108.743C342.528 108.78 342.462 108.8 342.394 108.8C342.327 108.8 342.261 108.78 342.205 108.743C342.137 108.728 342.073 108.696 342.02 108.65C341.967 108.604 341.927 108.545 341.903 108.479L324.465 64.4318L317.353 111.916C317.348 111.988 317.324 112.056 317.285 112.116C317.245 112.176 317.19 112.224 317.126 112.256L312.852 114.712C312.796 114.749 312.73 114.769 312.663 114.769C312.596 114.769 312.53 114.749 312.474 114.712C312.41 114.694 312.353 114.661 312.306 114.615C312.26 114.568 312.226 114.511 312.209 114.447L303.32 93.406L292.35 99.7146L283.726 123.778C283.701 123.854 283.656 123.922 283.596 123.975C283.537 124.028 283.464 124.064 283.385 124.08C283.252 124.133 283.103 124.133 282.969 124.08L276.009 116.525L270.865 124.08L265.191 127.367C265.045 127.422 264.883 127.422 264.737 127.367L256.188 123.174L246.316 128.84L236.519 176.211C236.515 176.278 236.491 176.343 236.451 176.397C236.411 176.45 236.355 176.491 236.292 176.513L232.509 178.78L230.429 182.255C230.39 182.296 230.343 182.329 230.291 182.352C230.239 182.374 230.183 182.386 230.126 182.386C230.069 182.386 230.013 182.374 229.961 182.352C229.909 182.329 229.862 182.296 229.823 182.255L227.932 181.273L222.447 184.446C222.384 184.483 222.312 184.502 222.239 184.502C222.166 184.502 222.094 184.483 222.031 184.446C221.958 184.437 221.89 184.401 221.841 184.345C221.792 184.29 221.766 184.218 221.766 184.144L213.861 147.615L208.187 150.939L203.458 199.934C203.446 200.013 203.415 200.088 203.369 200.154C203.324 200.219 203.264 200.273 203.194 200.312L191.846 206.659L190.598 209.114C190.558 209.197 190.491 209.263 190.409 209.304C190.327 209.345 190.234 209.358 190.144 209.341Z" fill="#E63114"/>
<path d="M486.815 181.235C486.716 182.014 486.439 182.759 486.006 183.413C485.573 184.068 484.996 184.615 484.319 185.013C482.919 185.806 481.822 185.353 481.822 183.955C481.927 183.179 482.206 182.436 482.639 181.782C483.071 181.128 483.645 180.579 484.319 180.178C485.567 179.384 486.815 179.875 486.815 181.235Z" fill="#E63114"/>
<path d="M408.401 240.241C408.294 241.022 408.011 241.768 407.572 242.423C407.132 243.077 406.549 243.623 405.867 244.019C404.505 244.812 403.37 244.321 403.37 242.961C403.478 242.185 403.758 241.443 404.19 240.79C404.622 240.136 405.195 239.587 405.867 239.183C407.266 238.39 408.401 238.768 408.401 240.241Z" fill="#E63114"/>
<path d="M454.701 211.079C454.601 211.857 454.325 212.602 453.892 213.257C453.459 213.912 452.882 214.459 452.205 214.856C450.805 215.649 449.708 215.196 449.708 213.798C449.808 213.02 450.085 212.275 450.517 211.62C450.95 210.965 451.527 210.418 452.205 210.021C453.604 209.19 454.701 209.681 454.701 211.079Z" fill="#E63114"/>
<path d="M370.046 276.544C369.941 277.321 369.662 278.064 369.229 278.718C368.797 279.372 368.223 279.92 367.549 280.322C366.15 281.115 365.053 280.624 365.053 279.264C365.152 278.486 365.429 277.741 365.862 277.086C366.295 276.431 366.872 275.884 367.549 275.486C368.949 274.617 370.046 275.071 370.046 276.544Z" fill="#E63114"/>
<path d="M350.262 301.665C350.149 301.608 350.062 301.51 350.019 301.39C349.977 301.27 349.983 301.139 350.035 301.023L356.541 287.877C356.551 287.773 356.599 287.677 356.676 287.607C356.753 287.537 356.853 287.499 356.958 287.499C357.081 287.464 357.212 287.464 357.336 287.499L362.972 291.277L367.36 277.413C367.401 277.3 367.481 277.206 367.587 277.149L374.017 273.371C374.098 273.307 374.198 273.272 374.301 273.272C374.404 273.272 374.504 273.307 374.585 273.371L380.599 280.511L381.734 276.544C381.715 276.444 381.715 276.342 381.734 276.242L387.672 272.767C387.743 272.73 387.82 272.711 387.899 272.711C387.978 272.711 388.056 272.73 388.126 272.767L389.829 273.673L391.758 270.5L395.54 268.233L405.186 241.79C405.228 241.699 405.293 241.621 405.375 241.564L415.626 235.633C415.689 235.596 415.761 235.577 415.834 235.577C415.907 235.577 415.979 235.596 416.042 235.633L425.045 239.561L430.416 236.464L435.863 228.493C435.9 228.436 435.951 228.389 436.01 228.356C436.069 228.323 436.136 228.306 436.204 228.304C436.327 228.266 436.459 228.266 436.582 228.304L443.391 235.859L451.523 212.325C451.508 212.25 451.508 212.173 451.523 212.098L462.871 205.45H463.136L472.101 206.205L476.11 203.901L483.411 182.557C483.441 182.471 483.498 182.396 483.572 182.342C483.646 182.288 483.735 182.258 483.827 182.255C483.92 182.252 484.012 182.275 484.092 182.322C484.173 182.369 484.238 182.437 484.281 182.52L490.446 195.666L502.286 188.828C502.345 188.801 502.41 188.787 502.475 188.787C502.541 188.787 502.605 188.801 502.664 188.828C502.725 188.851 502.78 188.886 502.825 188.932C502.871 188.977 502.906 189.032 502.929 189.093L511.327 208.547C511.349 208.604 511.36 208.665 511.359 208.727C511.357 208.788 511.344 208.848 511.32 208.904C511.295 208.96 511.26 209.011 511.215 209.054C511.171 209.096 511.119 209.129 511.062 209.152C511.005 209.174 510.944 209.185 510.882 209.184C510.821 209.183 510.761 209.169 510.704 209.145C510.648 209.12 510.597 209.085 510.555 209.041C510.512 208.996 510.479 208.944 510.457 208.887L502.891 189.999L491.09 196.799C491.031 196.829 490.966 196.844 490.9 196.844C490.835 196.844 490.77 196.829 490.711 196.799C490.653 196.783 490.6 196.754 490.554 196.715C490.508 196.676 490.472 196.627 490.446 196.572L484.432 183.88L477.472 204.316C477.456 204.374 477.427 204.428 477.388 204.474C477.348 204.519 477.3 204.556 477.245 204.581L472.971 207.036H472.706L463.741 206.281L452.393 212.778L443.958 236.917C443.933 236.993 443.888 237.061 443.828 237.114C443.769 237.167 443.696 237.203 443.618 237.219C443.553 237.252 443.482 237.27 443.41 237.27C443.337 237.27 443.266 237.252 443.201 237.219L436.241 229.664L431.097 237.219L425.423 240.468C425.277 240.523 425.115 240.523 424.969 240.468L416.383 236.275L406.132 242.017L396.524 268.46C396.508 268.514 396.478 268.562 396.439 268.602C396.399 268.641 396.35 268.671 396.297 268.687L392.514 270.953L390.434 274.429C390.347 274.496 390.241 274.533 390.131 274.533C390.022 274.533 389.915 274.496 389.829 274.429L387.937 273.447L382.604 276.506L381.204 281.606C381.178 281.686 381.134 281.758 381.075 281.817C381.016 281.876 380.943 281.92 380.864 281.946C380.794 281.983 380.716 282.002 380.637 282.002C380.558 282.002 380.48 281.983 380.41 281.946L374.055 274.391L368.116 277.866L363.577 292.183C363.553 292.249 363.513 292.308 363.46 292.355C363.407 292.401 363.343 292.433 363.275 292.448C363.211 292.484 363.14 292.504 363.066 292.504C362.993 292.504 362.922 292.484 362.858 292.448L356.958 288.632L350.527 301.401C350.507 301.462 350.472 301.519 350.426 301.564C350.38 301.61 350.324 301.645 350.262 301.665Z" fill="#E63114"/>
</g>
<defs>
<filter id="filter0_f_112_570" x="0" y="-117" width="672" height="696" filterUnits="userSpaceOnUse" color-interpolation-filters="sRGB">
<feFlood flood-opacity="0" result="BackgroundImageFix"/>
<feBlend mode="normal" in="SourceGraphic" in2="BackgroundImageFix" result="shape"/>
<feGaussianBlur stdDeviation="83" result="effect1_foregroundBlur_112_570"/>
</filter>
<clipPath id="clip0_112_570">
<rect width="442" height="337" fill="white" transform="translate(130 31)"/>
</clipPath>
</defs>
</svg>
