<svg width="83" height="83" viewBox="0 0 83 83" fill="none" xmlns="http://www.w3.org/2000/svg">
<path d="M81.9858 77.0966L58.3829 53.4935C62.9548 47.8461 65.7076 40.67 65.7076 32.8542C65.7076 14.7395 50.9683 0 32.8537 0C14.7391 0 0 14.7393 0 32.8541C0 50.9688 14.7393 65.7083 32.8539 65.7083C40.6696 65.7083 47.8456 62.9555 53.4929 58.3835L77.0958 81.9867C77.7701 82.661 78.6554 83 79.5408 83C80.4263 83 81.3116 82.661 81.9859 81.9867C83.3381 80.6345 83.3381 78.4488 81.9858 77.0966ZM32.8539 58.7916C18.5503 58.7916 6.91665 47.1578 6.91665 32.8541C6.91665 18.5503 18.5503 6.91656 32.8539 6.91656C47.1574 6.91656 58.7911 18.5503 58.7911 32.8541C58.7911 47.1578 47.1573 58.7916 32.8539 58.7916Z" fill="white"/>
</svg>
