<svg width="145" height="111" viewBox="0 0 145 111" fill="none" xmlns="http://www.w3.org/2000/svg">
<g clip-path="url(#clip0_732_19896)">
<g opacity="0.4">
<path d="M110.967 104.678C111.128 104.697 111.284 104.746 111.427 104.823L81.6321 87.5389C81.4878 87.4622 81.3323 87.4089 81.1713 87.3808C80.204 87.3371 79.2376 87.4848 78.3274 87.8155L70.8358 83.4814C71.0991 83.3365 71.3888 83.2048 71.6521 83.0467C85.7005 74.8791 85.582 61.6002 71.4941 53.4458C64.1342 49.1908 54.378 47.1752 44.7535 47.3465C35.1158 47.1752 25.3859 49.1908 18.0655 53.4458C4.03022 61.6002 4.10922 74.8923 18.2366 82.994C25.5966 87.249 35.3528 89.2646 44.9773 89.0933C51.1405 89.2405 57.2887 88.4227 63.1994 86.6694L71.6126 91.5436C71.3256 91.8057 71.0774 92.1073 70.8753 92.4394C70.5988 92.9268 70.6252 93.322 70.9938 93.5328L100.829 110.816C100.972 110.895 101.128 110.949 101.289 110.975C102.856 111.212 106.279 110 108.952 108.34C109.994 107.76 110.894 106.954 111.585 105.982C111.915 105.257 111.743 104.796 110.967 104.678ZM44.9773 88.7772C36.2876 88.6059 27.6505 86.6299 21.0674 82.7964C7.19013 74.7737 7.11113 61.7188 20.9094 53.7093C27.4925 49.8626 36.1032 47.8866 44.8061 47.7285C53.4959 47.8866 62.1198 49.8626 68.7556 53.7093C82.646 61.7188 82.7249 74.7869 68.9267 82.7964C62.2777 86.6299 53.667 88.6059 44.9773 88.7772Z" fill="#6637A2"/>
<path d="M12.8371 59.7031L0 67.1198L66.6081 105.6H73.8364L12.8371 59.7031Z" fill="#ADA6A3"/>
</g>
<path d="M74.0089 105.6L5.88672 66.2504V59.7822L74.0089 73.2192V105.6Z" fill="#D2CFCC"/>
<path d="M122.17 77.7773L74.0078 105.6V73.2192L122.17 71.3091V77.7773Z" fill="#E9E6E6"/>
<path d="M122.171 71.3092L74.0089 99.1317L5.88672 59.7824L54.0621 31.96L122.171 71.3092Z" fill="#F8F5F4"/>
<path d="M56.5769 56.5551L55.6158 56.7L56.1029 56.9766L47.1367 62.1538L47.6107 62.4304L56.5769 57.2532L57.0114 57.5035L57.2747 56.9503L57.5249 56.397L56.5769 56.5551Z" fill="#6439BF"/>
<path d="M53.6774 64.1164L53.9275 63.5632L54.4147 63.853L63.3809 58.6758L63.8417 58.9393L54.8887 64.1164L55.3363 64.3799L54.3752 64.5248L53.4141 64.6697L53.6774 64.1164Z" fill="#6231A0"/>
<path d="M41.5915 68.1475L41.8416 68.7008L42.3288 68.4242L49.4517 72.5343L49.9125 72.2577L42.8027 68.1475L43.2372 67.8972L42.2893 67.7523L41.3281 67.5942L41.5915 68.1475Z" fill="#6231A0"/>
<path d="M68.6087 53.3669L67.6475 53.222L68.1347 52.9322L61.0117 48.8221L61.4857 48.5454L68.6087 52.6687L69.0563 52.4052L69.3065 52.9585L69.5698 53.5118L68.6087 53.3669Z" fill="#6439BF"/>
<path d="M48.5828 62.6672L33.0729 71.6252L25.7656 67.4096L41.2755 58.4517L48.5828 62.6672Z" fill="#6439BF"/>
<path d="M74.7195 47.5705L59.2096 56.5285L51.9023 52.313L67.4122 43.355L74.7195 47.5705Z" fill="#6439BF"/>
<path d="M43.1714 59.5451L41.2755 58.4517L25.7656 67.4096L27.6616 68.503L43.1714 59.5451Z" fill="#6231A0"/>
<path d="M69.3081 44.4484L67.4122 43.355L51.9023 52.313L53.7983 53.4064L69.3081 44.4484Z" fill="#6231A0"/>
<path d="M59.1047 68.7536L43.5949 77.7116L36.3008 73.4829L51.8106 64.5249L59.1047 68.7536Z" fill="#6439BF"/>
<path d="M85.2376 53.6569L69.7277 62.6149L62.4336 58.3862L77.9434 49.4282L85.2376 53.6569Z" fill="#6439BF"/>
<path d="M53.6934 65.6183L51.8106 64.5249L36.3008 73.4829L38.1836 74.5895L53.6934 65.6183Z" fill="#6231A0"/>
<path d="M79.8262 50.5216L77.9434 49.4282L62.4336 58.3862L64.3164 59.4928L79.8262 50.5216Z" fill="#6231A0"/>
<path d="M56.4709 84.8122L56.2076 84.9703L54.3906 83.9164L54.6539 83.7715L56.4709 84.8122Z" fill="#5420C1"/>
<path d="M58.7756 86.1428L58.5123 86.3008L56.6953 85.247L56.9586 85.0889L58.7756 86.1428Z" fill="#5420C1"/>
<path d="M61.0632 87.4733L60.813 87.6182L58.9961 86.5775L59.2594 86.4194L61.0632 87.4733Z" fill="#5420C1"/>
<path d="M63.3693 88.8034L63.106 88.9483L61.2891 87.9076L61.5524 87.7495L63.3693 88.8034Z" fill="#5420C1"/>
<path d="M65.674 90.134L65.4107 90.2789L63.5938 89.225L63.8571 89.0801L65.674 90.134Z" fill="#5420C1"/>
<path d="M67.9655 91.4514L67.7022 91.6094L65.8984 90.5556L66.1486 90.4106L67.9655 91.4514Z" fill="#5420C1"/>
<path d="M74.1395 74.3129L56.7996 84.3379L55.4961 83.5739L72.8361 73.562L74.1395 74.3129Z" fill="#7844E5"/>
<path d="M74.5746 76.7104L59.1042 85.6552L57.8008 84.9043L73.2711 75.9595L74.5746 76.7104Z" fill="#6439BF"/>
<path d="M68.4504 82.915L61.3933 86.9856L60.0898 86.2347L67.1338 82.1641L68.4504 82.915Z" fill="#6439BF"/>
<path d="M76.0611 81.1762L63.698 88.3162L62.3945 87.5653L74.7576 80.4253L76.0611 81.1762Z" fill="#97CC66"/>
<path d="M77.5773 82.9545L66.0041 89.6466L64.6875 88.8958L76.2738 82.2036L77.5773 82.9545Z" fill="#F25A5A"/>
<path d="M77.5345 85.6288L68.2917 90.9773L66.9883 90.2132L76.231 84.8779L77.5345 85.6288Z" fill="#6439BF"/>
<path d="M69.4512 81.5712C69.5008 81.5879 69.5439 81.6198 69.5744 81.6624C69.6049 81.7049 69.6213 81.7559 69.6213 81.8083C69.6213 81.8606 69.6049 81.9117 69.5744 81.9542C69.5439 81.9968 69.5008 82.0286 69.4512 82.0454C69.3249 82.1101 69.185 82.1439 69.0431 82.1439C68.9011 82.1439 68.7612 82.1101 68.6349 82.0454C68.5853 82.0286 68.5423 81.9968 68.5118 81.9542C68.4813 81.9117 68.4648 81.8606 68.4648 81.8083C68.4648 81.7559 68.4813 81.7049 68.5118 81.6624C68.5423 81.6198 68.5853 81.5879 68.6349 81.5712C68.7612 81.5064 68.9011 81.4727 69.0431 81.4727C69.185 81.4727 69.3249 81.5064 69.4512 81.5712Z" fill="#6439BF"/>
<path d="M77.1131 79.8192C77.3369 79.9378 77.3369 80.1485 77.1131 80.2803C76.9868 80.345 76.8469 80.3788 76.7049 80.3788C76.563 80.3788 76.4231 80.345 76.2968 80.2803C76.0729 80.1485 76.0729 79.9378 76.2968 79.8192C76.4231 79.7545 76.563 79.7207 76.7049 79.7207C76.8469 79.7207 76.9868 79.7545 77.1131 79.8192Z" fill="#97CC66"/>
<path d="M78.6561 81.6766C78.8799 81.7952 78.8799 82.006 78.6561 82.1377C78.5297 82.2024 78.3898 82.2362 78.2479 82.2362C78.106 82.2362 77.9661 82.2024 77.8397 82.1377C77.6159 82.006 77.6159 81.7952 77.8397 81.6766C77.9661 81.6119 78.106 81.5781 78.2479 81.5781C78.3898 81.5781 78.5297 81.6119 78.6561 81.6766Z" fill="#F25A5A"/>
<path d="M75.0489 73.035C75.0985 73.0518 75.1415 73.0837 75.172 73.1262C75.2025 73.1688 75.219 73.2198 75.219 73.2721C75.219 73.3245 75.2025 73.3755 75.172 73.4181C75.1415 73.4606 75.0985 73.4925 75.0489 73.5093C74.9226 73.574 74.7827 73.6078 74.6407 73.6078C74.4988 73.6078 74.3589 73.574 74.2326 73.5093C74.183 73.4925 74.1399 73.4606 74.1094 73.4181C74.0789 73.3755 74.0625 73.3245 74.0625 73.2721C74.0625 73.2198 74.0789 73.1688 74.1094 73.1262C74.1399 73.0837 74.183 73.0518 74.2326 73.035C74.3589 72.9703 74.4988 72.9365 74.6407 72.9365C74.7827 72.9365 74.9226 72.9703 75.0489 73.035Z" fill="#7844E5"/>
<path d="M78.5489 84.3113C78.5985 84.328 78.6415 84.3599 78.672 84.4025C78.7025 84.445 78.719 84.4961 78.719 84.5484C78.719 84.6008 78.7025 84.6518 78.672 84.6943C78.6415 84.7369 78.5985 84.7688 78.5489 84.7855C78.4226 84.8503 78.2827 84.884 78.1407 84.884C77.9988 84.884 77.8589 84.8503 77.7326 84.7855C77.6805 84.7752 77.633 84.7484 77.5971 84.7093C77.5612 84.6701 77.5386 84.6205 77.5328 84.5677C77.5269 84.5149 77.538 84.4615 77.5645 84.4154C77.5909 84.3693 77.6313 84.3329 77.6799 84.3113C77.8128 84.2375 77.9624 84.1987 78.1144 84.1987C78.2664 84.1987 78.4159 84.2375 78.5489 84.3113Z" fill="#6439BF"/>
<path d="M75.5762 75.3667C75.6258 75.3834 75.6689 75.4153 75.6994 75.4579C75.7299 75.5004 75.7463 75.5514 75.7463 75.6038C75.7463 75.6561 75.7299 75.7072 75.6994 75.7497C75.6689 75.7923 75.6258 75.8242 75.5762 75.8409C75.4499 75.9057 75.31 75.9394 75.1681 75.9394C75.0261 75.9394 74.8862 75.9057 74.7599 75.8409C74.7103 75.8242 74.6673 75.7923 74.6368 75.7497C74.6063 75.7072 74.5898 75.6561 74.5898 75.6038C74.5898 75.5514 74.6063 75.5004 74.6368 75.4579C74.6673 75.4153 74.7103 75.3834 74.7599 75.3667C74.8881 75.3084 75.0273 75.2783 75.1681 75.2783C75.3089 75.2783 75.448 75.3084 75.5762 75.3667Z" fill="#6439BF"/>
<path d="M20.5786 63.1153L20.131 63.3787L14.6406 60.2171L15.0883 59.9536L20.5786 63.1153Z" fill="#5420C1"/>
<path d="M21.0412 62.8518L20.5673 63.1285L15.6562 60.2962L16.1302 60.0195L21.0412 62.8518Z" fill="#6231A0"/>
<path d="M22.3578 62.0875L21.9102 62.351L16.7227 59.3475L17.1703 59.084L22.3578 62.0875Z" fill="#5420C1"/>
<path d="M22.8293 61.8242L22.3422 62.1008L16.707 58.8338L17.181 58.5571L22.8293 61.8242Z" fill="#6231A0"/>
<path d="M24.1451 61.0601L23.6974 61.3104L17.1406 57.5296L17.5883 57.2661L24.1451 61.0601Z" fill="#5420C1"/>
<path d="M24.6204 60.7837L24.1333 61.0603L20.7891 59.1238L21.263 58.8472L24.6204 60.7837Z" fill="#6231A0"/>
<path d="M25.9363 60.0193L25.4886 60.2828L19.4453 56.7918L19.893 56.5283L25.9363 60.0193Z" fill="#5420C1"/>
<path d="M26.3983 59.7559L25.9244 60.0325L20.3945 56.8313L20.8685 56.5547L26.3983 59.7559Z" fill="#6231A0"/>
<path d="M31.2955 56.9235L30.8479 57.187L24.6992 53.6302L25.1469 53.3667L31.2955 56.9235Z" fill="#5420C1"/>
<path d="M31.7706 56.6604L31.2967 56.937L27.4258 54.6975L27.8998 54.4209L31.7706 56.6604Z" fill="#6231A0"/>
<path d="M33.0871 55.8962L32.6395 56.1465L27.6758 53.2747L28.1234 53.0244L33.0871 55.8962Z" fill="#5420C1"/>
<path d="M33.5589 55.6198L33.0717 55.8964L28.9375 53.512L29.4115 53.2354L33.5589 55.6198Z" fill="#6231A0"/>
<path d="M34.8785 54.8555L34.4308 55.119L26.7812 50.6927L27.2289 50.4424L34.8785 54.8555Z" fill="#5420C1"/>
<path d="M35.3504 54.5922L34.8632 54.8689L28.1484 50.9827L28.6356 50.7061L35.3504 54.5922Z" fill="#6231A0"/>
<path d="M36.6675 53.828L36.2199 54.0783L29.2812 50.0735L29.7289 49.8232L36.6675 53.828Z" fill="#5420C1"/>
<path d="M37.1281 53.5515L36.6541 53.8282L30.5977 50.3372L31.0716 50.0605L37.1281 53.5515Z" fill="#6231A0"/>
<path d="M38.4572 52.7874L38.0095 53.0508L33.0195 50.1658L33.4672 49.9155L38.4572 52.7874Z" fill="#5420C1"/>
<path d="M38.9206 52.5239L38.4466 52.8005L32.7852 49.5335L33.2723 49.2568L38.9206 52.5239Z" fill="#6231A0"/>
<path d="M27.7295 58.9917L27.2818 59.2552L25.1094 58.0037L25.557 57.7402L27.7295 58.9917Z" fill="#5420C1"/>
<path d="M28.1877 58.7151L27.7138 58.9918L23.9219 56.805L24.3959 56.5283L28.1877 58.7151Z" fill="#6231A0"/>
<path d="M29.5054 57.9644L29.0577 58.2147L26.8984 56.9632L27.3461 56.7129L29.5054 57.9644Z" fill="#5420C1"/>
<path d="M29.9783 57.6878L29.5043 57.9644L27.9375 57.0555L28.4115 56.7788L29.9783 57.6878Z" fill="#6231A0"/>
<path d="M39.7867 52.4578L19.8925 63.9451L19.4844 63.708L39.3786 52.2207L39.7867 52.4578Z" fill="#5420C1"/>
<path d="M42.5526 50.4293L42.1049 50.6928L39.0898 48.9539L39.5375 48.6904L42.5526 50.4293Z" fill="#5420C1"/>
<path d="M43.0152 50.1527L42.5412 50.4294L40.1055 49.033L40.5795 48.7563L43.0152 50.1527Z" fill="#6231A0"/>
<path d="M44.3299 49.4018L43.8823 49.6521L42.75 48.9935L43.1977 48.7432L44.3299 49.4018Z" fill="#5420C1"/>
<path d="M44.8054 49.1248L44.3182 49.4014L42.7383 48.4925L43.2123 48.2158L44.8054 49.1248Z" fill="#6231A0"/>
<path d="M46.1228 48.3608L45.6751 48.6242L42.1992 46.6087L42.6469 46.3584L46.1228 48.3608Z" fill="#5420C1"/>
<path d="M46.5943 48.0974L46.1072 48.374L44.4219 47.386L44.8959 47.1094L46.5943 48.0974Z" fill="#6231A0"/>
<path d="M47.9114 47.3334L47.4638 47.5837L46.2656 46.8987L46.7133 46.6353L47.9114 47.3334Z" fill="#5420C1"/>
<path d="M48.3733 47.0568L47.8993 47.3334L45.9375 46.2005L46.4115 45.9238L48.3733 47.0568Z" fill="#6231A0"/>
<path d="M53.2704 44.2374L52.8227 44.4877L46.4766 40.8123L46.9242 40.562L53.2704 44.2374Z" fill="#5420C1"/>
<path d="M53.7447 43.9608L53.2576 44.2375L47.5039 40.9046L47.9911 40.6279L53.7447 43.9608Z" fill="#6231A0"/>
<path d="M55.0615 43.1971L54.6139 43.4606L46.543 38.784L46.9906 38.5337L55.0615 43.1971Z" fill="#5420C1"/>
<path d="M55.5356 42.9336L55.0485 43.2102L47.3594 38.7576L47.8334 38.481L55.5356 42.9336Z" fill="#6231A0"/>
<path d="M56.8529 42.1693L56.4053 42.4196L50.4805 38.9944L50.9281 38.7441L56.8529 42.1693Z" fill="#5420C1"/>
<path d="M57.3256 41.8927L56.8384 42.1694L51.6641 39.179L52.138 38.9023L57.3256 41.8927Z" fill="#6231A0"/>
<path d="M58.6428 41.1288L58.1951 41.3923L53.6133 38.7444L54.0609 38.481L58.6428 41.1288Z" fill="#5420C1"/>
<path d="M59.1034 40.8651L58.6294 41.1417L54.9297 38.9944L55.4037 38.7178L59.1034 40.8651Z" fill="#6231A0"/>
<path d="M60.4324 40.101L59.9848 40.3513L57.707 39.0472L58.1547 38.7837L60.4324 40.101Z" fill="#5420C1"/>
<path d="M60.8947 39.8243L60.4207 40.101L58.4062 38.9417L58.8934 38.665L60.8947 39.8243Z" fill="#6231A0"/>
<path d="M49.7044 46.2928L49.2567 46.5562L45.4648 44.3694L45.9125 44.106L49.7044 46.2928Z" fill="#5420C1"/>
<path d="M50.1645 46.0293L49.6905 46.306L45.293 43.7635L45.7669 43.4868L50.1645 46.0293Z" fill="#6231A0"/>
<path d="M51.4814 45.265L51.0338 45.5285L47.3867 43.4207L47.8344 43.1572L51.4814 45.265Z" fill="#5420C1"/>
<path d="M51.9543 45.0016L51.4672 45.2782L48.4258 43.513L48.8998 43.2363L51.9543 45.0016Z" fill="#6231A0"/>
<path d="M61.7633 39.7586L41.8691 51.2591L41.4609 51.022L61.3552 39.5215L61.7633 39.7586Z" fill="#5420C1"/>
<path d="M94.4295 61.6134C88.057 61.1919 82.3033 63.8398 81.5792 67.5152C80.855 71.1906 85.4369 74.5235 91.8094 74.945C98.1818 75.3666 103.935 72.7187 104.66 69.0301C105.384 65.3415 100.802 62.035 94.4295 61.6134ZM99.5906 68.7008C99.1825 70.769 95.9567 72.2576 92.3887 72.0205C88.8206 71.7834 86.24 69.9128 86.6482 67.8577C87.0563 65.8026 90.2821 64.3008 93.8633 64.538C97.4445 64.7751 100.065 66.6326 99.5906 68.7008Z" fill="#6231A0"/>
<path d="M103.827 68.9773C104.512 65.5653 100.259 62.4827 94.3343 62.0875C88.4095 61.6923 83.0772 64.1558 82.4057 67.5677C81.7342 70.9796 85.9869 74.0754 91.8986 74.4706C97.8102 74.8658 103.156 72.4551 103.827 68.9773ZM84.565 67.6599C85.1048 64.933 89.3706 62.9702 94.0973 63.2863C98.824 63.6025 102.221 66.0528 101.681 68.7928C101.141 71.5329 96.8754 73.5353 92.1619 73.2191C87.4484 72.903 84.0251 70.4395 84.565 67.7126V67.6599Z" fill="#6231A0"/>
<path d="M93.6365 63.3392C93.6365 63.3392 95.098 63.4314 95.572 63.5105L96.2303 62.3117C95.6246 62.2063 93.8472 62.0087 93.597 61.9824C92.0671 61.972 90.5417 62.149 89.0547 62.5093L89.9105 63.6686C91.1388 63.4374 92.3868 63.3271 93.6365 63.3392Z" fill="#6439BF"/>
<path d="M84.9619 66.8303V66.6985C86.0732 65.1806 87.7043 64.1254 89.5438 63.7345L88.688 62.5884C86.3368 63.0049 84.2247 64.2823 82.7632 66.1716C82.7632 66.1716 82.197 67.2255 82.3682 67.4889L84.5143 67.6338C84.624 67.3458 84.7748 67.0751 84.9619 66.8303Z" fill="#F25A5A"/>
<path d="M101.67 67.7259L103.842 67.5941C103.626 66.7986 103.243 66.0582 102.718 65.4222C102.194 64.7862 101.54 64.2692 100.801 63.9055L100.379 63.6684C99.1638 63.045 97.8644 62.6013 96.5216 62.3511L95.8633 63.5499C96.9182 63.7397 97.9388 64.086 98.8915 64.5774L99.5235 64.9858C100.528 65.6295 101.285 66.5956 101.67 67.7259Z" fill="#97CC66"/>
<path d="M95.0475 74.405L94.6394 73.1666C93.8112 73.233 92.9791 73.233 92.151 73.1666C89.7729 73.1271 87.4826 72.2608 85.6732 70.7164L85.2255 70.2026C84.9489 69.8637 84.7462 69.4706 84.6306 69.0486C84.5149 68.6266 84.4889 68.185 84.554 67.7523L82.3948 67.6074C82.3062 68.176 82.3428 68.757 82.502 69.3099C82.6612 69.8628 82.9391 70.3743 83.3164 70.8086V71.1116L83.7114 71.3224C85.9759 73.2701 88.8493 74.3651 91.835 74.4181C92.9043 74.5037 93.9789 74.4993 95.0475 74.405Z" fill="#7844E5"/>
<path d="M104.092 69.0037C104.776 65.4996 100.418 62.3379 94.3618 61.9427C88.3053 61.5475 82.8413 64.0637 82.1435 67.5546C81.4457 71.0456 85.8169 74.2204 91.8734 74.6156C97.9298 75.0108 103.407 72.4552 104.092 69.0037ZM82.4068 67.5678C83.0783 64.1559 88.4238 61.7056 94.3355 62.0876C100.247 62.4697 104.513 65.5654 103.828 68.9774C103.144 72.3893 97.8245 74.8528 91.8997 74.4707C85.9749 74.0887 81.7353 70.9929 82.4068 67.5678Z" fill="#6231A0"/>
<path d="M101.684 68.8457C102.224 66.1056 98.8272 63.6421 94.1005 63.3391C89.3738 63.0361 85.1079 64.9858 84.5681 67.7127C84.0283 70.4397 87.4252 72.9821 92.1519 73.2193C96.8785 73.4564 101.144 71.5726 101.684 68.8457ZM84.8183 67.7259C85.3449 65.0912 89.4923 63.181 94.0346 63.484C98.577 63.787 101.934 66.1846 101.395 68.8193C100.855 71.454 96.7337 73.3773 92.1782 73.0744C87.6227 72.7714 84.2653 70.3738 84.8183 67.7259Z" fill="#6231A0"/>
<path d="M103.814 68.9776C103.873 68.5802 103.873 68.1762 103.814 67.7788L101.681 67.8974C101.734 68.2113 101.734 68.5319 101.681 68.8459C101.273 70.9536 98.5212 72.6925 94.9531 73.1404L95.3218 74.3524C99.8246 73.7728 103.287 71.6255 103.814 68.9776Z" fill="#6439BF"/>
<path d="M38.616 57.7007L23.8434 66.2372L21.75 65.0252L36.5094 56.4888L38.616 57.7007Z" fill="#6231A0"/>
<path d="M25.2127 65.4468L23.8434 66.2372L21.75 65.0253L23.1061 64.2349L25.2127 65.4468Z" fill="#F25A5A"/>
<path d="M52.0847 49.9288L37.3122 58.4652L35.2188 57.2401L49.9781 48.7168L52.0847 49.9288Z" fill="#6231A0"/>
<path d="M38.6815 57.6748L37.3122 58.4653L35.2188 57.2401L36.5749 56.4497L38.6815 57.6748Z" fill="#97CC66"/>
<path d="M65.5549 42.1431L50.7824 50.6796L48.6758 49.4676L63.4483 40.9312L65.5549 42.1431Z" fill="#6231A0"/>
<path d="M52.1517 49.8892L50.7824 50.6796L48.6758 49.4677L50.0451 48.6772L52.1517 49.8892Z" fill="#7844E5"/>
<path d="M71.2965 93.8358C71.6673 93.8358 71.968 93.6648 71.968 93.4538C71.968 93.2428 71.6673 93.0718 71.2965 93.0718C70.9256 93.0718 70.625 93.2428 70.625 93.4538C70.625 93.6648 70.9256 93.8358 71.2965 93.8358Z" fill="#5420C1"/>
<path d="M74.0871 94.5211C74.1414 94.5422 74.1881 94.5794 74.2211 94.6275C74.254 94.6757 74.2716 94.7328 74.2716 94.7911C74.2716 94.8495 74.254 94.9065 74.2211 94.9547C74.1881 95.0029 74.1414 95.04 74.0871 95.0612C73.9387 95.1385 73.7738 95.1789 73.6065 95.1789C73.4392 95.1789 73.2743 95.1385 73.1259 95.0612C73.0716 95.04 73.0249 95.0029 72.9919 94.9547C72.959 94.9065 72.9414 94.8495 72.9414 94.7911C72.9414 94.7328 72.959 94.6757 72.9919 94.6275C73.0249 94.5794 73.0716 94.5422 73.1259 94.5211C73.2743 94.4437 73.4392 94.4033 73.6065 94.4033C73.7738 94.4033 73.9387 94.4437 74.0871 94.5211Z" fill="#5420C1"/>
<path d="M94.2183 80.6097C94.5892 80.6097 94.8898 80.4328 94.8898 80.2145C94.8898 79.9963 94.5892 79.8193 94.2183 79.8193C93.8475 79.8193 93.5469 79.9963 93.5469 80.2145C93.5469 80.4328 93.8475 80.6097 94.2183 80.6097Z" fill="#5420C1"/>
<path d="M97.0075 81.2816C97.0619 81.3027 97.1086 81.3399 97.1415 81.388C97.1744 81.4362 97.192 81.4932 97.192 81.5516C97.192 81.61 97.1744 81.667 97.1415 81.7152C97.1086 81.7634 97.0619 81.8005 97.0075 81.8217C96.8614 81.899 96.6987 81.9394 96.5335 81.9394C96.3683 81.9394 96.2056 81.899 96.0595 81.8217C96.0052 81.8005 95.9585 81.7634 95.9255 81.7152C95.8926 81.667 95.875 81.61 95.875 81.5516C95.875 81.4932 95.8926 81.4362 95.9255 81.388C95.9585 81.3399 96.0052 81.3027 96.0595 81.2816C96.2052 81.2031 96.3681 81.1621 96.5335 81.1621C96.6989 81.1621 96.8618 81.2031 97.0075 81.2816Z" fill="#5420C1"/>
<path d="M84.1312 86.6166L85.5794 85.813L85.3951 85.7076L84.0127 86.5112L84.1312 86.6166ZM77.9825 90.1603L81.0634 88.3818L80.8923 88.2633L77.7982 90.0549L77.9825 90.1603ZM81.3136 88.2633L83.9468 86.7747L83.7757 86.6693L81.1424 88.1579L81.3136 88.2633ZM77.6797 90.3052L77.5085 90.1998L73.1242 92.7291L73.3085 92.8345L77.6797 90.3052ZM85.7506 85.6286L87.7124 84.4956L87.5281 84.3903L85.5794 85.6286H85.7506ZM72.6765 92.4129L74.1248 91.5698L73.9405 91.4776L72.4922 92.3075L72.6765 92.4129ZM85.303 84.904L85.4873 85.0094L87.1989 84.0214L87.0277 83.916L85.303 84.904ZM82.1299 86.9459L85.2371 85.1543L85.066 85.0489L81.9587 86.8405L82.1299 86.9459ZM80.5104 87.8812L81.8929 87.0908L81.7086 86.9459L80.3919 87.7363L80.5104 87.8812ZM78.5487 89.0142L80.3129 88.0261L80.1286 87.9208L78.417 88.9088L78.5487 89.0142ZM74.3618 91.4381L78.3117 89.1591L78.1405 89.0537L74.1906 91.3327L74.3618 91.4381Z" fill="#5420C1"/>
<path d="M82.6311 88.9747L82.8023 89.0801L85.4355 87.5915L85.2512 87.4861L82.6311 88.9747ZM82.6311 89.225L82.4468 89.1196L79.3 90.8981L79.4712 91.0035L82.6311 89.225ZM83.1841 89.5148L83.3552 89.6202L85.0669 88.6322L84.8957 88.5268L83.1841 89.5148ZM85.1327 88.3819L85.317 88.4873L86.6336 87.6969L86.4493 87.5915L85.1327 88.3819ZM89.7935 85.6287L86.6863 87.4203L86.8706 87.5257L89.9779 85.7341L89.7935 85.6287ZM78.8524 92.2154L78.6812 92.1232L75.3633 94.0334L75.5345 94.1387L78.8524 92.2154ZM88.2794 85.7472L85.4487 87.3544L85.6198 87.4466L88.4638 85.8131L88.2794 85.7472ZM79.2342 91.1879L78.9972 91.043L74.6523 93.5328L74.8235 93.6382L79.2342 91.1879ZM88.5164 85.6287L88.7007 85.7341L90.3597 84.7724L90.1754 84.667L88.5164 85.6287ZM83.0524 89.8178L82.8681 89.7124L78.9182 91.9915L79.1025 92.0969L83.0524 89.8178Z" fill="#5420C1"/>
<path d="M100.854 76.8946L103.935 75.0899L103.763 74.9845L100.669 76.7629L100.854 76.8946ZM104.185 74.9713L106.818 73.4827L106.647 73.3773L104.014 74.8659L104.185 74.9713ZM100.603 77.0395L100.432 76.9342L96.1138 79.4635L96.2981 79.5689L100.603 77.0395ZM95.5476 79.1341L96.9827 78.3042L96.8116 78.1988L95.3633 79.0419L95.5476 79.1341ZM108.174 71.6384L108.358 71.7438L110.07 70.7426L109.886 70.6504L108.174 71.6384ZM105.001 73.6803L108.108 71.8755L107.963 71.7833L104.856 73.5749L105.001 73.6803ZM103.382 74.6156L104.698 73.812L104.58 73.7725L103.197 74.5761L103.382 74.6156ZM101.38 75.7485L103.105 74.7474L102.921 74.6551L101.209 75.6431L101.38 75.7485ZM97.1934 78.1593L101.143 75.8803L100.959 75.7749L97.0091 78.0671L97.1934 78.1593Z" fill="#5420C1"/>
<path d="M107.449 74.7342L107.634 74.8396L110.201 73.351L110.03 73.2456L107.449 74.7342Z" fill="#5420C1"/>
<path d="M105.066 76.9211L105.251 77.0265L106.962 76.0385L106.791 75.9331L105.066 76.9211Z" fill="#5420C1"/>
<path d="M107.211 74.8794L104.117 76.6578L104.302 76.7632L107.382 74.9716L107.211 74.8794Z" fill="#5420C1"/>
<path d="M109.687 74.2603L107.027 75.8016L107.212 75.8938L109.871 74.3656L109.687 74.2603Z" fill="#5420C1"/>
<path d="M104.051 76.8949L103.88 76.8027L97.6523 80.3991L97.8367 80.4913L104.051 76.8949Z" fill="#5420C1"/>
<path d="M110.266 73.101L110.45 73.2063L111.832 72.4159L111.648 72.3105L110.266 73.101Z" fill="#5420C1"/>
<path d="M100.816 79.5951L100.645 79.4897L98.4062 80.7807L98.5774 80.8861L100.816 79.5951Z" fill="#5420C1"/>
<path d="M104.829 77.0659L100.879 79.3449L101.05 79.4503L105 77.1713L104.829 77.0659Z" fill="#5420C1"/>
<path d="M111.898 72.1655L112.07 72.2709L113.241 71.599L113.057 71.4937L111.898 72.1655Z" fill="#5420C1"/>
<path d="M65.5557 75.6564L65.3055 75.5115L71.0987 72.1786L71.3488 72.3235L65.5557 75.6564ZM64.0152 76.539L63.7651 76.4073L64.8315 75.7881L65.0949 75.933L64.0152 76.539ZM57.2873 80.4252L57.0371 80.2803L63.3043 76.6576L63.5544 76.8025L57.2873 80.4252ZM52.8107 83.0599L52.5606 82.9018L56.5105 80.5833L56.7606 80.7282L52.8107 83.0599ZM66.609 73.1403L72.4153 69.8205L72.6786 69.9654L66.8591 73.2456L66.609 73.1403ZM72.8366 69.5307L75.2724 68.1212L75.5225 68.2661L73.0868 69.6756L72.8366 69.5307ZM65.3187 74.1678L65.0685 74.0229L66.135 73.4037L66.3852 73.5486L65.3187 74.1678ZM58.5907 78.0145L58.3406 77.8696L64.6077 74.2468L64.8579 74.3917L58.5907 78.0145ZM51.3493 82.1905L51.0991 82.0324L57.8534 78.0803L58.1036 78.2252L51.3493 82.1905ZM88.2148 59.2817L87.9646 59.1368L91.3615 57.174L91.6117 57.3189L88.2148 59.2817ZM83.5935 61.9164L83.3433 61.7715L87.5038 59.3739L87.754 59.5189L83.5935 61.9164ZM80.7759 63.5499L80.5257 63.405L82.8825 62.0877L83.1326 62.2326L80.7759 63.5499ZM76.2072 66.1847L75.957 66.0397L80.0649 63.6685L80.3151 63.8134L76.2072 66.1847ZM72.0203 68.6481L71.7702 68.5032L75.4962 66.3427L75.7464 66.4876L72.0203 68.6481ZM67.0698 71.5067L66.8196 71.3618L71.3093 68.7271L71.5595 68.872L67.0698 71.5067ZM62.1851 74.3259L61.8823 74.181L66.3062 71.6253L66.5563 71.7702L62.1851 74.3259ZM56.0365 77.8827L55.7732 77.7378L61.4741 74.4444L61.7243 74.6025L56.0365 77.8827ZM50.0327 81.3737L49.7825 81.2288L55.2992 78.0013L55.5493 78.1462L50.0327 81.3737ZM80.9207 61.9164L80.6705 61.7715L89.9659 56.4099L90.2161 56.5548L80.9207 61.9164ZM76.3652 64.5511L76.115 64.4062L80.2756 62.0086L80.5257 62.1536L76.3652 64.5511ZM71.3883 67.423L71.0987 67.2912L75.6147 64.6565L75.8649 64.8014L71.3883 67.423ZM68.9789 68.8194L68.7288 68.6744L70.6774 67.5415L70.9275 67.6864L68.9789 68.8194ZM66.0692 70.4924L65.819 70.3475L68.2679 68.9379L68.5181 69.0828L66.0692 70.4924ZM59.7757 74.1019L59.5255 73.957L65.2924 70.6373L65.5425 70.7822L59.7757 74.1019ZM58.2484 74.9977L57.9982 74.8528L59.0647 74.2337L59.3149 74.3786L58.2484 74.9977ZM51.5205 78.9498L51.2703 78.8049L57.5374 75.0899L57.7876 75.2349L51.5205 78.9498ZM48.5844 80.5701L48.3342 80.4252L50.7963 79.042L51.0596 79.1869L48.5844 80.5701ZM87.6487 56.3967L87.3853 56.2518L88.5703 55.58L88.8205 55.7249L87.6487 56.3967ZM85.3972 57.7141L85.1471 57.5692L86.8982 56.5285L87.1483 56.6734L85.3972 57.7141ZM80.7759 60.3488L80.5257 60.2039L84.6863 57.8063L84.9364 57.9512L80.7759 60.3488ZM75.799 63.2338L75.5489 63.0889L80.0649 60.4542L80.3151 60.5991L75.799 63.2338ZM73.3896 64.617L73.1394 64.5511L75.0486 63.3655L75.2987 63.5104L73.3896 64.617ZM69.2027 67.0541L68.9526 66.9092L72.6786 64.7487L72.9288 64.8936L69.2027 67.0541ZM64.2522 69.9128L64.0021 69.8205L68.4654 67.1858L68.7156 67.3307L64.2522 69.9128ZM59.3675 72.7319L59.1174 72.587L63.5412 70.0313L63.7914 70.1762L59.3675 72.7319ZM53.2189 76.2887L52.9556 76.1438L58.6566 72.8636L58.9067 73.0085L53.2189 76.2887ZM47.1888 79.7665L46.9386 79.6216L52.4948 76.4073L52.7449 76.5522L47.1888 79.7665ZM79.6831 59.3871L79.4329 59.2817L87.1747 54.8027L87.4248 54.9476L79.6831 59.3871ZM75.0617 62.0218L74.8116 61.9164L78.9984 59.5057L79.2486 59.6506L75.0617 62.0218ZM70.0849 64.8936L69.7821 64.7883L74.2981 62.1536L74.5482 62.2985L70.0849 64.8936ZM67.6755 66.3296L67.4253 66.1847L69.3739 65.0517L69.6241 65.1966L67.6755 66.3296ZM64.7657 68.0026L64.5155 67.8577L66.9645 66.4481L67.2146 66.593L64.7657 68.0026ZM58.5381 71.599L58.2879 71.4541L64.0547 68.1212L64.3049 68.2661L58.5381 71.599ZM57.0108 72.4552L56.7606 72.3103L57.8271 71.7044L58.0772 71.8493L57.0108 72.4552ZM50.2828 76.4073L50.0327 76.236L56.2998 72.6133L56.55 72.7582L50.2828 76.4073ZM45.7931 79.042L45.543 78.8971L49.5718 76.5786L49.822 76.7235L45.7931 79.042Z" fill="#5420C1"/>
<path d="M53.6144 47.3993L51.3893 48.6771L51.1523 48.5454L53.3774 47.2544L53.6144 47.3993Z" fill="#E1E9F4"/>
<path d="M54.9047 46.6483L53.9831 47.1884L53.7461 47.0435L54.6677 46.5166L54.9047 46.6483Z" fill="#E1E9F4"/>
<path d="M53.6124 48.5585L52.4011 49.2699L52.1641 49.125L53.3754 48.4268L53.6124 48.5585Z" fill="#E1E9F4"/>
<path d="M56.7085 46.7802L53.9831 48.3478L53.7461 48.2161L56.4715 46.6353L56.7085 46.7802Z" fill="#E1E9F4"/>
<path d="M58.591 45.6869L57.0768 46.5564L56.8398 46.4246L58.354 45.5552L58.591 45.6869Z" fill="#E1E9F4"/>
<path d="M40.2746 55.1059L38.0495 56.3837L37.8125 56.252L40.0376 54.9741L40.2746 55.1059Z" fill="#E1E9F4"/>
<path d="M41.5663 54.3549L40.6315 54.895L40.3945 54.7501L41.3162 54.2231L41.5663 54.3549Z" fill="#E1E9F4"/>
<path d="M40.274 56.265L39.0495 56.9764L38.8125 56.8315L40.037 56.1333L40.274 56.265Z" fill="#E1E9F4"/>
<path d="M43.3701 54.4867L40.6315 56.0544L40.3945 55.9226L43.1331 54.3418L43.3701 54.4867Z" fill="#E1E9F4"/>
<path d="M45.2379 53.3935L43.737 54.2761L43.5 54.1312L45.001 53.2617L45.2379 53.3935Z" fill="#E1E9F4"/>
<path d="M26.9269 62.8124L24.7018 64.1034L24.4648 63.9585L26.6899 62.6807L26.9269 62.8124Z" fill="#E1E9F4"/>
<path d="M28.2172 62.0746L27.2956 62.6015L27.0586 62.4698L27.9802 61.9297L28.2172 62.0746Z" fill="#E1E9F4"/>
<path d="M26.9249 63.9716L25.7136 64.6829L25.4766 64.538L26.6879 63.8398L26.9249 63.9716Z" fill="#E1E9F4"/>
<path d="M30.021 62.1932L27.2956 63.7741L27.0586 63.6292L29.784 62.0483L30.021 62.1932Z" fill="#E1E9F4"/>
<path d="M31.9035 61.1127L30.3893 61.9821L30.1523 61.8372L31.6665 60.9678L31.9035 61.1127Z" fill="#E1E9F4"/>
<path d="M69.4777 46.9118L70.2941 46.4507L70.0834 46.3322L69.2803 46.7932L69.4777 46.9118ZM62.4996 50.9561L66.0019 48.9273L65.8307 48.8088L62.3153 50.8375L62.4996 50.9561ZM66.2783 48.7429L69.2013 47.0435L69.0038 46.925L66.0809 48.6244L66.2783 48.7429ZM62.2231 51.1142L62.0125 50.9956L57.0488 53.8674L57.2463 53.986L62.2231 51.1142ZM56.4695 53.4986L58.1021 52.5501L57.9309 52.4315L56.2852 53.38L56.4695 53.4986ZM67.2132 47.2938L69.4777 45.9765L69.2803 45.8711L67.0157 47.1884L67.2132 47.2938ZM65.3699 48.3609L66.9367 47.4256L66.7392 47.307L65.1724 48.216L65.3699 48.3609ZM63.1448 49.6782L65.0934 48.5585L64.8959 48.4399L62.9473 49.5597L63.1448 49.6782ZM58.3786 52.4315L62.8683 49.7968L62.6708 49.6782L58.1811 52.3129L58.3786 52.4315Z" fill="#E1E9F4"/>
<path d="M70.8744 46.8066L71.0719 46.9252L69.176 48.0186L68.9785 47.9L70.8744 46.8066ZM66.2663 50.3898L66.4769 50.5084L68.465 49.3887L68.2544 49.2701L66.2663 50.3898ZM68.702 48.0581L65.1866 50.0605L65.3973 50.1791L68.8995 48.1503L68.702 48.0581ZM70.2951 48.0581L68.465 49.112L68.6757 49.2306L70.4794 48.1899L70.2951 48.0581ZM65.1208 50.3503L64.9101 50.2318L57.8398 54.3155L58.0373 54.4341L65.1208 50.3503ZM61.4342 53.4066L61.2367 53.288L58.6957 54.7634L58.8931 54.882L61.4342 53.4066ZM65.9898 50.5479L61.5001 53.1826L61.7107 53.3012L66.2004 50.6665L65.9898 50.5479Z" fill="#E1E9F4"/>
<path d="M47.2159 72.1657L52.9037 68.8855L52.6668 68.7669L46.9921 72.0471L47.2159 72.1657ZM46.9394 72.3237L46.7419 72.2052L41.7651 75.0902L41.9626 75.2087L46.9394 72.3237ZM41.1858 74.7213L42.8316 73.7728L42.6341 73.6543L40.9883 74.6028L41.1858 74.7213ZM50.0993 69.5705L51.6661 68.6615L51.4555 68.5034L49.8887 69.4124L50.0993 69.5705ZM47.8742 70.8878L49.8228 69.7549L49.6122 69.6363L47.6636 70.7693L47.8742 70.8878ZM43.1081 73.6411L47.5977 71.0064L47.4002 70.901L42.9237 73.5357L43.1081 73.6411Z" fill="#E1E9F4"/>
<path d="M49.5167 72.4552L49.7142 72.5737L52.0973 71.2564L51.8867 71.1378L49.5167 72.4552ZM52.15 70.0181L49.9249 71.3354L50.1224 71.454L52.3475 70.1366L52.15 70.0181ZM49.8459 71.5725L49.6484 71.4672L42.5781 75.5509L42.7756 75.6695L49.8459 71.5725ZM46.1593 74.642L45.9619 74.5234L43.4471 75.9857L43.6578 76.1042L46.1593 74.642ZM49.2534 72.6264L46.2383 74.3653L46.4358 74.4839L49.4509 72.7318L49.2534 72.6264Z" fill="#E1E9F4"/>
<path d="M76.1817 54.2625L76.3792 54.381L79.1309 52.8002L78.9202 52.6948L76.1817 54.2625ZM76.1817 54.5391L75.971 54.4205L72.2713 56.5678L72.4161 56.6469L76.1817 54.5391ZM74.2726 56.3439L74.47 56.4624L76.366 55.3295L76.1685 55.2109L74.2726 56.3439ZM76.4976 55.0265L76.6951 55.1451L80.645 52.8924L80.3159 52.8002L76.4976 55.0265ZM71.7051 57.9642H71.5076L67.7421 60.072L67.9396 60.1905L71.7051 57.9642ZM79.9472 52.0361L79.1967 52.4709L79.3942 52.5894L80.1579 52.1547L79.9472 52.0361ZM72.1396 56.7918L71.929 56.6732L66.9258 59.5582L67.1233 59.6768L72.1396 56.7918ZM74.1277 56.6469L73.9302 56.5283L71.7841 57.7666L71.9816 57.8852L74.1277 56.6469Z" fill="#E1E9F4"/>
<path d="M74.7838 58.0699L78.286 56.0543L78.0885 55.9357L74.5731 57.9645L74.7838 58.0699ZM78.5625 55.883L81.1957 54.3549L80.9982 54.2364L78.365 55.7777L78.5625 55.883ZM74.5073 58.2279L74.2966 58.1225L69.3329 60.9944L69.5304 61.1129L74.5073 58.2279ZM68.7536 60.5992L70.3994 59.6507L70.1888 59.5321L68.543 60.4806L68.7536 60.5992ZM79.4973 54.3944L81.7619 53.0771L81.6302 52.998L79.3656 54.3154L79.4973 54.3944ZM77.654 55.4615L79.2208 54.5525L78.997 54.4603L77.4565 55.3298L77.654 55.4615ZM75.4289 56.7788L77.3775 55.6591L77.18 55.5405L75.2314 56.6471L75.4289 56.7788ZM70.6627 59.5321L75.1524 56.8974L74.9549 56.7788L70.4652 59.4135L70.6627 59.5321Z" fill="#E1E9F4"/>
<path d="M39.3418 63.2337H39.4998L42.2384 61.6528L42.1331 61.5738L39.3418 63.2337ZM39.2628 63.5103L39.0653 63.3917L35.3656 65.5259L35.5631 65.6444L39.2628 63.5103ZM37.3669 65.3019L37.5644 65.4205L39.4998 64.2217L39.3023 64.1031L37.3669 65.3019ZM39.592 63.9845L39.7895 64.1031L43.7393 61.8504L43.4497 61.6924L39.592 63.9845ZM34.8653 66.9486L34.6678 66.83L30.8891 69.0168L31.0997 69.1222L34.8653 66.9486ZM43.1074 61.0205L42.3569 61.4552L42.5544 61.5738L43.3049 61.1391L43.1074 61.0205ZM35.2866 65.7366L35.0891 65.6181L30.0859 68.5031L30.2834 68.6085L35.2866 65.7366ZM37.2879 65.5127L37.0904 65.3941L34.9311 66.6324L35.1418 66.751L37.2879 65.5127Z" fill="#E1E9F4"/>
<path d="M37.9308 66.9751L41.4462 64.9464L41.2355 64.8278L37.7333 66.8566L37.9308 66.9751ZM41.7226 64.7883L44.3559 63.247L44.1584 63.1285L41.5252 64.6698L41.7226 64.7883ZM37.6543 67.1859L37.4568 67.0673L32.4799 69.9392L32.6906 70.0577L37.6543 67.1859ZM31.9138 69.5703L33.5464 68.6218L33.3489 68.5033L31.7031 69.4518L31.9138 69.5703ZM42.6575 63.3656L44.922 62.0482L44.7641 61.9165L42.5126 63.2339L42.6575 63.3656ZM40.8142 64.4326L42.381 63.5237L42.1308 63.3524L40.564 64.2614L40.8142 64.4326ZM38.5891 65.75L40.5377 64.5512L40.3402 64.4326L38.3916 65.5524L38.5891 65.75ZM33.8229 68.5033L38.3126 65.8686L38.1809 65.7105L33.6912 68.3452L33.8229 68.5033Z" fill="#E1E9F4"/>
<g style="mix-blend-mode:multiply" opacity="0.4">
<path d="M84.3552 82.4013L93.6374 87.7893V94.2575L83.1044 100.317V93.8491L73.73 88.3952C73.3614 88.1845 73.335 87.8024 73.6115 87.315C73.8214 86.9846 74.0688 86.6795 74.3488 86.406L65.9488 81.5318C60.0684 83.3048 53.9458 84.1405 47.8057 84.0085L47.121 83.6133H47.6872C56.3901 83.4552 64.9876 81.466 71.5839 77.6325C85.3822 69.6098 85.3032 56.5549 71.4259 48.5454C64.8428 44.7119 56.1531 42.7359 47.4633 42.5646C41.8404 42.6405 36.261 43.5642 30.9134 45.3047L34.2312 43.4736C38.5944 42.5952 43.0399 42.1933 47.4897 42.2748C57.1274 42.0903 66.8704 44.1059 74.2303 48.3609C88.3446 56.4758 88.4236 69.8206 74.3883 77.9223L73.5589 78.3438L81.0373 82.6911C81.9489 82.3483 82.9221 82.2002 83.8944 82.2564C84.0556 82.2758 84.2118 82.325 84.3552 82.4013ZM12.4016 56.0543C11.1993 57.9619 10.4932 60.1402 10.3477 62.3907L13.3364 64.1165C12.9941 60.1644 14.5609 56.2782 18.0104 52.8136L12.4016 56.0543Z" fill="#6637A2"/>
</g>
<path d="M97.4295 39.3241V44.9756C97.4295 39.5876 93.9404 34.2523 86.8964 30.0763C72.7822 21.9219 49.8729 21.9219 35.8377 30.0763C28.8727 34.1338 25.3837 39.4427 25.3047 44.7648V39.1133C25.3047 33.8439 28.8069 28.4823 35.8377 24.4249C49.8598 16.2705 72.769 16.2705 86.8833 24.4249C93.993 28.535 97.5348 33.923 97.5216 39.3241H97.4295Z" fill="url(#paint0_linear_732_19896)"/>
<path d="M124.275 42.1297L64.5665 76.618L4.55469 41.9453L64.2637 7.47021L124.275 42.1297Z" fill="#F8F5F4"/>
<path d="M94.3741 31.907L92.6888 32.1705L93.5446 32.6579L77.7188 41.8003L78.5482 42.2746L94.3741 33.1453L95.1509 33.5932L95.6117 32.6184L96.0593 31.6436L94.3741 31.907Z" fill="#6439BF"/>
<path d="M89.2655 45.2651L89.7132 44.2903L90.569 44.7909L106.395 35.6484L107.224 36.1359L91.3984 45.2651L92.1884 45.7262L90.49 45.9896L88.8047 46.2399L89.2655 45.2651Z" fill="#6231A0"/>
<path d="M67.9257 52.3918L68.3733 53.3667L69.2291 52.8661L81.8029 60.1247L82.6324 59.6504L70.0586 52.3918L70.8486 51.9308L69.1501 51.6673L67.4648 51.417L67.9257 52.3918Z" fill="#6231A0"/>
<path d="M115.626 26.2821L113.941 26.0186L114.796 25.518L102.223 18.2594L103.052 17.772L115.626 25.0438L116.416 24.5827L116.864 25.5575L117.311 26.5324L115.626 26.2821Z" fill="#6439BF"/>
<path d="M80.2756 42.7096L52.8898 58.531L40 51.0748L67.3727 35.2666L80.2756 42.7096Z" fill="#6439BF"/>
<path d="M126.422 16.0465L99.0357 31.8679L86.1328 24.4249L113.519 8.60352L126.422 16.0465Z" fill="#6439BF"/>
<path d="M70.7169 37.1899L67.3727 35.2666L40 51.0748L43.3311 53.0113L70.7169 37.1899Z" fill="#6231A0"/>
<path d="M116.863 10.54L113.519 8.60352L86.1328 24.4249L89.477 26.3482L116.863 10.54Z" fill="#6231A0"/>
<path d="M98.8498 53.446L71.464 69.2673L58.5742 61.8111L85.96 45.9897L98.8498 53.446Z" fill="#6439BF"/>
<path d="M144.998 26.7829L117.612 42.6043L104.723 35.1481L132.095 19.3398L144.998 26.7829Z" fill="#6439BF"/>
<path d="M89.3043 47.9263L85.96 45.9897L58.5742 61.8111L61.9184 63.7476L89.3043 47.9263Z" fill="#6231A0"/>
<path d="M135.44 21.2632L132.095 19.3398L104.723 35.1481L108.067 37.0846L135.44 21.2632Z" fill="#6231A0"/>
<path d="M30.807 43.5001L30.017 43.9612L20.3398 38.3756L21.1298 37.9146L30.807 43.5001Z" fill="#5420C1"/>
<path d="M31.6389 43.0255L30.7962 43.5129L22.1328 38.5069L22.9755 38.0195L31.6389 43.0255Z" fill="#6231A0"/>
<path d="M33.9669 41.682L33.1769 42.1431L24 36.8473L24.79 36.3862L33.9669 41.682Z" fill="#5420C1"/>
<path d="M34.7978 41.2075L33.942 41.6949L23.9883 35.9381L24.8309 35.4507L34.7978 41.2075Z" fill="#6231A0"/>
<path d="M37.1263 39.864L36.3363 40.3119L24.75 33.6198L25.5531 33.1719L37.1263 39.864Z" fill="#5420C1"/>
<path d="M37.9589 39.3768L37.1031 39.8642L31.1914 36.4523L32.034 35.9648L37.9589 39.3768Z" fill="#6231A0"/>
<path d="M40.275 38.0329L39.485 38.494L28.8203 32.3288L29.6103 31.8809L40.275 38.0329Z" fill="#5420C1"/>
<path d="M41.1042 37.5587L40.2616 38.0461L30.4922 32.4078L31.348 31.9204L41.1042 37.5587Z" fill="#6231A0"/>
<path d="M49.7537 32.566L48.9637 33.0271L38.1016 26.7433L38.8915 26.2822L49.7537 32.566Z" fill="#5420C1"/>
<path d="M50.5822 32.0917L49.7264 32.5791L42.9062 28.6271L43.7489 28.1396L50.5822 32.0917Z" fill="#6231A0"/>
<path d="M52.9156 30.7349L52.1256 31.196L43.3438 26.1242L44.1337 25.6631L52.9156 30.7349Z" fill="#5420C1"/>
<path d="M53.7451 30.2604L52.8893 30.7479L45.582 26.5323L46.4247 26.0449L53.7451 30.2604Z" fill="#6231A0"/>
<path d="M56.0734 28.9169L55.2835 29.3779L41.7617 21.5661L42.5517 21.105L56.0734 28.9169Z" fill="#5420C1"/>
<path d="M56.8915 28.4425L56.0489 28.9299L44.1992 22.0797L45.0419 21.5923L56.8915 28.4425Z" fill="#6231A0"/>
<path d="M59.2221 27.0991L58.4321 27.547L46.1875 20.4728L46.9775 20.0249L59.2221 27.0991Z" fill="#5420C1"/>
<path d="M60.0493 26.6115L59.2066 27.0989L48.5156 20.9205L49.3583 20.4331L60.0493 26.6115Z" fill="#6231A0"/>
<path d="M62.3795 25.2676L61.5895 25.7287L52.7812 20.6305L53.5712 20.1826L62.3795 25.2676Z" fill="#5420C1"/>
<path d="M63.2108 24.7934L62.3682 25.2809L52.375 19.5109L53.2176 19.0234L63.2108 24.7934Z" fill="#6231A0"/>
<path d="M43.4363 36.2151L42.6463 36.6762L38.8281 34.463L39.6181 34.0151L43.4363 36.2151Z" fill="#5420C1"/>
<path d="M44.263 35.7407L43.4204 36.2281L36.7188 32.3551L37.5746 31.8677L44.263 35.7407Z" fill="#6231A0"/>
<path d="M46.5965 34.3972L45.8065 34.8451L41.9883 32.6452L42.7783 32.1841L46.5965 34.3972Z" fill="#5420C1"/>
<path d="M47.4254 33.9094L46.5696 34.3968L43.8047 32.8028L44.6605 32.3154L47.4254 33.9094Z" fill="#6231A0"/>
<path d="M64.737 24.675L29.6094 44.9622L28.8984 44.5538L64.026 24.2534L64.737 24.675Z" fill="#5420C1"/>
<path d="M69.6077 21.0919L68.8177 21.553L63.5117 18.4835L64.3017 18.0225L69.6077 21.0919Z" fill="#5420C1"/>
<path d="M70.4371 20.6177L69.5944 21.1051L65.2891 18.6153L66.1317 18.1279L70.4371 20.6177Z" fill="#6231A0"/>
<path d="M72.7693 19.274L71.9793 19.7219L69.9648 18.5758L70.7548 18.1147L72.7693 19.274Z" fill="#5420C1"/>
<path d="M73.587 18.7995L72.7444 19.287L69.9531 17.6666L70.7958 17.1792L73.587 18.7995Z" fill="#6231A0"/>
<path d="M75.9308 17.4426L75.1408 17.9037L68.9922 14.3468L69.7822 13.8989L75.9308 17.4426Z" fill="#5420C1"/>
<path d="M76.7572 16.9684L75.9014 17.4558L72.9258 15.7301L73.7684 15.2427L76.7572 16.9684Z" fill="#6231A0"/>
<path d="M79.0738 15.6245L78.2838 16.0856L76.1641 14.8605L76.954 14.3994L79.0738 15.6245Z" fill="#5420C1"/>
<path d="M79.9045 15.1503L79.0618 15.6377L75.5859 13.6222L76.4286 13.1348L79.9045 15.1503Z" fill="#6231A0"/>
<path d="M88.5545 10.1576L87.7645 10.6055L76.5469 4.12417L77.3369 3.67627L88.5545 10.1576Z" fill="#5420C1"/>
<path d="M89.3834 9.67031L88.5276 10.1577L78.3633 4.29552L79.2191 3.79492L89.3834 9.67031Z" fill="#6231A0"/>
<path d="M91.7145 8.3267L90.9246 8.78778L76.6523 0.541161L77.4423 0.0932617L91.7145 8.3267Z" fill="#5420C1"/>
<path d="M92.5318 7.85239L91.6891 8.33981L78.1016 0.488396L78.9574 0.000976562L92.5318 7.85239Z" fill="#6231A0"/>
<path d="M94.8743 6.50856L94.0712 6.95646L83.6172 0.909813L84.4072 0.461914L94.8743 6.50856Z" fill="#5420C1"/>
<path d="M95.6924 6.02135L94.8498 6.50877L85.6992 1.22619L86.5419 0.73877L95.6924 6.02135Z" fill="#6231A0"/>
<path d="M98.0225 4.67757L97.2325 5.13865L89.1484 0.462049L89.9384 0.000976562L98.0225 4.67757Z" fill="#5420C1"/>
<path d="M98.8511 4.20316L98.0085 4.69058L91.4648 0.909783L92.3075 0.422363L98.8511 4.20316Z" fill="#6231A0"/>
<path d="M101.181 2.85954L100.391 3.30744L96.375 0.988905L97.165 0.527832L101.181 2.85954Z" fill="#5420C1"/>
<path d="M102.011 2.37197L101.168 2.85939L97.6133 0.817498L98.4559 0.330078L102.011 2.37197Z" fill="#6231A0"/>
<path d="M82.2362 13.7934L81.4463 14.2545L74.7578 10.3947L75.5478 9.93359L82.2362 13.7934Z" fill="#5420C1"/>
<path d="M83.0639 13.3193L82.2212 13.8067L74.4531 9.32775L75.3089 8.84033L83.0639 13.3193Z" fill="#6231A0"/>
<path d="M85.3938 11.9757L84.6038 12.4367L78.1523 8.70864L78.9423 8.26074L85.3938 11.9757Z" fill="#5420C1"/>
<path d="M86.212 11.5015L85.3694 11.9889L79.9844 8.88L80.827 8.39258L86.212 11.5015Z" fill="#6231A0"/>
<path d="M103.538 2.25359L68.4102 22.554L67.6992 22.1324L102.827 1.84521L103.538 2.25359Z" fill="#5420C1"/>
<path d="M62.6688 33.949L36.5864 49.0064L32.8867 46.8723L58.9559 31.8018L62.6688 33.949Z" fill="#6231A0"/>
<path d="M39.009 47.6234L36.5864 49.0066L32.8867 46.8725L35.2961 45.4761L39.009 47.6234Z" fill="#F25A5A"/>
<path d="M86.45 20.2093L60.3677 35.2666L56.668 33.1325L82.7372 18.062L86.45 20.2093Z" fill="#6231A0"/>
<path d="M62.7903 33.8831L60.3677 35.2663L56.668 33.1322L59.0774 31.7358L62.7903 33.8831Z" fill="#97CC66"/>
<path d="M110.227 6.46907L84.1582 21.5396L80.4453 19.3923L106.515 4.33496L110.227 6.46907Z" fill="#6231A0"/>
<path d="M86.5676 20.1434L84.1582 21.5398L80.4453 19.3925L82.8547 17.9961L86.5676 20.1434Z" fill="#7844E5"/>
<path d="M89.1495 15.7435L85.226 18.0093L84.8047 17.759L88.7282 15.4932L89.1495 15.7435Z" fill="#E1E9F4"/>
<path d="M91.425 14.4261L89.7924 15.3614L89.3711 15.1243L91.0037 14.189L91.425 14.4261Z" fill="#E1E9F4"/>
<path d="M89.1612 17.7982L87.0151 19.0365L86.5938 18.7993L88.7267 17.561L89.1612 17.7982Z" fill="#E1E9F4"/>
<path d="M94.6244 14.6365L89.7924 17.4293L89.3711 17.179L94.2031 14.3994L94.6244 14.6365Z" fill="#E1E9F4"/>
<path d="M97.9286 12.7264L95.269 14.2677L94.8477 14.0174L97.5072 12.4893L97.9286 12.7264Z" fill="#E1E9F4"/>
<path d="M65.5949 29.3514L61.6713 31.6172L61.25 31.3801L65.1735 29.1011L65.5949 29.3514Z" fill="#E1E9F4"/>
<path d="M67.8703 28.034L66.2377 28.9825L65.8164 28.7322L67.449 27.7969L67.8703 28.034Z" fill="#E1E9F4"/>
<path d="M65.5948 31.4066L63.4487 32.6449L63.0273 32.4077L65.1734 31.1694L65.5948 31.4066Z" fill="#E1E9F4"/>
<path d="M71.0566 28.2449L66.2377 31.0377L65.8164 30.8006L70.6353 28.0078L71.0566 28.2449Z" fill="#E1E9F4"/>
<path d="M74.3739 26.3348L71.7143 27.8761L71.293 27.639L73.9525 26.0977L74.3739 26.3348Z" fill="#E1E9F4"/>
<path d="M42.0377 42.9598L38.101 45.2256L37.6797 44.9885L41.6164 42.7227L42.0377 42.9598Z" fill="#E1E9F4"/>
<path d="M44.3039 41.6424L42.6713 42.5909L42.25 42.3406L43.8826 41.4053L44.3039 41.6424Z" fill="#E1E9F4"/>
<path d="M42.0401 45.015L39.894 46.2533L39.4727 46.0161L41.6188 44.7778L42.0401 45.015Z" fill="#E1E9F4"/>
<path d="M47.5033 41.8533L42.6713 44.6461L42.25 44.409L47.082 41.6162L47.5033 41.8533Z" fill="#E1E9F4"/>
<path d="M50.8075 39.9432L48.1479 41.4845L47.7266 41.2474L50.3861 39.7061L50.8075 39.9432Z" fill="#E1E9F4"/>
<path d="M117.18 14.8873L118.602 14.0705L118.246 13.8597L116.824 14.6765L117.18 14.8873ZM104.843 22.0141L111.031 18.4441L110.676 18.2465L104.474 21.8165L104.843 22.0141ZM111.531 18.1543L116.706 15.1639L116.337 14.9663L111.176 17.9435L111.531 18.1543ZM104.356 22.2908L104.013 22.0932L95.2316 27.165L95.5871 27.3626L104.356 22.2908ZM94.2046 26.5195L97.1012 24.8464L96.7457 24.6357L93.8359 26.3482L94.2046 26.5195ZM113.23 15.5591L117.18 13.2406L116.824 13.043L112.874 15.3483L113.23 15.5591ZM109.978 17.4429L112.677 15.8094L112.321 15.5986L109.556 17.2058L109.978 17.4429ZM105.988 19.7615L109.425 17.7723L109.069 17.5615L105.633 19.498L105.988 19.7615ZM97.5752 24.6225L105.475 20.0381L105.146 19.7615L97.246 24.3458L97.5752 24.6225Z" fill="#E1E9F4"/>
<path d="M119.615 14.7026L119.983 14.9134L116.639 16.8367L116.271 16.6391L119.615 14.7026ZM111.491 21.0786L111.86 21.2762L115.296 19.3002L114.941 19.0894L111.491 21.0786ZM115.783 16.9553L109.595 20.5385L109.951 20.7361L116.152 17.1266L115.783 16.9553ZM118.601 16.9553L115.428 18.7996L115.783 18.9972L118.97 17.1266L118.601 16.9553ZM109.464 21.0127L109.108 20.802L96.6133 28.0211L96.9688 28.2187L109.464 21.0127ZM102.959 26.348L102.604 26.1372L98.1142 28.7719L98.4697 28.9695L102.959 26.348ZM111.017 21.2762L103.117 25.8606L103.473 26.0582L111.373 21.487L111.017 21.2762Z" fill="#E1E9F4"/>
<path d="M77.8503 59.4663L87.883 53.67L87.5275 53.4724L77.4948 59.2819L77.8503 59.4663ZM77.3632 59.7561L77.0077 59.5454L68.2258 64.6172L68.5813 64.8279L77.3632 59.7561ZM67.212 63.9717L70.1085 62.2986L69.7794 62.101L66.8828 63.774L67.212 63.9717ZM82.9456 54.8951L85.7106 53.3011L85.3551 53.0903L82.5902 54.6843L82.9456 54.8951ZM78.9958 57.1609L82.4322 55.1717L82.0767 54.961L78.6403 56.9502L78.9958 57.1609ZM70.5825 62.022L78.4823 57.4376L78.1268 57.24L70.227 61.8112L70.5825 62.022Z" fill="#E1E9F4"/>
<path d="M81.9208 59.9933L82.2763 60.2041L86.4764 57.7801L86.1077 57.5694L81.9208 59.9933ZM86.5422 55.6855L82.5923 57.9514L82.9478 58.1622L86.8977 55.8963L86.5422 55.6855ZM82.487 58.4388L82.1315 58.228L69.6367 65.4471L69.9922 65.6579L82.487 58.4388ZM75.9829 63.8399L75.6274 63.6292L71.1377 66.2639L71.4932 66.4747L75.9829 63.8399ZM81.4337 60.2831L76.1672 63.3525L76.5227 63.5633L81.7892 60.4807L81.4337 60.2831Z" fill="#E1E9F4"/>
<path d="M129.027 27.876L129.383 28.0736L134.215 25.2808L133.859 25.07L129.027 27.876ZM128.896 28.3634L128.54 28.1526L121.957 31.9202L122.312 32.131L128.896 28.3634ZM125.525 31.525L125.894 31.7358L129.33 29.7466L128.975 29.549L125.525 31.525ZM129.475 29.2592L129.83 29.47L136.73 25.5179L136.374 25.3203L129.475 29.2592ZM121.128 34.5286L120.733 34.2519L114.149 38.0986L114.505 38.3094L121.128 34.5286ZM135.61 24.0293L134.294 24.7934L134.649 25.0041L135.966 24.2401L135.61 24.0293ZM121.852 32.4077L121.496 32.21L112.648 37.3082L113.004 37.519L121.852 32.4077ZM125.38 32.0124L125.077 31.8148L121.286 34.0016L121.641 34.2124L125.38 32.0124Z" fill="#E1E9F4"/>
<path d="M126.528 34.5947L132.716 31.0115L132.361 30.8139L126.159 34.3839L126.528 34.5947ZM133.203 30.7349L137.904 28.0211L137.548 27.8103L132.848 30.5241L133.203 30.7349ZM126.041 34.8713L125.672 34.6737L116.903 39.7455L117.259 39.9431L126.041 34.8713ZM115.863 39.1L118.76 37.427L118.404 37.2162L115.508 38.8893L115.863 39.1ZM134.849 28.1397L138.799 25.8343L138.443 25.6235L134.494 27.9289L134.849 28.1397ZM131.663 30.0103L134.428 28.4163L134.072 28.2055L131.294 29.8127L131.663 30.0103ZM127.713 32.2893L131.123 30.3001L130.768 30.0894L127.318 32.0786L127.713 32.2893ZM119.26 37.1504L127.16 32.566L126.804 32.3552L118.905 36.9396L119.26 37.1504Z" fill="#E1E9F4"/>
<path d="M63.9462 43.5791L64.3017 43.7899L69.1337 40.9971L68.7783 40.839L63.9462 43.5791ZM63.8146 44.0665L63.4591 43.8558L56.876 47.6366L57.2315 47.8342L63.8146 44.0665ZM60.4572 47.2414L60.8127 47.439L64.2491 45.4629L63.8936 45.2522L60.4572 47.2414ZM64.4071 44.9755L64.7625 45.1731L71.6617 41.2211L71.3062 41.0103L64.4071 44.9755ZM56.0728 50.2449L55.691 50.0605L49.0289 53.9072L49.3844 54.1048L56.0728 50.2449ZM70.5557 39.7852L69.2391 40.5492L69.5946 40.76L70.9112 39.9959L70.5557 39.7852ZM56.797 48.124L56.4415 47.9132L47.5938 53.0245L47.9624 53.2221L56.797 48.124ZM60.3255 47.7288L59.97 47.518L56.165 49.7048L56.5336 49.9156L60.3255 47.7288Z" fill="#E1E9F4"/>
<path d="M61.4718 50.2973L67.66 46.7273L67.3045 46.5165L61.1163 50.0602L61.4718 50.2973ZM68.1471 46.4375L72.8606 43.7237L72.492 43.4735L67.7916 46.2399L68.1471 46.4375ZM60.9847 50.5872L60.6292 50.3764L51.8473 55.4482L52.2028 55.6589L60.9847 50.5872ZM50.8335 54.8027L53.7301 53.1296L53.3746 52.9189L50.4648 54.6051L50.8335 54.8027ZM69.7797 43.8423L73.7296 41.5369L73.3741 41.3262L69.4243 43.6315L69.7797 43.8423ZM66.5277 45.7261L69.2926 44.119L68.9371 43.9214L66.1722 45.5153L66.5277 45.7261ZM62.5778 47.992L66.0142 46.0028L65.6587 45.792L62.2091 47.7812L62.5778 47.992ZM54.1646 52.853L62.0643 48.2686L61.6957 48.071L53.8486 52.6949L54.1646 52.853Z" fill="#E1E9F4"/>
<path d="M35.801 28.4293C49.8231 20.2749 72.7323 20.2749 86.8466 28.4293C93.4297 32.2101 96.8924 37.0711 97.3796 42.0112C97.9721 36.228 94.4567 30.3131 86.8466 25.9C72.7323 17.7456 49.8231 17.7456 35.801 25.9C28.2567 30.2868 24.794 36.149 25.3996 41.9058C25.9 36.9921 29.3627 32.1706 35.801 28.4293Z" fill="#6F96C1"/>
<path d="M98.1421 39.3241V44.9755C98.1421 50.3898 94.574 55.8041 87.4774 59.9274C73.2052 68.2267 49.8878 68.2267 35.5102 59.9274C28.2819 55.7514 24.6744 50.2581 24.6875 44.7647V39.1133C24.6875 44.6066 28.2819 50.1 35.5234 54.276C49.8878 62.5753 73.2052 62.5753 87.4906 54.276C94.5872 50.1527 98.1289 44.7384 98.1553 39.3241H98.1421Z" fill="url(#paint1_linear_732_19896)"/>
<path d="M87.3039 24.1613C101.681 32.4606 101.787 45.9766 87.475 54.2759C73.1633 62.5752 49.8722 62.5752 35.5473 54.2759C21.2224 45.9766 21.0644 32.4606 35.3762 24.1613C49.6879 15.8619 72.9395 15.8092 87.3039 24.1613ZM35.9555 54.0124C50.0302 62.1668 72.979 62.1668 87.0142 54.0124C101.049 45.858 100.957 32.5791 86.8957 24.4247C72.8342 16.2703 49.8722 16.2703 35.8501 24.4247C21.8281 32.5791 21.8412 45.858 35.9555 54.0124Z" fill="url(#paint2_linear_732_19896)"/>
<path d="M97.0865 61.5608C97.2085 61.5802 97.3252 61.6251 97.4288 61.6925L87.5673 56.0147C87.4601 55.9575 87.3446 55.9175 87.2249 55.8962C86.1453 55.6854 84.381 56.6866 83.2751 58.1357C82.8111 58.6912 82.5306 59.3769 82.4719 60.0985C82.4574 60.2778 82.4928 60.4576 82.5741 60.6181C82.6555 60.7785 82.7796 60.9133 82.9327 61.0075L92.7943 66.6853C92.9044 66.7491 93.0246 66.7937 93.1498 66.817C94.2294 67.0146 95.9805 66.0134 97.0996 64.5643C97.5636 64.0088 97.8441 63.3231 97.9028 62.6015C97.9256 62.3565 97.8537 62.112 97.7019 61.9184C97.55 61.7248 97.3298 61.5968 97.0865 61.5608Z" fill="#C7C6C4"/>
<path d="M99.0362 60.3881C98.8646 60.2909 98.6775 60.224 98.4832 60.1905C96.7584 59.8744 93.954 61.5079 92.2161 63.7869C91.4656 64.6769 91.006 65.7758 90.8994 66.9354C90.8767 67.2215 90.9335 67.5083 91.0636 67.7641C91.1938 68.0198 91.3921 68.2346 91.6367 68.3845L124.671 87.328C124.841 87.4293 125.028 87.4965 125.224 87.5256C126.949 87.8549 129.753 86.2082 131.491 83.9292C132.24 83.0437 132.7 81.9493 132.808 80.7939C132.828 80.5255 132.779 80.2563 132.666 80.0119C132.553 79.7675 132.38 79.5561 132.162 79.3975C131.965 79.279 99.0362 60.3881 99.0362 60.3881Z" fill="url(#paint3_linear_732_19896)"/>
<path style="mix-blend-mode:screen" d="M131.243 80.2276C130.875 79.7797 129.479 80.2934 128.136 81.3868C126.793 82.4802 126.016 83.7449 126.398 84.206C126.78 84.667 128.162 84.1401 129.505 83.0467C130.848 81.9533 131.664 80.6886 131.243 80.2276Z" fill="url(#paint4_linear_732_19896)"/>
</g>
<defs>
<linearGradient id="paint0_linear_732_19896" x1="25.3047" y1="31.644" x2="97.4821" y2="31.644" gradientUnits="userSpaceOnUse">
<stop stop-color="#E4E2E2"/>
<stop offset="1" stop-color="#D6D5D4"/>
</linearGradient>
<linearGradient id="paint1_linear_732_19896" x1="24.6612" y1="52.6293" x2="98.1421" y2="52.6293" gradientUnits="userSpaceOnUse">
<stop stop-color="#D6D5D4"/>
<stop offset="1" stop-color="#E4E2E2"/>
</linearGradient>
<linearGradient id="paint2_linear_732_19896" x1="24.672" y1="39.2186" x2="98.1397" y2="39.2186" gradientUnits="userSpaceOnUse">
<stop stop-color="#F0EFEC"/>
<stop offset="1" stop-color="#FFFEFB"/>
</linearGradient>
<linearGradient id="paint3_linear_732_19896" x1="90.9258" y1="73.8647" x2="132.781" y2="73.8647" gradientUnits="userSpaceOnUse">
<stop stop-color="#312F2C"/>
<stop offset="1" stop-color="#252321"/>
</linearGradient>
<linearGradient id="paint4_linear_732_19896" x1="128.096" y1="81.4132" x2="129.427" y2="82.8879" gradientUnits="userSpaceOnUse">
<stop stop-color="#312F2C"/>
<stop offset="1" stop-color="#252321"/>
</linearGradient>
<clipPath id="clip0_732_19896">
<rect width="145" height="111" fill="white" transform="translate(0 0.000976562)"/>
</clipPath>
</defs>
</svg>
