<svg width="159" height="103" viewBox="0 0 159 103" fill="none" xmlns="http://www.w3.org/2000/svg">
<g clip-path="url(#clip0_732_20135)">
<g opacity="0.4">
<path d="M16.7084 36.2476L0 45.9528L86.6926 96.2376H96.097L16.7084 36.2476Z" fill="#ADA6A3"/>
</g>
<path d="M96.3217 96.2376L7.67188 44.8016V36.3755L96.3217 53.9152V96.2376Z" fill="#D2CFCC"/>
<path d="M159.001 59.879L96.3203 96.2376V53.9152L159.001 51.4209V59.879Z" fill="#E9E6E6"/>
<path d="M159.002 51.421L96.3217 87.7956L7.67188 36.3756L70.368 0.000976562L159.002 51.421Z" fill="#F8F5F4"/>
<path d="M26.2891 40.4367L25.7003 40.7725L21.1016 38.1024L21.6903 37.7666L26.2891 40.4367Z" fill="#AE7BE1"/>
<path d="M26.8934 40.0851L26.2728 40.4369L22.4219 38.2144L23.0425 37.8467L26.8934 40.0851Z" fill="#642DD8"/>
<path d="M28.6103 39.0938L28.0216 39.4295L23.8047 36.9832L24.3775 36.6475L28.6103 39.0938Z" fill="#AE7BE1"/>
<path d="M29.2153 38.7419L28.5947 39.0936L23.7891 36.3116L24.4097 35.9438L29.2153 38.7419Z" fill="#642DD8"/>
<path d="M30.9352 37.7347L30.3465 38.0705L24.3633 34.6009L24.9361 34.2651L30.9352 37.7347Z" fill="#AE7BE1"/>
<path d="M31.5393 37.3827L30.9187 37.7504L26.5586 35.2082L27.1792 34.8564L31.5393 37.3827Z" fill="#642DD8"/>
<path d="M33.2591 36.3915L32.6862 36.7273L27.3555 33.6414L27.9442 33.3057L33.2591 36.3915Z" fill="#AE7BE1"/>
<path d="M33.8609 36.04L33.2403 36.3918L28.5938 33.6896L29.2143 33.3379L33.8609 36.04Z" fill="#642DD8"/>
<path d="M40.2422 32.3303L39.6534 32.6661L34.1953 29.5003L34.7682 29.1646L40.2422 32.3303Z" fill="#AE7BE1"/>
<path d="M40.8485 31.9788L40.2279 32.3466L35.1836 29.4206L35.8201 29.0688L40.8485 31.9788Z" fill="#642DD8"/>
<path d="M42.5658 30.9871L41.9929 31.3228L38.0625 29.0364L38.6354 28.7007L42.5658 30.9871Z" fill="#AE7BE1"/>
<path d="M43.1869 30.6358L42.5504 30.9875L37.1719 27.8697L37.7925 27.502L43.1869 30.6358Z" fill="#642DD8"/>
<path d="M44.8905 29.6441L44.3177 29.9799L36.9023 25.6629L37.4752 25.3271L44.8905 29.6441Z" fill="#AE7BE1"/>
<path d="M45.5102 29.2763L44.8896 29.6441L38.6836 26.0466L39.3201 25.6948L45.5102 29.2763Z" fill="#642DD8"/>
<path d="M47.2293 28.2852L46.6405 28.621L40.1641 24.8636L40.7369 24.5278L47.2293 28.2852Z" fill="#AE7BE1"/>
<path d="M47.8345 27.9334L47.2139 28.3011L41.8672 25.1993L42.4878 24.8315L47.8345 27.9334Z" fill="#642DD8"/>
<path d="M49.5508 26.942L48.962 27.2778L45.0156 24.9754L45.6044 24.6396L49.5508 26.942Z" fill="#AE7BE1"/>
<path d="M50.157 26.5905L49.5364 26.9423L44.7148 24.1442L45.3354 23.7925L50.157 26.5905Z" fill="#642DD8"/>
<path d="M35.5808 35.0327L35.008 35.3685L32.1914 33.7376L32.7643 33.4019L35.5808 35.0327Z" fill="#AE7BE1"/>
<path d="M36.2023 34.6808L35.5658 35.0486L30.6328 32.1866L31.2693 31.8188L36.2023 34.6808Z" fill="#642DD8"/>
<path d="M37.905 33.6895L37.3322 34.0252L34.5156 32.3944L35.1044 32.0586L37.905 33.6895Z" fill="#AE7BE1"/>
<path d="M38.5246 33.3375L37.904 33.6892L35.8672 32.522L36.4878 32.1543L38.5246 33.3375Z" fill="#642DD8"/>
<path d="M51.2862 26.4942L25.3962 41.5077L24.8711 41.2039L50.7611 26.1904L51.2862 26.4942Z" fill="#AE7BE1"/>
<path d="M54.8822 23.8402L54.2934 24.176L50.3789 21.9056L50.9677 21.5698L54.8822 23.8402Z" fill="#AE7BE1"/>
<path d="M55.4864 23.4886L54.8658 23.8564L51.6992 22.0176L52.3198 21.6499L55.4864 23.4886Z" fill="#642DD8"/>
<path d="M57.2054 22.4972L56.6166 22.833L55.1367 21.9696L55.7255 21.6338L57.2054 22.4972Z" fill="#AE7BE1"/>
<path d="M57.8103 22.1455L57.1897 22.4972L55.1211 21.314L55.7417 20.9463L57.8103 22.1455Z" fill="#642DD8"/>
<path d="M59.5299 21.1383L58.957 21.49L54.4219 18.8519L55.0106 18.5161L59.5299 21.1383Z" fill="#AE7BE1"/>
<path d="M60.1489 20.7866L59.5124 21.1543L57.3164 19.8752L57.937 19.5234L60.1489 20.7866Z" fill="#642DD8"/>
<path d="M61.8511 19.7952L61.2782 20.1309L59.7188 19.2355L60.2916 18.8838L61.8511 19.7952Z" fill="#AE7BE1"/>
<path d="M62.4716 19.4435L61.851 19.8112L59.2891 18.3243L59.9097 17.9565L62.4716 19.4435Z" fill="#642DD8"/>
<path d="M68.8366 15.75L68.2637 16.0858L62.5352 12.7601L63.108 12.4243L68.8366 15.75Z" fill="#AE7BE1"/>
<path d="M69.4604 15.398L68.8239 15.7498L63.875 12.8878L64.4956 12.52L69.4604 15.398Z" fill="#642DD8"/>
<path d="M71.1782 14.3908L70.5895 14.7266L62.6172 10.1058L63.206 9.77002L71.1782 14.3908Z" fill="#AE7BE1"/>
<path d="M71.7832 14.039L71.1626 14.4068L63.6836 10.0738L64.3042 9.70605L71.7832 14.039Z" fill="#642DD8"/>
<path d="M73.5026 13.0479L72.9138 13.3837L67.7422 10.3778L68.331 10.042L73.5026 13.0479Z" fill="#AE7BE1"/>
<path d="M74.1067 12.6963L73.4861 13.048L69.2852 10.6177L69.9058 10.25L74.1067 12.6963Z" fill="#642DD8"/>
<path d="M75.8253 11.6889L75.2365 12.0407L69.2852 8.57112L69.858 8.23535L75.8253 11.6889Z" fill="#AE7BE1"/>
<path d="M76.4304 11.3371L75.8098 11.7048L70.9883 8.90681L71.6089 8.53906L76.4304 11.3371Z" fill="#642DD8"/>
<path d="M78.1459 10.3459L77.5731 10.6817L74.6133 8.9709L75.1861 8.61914L78.1459 10.3459Z" fill="#AE7BE1"/>
<path d="M78.7696 9.99404L78.1331 10.3458L75.5234 8.84284L76.144 8.4751L78.7696 9.99404Z" fill="#642DD8"/>
<path d="M64.1936 18.4518L63.6048 18.7876L58.6719 15.9256L59.2607 15.5898L64.1936 18.4518Z" fill="#AE7BE1"/>
<path d="M64.7984 18.0841L64.1778 18.4518L58.4492 15.1422L59.0857 14.7744L64.7984 18.0841Z" fill="#642DD8"/>
<path d="M66.5144 17.0929L65.9256 17.4286L61.1836 14.6785L61.7565 14.3428L66.5144 17.0929Z" fill="#AE7BE1"/>
<path d="M67.1183 16.7414L66.4977 17.1091L62.5195 14.8067L63.1401 14.439L67.1183 16.7414Z" fill="#642DD8"/>
<path d="M79.88 9.89803L53.99 24.9275L53.4648 24.6237L79.3549 9.59424L79.88 9.89803Z" fill="#AE7BE1"/>
<path d="M49.7604 33.3539L30.5378 44.5141L27.8008 42.9152L47.0234 31.771L49.7604 33.3539Z" fill="#642DD8"/>
<path d="M32.32 43.4745L30.5378 44.5138L27.8008 42.9149L29.583 41.8916L32.32 43.4745Z" fill="#F25A5A"/>
<path d="M67.2955 23.1849L48.0729 34.3451L45.3359 32.7463L64.5585 21.6021L67.2955 23.1849Z" fill="#642DD8"/>
<path d="M49.8552 33.3055L48.0729 34.3448L45.3359 32.7459L47.1182 31.7227L49.8552 33.3055Z" fill="#97CC66"/>
<path d="M84.815 13.016L65.5925 24.1762L62.8555 22.5933L82.078 11.4331L84.815 13.016Z" fill="#642DD8"/>
<path d="M67.3747 23.1366L65.5925 24.1759L62.8555 22.593L64.6377 21.5537L67.3747 23.1366Z" fill="#7844E5"/>
<path d="M69.2844 19.8911L66.3883 21.5539L66.0859 21.378L68.9661 19.6992L69.2844 19.8911Z" fill="#E1E9F4"/>
<path d="M70.9531 18.916L69.7597 19.6035L69.4414 19.4276L70.6508 18.7241L70.9531 18.916Z" fill="#E1E9F4"/>
<path d="M69.2842 21.4103L67.7089 22.3216L67.3906 22.1457L68.9819 21.2344L69.2842 21.4103Z" fill="#E1E9F4"/>
<path d="M73.3082 19.0757L69.7597 21.1382L69.4414 20.9463L73.0059 18.8838L73.3082 19.0757Z" fill="#E1E9F4"/>
<path d="M75.7599 17.6524L73.7867 18.7876L73.4844 18.6118L75.4416 17.4766L75.7599 17.6524Z" fill="#E1E9F4"/>
<path d="M51.9214 29.9638L49.0253 31.6427L48.707 31.4508L51.6031 29.772L51.9214 29.9638Z" fill="#E1E9F4"/>
<path d="M53.5937 28.9887L52.3844 29.6763L52.082 29.5004L53.2755 28.7969L53.5937 28.9887Z" fill="#E1E9F4"/>
<path d="M51.9249 31.483L50.3336 32.3944L50.0312 32.2185L51.6066 31.3071L51.9249 31.483Z" fill="#E1E9F4"/>
<path d="M55.9488 29.1484L52.3844 31.211L52.082 31.0191L55.6465 28.9565L55.9488 29.1484Z" fill="#E1E9F4"/>
<path d="M58.3846 27.7257L56.4273 28.8609L56.125 28.685L58.0823 27.5498L58.3846 27.7257Z" fill="#E1E9F4"/>
<path d="M34.5461 40.0371L31.65 41.7159L31.3477 41.524L34.2438 39.8452L34.5461 40.0371Z" fill="#E1E9F4"/>
<path d="M36.2344 39.0616L35.025 39.7491L34.7227 39.5733L35.9161 38.8857L36.2344 39.0616Z" fill="#E1E9F4"/>
<path d="M34.546 41.5558L32.9706 42.4671L32.6523 42.2912L34.2436 41.3799L34.546 41.5558Z" fill="#E1E9F4"/>
<path d="M38.5895 39.2217L35.025 41.2842L34.7227 41.0923L38.2712 39.0298L38.5895 39.2217Z" fill="#E1E9F4"/>
<path d="M41.0216 37.7984L39.0643 38.9336L38.7461 38.7578L40.7034 37.6226L41.0216 37.7984Z" fill="#E1E9F4"/>
<path d="M106.299 41.8759C98.5652 46.3527 86.026 46.3527 78.2924 41.8759C70.5588 37.399 70.5588 30.1241 78.2924 25.6312C86.026 21.1384 98.5652 21.1544 106.299 25.6312C114.032 30.1081 114.032 37.383 106.299 41.8759Z" fill="#5832C5"/>
<path d="M106.299 41.8758C98.5658 46.3527 86.0266 46.3527 78.293 41.8758V43.4747C86.0266 47.9516 98.5658 47.9516 106.299 43.4747C110.214 41.2043 112.139 38.2144 112.092 35.2405V33.5776C112.139 36.6155 110.214 39.6054 106.299 41.8758Z" fill="#642DD8"/>
<path d="M92.5946 28.4453L92.4832 33.5457L92.1331 33.6577L78.2891 25.6313L78.305 20.2271L92.5946 28.4453Z" fill="#642DD8"/>
<path d="M92.4844 28.4452V33.8014L106.472 25.6791L106.488 20.2749L92.4844 28.4452Z" fill="#642DD8"/>
<path opacity="0.4" d="M106.486 20.275L92.4829 28.4453L78.3047 20.2271C86.1019 15.7502 98.6571 15.7662 106.486 20.275Z" fill="#5832C5"/>
<path d="M72.4336 30.4116V33.1937L92.4836 33.5934V30.4116H72.4336Z" fill="#642DD8"/>
<path opacity="0.4" d="M78.2895 22.1455C74.4068 24.4319 72.4336 27.4218 72.4336 30.3957H92.4836L78.2895 22.1455Z" fill="#5832C5"/>
<path d="M78.2765 40.2129C75.7239 38.919 73.7395 36.72 72.707 34.0412C72.5248 33.4182 72.4337 32.7719 72.4365 32.1226V32.6022C72.3836 34.0679 72.4742 35.5353 72.707 36.9832V37.0951C73.1892 38.4839 73.9391 39.7636 74.9139 40.861C75.8887 41.9584 77.0691 42.852 78.3879 43.4906L78.7857 43.6985V40.5007L78.2765 40.2129Z" fill="#642DD8"/>
<path d="M92.4857 32.1543V33.8011L78.8008 42.1633V40.5165L92.4857 32.1543Z" fill="#642DD8"/>
<path opacity="0.4" d="M92.4836 32.1545L78.7987 40.5007L78.2736 40.2129C75.721 38.919 73.7366 36.72 72.7041 34.0412C72.5275 33.417 72.4365 32.7715 72.4336 32.1226L92.4836 32.1545Z" fill="#5832C5"/>
<path d="M51.5714 44.2582L41.9124 49.8703L40.9258 49.2947L50.5848 43.6826L51.5714 44.2582Z" fill="#F25A5A"/>
<path d="M48.4543 48.2231L43.76 50.9412L42.7734 50.3656L47.4518 47.6475L48.4543 48.2231Z" fill="#F25A5A"/>
<path d="M60.8203 43.2029L45.6077 52.0128L44.6211 51.4372L59.8178 42.6113L60.8203 43.2029Z" fill="#97CC66"/>
<path d="M69.7929 40.1327L47.4514 53.0837L46.4648 52.5081L68.7904 39.5571L69.7929 40.1327Z" fill="#97CC66"/>
<path d="M69.9379 42.1957L49.2991 54.1554L48.3125 53.5798L68.9354 41.6201L69.9379 42.1957Z" fill="#97CC66"/>
<path d="M68.8378 44.9613L51.1588 55.2262L50.1562 54.6506L67.8512 44.3857L68.8378 44.9613Z" fill="#642DD8"/>
<path d="M67.2006 48.0634L53.0064 56.2976L52.0039 55.722L66.214 47.4878L67.2006 48.0634Z" fill="#642DD8"/>
<path d="M66.0686 50.8612L54.8502 57.3687L53.8477 56.7931L65.082 50.2856L66.0686 50.8612Z" fill="#7844E5"/>
<path d="M74.3769 48.1752L56.6978 58.44L55.6953 57.8644L73.3903 47.5996L74.3769 48.1752Z" fill="#7844E5"/>
<path d="M77.0162 48.7987L58.5416 59.5113L57.5391 58.9357L76.0137 48.2231L77.0162 48.7987Z" fill="#CA86FF"/>
<path d="M75.6654 51.725L60.3892 60.5828L59.3867 60.0072L74.6629 51.1494L75.6654 51.725Z" fill="#CA86FF"/>
<path d="M74.804 54.3632L62.233 61.6541L61.2305 61.0785L73.8174 53.7876L74.804 54.3632Z" fill="#642DD8"/>
<path d="M81.8389 52.4281L64.0803 62.7249L63.0938 62.1493L80.8524 51.8525L81.8389 52.4281Z" fill="#F25A5A"/>
<path d="M84.7846 52.8603L65.928 63.7966L64.9414 63.221L83.7821 52.2847L84.7846 52.8603Z" fill="#F25A5A"/>
<path d="M66.5317 63.9084L65.9271 64.2442L40.1484 49.2946L40.7531 48.9429L66.5317 63.9084Z" fill="#CA86FF"/>
<path d="M74.6136 67.9694C74.7485 68.0128 74.8662 68.0982 74.9497 68.2131C75.0332 68.3281 75.0782 68.4667 75.0782 68.609C75.0782 68.7513 75.0332 68.8899 74.9497 69.0049C74.8662 69.1198 74.7485 69.2052 74.6136 69.2485C74.2732 69.4214 73.8971 69.5114 73.5157 69.5114C73.1342 69.5114 72.7581 69.4214 72.4177 69.2485C72.2828 69.2052 72.1651 69.1198 72.0816 69.0049C71.9981 68.8899 71.9531 68.7513 71.9531 68.609C71.9531 68.4667 71.9981 68.3281 72.0816 68.2131C72.1651 68.0982 72.2828 68.0128 72.4177 67.9694C72.7581 67.7966 73.1342 67.7065 73.5157 67.7065C73.8971 67.7065 74.2732 67.7966 74.6136 67.9694Z" fill="#642DD8"/>
<path d="M79.9457 71.0715C80.075 71.1184 80.1867 71.2042 80.2656 71.3172C80.3446 71.4303 80.3869 71.565 80.3869 71.703C80.3869 71.8411 80.3446 71.9758 80.2656 72.0889C80.1867 72.2019 80.075 72.2877 79.9457 72.3346C79.6053 72.5075 79.2292 72.5975 78.8478 72.5975C78.4663 72.5975 78.0902 72.5075 77.7498 72.3346C77.6206 72.2877 77.5088 72.2019 77.4299 72.0889C77.351 71.9758 77.3086 71.8411 77.3086 71.703C77.3086 71.565 77.351 71.4303 77.4299 71.3172C77.5088 71.2042 77.6206 71.1184 77.7498 71.0715C78.0902 70.8986 78.4663 70.8086 78.8478 70.8086C79.2292 70.8086 79.6053 70.8986 79.9457 71.0715Z" fill="#642DD8"/>
<path d="M85.1957 74.1091C85.3306 74.1525 85.4482 74.2378 85.5317 74.3528C85.6152 74.4677 85.6602 74.6063 85.6602 74.7486C85.6602 74.8909 85.6152 75.0296 85.5317 75.1445C85.4482 75.2595 85.3306 75.3448 85.1957 75.3882C84.8552 75.561 84.4791 75.6511 84.0977 75.6511C83.7163 75.6511 83.3402 75.561 82.9997 75.3882C82.8648 75.3448 82.7471 75.2595 82.6637 75.1445C82.5802 75.0296 82.5352 74.8909 82.5352 74.7486C82.5352 74.6063 82.5802 74.4677 82.6637 74.3528C82.7471 74.2378 82.8648 74.1525 82.9997 74.1091C83.3402 73.9362 83.7163 73.8462 84.0977 73.8462C84.4791 73.8462 84.8552 73.9362 85.1957 74.1091Z" fill="#642DD8"/>
<path d="M90.4964 77.1789C90.6313 77.2223 90.749 77.3076 90.8325 77.4226C90.916 77.5375 90.961 77.6762 90.961 77.8185C90.961 77.9608 90.916 78.0994 90.8325 78.2144C90.749 78.3293 90.6313 78.4146 90.4964 78.458C90.156 78.6309 89.7799 78.7209 89.3985 78.7209C89.017 78.7209 88.6409 78.6309 88.3005 78.458C88.1656 78.4146 88.0479 78.3293 87.9644 78.2144C87.8809 78.0994 87.8359 77.9608 87.8359 77.8185C87.8359 77.6762 87.8809 77.5375 87.9644 77.4226C88.0479 77.3076 88.1656 77.2223 88.3005 77.1789C88.6409 77.0061 89.017 76.916 89.3985 76.916C89.7799 76.916 90.156 77.0061 90.4964 77.1789Z" fill="#642DD8"/>
<path d="M95.7465 80.2331C95.8758 80.28 95.9875 80.3658 96.0664 80.4789C96.1454 80.5919 96.1877 80.7266 96.1877 80.8647C96.1877 81.0027 96.1454 81.1375 96.0664 81.2505C95.9875 81.3635 95.8758 81.4493 95.7465 81.4962C95.4061 81.6691 95.03 81.7591 94.6485 81.7591C94.2671 81.7591 93.891 81.6691 93.5506 81.4962C93.4213 81.4493 93.3096 81.3635 93.2307 81.2505C93.1517 81.1375 93.1094 81.0027 93.1094 80.8647C93.1094 80.7266 93.1517 80.5919 93.2307 80.4789C93.3096 80.3658 93.4213 80.28 93.5506 80.2331C93.891 80.0603 94.2671 79.9702 94.6485 79.9702C95.03 79.9702 95.4061 80.0603 95.7465 80.2331Z" fill="#642DD8"/>
<path d="M103.068 52.7638L106.251 50.9251L105.837 50.6853L102.655 52.524L103.068 52.7638ZM88.9061 60.9661L96.0191 56.857L95.6054 56.6172L88.5083 60.7583L88.9061 60.9661ZM96.5761 56.5212L102.496 53.0836L102.098 52.8438L96.1623 56.2814L96.5761 56.5212ZM88.3492 61.3179L87.9514 61.078L77.8786 66.914L78.2923 67.1538L88.3492 61.3179ZM106.792 50.6213L111.295 47.9672L110.882 47.7274L106.378 50.3495L106.792 50.6213ZM76.717 66.1785L80.0427 64.2758L79.5654 64.036L76.3828 65.9706L76.717 66.1785ZM105.774 48.8786L106.171 49.1184L110.134 46.816L109.8 46.5762L105.774 48.8786ZM98.4697 53.5793L105.615 49.4382L105.217 49.1983L98.0559 53.3394L98.4697 53.5793ZM94.7461 55.7538L97.9286 53.915L97.5149 53.6752L94.3324 55.5139L94.7461 55.7538ZM90.2428 58.3599L94.1892 56.0735L93.7754 55.8337L89.8291 58.1201L90.2428 58.3599ZM80.5997 63.956L89.6859 58.6797L89.2721 58.4399L80.186 63.7162L80.5997 63.956Z" fill="#CA86FF"/>
<path d="M99.5977 58.2801L100.011 58.52L105.931 55.0664L105.517 54.8425L99.5977 58.2801ZM99.4545 58.8397L99.0407 58.5999L91.9277 62.725L92.3415 62.9489L99.4545 58.8397ZM100.712 59.5113L101.125 59.7511L105.024 57.4647L104.61 57.2249L100.712 59.5113ZM105.215 56.9051L105.629 57.1449L108.811 55.3062L108.397 55.0664L105.215 56.9051ZM116.099 50.5096L108.938 54.6666L109.352 54.9065L116.497 50.7494L116.099 50.5096ZM90.9252 65.667L90.5115 65.4431L82.8893 69.856L83.2871 70.0959L90.9252 65.667ZM112.598 50.7334L106.09 54.5068L106.488 54.7466L112.98 50.9732L112.598 50.7334ZM91.7845 63.2846L91.3708 63.0448L81.2344 68.9287L81.6481 69.1685L91.7845 63.2846ZM113.155 50.4936L113.569 50.7334L117.372 48.511L116.958 48.2871L113.155 50.4936ZM100.568 60.0869L100.155 59.847L91.0684 65.1074L91.4822 65.3472L100.568 60.0869Z" fill="#CA86FF"/>
<path d="M102.113 63.1249L102.527 63.3647L106.473 61.0623L106.06 60.8385L102.113 63.1249ZM103.1 64.9156L102.686 64.6758L95.6687 68.753L96.0824 68.9928L103.1 64.9156ZM109.799 58.664L106.617 60.5027L107.03 60.7426L110.213 58.9039L109.799 58.664ZM110.356 58.3442L110.77 58.5841L117.915 54.363L117.501 54.1392L110.356 58.3442ZM117.756 56.3936L121.909 53.9793L121.495 53.7395L117.342 56.1538L117.756 56.3936ZM92.2952 69.2806L91.8814 69.0408L86.7734 71.9507L87.1872 72.1906L92.2952 69.2806ZM101.525 63.4447L92.4702 68.753L92.8839 68.9928L101.97 63.7165L101.525 63.4447ZM103.211 64.356L103.625 64.5959L110.722 60.4708L110.308 60.2309L103.211 64.356ZM116.801 56.4736L110.865 59.9112L111.279 60.151L117.214 56.7134L116.801 56.4736ZM120.158 52.6362L118.026 53.8674L118.44 54.1072L120.572 52.8761L120.158 52.6362ZM95.4777 69.3126L95.064 69.0727L88.3329 72.974L88.7466 73.2139L95.4777 69.3126Z" fill="#CA86FF"/>
<path d="M104.658 70.1441L111.755 66.035L111.389 65.7951L104.292 69.9202L104.658 70.1441ZM112.312 65.6992L118.247 62.2616L117.834 62.0218L111.898 65.5553L112.312 65.6992ZM104.101 70.4958L103.687 70.256L93.6144 76.0919L94.0282 76.3318L104.101 70.4958ZM92.4528 75.2925L95.7786 73.3578L95.3648 73.118L92.0391 75.1486L92.4528 75.2925ZM121.509 58.0086L121.923 58.2484L125.87 55.962L125.456 55.7222L121.509 58.0086ZM114.205 62.7093L121.366 58.5682L120.937 58.3283L113.792 62.4854L114.205 62.7093ZM110.482 64.8838L113.664 63.0451L113.251 62.8052L110.068 64.6439L110.482 64.8838ZM105.979 67.4899L109.925 65.2035L109.511 64.9637L105.565 67.2501L105.979 67.4899ZM96.3355 73.086L105.422 67.8097L105.024 67.5699L95.9377 72.8462L96.3355 73.086Z" fill="#CA86FF"/>
<path d="M119.758 65.1075L120.172 65.3473L126.107 61.9098L125.693 61.6699L119.758 65.1075Z" fill="#CA86FF"/>
<path d="M114.285 70.1761L114.699 70.4159L118.645 68.1295L118.232 67.8896L114.285 70.1761Z" fill="#CA86FF"/>
<path d="M119.203 65.4272L112.105 69.5524L112.519 69.7922L119.616 65.6671L119.203 65.4272Z" fill="#CA86FF"/>
<path d="M124.915 64.0044L118.789 67.5699L119.203 67.8097L125.329 64.2442L124.915 64.0044Z" fill="#CA86FF"/>
<path d="M111.962 70.1119L111.548 69.8721L97.2266 78.1863L97.6403 78.4261L111.962 70.1119Z" fill="#CA86FF"/>
<path d="M126.25 61.3499L126.664 61.5898L129.83 59.7511L129.417 59.5112L126.25 61.3499Z" fill="#CA86FF"/>
<path d="M104.499 76.3316L104.085 76.0918L98.9453 79.0817L99.359 79.3215L104.499 76.3316Z" fill="#CA86FF"/>
<path d="M113.727 70.4956L104.641 75.7719L105.054 76.0118L114.141 70.7354L113.727 70.4956Z" fill="#CA86FF"/>
<path d="M129.992 59.1914L130.39 59.4153L133.079 57.8643L132.681 57.6245L129.992 59.1914Z" fill="#CA86FF"/>
<path d="M18.5069 63.6369V61.6383L10.9643 57.1934V59.16C10.943 59.3338 10.9688 59.5101 11.0388 59.6705C11.1088 59.8308 11.2204 59.9693 11.3621 60.0713L18.8888 64.5003C18.7552 64.4028 18.6496 64.2716 18.5825 64.1201C18.5155 63.9685 18.4894 63.8018 18.5069 63.6369Z" fill="#8851CE"/>
<path d="M20.2245 50.7018C20.0646 50.6241 19.8866 50.592 19.7099 50.6089C19.5331 50.6258 19.3643 50.6911 19.222 50.7977L12.3477 54.7789L19.8744 59.1599L26.7646 55.1626C26.906 55.0606 27.0717 54.998 27.245 54.9812C27.4183 54.9643 27.5929 54.9938 27.7512 55.0667L20.2245 50.7018Z" fill="#A378FF"/>
<path d="M18.4916 61.638L10.9648 57.1931C10.9922 56.7101 11.1317 56.2402 11.3721 55.821C11.6124 55.4018 11.9471 55.0449 12.3493 54.7788L19.876 59.1597C19.4729 59.4249 19.1376 59.7816 18.8971 60.201C18.6566 60.6204 18.5177 61.0907 18.4916 61.5741V61.638Z" fill="#A378FF"/>
<path d="M26.7665 55.2268C27.5303 54.7791 28.1509 55.1308 28.1509 56.0262V58.0248C28.1255 58.5123 27.9853 58.9868 27.7418 59.4093C27.4984 59.8318 27.1587 60.1902 26.7506 60.4551L19.8922 64.4363C19.1284 64.884 18.5078 64.5163 18.5078 63.6369V61.6383C18.5223 61.1454 18.654 60.6631 18.8921 60.232C19.1303 59.8008 19.4677 59.4332 19.8763 59.16L26.7665 55.2268Z" fill="#252321"/>
<path d="M58.4933 72.6382L22.7852 51.8527C22.9486 51.7326 23.1412 51.6588 23.3428 51.6391C23.5443 51.6194 23.7474 51.6545 23.9309 51.7408L59.639 72.5262C59.4539 72.4439 59.2503 72.4124 59.049 72.4349C58.8478 72.4573 58.656 72.533 58.4933 72.6541V72.6382Z" fill="#373431"/>
<path d="M48.9626 82.3275V80.0251L13.2544 59.1597V61.478C13.2369 61.6781 13.2717 61.8792 13.3555 62.0615C13.4392 62.2438 13.5689 62.401 13.7318 62.5173L49.44 83.3028C49.2856 83.1933 49.161 83.0467 49.0776 82.8763C48.9942 82.7059 48.9546 82.5172 48.9626 82.3275Z" fill="#1E1B19"/>
<path d="M50.5519 77.2432L14.8438 56.4417L22.7842 51.8369L58.4924 72.6384L50.5519 77.2432Z" fill="#2D2B29"/>
<path d="M48.9621 80.0249L13.2539 59.1595C13.2843 58.6031 13.4441 58.0616 13.7205 57.5784C13.9968 57.0953 14.382 56.684 14.8452 56.3774L50.5533 77.1629C50.0902 77.4694 49.705 77.8808 49.4286 78.3639C49.1523 78.8471 48.9925 79.3886 48.9621 79.945V80.0249Z" fill="#373431"/>
<path d="M58.4929 72.638C59.3841 72.1104 60.0842 72.5261 60.0842 73.5493V75.8677C60.0563 76.4247 59.8976 76.9672 59.621 77.4507C59.3444 77.9342 58.9579 78.3451 58.4929 78.6498L50.5366 83.2546C49.6614 83.7822 48.9453 83.3505 48.9453 82.3272V80.0248C48.9757 79.4684 49.1355 78.9269 49.4119 78.4438C49.6882 77.9606 50.0734 77.5493 50.5366 77.2428L58.4929 72.638Z" fill="#252321"/>
<path d="M59.1623 74.0452C59.0251 73.988 58.8758 73.9668 58.7282 73.9836C58.5807 74.0004 58.4398 74.0546 58.3189 74.1412L51.556 78.0584C51.2202 78.2808 50.9404 78.5785 50.7388 78.9281C50.5372 79.2778 50.4193 79.6697 50.3944 80.073V81.7519C50.3804 81.8971 50.4056 82.0435 50.4672 82.1757C50.5287 82.3079 50.6245 82.421 50.7444 82.5033L60.1966 84.39C60.4739 84.4524 60.7637 84.4244 61.0241 84.3101L62.6153 83.3507C63.2678 82.967 63.3632 80.2969 63.3632 80.2969L59.1623 74.0452Z" fill="#1E1B19"/>
<path d="M66.6733 82.4393L62.0586 79.7372C62.1505 79.6838 62.2548 79.6558 62.3609 79.6558C62.4671 79.6558 62.5714 79.6838 62.6633 79.7372L67.2302 82.4393C67.1426 82.3822 67.0403 82.3518 66.9358 82.3518C66.8314 82.3518 66.7291 82.3822 66.6415 82.4393H66.6733Z" fill="#373431"/>
<path d="M63.9542 86.2127V84.9975L59.3873 82.2954V83.5106C59.3739 83.6161 59.3907 83.7233 59.4358 83.8196C59.4809 83.9159 59.5524 83.9973 59.6419 84.0542L64.2088 86.7563C64.1231 86.6956 64.0546 86.6136 64.01 86.5183C63.9654 86.423 63.9461 86.3177 63.9542 86.2127Z" fill="#1E1B19"/>
<path d="M64.7818 83.5267L60.2148 80.8245L62.0925 79.7373L66.6754 82.4394L64.7818 83.5267Z" fill="#2D2B29"/>
<path d="M63.938 84.9973L59.3711 82.2952C59.3837 82 59.4669 81.7121 59.6137 81.4561C59.7605 81.2 59.9666 80.9833 60.2145 80.8242L64.7814 83.5263C64.5362 83.6883 64.3322 83.9057 64.1858 84.1611C64.0393 84.4166 63.9545 84.703 63.938 84.9973Z" fill="#373431"/>
<path d="M66.6742 82.4394C67.1357 82.1676 67.5176 82.4394 67.5176 82.9191V84.1343C67.505 84.4295 67.4218 84.7173 67.275 84.9734C67.1281 85.2294 66.9221 85.4462 66.6742 85.6052L64.7965 86.6925C64.3191 86.9643 63.9531 86.6925 63.9531 86.2128V84.9977C63.9695 84.7033 64.0544 84.4169 64.2009 84.1615C64.3473 83.906 64.5513 83.6886 64.7965 83.5267L66.6742 82.4394Z" fill="#252321"/>
<path d="M66.9603 83.0308L64.6211 84.3898V85.9887L67.3103 87.5876C67.3447 87.6089 67.3837 87.6218 67.424 87.625C67.4643 87.6282 67.5048 87.6217 67.5421 87.6061C67.5795 87.5905 67.6125 87.5662 67.6387 87.5351C67.6648 87.5041 67.6831 87.4673 67.6923 87.4277L68.281 85.573C68.2875 85.5039 68.2875 85.4343 68.281 85.3651V84.102C68.2793 84.0159 68.2566 83.9316 68.215 83.8564C68.1734 83.7811 68.1141 83.7173 68.0423 83.6703L66.9603 83.0308Z" fill="#A378FF"/>
<path d="M29.4077 61.654L20.6875 56.6016L23.3768 55.0347L32.0969 60.0871L29.4077 61.654Z" fill="#3F474F"/>
<path d="M34.7065 63.0608L35.7408 63.6684L35.5339 63.7803L34.4837 63.1887L34.7065 63.0608ZM33.7676 63.7164L33.9745 63.6044L33.1629 63.1248L32.6219 62.821L32.415 62.9329L32.9561 63.2527L33.7676 63.7164ZM32.1763 62.5972L30.8397 61.8137L30.6328 61.9416L31.9695 62.7091L32.1763 62.5972ZM33.4812 62.5972L34.0381 62.9329L34.2609 62.805L33.4175 62.3573L31.8263 61.43L31.6035 61.5419L33.6244 62.7091L33.4812 62.5972ZM32.7333 61.2061L34.0381 61.9736L34.245 61.8457L32.9402 61.0782L32.5105 60.8384L32.3036 60.9663L32.7333 61.2061ZM35.3589 62.805L35.7726 63.0608L35.9795 62.9329L35.4225 62.6131L34.6269 62.1495L34.42 62.2774L35.3589 62.805ZM39.0666 64.7237L38.4937 64.3879L38.2868 64.4998L38.8597 64.8516L39.0666 64.7237ZM38.1914 64.1161L37.6822 63.8283L37.4753 63.9402L37.9845 64.244L38.1914 64.1161ZM38.3346 65.1554L37.3798 64.6117L37.1729 64.7237L38.1277 65.2833L38.3346 65.1554ZM36.075 64.8036L35.6612 64.5638L35.4544 64.6917L35.8681 64.9315L36.075 64.8036ZM36.4569 65.0274L36.25 65.1554L37.3162 65.7629L37.523 65.651L36.4569 65.0274Z" fill="#3F474F"/>
<path d="M10.9335 79.0177V77.0191L3.40681 72.5742V74.5888C3.39026 74.7615 3.41988 74.9356 3.49261 75.093C3.56534 75.2504 3.67854 75.3854 3.82054 75.4842L11.3473 79.9451C11.1988 79.8449 11.0813 79.7049 11.0081 79.541C10.935 79.377 10.9091 79.1957 10.9335 79.0177Z" fill="#CE307C"/>
<path d="M12.7298 66.0826C12.57 66.005 12.392 65.9728 12.2152 65.9897C12.0384 66.0067 11.8697 66.072 11.7273 66.1786L4.77344 70.1598L12.3002 74.6047L19.1745 70.6075C19.319 70.5055 19.4873 70.4431 19.6631 70.4263C19.8388 70.4095 20.0159 70.4388 20.177 70.5115L12.7298 66.0826Z" fill="#FF398F"/>
<path d="M10.933 77.0189L3.40625 72.574C3.43184 72.0924 3.56886 71.6234 3.80642 71.2043C4.04398 70.7852 4.37553 70.4275 4.77474 70.1597L12.3015 74.6046C11.8984 74.8697 11.5631 75.2264 11.3226 75.6458C11.0821 76.0652 10.9432 76.5355 10.9171 77.0189H10.933Z" fill="#FF398F"/>
<path d="M19.1923 70.6077C19.9561 70.16 20.5926 70.6077 20.5926 71.4071V73.4057C20.5702 73.8921 20.433 74.3662 20.1923 74.7887C19.9515 75.2113 19.6142 75.5703 19.2082 75.836L12.3339 79.8173C11.5542 80.2649 10.9336 79.9132 10.9336 79.0178V77.0192C10.9597 76.5359 11.0987 76.0655 11.3392 75.6461C11.5796 75.2267 11.915 74.87 12.318 74.6049L19.1923 70.6077Z" fill="#252321"/>
<path d="M50.9227 88.0194L15.2305 67.154C15.3939 67.0338 15.5865 66.9601 15.7881 66.9404C15.9896 66.9207 16.1928 66.9558 16.3762 67.042L52.0844 87.9394C51.9018 87.8497 51.698 87.8127 51.4957 87.8324C51.2934 87.8522 51.1006 87.928 50.9386 88.0513L50.9227 88.0194Z" fill="#373431"/>
<path d="M41.3746 97.7245V95.4061L5.66642 74.6206V76.939C5.64551 77.1377 5.67716 77.3384 5.75819 77.5209C5.83922 77.7034 5.96675 77.8612 6.12789 77.9783L41.8361 98.7637C41.6724 98.649 41.543 98.4916 41.4617 98.3085C41.3804 98.1254 41.3503 97.9235 41.3746 97.7245Z" fill="#1E1B19"/>
<path d="M42.9972 92.624L7.28906 71.8226L15.2295 67.2178L50.9377 88.0192L42.9972 92.624Z" fill="#2D2B29"/>
<path d="M41.3761 95.4064L5.66797 74.6209C5.69588 74.0639 5.85462 73.5215 6.13119 73.0379C6.40776 72.5544 6.79432 72.1435 7.25924 71.8389L42.9674 92.6243C42.5025 92.929 42.1159 93.3399 41.8394 93.8234C41.5628 94.3069 41.404 94.8494 41.3761 95.4064Z" fill="#373431"/>
<path d="M50.9226 88.0191C51.8138 87.5075 52.5139 87.9072 52.5139 88.9305V91.2489C52.486 91.8059 52.3273 92.3483 52.0507 92.8319C51.7741 93.3154 51.3876 93.7263 50.9226 94.0309L42.9663 98.6357C42.0752 99.1633 41.375 98.7476 41.375 97.7243V95.406C41.4029 94.849 41.5616 94.3065 41.8382 93.823C42.1148 93.3395 42.5013 92.9286 42.9663 92.6239L50.9226 88.0191Z" fill="#252321"/>
<path d="M51.5886 89.4422C51.4568 89.3776 51.3097 89.3509 51.1637 89.365C51.0177 89.3791 50.8784 89.4335 50.7612 89.5222L43.9983 93.4394C43.6586 93.6615 43.3762 93.9613 43.1743 94.3143C42.9724 94.6673 42.8566 95.0634 42.8366 95.47V97.0689C42.8214 97.215 42.8442 97.3625 42.9027 97.497C42.9613 97.6316 43.0537 97.7485 43.1708 97.8364L52.623 99.7071C52.8904 99.8035 53.183 99.8035 53.4504 99.7071L55.0417 98.7477C55.6782 98.38 55.7737 95.6939 55.7737 95.6939L51.5886 89.4422Z" fill="#1E1B19"/>
<path d="M59.1021 97.8207L54.5352 95.1186C54.6285 95.0696 54.7322 95.0439 54.8375 95.0439C54.9428 95.0439 55.0465 95.0696 55.1398 95.1186L59.7068 97.8207C59.616 97.764 59.5113 97.734 59.4045 97.734C59.2976 97.734 59.1929 97.764 59.1021 97.8207Z" fill="#373431"/>
<path d="M56.3794 101.594V100.379L51.7966 97.6768V98.8919C51.7851 98.9956 51.8011 99.1005 51.8431 99.196C51.885 99.2915 51.9513 99.3741 52.0353 99.4355L56.6181 102.138C56.5316 102.079 56.4633 101.996 56.421 101.9C56.3788 101.804 56.3644 101.698 56.3794 101.594Z" fill="#1E1B19"/>
<path d="M57.2235 98.908L52.6406 96.2059L54.5342 95.1187L59.1012 97.8208L57.2235 98.908Z" fill="#2D2B29"/>
<path d="M56.3797 100.379L51.7969 97.677C51.8133 97.3827 51.8981 97.0963 52.0446 96.8409C52.1911 96.5854 52.3951 96.368 52.6403 96.2061L57.2868 98.9082C57.0416 99.0701 56.8376 99.2875 56.6911 99.543C56.5447 99.7984 56.4598 100.085 56.4434 100.379H56.3797Z" fill="#373431"/>
<path d="M59.0988 97.8208C59.5762 97.549 59.9422 97.8208 59.9581 98.3005V99.5156C59.9417 99.81 59.8568 100.096 59.7104 100.352C59.5639 100.607 59.3599 100.825 59.1147 100.987L57.2848 102.074C56.8233 102.346 56.4414 102.074 56.4414 101.594V100.379C56.4578 100.085 56.5427 99.7983 56.6891 99.5428C56.8356 99.2874 57.0396 99.07 57.2848 98.908L59.0988 97.8208Z" fill="#252321"/>
<path d="M59.3858 98.4121L57.0625 99.7712V101.37L59.7358 102.969C59.7704 102.99 59.8094 103.004 59.8498 103.008C59.8902 103.012 59.931 103.007 59.9692 102.993C60.0074 102.979 60.042 102.957 60.0705 102.928C60.099 102.899 60.1206 102.864 60.1337 102.825L60.7065 100.954C60.7207 100.886 60.7207 100.815 60.7065 100.746V99.4993C60.6964 99.4241 60.6697 99.3521 60.6284 99.2884C60.5871 99.2248 60.5323 99.1713 60.4678 99.1316L59.3858 98.4121Z" fill="#FF398F"/>
<path d="M21.8491 77.0349L13.1289 71.9824L15.8182 70.4155L24.5383 75.468L21.8491 77.0349Z" fill="#3F474F"/>
<path d="M27.1323 78.4419L28.1825 79.0495L27.9756 79.1774L26.9254 78.5698L27.1323 78.4419ZM26.1934 79.0975L26.4162 78.9856L25.5887 78.5059L25.0636 78.2021L24.8567 78.314L25.3819 78.6338L26.1934 79.0975ZM24.6021 77.9783L23.2655 77.1948L23.0586 77.3227L24.3953 78.1062L24.6021 77.9783ZM25.907 77.9783L26.4639 78.298L26.6708 78.1701L25.7001 77.6105L24.1088 76.6832L23.902 76.7951L25.9229 77.9783H25.907ZM25.1432 76.5712L26.4639 77.3387L26.6708 77.2108L25.4614 76.5073L25.0477 76.2515L24.8408 76.3794L25.2546 76.6192L25.1432 76.5712ZM27.7688 78.0902L28.1984 78.346H28.4848L27.9279 78.0262L27.1323 77.5625L26.9254 77.6905L27.8483 78.2181L27.7688 78.0902ZM31.4923 80.0088L30.9036 79.6731L30.6967 79.801L31.2855 80.1367L31.4923 80.0088ZM30.5217 79.4492L30.0284 79.1614L29.8215 79.2734L30.3148 79.5771L30.5217 79.4492ZM30.6808 80.5045L29.7897 79.9449L29.5828 80.0568L30.5535 80.6164L30.6808 80.5045ZM28.4053 80.1367L28.0711 79.9449L27.8642 80.0728L28.278 80.3126L28.4053 80.1367ZM28.7872 80.3606L28.5803 80.4885L29.6465 81.0961L29.8533 80.9842L28.7872 80.3606Z" fill="#3F474F"/>
</g>
<defs>
<clipPath id="clip0_732_20135">
<rect width="159" height="103" fill="white" transform="translate(0 0.000976562)"/>
</clipPath>
</defs>
</svg>
