<svg width="579" height="288" viewBox="0 0 579 288" fill="none" xmlns="http://www.w3.org/2000/svg">
<rect x="62.5" y="4.5" width="512" height="248" stroke="#ECECEC" stroke-opacity="0.1"/>
<path d="M62.0195 100.836H575.294" stroke="#ECECEC" stroke-opacity="0.1"/>
<path d="M62.0195 49H575.294" stroke="#ECECEC" stroke-opacity="0.1"/>
<path d="M62.0195 152.672H575.294" stroke="#ECECEC" stroke-opacity="0.1"/>
<path d="M62.0195 204.51H575.294" stroke="#ECECEC" stroke-opacity="0.1"/>
<path d="M148 4L148 253" stroke="#ECECEC" stroke-opacity="0.1"/>
<path d="M233 4L233 253" stroke="#ECECEC" stroke-opacity="0.1"/>
<path d="M318 4L318 253" stroke="#ECECEC" stroke-opacity="0.1"/>
<path d="M403 4L403 253" stroke="#ECECEC" stroke-opacity="0.1"/>
<path d="M487 4L487 253" stroke="#ECECEC" stroke-opacity="0.1"/>
<circle cx="62.8201" cy="212.286" r="5.59645" fill="white"/>
<circle cx="149.166" cy="169.114" r="5.59645" fill="white"/>
<circle cx="233.911" cy="212.288" r="5.59645" fill="white"/>
<circle cx="318.658" cy="39.5964" r="5.59645" fill="white"/>
<circle cx="403.404" cy="125.942" r="5.59645" fill="white"/>
<circle cx="488.15" cy="82.7683" r="5.59645" fill="white"/>
<circle cx="572.896" cy="212.286" r="5.59645" fill="white"/>
<path d="M63 213.437L149.961 168.586L233.73 213.437L318.298 40.4375L402.865 125.336L487.433 82.8866L572 213.437" stroke="white" stroke-width="2"/>
<circle cx="62.8201" cy="124.343" r="5.59645" fill="#E63114"/>
<circle cx="149.166" cy="82.7683" r="5.59645" fill="#E63114"/>
<circle cx="233.911" cy="121.143" r="5.59645" fill="#E63114"/>
<circle cx="318.658" cy="169.112" r="5.59645" fill="#E63114"/>
<circle cx="403.404" cy="213.886" r="5.59645" fill="#E63114"/>
<circle cx="488.15" cy="169.114" r="5.59645" fill="#E63114"/>
<circle cx="572.896" cy="125.94" r="5.59645" fill="#E63114"/>
<path d="M64 123.486L150.332 82.4375L234.266 123.486L318.201 169.364L403.734 214.438L488.467 169.364L574 123.486" stroke="#E63114" stroke-width="2"/>
<path d="M20.8334 248.903V249.698H17.5963V248.903H20.8334ZM24.9205 245.601V253H24.0245V246.54H23.9811L22.1747 247.74V246.829L24.0245 245.601H24.9205ZM29.4619 253.101C28.9175 253.101 28.4539 252.953 28.0709 252.657C27.688 252.358 27.3953 251.926 27.193 251.36C26.9907 250.791 26.8895 250.105 26.8895 249.3C26.8895 248.501 26.9907 247.818 27.193 247.252C27.3977 246.683 27.6916 246.25 28.0745 245.951C28.4599 245.65 28.9224 245.5 29.4619 245.5C30.0014 245.5 30.4627 245.65 30.8456 245.951C31.231 246.25 31.5248 246.683 31.7272 247.252C31.9319 247.818 32.0343 248.501 32.0343 249.3C32.0343 250.105 31.9331 250.791 31.7308 251.36C31.5285 251.926 31.2358 252.358 30.8528 252.657C30.4699 252.953 30.0062 253.101 29.4619 253.101ZM29.4619 252.306C30.0014 252.306 30.4205 252.046 30.7192 251.526C31.0178 251.006 31.1672 250.264 31.1672 249.3C31.1672 248.66 31.0985 248.114 30.9612 247.664C30.8264 247.213 30.6313 246.87 30.3759 246.634C30.123 246.398 29.8184 246.28 29.4619 246.28C28.9272 246.28 28.5093 246.544 28.2082 247.071C27.9071 247.596 27.7566 248.339 27.7566 249.3C27.7566 249.941 27.824 250.485 27.9589 250.933C28.0938 251.381 28.2877 251.722 28.5406 251.956C28.7959 252.19 29.103 252.306 29.4619 252.306ZM35.8206 253.101C35.2762 253.101 34.8126 252.953 34.4296 252.657C34.0466 252.358 33.754 251.926 33.5517 251.36C33.3494 250.791 33.2482 250.105 33.2482 249.3C33.2482 248.501 33.3494 247.818 33.5517 247.252C33.7564 246.683 34.0503 246.25 34.4332 245.951C34.8186 245.65 35.281 245.5 35.8206 245.5C36.3601 245.5 36.8213 245.65 37.2043 245.951C37.5897 246.25 37.8835 246.683 38.0858 247.252C38.2906 247.818 38.3929 248.501 38.3929 249.3C38.3929 250.105 38.2918 250.791 38.0895 251.36C37.8871 251.926 37.5945 252.358 37.2115 252.657C36.8286 252.953 36.3649 253.101 35.8206 253.101ZM35.8206 252.306C36.3601 252.306 36.7792 252.046 37.0779 251.526C37.3765 251.006 37.5259 250.264 37.5259 249.3C37.5259 248.66 37.4572 248.114 37.3199 247.664C37.185 247.213 36.9899 246.87 36.7346 246.634C36.4817 246.398 36.177 246.28 35.8206 246.28C35.2859 246.28 34.868 246.544 34.5669 247.071C34.2658 247.596 34.1153 248.339 34.1153 249.3C34.1153 249.941 34.1827 250.485 34.3176 250.933C34.4525 251.381 34.6464 251.722 34.8993 251.956C35.1546 252.19 35.4617 252.306 35.8206 252.306Z" fill="#49336B"/>
<path d="M26.1092 213.903V214.698H22.8721V213.903H26.1092ZM27.2473 218V217.35L29.6896 214.676C29.9762 214.363 30.2123 214.091 30.3977 213.86C30.5832 213.626 30.7205 213.407 30.8096 213.202C30.9011 212.995 30.9469 212.778 30.9469 212.552C30.9469 212.292 30.8843 212.066 30.759 211.876C30.6362 211.686 30.4676 211.539 30.2532 211.435C30.0388 211.332 29.798 211.28 29.5306 211.28C29.2464 211.28 28.9983 211.339 28.7864 211.457C28.5768 211.573 28.4142 211.735 28.2986 211.945C28.1854 212.154 28.1288 212.4 28.1288 212.682H27.2762C27.2762 212.248 27.3761 211.868 27.5761 211.54C27.776 211.213 28.0481 210.957 28.3926 210.774C28.7394 210.591 29.1284 210.5 29.5595 210.5C29.9931 210.5 30.3772 210.591 30.712 210.774C31.0468 210.957 31.3094 211.204 31.4996 211.515C31.6899 211.826 31.7851 212.171 31.7851 212.552C31.7851 212.824 31.7357 213.09 31.6369 213.35C31.5406 213.608 31.372 213.896 31.1311 214.214C30.8927 214.529 30.5615 214.915 30.1376 215.37L28.4757 217.147V217.205H31.9151V218H27.2473ZM35.8207 218.101C35.2763 218.101 34.8127 217.953 34.4297 217.657C34.0467 217.358 33.7541 216.926 33.5518 216.36C33.3494 215.791 33.2483 215.105 33.2483 214.3C33.2483 213.501 33.3494 212.818 33.5518 212.252C33.7565 211.683 34.0503 211.25 34.4333 210.951C34.8187 210.65 35.2811 210.5 35.8207 210.5C36.3602 210.5 36.8214 210.65 37.2044 210.951C37.5898 211.25 37.8836 211.683 38.0859 212.252C38.2907 212.818 38.393 213.501 38.393 214.3C38.393 215.105 38.2919 215.791 38.0896 216.36C37.8872 216.926 37.5946 217.358 37.2116 217.657C36.8287 217.953 36.365 218.101 35.8207 218.101ZM35.8207 217.306C36.3602 217.306 36.7793 217.046 37.0779 216.526C37.3766 216.006 37.5259 215.264 37.5259 214.3C37.5259 213.66 37.4573 213.114 37.32 212.664C37.1851 212.213 36.99 211.87 36.7347 211.634C36.4818 211.398 36.1771 211.28 35.8207 211.28C35.286 211.28 34.8681 211.544 34.567 212.071C34.2659 212.596 34.1154 213.339 34.1154 214.3C34.1154 214.941 34.1828 215.485 34.3177 215.933C34.4526 216.381 34.6465 216.722 34.8994 216.956C35.1547 217.19 35.4618 217.306 35.8207 217.306Z" fill="#49336B"/>
<path d="M35.8206 166.101C35.2762 166.101 34.8126 165.953 34.4296 165.657C34.0466 165.358 33.754 164.926 33.5517 164.36C33.3494 163.791 33.2482 163.105 33.2482 162.3C33.2482 161.501 33.3494 160.818 33.5517 160.252C33.7564 159.683 34.0503 159.25 34.4332 158.951C34.8186 158.65 35.281 158.5 35.8206 158.5C36.3601 158.5 36.8213 158.65 37.2043 158.951C37.5897 159.25 37.8835 159.683 38.0858 160.252C38.2906 160.818 38.3929 161.501 38.3929 162.3C38.3929 163.105 38.2918 163.791 38.0895 164.36C37.8871 164.926 37.5945 165.358 37.2115 165.657C36.8286 165.953 36.3649 166.101 35.8206 166.101ZM35.8206 165.306C36.3601 165.306 36.7792 165.046 37.0779 164.526C37.3765 164.006 37.5259 163.264 37.5259 162.3C37.5259 161.66 37.4572 161.114 37.3199 160.664C37.185 160.213 36.9899 159.87 36.7346 159.634C36.4817 159.398 36.177 159.28 35.8206 159.28C35.2859 159.28 34.868 159.544 34.5669 160.071C34.2658 160.596 34.1153 161.339 34.1153 162.3C34.1153 162.941 34.1827 163.485 34.3176 163.933C34.4525 164.381 34.6464 164.722 34.8993 164.956C35.1546 165.19 35.4617 165.306 35.8206 165.306Z" fill="#49336B"/>
<path d="M27.2472 114V113.35L29.6895 110.676C29.9761 110.363 30.2122 110.091 30.3976 109.86C30.5831 109.626 30.7204 109.407 30.8095 109.202C30.901 108.995 30.9468 108.778 30.9468 108.552C30.9468 108.292 30.8842 108.066 30.7589 107.876C30.6361 107.686 30.4675 107.539 30.2531 107.435C30.0387 107.332 29.7979 107.28 29.5305 107.28C29.2463 107.28 28.9982 107.339 28.7863 107.457C28.5767 107.573 28.4141 107.735 28.2985 107.945C28.1853 108.154 28.1287 108.4 28.1287 108.682H27.2761C27.2761 108.248 27.376 107.868 27.576 107.54C27.7759 107.213 28.048 106.957 28.3925 106.774C28.7393 106.591 29.1283 106.5 29.5594 106.5C29.993 106.5 30.3772 106.591 30.7119 106.774C31.0467 106.957 31.3093 107.204 31.4996 107.515C31.6898 107.826 31.785 108.171 31.785 108.552C31.785 108.824 31.7356 109.09 31.6368 109.35C31.5405 109.608 31.3719 109.896 31.131 110.214C30.8926 110.529 30.5614 110.915 30.1375 111.37L28.4756 113.147V113.205H31.915V114H27.2472ZM35.8206 114.101C35.2762 114.101 34.8126 113.953 34.4296 113.657C34.0466 113.358 33.754 112.926 33.5517 112.36C33.3494 111.791 33.2482 111.105 33.2482 110.3C33.2482 109.501 33.3494 108.818 33.5517 108.252C33.7564 107.683 34.0503 107.25 34.4332 106.951C34.8186 106.65 35.281 106.5 35.8206 106.5C36.3601 106.5 36.8213 106.65 37.2043 106.951C37.5897 107.25 37.8835 107.683 38.0858 108.252C38.2906 108.818 38.3929 109.501 38.3929 110.3C38.3929 111.105 38.2918 111.791 38.0895 112.36C37.8871 112.926 37.5945 113.358 37.2115 113.657C36.8286 113.953 36.3649 114.101 35.8206 114.101ZM35.8206 113.306C36.3601 113.306 36.7792 113.046 37.0779 112.526C37.3765 112.006 37.5259 111.264 37.5259 110.3C37.5259 109.66 37.4572 109.114 37.3199 108.664C37.185 108.213 36.9899 107.87 36.7346 107.634C36.4817 107.398 36.177 107.28 35.8206 107.28C35.2859 107.28 34.868 107.544 34.5669 108.071C34.2658 108.596 34.1153 109.339 34.1153 110.3C34.1153 110.941 34.1827 111.485 34.3176 111.933C34.4525 112.381 34.6464 112.722 34.8993 112.956C35.1546 113.19 35.4617 113.306 35.8206 113.306Z" fill="#49336B"/>
<path d="M29.5152 62.1012C29.2117 62.0963 28.9082 62.0385 28.6047 61.9277C28.3012 61.8169 28.0243 61.6303 27.7738 61.3677C27.5233 61.1028 27.3222 60.7451 27.1704 60.2947C27.0187 59.8419 26.9428 59.2735 26.9428 58.5894C26.9428 57.9343 27.0042 57.3538 27.1271 56.848C27.2499 56.3398 27.4281 55.9123 27.6618 55.5654C27.8954 55.2162 28.1772 54.9513 28.5072 54.7706C28.8396 54.59 29.2141 54.4996 29.6308 54.4996C30.0451 54.4996 30.4136 54.5827 30.7363 54.7489C31.0615 54.9127 31.3264 55.1415 31.5312 55.4354C31.7359 55.7292 31.8684 56.0676 31.9286 56.4506H31.047C30.9651 56.1182 30.8062 55.8424 30.5701 55.6233C30.3341 55.4041 30.021 55.2945 29.6308 55.2945C29.0575 55.2945 28.6059 55.5438 28.276 56.0423C27.9484 56.5409 27.7834 57.2406 27.781 58.1414H27.8388C27.9737 57.9367 28.1339 57.7621 28.3193 57.6176C28.5072 57.4706 28.7143 57.3574 28.9407 57.278C29.1671 57.1985 29.4068 57.1587 29.6597 57.1587C30.0836 57.1587 30.4714 57.2647 30.823 57.4767C31.1747 57.6862 31.4565 57.9764 31.6685 58.3474C31.8804 58.7159 31.9864 59.1386 31.9864 59.6155C31.9864 60.0731 31.884 60.4922 31.6793 60.8728C31.4746 61.2509 31.1867 61.552 30.8158 61.776C30.4473 61.9976 30.0138 62.106 29.5152 62.1012ZM29.5152 61.3063C29.8187 61.3063 30.0908 61.2305 30.3317 61.0787C30.575 60.927 30.7664 60.7234 30.9061 60.4681C31.0482 60.2128 31.1193 59.9286 31.1193 59.6155C31.1193 59.3096 31.0507 59.0314 30.9134 58.7809C30.7785 58.528 30.5918 58.3269 30.3534 58.1776C30.1173 58.0282 29.8476 57.9536 29.5441 57.9536C29.3153 57.9536 29.1021 57.9993 28.9046 58.0909C28.7071 58.18 28.5337 58.3028 28.3843 58.4594C28.2374 58.6159 28.1218 58.7954 28.0375 58.9977C27.9532 59.1976 27.9111 59.4084 27.9111 59.6299C27.9111 59.9238 27.9797 60.1984 28.117 60.4537C28.2567 60.709 28.447 60.9149 28.6878 61.0715C28.9311 61.228 29.2069 61.3063 29.5152 61.3063ZM35.8206 62.1012C35.2762 62.1012 34.8126 61.953 34.4296 61.6568C34.0466 61.3581 33.754 60.9258 33.5517 60.3597C33.3494 59.7913 33.2482 59.1049 33.2482 58.3004C33.2482 57.5008 33.3494 56.8179 33.5517 56.2519C33.7564 55.6835 34.0503 55.2499 34.4332 54.9513C34.8186 54.6502 35.281 54.4996 35.8206 54.4996C36.3601 54.4996 36.8213 54.6502 37.2043 54.9513C37.5897 55.2499 37.8835 55.6835 38.0858 56.2519C38.2906 56.8179 38.3929 57.5008 38.3929 58.3004C38.3929 59.1049 38.2918 59.7913 38.0895 60.3597C37.8871 60.9258 37.5945 61.3581 37.2115 61.6568C36.8286 61.953 36.3649 62.1012 35.8206 62.1012ZM35.8206 61.3063C36.3601 61.3063 36.7792 61.0462 37.0779 60.5259C37.3765 60.0057 37.5259 59.2638 37.5259 58.3004C37.5259 57.6597 37.4572 57.1142 37.3199 56.6638C37.185 56.2134 36.9899 55.8701 36.7346 55.6341C36.4817 55.3981 36.177 55.28 35.8206 55.28C35.2859 55.28 34.868 55.5438 34.5669 56.0713C34.2658 56.5963 34.1153 57.3394 34.1153 58.3004C34.1153 58.9411 34.1827 59.4854 34.3176 59.9334C34.4525 60.3814 34.6464 60.7222 34.8993 60.9559C35.1546 61.1895 35.4617 61.3063 35.8206 61.3063Z" fill="#49336B"/>
<path d="M24.9205 2.60081V10H24.0245V3.54016H23.9811L22.1747 4.73964V3.82919L24.0245 2.60081H24.9205ZM29.4619 10.1012C28.9175 10.1012 28.4539 9.95303 28.0709 9.65678C27.688 9.35811 27.3953 8.92577 27.193 8.35975C26.9907 7.79132 26.8895 7.10487 26.8895 6.3004C26.8895 5.50075 26.9907 4.81792 27.193 4.2519C27.3977 3.68347 27.6916 3.24992 28.0745 2.95126C28.4599 2.65018 28.9224 2.49965 29.4619 2.49965C30.0014 2.49965 30.4627 2.65018 30.8456 2.95126C31.231 3.24992 31.5248 3.68347 31.7272 4.2519C31.9319 4.81792 32.0343 5.50075 32.0343 6.3004C32.0343 7.10487 31.9331 7.79132 31.7308 8.35975C31.5285 8.92577 31.2358 9.35811 30.8528 9.65678C30.4699 9.95303 30.0062 10.1012 29.4619 10.1012ZM29.4619 9.30633C30.0014 9.30633 30.4205 9.0462 30.7192 8.52594C31.0178 8.00569 31.1672 7.26384 31.1672 6.3004C31.1672 5.65972 31.0985 5.11417 30.9612 4.66377C30.8264 4.21336 30.6313 3.87014 30.3759 3.63409C30.123 3.39805 29.8184 3.28003 29.4619 3.28003C28.9272 3.28003 28.5093 3.54377 28.2082 4.07125C27.9071 4.59633 27.7566 5.33938 27.7566 6.3004C27.7566 6.94109 27.824 7.48543 27.9589 7.93343C28.0938 8.38143 28.2877 8.72224 28.5406 8.95588C28.7959 9.18951 29.103 9.30633 29.4619 9.30633ZM35.8206 10.1012C35.2762 10.1012 34.8126 9.95303 34.4296 9.65678C34.0466 9.35811 33.754 8.92577 33.5517 8.35975C33.3494 7.79132 33.2482 7.10487 33.2482 6.3004C33.2482 5.50075 33.3494 4.81792 33.5517 4.2519C33.7564 3.68347 34.0503 3.24992 34.4332 2.95126C34.8186 2.65018 35.281 2.49965 35.8206 2.49965C36.3601 2.49965 36.8213 2.65018 37.2043 2.95126C37.5897 3.24992 37.8835 3.68347 38.0858 4.2519C38.2906 4.81792 38.3929 5.50075 38.3929 6.3004C38.3929 7.10487 38.2918 7.79132 38.0895 8.35975C37.8871 8.92577 37.5945 9.35811 37.2115 9.65678C36.8286 9.95303 36.3649 10.1012 35.8206 10.1012ZM35.8206 9.30633C36.3601 9.30633 36.7792 9.0462 37.0779 8.52594C37.3765 8.00569 37.5259 7.26384 37.5259 6.3004C37.5259 5.65972 37.4572 5.11417 37.3199 4.66377C37.185 4.21336 36.9899 3.87014 36.7346 3.63409C36.4817 3.39805 36.177 3.28003 35.8206 3.28003C35.2859 3.28003 34.868 3.54377 34.5669 4.07125C34.2658 4.59633 34.1153 5.33938 34.1153 6.3004C34.1153 6.94109 34.1827 7.48543 34.3176 7.93343C34.4525 8.38143 34.6464 8.72224 34.8993 8.95588C35.1546 9.18951 35.4617 9.30633 35.8206 9.30633Z" fill="#49336B"/>
<path d="M90.7077 266.727H91.5884V271.926C91.5884 272.39 91.5032 272.784 91.3327 273.109C91.1623 273.433 90.922 273.679 90.6119 273.847C90.3017 274.015 89.936 274.099 89.5146 274.099C89.1168 274.099 88.7629 274.027 88.4528 273.883C88.1426 273.736 87.8988 273.528 87.7212 273.258C87.5437 272.988 87.4549 272.667 87.4549 272.295H88.3214C88.3214 272.501 88.3723 272.681 88.4741 272.835C88.5782 272.987 88.7203 273.105 88.9002 273.19C89.0801 273.276 89.2849 273.318 89.5146 273.318C89.7679 273.318 89.9833 273.265 90.1609 273.158C90.3384 273.052 90.4734 272.896 90.5657 272.69C90.6604 272.481 90.7077 272.227 90.7077 271.926V266.727ZM94.8448 274.128C94.4992 274.128 94.1855 274.063 93.9038 273.933C93.622 273.8 93.3983 273.609 93.2326 273.361C93.0669 273.11 92.984 272.807 92.984 272.452C92.984 272.139 93.0456 271.886 93.1687 271.692C93.2918 271.495 93.4563 271.341 93.6623 271.23C93.8683 271.119 94.0955 271.036 94.3441 270.982C94.5951 270.925 94.8472 270.88 95.1005 270.847C95.4319 270.804 95.7006 270.772 95.9066 270.751C96.1149 270.727 96.2665 270.688 96.3612 270.634C96.4582 270.579 96.5067 270.484 96.5067 270.349V270.321C96.5067 269.971 96.4109 269.698 96.2191 269.504C96.0297 269.31 95.7421 269.213 95.3562 269.213C94.9561 269.213 94.6424 269.301 94.4151 269.476C94.1879 269.651 94.0281 269.838 93.9357 270.037L93.1403 269.753C93.2823 269.421 93.4717 269.163 93.7085 268.979C93.9476 268.792 94.208 268.661 94.4897 268.588C94.7738 268.512 95.0531 268.474 95.3278 268.474C95.503 268.474 95.7042 268.496 95.9315 268.538C96.1611 268.579 96.3825 268.663 96.5955 268.79C96.811 268.918 96.9897 269.111 97.1317 269.369C97.2738 269.627 97.3448 269.973 97.3448 270.406V274H96.5067V273.261H96.4641C96.4073 273.38 96.3126 273.506 96.18 273.641C96.0475 273.776 95.8711 273.891 95.6509 273.986C95.4308 274.08 95.1621 274.128 94.8448 274.128ZM94.9727 273.375C95.3041 273.375 95.5835 273.31 95.8107 273.18C96.0404 273.049 96.2132 272.881 96.3292 272.675C96.4476 272.469 96.5067 272.253 96.5067 272.026V271.259C96.4712 271.301 96.3931 271.34 96.2724 271.376C96.154 271.409 96.0167 271.438 95.8604 271.464C95.7066 271.488 95.5562 271.509 95.4094 271.528C95.265 271.545 95.1478 271.559 95.0579 271.571C94.8401 271.599 94.6365 271.646 94.4471 271.71C94.2601 271.771 94.1085 271.865 93.9925 271.99C93.8789 272.113 93.8221 272.281 93.8221 272.494C93.8221 272.786 93.9298 273.006 94.1452 273.155C94.363 273.302 94.6388 273.375 94.9727 273.375ZM99.7125 270.719V274H98.8745V268.545H99.6841V269.398H99.7551C99.883 269.121 100.077 268.898 100.338 268.73C100.598 268.56 100.934 268.474 101.346 268.474C101.715 268.474 102.039 268.55 102.316 268.702C102.593 268.851 102.808 269.078 102.962 269.384C103.116 269.687 103.193 270.07 103.193 270.534V274H102.355V270.591C102.355 270.162 102.243 269.829 102.021 269.589C101.798 269.348 101.493 269.227 101.105 269.227C100.837 269.227 100.598 269.285 100.387 269.401C100.179 269.517 100.014 269.687 99.8936 269.909C99.7729 270.132 99.7125 270.402 99.7125 270.719Z" fill="#49336B"/>
<path d="M187.131 274V266.727H191.491V267.509H188.011V269.966H191.165V270.747H188.011V274H187.131ZM194.773 274.114C194.247 274.114 193.794 273.998 193.413 273.766C193.034 273.531 192.741 273.205 192.536 272.786C192.332 272.364 192.23 271.874 192.23 271.315C192.23 270.757 192.332 270.264 192.536 269.838C192.741 269.41 193.028 269.076 193.395 268.837C193.764 268.595 194.195 268.474 194.688 268.474C194.972 268.474 195.252 268.522 195.529 268.616C195.806 268.711 196.058 268.865 196.286 269.078C196.513 269.289 196.694 269.568 196.829 269.916C196.964 270.264 197.031 270.693 197.031 271.202V271.557H192.827V270.832H196.179C196.179 270.525 196.117 270.25 195.994 270.009C195.874 269.767 195.701 269.576 195.476 269.437C195.253 269.297 194.991 269.227 194.688 269.227C194.354 269.227 194.065 269.31 193.821 269.476C193.58 269.639 193.394 269.852 193.263 270.115C193.133 270.378 193.068 270.66 193.068 270.96V271.443C193.068 271.855 193.139 272.204 193.281 272.491C193.426 272.775 193.626 272.991 193.881 273.141C194.137 273.287 194.434 273.361 194.773 273.361C194.993 273.361 195.192 273.33 195.369 273.268C195.549 273.205 195.704 273.11 195.835 272.984C195.965 272.857 196.065 272.698 196.136 272.509L196.946 272.736C196.861 273.01 196.718 273.252 196.516 273.46C196.315 273.666 196.067 273.827 195.771 273.943C195.475 274.057 195.142 274.114 194.773 274.114ZM198.42 274V266.727H199.258V269.412H199.329C199.39 269.317 199.476 269.196 199.585 269.05C199.696 268.901 199.854 268.768 200.06 268.652C200.269 268.534 200.55 268.474 200.906 268.474C201.365 268.474 201.77 268.589 202.12 268.819C202.47 269.049 202.744 269.374 202.94 269.795C203.137 270.217 203.235 270.714 203.235 271.287C203.235 271.865 203.137 272.365 202.94 272.789C202.744 273.21 202.472 273.537 202.124 273.769C201.776 273.999 201.374 274.114 200.92 274.114C200.569 274.114 200.289 274.056 200.078 273.94C199.867 273.821 199.705 273.687 199.592 273.538C199.478 273.387 199.39 273.261 199.329 273.162H199.229V274H198.42ZM199.244 271.273C199.244 271.685 199.304 272.048 199.425 272.363C199.545 272.675 199.722 272.92 199.954 273.098C200.186 273.273 200.47 273.361 200.806 273.361C201.156 273.361 201.449 273.268 201.683 273.084C201.92 272.897 202.098 272.646 202.216 272.331C202.337 272.014 202.397 271.661 202.397 271.273C202.397 270.889 202.338 270.544 202.219 270.236C202.103 269.926 201.927 269.681 201.69 269.501C201.456 269.318 201.161 269.227 200.806 269.227C200.465 269.227 200.179 269.314 199.947 269.487C199.715 269.657 199.54 269.896 199.421 270.204C199.303 270.509 199.244 270.866 199.244 271.273Z" fill="#49336B"/>
<path d="M271.255 266.727H272.306L274.777 272.764H274.863L277.334 266.727H278.385V274H277.562V268.474H277.491L275.218 274H274.422L272.15 268.474H272.079V274H271.255V266.727ZM281.643 274.128C281.297 274.128 280.983 274.063 280.702 273.933C280.42 273.8 280.196 273.609 280.03 273.361C279.865 273.11 279.782 272.807 279.782 272.452C279.782 272.139 279.843 271.886 279.967 271.692C280.09 271.495 280.254 271.341 280.46 271.23C280.666 271.119 280.893 271.036 281.142 270.982C281.393 270.925 281.645 270.88 281.898 270.847C282.23 270.804 282.498 270.772 282.704 270.751C282.913 270.727 283.064 270.688 283.159 270.634C283.256 270.579 283.305 270.484 283.305 270.349V270.321C283.305 269.971 283.209 269.698 283.017 269.504C282.828 269.31 282.54 269.213 282.154 269.213C281.754 269.213 281.44 269.301 281.213 269.476C280.986 269.651 280.826 269.838 280.734 270.037L279.938 269.753C280.08 269.421 280.27 269.163 280.506 268.979C280.745 268.792 281.006 268.661 281.288 268.588C281.572 268.512 281.851 268.474 282.126 268.474C282.301 268.474 282.502 268.496 282.729 268.538C282.959 268.579 283.18 268.663 283.393 268.79C283.609 268.918 283.788 269.111 283.93 269.369C284.072 269.627 284.143 269.973 284.143 270.406V274H283.305V273.261H283.262C283.205 273.38 283.11 273.506 282.978 273.641C282.845 273.776 282.669 273.891 282.449 273.986C282.229 274.08 281.96 274.128 281.643 274.128ZM281.771 273.375C282.102 273.375 282.381 273.31 282.609 273.18C282.838 273.049 283.011 272.881 283.127 272.675C283.245 272.469 283.305 272.253 283.305 272.026V271.259C283.269 271.301 283.191 271.34 283.07 271.376C282.952 271.409 282.815 271.438 282.658 271.464C282.504 271.488 282.354 271.509 282.207 271.528C282.063 271.545 281.946 271.559 281.856 271.571C281.638 271.599 281.434 271.646 281.245 271.71C281.058 271.771 280.906 271.865 280.79 271.99C280.677 272.113 280.62 272.281 280.62 272.494C280.62 272.786 280.728 273.006 280.943 273.155C281.161 273.302 281.437 273.375 281.771 273.375ZM285.672 274V268.545H286.482V269.369H286.539C286.638 269.099 286.818 268.88 287.079 268.712C287.339 268.544 287.633 268.46 287.959 268.46C288.021 268.46 288.098 268.461 288.19 268.464C288.282 268.466 288.352 268.47 288.4 268.474V269.327C288.371 269.32 288.306 269.309 288.204 269.295C288.105 269.278 287.999 269.27 287.888 269.27C287.623 269.27 287.386 269.326 287.178 269.437C286.972 269.546 286.809 269.697 286.688 269.891C286.57 270.083 286.51 270.302 286.51 270.548V274H285.672Z" fill="#49336B"/>
<path d="M355.393 274H354.47L357.14 266.727H358.049L360.72 274H359.796L357.623 267.878H357.566L355.393 274ZM355.734 271.159H359.455V271.94H355.734V271.159ZM361.739 276.045V268.545H362.548V269.412H362.648C362.709 269.317 362.795 269.196 362.903 269.05C363.015 268.901 363.173 268.768 363.379 268.652C363.588 268.534 363.869 268.474 364.225 268.474C364.684 268.474 365.089 268.589 365.439 268.819C365.789 269.049 366.063 269.374 366.259 269.795C366.456 270.217 366.554 270.714 366.554 271.287C366.554 271.865 366.456 272.365 366.259 272.789C366.063 273.21 365.791 273.537 365.443 273.769C365.095 273.999 364.693 274.114 364.239 274.114C363.888 274.114 363.608 274.056 363.397 273.94C363.186 273.821 363.024 273.687 362.911 273.538C362.797 273.387 362.709 273.261 362.648 273.162H362.577V276.045H361.739ZM362.563 271.273C362.563 271.685 362.623 272.048 362.744 272.363C362.864 272.675 363.041 272.92 363.273 273.098C363.505 273.273 363.789 273.361 364.125 273.361C364.475 273.361 364.768 273.268 365.002 273.084C365.239 272.897 365.417 272.646 365.535 272.331C365.656 272.014 365.716 271.661 365.716 271.273C365.716 270.889 365.657 270.544 365.538 270.236C365.422 269.926 365.246 269.681 365.009 269.501C364.775 269.318 364.48 269.227 364.125 269.227C363.784 269.227 363.498 269.314 363.266 269.487C363.034 269.657 362.859 269.896 362.74 270.204C362.622 270.509 362.563 270.866 362.563 271.273ZM367.832 274V268.545H368.642V269.369H368.699C368.798 269.099 368.978 268.88 369.239 268.712C369.499 268.544 369.793 268.46 370.119 268.46C370.181 268.46 370.258 268.461 370.35 268.464C370.443 268.466 370.512 268.47 370.56 268.474V269.327C370.531 269.32 370.466 269.309 370.364 269.295C370.265 269.278 370.16 269.27 370.048 269.27C369.783 269.27 369.546 269.326 369.338 269.437C369.132 269.546 368.969 269.697 368.848 269.891C368.73 270.083 368.671 270.302 368.671 270.548V274H367.832Z" fill="#49336B"/>
<path d="M438.429 266.727H439.48L441.951 272.764H442.036L444.508 266.727H445.559V274H444.735V268.474H444.664L442.392 274H441.596L439.323 268.474H439.252V274H438.429V266.727ZM448.816 274.128C448.471 274.128 448.157 274.063 447.875 273.933C447.594 273.8 447.37 273.609 447.204 273.361C447.039 273.11 446.956 272.807 446.956 272.452C446.956 272.139 447.017 271.886 447.14 271.692C447.263 271.495 447.428 271.341 447.634 271.23C447.84 271.119 448.067 271.036 448.316 270.982C448.567 270.925 448.819 270.88 449.072 270.847C449.404 270.804 449.672 270.772 449.878 270.751C450.087 270.727 450.238 270.688 450.333 270.634C450.43 270.579 450.478 270.484 450.478 270.349V270.321C450.478 269.971 450.383 269.698 450.191 269.504C450.001 269.31 449.714 269.213 449.328 269.213C448.928 269.213 448.614 269.301 448.387 269.476C448.16 269.651 448 269.838 447.907 270.037L447.112 269.753C447.254 269.421 447.443 269.163 447.68 268.979C447.919 268.792 448.18 268.661 448.461 268.588C448.745 268.512 449.025 268.474 449.299 268.474C449.475 268.474 449.676 268.496 449.903 268.538C450.133 268.579 450.354 268.663 450.567 268.79C450.783 268.918 450.961 269.111 451.103 269.369C451.245 269.627 451.316 269.973 451.316 270.406V274H450.478V273.261H450.436C450.379 273.38 450.284 273.506 450.152 273.641C450.019 273.776 449.843 273.891 449.623 273.986C449.402 274.08 449.134 274.128 448.816 274.128ZM448.944 273.375C449.276 273.375 449.555 273.31 449.782 273.18C450.012 273.049 450.185 272.881 450.301 272.675C450.419 272.469 450.478 272.253 450.478 272.026V271.259C450.443 271.301 450.365 271.34 450.244 271.376C450.126 271.409 449.988 271.438 449.832 271.464C449.678 271.488 449.528 271.509 449.381 271.528C449.237 271.545 449.12 271.559 449.03 271.571C448.812 271.599 448.608 271.646 448.419 271.71C448.232 271.771 448.08 271.865 447.964 271.99C447.851 272.113 447.794 272.281 447.794 272.494C447.794 272.786 447.901 273.006 448.117 273.155C448.335 273.302 448.611 273.375 448.944 273.375ZM452.846 274V268.545H453.684V274H452.846ZM453.272 267.636C453.109 267.636 452.968 267.581 452.85 267.469C452.734 267.358 452.676 267.224 452.676 267.068C452.676 266.912 452.734 266.778 452.85 266.667C452.968 266.556 453.109 266.5 453.272 266.5C453.436 266.5 453.575 266.556 453.691 266.667C453.81 266.778 453.869 266.912 453.869 267.068C453.869 267.224 453.81 267.358 453.691 267.469C453.575 267.581 453.436 267.636 453.272 267.636Z" fill="#49336B"/>
<path d="M527.12 266.727H528.001V271.926C528.001 272.39 527.915 272.784 527.745 273.109C527.574 273.433 527.334 273.679 527.024 273.847C526.714 274.015 526.348 274.099 525.927 274.099C525.529 274.099 525.175 274.027 524.865 273.883C524.555 273.736 524.311 273.528 524.133 273.258C523.956 272.988 523.867 272.667 523.867 272.295H524.733C524.733 272.501 524.784 272.681 524.886 272.835C524.99 272.987 525.132 273.105 525.312 273.19C525.492 273.276 525.697 273.318 525.927 273.318C526.18 273.318 526.395 273.265 526.573 273.158C526.751 273.052 526.885 272.896 526.978 272.69C527.073 272.481 527.12 272.227 527.12 271.926V266.727ZM533.089 271.77V268.545H533.927V274H533.089V273.077H533.032C532.905 273.354 532.706 273.589 532.436 273.783C532.166 273.975 531.825 274.071 531.413 274.071C531.072 274.071 530.769 273.996 530.504 273.847C530.239 273.696 530.031 273.469 529.879 273.165C529.728 272.86 529.652 272.475 529.652 272.011V268.545H530.49V271.955C530.49 272.352 530.601 272.67 530.824 272.906C531.049 273.143 531.335 273.261 531.683 273.261C531.891 273.261 532.103 273.208 532.319 273.102C532.537 272.995 532.719 272.832 532.866 272.612C533.015 272.391 533.089 272.111 533.089 271.77ZM536.3 270.719V274H535.462V268.545H536.272V269.398H536.343C536.471 269.121 536.665 268.898 536.925 268.73C537.186 268.56 537.522 268.474 537.934 268.474C538.303 268.474 538.626 268.55 538.903 268.702C539.18 268.851 539.396 269.078 539.55 269.384C539.704 269.687 539.781 270.07 539.781 270.534V274H538.942V270.591C538.942 270.162 538.831 269.829 538.609 269.589C538.386 269.348 538.081 269.227 537.692 269.227C537.425 269.227 537.186 269.285 536.975 269.401C536.767 269.517 536.602 269.687 536.482 269.909C536.361 270.132 536.3 270.402 536.3 270.719Z" fill="#49336B"/>
</svg>
