<svg width="11" height="7" viewBox="0 0 11 7" fill="none" xmlns="http://www.w3.org/2000/svg">
<path d="M-0.000323229 1.33825C-0.00216 1.07346 0.0762769 0.814159 0.224926 0.593609C0.373575 0.37306 0.585659 0.201313 0.833983 0.100396C1.08231 -0.000522724 1.35555 -0.0260111 1.61866 0.0271982C1.88178 0.080407 2.12277 0.209888 2.31074 0.399037L5.19701 3.25971L8.09611 0.399037C8.35167 0.164269 8.68969 0.0364589 9.03894 0.0425343C9.3882 0.0486092 9.72143 0.188095 9.96843 0.431605C10.2154 0.675115 10.3569 1.00364 10.3631 1.34796C10.3692 1.69228 10.2396 2.02552 10.0015 2.27746L5.37933 6.8343C5.35545 6.85802 5.32705 6.87686 5.29576 6.88971C5.26447 6.90256 5.23091 6.90918 5.19701 6.90918C5.16311 6.90918 5.12955 6.90256 5.09826 6.88971C5.06696 6.87686 5.03856 6.85802 5.01469 6.8343L0.392558 2.27746C0.140843 2.02788 -0.000409064 1.69021 -0.000323229 1.33825Z" fill="white"/>
</svg>
