<svg viewBox="0 0 1920 800" fill="none" xmlns="http://www.w3.org/2000/svg" preserveAspectRatio="none">
<path style="mix-blend-mode:multiply" opacity="0.09" d="M1776.66 688.354C1698.08 722.139 1621.07 759.257 1543.5 795.1L1533 800H1949V623.086C1890.53 642.073 1833.19 664.05 1776.66 688.354Z" fill="url(#paint0_linear_491_22827)"/>
<path style="mix-blend-mode:multiply" opacity="0.09" d="M1046.21 520.978C993.912 612.822 943.752 705.311 925.099 800H1368.83C1357.88 780.822 1359.09 759.622 1363.22 740.467C1369.44 711.689 1383.82 683.6 1397.97 655.533C1418.3 615.111 1434.68 574.267 1455.88 533.911C1501.03 447.867 1548.31 362.578 1581.16 275.222C1606.55 207.911 1640.84 126.178 1562.88 63.7333C1523.77 32.4222 1462.61 13.0667 1394.17 0H0V166.311C191.637 149.6 532.035 129.311 755.549 135.8C904.729 140.111 1089.64 150.533 1137.71 231.089C1159.7 267.867 1150.14 307.444 1135.62 344.422C1112.23 403.978 1079.52 462.533 1046.21 520.978Z" fill="url(#paint1_linear_491_22827)"/>
<path style="mix-blend-mode:multiply" opacity="0.09" d="M1520.29 -67.545C1558.86 -36.773 1577.27 8.258 1578.43 56.1555C1579.87 115.323 1557.83 172.824 1535.32 226.822C1514.08 277.758 1490.98 328.179 1477.51 381.76C1471.96 403.81 1469.94 430.76 1496.43 439.874C1517.19 447.004 1542.08 438.404 1561.48 431.054C1583.71 422.626 1604.74 411.454 1625.73 400.576C1649.47 388.326 1674.14 377.62 1698.66 366.84C1762.56 338.689 1827.31 312.425 1893.2 288.979C1911.7 282.446 1930.3 276.108 1949 269.967V-82H1499.58C1506.79 -77.6167 1513.71 -72.7885 1520.29 -67.545Z" fill="url(#paint2_linear_491_22827)"/>
<defs>
<linearGradient id="paint0_linear_491_22827" x1="1487.45" y1="1082.58" x2="2143.67" y2="307.241" gradientUnits="userSpaceOnUse">
<stop stop-color="#2F046B"/>
<stop offset="1" stop-color="#11DCCA"/>
</linearGradient>
<linearGradient id="paint1_linear_491_22827" x1="409.026" y1="551.311" x2="925.028" y2="-685.123" gradientUnits="userSpaceOnUse">
<stop stop-color="#2F046B"/>
<stop offset="1" stop-color="#11DCCA"/>
</linearGradient>
<linearGradient id="paint2_linear_491_22827" x1="1265.23" y1="605.617" x2="1856.06" y2="-92.4473" gradientUnits="userSpaceOnUse">
<stop stop-color="#2F046B"/>
<stop offset="1" stop-color="#11DCCA"/>
</linearGradient>
</defs>
</svg>
