<svg width="40" height="37" viewBox="0 0 40 37" fill="none" xmlns="http://www.w3.org/2000/svg">
<path d="M34.2588 27.8788C34.0298 27.65 33.6587 27.65 33.4298 27.8788C33.2009 28.1078 33.2009 28.4788 33.4298 28.7078L35.3555 30.6336C35.5222 30.808 35.6212 31.1674 35.3555 31.4624L33.5173 33.3007C33.2887 33.5292 32.9168 33.5292 32.6884 33.3007L27.1891 27.8015C27.6991 27.4328 28.1815 27.0233 28.6298 26.575C29.0834 26.1213 29.4923 25.6396 29.8577 25.1358L31.5581 26.8363C31.6726 26.9506 31.8227 27.0079 31.9726 27.0079C32.1226 27.0079 32.2726 26.9506 32.387 26.8363C32.6159 26.6073 32.6159 26.2363 32.387 26.0073L30.5111 24.1313C33.1658 19.5613 32.5391 13.5938 28.6297 9.68424C23.9729 5.02736 16.3958 5.02752 11.739 9.68424C9.52797 11.8953 8.28602 14.8345 8.24203 17.9604C8.19805 21.0799 9.35008 24.0466 11.4858 26.314C11.7079 26.5495 12.0787 26.5605 12.3144 26.3388C12.55 26.1167 12.5611 25.7459 12.3391 25.5102C8.32234 21.2456 8.42281 14.6581 12.568 10.5131C16.7677 6.3133 23.6012 6.3133 27.8007 10.5131C32.0004 14.7128 32.0004 21.5463 27.8007 25.7459C24.2652 29.2814 18.6392 29.9071 14.4234 27.2335C14.1501 27.0603 13.788 27.1412 13.6145 27.4146C13.4412 27.688 13.5222 28.0501 13.7955 28.2235C15.7021 29.4325 17.9357 30.0723 20.1946 30.0723C20.6073 30.0723 21.021 30.0509 21.4336 30.0078C23.114 29.8321 24.7348 29.2962 26.1842 28.4545L31.8593 34.1295C32.2021 34.4722 32.6523 34.6436 33.1026 34.6435C33.5528 34.6435 34.0032 34.4721 34.346 34.1295L36.1843 32.2912C36.8698 31.6056 36.8698 30.4901 36.1843 29.8045L34.2588 27.8788Z" fill="white"/>
<path d="M24.1187 14.7756C24.2491 14.4793 24.1145 14.1335 23.8182 14.0031C22.5909 13.4634 21.3715 13.1896 20.194 13.1896C16.7773 13.1896 13.8566 15.4778 12.4198 16.8419C12.0533 17.1899 11.8431 17.6796 11.8431 18.1854C11.8431 18.6913 12.0533 19.1809 12.4198 19.5289C13.8566 20.8929 16.7773 23.1812 20.194 23.1812C23.6108 23.1812 26.5313 20.893 27.9682 19.5289C28.3348 19.181 28.5449 18.6913 28.5449 18.1854C28.5449 17.6796 28.3348 17.1899 27.9681 16.8419C27.4538 16.3536 26.9103 15.8985 26.3527 15.4888C26.092 15.2973 25.7251 15.3534 25.5334 15.6143C25.3417 15.8752 25.3979 16.2421 25.6588 16.4337C26.1769 16.8142 26.6823 17.2376 27.1611 17.6921C27.2977 17.8216 27.3727 17.9968 27.3727 18.1853C27.3727 18.3738 27.2977 18.5492 27.1611 18.6786C25.851 19.9224 23.2038 22.0088 20.194 22.0088C17.1844 22.0088 14.537 19.9224 13.227 18.6786C13.0905 18.5491 13.0153 18.3738 13.0153 18.1853C13.0153 17.9968 13.0905 17.8215 13.227 17.6921C14.537 16.4483 17.1843 14.3619 20.194 14.3619C21.208 14.3619 22.2686 14.6022 23.3463 15.0762C23.6426 15.2067 23.9885 15.0721 24.1187 14.7756Z" fill="white"/>
<path d="M17.3177 18.1853C17.3177 19.7713 18.608 21.0616 20.194 21.0616C21.78 21.0616 23.0703 19.7713 23.0703 18.1853C23.0703 16.5993 21.78 15.309 20.194 15.309C18.608 15.309 17.3177 16.5993 17.3177 18.1853ZM21.8981 18.1853C21.8981 19.1249 21.1337 19.8893 20.1941 19.8893C19.2545 19.8893 18.4901 19.1249 18.4901 18.1853C18.4901 17.2457 19.2545 16.4813 20.1941 16.4813C21.1336 16.4813 21.8981 17.2457 21.8981 18.1853Z" fill="white"/>
<path d="M30.3309 7.63752C30.4809 7.63752 30.6309 7.58025 30.7454 7.46588L33.3029 4.9083L34.4071 6.01252C34.7478 6.35299 35.3021 6.35299 35.6432 6.01244L38.7448 2.91088V3.69775C38.7448 4.0215 39.0071 4.28385 39.3309 4.28385C39.6546 4.28385 39.917 4.0215 39.917 3.69775V1.52619C39.917 1.20244 39.6546 0.940098 39.3309 0.940098H37.1593C36.8355 0.940098 36.5732 1.20244 36.5732 1.52619C36.5732 1.84994 36.8355 2.11229 37.1593 2.11229H37.8853L35.0251 4.97268L33.9209 3.86846C33.58 3.52775 33.0255 3.52783 32.6848 3.86854L29.9164 6.63689C29.6875 6.86588 29.6875 7.23689 29.9164 7.46588C30.0309 7.58025 30.1809 7.63752 30.3309 7.63752Z" fill="white"/>
<path d="M3.09172 6.03705C4.75594 6.03705 6.11 4.68307 6.11 3.01877C6.11 1.35447 4.75594 0.000488281 3.09172 0.000488281C1.4275 0.000488281 0.0734375 1.35447 0.0734375 3.01877C0.0734375 4.68307 1.42742 6.03705 3.09172 6.03705ZM3.09172 1.17275C4.10961 1.17275 4.93773 2.00088 4.93773 3.01877C4.93773 4.03666 4.10961 4.86479 3.09172 4.86479C2.07383 4.86479 1.24563 4.03666 1.24563 3.01877C1.24563 2.00088 2.07375 1.17275 3.09172 1.17275Z" fill="white"/>
<path d="M3.18133 8.04635C1.51711 8.04635 0.163047 9.40033 0.163047 11.0646C0.163047 12.7289 1.51703 14.0829 3.18133 14.0829C4.84562 14.0829 6.19961 12.7289 6.19961 11.0646C6.19961 9.40033 4.84562 8.04635 3.18133 8.04635ZM3.18133 12.9106C2.16344 12.9106 1.33531 12.0825 1.33531 11.0646C1.33531 10.0467 2.16344 9.21861 3.18133 9.21861C4.19922 9.21861 5.02734 10.0467 5.02734 11.0646C5.02742 12.0825 4.1993 12.9106 3.18133 12.9106Z" fill="white"/>
<path d="M3.18133 15.9981C1.51711 15.9981 0.163047 17.3521 0.163047 19.0163C0.163047 20.6806 1.51703 22.0346 3.18133 22.0346C4.84562 22.0346 6.19961 20.6806 6.19961 19.0163C6.19961 17.3521 4.84562 15.9981 3.18133 15.9981ZM3.18133 20.8624C2.16344 20.8624 1.33531 20.0342 1.33531 19.0163C1.33531 17.9985 2.16344 17.1703 3.18133 17.1703C4.19922 17.1703 5.02734 17.9985 5.02734 19.0163C5.02742 20.0342 4.1993 20.8624 3.18133 20.8624Z" fill="white"/>
<path d="M8.49133 2.10814H13.6784C14.0022 2.10814 14.2645 1.8458 14.2645 1.52205C14.2645 1.1983 14.0022 0.935957 13.6784 0.935957H8.49133C8.16758 0.935957 7.90523 1.1983 7.90523 1.52205C7.90523 1.8458 8.16766 2.10814 8.49133 2.10814Z" fill="white"/>
<path d="M8.49133 4.60588H11.0849C11.4087 4.60588 11.671 4.34353 11.671 4.01978C11.671 3.69604 11.4087 3.43369 11.0849 3.43369H8.49133C8.16758 3.43369 7.90523 3.69604 7.90523 4.01978C7.90523 4.34346 8.16766 4.60588 8.49133 4.60588Z" fill="white"/>
<path d="M39.4139 9.23002H36.5517C36.228 9.23002 35.9656 9.49236 35.9656 9.81611C35.9656 10.1399 36.228 10.4022 36.5517 10.4022H39.4139C39.7377 10.4022 40 10.1399 40 9.81611C40 9.49236 39.7377 9.23002 39.4139 9.23002Z" fill="white"/>
<path d="M34.3782 10.4824C34.7377 10.4824 35.0292 10.1909 35.0292 9.83135C35.0292 9.4718 34.7377 9.18033 34.3782 9.18033C34.0187 9.18033 33.7272 9.4718 33.7272 9.83135C33.7272 10.1909 34.0187 10.4824 34.3782 10.4824Z" fill="white"/>
<path d="M39.4139 11.6192H36.5517C36.228 11.6192 35.9656 11.8815 35.9656 12.2053C35.9656 12.529 36.228 12.7913 36.5517 12.7913H39.4139C39.7377 12.7913 40 12.529 40 12.2053C40 11.8815 39.7377 11.6192 39.4139 11.6192Z" fill="white"/>
<path d="M34.3782 12.8715C34.7377 12.8715 35.0292 12.58 35.0292 12.2205C35.0292 11.8609 34.7377 11.5695 34.3782 11.5695C34.0187 11.5695 33.7272 11.8609 33.7272 12.2205C33.7272 12.58 34.0187 12.8715 34.3782 12.8715Z" fill="white"/>
<path d="M23.9209 32.5094H21.0587C20.7349 32.5094 20.4726 32.7717 20.4726 33.0955C20.4726 33.4192 20.7349 33.6816 21.0587 33.6816H23.9209C24.2446 33.6816 24.507 33.4192 24.507 33.0955C24.507 32.7718 24.2446 32.5094 23.9209 32.5094Z" fill="white"/>
<path d="M18.8852 32.4597C18.5256 32.4597 18.2341 32.7512 18.2341 33.1107C18.2341 33.4703 18.5256 33.7617 18.8852 33.7617C19.2447 33.7617 19.5362 33.4703 19.5362 33.1107C19.5362 32.7512 19.2447 32.4597 18.8852 32.4597Z" fill="white"/>
<path d="M23.9209 34.8986H21.0587C20.7349 34.8986 20.4726 35.161 20.4726 35.4847C20.4726 35.8085 20.7349 36.0708 21.0587 36.0708H23.9209C24.2446 36.0708 24.507 35.8085 24.507 35.4847C24.507 35.161 24.2446 34.8986 23.9209 34.8986Z" fill="white"/>
<path d="M18.8852 36.151C19.2447 36.151 19.5362 35.8595 19.5362 35.4999C19.5362 35.1404 19.2447 34.8489 18.8852 34.8489C18.5256 34.8489 18.2341 35.1404 18.2341 35.4999C18.2341 35.8595 18.5256 36.151 18.8852 36.151Z" fill="white"/>
<path d="M39.4139 14.0133H36.5517C36.228 14.0133 35.9656 14.2756 35.9656 14.5994C35.9656 14.9231 36.228 15.1855 36.5517 15.1855H39.4139C39.7377 15.1855 40 14.9231 40 14.5994C40 14.2756 39.7377 14.0133 39.4139 14.0133Z" fill="white"/>
<path d="M39.4139 16.4025H36.5517C36.228 16.4025 35.9656 16.6649 35.9656 16.9886C35.9656 17.3124 36.228 17.5747 36.5517 17.5747H39.4139C39.7377 17.5747 40 17.3124 40 16.9886C40 16.6649 39.7377 16.4025 39.4139 16.4025Z" fill="white"/>
<path d="M34.3782 17.6549C34.7377 17.6549 35.0292 17.3634 35.0292 17.0038C35.0292 16.6443 34.7377 16.3528 34.3782 16.3528C34.0187 16.3528 33.7272 16.6443 33.7272 17.0038C33.7272 17.3634 34.0187 17.6549 34.3782 17.6549Z" fill="white"/>
<path d="M39.4139 18.7917H36.5517C36.228 18.7917 35.9656 19.0541 35.9656 19.3778C35.9656 19.7016 36.228 19.9639 36.5517 19.9639H39.4139C39.7377 19.9639 40 19.7016 40 19.3778C40 19.0541 39.7377 18.7917 39.4139 18.7917Z" fill="white"/>
<path d="M39.4139 21.1809H36.5517C36.228 21.1809 35.9656 21.4432 35.9656 21.767C35.9656 22.0907 36.228 22.3531 36.5517 22.3531H39.4139C39.7377 22.3531 40 22.0907 40 21.767C40 21.4433 39.7377 21.1809 39.4139 21.1809Z" fill="white"/>
<path d="M34.3782 21.1312C34.0187 21.1312 33.7272 21.4227 33.7272 21.7822C33.7272 22.1417 34.0187 22.4332 34.3782 22.4332C34.7377 22.4332 35.0292 22.1417 35.0292 21.7822C35.0292 21.4227 34.7377 21.1312 34.3782 21.1312Z" fill="white"/>
<path d="M15.8178 34.9029H13.6248V31.5518C13.6248 31.0563 13.2216 30.6531 12.726 30.6531H10.6002C10.1047 30.6531 9.70148 31.0563 9.70148 31.5518V34.9029H8.86578V29.4537C8.86578 28.9581 8.46258 28.5549 7.96703 28.5549H5.84125C5.3457 28.5549 4.9425 28.9581 4.9425 29.4537V34.9029H4.22078V33.0506C4.22078 32.555 3.81758 32.1518 3.32203 32.1518H1.19625C0.700703 32.1518 0.2975 32.555 0.2975 33.0506V34.9792C0.12 35.0799 0 35.2703 0 35.489C0 35.8128 0.262344 36.0751 0.586094 36.0751H15.8178C16.1416 36.0751 16.4039 35.8128 16.4039 35.489C16.4039 35.1653 16.1416 34.9029 15.8178 34.9029ZM10.8738 31.8253H12.4525V34.9029H10.8738V31.8253ZM6.11484 29.7272H7.69359V34.9029H6.11484V29.7272ZM1.46977 33.324H3.04859V34.9028H1.46977V33.324Z" fill="white"/>
</svg>
