<svg width="40" height="39" viewBox="0 0 40 39" fill="none" xmlns="http://www.w3.org/2000/svg">
<path d="M20.0002 30.3229C26.048 30.3229 30.9679 25.403 30.9679 19.3552C30.9679 13.3075 26.048 8.38755 20.0002 8.38755C13.9525 8.38755 9.03255 13.3075 9.03255 19.3552C9.03255 25.403 13.9525 30.3229 20.0002 30.3229ZM20.0002 9.67787C25.3364 9.67787 29.6776 14.0191 29.6776 19.3552C29.6776 24.6914 25.3364 29.0326 20.0002 29.0326C14.6641 29.0326 10.3229 24.6914 10.3229 19.3552C10.3229 14.0191 14.6641 9.67787 20.0002 9.67787Z" fill="white"/>
<path d="M23.8712 23.8714H26.4518C26.808 23.8714 27.097 23.5823 27.097 23.2262V14.8391C27.097 14.483 26.808 14.194 26.4518 14.194H23.8712C23.5151 14.194 23.226 14.483 23.226 14.8391V23.2262C23.226 23.5823 23.5151 23.8714 23.8712 23.8714ZM24.5164 15.4843H25.8067V22.581H24.5164V15.4843Z" fill="white"/>
<path d="M18.7099 23.8714H21.2906C21.6467 23.8714 21.9357 23.5823 21.9357 23.2262V16.7746C21.9357 16.4185 21.6467 16.1295 21.2906 16.1295H18.7099C18.3538 16.1295 18.0648 16.4185 18.0648 16.7746V23.2262C18.0648 23.5823 18.3538 23.8714 18.7099 23.8714ZM19.3551 17.4198H20.6454V22.581H19.3551V17.4198Z" fill="white"/>
<path d="M16.1293 23.8714C16.4854 23.8714 16.7745 23.5823 16.7745 23.2262V19.3552C16.7745 18.9991 16.4854 18.7101 16.1293 18.7101H13.5487C13.1925 18.7101 12.9035 18.9991 12.9035 19.3552V23.2262C12.9035 23.5823 13.1925 23.8714 13.5487 23.8714H16.1293ZM14.1938 20.0004H15.4841V22.581H14.1938V20.0004Z" fill="white"/>
<path d="M7.01772 15.3424C6.89127 15.7811 6.57256 16.1217 6.16482 16.254L4.43579 16.8159C4.19644 16.894 4.02483 17.103 3.9945 17.3527C3.91257 18.0372 3.87128 18.7107 3.87128 19.3552C3.87128 19.9998 3.91257 20.6733 3.99515 21.3578C4.02483 21.6075 4.19708 21.8165 4.43644 21.8946L6.16546 22.4565C6.5732 22.5888 6.89191 22.9301 7.01836 23.3688C7.08094 23.5856 7.14868 23.8004 7.22094 24.0133C7.37062 24.4546 7.30352 24.9378 7.0403 25.3055L6.00933 26.7468C5.86417 26.9501 5.84869 27.2184 5.97062 27.4372C6.62933 28.6146 7.4332 29.7094 8.359 30.6913C8.53448 30.8778 8.80223 30.9417 9.04222 30.8571L10.6016 30.3094C10.9996 30.17 11.4409 30.2488 11.7816 30.5197C11.9519 30.6552 12.1254 30.7868 12.3016 30.9139C12.6641 31.1746 12.877 31.6029 12.8719 32.0597L12.8538 33.6345C12.8512 33.8874 12.9958 34.1184 13.2241 34.2262C14.4564 34.8068 15.7628 35.2268 17.1061 35.4745C17.1441 35.481 17.1828 35.4842 17.2215 35.4842C17.4325 35.4842 17.6332 35.3803 17.7544 35.2023L18.5893 33.9778C18.8364 33.6152 19.2435 33.4223 19.668 33.4152C19.8886 33.421 20.1106 33.421 20.3325 33.4152C20.7622 33.3913 21.1635 33.6152 21.4106 33.9778L22.2448 35.2023C22.3886 35.4139 22.6428 35.5203 22.8951 35.4733C24.2383 35.2255 25.5441 34.8055 26.777 34.2249C27.0054 34.1171 27.1499 33.8862 27.1473 33.6339L27.1292 32.0591C27.1241 31.6023 27.337 31.1739 27.6989 30.9133C27.8751 30.7862 28.0486 30.6552 28.2189 30.5197C28.5596 30.2488 29.0002 30.1688 29.3996 30.3094L30.9589 30.8571C31.1989 30.941 31.4673 30.8771 31.6421 30.6913C32.5679 29.71 33.3712 28.6152 34.0299 27.4372C34.1518 27.2191 34.137 26.9501 33.9918 26.7468L32.9608 25.3055C32.6976 24.9378 32.6299 24.4546 32.7802 24.0133C32.8525 23.8004 32.9202 23.5856 32.9828 23.3688C33.1092 22.9301 33.4279 22.5894 33.8357 22.4572L35.5647 21.8952C35.8041 21.8172 35.9757 21.6081 36.006 21.3585C36.0879 20.6733 36.1292 19.9998 36.1292 19.3552C36.1292 18.7107 36.0879 18.0372 36.0053 17.3527C35.9757 17.103 35.8034 16.894 35.5641 16.8159L33.835 16.254C33.4273 16.1217 33.1086 15.7804 32.9821 15.3417C32.9195 15.1249 32.8518 14.9101 32.7795 14.6972C32.6299 14.2559 32.697 13.7727 32.9602 13.405L33.9912 11.9637C34.1363 11.7604 34.1518 11.4921 34.0299 11.2733C33.3712 10.0959 32.5673 9.0011 31.6415 8.01917C31.4667 7.83336 31.1976 7.7682 30.9583 7.85336L29.3989 8.4011C29.0015 8.54174 28.5602 8.46239 28.2189 8.19078C28.0486 8.05529 27.8751 7.92368 27.6989 7.79659C27.3363 7.53594 27.1234 7.10756 27.1286 6.65078L27.1467 5.07595C27.1492 4.82305 27.0047 4.59208 26.7763 4.48434C25.5441 3.9037 24.2376 3.4837 22.8944 3.23596C22.6441 3.1908 22.388 3.2966 22.2448 3.50693L21.4099 4.73144C21.1628 5.09402 20.7641 5.29531 20.3312 5.29402C20.1106 5.28821 19.8886 5.28821 19.6667 5.29402C19.2235 5.30434 18.8357 5.09402 18.5886 4.73144L17.7544 3.50693C17.6106 3.29596 17.357 3.18951 17.1041 3.23596C15.7609 3.4837 14.4551 3.9037 13.2222 4.48434C12.9938 4.59208 12.8493 4.82305 12.8519 5.07531L12.87 6.65014C12.8751 7.10691 12.6622 7.5353 12.3003 7.79594C12.1241 7.92304 11.9506 8.054 11.7803 8.18949C11.4396 8.46045 10.9983 8.53916 10.5996 8.39981L9.04029 7.85207C8.79965 7.76755 8.5319 7.83272 8.35707 8.01788C7.43126 8.99916 6.62804 10.094 5.96933 11.2721C5.8474 11.4901 5.86224 11.7592 6.0074 11.9624L7.03836 13.4037C7.30159 13.7714 7.36868 14.2546 7.21836 14.6959C7.14868 14.9108 7.08094 15.1256 7.01772 15.3424ZM8.08997 12.6553L7.3003 11.5514C7.79578 10.7185 8.37126 9.93464 9.01577 9.21206L10.1732 9.61852C10.9932 9.90626 11.8945 9.74948 12.5848 9.20045C12.739 9.07787 12.8958 8.95916 13.0551 8.84432C13.7577 8.33787 14.1712 7.51272 14.1609 6.63659L14.1474 5.4824C15.0409 5.09208 15.9732 4.79208 16.928 4.58757L17.5215 5.45918C18.017 6.18627 18.8351 6.60304 19.6983 6.58498C19.899 6.58046 20.1009 6.58046 20.2996 6.58498C21.1731 6.61272 21.9815 6.18627 22.4764 5.45918L23.0712 4.58757C24.0267 4.79208 24.9589 5.09208 25.8525 5.4824L25.8389 6.63659C25.8293 7.51272 26.2428 8.33787 26.9454 8.84432C27.1047 8.95916 27.2615 9.07787 27.4157 9.20045C28.1067 9.75013 29.008 9.9069 29.8279 9.61852L30.9854 9.21206C31.6305 9.93464 32.2054 10.7192 32.7008 11.5514L31.9112 12.6546C31.4067 13.3598 31.275 14.2785 31.5589 15.1127C31.6247 15.3069 31.686 15.5024 31.7434 15.7004C31.9886 16.5507 32.6221 17.2165 33.437 17.4817L34.7686 17.914C34.815 18.4069 34.8389 18.8901 34.8389 19.3552C34.8389 19.8204 34.815 20.3036 34.7679 20.7965L33.437 21.2288C32.6215 21.4933 31.9886 22.1591 31.7428 23.0101C31.686 23.2081 31.6241 23.4036 31.5583 23.5972C31.2744 24.4307 31.4066 25.3501 31.9105 26.0552L32.6995 27.1591C32.2041 27.992 31.6286 28.7759 30.9841 29.4984L29.8267 29.092C29.0054 28.8036 28.1054 28.9604 27.4151 29.51C27.2609 29.6326 27.1041 29.7513 26.9447 29.8662C26.2422 30.3726 25.8286 31.1978 25.8389 32.0739L25.8525 33.2281C24.9589 33.6184 24.0267 33.9184 23.0718 34.1229L22.4783 33.2513C21.9951 32.5423 21.2093 32.1249 20.3667 32.1249C20.3448 32.1249 20.3235 32.1249 20.3015 32.1255C20.1009 32.13 19.899 32.13 19.7002 32.1255C18.8215 32.1055 18.0183 32.5242 17.5235 33.2513L16.9293 34.1229C15.9738 33.9184 15.0416 33.6184 14.148 33.2281L14.1616 32.0739C14.1712 31.1978 13.7577 30.3726 13.0551 29.8662C12.8958 29.7513 12.739 29.6326 12.5848 29.51C11.8938 28.9604 10.9925 28.803 10.1725 29.092L9.01513 29.4984C8.36997 28.7759 7.79513 27.9913 7.29965 27.1591L8.08932 26.0559C8.59384 25.3507 8.72545 24.432 8.44158 23.5978C8.37578 23.4036 8.31449 23.2081 8.25707 23.0101C8.01191 22.1598 7.37836 21.4939 6.56353 21.2288L5.23192 20.7965C5.18547 20.3036 5.1616 19.8204 5.1616 19.3552C5.1616 18.8901 5.18547 18.4069 5.23256 17.914L6.56417 17.4817C7.37965 17.2165 8.01255 16.5507 8.25771 15.7004C8.31449 15.5024 8.37642 15.3069 8.44223 15.1133C8.7261 14.2798 8.59448 13.3604 8.08997 12.6553Z" fill="white"/>
<path d="M39.1511 11.6462L37.9157 12.0579C34.9647 4.82305 27.857 0.000488281 20.0002 0.000488281C11.9171 0.000488281 4.61386 5.0966 1.82806 12.6811L3.03902 13.1256C5.63966 6.04692 12.4558 1.29081 20.0002 1.29081C27.3054 1.29081 33.9163 5.75724 36.6898 12.4669L35.2802 12.9366C35.0563 13.0114 34.8905 13.203 34.8492 13.4353C34.8079 13.6682 34.897 13.9049 35.0815 14.0527L38.3073 16.6333C38.4234 16.7262 38.5653 16.7746 38.7098 16.7746C38.7879 16.7746 38.866 16.7611 38.9402 16.732C39.1537 16.6501 39.3086 16.4611 39.346 16.2353L39.9911 12.3643C40.0285 12.1411 39.946 11.9146 39.7737 11.7675C39.6015 11.6204 39.3653 11.574 39.1511 11.6462ZM38.2544 14.9385L36.8131 13.7856L38.5427 13.2095L38.2544 14.9385Z" fill="white"/>
<path d="M0.751936 26.443L1.91838 26.2488C4.76482 33.71 11.9971 38.71 20.0002 38.71C28.0834 38.71 35.3866 33.6139 38.1724 26.0294L36.9615 25.5849C34.3608 32.6636 27.5447 37.4197 20.0002 37.4197C12.6177 37.4197 5.94353 32.8597 3.22289 26.0314L4.62224 25.7978C4.84805 25.7604 5.03708 25.6055 5.11901 25.392C5.2003 25.1778 5.16289 24.9372 5.02031 24.7585L2.43967 21.5327C2.29193 21.3475 2.05451 21.2572 1.82225 21.3004C1.59 21.3417 1.39838 21.5075 1.32355 21.7314L0.0332292 25.6023C-0.0383834 25.8172 0.00742288 26.0533 0.154519 26.2255C0.279035 26.3707 0.458389 26.452 0.645485 26.452C0.680969 26.452 0.715807 26.4494 0.751936 26.443ZM2.17258 23.2649L3.32547 24.7062L1.59645 24.9946L2.17258 23.2649Z" fill="white"/>
</svg>
