<svg width="657" height="452" viewBox="0 0 657 452" fill="none" xmlns="http://www.w3.org/2000/svg">
<g opacity="0.1">
<path d="M469.899 210.664C454.94 202.028 437.517 195.34 418.096 190.784C399.348 186.39 379.559 184.164 359.269 184.159C338.979 184.159 319.218 186.39 300.518 190.789C281.16 195.344 263.809 202.028 248.949 210.664C234.084 219.3 222.593 229.375 214.793 240.6C207.258 251.445 203.472 262.894 203.539 274.649C203.611 286.398 207.522 297.852 215.174 308.692C221.294 317.365 229.622 325.342 239.98 332.505L219.224 344.564L217.347 343.48C214.61 341.899 210.138 341.899 207.424 343.48L57.4056 430.65C54.6818 432.231 54.7042 434.82 57.437 436.397L81.4857 450.279C84.223 451.86 88.6851 451.86 91.409 450.279L241.427 363.109C244.146 361.527 244.128 358.938 241.396 357.362L239.518 356.278L260.274 344.219C272.675 350.194 286.473 354.987 301.464 358.504C320.213 362.903 340.005 365.133 360.291 365.133C380.581 365.133 400.342 362.903 419.046 358.508C438.404 353.953 455.76 347.265 470.625 338.629C485.485 329.992 496.972 319.922 504.771 308.697C512.298 297.848 516.088 286.394 516.021 274.644C515.953 262.899 512.038 251.441 504.386 240.591C496.465 229.361 484.862 219.296 469.899 210.655V210.664Z" fill="black"/>
</g>
<path d="M254.27 229.5C230.768 243.158 218.999 261.067 218.945 279.003L219.03 248.251C219.084 230.316 230.853 212.407 254.355 198.749C276.191 186.059 304.406 179.227 333.141 178.255C333.114 188.504 333.083 198.753 333.056 209.007C304.321 209.979 276.11 216.814 254.27 229.5Z" fill="#B7B7B7"/>
<path d="M333.055 209.006C333.082 198.758 333.113 188.509 333.14 178.255C366.655 177.117 400.878 183.953 426.521 198.753C450.485 212.586 462.456 230.79 462.397 248.963L462.312 279.715C462.366 261.541 450.4 243.341 426.436 229.504C400.793 214.7 366.57 207.869 333.055 209.006Z" fill="#B7B7B7"/>
<path d="M482.676 249.021L482.591 279.773C482.559 290.3 479.119 300.571 472.367 310.296L472.452 279.544C479.204 269.815 482.644 259.548 482.676 249.021Z" fill="#B7B7B7"/>
<path opacity="0.3" d="M462.399 248.959L462.314 279.71C462.264 297.651 450.5 315.559 426.998 329.217C379.68 356.712 302.449 356.712 254.83 329.222C230.862 315.385 218.896 297.185 218.945 279.016L219.031 248.265C218.981 266.438 230.947 284.638 254.916 298.47C302.534 325.956 379.765 325.956 427.083 298.466C450.585 284.808 462.349 266.899 462.399 248.959Z" fill="#39C3F2"/>
<g opacity="0.5">
<path d="M426.523 212.357C474.142 239.843 474.392 284.575 427.083 312.065C379.765 339.56 302.534 339.56 254.916 312.07C207.289 284.575 207.038 239.847 254.356 212.353C301.665 184.862 378.896 184.862 426.523 212.357Z" fill="#492C88"/>
</g>
<path d="M198.664 278.967L198.749 248.215C198.749 248.345 198.749 248.475 198.749 248.61C198.812 259.284 202.369 269.694 209.322 279.545C214.886 287.424 222.44 294.676 231.852 301.185C234.63 303.107 237.564 304.961 240.66 306.748C243.755 308.536 246.968 310.229 250.292 311.832C261.559 317.262 274.099 321.611 287.718 324.805C304.755 328.801 322.738 330.83 341.169 330.83C359.604 330.83 377.56 328.801 394.557 324.809C412.15 320.675 427.916 314.596 441.423 306.744C454.926 298.9 465.364 289.753 472.447 279.549L472.362 310.301C465.279 320.505 454.836 329.652 441.338 337.495C427.83 345.343 412.065 351.422 394.472 355.561C377.475 359.557 359.519 361.581 341.084 361.581C322.653 361.581 304.67 359.552 287.633 355.556C274.013 352.363 261.469 348.013 250.207 342.584C246.883 340.985 243.67 339.287 240.575 337.5C237.479 335.712 234.54 333.858 231.767 331.936C222.354 325.428 214.797 318.175 209.237 310.296C202.279 300.441 198.727 290.035 198.664 279.361C198.664 279.231 198.664 279.101 198.664 278.967Z" fill="#B7B7B7"/>
<path d="M217.114 331.403L217.047 355.359L202.68 347.063L202.747 323.107L217.114 331.403Z" fill="#4D4C4D"/>
<path d="M246.171 314.574L246.104 338.53L217.047 355.359L217.114 331.403L246.171 314.574Z" fill="#3A3A3B"/>
<path d="M246.175 314.574L217.117 331.403L202.75 323.107L231.803 306.278C233.967 307.774 236.256 309.221 238.666 310.609C241.077 312.003 243.581 313.324 246.17 314.569L246.175 314.574Z" fill="#4D4C4D"/>
<path d="M472.456 279.549C465.373 289.753 454.93 298.9 441.432 306.744C427.925 314.592 412.16 320.67 394.567 324.809C377.569 328.805 359.614 330.83 341.178 330.83C322.747 330.83 304.765 328.801 287.727 324.805C274.108 321.611 261.564 317.262 250.301 311.832C246.977 310.233 243.765 308.536 240.669 306.748C237.573 304.961 234.634 303.106 231.861 301.185C222.449 294.676 214.891 287.424 209.331 279.545C202.374 269.69 198.821 259.284 198.758 248.609C198.705 237.93 202.141 227.525 208.986 217.674C216.074 207.475 226.517 198.323 240.024 190.471C253.527 182.627 269.287 176.553 286.88 172.414C303.869 168.418 321.834 166.389 340.264 166.389C358.7 166.389 376.678 168.414 393.72 172.41C411.362 176.544 427.195 182.623 440.787 190.471C454.375 198.314 464.921 207.461 472.12 217.665C479.073 227.52 482.63 237.93 482.689 248.605C482.751 259.28 479.306 269.69 472.465 279.545L472.456 279.549ZM254.92 298.47C302.538 325.956 379.769 325.956 427.087 298.466C474.392 270.98 474.141 226.248 426.527 198.758C378.9 171.263 301.669 171.263 254.36 198.753C207.042 226.248 207.297 270.975 254.92 298.47Z" fill="#EAEAE9"/>
<path d="M221.79 333.746L221.705 364.498C221.705 365.438 221.087 366.379 219.859 367.091L219.944 336.34C221.172 335.627 221.786 334.687 221.79 333.746Z" fill="#E7AF2A"/>
<path d="M50.8125 431.049L50.8976 400.297C50.8976 401.251 51.5203 402.206 52.7748 402.927L52.6896 433.678C51.4352 432.953 50.8125 432.003 50.8125 431.049Z" fill="#5418A3"/>
<path d="M219.949 336.34L219.859 367.087L83.5547 446.292L83.6398 415.541L219.949 336.34Z" fill="#5418A3"/>
<path d="M74.6217 415.541L74.5366 446.292L52.6875 433.678L52.7771 402.931L74.6217 415.541Z" fill="#5418A3"/>
<path d="M83.6425 415.541L83.5573 446.292C81.0844 447.73 77.0255 447.726 74.5391 446.292L74.6242 415.541C77.1106 416.974 81.1695 416.979 83.6425 415.541Z" fill="#5418A3"/>
<path d="M219.916 331.117C222.403 332.55 222.416 334.906 219.948 336.34L83.6429 415.541C81.17 416.979 77.1111 416.974 74.6247 415.541L52.7756 402.927C50.2847 401.489 50.2713 399.142 52.7442 397.704L189.049 318.503C191.517 317.069 195.576 317.065 198.067 318.503L199.774 319.488L218.214 330.136L219.916 331.117Z" fill="#6426B6"/>
<g opacity="0.1">
<path d="M366.108 249.824C351.884 241.613 328.897 241.613 314.763 249.824C300.628 258.034 300.704 271.347 314.928 279.563C329.153 287.774 352.14 287.774 366.274 279.563C380.408 271.352 380.332 258.039 366.108 249.824Z" fill="black"/>
</g>
<path d="M341.822 193.665C338.328 191.636 333.333 192.491 326.823 196.25C313.347 204.03 306.627 215.87 306.672 231.781C306.694 239.476 308.46 244.448 311.959 246.697C312.066 246.764 312.174 246.832 312.281 246.894L342.911 264.691C342.803 264.628 342.696 264.561 342.588 264.494C339.09 262.245 337.324 257.273 337.302 249.577C337.257 233.666 343.977 221.827 357.453 214.046C363.963 210.288 368.962 209.433 372.452 211.462L341.822 193.665Z" fill="url(#paint0_linear_831_3423)"/>
<path d="M357.456 214.051C364.06 210.239 369.109 209.41 372.607 211.556C376.106 213.711 377.863 218.571 377.885 226.159C377.907 233.64 376.156 240.592 372.643 246.993C369.122 253.412 364.104 258.487 357.595 262.25C351.081 266.008 346.081 266.765 342.591 264.503C339.092 262.254 337.327 257.282 337.305 249.587C337.26 233.675 343.98 221.836 357.456 214.055V214.051Z" fill="#E5E5E4"/>
<path d="M343.81 206.548L313.18 188.746L313.148 178.641L343.778 196.442L343.81 206.548Z" fill="white"/>
<path d="M357.492 38.8193L388.122 56.6162C392.105 58.9276 394.107 63.9804 394.13 71.7523C394.152 79.3404 392.589 86.7898 389.439 94.0868C386.29 101.397 379.265 113.16 368.387 129.358C359.235 142.868 352.837 154.537 349.2 164.334C345.548 174.148 343.747 184.845 343.779 196.438L313.149 178.641C313.117 167.048 314.918 156.351 318.57 146.537C322.212 136.74 328.609 125.071 337.758 111.561C348.635 95.3634 355.66 83.6004 358.809 76.2899C361.959 68.9929 363.522 61.5436 363.5 53.9554C363.477 46.1835 361.475 41.1352 357.492 38.8193Z" fill="white"/>
<path d="M381.832 3.21198L412.461 21.0088C411.458 20.4265 410.392 19.9203 409.267 19.4903L378.633 1.68896C379.757 2.11899 380.824 2.62517 381.827 3.2075L381.832 3.21198Z" fill="white"/>
<path d="M318.304 102.553L287.674 84.7513L276.039 63.6128L306.673 81.4097L318.304 102.553Z" fill="#F2F2F1"/>
<path d="M306.677 81.4097L276.047 63.6129C294.626 40.9558 314.548 23.4949 335.824 11.2123C353.798 0.837852 368.071 -2.33808 378.644 1.69343L409.274 19.4903C398.701 15.4588 384.423 18.6347 366.449 29.0091C345.174 41.2918 325.251 58.7527 306.672 81.4097H306.677Z" fill="white"/>
<path d="M409.272 19.4903C419.845 23.5218 425.158 34.4293 425.208 52.2396C425.23 60.1368 424.24 67.7519 422.242 75.0803C420.244 82.4087 417.206 90.0461 413.143 97.9792C409.079 105.926 402.059 117.254 392.096 131.969C383.588 144.588 377.89 154.264 375.018 160.987C372.146 167.711 370.722 175.335 370.748 183.868L370.771 190.977L343.81 206.543L343.783 196.438C343.752 184.845 345.553 174.148 349.204 164.333C352.846 154.537 359.244 142.868 368.392 129.358C379.269 113.16 386.294 101.397 389.444 94.0866C392.593 86.7896 394.157 79.3402 394.134 71.752C394.107 62.9096 391.518 57.5925 386.37 55.8186C381.223 54.0403 373.835 55.9351 364.208 61.4941C355.494 66.5245 347.425 72.6076 340.007 79.7344C332.588 86.8702 325.352 94.4718 318.31 102.553L306.68 81.4097C325.254 58.7527 345.181 41.2918 366.457 29.0091C384.43 18.6347 398.704 15.4588 409.281 19.4903H409.272Z" fill="#E5E5E4"/>
<path opacity="0.1" d="M511.052 393.99C519.633 393.99 526.589 390.695 526.589 386.63C526.589 382.566 519.633 379.271 511.052 379.271C502.472 379.271 495.516 382.566 495.516 386.63C495.516 390.695 502.472 393.99 511.052 393.99Z" fill="black"/>
<path d="M514.406 305.172C514.406 305.172 514.088 308.562 509.286 307.537C509.286 307.537 507.686 301.713 508.9 298.004C508.9 298.004 513.058 296.15 514.402 298.004C515.746 299.859 514.402 305.172 514.402 305.172H514.406Z" fill="#FAC2B0"/>
<path d="M519.815 309.132L518.394 304.952L513.905 304.769L511.289 306.565C511.289 306.565 513.556 307.936 514.255 311.9L519.815 309.132Z" fill="#FAC2B0"/>
<path d="M518.791 306.265C518.791 306.265 515.525 307.187 514.007 306.265C512.483 305.342 511.811 302.076 510.579 302.95C510.579 302.95 510.096 302.327 510.579 300.929C511.063 299.532 510.866 298.663 510.145 298.614C509.424 298.564 507.977 298.34 507.977 296.347C507.977 296.347 509.563 296.714 511.628 295.805C512.64 295.362 515.776 294.524 516.802 295.424C517.828 296.325 517.949 297.368 517.9 297.991C517.9 297.991 518.921 298.314 519.123 299.684C519.324 301.055 519.096 304.271 518.8 306.265H518.791Z" fill="#5F3D37"/>
<path d="M511.678 304.809C511.678 304.809 513.752 302.937 512.753 301.494C512.659 301.355 512.507 301.266 512.341 301.252C511.947 301.225 511.185 301.418 510.531 303.062L511.678 304.809Z" fill="#FAC2B0"/>
<path d="M521.531 309.92C519.886 310.578 520.209 313.118 520.756 314.57C521.302 316.025 525.146 326.288 525.146 328.608C525.146 330.928 523.641 340.089 523.641 340.089C523.641 340.089 525.827 341.455 527.238 340.591C527.238 340.591 530.016 332.116 529.29 327.56C528.56 323.004 525.003 312.106 524.55 311.062C524.111 310.054 522.668 309.463 521.531 309.92Z" fill="#CC2368"/>
<path d="M527.243 340.591C527.243 340.591 527.382 342.405 526.921 343.39C526.276 344.765 524.815 345.782 523.122 345.509C521.428 345.236 523.646 340.089 523.646 340.089L527.243 340.591Z" fill="#FAC2B0"/>
<path d="M520.921 381.116C520.921 381.116 521.67 384.946 518.977 385.004C518.977 385.004 517.423 385.676 514.614 383.638C514.614 383.638 512.002 383.629 510.093 382.939C510.093 382.939 509.031 382.039 510.411 381.667C511.791 381.295 515.828 380.211 515.828 380.211C515.828 380.211 516.24 380.382 520.926 381.116H520.921Z" fill="#4F312B"/>
<path d="M522.999 337.312C522.999 337.312 518.474 340.156 514.008 339.596C514.008 339.596 514.635 356.062 514.774 358.437C514.913 360.811 515.755 380.207 515.822 380.207C515.889 380.207 518.188 382.46 520.921 381.112C520.988 380.623 521.543 373.716 522.175 372.112C522.802 370.509 523.429 364.506 521.687 361.854C521.687 361.854 521.27 352.295 522.103 350.203C522.941 348.111 525.221 342.351 522.999 337.312Z" fill="#1C5B8A"/>
<path d="M519.864 308.235C518.937 308.415 517.911 308.67 516.822 309.033C514.995 309.642 514.269 309.861 513.055 310.574C513.404 311.626 513.758 312.679 514.108 313.732L520.388 309.763L519.864 308.231V308.235Z" fill="#ED3481"/>
<path d="M518.402 309.723C517.264 309.888 516.167 310.269 515.163 310.833C512.426 312.379 508.819 315.201 508.439 315.913C507.977 316.778 506.911 319.613 506.992 321.978C507.072 324.343 507.305 336.864 506.203 340.093C506.203 340.093 513.806 342.261 518.846 339.896C518.846 339.896 522.098 338.364 522.994 337.312C522.994 337.312 524.101 326.35 525.051 321.136C526 315.918 525.167 310.35 522.891 309.808C521.319 309.436 519.612 309.548 518.402 309.723Z" fill="#AF1E5A"/>
<path d="M486.147 318.274C486.147 318.274 483.853 317.194 483.446 315.636C483.038 314.077 483.683 312.549 484.794 311.344C484.794 311.344 482.774 308.746 483.32 307.949C483.867 307.151 487.482 311.358 487.769 312.003C488.056 312.648 488.965 315.403 488.965 315.403L487.464 317.804L486.143 318.274H486.147Z" fill="#FAC2B0"/>
<path d="M511.819 318.225C511.492 315.994 510.005 315.21 508.441 315.913C506.877 316.617 498.02 322.507 496.609 321.728C495.198 320.948 488.971 315.403 488.971 315.403C488.971 315.403 486.44 316.133 486.148 318.274C486.148 318.274 492.035 326.498 495.297 326.839C498.558 327.179 509.651 323.336 510.332 322.507C511.013 321.679 512.092 320.075 511.819 318.225Z" fill="#CC2368"/>
<path d="M512.683 385.788C512.683 385.788 514.471 388.79 512.217 389.905C509.964 391.02 508.042 388.857 506.209 389.345C504.377 389.833 501.519 390.743 499.216 389.274C499.216 389.274 499.015 389.139 498.786 388.902C498.428 388.53 498.593 387.907 499.091 387.759C500.838 387.24 504.762 385.972 505.9 384.736C505.9 384.736 505.972 384.919 512.683 385.784V385.788Z" fill="#4F312B"/>
<path d="M506.207 340.098C506.207 340.098 505.073 357.183 505.284 361.232C505.494 365.277 506.471 368.977 506.538 372.256C506.61 375.535 505.884 384.745 505.898 384.745C505.911 384.745 509.54 387.186 512.68 385.793C512.68 385.793 512.331 377.488 513.03 374.209C513.729 370.93 513.688 364.789 511.717 362.419C511.717 362.419 514.894 352.094 516.193 350.419C517.492 348.743 520.063 344.389 518.845 339.905C518.845 339.905 513.335 341.854 506.202 340.102L506.207 340.098Z" fill="#2373AD"/>
<path opacity="0.1" d="M321.156 447.717C329.41 447.717 336.102 445.33 336.102 442.386C336.102 439.442 329.41 437.056 321.156 437.056C312.902 437.056 306.211 439.442 306.211 442.386C306.211 445.33 312.902 447.717 321.156 447.717Z" fill="black"/>
<path d="M333.042 391.083C333.042 391.083 328.338 370.267 325.148 367.463C325.148 367.463 330.117 381.192 331.837 390.738L333.042 391.088V391.083Z" fill="#20438A"/>
<path d="M313.755 368.426C313.128 370.509 308.401 380.686 308.401 380.686C308.401 380.686 308.334 386.272 305.126 393.735C303.07 393.918 301.914 393.022 301.914 393.022C301.914 393.022 303.666 382.307 304.418 379.638C305.171 376.968 307.886 368.838 308.836 366.947C309.785 365.062 310.673 364.251 312.003 364.587C313.002 364.838 314.377 366.338 313.755 368.421V368.426Z" fill="#F3A31D"/>
<path d="M305.586 398.039C305.129 399.32 302.5 400.36 300.999 398.698C299.498 397.031 301.917 393.027 301.917 393.027C301.917 393.027 303.073 393.918 305.129 393.739C305.129 393.739 306.048 396.763 305.586 398.044V398.039Z" fill="#FAC2B0"/>
<path d="M321.119 391.576C321.119 391.576 320.447 412.979 320.447 414.994C320.447 417.01 317.911 437.459 317.911 437.459C315.295 438.628 312.911 437.392 312.911 437.392C312.911 437.392 312.983 432.818 312.983 430.87C312.983 428.921 312.042 423.066 312.338 419.837C312.633 416.611 313.588 413.579 313.588 413.579C313.588 413.579 310.895 397.708 311.097 395.285C311.298 392.861 312.271 391.079 312.271 391.079L321.119 391.576Z" fill="#461B0F"/>
<path d="M322.868 442.511C321.995 442.915 314.459 443.183 312.981 442.041C311.502 440.894 312.909 437.4 312.909 437.4C312.909 437.4 315.293 438.637 317.909 437.468C320.01 439.152 323.742 442.108 322.868 442.516V442.511Z" fill="#403316"/>
<path d="M328.25 446.108C327.193 445.862 321.624 444.509 319.33 442.843C317.852 441.772 319.554 438.095 319.554 438.095C319.554 438.095 321.172 439.855 324.473 439.667C324.473 439.667 327.69 442.758 331.355 443.936C335.019 445.114 329.303 446.359 328.25 446.108Z" fill="#504017"/>
<path d="M329.934 414.121C329.746 417.288 324.477 439.663 324.477 439.663C321.175 439.851 319.558 438.09 319.558 438.09C319.558 438.09 319.742 424.925 320.49 421.319C321.238 417.718 322.233 416.226 322.233 416.226C322.233 416.226 316.458 399.89 316.391 397.408C316.328 394.922 316.66 393.681 316.66 393.681L327.259 392.315C327.259 392.315 330.118 410.945 329.934 414.112V414.121Z" fill="#5A1F0C"/>
<path d="M320.962 351.892C323.099 352.098 324.605 352.891 324.726 354.244C324.842 355.597 323.785 361.59 322.844 362.177C321.903 362.764 318.615 361.003 318.023 359.413C317.437 357.827 317.907 351.596 320.962 351.892Z" fill="#FAC2B0"/>
<path d="M319.927 365.201C319.927 365.201 320.416 361.742 322.158 361.415L315.626 358.307L314.914 363.243C314.914 363.243 315.976 365.366 319.923 365.205L319.927 365.201Z" fill="#FAC2B0"/>
<path d="M321.37 357.46C321.764 357.272 322.253 357.823 322.513 357.375C322.772 356.927 322.687 354.728 323.256 354.351C323.825 353.971 325.21 352.864 325.142 352.295C325.075 351.726 320.282 348.819 318.261 348.752C316.236 348.685 314.767 350.777 314.767 350.777C314.767 350.777 313.956 350.965 313.866 352.143C313.781 353.317 313.418 358.696 314.767 359.96C316.115 361.223 318.189 361.375 318.987 361.084C319.784 360.788 320.102 358.069 321.375 357.469L321.37 357.46Z" fill="#543631"/>
<path d="M317.138 363.507C319.351 364.067 324.602 366.997 325.726 368.161C326.851 369.326 326.971 378.357 326.891 381.004C326.81 383.651 327.773 392.243 327.254 392.324C326.734 392.404 320.229 395.253 316.659 393.69C313.088 392.127 311.923 391.123 311.762 390.079C311.601 389.036 311.722 383.978 311.399 382.653C311.076 381.327 307.788 372.296 308.509 368.282C309.231 364.269 311.762 362.141 317.138 363.507Z" fill="#FBAF19"/>
<path d="M330.84 404.051C330.307 404.351 327.095 406.264 324.868 407.088C323.896 407.451 323.112 407.603 322.821 407.321C321.866 406.398 321.02 404.177 321.118 402.237C321.217 400.293 319.859 397.766 319.859 396.624C319.859 396.27 319.998 395.939 320.186 395.652C320.603 395.016 321.28 394.591 321.28 394.591C321.365 394.55 321.463 394.501 321.571 394.443C323.833 393.318 331.059 390.093 331.794 390.272C331.879 390.295 331.978 390.326 332.076 390.375C332.887 390.756 334.097 391.974 334.263 393.511C334.446 395.236 334.944 400.141 335.374 400.853C335.804 401.561 331.61 403.626 330.84 404.06V404.051Z" fill="#233A74"/>
<path d="M330.841 404.051C330.308 404.351 327.096 406.264 324.869 407.088C324.004 406.273 323.068 405.068 322.817 403.607C322.477 401.609 322.696 401.224 322.499 400.346C322.405 399.921 321.908 398.819 321.594 397.582C321.325 396.521 321.191 395.356 321.572 394.438C323.834 393.313 331.06 390.088 331.795 390.267C331.88 390.29 331.979 390.321 332.077 390.37C332.888 390.751 334.098 391.97 334.264 393.506C334.447 395.231 334.945 400.136 335.375 400.848C335.805 401.556 331.612 403.621 330.841 404.055V404.051Z" fill="#20438A"/>
<path d="M329.443 399.294C325.671 400.709 323.14 399.24 321.594 397.578C320.967 396.906 320.501 396.203 320.188 395.643C320.604 395.007 321.281 394.581 321.281 394.581C321.366 394.541 321.464 394.492 321.572 394.433C323.834 393.309 331.06 390.084 331.795 390.263C331.88 390.285 331.979 390.317 332.077 390.366C333.094 392.996 334.049 397.569 329.443 399.294Z" fill="#2E56A5"/>
<path d="M329.858 396.256L327.318 397.34C327.036 397.461 326.705 397.327 326.584 397.045C326.463 396.763 326.597 396.431 326.879 396.31L329.419 395.226C329.702 395.105 330.033 395.24 330.154 395.522C330.275 395.804 330.141 396.135 329.858 396.256Z" fill="#BFBEBF"/>
<path d="M329.708 396.113L327.316 397.139C327.123 397.22 326.899 397.13 326.819 396.942C326.738 396.749 326.828 396.525 327.016 396.445L329.413 395.419C329.605 395.338 329.829 395.428 329.91 395.616C329.991 395.809 329.901 396.033 329.713 396.113H329.708Z" fill="#F3F4F5"/>
<path d="M322.08 357.872C322.08 357.872 322.394 356.183 321.547 355.982C320.7 355.78 319.764 356.277 320.776 358.535L322.08 357.872Z" fill="#FAC2B0"/>
<path d="M319.858 396.62C319.858 396.62 318.846 375.804 322.134 369.658H322.55C322.55 369.658 320.315 384.691 321.359 396.293L319.858 396.62Z" fill="#20438A"/>
<path d="M321.469 396.521L319.959 396.893C319.851 396.92 319.744 396.853 319.717 396.745C319.69 396.638 319.757 396.53 319.865 396.503L321.374 396.131C321.482 396.105 321.59 396.172 321.616 396.279C321.643 396.387 321.576 396.494 321.469 396.521Z" fill="#F3F4F5"/>
<path d="M330.944 390.85C330.366 392.046 329.609 392.821 329.036 393.273C329.009 393.228 328.973 393.188 328.942 393.152C328.359 392.525 319.811 386.608 318.933 384.561C318.055 382.518 320.443 373.013 321.232 370.804C322.02 368.596 323.593 367.301 325.143 367.969C326.518 368.56 327.065 370.639 326.357 373.098C325.649 375.557 323.857 383.396 323.857 383.396C323.857 383.396 328.758 387.97 330.738 390.568C330.81 390.666 330.882 390.76 330.949 390.854L330.944 390.85Z" fill="#F3A31D"/>
<path d="M332.654 396.53C332.363 397.739 331.154 398.321 330.612 397.905C330.069 397.484 329.362 397.027 329.362 396.319C329.362 395.652 329.509 393.985 329.039 393.273C329.613 392.821 330.37 392.05 330.948 390.85C332.681 393.255 332.937 395.365 332.654 396.53Z" fill="#FAC2B0"/>
<path d="M320.575 373.013C320.575 373.013 320.758 366.956 324.88 367.373C325.1 367.395 325.247 367.525 325.409 367.669C325.642 367.875 325.951 368.215 326.036 368.627C326.036 368.627 322.376 366.155 320.57 373.008L320.575 373.013Z" fill="#20438A"/>
<path opacity="0.1" d="M509.031 164.279C517.285 164.279 523.977 161.893 523.977 158.949C523.977 156.005 517.285 153.618 509.031 153.618C500.777 153.618 494.086 156.005 494.086 158.949C494.086 161.893 500.777 164.279 509.031 164.279Z" fill="black"/>
<path d="M498.806 135.091C499.034 137.51 501.153 151.499 500.244 153.466C500.154 153.663 500.007 153.869 499.823 154.084C502.515 154.554 504.164 154.299 505.132 153.945C505.064 153.712 504.997 153.475 504.93 153.237C504.401 151.271 506.444 143.333 506.897 140.386C507.349 137.434 505.262 135.472 505.262 135.472C506.252 132.354 504.616 122.544 504.554 122.172C504.688 122.567 509.025 135.118 509.616 136.982C510.221 138.876 515.664 150.142 517.259 152.409C517.9 153.327 517.927 154.156 517.707 154.872C520.462 154.94 521.641 153.099 522.111 151.934C522.035 151.822 521.954 151.701 521.869 151.58C520.355 149.385 519.598 143.79 519.297 140.767C518.993 137.743 515.821 134.491 515.821 134.491C515.821 134.491 515.292 125.263 514.652 120.273C514.011 115.283 512.591 114.486 512.591 114.486L497.789 111.915C495.715 116.64 498.577 132.677 498.806 135.096V135.091Z" fill="#89211B"/>
<path d="M514.884 163.599C519.01 164.736 519.678 159.365 520.699 158.08C521.721 156.794 522.706 156.642 523.235 155.509C523.737 154.438 523.423 153.838 522.119 151.934C521.649 153.099 520.475 154.935 517.716 154.873C517.402 155.925 516.569 156.727 516.43 157.175C516.201 157.932 510.758 162.465 514.884 163.599Z" fill="#4E4019"/>
<path d="M493.211 158.38C495.935 160.27 498.654 158.532 500.016 157.851C501.378 157.171 501.835 158.075 504.012 157.471C505.921 156.938 505.598 155.594 505.132 153.945C504.169 154.299 502.516 154.555 499.823 154.084C498.166 155.992 493.211 158.38 493.211 158.38Z" fill="#4E4019"/>
<path d="M492.047 102.624C493.785 103.439 494.704 104.792 495.178 105.827C496.24 105.097 497.1 104.42 497.441 103.968C498.646 102.355 498.83 93.9069 499.139 91.3312C499.448 88.76 499.21 85.6961 497.441 86.0186C495.295 86.4083 494.462 91.0893 494.462 92.6975C494.462 94.3056 494.206 99.887 492.92 101.5C492.665 101.818 492.374 102.207 492.047 102.624Z" fill="#4D67AF"/>
<path d="M479.648 111.69C479.81 112.416 483.349 114.669 484.72 113.142C486.086 111.614 488.541 109.921 488.541 109.921C488.541 109.921 492.493 107.686 495.176 105.827C494.701 104.792 493.783 103.439 492.045 102.624C490.714 104.326 488.797 106.561 486.476 106.951C483.577 107.43 481.342 106.624 481.1 107.507C480.858 108.389 483.757 108.797 483.757 108.797C483.757 108.797 479.492 110.969 479.653 111.69H479.648Z" fill="#FAC2B0"/>
<path d="M505.795 83.6314C503.56 83.1745 498.009 84.6706 496.678 85.9517C495.348 87.2329 495.348 94.6329 496.387 97.5311C497.426 100.434 496.557 110.199 497.328 111.408C498.103 112.618 505.428 117.792 512.587 114.477C512.587 114.477 515.611 113.124 514.715 109.523C513.819 105.921 513.532 89.6742 512.609 88.1243C511.686 86.5744 508.618 84.2092 505.791 83.6269L505.795 83.6314Z" fill="#3D56A5"/>
<path d="M509.175 93.5802C510.142 95.1928 515.093 101.822 514.887 103.574C514.81 104.214 514.219 105.581 513.444 107.068C515.187 107.372 516.459 108.345 517.265 109.191C519.031 107.063 520.59 104.94 520.693 104.04C520.926 102.06 515.608 92.2722 514.474 90.8657C513.341 89.4592 512.494 86.9955 510.698 87.963C508.332 89.2352 508.211 91.9676 509.175 93.5847V93.5802Z" fill="#4D67AF"/>
<path d="M508.343 119.144C509.494 118.221 511.112 115.592 512.165 114.741C512.742 114.275 515.148 111.731 517.263 109.186C516.452 108.34 515.184 107.368 513.441 107.063C512.102 109.625 510.211 112.555 509.454 112.783C508.253 113.151 505.915 112.277 505.543 112.967C505.171 113.661 507.841 114.49 507.841 114.49C507.841 114.49 504.159 116.47 504.02 117.388C503.881 118.311 507.196 120.062 508.352 119.14L508.343 119.144Z" fill="#FAC2B0"/>
<path d="M505.087 72.9743C502.162 72.822 499.689 73.1356 499.456 75.4425C499.223 77.7494 498.314 83.3577 501.163 84.1282C504.012 84.8986 507.059 82.2289 507.135 77.8435C507.211 73.4581 505.087 72.9699 505.087 72.9699V72.9743Z" fill="#FAC2B0"/>
<path d="M507.352 79.5056C507.352 79.5056 505.367 77.8482 505.367 75.7205C505.367 75.7205 499.203 76.9837 498.383 72.1459C498.383 72.1459 500.251 72.3788 502.634 71.4919C505.018 70.605 508.288 70.699 508.311 73.1269C508.311 73.1269 510.201 73.6644 510.201 76.0923C510.201 78.5201 508.799 80.4597 507.54 81.275L507.352 79.5011V79.5056Z" fill="#543631"/>
<path d="M507.75 79.3535V84.7378C507.75 84.7378 506.254 87.6315 502.822 86.5117C502.822 86.5117 501.962 85.9697 501.913 85.1096C501.863 84.2496 501.913 80.8138 501.913 80.8138L507.754 79.3535H507.75Z" fill="#FAC2B0"/>
<path d="M506.32 79.1788C506.32 79.1788 507.324 77.4273 508.632 78.1978C509.94 78.9683 508.748 81.1408 506.32 80.6257V79.1788Z" fill="#FAC2B0"/>
<path opacity="0.1" d="M132.359 304.966C140.614 304.966 147.305 302.579 147.305 299.635C147.305 296.691 140.614 294.305 132.359 294.305C124.105 294.305 117.414 296.691 117.414 299.635C117.414 302.579 124.105 304.966 132.359 304.966Z" fill="black"/>
<path d="M126.763 296.446C126.772 299.34 127.161 303.68 123.846 303.331C120.307 302.959 122.233 295.138 122.542 293.897C122.708 293.243 123.044 292.504 123.421 291.77C123.004 294.784 123.349 298.686 124.55 299.295C125.508 299.783 126.328 297.79 126.758 296.446H126.763Z" fill="#009253"/>
<path d="M138.809 274.407C137.591 279.635 136.596 285.082 137.228 289.024C135.669 289.458 134.405 289.386 133.514 289.189C134.123 285.892 133.42 280.275 133.469 278.067C133.532 275.46 134.898 272.669 134.898 272.669C134.464 267.952 133.966 256.78 133.966 256.78C133.966 256.78 133.16 271.616 133.097 273.041C133.048 274.21 128.855 286.932 127.322 293.024C125.566 292.607 124.72 291.057 124.419 289.951C124.437 289.919 124.455 289.888 124.469 289.861C125.154 288.62 125.71 281.046 125.871 278.999C126.028 276.951 128.196 274.344 128.752 272.669C129.312 270.994 124.841 261.314 124.16 256.592C123.474 251.875 125.333 248.597 125.333 248.597L138.021 247.06C140.458 250.182 140.736 266.156 138.809 274.407Z" fill="#203619"/>
<path d="M143.708 297.248C142.158 297.933 135.519 296.692 133.776 295.882C132.172 295.138 131.733 293.651 132.746 291.331C133.306 292.011 134.179 292.845 135.528 293.741C137.916 295.326 139.461 294.565 140.16 293.982C140.182 293.996 140.209 294.009 140.232 294.018C144.949 296.563 143.708 297.243 143.708 297.243V297.248Z" fill="#009253"/>
<path d="M140.164 293.982C139.461 294.569 137.92 295.326 135.532 293.74C134.184 292.84 133.31 292.011 132.75 291.33C132.835 291.133 132.929 290.936 133.037 290.73C133.247 290.318 133.404 289.794 133.516 289.194C134.412 289.386 135.675 289.458 137.23 289.028C137.588 291.281 138.48 293.046 140.169 293.987L140.164 293.982Z" fill="#FAC2B0"/>
<path d="M124.379 288.777L124.289 288.974C124.302 288.858 124.334 288.786 124.379 288.777Z" fill="#FAC2B0"/>
<path d="M127.32 293.028C126.984 294.358 126.778 295.375 126.764 295.881C126.764 296.061 126.76 296.249 126.764 296.446C126.334 297.79 125.515 299.783 124.556 299.295C123.355 298.686 123.01 294.779 123.427 291.769C123.749 291.142 124.112 290.519 124.421 289.955C124.722 291.062 125.568 292.611 127.325 293.028H127.32Z" fill="#FAC2B0"/>
<path d="M127.815 213.554C126.749 213.169 124.357 212.232 123.421 214.409C122.48 216.586 122.87 221.881 124.424 231.996L130.562 231.015L127.815 213.558V213.554Z" fill="#AA2E24"/>
<path d="M128.483 226.36C129.908 225.764 134.693 225.464 136.059 225.464C137.425 225.464 139.002 231.283 139.016 233.344C139.034 235.794 138.492 237.846 137.296 239.763C136.099 241.684 138.021 247.06 138.021 247.06C138.021 247.06 134.724 253.546 125.338 248.596C125.338 248.596 127.269 242.536 124.429 238.226C121.589 233.917 121.974 231.185 123.251 230.029C124.532 228.878 128.483 226.36 128.483 226.36Z" fill="#007A6D"/>
<path d="M147.55 223.471C145.726 225.424 142.554 228.631 138.787 230.871C138.787 230.871 136.031 231.543 135.023 228.546C134.468 226.893 134.289 225.778 137.962 224.994C141.022 224.344 143.692 222.078 144.875 220.882C145.466 221.67 146.376 222.687 147.55 223.471Z" fill="#007A6D"/>
<path d="M123.172 243.821C122.993 244.269 122.845 244.757 122.724 245.281C121.098 245.304 119.669 244.556 118.688 243.844C119.454 240.52 120.923 235.171 121.541 233.196C122.227 231.014 123.92 229.975 125.304 230.925C126.765 231.924 125.179 238.894 123.176 243.821H123.172Z" fill="#007A6D"/>
<path d="M122.755 260.068C122.338 261.336 120.842 264.405 118.884 262.765C116.926 261.13 119.614 259.352 119.713 257.882C119.816 256.418 117.8 247.934 118.477 244.789C118.539 244.498 118.611 244.18 118.687 243.839C119.668 244.552 121.097 245.3 122.724 245.277C121.509 250.5 123.131 258.908 122.755 260.068Z" fill="#FAC2B0"/>
<path d="M155.685 209.065C154.4 211.13 153.71 212.277 153.71 212.277C153.71 212.277 149.902 221.079 149.073 221.841C148.831 222.065 148.307 222.66 147.55 223.471C146.376 222.687 145.466 221.67 144.875 220.882C145.117 220.64 145.292 220.443 145.399 220.313C146.04 219.529 151.371 211.636 151.461 210.902C151.55 210.167 149.991 204.523 151.093 205.074C152.195 205.625 152.424 207.233 152.424 207.233C152.424 207.233 153.208 203.515 154.261 203.882C155.318 204.25 156.971 207.005 155.685 209.07V209.065Z" fill="#FAC2B0"/>
<path d="M133.62 216.17C133.62 216.17 134.65 213.755 132.934 213.106C131.218 212.456 128.405 212.21 126.81 213.585C125.215 214.96 122.433 219.229 126.64 223.991L133.62 216.17Z" fill="#B93426"/>
<path d="M133.191 215.018C133.818 215.954 136.044 221.155 132.917 225.908C132.917 225.908 125.861 227.888 127.335 216.895L133.186 215.014L133.191 215.018Z" fill="#FAC2B0"/>
<path d="M133.9 214.62C133.976 215.856 132.43 221.191 127.655 220.725C122.879 220.259 126.651 214.772 128.77 214.311C130.889 213.845 133.904 214.62 133.904 214.62H133.9Z" fill="#B93426"/>
<path d="M127.198 221.845L127.117 227.279C127.117 227.279 128.488 228.918 130.764 228.47C130.764 228.47 131.991 223.843 132.094 223.87C132.198 223.897 127.202 221.845 127.202 221.845H127.198Z" fill="#FAC2B0"/>
<path d="M128.487 220.976C128.487 220.976 127.435 218.405 126.247 219.471C125.136 220.465 127.031 222.042 127.766 222.011L128.487 220.971V220.976Z" fill="#FAC2B0"/>
<path opacity="0.1" d="M617.188 450.126C625.442 450.126 632.133 447.74 632.133 444.796C632.133 441.852 625.442 439.465 617.188 439.465C608.933 439.465 602.242 441.852 602.242 444.796C602.242 447.74 608.933 450.126 617.188 450.126Z" fill="black"/>
<path d="M627.651 439.985C627.651 439.985 628.175 442.991 627.852 443.421C627.534 443.851 624.568 444.648 623.027 443.421C621.486 442.194 618.404 438.677 618.986 437.75C619.569 436.818 620.568 436.679 621.634 436.733C622.7 436.787 627.651 439.99 627.651 439.99V439.985Z" fill="#171717"/>
<path d="M617.827 444.469C617.827 444.469 618.315 447.296 618.118 447.806C617.926 448.317 617.46 449.486 616.026 449.365C614.592 449.244 613.298 448.268 612.375 448.147C611.452 448.026 605.677 446.565 605.847 445.616C606.018 444.666 614.955 443.425 614.955 443.425L617.827 444.473V444.469Z" fill="#171717"/>
<path d="M616.344 405.399C616.344 405.399 617.943 416.266 619.61 422.094C619.61 422.094 619.74 425.937 620.38 427.281C621.021 428.625 621.98 431.765 622.365 434.453C622.75 437.141 623.135 439.895 623.135 439.895C623.135 439.895 623.969 441.88 628.068 440.213C628.068 440.213 627.503 432.146 627.723 429.776C627.943 427.407 627.365 422.923 625.953 420.62C625.953 420.62 625.026 404.562 625.505 401.986L616.348 405.399H616.344Z" fill="#3A3A3A"/>
<path d="M607.598 404.982C607.598 404.982 608.212 416.808 609.659 423.85C609.659 423.85 609.874 427.949 610.344 429.507C610.815 431.066 613.127 444.339 613.127 444.339C613.127 444.339 613.933 446.014 618.377 444.742C618.377 444.742 619.143 430.842 618.955 429.507C618.718 427.841 617.185 425.987 617.185 425.987C617.185 425.987 617.857 419.178 618.202 417.503C618.547 415.827 619.184 407.263 618.489 404.62L607.594 404.982H607.598Z" fill="#464646"/>
<path d="M612.305 364.439C612.305 364.439 613.411 362.038 614.549 363.05C615.687 364.063 613.192 365.828 612.305 366.052V364.439Z" fill="#FAC2B0"/>
<path d="M617.368 357.617C615.952 357.281 612.95 357.039 611.875 358.669C610.796 360.3 610.007 365.214 611.745 368.394C611.745 368.394 613.663 368.632 616.319 367.158C618.976 365.684 619.263 358.065 617.372 357.617H617.368Z" fill="#FAC2B0"/>
<path d="M612.633 367.364C612.633 367.364 613.977 369.147 613.905 372.421C613.905 372.421 616.347 370.809 619.259 370.688C619.259 370.688 618.623 368.905 619.16 365.823C619.16 365.823 615.764 365.626 612.637 367.364H612.633Z" fill="#FAC2B0"/>
<path d="M612.944 364.426C612.689 363.812 612.295 363.149 612.944 361.917C613.594 360.685 613.634 359.619 613.173 359.386C612.711 359.158 611.188 359.346 611.269 358.531C611.354 357.715 616.891 354.454 620.739 358.531C620.739 358.531 624.037 360.475 618.947 367.938C618.947 367.938 614.839 369.048 612.94 364.426H612.944Z" fill="#87574E"/>
<path d="M612.953 373.344V371.776C612.953 371.776 615.789 369.676 619.817 369.505L620.327 370.348C620.327 370.348 618.737 371.826 612.953 373.34V373.344Z" fill="#F2F2F2"/>
<path d="M617.194 371.284C614.766 372.22 611.034 374.128 608.835 376.565C606.635 379.002 610.17 390.792 609.663 393.264C609.157 395.737 607.997 398.917 607.016 406.192C607.016 406.192 611.509 409.802 619.6 407.16C619.6 407.16 622.306 406.653 626.571 402.998C626.571 402.998 624.945 395.011 625.724 390.205C626.504 385.398 629.72 373.792 624.237 370.101C624.237 370.101 621.495 369.626 617.194 371.284Z" fill="#535353"/>
<path d="M609.133 405.386C609.133 405.386 610.267 407.424 610.343 408.66C610.419 409.896 608.797 411.491 607.072 410.591C605.348 409.69 605.307 407.298 606.203 404.62L609.133 405.386Z" fill="#FAC2B0"/>
<path d="M606.508 403.11L606.203 404.62C606.203 404.62 607.014 405.516 609.133 405.386L609.657 404.096C609.657 404.096 607.426 403.814 606.508 403.11Z" fill="#F2F2F2"/>
<path d="M609.673 376.363C612.473 376.529 613.347 378.948 613.576 381.062C613.804 383.177 614.53 390.053 614.27 391.858C614.01 393.668 609.673 404.409 609.673 404.409C609.673 404.409 607.608 404.669 606.367 403.272C606.367 403.272 607.088 398.053 608.795 392.839C608.795 392.839 608.074 384.368 607.76 380.753C607.451 377.138 608.522 376.292 609.673 376.363Z" fill="#606060"/>
<path opacity="0.1" d="M582.548 310.081C590.79 310.081 597.471 307.697 597.471 304.755C597.471 301.814 590.79 299.429 582.548 299.429C574.306 299.429 567.625 301.814 567.625 304.755C567.625 307.697 574.306 310.081 582.548 310.081Z" fill="black"/>
<path d="M587.53 299.738C587.53 299.738 588.049 302.314 587.691 303.129C587.332 303.944 585.975 305.145 585.218 305.463C584.461 305.781 583.063 309.973 578.771 308.576C574.479 307.178 582.485 302.13 582.664 299.317C582.664 299.317 584.9 300.334 587.534 299.738H587.53Z" fill="#EFEFEF"/>
<path d="M579.898 294.264C579.898 294.264 579.666 297.315 579.164 298.153C578.662 298.99 576.18 300.782 576.727 301.391C577.273 302 580.723 302.063 582.466 299.752C584.213 297.44 585.494 296.137 585.449 295.546C585.409 294.959 583.769 292.835 583.769 292.835C583.769 292.835 582.403 293.991 579.898 294.264Z" fill="#EFEFEF"/>
<path d="M582.312 260.503C582.312 260.503 580.761 272.548 578.073 278.604C578.073 278.604 580.233 280.736 580.788 282.68C581.344 284.625 581.864 288.889 584.184 292.934C584.184 292.934 582.522 295.035 579.677 294.542C579.677 294.542 572.697 280.118 572.142 277.861C571.586 275.607 573.647 258.581 573.647 258.581L582.312 260.503Z" fill="#703618"/>
<path d="M588.801 261.268C588.801 261.268 589.925 265.488 589.827 269.887C589.728 274.286 587.927 282.586 587.927 282.586C587.927 282.586 588.886 285.686 588.881 288.235C588.881 290.784 588.079 292.436 587.725 295.187C587.376 297.937 587.725 299.886 587.725 299.886C587.725 299.886 585.373 301.386 582.524 299.635C582.524 299.635 582.125 285.386 581.722 282.335C581.323 279.285 578.523 264.503 578.523 260.243C578.523 260.243 582.573 261.748 588.801 261.264V261.268Z" fill="#7C3B1A"/>
<path d="M588.581 259.652L588.801 261.269C588.801 261.269 579.191 262.948 573.641 258.581L573.73 256.812C573.73 256.812 577.838 260.458 588.586 259.652H588.581Z" fill="#462B14"/>
<path d="M564.504 252.422C564.504 252.422 560.311 252.215 560.19 252.766C560.069 253.317 561.776 253.958 561.776 253.958C561.776 253.958 558.774 256.202 558.944 256.771C559.115 257.34 560.517 258.841 561.413 258.702C562.309 258.563 566.054 256.234 566.592 254.576L564.504 252.417V252.422Z" fill="#FAC2B0"/>
<path d="M565.141 251.732L564.5 252.422C564.5 252.422 564.93 254.097 566.588 254.581L567.416 253.994C567.416 253.994 566.225 253.165 565.141 251.732Z" fill="#EAEAEA"/>
<path d="M591.898 262.917C591.898 262.917 590.756 264.243 590.832 265.255C590.908 266.268 591.365 266.648 591.365 266.648C591.365 266.648 591.714 269.161 592.866 268.978C594.017 268.794 595.401 267.455 595.509 266.026C595.616 264.597 595.056 262.917 595.056 262.917H591.898Z" fill="#FAC2B0"/>
<path d="M591.812 261.873L591.898 262.921C591.898 262.921 593.076 263.504 595.056 262.921L595.15 261.873C595.15 261.873 593.596 262.191 591.812 261.873Z" fill="#EAEAEA"/>
<path d="M581.72 233.447L580.846 234.513L580.954 231.512L578.458 233.232L576.953 238.249L580.631 240.023L585.376 237.563L586.245 232.381L581.72 233.447Z" fill="#EAEAEA"/>
<path d="M575.822 231.247C574.397 231.713 572.121 237.85 570.889 244.403L564.953 251.763C564.953 251.763 565.191 253.044 567.372 254.182C567.372 254.182 574.16 248.816 574.97 246.585C575.777 244.354 577.663 236.873 578.003 234.513C578.339 232.152 577.143 230.808 575.822 231.243V231.247Z" fill="#F3F4F5"/>
<path d="M585.615 231.776C585.615 231.776 581.879 237.46 579.791 237.689C577.704 237.917 581.574 230.835 581.574 230.835C581.574 230.835 577.269 230.535 576.306 230.952C575.343 231.364 573.533 233.312 573.416 238.723C573.309 243.763 573.542 253.461 573.331 256.265C573.304 256.601 573.452 256.928 573.725 257.129C575.101 258.151 579.715 260.924 588.465 260.09C588.725 260.063 588.917 259.831 588.89 259.566C588.729 258.057 588.241 253.398 588.299 252.498C588.366 251.418 590.548 244.475 590.96 241.631C591.372 238.786 591.511 236.497 590.638 235.395C589.768 234.293 585.615 231.771 585.615 231.771V231.776Z" fill="#653B16"/>
<path d="M589.287 236.394C587.571 237.599 587.759 241.066 588.35 243.53C588.942 245.994 591.28 250.5 591.28 250.5C591.28 250.5 591.155 257.17 591.706 261.972C591.706 261.972 593.449 262.778 595.232 261.972C595.232 261.972 595.998 253.179 595.572 249.949C595.147 246.719 593.659 242.428 593.063 240.26C592.467 238.092 591.28 234.992 589.282 236.394H589.287Z" fill="#F3F4F5"/>
<path d="M578.981 259.54C579.12 259.611 579.21 259.75 579.219 259.907C579.245 260.288 579.259 261.013 579.008 261.009C578.672 261 576.983 260.547 576.643 260.279C576.302 260.01 576.414 258.966 576.589 258.818C576.737 258.688 578.363 259.222 578.977 259.54H578.981Z" fill="#F3F4F5"/>
<path d="M579.472 232.9L579.414 234.32L581.869 232.703L580.642 232.049L579.472 232.9Z" fill="#E2E2E2"/>
<path d="M581.377 231.512L579.469 232.9L579.908 234.32L581.807 232.376L581.377 231.512Z" fill="#EAEAEA"/>
<path d="M580.916 219.287C579.473 219.274 576.969 219.65 576.678 220.85C576.391 222.055 576.776 228.985 578.797 230.526C578.797 230.526 583.474 229.881 584.025 226.848C584.576 223.816 583.949 219.314 580.916 219.287Z" fill="#FAC2B0"/>
<path d="M585.14 231.1L584.929 228.533L584.773 224.613L578.008 226.831C578.008 226.831 580.965 230.387 580.848 234.517L585.145 231.1H585.14Z" fill="#FAC2B0"/>
<path d="M583.502 224.743C583.502 224.743 583.466 226.996 583.287 227.597C583.112 228.197 582.44 228.793 582.44 228.793C582.44 228.793 582.248 228.282 581.948 228.156C581.948 228.156 582.741 227.538 582.723 226.925C582.705 226.306 582.194 223.574 582.194 223.574C582.194 223.574 583.18 222.96 582.897 221.8C582.615 220.64 580.626 220.868 579.515 221.115C578.404 221.361 576.061 221.186 575.25 219.565C575.25 219.565 578.825 218.033 581.137 218.015C583.444 217.997 585.025 218.261 585.37 220.429C585.37 220.429 586.79 221.115 586.634 223.408C586.477 225.697 585.769 227.547 584.922 228.537L583.498 224.748L583.502 224.743Z" fill="#D48828"/>
<path d="M583.508 224.855C583.508 224.855 583.638 223.341 584.789 223.605C585.941 223.869 585.282 226.069 583.902 226.924L583.508 224.855Z" fill="#FAC2B0"/>
<path d="M581.717 233.447L580.844 234.513L582.47 234.06L581.717 233.447Z" fill="#EAEAEA"/>
<path d="M585.374 230.526L581.719 233.446L583.323 235.695L586.244 231.811L585.374 230.526Z" fill="#F3F4F5"/>
<path opacity="0.1" d="M209.556 174.125C217.797 174.125 224.479 171.741 224.479 168.799C224.479 165.858 217.797 163.473 209.556 163.473C201.314 163.473 194.633 165.858 194.633 168.799C194.633 171.741 201.314 174.125 209.556 174.125Z" fill="black"/>
<path d="M213.038 97.5848C213.038 97.5848 215.192 98.4135 218.185 109.899C218.185 109.899 222.159 114.625 223.758 117.46C223.758 117.46 222.419 118.974 222.159 119.919C222.159 119.919 215.864 113.487 215.04 112.147C214.216 110.808 211.837 104.501 211.505 102.624C211.174 100.747 211.349 97.1144 213.038 97.5892V97.5848Z" fill="#C3D844"/>
<path d="M223.763 117.456C223.763 117.456 227.558 117.814 227.383 118.36C227.209 118.907 225.417 118.858 225.417 118.858C225.417 118.858 227.89 120.228 227.912 120.6C227.93 120.972 226.899 122.988 225.573 122.513C224.247 122.038 222.164 119.915 222.164 119.915C222.164 119.915 222.325 118.773 223.763 117.456Z" fill="#FAC2B0"/>
<path d="M218.366 166.564C217.865 167.567 214.245 167.388 211.494 163.267L211.234 165.757H210.732V162.743C210.732 162.743 210.249 161.941 210.612 161.175C210.683 161.027 210.737 160.825 210.782 160.593C210.965 159.616 210.948 158.133 210.948 158.133H214.263C214.263 158.133 214.151 160.395 214.532 161.117C214.72 161.47 215.755 162.532 216.709 163.648C217.712 164.821 218.631 166.048 218.371 166.564H218.366Z" fill="#FAC2B0"/>
<path d="M218.366 166.564C217.865 167.567 214.245 167.388 211.494 163.267L211.234 165.758H210.732V162.743C210.732 162.743 210.249 161.941 210.612 161.175C210.683 161.027 210.737 160.826 210.782 160.593C210.782 160.593 211.646 160.978 211.991 161.533C212.336 162.089 214.137 165.399 216.091 164.714C216.552 164.548 216.722 164.154 216.709 163.648C217.712 164.821 218.631 166.049 218.371 166.564H218.366Z" fill="#66121D"/>
<path d="M215.232 120.856C215.232 120.856 216.012 128.506 215.949 132.202C215.886 135.898 215.071 141.018 215.008 142.496C214.946 143.978 214.256 158.134 214.256 158.134C214.256 158.134 212.016 159.012 210.945 158.134C210.945 158.134 209.077 147.983 209.811 141.909L209.148 121.55L215.232 120.851V120.856Z" fill="#59101A"/>
<path d="M206.78 170.022C204.746 170.891 203.586 165.758 203.586 165.758C203.676 164.651 203.801 163.634 203.801 163.634C205.024 164.082 207.009 163.634 207.009 163.634C207.009 163.634 206.579 165.435 206.726 165.937C206.758 166.044 206.955 166.461 207.21 167.048C207.676 169.529 206.78 170.022 206.78 170.022Z" fill="#FAC2B0"/>
<path d="M207.263 173.588C203.975 173.619 203.558 169.234 203.5 167.899C203.473 167.352 203.522 166.533 203.585 165.762C203.585 165.762 204.745 170.896 206.779 170.027C206.779 170.027 207.68 169.534 207.209 167.052C208.137 169.185 209.839 173.565 207.258 173.588H207.263Z" fill="#66121D"/>
<path d="M202.765 121.769C202.765 121.769 201.762 126.603 202.331 130.325C202.904 134.048 204.553 142.263 204.553 142.263C204.553 142.263 203.097 147.266 203.352 149.385C203.608 151.504 204.056 155.159 204.123 157.085C204.186 159.012 203.8 163.63 203.8 163.63C203.8 163.63 205.583 164.893 207.008 163.63C207.008 163.63 209.898 146.236 210.216 142.868C210.538 139.499 210.924 120.797 210.924 120.797L202.761 121.765L202.765 121.769Z" fill="#66121D"/>
<path d="M204.483 85.0602C204.483 85.0602 203.963 83.5327 202.628 83.5327C201.293 83.5327 199.864 85.1274 200.155 87.3716C200.447 89.6158 201.033 91.1791 200.903 92.7066C200.774 94.2341 199.277 97.7505 202.825 102.467C202.825 102.467 203.641 101.652 203.771 100.384C203.901 99.1167 203.48 95.9901 203.444 94.1356C203.412 92.2811 204.909 87.1387 204.483 85.0602Z" fill="#5C3D19"/>
<path d="M212.413 85.5662C212.413 85.5662 213.762 90.2427 211.445 94.3638C211.445 94.3638 208.78 94.8252 207.382 92.5676C205.98 90.3144 205.953 86.5293 207.382 85.2347C208.811 83.9401 212.418 85.5617 212.418 85.5617L212.413 85.5662Z" fill="#FAC2B0"/>
<path d="M205.825 93.8354L206.125 98.6687C206.125 98.6687 207.908 101.079 210.941 99.8871C210.941 99.8871 210.874 98.6015 209.884 97.4145C209.884 97.4145 209.754 94.346 210.609 93.1903L206.188 90.9282L205.82 93.8354H205.825Z" fill="#FAC2B0"/>
<path d="M206.091 98.0732C206.091 98.0732 208.985 99.8963 210.549 99.5245C210.549 99.5245 210.338 97.688 209.89 97.4147C209.89 97.4147 212.166 97.1056 212.802 97.4147C213.439 97.7238 214.823 99.6141 215.455 102.584C216.082 105.554 215.28 108.94 215.065 109.827C214.85 110.714 215.168 117.456 215.235 120.856C215.235 120.856 208.932 123.87 202.772 121.769C202.772 121.769 200.093 103.946 200.742 102.351C201.396 100.756 206.096 98.0732 206.096 98.0732H206.091Z" fill="#ADD036"/>
<path d="M200.602 122.307L203.711 109.545C203.783 109.254 204.074 109.07 204.37 109.133L212.631 110.938C212.935 111.005 213.128 111.314 213.052 111.619L209.759 124.69C209.683 124.99 209.378 125.169 209.078 125.093L201.001 122.979C200.705 122.903 200.53 122.603 200.602 122.311V122.307Z" fill="#B76A28"/>
<path d="M206.715 90.3863C206.715 90.3863 208.44 91.1971 208.758 89.5039C209.076 87.8106 208.257 86.8879 209.179 86.1756C210.102 85.4634 210.42 86.3324 212.405 85.5664C212.405 85.5664 211.137 81.9202 205.506 83.4252C199.874 84.9303 203.337 93.6249 205.824 93.8355L206.715 90.3818V90.3863Z" fill="#6B461B"/>
<path d="M207.374 90.5924C207.374 90.5924 206.536 88.6931 205.627 89.4904C204.717 90.2878 206.12 92.3797 207.374 92.5723V90.5968V90.5924Z" fill="#FAC2B0"/>
<path d="M202.337 102.978C203.815 103.901 203.757 106.405 203.474 107.619C203.192 108.828 201.405 113.827 201.754 114.553C202.104 115.278 205.764 116.13 207.444 117.339C207.444 117.339 206.817 118.714 206.785 119.919C206.785 119.919 197.87 118.105 197.144 116.17C196.418 114.235 198.636 106.329 199.281 104.635C199.926 102.942 200.916 102.095 202.337 102.982V102.978Z" fill="#C3D844"/>
<path d="M207.444 117.335C207.444 117.335 210.056 116.578 210.419 117.097C210.782 117.621 210.518 117.881 210.518 117.881C210.518 117.881 211.36 117.559 211.481 118.06C211.602 118.562 211.36 120.896 210.316 120.793C209.272 120.694 206.781 119.91 206.781 119.91C206.781 119.91 206.781 118.508 207.44 117.33L207.444 117.335Z" fill="#FAC2B0"/>
<path opacity="0.1" d="M14.9453 358.755C23.1994 358.755 29.8907 356.368 29.8907 353.424C29.8907 350.48 23.1994 348.094 14.9453 348.094C6.69126 348.094 0 350.48 0 353.424C0 356.368 6.69126 358.755 14.9453 358.755Z" fill="black"/>
<path d="M28.4009 310.256C28.3696 310.256 28.3427 310.256 28.3158 310.247L24.239 309.992L22.9219 309.907L23.3116 297.369L27.7513 297.637L29.8525 297.763C29.8525 297.763 30.5603 310.278 28.4054 310.252L28.4009 310.256Z" fill="#1C5196"/>
<path d="M28.3173 310.247L24.2405 309.992L22.9234 309.907L19.3125 309.678V297.158L23.3132 297.369L27.7573 297.602C27.7573 297.602 27.7573 297.611 27.7573 297.633C27.7484 297.7 27.7349 297.879 27.7125 298.139C27.5065 300.442 26.8121 309.396 28.3263 310.238L28.3173 310.247Z" fill="#225AA8"/>
<path d="M28.4237 310.247C28.4237 310.247 28.4058 310.251 28.3968 310.256C28.3655 310.256 28.3386 310.256 28.3117 310.247C26.7975 309.405 27.4919 300.45 27.698 298.148L29.4765 298.202C29.4765 298.202 29.9425 309.808 28.4237 310.251V310.247Z" fill="#F2F2F2"/>
<path d="M15.4577 344.506C15.4577 344.506 14.7902 346.884 15.0276 347.834C15.2651 348.784 17.6484 348.739 18.8984 348.609C18.8984 348.609 21.9493 350.674 25.2824 349.599C25.2824 349.599 26.0978 348.802 25.4347 348.331C24.7672 347.856 19.7809 345.836 19.3105 345.106L15.4622 344.51L15.4577 344.506Z" fill="#232323"/>
<path d="M22.2567 303.841C22.2567 303.841 21.7639 321.302 21.6743 324.828C21.5847 328.353 19.3089 345.106 19.3089 345.106C19.3089 345.106 17.033 345.541 15.4606 344.51C15.4606 344.51 15.2993 338.602 14.9185 336.918C14.5377 335.238 14.7572 328.568 15.353 327.103C15.353 327.103 13.1354 313.159 13.5117 304.083L22.2612 303.841H22.2567Z" fill="#383838"/>
<path d="M6.80827 348.819C6.80827 348.819 4.37562 357.147 9.73821 357.147C15.1008 357.147 11.3779 352.6 11.2525 351.538C11.1315 350.472 11.0016 348.819 11.0016 348.819H6.80827Z" fill="#232323"/>
<path d="M8.03136 303.362C8.03136 303.362 7.0144 306.488 6.656 309.763C6.2976 313.037 6.95168 328.102 6.95168 328.102C6.95168 328.102 5.81823 333.58 5.58079 336.675C5.34335 339.771 6.80384 348.824 6.80384 348.824C6.80384 348.824 8.85569 349.894 11.0016 348.824C11.0016 348.824 13.2058 331.623 12.9056 329.119C12.9056 329.119 17.6544 312.486 17.4842 304.607L8.02688 303.366L8.03136 303.362Z" fill="#464646"/>
<path d="M13.8611 276.938C12.8531 277.081 7.42336 278.895 5.38495 282.134C3.34654 285.373 8.58368 293.324 8.624 296.002C8.66432 298.681 8.2656 302.48 8.02368 303.358C8.02368 303.358 13.6999 305.794 22.2567 303.837C22.2567 303.837 24.0173 284.611 20.5364 277.735C20.5364 277.735 18.0992 276.338 13.8611 276.938Z" fill="white"/>
<path d="M16.6373 276.808C16.6373 276.808 19.4776 283.321 20.2392 288.266C21.0008 293.212 21.0994 311.515 21.0994 311.515C21.0994 311.515 21.7714 311.564 22.4434 311.035C22.4434 311.035 24.3474 281.14 20.5349 277.74C20.5349 277.74 18.8952 276.741 16.6328 276.808H16.6373Z" fill="#383838"/>
<path d="M14.3304 265.995C16.7765 266.048 18.9 266.451 19.5855 267.441C20.2709 268.431 20.3471 275.97 18.8239 276.199C17.3007 276.427 13.5688 277.399 12.4264 270.286C12.4264 270.286 12.0725 265.945 14.3304 265.99V265.995Z" fill="#FAC2B0"/>
<path d="M11.4844 277.439L11.7801 271.182L18.1238 272.843L16.4751 279.227C16.4751 279.227 12.6089 280.691 11.4844 277.435V277.439Z" fill="#FAC2B0"/>
<path d="M11.4844 277.439C11.4844 277.439 14.7279 281.431 15.6239 287.285C16.52 293.135 16.5558 303.944 15.2297 312.917C15.2297 312.917 8.11992 313.633 5.39158 310.834C5.39158 310.834 5.80823 305.046 7.77943 302.13C8.91736 300.446 5.36918 287.617 4.94806 283.5C4.52694 279.384 11.4844 277.439 11.4844 277.439Z" fill="#383838"/>
<path d="M12.8729 271.836C12.8729 271.836 13.3299 271.576 13.5091 271.002C13.6883 270.429 13.6569 268.566 14.3244 268.288C14.9964 268.01 18.2803 268.516 19.1808 267.979C20.0813 267.441 21.0266 265.085 19.1808 264.677C17.335 264.27 17.3171 264.955 15.8297 264.677C14.3424 264.4 11.6454 264.561 10.8121 265.806C9.97882 267.047 8.31226 270.447 11.6275 274.814C11.6275 274.814 12.8057 272.835 12.8684 271.84L12.8729 271.836Z" fill="#5F3D37"/>
<path d="M13.3183 271.818C13.3183 271.818 12.4044 270.075 11.5039 271.186C10.6034 272.293 12.6642 273.977 13.5961 273.78L13.3183 271.818Z" fill="#FAC2B0"/>
<path d="M18.7533 300.334C18.7533 300.334 22.9242 299.684 23.2826 300.159C23.641 300.634 22.1357 301.256 22.1357 301.256C22.1357 301.256 23.8291 303.259 24.3309 303.451C24.8327 303.644 25.9751 303.689 25.8586 304.168C25.7376 304.643 20.944 305.216 20.16 304.885C19.3715 304.549 17.4854 303.218 17.4854 303.218C17.4854 303.218 17.4003 301.749 18.7578 300.334H18.7533Z" fill="#FAC2B0"/>
<path d="M6.38536 282.255C8.28489 282.443 9.53033 284.257 9.64233 285.968C9.75433 287.679 10.8788 295.223 10.8788 295.223L18.7457 300.338C18.7457 300.338 17.4376 301.902 17.4734 303.223C17.4734 303.223 8.43273 300.24 7.30824 298.775C6.18376 297.31 4.47239 289.149 4.32455 287.097C4.17671 285.045 4.42311 282.062 6.3764 282.259L6.38536 282.255Z" fill="#454545"/>
<path opacity="0.1" d="M144.722 433.221C151.93 433.221 157.772 431.138 157.772 428.567C157.772 425.997 151.93 423.913 144.722 423.913C137.515 423.913 131.672 425.997 131.672 428.567C131.672 431.138 137.515 433.221 144.722 433.221Z" fill="black"/>
<path d="M151.3 423.133C151.121 423.81 150.897 424.365 150.641 424.45C149.924 424.688 149.235 425.06 147.537 423.895C145.839 422.726 145.731 420.231 145.386 419.304C145.216 418.847 144.947 418.578 144.723 418.43C144.602 416.302 144.41 413.677 144.141 412.652C143.661 410.815 142.143 401.816 142.143 401.816L136.789 396.664L143.384 394.353C143.384 394.353 145.991 397.287 146.551 398.582C147.116 399.872 147.676 414.748 148.137 416.638C148.379 417.624 150.063 420.473 151.304 423.133H151.3Z" fill="#EEB9A7"/>
<path d="M152.12 428.392C149.871 429.517 146.497 426.215 144.862 421.503C144.862 421.503 144.813 420.123 144.719 418.43C144.947 418.578 145.212 418.847 145.382 419.304C145.727 420.231 145.834 422.726 147.532 423.895C149.23 425.064 149.92 424.692 150.637 424.451C150.892 424.365 151.116 423.81 151.295 423.134C152.433 425.575 153.19 427.855 152.115 428.392H152.12Z" fill="#224D94"/>
<path d="M120.856 384.664C120.856 384.664 119.812 388.718 120.618 391.383C121.425 394.049 121.823 396.978 135.595 403.222C135.595 403.222 134.52 397.081 143.771 394.631C143.771 394.631 135.738 385.524 134.215 383.943L120.856 384.664Z" fill="#2656A5"/>
<path d="M147.368 427.389C147.225 428.133 146.325 428.41 146.325 428.41C142.136 429.794 140.554 421.758 140.554 421.758C140.554 421.758 140.783 418.968 140.554 417.695C140.326 416.423 138.346 411.276 137.925 409.655C137.503 408.033 137.633 404.136 137.633 404.136L135.304 403.092C134.793 398.9 138.09 396.673 138.09 396.673C138.09 396.673 142.082 399.755 142.893 401.251C143.704 402.743 143.672 414.752 143.775 416.54C143.879 418.318 144.479 423.443 147.368 427.393V427.389Z" fill="#FAC2B0"/>
<path d="M148.409 431.752C142.661 432.594 141.72 427.143 141.72 427.143V429.512C141.138 429.741 140.878 429.32 140.878 429.32C141.008 428.41 140.099 425.163 140.126 423.801C140.152 422.439 140.551 421.758 140.551 421.758C140.551 421.758 142.128 429.794 146.321 428.41C146.321 428.41 147.222 428.133 147.365 427.389C147.379 427.407 147.388 427.42 147.401 427.438C150.322 431.398 148.409 431.756 148.409 431.756V431.752Z" fill="#224D94"/>
<path d="M131.601 393.56L138.304 398.187C138.38 398.241 138.483 398.246 138.563 398.196L148.643 392.015C148.791 391.925 148.796 391.715 148.657 391.616L141.825 386.796C141.744 386.738 141.641 386.738 141.556 386.792L131.61 393.162C131.467 393.256 131.463 393.462 131.601 393.56Z" fill="#7D7D7D"/>
<path d="M128.045 354.441C128.045 354.441 127.341 352.726 125.204 353.277C123.067 353.828 122.602 357.496 122.602 358.307C122.602 360.318 123.377 361.572 123.377 362.545C123.377 363.517 122.942 366.133 122.942 366.133C122.942 366.133 125.146 366.813 126.898 366.003C128.65 365.192 128.045 354.441 128.045 354.441Z" fill="#513718"/>
<path d="M137.008 378.706C137.008 378.706 140.722 383.531 141.416 386.155C141.416 386.155 143.8 387.06 143.992 387.687C144.185 388.319 144.131 389.219 144.131 389.219C143.831 389.273 142.899 388.892 142.626 388.727C142.353 388.561 140.355 388.315 140.355 388.4C140.355 388.485 140.493 390.097 140.162 390.124C139.835 390.151 139.123 388.673 139.176 388.288C139.23 387.902 139.257 386.809 139.096 386.536C138.934 386.263 134.916 381.524 134.831 380.865C134.741 380.207 134.414 379.114 134.414 379.114L137.017 378.702L137.008 378.706Z" fill="#FAC2B0"/>
<path d="M133.369 364.726C133.369 364.726 135.511 365.407 136.098 368.632C136.689 371.857 137.728 378.308 137.728 378.308C137.728 378.308 136.989 380.221 134.332 379.853C134.332 379.853 132.451 371.15 132.048 368.767C131.644 366.379 132.11 364.287 133.365 364.726H133.369Z" fill="#ED6DA8"/>
<path d="M124.399 364.26C124.399 364.26 119.762 366.764 119.48 369.053C119.197 371.342 121.267 380.624 120.86 384.664C120.86 384.664 129.045 389.995 134.219 383.943C134.219 383.943 133.529 378.675 134.219 377.389C134.909 376.104 136.795 375.038 135.836 371.996C134.877 368.955 133.78 365.286 133.372 364.722C132.965 364.157 128.632 362.943 124.403 364.256L124.399 364.26Z" fill="#EE559D"/>
<path d="M125.854 362.773C125.854 362.773 125.474 363.611 124.398 364.26C124.398 364.26 125.474 368.471 129.013 368.328C132.552 368.184 128.565 359.284 128.565 359.284L125.859 362.773H125.854Z" fill="#FAC2B0"/>
<path d="M126.665 357.613L125.68 356.157C125.68 356.157 126.181 354.101 128.05 354.441L129.255 355.606C129.255 355.606 127.637 356.126 126.665 357.613Z" fill="#CE4989"/>
<path d="M135.443 360.609C135.605 361.595 135.766 362.742 135.192 363.96C134.619 365.178 133.266 368.319 131.958 368.162C130.65 368.001 128.047 366.827 128.047 365.129C128.047 363.431 128.929 359.924 129.225 359.902C129.525 359.879 133.678 359.351 134.113 359.696C134.547 360.041 135.443 360.614 135.443 360.614V360.609Z" fill="#FAC2B0"/>
<path d="M128.565 363.871C128.565 363.871 129.269 364.426 130.769 364.09C132.27 363.754 132.817 362.392 133.802 361.971C134.784 361.55 135.182 361.747 135.581 361.604C135.98 361.465 135.908 359.346 135.415 358.419C134.922 357.492 132.302 354.674 129.591 355.136C126.885 355.597 125.886 358.195 125.931 359.642C125.971 361.084 125.859 362.769 125.859 362.769C125.859 362.769 126.729 364.184 128.565 363.871Z" fill="#6B461B"/>
<path d="M128.56 363.871C128.56 363.871 128.489 362.124 127.342 362.406C126.195 362.688 127.552 364.82 128.269 364.887L128.565 363.871H128.56Z" fill="#FAC2B0"/>
<path d="M121.939 382.263L121.764 384.382C121.764 384.382 123.928 385.565 131.482 391.141C131.482 391.141 133.471 391.209 134.662 391.007C135.854 390.805 138.614 391.706 138.699 391.993C138.784 392.284 136.522 391.876 136.522 391.876C136.522 391.876 137.771 392.978 137.655 393.417C137.539 393.851 136.831 394.868 136.096 394.577C135.361 394.286 134.927 393.502 134.635 393.592C134.344 393.677 132.575 394.9 130.236 393.507C130.236 393.507 118.395 387.32 118.194 385.865C117.992 384.413 117.992 381.157 117.992 381.157C117.992 381.157 120.053 382.523 121.944 382.259L121.939 382.263Z" fill="#FAC2B0"/>
<path d="M121.71 368.453C123.461 369.349 123.784 371.714 123.587 373.922C123.39 376.131 122.135 382.541 122.135 382.541C122.135 382.541 118.722 383.32 117.602 381.358C117.602 381.358 118.695 372.251 118.941 370.195C119.187 368.144 120.617 367.897 121.71 368.453Z" fill="#ED6DA8"/>
<path d="M138.508 398.232L143.046 388.368L153.825 382.433L148.646 392.019L138.508 398.232Z" fill="#919190"/>
<path d="M71.1622 203.671C71.1622 203.671 70.7948 205.992 71.5295 207.152C72.2687 208.312 72.7929 207.837 73.7964 209.235C74.7999 210.632 77.4566 214.046 79.28 212.554C81.6588 210.615 77.8195 207.071 75.9468 205.015C74.0742 202.959 74.7954 200.298 74.7954 200.298L71.1577 203.671H71.1622Z" fill="#543116"/>
<path d="M63.1295 165.601C63.0668 169.206 64.5765 179.339 67.6812 185.933C67.6812 185.933 67.5961 190.345 68.1829 192.692C68.7698 195.039 70.8665 204.097 70.8665 204.097C70.8665 204.097 72.9631 204.769 75.1449 203.174C75.1449 203.174 74.1369 187.993 74.1369 184.553C74.1369 181.113 72.4614 164.508 71.3682 162.075L63.125 165.596L63.1295 165.601Z" fill="#38546E"/>
<path d="M54.0852 206.637C54.0852 206.637 53.6372 208.693 53.8433 209.79C54.0493 210.888 55.6263 215.242 56.7239 215.963C57.8215 216.684 60.9083 216.648 60.7738 214.624C60.635 212.599 58.2023 210.095 58.3726 206.632H54.0852V206.637Z" fill="#543116"/>
<path d="M56.9428 165.036C56.9428 165.036 55.3344 167.128 55.1418 170.68C54.9492 174.233 55.1418 185.575 55.1418 185.575C55.1418 185.575 53.7799 188.984 53.632 191.174C53.4842 193.364 54.5101 203.828 53.632 206.991C53.632 206.991 56.4052 208.259 58.5959 206.991C58.5959 206.991 61.275 190.247 62.2471 186.986C63.2193 183.725 67.65 172.822 67.1617 164.302L56.9383 165.032L56.9428 165.036Z" fill="#3F5D7A"/>
<path d="M67.8768 137.367C69.4672 137.806 78.3914 143.011 78.3914 143.011L83.857 136.39C83.857 136.39 84.8516 138.106 86.3748 138.222C86.3748 138.222 82.1994 147.616 80.0445 147.88C77.8896 148.144 70.6992 146.72 68.4144 144.104C66.1296 141.488 66.5059 136.986 67.8723 137.367H67.8768Z" fill="#EE4781"/>
<path d="M83.8672 136.39C83.8672 136.39 83.8896 134.079 84.1002 133.443C84.3107 132.807 85.8518 130.603 86.04 130.948C86.2237 131.293 85.8026 133.152 85.8026 133.152C85.8026 133.152 86.8643 132.489 87.048 131.88C87.2317 131.27 87.1018 129.94 87.6842 130.021C88.2666 130.101 89.8883 131.584 89.8883 132.516C89.8883 133.447 87.9306 137.94 86.3894 138.227C86.3894 138.227 84.5392 138.039 83.8717 136.395L83.8672 136.39Z" fill="#FAC2B0"/>
<path opacity="0.1" d="M66.7813 217.334C75.0354 217.334 81.7266 214.947 81.7266 212.003C81.7266 209.059 75.0354 206.673 66.7813 206.673C58.5272 206.673 51.8359 209.059 51.8359 212.003C51.8359 214.947 58.5272 217.334 66.7813 217.334Z" fill="black"/>
<path d="M59.582 138.321C58.0992 138.979 56.9254 139.463 56.9254 139.463C56.9254 139.463 53.6281 142.307 51.6524 143.091C51.3746 143.203 51.173 143.45 51.1327 143.75C51.0028 144.753 50.9087 147.092 52.2393 149.519C54.0044 152.74 57.1091 160.122 56.2444 164.44C55.3798 168.759 70.4998 166.169 71.9514 162.478C71.9514 162.478 70.2221 155.334 70.4595 153.408C70.697 151.486 69.7114 138.724 68.103 137.505C66.4947 136.287 59.582 138.325 59.582 138.325V138.321Z" fill="#ED3174"/>
<path d="M53.1168 144.511C54.3041 146.052 53.4797 148.794 51.6743 150.424C49.8688 152.055 44.1031 156.588 43.2205 156.369C42.3379 156.149 35.7344 146.2 35.7344 146.2C35.7344 146.2 37.5398 145.143 37.7593 144.086L43.9238 150.689C43.9238 150.689 48.1799 145.833 49.7344 144.35C52.1268 142.066 53.1124 144.511 53.1124 144.511H53.1168Z" fill="#EE4781"/>
<path d="M37.7605 144.086C37.7605 144.086 38.0652 140.14 37.5993 139.956C37.1333 139.772 36.4613 142.021 36.4613 142.021C36.4613 142.021 35.7266 140.117 35.7356 139.266C35.749 138.411 35.4444 137.358 34.3871 137.824C33.3298 138.29 32.5592 139.531 32.9445 141.806C33.3298 144.082 35.7356 146.2 35.7356 146.2C35.7356 146.2 37.2319 145.537 37.7605 144.086Z" fill="#FAC2B0"/>
<path d="M62.4609 140.493C62.4609 140.493 63.451 140.717 63.787 141.403C63.787 141.403 64.0379 139.472 62.6984 138.755C62.6984 138.755 62.564 139.275 62.4609 140.498V140.493Z" fill="#EE4781"/>
<path d="M61.852 140.542L62.4658 140.493C62.6091 140.529 62.7839 140.583 62.9765 140.677C63.1826 140.775 63.3394 140.887 63.4603 140.986V142.065L61.852 142.616L61.0859 142.173C61.0859 142.173 61.2114 140.892 61.852 140.542Z" fill="#3657A6"/>
<path d="M61.8516 142.617C61.8516 142.617 63.4285 147.616 63.1284 150.904C62.8282 154.192 62.9716 159.585 62.9716 159.585L64.8756 161.489L65.8567 158.98C65.8567 158.98 64.5665 153.762 64.7501 150.877C64.9338 147.992 63.9796 143.029 63.4599 142.066L61.8516 142.617Z" fill="#3657A6"/>
<path d="M65.0169 131.543C64.9855 133.295 64.2284 136.525 63.9148 137.788C63.8386 138.101 63.5564 138.321 63.2338 138.316C62.629 138.307 61.8719 138.254 61.0252 138.097C59.6274 137.842 58.4895 137.631 57.5039 136.856C57.0514 136.498 56.702 136.081 56.4332 135.642C55.4879 134.101 55.5282 132.318 55.5327 132.175C55.5999 130.356 56.5228 127.252 59.1839 126.795C61.5852 126.383 63.2159 127.431 64.2239 128.824C64.4524 129.142 64.6271 129.478 64.7481 129.828C64.9497 130.388 65.0258 130.975 65.0169 131.543Z" fill="#FAC2B0"/>
<path d="M64.7447 129.828C64.355 130.433 63.7502 131.1 62.899 131.311C61.2414 131.723 58.8221 129.882 58.2039 130.827C57.5812 131.772 58.3204 133.774 58.2039 134.142C58.0874 134.509 57.4199 134.719 57.4199 134.719L56.4253 135.642C55.4801 134.101 55.5204 132.318 55.5249 132.175C55.5921 130.356 56.5149 127.252 59.1761 126.795C61.5774 126.383 63.2081 127.431 64.2161 128.824C64.4446 129.142 64.6193 129.478 64.7403 129.828H64.7447Z" fill="#444344"/>
<path d="M57.9826 134.751C57.9826 134.751 57.2837 133.653 56.325 133.971C55.3663 134.289 55.9263 136.247 57.884 136.39L57.9826 134.751Z" fill="#FAC2B0"/>
<path d="M62.4621 140.493C62.4621 140.493 62.6144 138.218 63.1252 137.613L57.3594 135.906V138.321C57.3594 138.321 59.8458 140.928 62.4621 140.493Z" fill="#FAC2B0"/>
<path d="M57.3644 138.321C57.3644 138.321 56.8134 138.854 56.5625 139.696C56.5625 139.696 58.1977 142.124 61.038 142.715C61.038 142.715 61.0604 141.161 61.8534 140.543C61.0112 140.48 60.3616 140.269 59.9449 140.099C59.2639 139.821 58.7891 139.485 58.4441 139.239C57.9737 138.903 57.6153 138.572 57.3644 138.321Z" fill="#EE4781"/>
<path opacity="0.1" d="M641.664 225.626C649.918 225.626 656.609 223.239 656.609 220.295C656.609 217.351 649.918 214.965 641.664 214.965C633.41 214.965 626.719 217.351 626.719 220.295C626.719 223.239 633.41 225.626 641.664 225.626Z" fill="black"/>
<path d="M622.398 166.322C623.841 167.38 624.047 168.885 624.047 168.885C624.047 168.885 630.915 166.963 633.021 164.584C635.126 162.201 640.278 151.625 641.089 149.932C641.895 148.239 640.731 146.725 640.731 146.725C639.933 146.407 638.195 145.811 637.371 147.41C636.542 149.009 631.735 159.635 630.96 160.553C630.18 161.467 622.398 166.318 622.398 166.318V166.322Z" fill="#009498"/>
<path d="M616.445 169.301C616.49 169.713 618.367 171.469 619.286 171.254C620.204 171.039 623.362 169.803 624.052 168.889C624.052 168.889 623.842 167.384 622.404 166.327C622.404 166.327 618.466 164.544 618.103 165.09C617.736 165.641 619.841 166.923 619.841 166.923C619.841 166.923 616.409 168.893 616.454 169.306L616.445 169.301Z" fill="#FAC2B0"/>
<path d="M636.192 212.353C636.828 212.716 637.63 213.11 638.441 213.325C639.543 213.616 640.327 213.146 640.762 212.743C640.757 212.689 640.753 212.635 640.748 212.577C640.555 210.176 642.675 203.26 643.011 201.419C643.347 199.578 641.559 197.625 642.285 194.279C643.011 190.932 643.011 181.951 643.011 181.951C643.011 181.951 644.74 192.437 644.964 194.726C645.188 197.015 649.202 214.584 648.642 216.483C648.552 216.779 648.418 217.061 648.248 217.321C650.954 218.494 652.719 217.666 653.588 216.989C653.557 216.828 653.525 216.658 653.498 216.483C653.162 214.252 654 203.708 654.22 201.141C654.444 198.579 652.101 195.228 651.733 193.723C651.366 192.218 651.54 185.078 652.1 181.785C652.656 178.493 651.236 175.693 651.236 175.693L636.976 172.916C636.223 175.29 636.42 193.835 636.438 195.676C636.456 197.517 636.42 209.903 636.438 211.408C636.438 211.775 636.358 212.084 636.188 212.353H636.192Z" fill="#5A1F0C"/>
<path d="M643.177 223.852C646.971 224.909 649.426 222.566 650.372 221.733C651.321 220.895 652.325 221.957 653.606 220.895C654.793 219.919 653.983 218.897 653.588 216.994C652.715 217.67 650.954 218.499 648.248 217.325C647.348 218.727 645.52 219.56 645.52 219.56C643.737 221.177 639.387 222.795 643.177 223.856V223.852Z" fill="#492C88"/>
<path d="M628.948 217.993C631.403 218.66 634.082 216.819 635.309 216.711C636.537 216.599 638.88 217.267 640.054 216.541C641.196 215.838 640.958 215.018 640.766 212.747C640.331 213.15 639.552 213.621 638.445 213.329C637.634 213.114 636.832 212.72 636.196 212.357C635.681 213.204 634.364 213.719 632.464 214.646C629.956 215.874 626.497 217.325 628.948 217.993Z" fill="#492C88"/>
<path d="M650.979 173.982L651.221 175.711C651.221 175.711 646.763 177.583 640.984 175.491C640.984 175.491 638.65 174.605 636.961 172.934L637.131 171.254L650.974 173.982H650.979Z" fill="#29120D"/>
<path d="M640.728 173.866C640.728 173.866 640.692 175.348 640.284 175.33C639.872 175.317 638.577 174.546 638.533 174.354C638.483 174.161 638.367 172.719 638.609 172.719C638.851 172.719 640.549 173.646 640.732 173.861L640.728 173.866Z" fill="#EAEAE9"/>
<path d="M625.946 172.464C626.125 172.817 629.207 171.541 629.207 171.541C629.207 171.541 630.941 173.418 632.074 173.1C633.212 172.782 635.018 171.33 635.018 171.33C635.08 169.74 633.709 168.817 633.709 168.817C633.709 168.817 630.166 168.499 628.822 169.597C627.478 170.699 625.775 172.114 625.95 172.464H625.946Z" fill="#FAC2B0"/>
<path d="M646.077 145.434C644.899 144.924 639.151 145.882 638.918 146.227C638.685 146.572 636.512 148.767 636.436 151.638C636.36 154.505 636.615 155.903 636.696 159.778C636.772 163.652 636.284 170.322 636.539 170.994C636.799 171.666 642.094 176.007 647.242 175.156C652.385 174.304 651.767 174.381 651.713 173.4C651.659 172.419 651.301 163.37 651.892 161.771C652.483 160.172 654.759 153.735 653.626 151.849C652.488 149.963 650.315 147.275 646.077 145.439V145.434Z" fill="#01767A"/>
<path d="M633.7 168.817C633.7 168.817 635.071 169.74 635.008 171.33C635.008 171.33 643.381 169.099 645.5 167.469C647.619 165.838 652.283 159.392 653.941 156.49C655.594 153.587 653.793 152.234 653.793 152.234C652.476 151.455 651.02 151.849 650.137 153.193C649.25 154.537 644.183 162.188 643.014 163.361C641.849 164.53 633.695 168.817 633.695 168.817H633.7Z" fill="#009498"/>
<path d="M643.744 136.283C641.37 137.013 640.407 137.372 639.968 139.334C639.533 141.296 640.259 146.232 641.854 146.232C643.449 146.232 645.993 145.435 646.5 141.587C647.006 137.739 645.209 135.835 643.74 136.288L643.744 136.283Z" fill="#FAC2B0"/>
<path d="M647.606 143.155L647.674 146.134C647.674 146.134 646.63 148.194 644.322 148.037C644.322 148.037 643.095 147.777 642.956 146.393L642.754 143.244L642.445 139.141L648.13 139.786L647.602 143.155H647.606Z" fill="#FAC2B0"/>
<path d="M646.034 141.224C646.034 141.224 644.484 140.579 644.26 138.765C644.26 138.765 639.449 138.263 639.368 136.892C639.288 135.522 644.099 133.085 646.236 133.631C648.373 134.178 650.205 136.471 649.197 140.597C649.197 140.597 648.875 142.066 647.607 143.155C647.607 143.155 646.72 142.751 646.034 141.224Z" fill="#A95D26"/>
<path d="M647.255 140.35C647.13 139.817 646.292 140.238 645.508 141.363L645.759 142.299C645.759 142.299 647.658 142.061 647.255 140.35Z" fill="#FAC2B0"/>
<defs>
<linearGradient id="paint0_linear_831_3423" x1="351.266" y1="191" x2="318.891" y2="261.612" gradientUnits="userSpaceOnUse">
<stop stop-color="white"/>
<stop offset="1" stop-color="#F2F2F1"/>
</linearGradient>
</defs>
</svg>
