<svg width="61" height="35" viewBox="0 0 61 35" fill="none" xmlns="http://www.w3.org/2000/svg">
<path d="M11.2104 23.5012C10.4581 22.6893 9.86217 21.7359 9.43014 20.6483C8.99811 19.5608 8.78209 18.4212 8.78209 17.2517C8.78209 16.0822 8.99811 14.9128 9.43014 13.8327C9.86217 12.7527 10.4581 11.8141 11.2104 11.0022C11.9627 10.1903 12.8715 9.54223 13.9143 9.05061C14.9646 8.559 16.1042 8.31319 17.3333 8.31319C18.2644 8.31319 19.1433 8.45471 19.9701 8.73777L24.6182 1.63909C24.432 1.54971 24.2606 1.45287 24.067 1.37094C21.9515 0.462187 19.7094 0.0078125 17.3333 0.0078125C14.9571 0.0078125 12.6778 0.462187 10.5772 1.37094C8.4767 2.27969 6.6443 3.50873 5.08006 5.06552C3.51582 6.61487 2.27187 8.43981 1.36312 10.5404C0.454375 12.6409 0 14.8755 0 17.2517C0 19.6279 0.454375 21.8699 1.36312 23.963C2.27187 26.0636 3.50837 27.8885 5.08006 29.4379C6.48043 30.8308 8.11171 31.9407 9.9441 32.8047L13.7206 25.3485C12.7523 24.8718 11.9106 24.261 11.2104 23.5012Z" fill="#DA2811"/>
<path d="M33.3046 10.5326C32.3959 8.43207 31.1594 6.60712 29.5877 5.05778C28.165 3.64251 26.4965 2.5103 24.6194 1.63135L19.9714 8.73002C20.2395 8.81941 20.5002 8.92369 20.7535 9.04287C21.8037 9.53449 22.705 10.1825 23.4574 10.9944C24.2097 11.8064 24.8056 12.7524 25.2376 13.825C25.6697 14.905 25.8857 16.0447 25.8857 17.244C25.8857 18.4432 25.6697 19.5531 25.2376 20.6406C24.8056 21.7281 24.2097 22.6816 23.4574 23.4935C22.705 24.3054 21.7963 24.9534 20.7535 25.4451C19.7032 25.9367 18.5635 26.1825 17.3345 26.1825C16.1054 26.1825 14.9658 25.9367 13.9155 25.4451C13.8485 25.4153 13.7889 25.378 13.7218 25.3408L9.94531 32.797C10.1613 32.9013 10.3624 33.013 10.5785 33.1024C12.679 33.9962 14.9285 34.4432 17.3345 34.4432C19.7404 34.4432 21.9602 33.9962 24.0682 33.1024C26.1762 32.2085 28.016 30.9869 29.5877 29.4301C31.1519 27.8734 32.3959 26.0484 33.3046 23.9553C34.2134 21.8547 34.6678 19.6201 34.6678 17.244C34.6678 14.8678 34.2134 12.6257 33.3046 10.5326Z" fill="#E73215"/>
<path d="M13.9221 25.4524C12.8718 24.9608 11.9705 24.3128 11.2182 23.5009C10.4659 22.6889 9.86998 21.7355 9.43795 20.648C9.00592 19.5605 8.78991 18.4208 8.78991 17.2513C8.78991 16.0819 9.00592 14.9124 9.43795 13.8324C9.86998 12.7523 10.4659 11.8137 11.2182 11.0018C11.9705 10.1899 12.8793 9.54187 13.9221 9.05025C14.9202 8.58843 15.9929 8.35007 17.1549 8.32772V0C14.8234 0.0223463 12.6335 0.476721 10.5851 1.35568C8.48451 2.26442 6.65211 3.49347 5.08787 5.05026C3.52363 6.59961 2.27969 8.42455 1.37094 10.5251C0.462187 12.6257 0.0078125 14.8603 0.0078125 17.2364C0.0078125 19.6126 0.462187 21.8547 1.37094 23.9478C2.27969 26.0483 3.51618 27.8733 5.08787 29.4226C6.65211 30.972 8.48451 32.201 10.5851 33.0949C10.9649 33.2587 11.3597 33.4077 11.7471 33.5418C14.3988 34.4431 17.1474 32.417 17.1474 29.6163C17.1474 27.8956 16.1418 26.2792 14.5255 25.6908C14.3169 25.6163 14.1158 25.5344 13.9221 25.4375V25.4524Z" fill="url(#paint0_linear_831_6553)"/>
<path d="M33.3044 10.5328C32.3957 8.4322 31.1592 6.60726 29.5875 5.05791C28.0233 3.50857 26.6676 2.52533 24.068 1.36332C23.5615 1.13986 23.0549 0.946194 22.5633 0.78977C19.8818 -0.0742871 17.1406 1.95923 17.1406 4.77486C17.1406 6.54022 18.2356 8.16405 19.919 8.70781C20.1946 8.79719 20.4777 8.90893 20.7533 9.03555C21.7961 9.54207 22.7049 10.1752 23.4572 10.9871C24.2095 11.799 24.8054 12.745 25.2374 13.8177C25.6695 14.8977 25.8855 16.0374 25.8855 17.2366C25.8855 18.4359 25.6695 19.5458 25.2374 20.6333C24.8054 21.7208 24.2095 22.6742 23.4572 23.4862C22.7049 24.2981 21.7961 24.9461 20.7533 25.4377C19.703 25.9294 18.5633 26.1752 17.3343 26.1752C17.2673 26.1752 17.2077 26.1677 17.1481 26.1677V34.4358C17.1481 34.4358 17.1481 34.4358 17.1555 34.4433C19.5987 34.4656 21.9078 34.0187 24.0754 33.1025C26.1834 32.2087 28.0233 30.9871 29.595 29.4303C31.1592 27.8735 32.4031 26.0485 33.3119 23.9554C34.2206 21.8549 34.675 19.6203 34.675 17.2441C34.675 14.8679 34.2206 12.6259 33.3119 10.5328H33.3044Z" fill="url(#paint1_linear_831_6553)"/>
<path d="M48.7974 10.9431C49.5497 11.755 50.1456 12.7085 50.5777 13.796C51.0097 14.8835 51.2257 16.0232 51.2257 17.1926C51.2257 18.3621 51.0097 19.5315 50.5777 20.6116C50.1456 21.6917 49.5497 22.6302 48.7974 23.4421C48.0451 24.2541 47.1363 24.9021 46.0935 25.3937C45.0432 25.8853 43.9036 26.1311 42.6745 26.1311C41.7434 26.1311 40.8645 25.9896 40.0377 25.7066L35.3896 32.8052C35.5759 32.8946 35.7472 32.9915 35.9409 33.0734C38.0563 33.9821 40.2984 34.4365 42.6745 34.4365C45.0507 34.4365 47.33 33.9821 49.4306 33.0734C51.5311 32.1646 53.3635 30.9356 54.9278 29.3788C56.492 27.8295 57.7359 26.0045 58.6447 23.904C59.5534 21.8034 60.0078 19.5688 60.0078 17.1926C60.0078 14.8165 59.5534 12.5744 58.6447 10.4813C57.7359 8.38074 56.4994 6.55579 54.9278 5.00645C53.5274 3.61353 51.8961 2.50366 50.0637 1.63961L46.2872 9.09582C47.2555 9.57254 48.0972 10.1833 48.7974 10.9431Z" fill="#DA2811"/>
<path d="M26.7032 23.9117C27.6119 26.0123 28.8484 27.8372 30.4201 29.3866C31.8428 30.8018 33.5113 31.934 35.3884 32.813L40.0365 25.7143C39.7683 25.6249 39.5076 25.5206 39.2543 25.4015C38.2041 24.9098 37.3028 24.2618 36.5504 23.4499C35.7981 22.638 35.2022 21.692 34.7702 20.6194C34.3382 19.5393 34.1221 18.3996 34.1221 17.2004C34.1221 16.0011 34.3382 14.8913 34.7702 13.8037C35.2022 12.7162 35.7981 11.7628 36.5504 10.9509C37.3028 10.1389 38.2115 9.4909 39.2543 8.99928C40.3046 8.50766 41.4443 8.26185 42.6733 8.26185C43.9024 8.26185 45.042 8.50766 46.0923 8.99928C46.1593 9.02908 46.2189 9.06632 46.286 9.10356L50.0625 1.64735C49.8465 1.54307 49.6454 1.43134 49.4294 1.34195C47.3288 0.448097 45.0793 0.00117068 42.6733 0.00117047C40.2674 0.00117026 38.0476 0.448096 35.9396 1.34195C33.8316 2.2358 31.9918 3.4574 30.4201 5.01419C28.8559 6.57098 27.6119 8.39593 26.7032 10.489C25.7944 12.5896 25.34 14.8242 25.34 17.2004C25.34 19.5765 25.7944 21.8186 26.7032 23.9117Z" fill="#E73215"/>
<path d="M46.0857 8.99166C47.136 9.48328 48.0373 10.1313 48.7896 10.9432C49.5419 11.7552 50.1378 12.7086 50.5699 13.7961C51.0019 14.8836 51.2179 16.0233 51.2179 17.1928C51.2179 18.3622 51.0019 19.5317 50.5699 20.6117C50.1378 21.6918 49.5419 22.6303 48.7896 23.4423C48.0373 24.2542 47.1285 24.9022 46.0857 25.3938C45.0876 25.8557 44.0149 26.094 42.8529 26.1164L42.8529 34.4441C45.1844 34.4217 47.3743 33.9674 49.4228 33.0884C51.5233 32.1797 53.3557 30.9506 54.9199 29.3938C56.4842 27.8445 57.7281 26.0195 58.6369 23.919C59.5456 21.8184 60 19.5838 60 17.2076C60 14.8315 59.5456 12.5894 58.6369 10.4963C57.7281 8.39576 56.4916 6.57081 54.9199 5.02147C53.3557 3.47213 51.5233 2.24308 49.4228 1.34923C49.0429 1.18536 48.6481 1.03638 48.2607 0.902305C45.609 0.00100201 42.8604 2.02707 42.8604 4.8278C42.8604 6.54847 43.866 8.16485 45.4824 8.7533C45.6909 8.82779 45.892 8.90972 46.0857 9.00656L46.0857 8.99166Z" fill="url(#paint2_linear_831_6553)"/>
<path d="M26.7034 23.9116C27.6121 26.0121 28.8486 27.8371 30.4203 29.3864C31.9845 30.9358 33.3402 31.919 35.9398 33.081C36.4464 33.3045 36.9529 33.4981 37.4445 33.6546C40.126 34.5186 42.8672 32.4851 42.8672 29.6695C42.8672 27.9041 41.7722 26.2803 40.0888 25.7365C39.8132 25.6471 39.5301 25.5354 39.2545 25.4088C38.2117 24.9023 37.303 24.2691 36.5506 23.4572C35.7983 22.6453 35.2024 21.6993 34.7704 20.6267C34.3384 19.5466 34.1223 18.4069 34.1223 17.2077C34.1223 16.0084 34.3384 14.8986 34.7704 13.8111C35.2024 12.7235 35.7983 11.7701 36.5506 10.9582C37.303 10.1463 38.2117 9.49822 39.2545 9.0066C40.3048 8.51498 41.4445 8.26917 42.6735 8.26917C42.7406 8.26917 42.8002 8.27662 42.8597 8.27662L42.8597 0.0084877C42.8597 0.0084877 42.8597 0.0084877 42.8523 0.0010376C40.4091 -0.0213091 38.1 0.425621 35.9324 1.34182C33.8244 2.23567 31.9845 3.45727 30.4129 5.01406C28.8486 6.57085 27.6047 8.3958 26.6959 10.4889C25.7872 12.5895 25.3328 14.8241 25.3328 17.2002C25.3328 19.5764 25.7872 21.8185 26.6959 23.9116L26.7034 23.9116Z" fill="url(#paint3_linear_831_6553)"/>
<defs>
<linearGradient id="paint0_linear_831_6553" x1="0.00781252" y1="-17.2811" x2="-7.11148" y2="74.2619" gradientUnits="userSpaceOnUse">
<stop stop-color="#E63114"/>
<stop offset="1" stop-color="#AB0404"/>
</linearGradient>
<linearGradient id="paint1_linear_831_6553" x1="25.9078" y1="25.9197" x2="25.061" y2="-13.9064" gradientUnits="userSpaceOnUse">
<stop stop-color="#E63114"/>
<stop offset="1" stop-color="#FF2F2F"/>
</linearGradient>
<linearGradient id="paint2_linear_831_6553" x1="60" y1="51.7252" x2="67.1193" y2="-39.8178" gradientUnits="userSpaceOnUse">
<stop stop-color="#E63114"/>
<stop offset="1" stop-color="#AB0404"/>
</linearGradient>
<linearGradient id="paint3_linear_831_6553" x1="34.1" y1="8.52462" x2="34.9468" y2="48.3507" gradientUnits="userSpaceOnUse">
<stop stop-color="#E63114"/>
<stop offset="1" stop-color="#FF2F2F"/>
</linearGradient>
</defs>
</svg>
