<svg width="261" height="261" viewBox="0 0 261 261" fill="none" xmlns="http://www.w3.org/2000/svg">
<path d="M230.432 129.912C230.432 116.712 227.847 103.64 222.825 91.4447C217.803 79.249 210.442 68.1677 201.163 58.8335C191.883 49.4994 180.867 42.0951 168.742 37.0435C156.618 31.9919 143.623 29.3918 130.5 29.3918C117.376 29.3918 104.382 31.9919 92.2573 37.0435C80.133 42.0951 69.1165 49.4994 59.8369 58.8335C50.5573 68.1677 43.1964 79.249 38.1743 91.4447C33.1522 103.64 30.5674 116.712 30.5674 129.912H51.4575C51.4575 119.471 53.5019 109.132 57.4742 99.486C61.4464 89.8397 67.2687 81.0749 74.6084 73.6919C81.9482 66.309 90.6617 60.4525 100.252 56.4569C109.841 52.4613 120.12 50.4048 130.5 50.4048C140.88 50.4048 151.158 52.4613 160.748 56.4569C170.338 60.4525 179.051 66.309 186.391 73.6919C193.731 81.0749 199.553 89.8397 203.525 99.486C207.498 109.132 209.542 119.471 209.542 129.912H230.432Z" fill="url(#paint0_linear_491_22511)"/>
<path opacity="0.3" d="M246.892 129.912C246.892 114.55 243.882 99.3383 238.032 85.1457C232.183 70.953 223.61 58.0573 212.802 47.1947C201.994 36.3321 189.163 27.7155 175.042 21.8367C160.92 15.9579 145.785 12.9321 130.5 12.9321C115.215 12.9321 100.08 15.9579 85.959 21.8367C71.8377 27.7155 59.0068 36.3322 48.1988 47.1947C37.3908 58.0573 28.8174 70.953 22.9682 85.1457C17.119 99.3383 14.1084 114.55 14.1084 129.912H18.8157C18.8157 115.171 21.7045 100.575 27.3172 86.9562C32.9299 73.3376 41.1565 60.9634 51.5274 50.5401C61.8982 40.1169 74.2103 31.8487 87.7605 26.2077C101.311 20.5667 115.834 17.6633 130.5 17.6633C145.167 17.6632 159.69 20.5666 173.24 26.2077C186.79 31.8487 199.102 40.1169 209.473 50.5401C219.844 60.9633 228.071 73.3376 233.683 86.9562C239.296 100.575 242.185 115.171 242.185 129.912H246.892Z" fill="url(#paint1_linear_491_22511)"/>
<path opacity="0.1" d="M261 130.5C261 113.362 257.625 96.3928 251.066 80.5598C244.508 64.7268 234.895 50.3406 222.777 38.2226C210.659 26.1045 196.273 16.492 180.44 9.93372C164.607 3.37549 147.637 0 130.5 0C113.362 0 96.3928 3.37549 80.5598 9.93373C64.7268 16.492 50.3406 26.1045 38.2226 38.2226C26.1045 50.3406 16.492 64.7268 9.93372 80.5598C3.37548 96.3928 -1.49821e-06 113.363 0 130.5H1.11731C1.11731 113.509 4.46389 96.6848 10.966 80.9874C17.4681 65.29 26.9983 51.0269 39.0126 39.0126C51.0269 26.9983 65.2899 17.4681 80.9874 10.966C96.6848 4.4639 113.509 1.11731 130.5 1.11731C147.491 1.11731 164.315 4.4639 180.013 10.966C195.71 17.4681 209.973 26.9983 221.987 39.0126C234.002 51.0269 243.532 65.29 250.034 80.9874C256.536 96.6848 259.883 113.509 259.883 130.5H261Z" fill="#59388B"/>
<defs>
<linearGradient id="paint0_linear_491_22511" x1="130.5" y1="230.432" x2="130.5" y2="29.3918" gradientUnits="userSpaceOnUse">
<stop stop-color="#55308E"/>
<stop offset="1" stop-color="#55308E" stop-opacity="0"/>
</linearGradient>
<linearGradient id="paint1_linear_491_22511" x1="126.385" y1="-175.176" x2="116.98" y2="209.858" gradientUnits="userSpaceOnUse">
<stop stop-color="#55308E"/>
<stop offset="1" stop-color="#55308E" stop-opacity="0"/>
</linearGradient>
</defs>
</svg>
