<svg width="130" height="138" viewBox="0 0 130 138" fill="none" xmlns="http://www.w3.org/2000/svg">
<g clip-path="url(#clip0_257_3937)">
<g style="mix-blend-mode:multiply" opacity="0.15">
<path d="M2.92354 124.525C3.74152 124.139 45.0335 99.7745 45.9022 99.5573C47.1452 99.2113 48.4444 99.7209 49.4816 100.399L51.0026 99.5143C47.0303 94.9038 48.3161 85.1785 48.1156 79.4629V79.5273C52.1253 47.409 125.821 47.189 129.93 79.3476V79.2242C129.595 85.334 131.344 94.4425 126.914 99.6458C110.996 118.265 78.0146 118.472 58.0222 106.252L54.4162 108.357C54.6086 109.76 54.5178 111.345 53.5795 112.431C52.9914 113.236 11.2905 137.088 10.542 137.692L10.6248 137.638C5.1957 140.25 -1.88811 128.052 2.92354 124.525Z" fill="#808080"/>
</g>
<path d="M54.1902 77.2448C53.7304 67.2137 68.4567 59.6851 78.1629 58.4996C91.0554 56.4907 105.846 57.9631 116.081 66.7605C122.946 72.4492 120.893 80.6887 121.2 88.4051C120.078 73.8144 100.401 69.169 88.3208 69.0403C75.9228 68.941 55.337 73.565 54.2116 88.5982L54.1902 77.2448Z" fill="#F7F7FB"/>
<path d="M46.7784 77.269C51.2559 109.368 124.433 109.02 128.576 77.0303C133.014 105.343 107.071 112.799 83.8254 112.182C62.0661 110.404 43.2552 102.639 46.7784 77.269Z" fill="#F7F7FB"/>
<path d="M46.7793 77.1536C48.982 54.6239 85.4783 50.4881 103.201 55.1201C137.15 63.1932 136.704 91.2427 102.955 99.1872C85.3126 103.798 48.7253 99.7263 46.7793 77.1536ZM111.295 90.9236C124.394 83.3305 124.469 70.9767 111.45 63.3837C98.4323 55.7906 77.1729 55.7933 64.0665 63.3837C50.9601 70.974 50.8933 83.3305 63.9114 90.9209C76.9296 98.5113 98.1891 98.5139 111.295 90.9209" fill="#E63114"/>
<path d="M52.0983 104.919C51.8978 102.293 49.5 98.1814 46.4473 99.1925L54.4667 94.5123C54.5809 94.4473 54.7019 94.3951 54.8276 94.3567C56.0866 94.0429 57.2788 94.9226 58.1102 95.7889C59.6151 97.358 61.227 101.054 59.158 102.607L51.1386 107.287C51.7855 106.949 52.1758 105.943 52.0983 104.919Z" fill="#DEE0EB"/>
<path d="M10.7525 131.641C10.5333 127.526 6.35523 120.553 1.57031 122.334C2.40433 121.958 43.6883 97.5886 44.549 97.3606C46.1235 96.9342 47.706 97.7898 48.9035 98.7607C51.7638 101.266 54.1215 105.656 52.7315 109.462C52.494 110.006 52.0955 110.463 51.59 110.771L9.19143 135.492C10.2446 134.94 10.8782 133.322 10.7525 131.641Z" fill="#F7F7FB"/>
<path d="M9.19032 135.496C11.2888 134.272 11.2836 130.334 9.17853 126.699C7.07349 123.064 3.66582 121.109 1.56729 122.333C-0.531231 123.556 -0.525949 127.495 1.57909 131.13C3.68413 134.765 7.09179 136.719 9.19032 135.496Z" fill="#949AC5"/>
<path d="M68.0756 62.858L71.2726 60.9939L71.1951 88.6491L67.998 90.5132L68.0756 62.858Z" fill="#F7F7FB"/>
<path d="M63.25 60.0605L66.4444 58.1964L71.2721 60.9939L68.075 62.8579L63.25 60.0605Z" fill="#317EBA"/>
<path d="M65.7051 47.0442L68.8995 45.1802L76.0795 63.7779L72.8824 65.642L65.7051 47.0442Z" fill="#EAECF9"/>
<path d="M65.7056 47.0442L58.4453 57.2764L63.2516 60.0605L63.1714 87.7157L67.9991 90.5132L68.0766 62.8579L72.8829 65.642L65.7056 47.0442Z" fill="#C9CEEF"/>
<path d="M84.6045 36.0663L78.082 32.2631L78.2424 88.6893L84.7622 92.4925L84.6045 36.0663Z" fill="#F7F7FB"/>
<path d="M94.4523 30.3615L87.9299 26.5582L78.082 32.2631L84.6045 36.0663L94.4523 30.3615Z" fill="#317EBA"/>
<path d="M89.4447 3.80323L82.9222 0L68.2734 37.9438L74.7959 41.7471L89.4447 3.80323Z" fill="#EAECF9"/>
<path d="M89.4437 3.80322L104.256 24.6808L94.4505 30.3615L94.6082 86.7878L84.7604 92.4926L84.6027 36.0663L74.7949 41.7471L89.4437 3.80322Z" fill="#949AC5"/>
<path d="M105.516 50.9307L101.322 48.4846L101.424 84.7629L105.618 87.2089L105.516 50.9307Z" fill="#F7F7FB"/>
<path d="M111.846 47.2615L107.655 44.8154L101.322 48.4846L105.516 50.9306L111.846 47.2615Z" fill="#317EBA"/>
<path d="M108.627 30.1872L104.433 27.7411L95.0156 52.1376L99.2098 54.581L108.627 30.1872Z" fill="#EAECF9"/>
<path d="M108.626 30.1871L118.151 43.6084L111.845 47.2615L111.949 83.5424L105.616 87.2088L105.515 50.9306L99.209 54.5809L108.626 30.1871Z" fill="#C9CEEF"/>
</g>
<defs>
<clipPath id="clip0_257_3937">
<rect width="130" height="138" fill="white"/>
</clipPath>
</defs>
</svg>
