<svg width="196" height="96" viewBox="0 0 196 96" fill="none" xmlns="http://www.w3.org/2000/svg">
<path d="M141.604 76.9302L140.825 74.3141L142.807 73.7074L141.526 69.338L134.31 44.6742L131.76 45.459L132.467 47.8692L131.76 45.459L130.997 42.8485L127.166 44.0174L124.655 44.7855L123.892 42.175L118.624 43.7892L116.068 44.5684L115.306 41.9579L109.715 43.6723L106.28 31.9388L103.729 32.7236L102.967 30.1075L97.3538 31.8274L98.0387 34.1708L96.1009 34.7664L96.8693 37.3936L95.0597 37.9447L103.212 65.9593L102.649 66.1318L101.881 63.5157L99.3305 64.3006H99.3249L98.5621 61.69L96.0063 62.4748L95.2434 59.8587L90.6831 61.2559L91.4515 63.8664L91.1842 63.9499L88.8957 64.6512L89.6307 67.1616L87.6484 67.7683L88.9235 72.1711L91.4793 71.3807L91.9192 71.2472L89.9258 71.8594L90.9838 75.4886L93.534 74.6982L94.2968 77.3254L96.8526 76.5406L97.9663 80.3757L100.522 79.5909L101.647 83.4649L104.203 82.6801L105.812 88.224L108.368 87.4392L110.428 94.5249L112.984 93.7401L113.056 93.7178L113.724 96L116.28 95.2151L139.343 88.1572L138.67 85.8361L140.619 85.2405L139.85 82.63L137.846 83.2479L139.85 82.63L139.221 80.4592L139.767 80.2922L139.015 77.7151H139.02L141.604 76.9302Z" fill="#424242"/>
<path d="M114.098 92.9998L114.866 95.5714L117.439 94.8033L140.68 87.8511L139.906 85.2795L116.67 92.2317L114.098 92.9998Z" fill="black"/>
<path d="M140.346 77.5704L142.952 76.7967L141.616 72.4161L134.349 48.0028L131.777 48.7765L131.003 46.1938L127.144 47.3516L127.918 49.9398L131.665 62.5305L127.144 47.3516L124.616 48.1141L123.848 45.5314L118.541 47.1233L119.31 49.7116L122.561 60.6436L118.541 47.1233L115.969 47.897L115.195 45.3143L109.565 47.0064L106.107 35.3954L103.535 36.1691L102.766 33.5808L97.1147 35.2841L97.8831 37.8668L96.0623 38.4178L105.01 68.4752L102.438 69.2489L102.282 69.3102L101.58 66.9557L99.1583 67.6848L99.097 67.4344L98.3286 64.8516L95.7561 65.6198L95.0211 63.1595L90.4273 64.5344L91.1623 67.0058L88.5898 67.7795L89.8817 72.1099L92.4486 71.3363L93.462 71.0301L90.8895 71.8038L91.953 75.3717L94.5255 74.598L95.2939 77.1863L97.8664 76.4126L98.9912 80.1865L101.564 79.4128L102.7 83.2312L105.272 82.4575L106.898 87.9123L109.465 87.1386L111.542 94.1186L114.114 93.3449L137.601 86.2815L139.928 85.5801L138.531 80.8823L141.103 80.1086L140.346 77.5704Z" fill="black"/>
<path d="M99.1433 34.9622L97.3242 35.5064L106.272 65.3953L108.091 64.8511L99.1433 34.9622Z" fill="black"/>
<path d="M106.268 65.3981L103.697 66.1672L104.467 68.7375L107.038 67.9684L106.268 65.3981Z" fill="black"/>
<path d="M139.795 77.7307L137.469 78.4265L138.867 83.0977L141.193 82.402L139.795 77.7307Z" fill="black"/>
<path d="M128.407 44.3912L125.836 45.1603L130.355 60.2567L132.926 59.4876L128.407 44.3912Z" fill="black"/>
<path d="M132.263 43.2427L128.406 44.3965L129.176 46.9668L133.033 45.813L132.263 43.2427Z" fill="black"/>
<path d="M104.03 30.6985L98.375 32.3901L99.1444 34.9604L104.799 33.2688L104.03 30.6985Z" fill="black"/>
<path d="M116.455 42.3648L110.619 44.1105L111.389 46.6808L117.224 44.935L116.455 42.3648Z" fill="black"/>
<path d="M125.107 42.5821L119.799 44.1699L120.568 46.7402L125.876 45.1524L125.107 42.5821Z" fill="black"/>
<path d="M107.366 32.5051L104.795 33.2743L111.672 56.2468L114.243 55.4777L107.366 32.5051Z" fill="black"/>
<path d="M119.798 44.166L117.227 44.9352L121.251 58.3785L123.822 57.6093L119.798 44.166Z" fill="black"/>
<path d="M102.934 63.5909L100.363 64.36L101.133 66.9303L103.704 66.1612L102.934 63.5909Z" fill="black"/>
<path d="M99.5829 61.7925L97.0117 62.5616L97.7812 65.1319L100.352 64.3628L99.5829 61.7925Z" fill="black"/>
<path d="M92.4208 63.9443L89.8496 64.7134L91.1379 69.0168L93.7091 68.2476L92.4208 63.9443Z" fill="black"/>
<path d="M94.7235 67.9409L92.1523 68.7101L93.2155 72.2616L95.7867 71.4924L94.7235 67.9409Z" fill="black"/>
<path d="M98.3544 70.7208L95.7832 71.49L96.5526 74.0603L99.1238 73.2911L98.3544 70.7208Z" fill="black"/>
<path d="M101.694 72.521L99.123 73.2902L100.247 77.0443L102.818 76.2751L101.694 72.521Z" fill="black"/>
<path d="M105.392 75.509L102.82 76.2781L103.957 80.0749L106.528 79.3057L105.392 75.509Z" fill="black"/>
<path d="M109.101 78.5365L106.529 79.3057L108.154 84.7342L110.726 83.965L109.101 78.5365Z" fill="black"/>
<path d="M113.3 83.1925L110.729 83.9617L112.805 90.8993L115.377 90.1301L113.3 83.1925Z" fill="black"/>
<path d="M117.95 89.365L115.379 90.1342L116.148 92.7044L118.72 91.9353L117.95 89.365Z" fill="black"/>
<path d="M141.593 74.3952L139.021 75.1644L139.791 77.7346L142.362 76.9655L141.593 74.3952Z" fill="black"/>
<path d="M142.874 69.3195L140.303 70.0887L141.591 74.392L144.162 73.6229L142.874 69.3195Z" fill="black"/>
<path d="M135.604 45.0446L133.033 45.8137L140.301 70.0927L142.873 69.3236L135.604 45.0446Z" fill="black"/>
<path d="M117.951 89.3628L118.721 91.9331L141.963 84.9803L141.193 82.41L117.951 89.3628Z" fill="black"/>
<path d="M96.2473 59.9891L91.6543 61.3631L92.4237 63.9334L97.0167 62.5594L96.2473 59.9891Z" fill="black"/>
<path d="M99.1407 34.9612L104.792 33.2691L111.669 56.2463L114.242 55.4726L111.385 46.6836L117.226 44.9358L121.252 58.3782L123.824 57.61L120.567 46.7393L125.874 45.1529L130.356 60.2595L132.923 59.4914L129.175 46.9675L133.034 45.8097L141.593 74.3921L139.02 75.1658L139.788 77.7374L137.461 78.4331L138.859 83.1032L115.378 90.1277L113.301 83.1922L110.728 83.9604L109.102 78.5333L106.53 79.3015L105.394 75.5053L102.821 76.279L101.697 72.5218L99.124 73.29L98.3556 70.7184L95.7831 71.4921L94.7196 67.9409L93.7117 68.2414L92.4199 63.9332L97.0137 62.5639L97.7821 65.1355L100.388 64.3563L101.134 66.9334L103.707 66.1597L104.469 68.7368L107.042 67.9687L106.268 65.3971L108.089 64.8516L99.1407 34.9612Z" fill="white"/>
</svg>
