<svg width="834" height="492" viewBox="0 0 834 492" fill="none" xmlns="http://www.w3.org/2000/svg">
<path d="M-15.6028 475.765C-17.5599 475.765 -19.4832 475.698 -21.4403 475.496C-49.3463 473 -71.4146 452.999 -93.3816 430.975L-161.813 362.339C-176.661 347.431 -192.048 332.018 -211.349 322.709C-239.694 309.049 -271.547 309.42 -308.767 323.855C-343.916 337.514 -377.709 361.821 -400.318 379.161C-400.69 379.446 -401.218 379.368 -401.5 378.993C-401.777 378.623 -401.712 378.104 -401.346 377.823C-378.668 360.416 -344.733 336 -309.374 322.27C-291.827 315.457 -275.091 311.713 -259.569 311.174C-242.123 310.567 -225.656 313.906 -210.607 321.191C-191.035 330.635 -175.581 346.149 -160.599 361.158L-92.1668 429.794C-70.4022 451.616 -48.6039 471.415 -21.2716 473.843C-5.5809 475.226 9.97488 470.47 24.9908 465.849C33.0555 463.354 41.4239 460.79 49.7923 459.171C76.8546 453.944 106.11 457.957 134.421 461.836C177.984 467.839 219.151 473.472 250.769 447.164C261.803 437.99 270.509 425.342 278.945 413.099C285.66 403.386 292.577 393.335 300.507 385.341C309.449 376.37 318.796 370.939 329.121 368.781C358.006 362.71 382.436 383.925 406.09 404.465C429.677 424.938 454.04 446.119 482.249 438.935C495.308 435.596 505.431 426.894 516.128 417.652C523.788 411.076 531.684 404.229 540.727 399.676C554.089 392.896 569.308 391.277 583.986 389.692C589.014 389.152 594.244 388.579 599.272 387.837C659.572 378.764 713.19 336.335 735.798 279.739C736.237 278.66 736.642 277.615 737.081 276.502C741.602 265 746.731 251.981 758.204 246.652C774.941 238.895 790.834 251.577 806.221 263.854C821.068 275.692 836.388 287.935 852.349 281.898C862.775 277.952 868.242 268.002 874.012 257.445C876.543 252.858 879.141 248.103 882.178 243.954C891.086 231.711 904.449 223.954 917.372 216.432C926.686 211.002 936.336 205.403 944.3 198.118C959.653 184.087 968.292 189.424 976.694 170.402C979.73 163.521 982.869 156.371 986.277 149.625C991.271 139.709 999.943 125.645 1012.87 114.818C1025.18 104.497 1038.21 99.843 1051.54 100.956C1064.83 102.069 1076.61 108.983 1088.05 115.695C1090.48 117.145 1093.01 118.596 1095.5 120.012C1145.68 148.074 1207.53 127.087 1260.95 105.771C1262.91 104.996 1264.9 104.152 1266.79 103.377C1274.95 99.9702 1283.39 96.4288 1292.33 95.4507C1308.63 93.6294 1324.18 100.307 1339.23 106.783C1353.31 112.821 1367.88 119.094 1382.97 118.284C1403.95 117.171 1421.03 103.107 1437.53 89.4809C1444.21 83.9495 1451.13 78.2495 1458.25 73.4602C1483.99 56.0903 1515.48 48.9063 1545.95 41.9247C1581.51 33.8252 1618.26 25.4269 1644.64 0.580952C1644.98 0.262055 1645.52 0.269869 1645.84 0.603279C1646.17 0.940438 1646.16 1.48018 1645.82 1.80268C1633.9 13.0247 1618.91 21.877 1600.07 28.872C1583 35.2128 1564.37 39.4625 1546.32 43.5773C1516.02 50.4915 1484.67 57.6418 1459.19 74.843C1452.14 79.5986 1445.26 85.2649 1438.61 90.7625C1421.91 104.557 1404.6 118.824 1383.07 119.937C1382.16 119.971 1381.24 120.005 1380.37 120.005C1365.86 120.005 1352.02 114.068 1338.59 108.301C1323.75 101.926 1308.39 95.3495 1292.53 97.1033C1283.83 98.0814 1275.53 101.555 1267.46 104.928C1265.54 105.738 1263.55 106.581 1261.59 107.357C1235.34 117.846 1205.5 127.501 1176.93 132.51C1151 137.056 1119.36 135.325 1094.69 121.53C1092.2 120.147 1089.67 118.629 1087.2 117.213C1075.93 110.602 1064.33 103.789 1051.4 102.71C1016.21 99.7418 993.802 138.495 987.761 150.435C984.353 157.147 981.249 164.263 978.212 171.144C969.776 190.335 961.037 185.167 945.413 199.434C937.315 206.82 927.597 212.486 918.182 217.95C905.427 225.37 892.233 233.06 883.528 245C880.558 249.081 877.994 253.769 875.497 258.322C869.828 268.677 863.956 279.368 852.956 283.551C836.084 289.925 820.36 277.378 805.175 265.27C789.518 252.757 774.705 240.952 758.913 248.271C748.047 253.297 743.256 265.473 738.667 277.21C738.228 278.289 737.823 279.368 737.384 280.448C726.215 308.408 707.285 333.468 682.686 352.962C658.053 372.457 629.304 385.139 599.542 389.591C594.481 390.367 589.25 390.906 584.189 391.446C569.645 392.997 554.562 394.616 541.503 401.261C532.662 405.747 524.8 412.492 517.241 419.035C506.848 427.973 496.118 437.248 482.654 440.655C469.596 443.994 456.267 441.768 441.926 433.876C429.205 426.894 416.888 416.168 404.977 405.848C381.66 385.577 357.533 364.632 329.459 370.535C307.154 375.223 294.129 394.144 280.328 414.145C271.825 426.455 263.051 439.205 251.849 448.547C237.373 460.588 219.455 467.064 197.049 468.345C177.107 469.492 156.253 466.625 134.185 463.59C106.009 459.711 76.8883 455.697 50.0959 460.892C41.8288 462.477 33.5279 465.04 25.4969 467.502C12.1345 471.549 -1.59918 475.765 -15.6028 475.765Z" fill="#E63114"/>
<path fill-rule="evenodd" clip-rule="evenodd" d="M89 456.948C75.6638 456.301 62.4863 456.719 49.7914 459.172C41.423 460.791 33.0546 463.354 24.9899 465.85C9.97403 470.471 -5.58173 475.226 -21.2725 473.843C-48.6047 471.415 -70.4031 451.617 -92.1677 429.795L-160.6 361.159L-160.743 361.015C-175.681 346.051 -191.099 330.605 -210.608 321.191C-225.657 313.906 -242.124 310.567 -259.569 311.174C-275.091 311.714 -291.828 315.457 -309.375 322.271C-344.734 336 -378.669 360.416 -401.346 377.823C-401.713 378.105 -401.778 378.623 -401.501 378.993C-401.219 379.368 -400.691 379.447 -400.318 379.161C-377.71 361.822 -343.917 337.515 -308.767 323.856C-271.548 309.42 -239.694 309.049 -211.35 322.709C-192.049 332.018 -176.662 347.431 -161.814 362.339L-93.3824 430.975C-71.4154 452.999 -49.3471 473 -21.4412 475.496C-19.4841 475.698 -17.5607 475.766 -15.6036 475.766C-1.78076 475.766 11.7791 471.658 24.9785 467.659L25.4961 467.502L25.9454 467.365C33.8365 464.945 41.9821 462.447 50.0951 460.892C62.6637 458.455 75.7446 458.045 89 458.696V456.948Z" fill="#6300E0"/>
<circle cx="58.9981" cy="460" r="21.381" fill="#E63114" stroke="#301D4E" stroke-width="6"/>
<circle opacity="0.4" cx="59.0019" cy="460" r="7.61905" fill="#301E4F"/>
<circle cx="59" cy="460" r="29" stroke="#E63114" stroke-width="6"/>
<circle cx="520" cy="415" r="13" fill="#E63114" stroke="#301D4E" stroke-width="6"/>
<circle opacity="0.4" cx="520" cy="415" r="5" fill="#301E4F"/>
<circle cx="520" cy="415" r="18" stroke="#E63114" stroke-width="6"/>
<line x1="59.5" y1="184" x2="59.5" y2="407" stroke="#E63114"/>
<line x1="520.5" y1="184" x2="520.5" y2="378" stroke="#E63114"/>
</svg>
