<svg width="1920" height="484" viewBox="0 0 1920 484" fill="none" xmlns="http://www.w3.org/2000/svg">
<path d="M280.397 475.765C278.44 475.765 276.517 475.698 274.56 475.496C246.654 473 224.585 452.999 202.618 430.975L134.187 362.339C119.339 347.431 103.952 332.018 84.651 322.709C56.3064 309.049 24.4525 309.42 -12.7666 323.855C-47.9158 337.514 -81.7087 361.821 -104.318 379.161C-104.69 379.446 -105.218 379.368 -105.5 378.993C-105.777 378.623 -105.712 378.104 -105.346 377.823C-82.6685 360.416 -48.7329 336 -13.374 322.27C4.17265 315.457 20.9095 311.713 36.4315 311.174C53.8769 310.567 70.3437 313.906 85.3934 321.191C104.965 330.635 120.419 346.149 135.401 361.158L203.833 429.794C225.598 451.616 247.396 471.415 274.728 473.843C290.419 475.226 305.975 470.47 320.991 465.849C329.055 463.354 337.424 460.79 345.792 459.171C372.855 453.944 402.11 457.957 430.421 461.836C473.984 467.839 515.151 473.472 546.769 447.164C557.803 437.99 566.509 425.342 574.945 413.099C581.66 403.386 588.577 393.335 596.507 385.341C605.449 376.37 614.796 370.939 625.121 368.781C654.006 362.71 678.436 383.925 702.09 404.465C725.677 424.938 750.04 446.119 778.249 438.935C791.308 435.596 801.431 426.894 812.128 417.652C819.788 411.076 827.684 404.229 836.727 399.676C850.089 392.896 865.308 391.277 879.986 389.692C885.014 389.152 890.244 388.579 895.272 387.837C955.572 378.764 1009.19 336.335 1031.8 279.739C1032.24 278.66 1032.64 277.615 1033.08 276.502C1037.6 265 1042.73 251.981 1054.2 246.652C1070.94 238.895 1086.83 251.577 1102.22 263.854C1117.07 275.692 1132.39 287.935 1148.35 281.898C1158.78 277.952 1164.24 268.002 1170.01 257.445C1172.54 252.858 1175.14 248.103 1178.18 243.954C1187.09 231.711 1200.45 223.954 1213.37 216.432C1222.69 211.002 1232.34 205.403 1240.3 198.118C1255.65 184.087 1264.29 189.424 1272.69 170.402C1275.73 163.521 1278.87 156.371 1282.28 149.625C1287.27 139.709 1295.94 125.645 1308.87 114.818C1321.18 104.497 1334.21 99.843 1347.54 100.956C1360.83 102.069 1372.61 108.983 1384.05 115.695C1386.48 117.145 1389.01 118.596 1391.5 120.012C1441.68 148.074 1503.53 127.087 1556.95 105.771C1558.91 104.996 1560.9 104.152 1562.79 103.377C1570.95 99.9702 1579.39 96.4288 1588.33 95.4507C1604.63 93.6294 1620.18 100.307 1635.23 106.783C1649.31 112.821 1663.88 119.094 1678.97 118.284C1699.95 117.171 1717.03 103.107 1733.53 89.4809C1740.21 83.9495 1747.13 78.2495 1754.25 73.4602C1779.99 56.0903 1811.48 48.9063 1841.95 41.9247C1877.51 33.8252 1914.26 25.4269 1940.64 0.580952C1940.98 0.262055 1941.52 0.269869 1941.84 0.603279C1942.17 0.940438 1942.16 1.48018 1941.82 1.80268C1929.9 13.0247 1914.91 21.877 1896.07 28.872C1879 35.2128 1860.37 39.4625 1842.32 43.5773C1812.02 50.4915 1780.67 57.6418 1755.19 74.843C1748.14 79.5986 1741.26 85.2649 1734.61 90.7625C1717.91 104.557 1700.6 118.824 1679.07 119.937C1678.16 119.971 1677.24 120.005 1676.37 120.005C1661.86 120.005 1648.02 114.068 1634.59 108.301C1619.75 101.926 1604.39 95.3495 1588.53 97.1033C1579.83 98.0814 1571.53 101.555 1563.46 104.928C1561.54 105.738 1559.55 106.581 1557.59 107.357C1531.34 117.846 1501.5 127.501 1472.93 132.51C1447 137.056 1415.36 135.325 1390.69 121.53C1388.2 120.147 1385.67 118.629 1383.2 117.213C1371.93 110.602 1360.33 103.789 1347.4 102.71C1312.21 99.7418 1289.8 138.495 1283.76 150.435C1280.35 157.147 1277.25 164.263 1274.21 171.144C1265.78 190.335 1257.04 185.167 1241.41 199.434C1233.31 206.82 1223.6 212.486 1214.18 217.95C1201.43 225.37 1188.23 233.06 1179.53 245C1176.56 249.081 1173.99 253.769 1171.5 258.322C1165.83 268.677 1159.96 279.368 1148.96 283.551C1132.08 289.925 1116.36 277.378 1101.18 265.27C1085.52 252.757 1070.7 240.952 1054.91 248.271C1044.05 253.297 1039.26 265.473 1034.67 277.21C1034.23 278.289 1033.82 279.368 1033.38 280.448C1022.22 308.408 1003.29 333.468 978.686 352.962C954.053 372.457 925.304 385.139 895.542 389.591C890.481 390.367 885.25 390.906 880.189 391.446C865.645 392.997 850.562 394.616 837.503 401.261C828.662 405.747 820.8 412.492 813.241 419.035C802.848 427.973 792.118 437.248 778.654 440.655C765.596 443.994 752.267 441.768 737.926 433.876C725.205 426.894 712.888 416.168 700.977 405.848C677.66 385.577 653.533 364.632 625.459 370.535C603.154 375.223 590.129 394.144 576.328 414.145C567.825 426.455 559.051 439.205 547.849 448.547C533.373 460.588 515.455 467.064 493.049 468.345C473.107 469.492 452.253 466.625 430.185 463.59C402.009 459.711 372.888 455.697 346.096 460.892C337.829 462.477 329.528 465.04 321.497 467.502C308.134 471.549 294.401 475.765 280.397 475.765Z" fill="#E63114"/>
<path fill-rule="evenodd" clip-rule="evenodd" d="M761.999 440.1C740.498 437.803 721.082 420.95 702.167 404.532L702.089 404.465L702.088 404.464C678.434 383.924 654.004 362.71 625.12 368.781C614.795 370.939 605.448 376.369 596.506 385.341C588.675 393.235 581.831 403.135 575.195 412.735L574.944 413.099L574.896 413.169C566.475 425.39 557.781 438.008 546.768 447.164C515.15 473.472 473.983 467.839 430.42 461.836L430.369 461.829C402.074 457.952 372.837 453.947 345.791 459.171C337.423 460.79 329.055 463.353 320.99 465.849C305.974 470.47 290.418 475.226 274.728 473.843C247.395 471.414 225.597 451.616 203.832 429.794L135.4 361.158L135.257 361.014C120.319 346.05 104.901 330.604 85.3925 321.191C70.3429 313.905 53.876 310.566 36.4306 311.174C20.9086 311.713 4.17179 315.457 -13.3748 322.27C-48.7338 335.999 -82.6693 360.415 -105.346 377.823C-105.713 378.104 -105.778 378.623 -105.501 378.992C-105.219 379.368 -104.691 379.446 -104.318 379.16C-81.7095 361.821 -47.9167 337.514 -12.7675 323.855C24.4516 309.42 56.3056 309.049 84.6501 322.708C103.951 332.017 119.338 347.431 134.186 362.339L202.618 430.975C224.585 452.999 246.653 473 274.559 475.495C276.516 475.698 278.439 475.765 280.396 475.765C294.219 475.765 307.779 471.657 320.979 467.659L321.496 467.502L321.945 467.364C329.836 464.945 337.982 462.447 346.095 460.891C372.873 455.7 401.976 459.706 430.138 463.583L430.184 463.59C452.252 466.625 473.106 469.492 493.048 468.345C515.454 467.064 533.372 460.588 547.848 448.547C558.974 439.268 567.704 426.63 576.153 414.398L576.327 414.145L576.395 414.046C590.171 394.082 603.19 375.215 625.458 370.535C653.532 364.632 677.659 385.577 700.976 405.848L701.441 406.25C713.208 416.447 725.369 426.984 737.925 433.875C746.242 438.452 754.218 441.124 761.999 441.909V440.1Z" fill="#6300E0"/>
<circle cx="345" cy="463.001" r="13" fill="#462D6D" stroke="#301D4E" stroke-width="6"/>
<circle opacity="0.4" cx="345" cy="463.001" r="5" fill="#301E4F"/>
<circle cx="345" cy="463.001" r="18" stroke="#462D6D" stroke-width="6"/>
<circle cx="770.998" cy="440.001" r="21.381" fill="#E63114" stroke="#301D4E" stroke-width="6"/>
<circle opacity="0.4" cx="771.002" cy="440.001" r="7.61905" fill="#301E4F"/>
<circle cx="771" cy="440.001" r="29" stroke="#E63114" stroke-width="6"/>
<circle cx="1129" cy="281.001" r="13" fill="#E63114" stroke="#301D4E" stroke-width="6"/>
<circle opacity="0.4" cx="1129" cy="281.001" r="5" fill="#301E4F"/>
<circle cx="1129" cy="281.001" r="18" stroke="#E63114" stroke-width="6"/>
<circle cx="1324" cy="110.001" r="13" fill="#E63114" stroke="#301D4E" stroke-width="6"/>
<circle cx="1324" cy="110.001" r="18" stroke="#E63114" stroke-width="6"/>
<line x1="345.5" y1="305.001" x2="345.5" y2="424.001" stroke="#462D6D"/>
<line x1="771.5" y1="164.001" x2="771.5" y2="387.001" stroke="#E63114"/>
<line x1="1129.5" y1="319.001" x2="1129.5" y2="376.001" stroke="#E63114"/>
<line x1="1324.5" y1="38.001" x2="1324.5" y2="72.001" stroke="#E63114"/>
</svg>
