<svg width="1057" height="637" viewBox="0 0 1057 637" fill="none" xmlns="http://www.w3.org/2000/svg">
<path d="M803.461 104.685L390.54 56.4183C386.345 55.9293 382.094 56.2705 378.031 57.4224C373.969 58.5742 370.173 60.5142 366.861 63.1315C363.549 65.7488 360.785 68.9921 358.729 72.6762C356.672 76.3602 355.362 80.4129 354.874 84.6026L324.057 348.315C323.567 352.504 323.909 356.749 325.062 360.807C326.215 364.864 328.158 368.655 330.778 371.963C333.399 375.271 336.647 378.031 340.335 380.085C344.024 382.139 348.082 383.447 352.277 383.934L765.322 432.077C769.517 432.566 773.767 432.225 777.83 431.073C781.893 429.921 785.689 427.981 789.001 425.364C792.313 422.747 795.076 419.503 797.133 415.819C799.19 412.135 800.499 408.083 800.987 403.893L831.731 140.181C832.684 131.732 830.243 123.25 824.943 116.596C819.644 109.942 811.918 105.658 803.461 104.685Z" fill="#EDF4FF"/>
<path d="M828.639 166.29L831.731 140.181C832.684 131.732 830.243 123.25 824.943 116.596C819.644 109.942 811.918 105.658 803.461 104.685L390.54 56.4183C386.345 55.9293 382.094 56.2705 378.031 57.4224C373.969 58.5742 370.173 60.5142 366.861 63.1315C363.549 65.7488 360.785 68.9921 358.729 72.6762C356.672 76.3602 355.362 80.4129 354.874 84.6026L351.906 110.712L828.639 166.29Z" fill="#241440"/>
<path d="M418.684 270.382L471.02 178.27C472.658 175.382 475.115 173.042 478.08 171.543C481.046 170.045 484.389 169.455 487.69 169.847C489.897 170.098 492.033 170.783 493.975 171.861C495.917 172.939 497.626 174.39 499.005 176.129C500.384 177.869 501.405 179.864 502.01 181.999C502.615 184.134 502.792 186.367 502.53 188.571L491.647 281.744H492.117C493.646 281.919 495.126 282.394 496.471 283.14C497.816 283.887 499 284.892 499.956 286.096C500.912 287.301 501.62 288.682 502.041 290.161C502.461 291.639 502.585 293.186 502.406 294.713C502.04 297.796 500.466 300.609 498.027 302.535C495.589 304.461 492.485 305.343 489.396 304.989H488.926L486.948 321.958C486.757 323.607 486.244 325.202 485.435 326.651C484.627 328.101 483.541 329.378 482.239 330.408C480.936 331.438 479.443 332.202 477.845 332.655C476.246 333.108 474.574 333.242 472.924 333.049C471.273 332.859 469.677 332.346 468.225 331.539C466.773 330.732 465.495 329.647 464.464 328.346C463.432 327.045 462.668 325.554 462.214 323.958C461.76 322.362 461.626 320.692 461.819 319.044L463.797 302.074L426.104 297.652C424.572 297.477 423.089 297.002 421.741 296.254C420.393 295.506 419.206 294.5 418.248 293.293C417.29 292.086 416.579 290.702 416.158 289.221C415.736 287.739 415.611 286.189 415.79 284.659L416.804 276.113C417.027 274.093 417.667 272.142 418.684 270.382ZM466.667 277.274L473.419 219.497C473.428 219.412 473.408 219.326 473.362 219.254C473.315 219.182 473.245 219.129 473.164 219.103C473.082 219.076 472.994 219.079 472.914 219.111C472.834 219.142 472.768 219.2 472.726 219.275L441.81 273.766C441.687 273.988 441.62 274.237 441.615 274.49C441.61 274.744 441.667 274.995 441.782 275.222C441.897 275.448 442.065 275.643 442.272 275.79C442.48 275.937 442.72 276.031 442.972 276.063L464.96 278.533C465.343 278.564 465.724 278.453 466.03 278.221C466.336 277.988 466.545 277.651 466.617 277.274H466.667Z" fill="#3F2069"/>
<path d="M649.619 297.356L701.954 205.244C703.6 202.363 706.058 200.028 709.022 198.531C711.986 197.033 715.325 196.439 718.624 196.821C723.077 197.341 727.141 199.605 729.924 203.116C732.706 206.627 733.98 211.097 733.464 215.545L722.582 308.719H723.052C724.578 308.896 726.055 309.373 727.398 310.121C728.74 310.869 729.921 311.874 730.875 313.078C731.828 314.283 732.534 315.663 732.953 317.14C733.372 318.617 733.495 320.162 733.316 321.687C732.956 324.747 731.399 327.542 728.986 329.462C726.572 331.382 723.497 332.272 720.43 331.938H719.96L717.981 348.908C717.585 352.234 715.883 355.268 713.249 357.343C710.615 359.418 707.265 360.364 703.933 359.974C702.283 359.784 700.687 359.271 699.237 358.463C697.786 357.656 696.51 356.57 695.48 355.269C694.451 353.968 693.689 352.476 693.238 350.88C692.787 349.284 692.656 347.615 692.852 345.968L694.831 328.998L657.039 324.527C655.509 324.35 654.029 323.872 652.683 323.123C651.338 322.374 650.154 321.367 649.198 320.16C648.243 318.954 647.535 317.571 647.114 316.091C646.694 314.611 646.57 313.062 646.75 311.534L647.739 302.988C647.997 301.007 648.635 299.095 649.619 297.356ZM697.626 304.248L704.378 246.471C704.388 246.386 704.367 246.3 704.321 246.228C704.274 246.156 704.204 246.103 704.123 246.077C704.041 246.05 703.953 246.053 703.873 246.085C703.794 246.116 703.727 246.174 703.686 246.249L672.769 300.74C672.639 300.961 672.567 301.211 672.559 301.467C672.551 301.723 672.608 301.976 672.723 302.205C672.839 302.433 673.01 302.629 673.221 302.775C673.432 302.92 673.676 303.01 673.931 303.037L695.895 305.507C696.297 305.557 696.703 305.448 697.026 305.204C697.349 304.959 697.565 304.598 697.626 304.198V304.248Z" fill="#3F2069"/>
<path d="M545.79 216.187C548.832 190.176 564.29 176.887 589.419 179.827C614.548 182.766 626.519 199.217 623.501 225.252L613.608 309.855C610.566 335.89 595.083 349.155 569.954 346.24C544.825 343.325 532.854 326.825 535.872 300.789L545.79 216.187ZM561.297 305.408C559.937 317.043 564.537 322.032 572.699 322.996C580.861 323.959 586.476 320.13 587.836 308.496L598.1 220.781C599.461 209.147 594.86 204.133 586.698 203.194C578.536 202.255 572.922 206.059 571.562 217.669L561.297 305.408Z" fill="#3F2069"/>
<path d="M400.504 92.853C400.312 94.5535 399.618 96.1586 398.511 97.465C397.404 98.7714 395.934 99.7203 394.286 100.191C392.639 100.663 390.888 100.635 389.257 100.112C387.625 99.5888 386.186 98.5939 385.121 97.2531C384.056 95.9124 383.413 94.2861 383.275 92.5803C383.136 90.8746 383.507 89.166 384.341 87.6712C385.175 86.1763 386.435 84.9623 387.961 84.183C389.486 83.4037 391.209 83.0941 392.911 83.2935C395.186 83.5599 397.261 84.7155 398.685 86.5071C400.108 88.2987 400.762 90.5806 400.504 92.853Z" fill="white"/>
<path d="M441.91 97.6944C441.708 99.3865 441.008 100.981 439.899 102.276C438.79 103.571 437.321 104.509 435.679 104.971C434.036 105.433 432.294 105.398 430.671 104.871C429.048 104.345 427.618 103.349 426.561 102.011C425.505 100.673 424.869 99.0522 424.734 97.3533C424.599 95.6545 424.972 93.9539 425.804 92.4663C426.637 90.9788 427.892 89.7711 429.412 88.9958C430.931 88.2204 432.647 87.9123 434.342 88.1102C435.469 88.242 436.56 88.5945 437.551 89.1477C438.542 89.701 439.414 90.444 440.117 91.3342C440.82 92.2245 441.34 93.2445 441.648 94.3359C441.955 95.4273 442.045 96.5686 441.91 97.6944Z" fill="#371F60"/>
<path d="M484.847 102.684C484.65 104.377 483.955 105.974 482.85 107.273C481.744 108.571 480.279 109.514 478.637 109.98C476.996 110.447 475.253 110.418 473.628 109.896C472.004 109.374 470.571 108.382 469.51 107.047C468.449 105.712 467.809 104.093 467.669 102.394C467.53 100.695 467.898 98.9933 468.727 97.5033C469.555 96.0134 470.808 94.8022 472.325 94.0228C473.843 93.2434 475.558 92.9309 477.254 93.1246C479.528 93.391 481.604 94.5466 483.027 96.3382C484.45 98.1299 485.104 100.412 484.847 102.684Z" fill="#E63114"/>
<path d="M318.737 403.053C315.312 419.466 313.752 436.212 314.087 452.975C314.928 475.576 312.232 624.18 312.232 624.18H330.411C330.411 624.18 356.282 507.812 357.247 498.623C358.211 489.434 371.221 397.52 371.221 397.52L318.737 403.053Z" fill="#241440"/>
<path d="M330.832 396.285C330.832 396.285 335.012 428.026 342.11 450.628C349.209 473.23 384.157 624.229 384.157 624.229H402.336C402.336 624.229 398.997 507.861 397.735 498.672C396.474 489.483 387.273 397.569 387.273 397.569L330.832 396.285Z" fill="#2F1A53"/>
<path d="M375.573 248.595C375.573 248.595 387.47 230.538 373.817 228.834C363.33 227.475 358.977 230.588 358.977 230.588C358.977 230.588 346.908 229.279 340.304 234.985C335.778 238.912 319.132 269.32 346.017 280.312C372.902 291.304 367.189 263.021 367.189 263.021L375.573 248.595Z" fill="#8E342E"/>
<path d="M373.817 228.785C363.33 227.426 358.977 230.538 358.977 230.538C358.977 230.538 346.908 229.229 340.304 234.935C335.778 238.863 319.132 269.27 346.017 280.262C358.656 285.45 364.097 281.967 366.298 276.804C340.798 283.992 338.028 253.288 342.233 244.544C346.438 235.8 356.751 239.777 356.751 239.777C360.783 229.674 373.842 230.785 379.234 231.551C378.578 230.734 377.756 230.065 376.823 229.588C375.889 229.111 374.865 228.837 373.817 228.785Z" fill="#8E342E"/>
<path d="M358.83 257.389C358.83 257.389 355.318 253.857 352.671 257.389C350.025 260.921 351.781 268.826 356.184 269.27C356.184 269.27 354.873 280.707 346.043 280.262V289.525H366.745V282.535C366.745 282.535 379.532 277.274 379.111 266.701C378.898 260.541 377.704 254.455 375.574 248.669C371.13 253.369 365.233 256.44 358.83 257.389Z" fill="#FFCDA8"/>
<path d="M361.997 285.425C364.05 286.29 363.703 287.574 363.778 289.525H366.746V282.535C366.746 282.535 361.799 284.141 354.379 280.065C356.649 282.205 359.214 284.01 361.997 285.425Z" fill="#F0C19F"/>
<path d="M366.249 240.543C366.249 240.543 355.515 236.269 354.253 239.48C353.437 241.58 355.515 243.383 358.384 245.211L355.91 245.606C355.78 245.624 355.659 245.68 355.56 245.766C355.461 245.853 355.391 245.966 355.356 246.093C355.322 246.219 355.326 246.353 355.367 246.477C355.408 246.602 355.486 246.711 355.589 246.792C357.703 247.688 360.002 248.06 362.292 247.879L366.249 240.543Z" fill="#FFCDA8"/>
<path d="M442.899 267.393C422.444 252.251 366.523 240.221 366.523 240.221L361.922 248.62C361.922 248.62 412.675 268.381 409.311 271.197C407.357 272.926 382.55 284.264 374.14 288.093C372.331 288.908 370.363 289.313 368.378 289.278L342.68 289.13C336.41 288.825 330.156 289.979 324.409 292.499C318.662 295.019 313.579 298.838 309.562 303.655C296.503 318.648 274.342 353.354 274.342 353.354L311.689 408.191L315.819 414.243V414.687L319.505 415.058C331.5 416.169 369.96 419.208 390.316 414.885L390.885 414.762L389.92 324.799C409.59 309.469 427.558 292.079 443.517 272.926C443.861 272.532 444.12 272.07 444.276 271.57C444.432 271.071 444.483 270.544 444.425 270.024C444.367 269.504 444.201 269.001 443.938 268.548C443.676 268.095 443.322 267.702 442.899 267.393ZM317.625 390.085L313.964 382.131L302.439 356.812L321.706 335.272L318.243 382.526L317.625 390.085Z" fill="#D2E3FC"/>
<path d="M313.965 382.131L317.625 390.085L315.845 414.07L315.82 414.144L311.689 408.092L313.965 382.131Z" fill="#C0D5F3"/>
<g style="mix-blend-mode:multiply" opacity="0.29">
<path d="M381.24 321.464C377.777 323.934 378.767 346.166 377.802 360.122C376.367 383.415 374.982 403.572 375.996 416.589C380.807 416.33 385.593 415.727 390.317 414.786L390.886 414.663L389.921 324.7C409.591 309.371 427.559 291.98 443.518 272.827C443.858 272.433 444.113 271.973 444.267 271.476C444.421 270.979 444.471 270.455 444.413 269.938C444.355 269.421 444.19 268.922 443.93 268.471C443.67 268.02 443.319 267.628 442.9 267.319C424.008 287.172 403.372 305.293 381.24 321.464Z" fill="#C0D5F3"/>
</g>
<path d="M397.759 498.647C396.844 492.003 391.799 442.304 389.078 415.132L375.994 416.589C375.994 416.589 395.063 573.023 396.3 624.205H402.36C402.36 624.205 399.021 507.836 397.759 498.647Z" fill="#241440"/>
<path d="M211.766 580.162C211.766 580.162 206.177 574.95 209.936 555.139C213.695 535.329 223.218 516.284 218.543 494.769C213.869 473.254 177.189 419.06 177.066 415.453C176.942 411.847 165.738 478.516 184.708 504.847C203.679 531.179 205.979 540.245 205.138 554.053C204.297 567.861 205.311 579.001 207.413 582.212L211.766 580.162Z" fill="#453F7B"/>
<path d="M208.303 540.319C206.102 549.162 204.766 571.319 208.303 576.63C208.649 577.124 209.119 576.852 209.713 575.913C208.625 572.258 207.932 565.835 209.96 555.14C213.72 535.378 223.242 516.284 218.567 494.769C213.893 473.254 177.214 419.06 177.09 415.453C177.09 415.453 182.605 460.607 201.229 491.706C214.536 513.962 210.504 531.476 208.303 540.319Z" fill="#383365"/>
<path d="M218.47 578.803C218.47 578.803 207.686 551.928 225.89 528.66C244.094 505.391 273.353 475.502 273.947 463.67C273.947 463.67 281.367 519.866 257.672 535.774C233.978 551.681 217.308 554.25 221.413 578.705L218.47 578.803Z" fill="#453F7B"/>
<path d="M244.118 524.609C217.604 543.876 215.453 566.082 219.558 576.358C219.697 576.74 219.927 577.081 220.229 577.353C220.531 577.624 220.895 577.817 221.29 577.914C217.728 554.3 234.275 551.607 257.746 535.922C281.218 520.237 274.021 463.819 274.021 463.819C274.021 463.819 270.632 505.193 244.118 524.609Z" fill="#383365"/>
<path d="M200.735 579.396C202.846 569.664 203.389 559.658 202.342 549.755C200.512 534.39 184.435 525.745 169.422 509.516C161.705 501.167 159.529 457.026 164.204 452.925C164.204 452.925 137.69 485.037 141.795 508.503C145.901 531.97 189.135 547.26 193.117 558.598C195.514 565.307 196.76 572.372 196.802 579.495L200.735 579.396Z" fill="#453F7B"/>
<path d="M155.252 465.597C146.496 489.286 155.474 517.989 184.585 535.823C206.004 548.94 199.178 576.235 199.178 576.235L202.69 565.465C203.048 560.245 202.932 555.003 202.344 549.804C200.514 534.44 184.437 525.794 169.424 509.565C162.004 501.513 159.531 460.163 163.735 453.567C160.706 457.432 157.874 461.447 155.252 465.597Z" fill="#383365"/>
<path d="M163.734 453.567L164.204 452.975C164.018 453.147 163.86 453.347 163.734 453.567Z" fill="#49B4D6"/>
<path d="M224.01 577.618C224.01 577.618 230.218 554.596 245.602 551.508C260.986 548.421 278.596 525.72 279.561 521.274C279.561 521.274 276.964 564.131 224.01 577.618Z" fill="#453F7B"/>
<path d="M244.711 559.191C235.288 563.884 231.38 570.207 229.871 575.963C277.013 560.821 279.338 521.348 279.338 521.348C278.741 522.961 277.908 524.476 276.864 525.844C272.536 533.872 261.332 550.817 244.711 559.191Z" fill="#383365"/>
<path d="M257.251 569.071H176.893L186.44 629.095C186.787 631.297 187.909 633.303 189.605 634.751C191.301 636.2 193.458 636.998 195.69 637H238.454C240.688 636.999 242.849 636.202 244.549 634.754C246.248 633.305 247.376 631.299 247.729 629.095L257.251 569.071Z" fill="#E63114"/>
<path d="M255.693 579.075L257.251 569.145H176.893L178.476 579.075H255.693Z" fill="#F54126"/>
<path d="M237.786 569.071L228.239 629.095C227.891 631.297 226.769 633.303 225.073 634.751C223.377 636.2 221.22 636.998 218.988 637H238.453C240.688 636.999 242.849 636.202 244.548 634.754C246.248 633.305 247.375 631.299 247.728 629.095L257.251 569.071H237.786Z" fill="#F54126"/>
<path d="M811.597 462.238H448.365V535.996H811.597V462.238Z" fill="#E63114"/>
<g style="mix-blend-mode:multiply" opacity="0.29">
<path d="M811.597 462.238H448.365V480.146H811.597V462.238Z" fill="#F98D2B"/>
</g>
<path d="M479.949 462.238H513.091L504.212 480.146H471.045L479.949 462.238Z" fill="#F77E2D"/>
<path d="M554.643 462.238H587.785L578.906 480.146H545.764L554.643 462.238Z" fill="#F77E2D"/>
<path d="M629.338 462.238H662.48L653.601 480.146H620.434L629.338 462.238Z" fill="#F77E2D"/>
<path d="M704.032 462.238H737.149L728.27 480.146H695.152L704.032 462.238Z" fill="#F77E2D"/>
<path d="M811.597 462.238V462.732L802.94 480.146H769.822L778.726 462.238H811.597Z" fill="#F77E2D"/>
<path d="M519.177 535.996H493.578V636.852H519.177V535.996Z" fill="#241440"/>
<path d="M519.176 535.996H513.363V636.852H519.176V535.996Z" fill="#1C0F32"/>
<path d="M768.363 535.996H742.764V636.852H768.363V535.996Z" fill="#241440"/>
<path d="M768.363 535.996H760.795V636.852H768.363V535.996Z" fill="#1C0F32"/>
<path d="M519.177 535.922H493.578V548.618H519.177V535.922Z" fill="#1C0F32"/>
<path d="M768.363 535.922H742.764V548.618H768.363V535.922Z" fill="#1C0F32"/>
<path d="M519.177 450.702H493.578V462.163H519.177V450.702Z" fill="#473071"/>
<path d="M519.176 450.702H513.363V462.163H519.176V450.702Z" fill="#2F1A53"/>
<path d="M768.363 450.702H742.764V462.163H768.363V450.702Z" fill="#473071"/>
<path d="M768.363 450.702H760.795V462.163H768.363V450.702Z" fill="#2F1A53"/>
<path d="M519.177 460.731H493.578V462.163H519.177V460.731Z" fill="#2F1A53"/>
<path d="M768.363 460.731H742.764V462.163H768.363V460.731Z" fill="#2F1A53"/>
<path d="M513.092 462.238L476.462 535.996H448.365V525.819L479.95 462.238H513.092Z" fill="#3C2465"/>
<path d="M554.644 462.238L518.014 535.996H551.156L587.786 462.238H554.644Z" fill="#3C2465"/>
<path d="M662.479 462.238L625.85 535.996H592.707L629.337 462.238H662.479Z" fill="#3C2465"/>
<path d="M737.15 462.238L700.545 535.996H667.402L704.032 462.238H737.15Z" fill="#3C2465"/>
<path d="M778.728 462.238L742.098 535.996H775.215L811.598 462.732L778.728 462.238Z" fill="#3C2465"/>
<path d="M513.091 462.238L504.212 480.146H471.045L479.949 462.238H513.091Z" fill="#473071"/>
<path d="M587.785 462.238L578.906 480.146H545.764L554.643 462.238H587.785Z" fill="#473071"/>
<path d="M662.48 462.238L653.601 480.146H620.434L629.338 462.238H662.48Z" fill="#473071"/>
<path d="M737.149 462.238L728.27 480.146H695.152L704.032 462.238H737.149Z" fill="#473071"/>
<path d="M811.597 462.732L802.94 480.146H769.822L778.726 462.238L811.597 462.732Z" fill="#473071"/>
<path d="M509.34 457.236C521.785 455.214 530.232 443.5 528.207 431.071C526.183 418.643 514.453 410.207 502.009 412.229C489.565 414.25 481.118 425.965 483.142 438.393C485.167 450.821 496.896 459.257 509.34 457.236Z" fill="#E63114"/>
<path d="M516.058 434.695C516.058 432.647 515.45 430.645 514.31 428.943C513.17 427.24 511.55 425.914 509.655 425.131C507.76 424.348 505.675 424.145 503.664 424.546C501.653 424.948 499.807 425.936 498.359 427.386C496.91 428.836 495.925 430.682 495.528 432.692C495.131 434.701 495.34 436.783 496.128 438.673C496.916 440.564 498.248 442.179 499.956 443.313C501.663 444.447 503.669 445.05 505.72 445.045C507.08 445.045 508.426 444.777 509.682 444.257C510.938 443.737 512.079 442.974 513.039 442.012C514 441.051 514.761 439.91 515.279 438.654C515.797 437.399 516.062 436.053 516.058 434.695Z" fill="#473071"/>
<path d="M759.047 457.257C771.492 455.235 779.939 443.521 777.914 431.093C775.89 418.665 764.16 410.228 751.716 412.25C739.272 414.272 730.825 425.986 732.849 438.415C734.874 450.843 746.603 459.279 759.047 457.257Z" fill="#E63114"/>
<path d="M765.767 434.696C765.762 432.654 765.151 430.661 764.012 428.966C762.873 427.271 761.257 425.952 759.368 425.174C757.478 424.396 755.4 424.195 753.396 424.596C751.392 424.998 749.553 425.983 748.109 427.428C746.666 428.873 745.684 430.713 745.287 432.715C744.89 434.717 745.096 436.792 745.879 438.677C746.662 440.562 747.988 442.174 749.687 443.307C751.387 444.44 753.385 445.045 755.428 445.045C756.788 445.045 758.134 444.777 759.39 444.257C760.646 443.737 761.787 442.974 762.748 442.012C763.708 441.051 764.469 439.91 764.987 438.654C765.505 437.399 765.77 436.054 765.767 434.696Z" fill="#473071"/>
<path d="M949.212 629.021H833.535L851.219 586.189L858.343 568.898L860.296 564.18L863.512 556.449L864.155 554.893L871.278 537.602L872.589 534.464L885.203 503.884C885.704 502.657 886.56 501.607 887.661 500.868C888.762 500.129 890.059 499.734 891.386 499.734C892.713 499.734 894.01 500.129 895.111 500.868C896.212 501.607 897.068 502.657 897.569 503.884L910.183 534.464L911.469 537.602L918.593 554.893L919.261 556.449L922.451 564.18L924.405 568.898L931.528 586.189L949.212 629.021Z" fill="#E63114"/>
<g style="mix-blend-mode:multiply" opacity="0.29">
<path d="M944.661 618.054H928.313L915.155 586.214L908.031 568.923L906.077 564.18L902.887 556.473L902.244 554.892L895.121 537.602L893.81 534.489L883.199 508.75L885.203 503.81C885.704 502.583 886.56 501.533 887.661 500.794C888.762 500.054 890.059 499.66 891.386 499.66C892.713 499.66 894.01 500.054 895.111 500.794C896.212 501.533 897.068 502.583 897.569 503.81L910.183 534.39L911.469 537.527L918.592 554.818L919.26 556.399L922.451 564.106L924.405 568.849L931.528 586.14L944.661 618.054Z" fill="#F98D2B"/>
</g>
<path d="M918.592 554.868H864.154L871.277 537.577H911.469L918.592 554.868Z" fill="#241440"/>
<path d="M931.528 586.165V586.189H851.219V586.165L858.342 568.874H924.404L931.528 586.165Z" fill="#241440"/>
<path d="M918.593 554.868H902.244L895.121 537.577H911.47L918.593 554.868Z" fill="#3B265F"/>
<path d="M931.527 586.165V586.189H915.153V586.165L908.055 568.874H924.403L931.527 586.165Z" fill="#3B265F"/>
<path d="M146.84 271.398C151.034 271.441 155.101 269.962 158.285 267.236C161.469 264.511 163.555 260.723 164.154 256.577C164.373 255.023 164.481 253.454 164.475 251.884C164.475 242.712 160.827 233.916 154.333 227.431C147.84 220.946 139.032 217.302 129.849 217.302C129.057 217.302 128.29 217.302 127.524 217.302C126.429 208.117 121.896 199.686 114.834 193.701C107.772 187.716 98.7046 184.621 89.4523 185.037C80.2 185.453 71.4477 189.349 64.9528 195.943C58.4579 202.538 54.7012 211.341 54.4371 220.587C54.4371 221.477 54.4371 222.366 54.4371 223.255C49.0534 220.264 43.0021 218.675 36.8414 218.635C30.6808 218.595 24.6094 220.106 19.1875 223.028C13.7655 225.949 9.1678 230.188 5.81857 235.352C2.46934 240.516 0.476498 246.44 0.0239671 252.576C0.0362412 252.724 0.0362412 252.872 0.0239671 253.02C-0.100466 255.392 0.260574 257.763 1.08502 259.99C1.90947 262.217 3.18 264.253 4.81897 265.973C6.45794 267.693 8.43092 269.062 10.6173 269.994C12.8037 270.927 15.1576 271.405 17.5351 271.398H146.84Z" fill="#D7F0F9" fill-opacity="0.1"/>
<path d="M1035.75 236.022C1062.96 236.022 1064.57 194.993 1037.29 193.659H1035.06C1030.32 193.652 1025.6 194.394 1021.09 195.858C1019.25 184.797 1013.51 174.762 1004.89 167.578C996.27 160.394 985.356 156.539 974.132 156.716C962.909 156.893 952.121 161.088 943.734 168.54C935.348 175.991 929.919 186.202 928.436 197.315C919.259 192.961 908.845 191.956 899.003 194.474C875.136 200.6 880.132 236.072 904.791 236.072L1035.75 236.022Z" fill="#D7F0F9" fill-opacity="0.1"/>
<path d="M165.284 0C177.048 7.71277 186.01 19.0076 190.84 32.209C195.67 45.4103 196.11 59.8149 192.095 73.2858C188.08 86.7566 179.824 98.5762 168.552 106.991C157.28 115.406 143.592 119.967 129.519 119.999H129C137.504 125.567 147.19 129.078 157.29 130.253C167.389 131.429 177.625 130.238 187.183 126.773C196.741 123.309 205.359 117.667 212.352 110.296C219.346 102.924 224.523 94.026 227.472 84.3075C230.421 74.589 231.061 64.3177 229.342 54.309C227.622 44.3003 223.59 34.8296 217.566 26.6488C211.542 18.4679 203.691 11.8022 194.637 7.18062C185.583 2.55905 175.575 0.108935 165.407 0.0247067L165.284 0Z" fill="#D7F0F9" fill-opacity="0.1"/>
</svg>
