<svg width="20" height="20" viewBox="0 0 20 20" fill="none" xmlns="http://www.w3.org/2000/svg">
<path d="M10 0C8.02219 0 6.08879 0.586489 4.4443 1.6853C2.79981 2.78412 1.51809 4.3459 0.761209 6.17316C0.0043329 8.00042 -0.1937 10.0111 0.192152 11.9509C0.578004 13.8907 1.53041 15.6725 2.92894 17.0711C4.32746 18.4696 6.10929 19.422 8.0491 19.8078C9.98891 20.1937 11.9996 19.9957 13.8268 19.2388C15.6541 18.4819 17.2159 17.2002 18.3147 15.5557C19.4135 13.9112 20 11.9778 20 10C20 7.34783 18.9464 4.8043 17.0711 2.92893C15.1957 1.05357 12.6522 0 10 0ZM5.935 1.87727L6.47728 2.25364C6.59721 2.3372 6.69439 2.44938 6.76 2.58L6.89637 2.85273C6.9687 2.99767 7.08001 3.11958 7.21779 3.20477C7.35557 3.28996 7.51437 3.33506 7.67637 3.335H8.64591C8.87725 3.335 9.09912 3.4269 9.2627 3.59048C9.42628 3.75407 9.51818 3.97593 9.51818 4.20727V4.22454C9.5183 4.38655 9.47322 4.54537 9.38803 4.68316C9.30283 4.82095 9.18089 4.93225 9.03591 5.00454L6.71 6.16818C6.67745 6.18406 6.64602 6.20214 6.61591 6.22227L5.42546 7.01591C5.29911 7.1003 5.19684 7.21604 5.12864 7.35182L4.95182 7.70727C4.89071 7.82811 4.85886 7.96163 4.85886 8.09704C4.85886 8.23246 4.89071 8.36598 4.95182 8.48682C5.03356 8.65071 5.0617 8.83616 5.03225 9.01692C5.0028 9.19768 4.91726 9.36461 4.78773 9.49409L4.76182 9.52045C4.62429 9.65801 4.4447 9.74561 4.25163 9.76933C4.05857 9.79306 3.86311 9.75153 3.69637 9.65136L2.175 8.73773C1.99654 8.63045 1.86227 8.46297 1.79637 8.26545L1.42228 7.14273C1.405 7.14273 1.39273 7.13727 1.37682 7.13682C2.13976 4.84919 3.77906 2.95765 5.935 1.87727ZM10.9459 13.2377C10.946 13.3009 10.9358 13.3637 10.9159 13.4236L10.5136 14.63C10.4849 14.7167 10.4364 14.7954 10.3718 14.86L9.64455 15.5873C9.56224 15.6694 9.50623 15.7741 9.48364 15.8882L9.09864 17.8118C9.08083 17.8994 9.04329 17.9818 8.98886 18.0527C8.93444 18.1235 8.86456 18.1811 8.78455 18.2209L8.46909 18.3791C8.35849 18.434 8.23346 18.4529 8.11157 18.433C7.98969 18.4132 7.87707 18.3557 7.78955 18.2686L7.205 17.6841C7.16034 17.6392 7.12306 17.5875 7.09455 17.5309L6.72319 16.7882C6.68263 16.7064 6.66147 16.6163 6.66137 16.525V14.6495C6.66116 14.5402 6.63063 14.4331 6.57317 14.3401C6.51572 14.2471 6.43358 14.1718 6.33591 14.1227L5.84864 13.8795C5.75668 13.8339 5.67831 13.765 5.62137 13.6795L4.85455 12.5291C4.78998 12.4325 4.7555 12.3189 4.75546 12.2027V11.7936C4.75575 11.6844 4.78632 11.5774 4.84377 11.4844C4.90122 11.3915 4.98331 11.3163 5.08091 11.2673L5.53228 11.04C5.6463 10.9832 5.73869 10.8908 5.79546 10.7768L6.02273 10.3255C6.0717 10.2281 6.14666 10.1461 6.23932 10.0887C6.33198 10.0312 6.43872 10.0005 6.54773 10H7.36864C7.44596 9.99994 7.52253 10.0151 7.59397 10.0447C7.66542 10.0742 7.73033 10.1176 7.785 10.1723L7.91637 10.3036C8.02688 10.414 8.17657 10.4761 8.33273 10.4764H8.45455C8.61087 10.477 8.76059 10.5395 8.87092 10.6502C8.98124 10.761 9.04319 10.9109 9.04318 11.0673C9.04343 11.1765 9.07393 11.2835 9.1313 11.3764C9.18867 11.4693 9.27067 11.5445 9.36818 11.5936L10.6227 12.2205C10.7203 12.2696 10.8024 12.3449 10.8597 12.4379C10.9171 12.5309 10.9476 12.638 10.9477 12.7473L10.9459 13.2377ZM13.3414 4.59727C13.3819 4.49908 13.4414 4.40981 13.5164 4.33454L14.3305 3.52091C14.3918 3.45962 14.4625 3.40852 14.54 3.36954L15.3945 2.94227C15.4692 2.90666 15.5489 2.88289 15.6309 2.87182C16.6125 3.64569 17.4245 4.61315 18.0164 5.71409H17.6145C17.4003 5.7141 17.1948 5.62909 17.0432 5.47773L16.945 5.37954C16.7934 5.22805 16.5879 5.14288 16.3736 5.14273H15.7564C15.6301 5.14237 15.5056 5.17164 15.3927 5.22818L14.5918 5.62909C14.4789 5.68544 14.3544 5.71455 14.2282 5.71409H14.0841C13.9513 5.714 13.8206 5.68118 13.7035 5.61854C13.5864 5.55591 13.4865 5.46538 13.4127 5.35496C13.3389 5.24455 13.2935 5.11766 13.2804 4.9855C13.2673 4.85335 13.287 4.72001 13.3377 4.59727H13.3414ZM16.7682 16.0541L16.7091 15.9091C16.6769 15.8119 16.6604 15.7101 16.6605 15.6077V14.5582C16.6604 14.4103 16.626 14.2645 16.56 14.1323L15.8082 12.6295C15.7422 12.4973 15.7078 12.3515 15.7077 12.2036V12.0645C15.7077 11.9023 15.6662 11.7427 15.5872 11.601C15.5082 11.4592 15.3943 11.34 15.2562 11.2547C15.1182 11.1694 14.9607 11.1207 14.7986 11.1134C14.6365 11.106 14.4752 11.1402 14.33 11.2127L14.0041 11.3759C13.872 11.4419 13.7263 11.4762 13.5786 11.4764H13.5373C13.3374 11.476 13.1426 11.4129 12.9805 11.296C12.8184 11.179 12.697 11.0141 12.6336 10.8245L12.4236 10.1941C12.3912 10.0969 12.3746 9.99516 12.3745 9.89272V9.12863C12.3745 8.97186 12.4132 8.81751 12.4872 8.6793C12.5612 8.54108 12.6682 8.42328 12.7986 8.33636L13.6659 7.75818C13.7567 7.6976 13.8573 7.65316 13.9632 7.62682L15.4386 7.25773C15.6146 7.21381 15.7993 7.2209 15.9714 7.27818L16.9895 7.61773C17.0869 7.65013 17.1888 7.66671 17.2914 7.66682H18.7773C19.1718 9.12123 19.1945 10.6514 18.8435 12.1169C18.4924 13.5824 17.7788 14.9363 16.7682 16.0541Z" fill="#E63114"/>
</svg>
