<svg width="22" height="15" viewBox="0 0 22 15" fill="none" xmlns="http://www.w3.org/2000/svg">
<path d="M11.3328 10.345C11.3328 8.65103 10.527 7.39887 8.86234 6.92953C10.0769 6.35112 10.7103 5.47478 10.7103 4.1117C10.7103 1.42403 8.701 0.768616 6.38275 0.768616H0V14.2629H6.5615C9.02183 14.2629 11.3328 13.0868 11.3328 10.345ZM2.9755 3.0722H5.76767C6.84108 3.0722 7.80725 3.37287 7.80725 4.61403C7.80725 5.75987 7.05558 6.22095 5.99225 6.22095H2.9755V3.0722ZM2.97458 11.9712V8.25503H6.21775C7.52767 8.25503 8.35633 8.79953 8.35633 10.1819C8.35633 11.5449 7.36725 11.9712 6.15633 11.9712H2.97458Z" fill="#7141B3"/>
<path d="M17.2297 14.5186C19.5708 14.5186 21.087 13.4672 21.8167 11.2324H19.4407C19.1849 12.0665 18.1308 12.5074 17.3131 12.5074C15.7355 12.5074 14.9068 11.5862 14.9068 10.0205H21.9771C21.989 9.86195 22 9.69053 22 9.51912C22 6.62887 20.3042 4.21895 17.2297 4.21895C14.2422 4.21895 12.2146 6.45745 12.2146 9.38987C12.2137 12.4314 14.135 14.5186 17.2297 14.5186ZM17.1453 6.24478C18.4974 6.24478 19.1776 7.03678 19.2913 8.33203H14.9105C14.9994 7.04778 15.8547 6.24478 17.1453 6.24478Z" fill="#7141B3"/>
<path d="M14.3614 1.4772H19.8504V2.80637H14.3614V1.4772Z" fill="#7141B3"/>
</svg>
