<svg width="11" height="11" viewBox="0 0 11 11" fill="none" xmlns="http://www.w3.org/2000/svg">
<path d="M9.79487 10.9506C10.1139 10.9505 10.4027 10.8211 10.6118 10.612C10.8209 10.4029 10.9503 10.114 10.9505 9.79505L10.9529 4.00716C10.9532 3.36919 10.4362 2.85225 9.79828 2.85252C9.16031 2.85279 8.64294 3.37017 8.64267 4.00814L8.6414 7.00731L2.3459 0.711805C1.89499 0.260895 1.1636 0.261203 0.712311 0.712494C0.26102 1.16379 0.260711 1.89517 0.711622 2.34608L7.00712 8.64159L4.00795 8.64285C3.36998 8.64312 2.85261 9.1605 2.85234 9.79846C2.85207 10.4364 3.36901 10.9534 4.00698 10.9531L9.79487 10.9506Z" fill="#E63114"/>
</svg>
