<svg width="9" height="7" viewBox="0 0 9 7" fill="none" xmlns="http://www.w3.org/2000/svg">
<path d="M8.78259 4.04475C8.92754 3.8943 9 3.69718 9 3.5C9 3.30287 8.92751 3.10565 8.78258 2.95525L6.15271 0.225651C5.86284 -0.075217 5.39286 -0.075217 5.10299 0.225651C4.81311 0.526519 4.81311 1.01431 5.10299 1.31517L6.46574 2.72959L0.742266 2.72959C0.332326 2.72959 -1.71588e-07 3.07452 -1.5299e-07 3.5C-1.34391e-07 3.92548 0.332326 4.27041 0.742266 4.27041L6.46574 4.27041L5.10299 5.68483C4.81311 5.98569 4.81311 6.47348 5.10299 6.77435C5.39286 7.07522 5.86284 7.07522 6.15271 6.77435L8.78259 4.04475Z" fill="white"/>
</svg>
