<svg width="55" height="52" viewBox="0 0 55 52" fill="none" xmlns="http://www.w3.org/2000/svg">
<rect x="0.5" y="0.5" width="54" height="51" rx="9.5" stroke="url(#paint0_linear_20_17)"/>
<path d="M32.0261 17.0035L29.7764 17C27.249 17 25.6157 18.6421 25.6157 21.1837V23.1127H23.3537C23.1583 23.1127 23 23.268 23 23.4595V26.2544C23 26.4459 23.1585 26.601 23.3537 26.601H25.6157V33.6534C25.6157 33.8449 25.774 34 25.9694 34H28.9206C29.1161 34 29.2744 33.8447 29.2744 33.6534V26.601H31.9191C32.1145 26.601 32.2728 26.4459 32.2728 26.2544L32.2739 23.4595C32.2739 23.3675 32.2366 23.2795 32.1703 23.2144C32.1041 23.1493 32.0138 23.1127 31.92 23.1127H29.2744V21.4775C29.2744 20.6915 29.4655 20.2925 30.5103 20.2925L32.0258 20.292C32.221 20.292 32.3793 20.1367 32.3793 19.9454V17.3502C32.3793 17.159 32.2212 17.0039 32.0261 17.0035Z" fill="white" fill-opacity="0.7"/>
<defs>
<linearGradient id="paint0_linear_20_17" x1="27.5" y1="0" x2="27.5" y2="52" gradientUnits="userSpaceOnUse">
<stop stop-color="#5418A3"/>
<stop offset="1" stop-color="#5418A3" stop-opacity="0.76"/>
</linearGradient>
</defs>
</svg>
