<svg width="583" height="507" viewBox="0 0 583 507" fill="none" xmlns="http://www.w3.org/2000/svg">
<path d="M316.636 90.2368C311.651 84.153 304.914 79.7214 297.324 77.5328C289.735 75.3442 281.653 75.5026 274.157 77.987C247.334 85.9414 235.727 106.683 237.11 134.742C238.493 162.801 261.487 186.446 241.12 213.729C241.12 213.729 281.213 215.598 296.489 197.383C306.512 185.451 293.883 200.724 293.883 200.724C293.883 200.724 329.005 215.956 344 213.789C327.481 186.485 336.723 183.96 340.592 158.267C344.461 132.574 345.624 92.5833 316.636 90.2368Z" fill="#8E342E"/>
<path d="M79.7748 357.723L65.7481 348.358C65.7481 348.358 66.0858 335.864 59.3705 328.905C52.6552 321.947 46.536 310.255 44.2313 311.037C41.9267 311.819 39.0459 321.726 49.9731 332.455C49.9731 332.455 26.6086 336.466 17.8469 330.77C9.08524 325.075 2.72756 316.913 0.780518 322.167C-1.16652 327.421 -0.868506 344.888 18.6615 356.038C38.1915 367.188 52.8738 361.413 52.8738 361.413L76.5562 379L88 361.413L79.7748 357.723Z" fill="#FFCDA8"/>
<path d="M240 272.752L216.395 246C216.395 246 175.335 309.224 154.286 387.116C154.286 387.116 96.3706 350.247 78.6166 337.904C78.6166 337.904 59.3848 357.283 49 375.887C49 375.887 130.66 450.957 156.443 461.133C182.225 471.309 234.169 388.567 234.169 388.567L240 272.752Z" fill="#D2E3FC"/>
<path d="M353.893 271.321L367.729 248C367.729 248 407.496 307.468 442.325 408.958C443.943 413.741 444.397 418.839 443.651 423.832C442.904 428.824 440.977 433.568 438.029 437.674C435.081 441.779 431.196 445.128 426.694 447.445C422.192 449.762 417.202 450.98 412.134 451H354.153L333 364.606L353.893 271.321Z" fill="#D2E3FC"/>
<path d="M320.91 474C326.26 448.664 344 349.518 344 349.518L339.267 243.983L292.49 234L245.733 243.983L241 349.518C241 349.518 258.74 448.664 264.09 474H320.91Z" fill="#D2E3FC"/>
<path d="M293 474H369.769C372.387 444.118 383.382 305.483 367.896 245.878C349.563 237.047 330.382 230.053 310.641 225C310.641 225 296.383 377.181 293 474Z" fill="#453F7B"/>
<path d="M297 474C293.627 377.189 273.166 225 273.166 225C253.483 230.052 234.359 237.046 216.08 245.876C200.639 305.477 211.603 444.04 214.213 473.98L297 474Z" fill="#453F7B"/>
<path d="M291.951 192L307.678 200.917L311 225.608C311 225.608 309.526 239.963 291.99 249C274.474 239.963 273 225.608 273 225.608L276.322 200.917L291.951 192Z" fill="#F0C19F"/>
<path d="M356.824 160.019C359.455 148.819 352.508 137.606 341.308 134.975C330.108 132.344 318.895 139.29 316.264 150.491C313.633 161.691 320.58 172.903 331.78 175.535C342.98 178.166 354.193 171.219 356.824 160.019Z" fill="#E63114"/>
<path d="M262.301 170.014C270.436 161.878 270.436 148.688 262.301 140.553C254.165 132.417 240.975 132.417 232.84 140.553C224.704 148.688 224.704 161.878 232.84 170.014C240.975 178.149 254.165 178.149 262.301 170.014Z" fill="#E63114"/>
<path d="M337.604 133H330.396C329.073 133 328 134.065 328 135.379V174.621C328 175.935 329.073 177 330.396 177H337.604C338.927 177 340 175.935 340 174.621V135.379C340 134.065 338.927 133 337.604 133Z" fill="#DB2F13"/>
<path d="M245.795 177H254.205C255.748 177 257 175.935 257 174.621V135.379C257 134.065 255.748 133 254.205 133H245.795C244.252 133 243 134.065 243 135.379V174.621C243 175.935 244.252 177 245.795 177Z" fill="#DB2F13"/>
<path d="M292.5 89C315.765 89 334.198 110.046 333.998 146.619C333.799 184.377 319.46 211 292.5 211C265.54 211 251.221 184.377 251.002 146.619C250.802 109.965 269.255 89 292.5 89Z" fill="#FFCDA8"/>
<path d="M317.534 118.541C313.157 124.4 307.581 129.25 301.181 132.766C294.781 136.282 287.705 138.382 280.428 138.925L285.072 128.733C285.072 128.733 252.214 138.885 252.214 165C252.214 165 248.361 141.205 249.092 132.798C249.823 124.39 253.36 107.219 264.563 96.4516C281.891 79.7755 313.958 88.52 321.169 97.1654C328.381 105.811 335 114.892 335 130.875C334.833 139.274 334.173 147.656 333.024 155.978C333.024 155.978 318.028 147.432 317.534 118.541Z" fill="#8E342E"/>
<path d="M291.891 250.379C299.566 250.258 322.096 269 322.096 269C322.096 269 324.405 242.061 321.643 227.144C319.369 221.683 315.128 217.333 309.805 215C309.805 215 308.128 228.844 291.951 246.655C275.793 228.844 274.195 215 274.195 215C268.873 217.335 264.633 221.684 262.357 227.144C259.595 242.061 261.904 269 261.904 269C261.904 269 284.237 250.258 291.891 250.379Z" fill="#B7D3F3"/>
<path d="M293 294C295.209 294 297 292.433 297 290.5C297 288.567 295.209 287 293 287C290.791 287 289 288.567 289 290.5C289 292.433 290.791 294 293 294Z" fill="white"/>
<path d="M293 354C295.209 354 297 351.985 297 349.5C297 347.015 295.209 345 293 345C290.791 345 289 347.015 289 349.5C289 351.985 290.791 354 293 354Z" fill="white"/>
<path d="M386.701 501H208.299C207.341 501 206.392 500.819 205.506 500.466C204.62 500.114 203.816 499.598 203.138 498.947C202.46 498.296 201.922 497.523 201.556 496.673C201.189 495.822 201 494.911 201 493.991C201 493.071 201.189 492.16 201.556 491.311C201.923 490.462 202.461 489.69 203.139 489.041C203.817 488.391 204.622 487.877 205.508 487.527C206.393 487.176 207.342 486.998 208.299 487H386.701C387.658 486.998 388.607 487.176 389.492 487.527C390.378 487.877 391.183 488.391 391.861 489.041C392.539 489.69 393.077 490.462 393.444 491.311C393.811 492.16 394 493.071 394 493.991C394 495.85 393.231 497.632 391.862 498.947C390.493 500.261 388.636 501 386.701 501Z" fill="#ACACE5"/>
<path d="M405.432 468H180.568C176.704 468 172.999 466.475 170.267 463.762C167.535 461.048 166 457.367 166 453.53V319.49C165.997 317.154 166.564 314.852 167.652 312.781C168.74 310.71 170.316 308.931 172.246 307.597C174.683 305.898 177.591 304.991 180.568 305H405.432C407.346 304.997 409.241 305.37 411.01 306.096C412.779 306.823 414.386 307.888 415.739 309.233C417.092 310.577 418.165 312.173 418.896 313.93C419.628 315.687 420.003 317.569 420 319.47V453.51C420.003 455.411 419.628 457.294 418.896 459.05C418.165 460.807 417.092 462.403 415.739 463.748C414.386 465.092 412.779 466.158 411.01 466.884C409.241 467.61 407.346 467.983 405.432 467.98V468Z" fill="white"/>
<path d="M318.699 399H272.301L261 494H330L318.699 399Z" fill="#CECEE0"/>
<path d="M515.5 315.5C515.5 335.376 499.165 351.5 479 351.5C458.835 351.5 442.5 335.376 442.5 315.5C442.5 295.624 458.835 279.5 479 279.5C499.165 279.5 515.5 295.624 515.5 315.5Z" stroke="url(#paint0_linear_503_29285)"/>
<path d="M460 300V331H498V300H460ZM494.994 301.783L478.99 317.992L462.986 301.783H494.994Z" fill="#E63114"/>
<path d="M399.315 6.81785C419.071 10.0424 432.473 28.6717 429.248 48.4277C426.024 68.1836 407.394 81.585 387.638 78.3604C367.882 75.1359 354.481 56.5065 357.706 36.7506C360.93 16.9946 379.559 3.59331 399.315 6.81785Z" stroke="url(#paint1_linear_503_29285)"/>
<path d="M388 57V28L409 42.5L388 57Z" fill="#E63114"/>
<path d="M144.601 174.828C164.091 179.392 176.191 198.892 171.626 218.382C167.062 237.872 147.562 249.972 128.072 245.408C108.582 240.844 96.4825 221.344 101.047 201.854C105.611 182.364 125.111 170.264 144.601 174.828Z" stroke="url(#paint2_linear_503_29285)"/>
<path fill-rule="evenodd" clip-rule="evenodd" d="M121 202.015C121.001 200.535 121.319 199.072 121.934 197.725C122.549 196.377 123.447 195.177 124.566 194.204C125.448 193.345 126.702 191.822 128.054 192.017C129.406 192.212 130.523 193.755 131.248 194.829C132.463 196.782 134.482 199.555 132.62 201.702C131.758 202.718 130.386 203.265 129.583 204.358C129.274 204.94 129.131 205.596 129.169 206.253C129.207 206.91 129.425 207.545 129.798 208.088C131.207 210.699 133.134 212.997 135.461 214.844C135.93 215.339 136.495 215.732 137.122 216.001C137.748 216.27 138.424 216.408 139.106 216.406C140.497 216.172 141.595 214.649 142.614 213.79C145.24 211.681 148.12 214.571 150.04 216.289C150.579 216.642 151.034 217.108 151.373 217.654C151.711 218.201 151.925 218.815 152 219.452C152 220.8 150.197 221.893 149.257 222.674C148.013 223.676 146.556 224.381 144.998 224.736C143.439 225.092 141.819 225.088 140.262 224.725C136.864 223.826 133.758 222.063 131.248 219.609C128.615 217.214 126.303 214.49 124.37 211.505C122.388 208.71 121.24 205.413 121.059 201.995C121.02 200.277 121.118 202.933 121 202.015Z" fill="#E63114"/>
<path d="M545 90H542V93H545V90Z" fill="white"/>
<path d="M545 117H542V119H545V117Z" fill="white"/>
<path d="M545 143H542V145H545V143Z" fill="white"/>
<path d="M545 169H542V171H545V169Z" fill="white"/>
<path d="M545 195V198H542V195H545Z" fill="white"/>
<path d="M545 221H542V224H545V221Z" fill="white"/>
<path d="M522 90H519V93H522V90Z" fill="white"/>
<path d="M522 117H519V119H522V117Z" fill="white"/>
<path d="M522 143H519V145H522V143Z" fill="white"/>
<path d="M522 169H519V171H522V169Z" fill="white"/>
<path d="M522 195H519V198H522V195Z" fill="white"/>
<path d="M498 90H496V93H498V90Z" fill="white"/>
<path d="M498 117H496V119H498V117Z" fill="white"/>
<path d="M498 143H496V145H498V143Z" fill="white"/>
<path d="M498 169H496V171H498V169Z" fill="white"/>
<path d="M405 183.548C405.278 181.921 406.012 180.422 407.106 179.252C408.2 178.083 409.601 177.297 411.122 177V178.113C409.857 178.395 408.697 179.065 407.783 180.042C406.87 181.02 406.243 182.261 405.98 183.614L405 183.548ZM413.837 178.048C415.102 178.329 416.262 179 417.176 179.977C418.09 180.954 418.716 182.195 418.98 183.548H420C419.722 181.921 418.988 180.422 417.894 179.252C416.8 178.083 415.399 177.297 413.878 177L413.837 178.048ZM411.163 191.887C409.896 191.611 408.733 190.942 407.818 189.964C406.904 188.986 406.279 187.741 406.02 186.386H405C405.278 188.014 406.012 189.512 407.106 190.682C408.2 191.852 409.601 192.638 411.122 192.935L411.163 191.887ZM418.98 186.386C418.721 187.741 418.096 188.986 417.182 189.964C416.267 190.942 415.104 191.611 413.837 191.887V193C415.358 192.703 416.759 191.917 417.853 190.748C418.947 189.578 419.682 188.079 419.959 186.452L418.98 186.386Z" fill="white"/>
<path d="M529 371.73C529.283 370.308 530.019 369 531.112 367.977C532.205 366.954 533.603 366.265 535.122 366V366.974C533.859 367.223 532.699 367.81 531.786 368.665C530.873 369.519 530.245 370.604 529.98 371.787L529 371.73ZM537.837 366.917C539.101 367.165 540.26 367.753 541.173 368.607C542.086 369.462 542.714 370.547 542.98 371.73H544C543.717 370.308 542.981 369 541.888 367.977C540.795 366.954 539.397 366.265 537.878 366L537.837 366.917ZM535.163 379.045C533.899 378.796 532.74 378.209 531.827 377.354C530.914 376.5 530.286 375.415 530.02 374.232H529C529.278 375.656 530.012 376.967 531.106 377.991C532.2 379.014 533.601 379.702 535.122 379.962L535.163 379.045ZM542.98 374.232C542.714 375.415 542.086 376.5 541.173 377.354C540.26 378.209 539.101 378.796 537.837 379.045V380C539.36 379.743 540.762 379.056 541.856 378.032C542.951 377.008 543.684 375.695 543.959 374.27L542.98 374.232Z" fill="white"/>
<path d="M106 323.73C106.277 322.306 107.011 320.995 108.103 319.971C109.195 318.947 110.594 318.26 112.114 318V318.955C110.848 319.2 109.686 319.786 108.77 320.641C107.854 321.496 107.225 322.583 106.958 323.768L106 323.73ZM114.825 318.917C116.087 319.165 117.245 319.753 118.157 320.607C119.069 321.462 119.695 322.547 119.961 323.73H121C120.717 322.308 119.982 320.999 118.891 319.977C117.799 318.954 116.403 318.265 114.886 318L114.825 318.917ZM112.175 331.045C110.909 330.8 109.747 330.214 108.831 329.359C107.916 328.504 107.286 327.417 107.019 326.232H106C106.277 327.656 107.011 328.967 108.103 329.991C109.195 331.014 110.594 331.702 112.114 331.962L112.175 331.045ZM119.961 326.232C119.695 327.415 119.069 328.5 118.157 329.354C117.245 330.209 116.087 330.796 114.825 331.045V332C116.342 331.735 117.738 331.046 118.83 330.023C119.921 329.001 120.656 327.692 120.939 326.27L119.961 326.232Z" fill="white"/>
<path d="M166 122.73C166.28 121.307 167.014 119.997 168.106 118.974C169.198 117.951 170.596 117.262 172.114 117V117.974C170.848 118.219 169.686 118.805 168.77 119.66C167.854 120.515 167.225 121.602 166.958 122.787L166 122.73ZM174.825 117.917C176.088 118.163 177.247 118.75 178.159 119.605C179.072 120.46 179.698 121.546 179.961 122.73H181C180.715 121.309 179.979 120.002 178.888 118.98C177.797 117.957 176.402 117.267 174.886 117L174.825 117.917ZM172.175 130.026C170.906 129.788 169.74 129.204 168.823 128.348C167.906 127.492 167.278 126.401 167.019 125.213H166C166.28 126.636 167.014 127.946 168.106 128.969C169.198 129.992 170.596 130.68 172.114 130.943L172.175 130.026ZM179.961 125.213C179.703 126.399 179.078 127.487 178.165 128.343C177.252 129.199 176.09 129.784 174.825 130.026V131C176.341 130.733 177.736 130.043 178.826 129.02C179.917 127.998 180.654 126.691 180.939 125.27L179.961 125.213Z" fill="white"/>
<defs>
<linearGradient id="paint0_linear_503_29285" x1="479" y1="279" x2="479" y2="352" gradientUnits="userSpaceOnUse">
<stop stop-color="#5418A3"/>
<stop offset="1" stop-color="#5418A3" stop-opacity="0.76"/>
</linearGradient>
<linearGradient id="paint1_linear_503_29285" x1="357.212" y1="36.6701" x2="429.742" y2="48.5082" gradientUnits="userSpaceOnUse">
<stop stop-color="#5418A3"/>
<stop offset="1" stop-color="#5418A3" stop-opacity="0.76"/>
</linearGradient>
<linearGradient id="paint2_linear_503_29285" x1="100.56" y1="201.74" x2="172.113" y2="218.496" gradientUnits="userSpaceOnUse">
<stop stop-color="#5418A3"/>
<stop offset="1" stop-color="#5418A3" stop-opacity="0.76"/>
</linearGradient>
</defs>
</svg>
