<svg width="16" height="22" viewBox="0 0 16 22" fill="none" xmlns="http://www.w3.org/2000/svg">
<path d="M7.96552 0C3.57331 0 0 3.57423 0 7.96753C0 13.4198 7.12836 21.4239 7.43185 21.762C7.71692 22.0796 8.21463 22.079 8.49918 21.762C8.80268 21.4239 15.931 13.4198 15.931 7.96753C15.9309 3.57423 12.3577 0 7.96552 0ZM7.96552 11.9762C5.75569 11.9762 3.95791 10.1779 3.95791 7.96753C3.95791 5.75713 5.75573 3.95889 7.96552 3.95889C10.1753 3.95889 11.9731 5.75717 11.9731 7.96758C11.9731 10.178 10.1753 11.9762 7.96552 11.9762Z" fill="white" fill-opacity="0.7"/>
</svg>
