<svg width="20" height="16" viewBox="0 0 20 16" fill="none" xmlns="http://www.w3.org/2000/svg">
<path d="M18.2141 15.7143C18.6637 15.7143 19.0533 15.5658 19.3844 15.2727L13.7181 9.60623C13.5821 9.70358 13.4504 9.79824 13.3259 9.88825C12.9019 10.2007 12.5577 10.4445 12.2934 10.6192C12.0292 10.7943 11.6776 10.9727 11.2388 11.1549C10.7996 11.3374 10.3905 11.4283 10.011 11.4283H9.98876C9.6092 11.4283 9.20008 11.3374 8.76097 11.1549C8.32186 10.9727 7.9703 10.7943 7.70632 10.6192C7.44208 10.4445 7.0981 10.2007 6.67384 9.88825C6.55561 9.80158 6.4245 9.70648 6.28274 9.6047L0.615329 15.2727C0.94645 15.5658 1.33625 15.7143 1.78578 15.7143H18.2141Z" fill="white" fill-opacity="0.7"/>
<path d="M1.12735 6.03801C0.703347 5.75533 0.327345 5.43158 0 5.06691V13.6881L4.99427 8.6938C3.99513 7.99627 2.7078 7.11202 1.12735 6.03801Z" fill="white" fill-opacity="0.7"/>
<path d="M18.8839 6.03801C17.3638 7.06692 16.0718 7.95269 15.0077 8.6958L20 13.6883V5.06691C19.6799 5.42425 19.3079 5.74778 18.8839 6.03801Z" fill="white" fill-opacity="0.7"/>
<path d="M18.2141 0H1.78582C1.21268 0 0.772048 0.193538 0.463367 0.580214C0.154431 0.967071 0.000217867 1.45088 0.000217867 2.03109C0.000217867 2.49976 0.204868 3.00757 0.613985 3.55467C1.0231 4.10155 1.45844 4.53111 1.91977 4.84356C2.17268 5.02225 2.93536 5.55246 4.20781 6.43402C4.89471 6.91002 5.49206 7.32491 6.00539 7.68294C6.44294 7.98781 6.82029 8.25183 7.13184 8.47093C7.1676 8.49602 7.22385 8.53625 7.2985 8.58963C7.37893 8.6474 7.48071 8.72071 7.60628 8.81138C7.84807 8.98625 8.04895 9.12761 8.20893 9.2356C8.3687 9.34362 8.56228 9.46429 8.78937 9.59827C9.01628 9.73208 9.23029 9.8327 9.43117 9.89962C9.63208 9.9665 9.81806 10.0001 9.98916 10.0001H10.0114C10.1824 10.0001 10.3685 9.9665 10.5694 9.89962C10.7703 9.8327 10.9841 9.7323 11.2112 9.59827C11.438 9.46429 11.6314 9.34337 11.7916 9.2356C11.9516 9.12761 12.1525 8.98629 12.3943 8.81138C12.5196 8.72071 12.6214 8.64736 12.7019 8.58981C12.7766 8.53621 12.8328 8.49623 12.8687 8.47093C13.1114 8.30204 13.4897 8.03911 13.9982 7.68603C14.9234 7.04314 16.2861 6.09691 18.092 4.84356C18.6351 4.46422 19.0888 4.00645 19.4535 3.4709C19.8175 2.93535 20 2.37358 20 1.78578C20 1.29467 19.8231 0.874442 19.4699 0.52444C19.1164 0.174874 18.6978 0 18.2141 0Z" fill="white" fill-opacity="0.7"/>
</svg>
