<svg width="18" height="12" viewBox="0 0 18 12" fill="none" xmlns="http://www.w3.org/2000/svg">
<path d="M8.97176 7.74735C8.97176 6.40626 8.33388 5.41496 7.01602 5.04341C7.97756 4.58549 8.47901 3.89173 8.47901 2.81262C8.47901 0.684887 6.88829 0.166016 5.05301 0.166016H0V10.849H5.19452C7.14229 10.849 8.97176 9.9179 8.97176 7.74735ZM2.3556 1.98969H4.56607C5.41586 1.98969 6.18074 2.22771 6.18074 3.2103C6.18074 4.11742 5.58567 4.48245 4.74387 4.48245H2.3556V1.98969ZM2.35488 9.03473V6.09276H4.92239C5.9594 6.09276 6.61543 6.52383 6.61543 7.61817C6.61543 8.69728 5.83241 9.03473 4.87376 9.03473H2.35488Z" fill="white" fill-opacity="0.7"/>
<path d="M13.6402 11.0514C15.4936 11.0514 16.6939 10.2191 17.2715 8.44982H15.3905C15.1881 9.1102 14.3535 9.45926 13.7062 9.45926C12.4573 9.45926 11.8012 8.72994 11.8012 7.49045H17.3985C17.408 7.36491 17.4167 7.2292 17.4167 7.09349C17.4167 4.80538 16.0741 2.89753 13.6402 2.89753C11.2751 2.89753 9.66988 4.66968 9.66988 6.99117C9.66915 9.39903 11.1902 11.0514 13.6402 11.0514ZM13.5734 4.50131C14.6438 4.50131 15.1823 5.12831 15.2722 6.15372H11.8041C11.8745 5.13702 12.5516 4.50131 13.5734 4.50131Z" fill="white" fill-opacity="0.7"/>
<path d="M11.3695 0.726977H15.7149V1.77923H11.3695V0.726977Z" fill="white" fill-opacity="0.7"/>
</svg>
