<svg width="175" height="70" viewBox="0 0 175 70" fill="none" xmlns="http://www.w3.org/2000/svg">
<path fill-rule="evenodd" clip-rule="evenodd" d="M37.5963 16.4598V10.8138H47.9451V0H25.7861V14.0686H26.4902C30.3185 14.0828 34.1014 14.8973 37.5963 16.4598Z" fill="white"/>
<path fill-rule="evenodd" clip-rule="evenodd" d="M0 0V10.8138H10.3621V19.5286C13.8144 16.8803 17.8662 15.1236 22.159 14.414V0H0Z" fill="white"/>
<path fill-rule="evenodd" clip-rule="evenodd" d="M15.8223 37.9422V47.9722H36.9583V68.4573H48.1308V37.9023L15.8223 37.9422Z" fill="white"/>
<path fill-rule="evenodd" clip-rule="evenodd" d="M45.3408 24.6832C40.224 19.899 33.4946 17.2149 26.4897 17.1641C19.5347 17.1641 12.8645 19.9269 7.94649 24.8449C3.02851 29.7629 0.265625 36.4331 0.265625 43.3882C0.265625 50.3432 3.02851 57.0134 7.94649 61.9314C12.8645 66.8494 19.5347 69.6123 26.4897 69.6123C28.8767 69.5784 31.2453 69.1888 33.5174 68.4565V51.266H22.3316V57.9084C15.5298 56.3939 11.2255 49.7383 11.2255 43.0693C11.2481 41.0509 11.6686 39.0568 12.4631 37.2012C13.2576 35.3455 14.4105 33.6649 15.8556 32.2556C17.3007 30.8463 19.0097 29.7359 20.8846 28.9882C22.7596 28.2405 24.7636 27.8701 26.782 27.8981C28.8092 27.8728 30.8203 28.2602 32.6931 29.0367C34.5658 29.8132 36.261 30.9626 37.6755 32.415L45.3408 24.6832Z" fill="white"/>
<path fill-rule="evenodd" clip-rule="evenodd" d="M60.0732 22.903V21.3885H68.5356V22.903H65.0949V36.8653H63.5273V22.903H60.0732ZM70.794 21.3885H79.7081V22.903H72.4015V27.7519H79.6417V29.2265H72.3483V35.3242H79.5885V36.8387H70.794V21.3885ZM96.7392 24.2448L95.517 25.2411C94.8837 24.3914 94.0541 23.7077 93.0991 23.2484C92.1264 22.7951 91.0636 22.568 89.9905 22.5842C88.7895 22.573 87.6069 22.8801 86.563 23.4743C85.5437 24.0312 84.6978 24.8586 84.1186 25.8655C83.5381 26.8895 83.2401 28.0495 83.2551 29.2265C83.2323 30.1063 83.393 30.9812 83.7269 31.7955C84.0608 32.6097 84.5607 33.3455 85.1947 33.9559C85.8402 34.5847 86.6058 35.0769 87.4458 35.4033C88.2857 35.7297 89.1828 35.8835 90.0835 35.8556C91.1309 35.8594 92.1653 35.6231 93.1072 35.1648C94.0491 34.7065 94.8735 34.0385 95.517 33.212L96.7392 34.1419C95.976 35.121 94.9868 35.9005 93.8564 36.4136C92.6441 36.9681 91.3234 37.245 89.9905 37.224C88.7925 37.287 87.5957 37.0811 86.4877 36.6214C85.3797 36.1616 84.3886 35.4597 83.5872 34.567C82.2724 33.0358 81.5718 31.0715 81.6211 29.0538C81.5963 27.9884 81.7951 26.9295 82.2046 25.9456C82.6142 24.9617 83.2255 24.0745 83.9991 23.3414C84.786 22.5729 85.7199 21.9709 86.7447 21.5715C87.7696 21.1721 88.8645 20.9833 89.9639 21.0166C91.34 20.9908 92.7036 21.2817 93.9494 21.8668C95.0573 22.423 96.0144 23.2389 96.7392 24.2448ZM99.8212 21.3885H101.376V27.8981H109.253V21.3885H110.808V36.8653H109.253V29.386H101.376V36.8653H99.8212V21.3885ZM114.581 36.8653V21.3885H114.913L125.208 33.212V21.3885H126.749V36.8653H126.404L116.175 25.1348V36.8653H114.581ZM137.869 21.0033C138.958 20.972 140.043 21.1645 141.055 21.5689C142.067 21.9734 142.986 22.5812 143.754 23.3547C144.525 24.1009 145.134 24.9979 145.543 25.9899C145.952 26.9818 146.153 28.0474 146.132 29.1203C146.132 30.1855 145.921 31.2401 145.512 32.2236C145.103 33.207 144.503 34.0998 143.747 34.8505C142.992 35.6013 142.095 36.1951 141.109 36.5979C140.123 37.0007 139.067 37.2044 138.002 37.1974C136.925 37.2178 135.856 37.02 134.858 36.6158C133.86 36.2117 132.955 35.6097 132.196 34.846C131.441 34.119 130.842 33.2458 130.435 32.2796C130.029 31.3135 129.823 30.2747 129.831 29.2265C129.82 27.7786 130.191 26.3534 130.908 25.095C131.597 23.8507 132.612 22.8174 133.843 22.1059C135.054 21.4035 136.429 21.0323 137.829 21.0299L137.869 21.0033ZM137.869 22.5177C136.723 22.5335 135.602 22.8452 134.612 23.4224C133.623 23.9997 132.8 24.823 132.223 25.8124C131.656 26.8585 131.381 28.0376 131.426 29.2265C131.417 30.0857 131.579 30.9381 131.902 31.734C132.226 32.53 132.704 33.2538 133.31 33.8632C133.916 34.4726 134.637 34.9555 135.431 35.2839C136.225 35.6122 137.076 35.7795 137.935 35.7759C139.103 35.7863 140.253 35.4885 141.27 34.9124C142.271 34.3494 143.098 33.5222 143.661 32.5212C144.241 31.4971 144.539 30.3372 144.524 29.1601C144.539 27.9916 144.24 26.8404 143.661 25.8257C143.07 24.8346 142.232 24.0145 141.228 23.4462C140.224 22.8778 139.089 22.5807 137.935 22.5842L137.869 22.5177ZM149.161 21.3885H156.906V22.903H150.702V27.7519H156.906V29.2265H150.702V36.8387H149.161V21.3885ZM159.39 21.3885H160.931V36.8653H159.417L159.39 21.3885ZM163.668 21.3885H165.474L169.168 27.4065L172.887 21.3885H174.694L170.071 28.8679L175 36.8387H173.18L169.194 30.3026L165.209 36.8387H163.402L168.344 28.8679L163.668 21.3885Z" fill="white"/>
<path fill-rule="evenodd" clip-rule="evenodd" d="M83.973 48.7023L82.1397 50.4825C80.8883 49.2309 79.4093 48.2299 77.7823 47.5333C76.3328 46.8759 74.7638 46.5232 73.1725 46.497C71.3171 46.4812 69.4883 46.9384 67.8586 47.8255C66.2306 48.6691 64.8725 49.9535 63.9396 51.532C63.0299 53.0249 62.5474 54.7389 62.5447 56.4872C62.5484 58.2784 63.0448 60.034 63.9794 61.562C64.936 63.1653 66.3146 64.475 67.9649 65.3481C69.6696 66.2516 71.5755 66.7086 73.5046 66.6766C75.7411 66.7673 77.9379 66.0664 79.7086 64.6972C81.3604 63.3821 82.4369 61.4768 82.7109 59.3833H75.1386V57.1249H85.3546C85.4202 58.7222 85.1647 60.3164 84.6034 61.8133C84.0421 63.3102 83.1862 64.6793 82.0866 65.8396C80.9372 66.9323 79.5782 67.7805 78.0917 68.3331C76.6053 68.8857 75.0222 69.1311 73.4382 69.0546C71.4781 69.1425 69.5235 68.7868 67.72 68.0139C65.9166 67.241 64.311 66.0709 63.0229 64.5909C61.0968 62.3848 60.0474 59.5485 60.0737 56.62C60.0693 54.4214 60.6518 52.2613 61.7609 50.3629C62.8691 48.4608 64.4772 46.8987 66.4106 45.8461C68.4494 44.7445 70.7358 44.1821 73.0529 44.2121C75.0054 44.157 76.95 44.4819 78.7787 45.1686C80.7116 46.019 82.4722 47.2167 83.973 48.7023ZM89.9644 44.7169H94.6938C96.4715 44.6628 98.2505 44.7739 100.008 45.049C101.351 45.3247 102.561 46.0512 103.435 47.1081C104.336 48.2065 104.808 49.5941 104.764 51.0139C104.815 52.2261 104.51 53.4268 103.887 54.4679C103.256 55.468 102.326 56.2441 101.23 56.6865C99.7356 57.2421 98.1469 57.4993 96.5536 57.4437L105.082 68.4567H102.293L93.7107 57.3905H92.3822V68.4036H89.9644V44.7302V44.7169ZM92.3424 47.0284V55.0657H96.4341C97.6207 55.1243 98.8082 54.9714 99.9413 54.614C100.67 54.3337 101.293 53.8319 101.721 53.1793C102.148 52.5189 102.37 51.747 102.359 50.9607C102.369 50.1893 102.141 49.4336 101.708 48.7953C101.304 48.1665 100.715 47.679 100.021 47.4004C98.8881 47.0663 97.7066 46.927 96.5271 46.9886L92.3424 47.0284ZM121.13 44.1324C122.806 44.0826 124.475 44.3764 126.033 44.9955C127.591 45.6146 129.006 46.5461 130.191 47.7325C132.508 50.0839 133.807 53.2525 133.807 56.5536C133.807 59.8548 132.508 63.0234 130.191 65.3747C127.829 67.6879 124.655 68.9835 121.35 68.9835C118.044 68.9835 114.87 67.6879 112.509 65.3747C111.338 64.249 110.412 62.8943 109.788 61.3949C109.164 59.8955 108.855 58.2837 108.882 56.6599C108.869 54.4426 109.442 52.2613 110.542 50.3363C111.593 48.4341 113.146 46.8576 115.033 45.7797C116.902 44.686 119.031 44.1169 121.197 44.1324H121.13ZM121.237 46.497C119.488 46.4894 117.768 46.948 116.255 47.8255C114.724 48.705 113.455 49.9748 112.575 51.5054C111.686 53.0816 111.228 54.8638 111.247 56.6732C111.236 57.9888 111.487 59.2934 111.984 60.5116C112.48 61.7298 113.214 62.8373 114.142 63.7701C115.07 64.7029 116.173 65.4424 117.389 65.9459C118.604 66.4493 119.908 66.7067 121.223 66.7032C123.007 66.7182 124.763 66.2598 126.311 65.3747C127.845 64.5159 129.114 63.2521 129.978 61.7214C130.861 60.1523 131.318 58.3803 131.307 56.5802C131.32 54.7925 130.862 53.0328 129.978 51.4788C129.096 49.9527 127.82 48.6912 126.285 47.8255C124.749 46.9455 123.007 46.4872 121.237 46.497ZM138.587 44.7833H140.965V59.0246C140.939 60.0838 140.97 61.1437 141.058 62.1996C141.144 63.033 141.426 63.8342 141.881 64.5377C142.39 65.2304 143.073 65.7758 143.861 66.1186C144.687 66.5273 145.595 66.7452 146.518 66.7563C147.298 66.756 148.069 66.5836 148.776 66.2515C149.471 65.9505 150.088 65.4964 150.583 64.923C151.08 64.2926 151.438 63.5635 151.632 62.7842C151.847 61.5611 151.932 60.3186 151.885 59.0777V44.7302H154.249V59.0113C154.301 60.7414 154.095 62.4697 153.638 64.1392C153.181 65.5021 152.313 66.6902 151.154 67.5401C149.864 68.5258 148.273 69.0371 146.65 68.9881C144.916 69.0511 143.202 68.588 141.735 67.6597C140.421 66.8202 139.45 65.5386 138.998 64.0462C138.633 62.4078 138.485 60.7282 138.56 59.0511V44.7302L138.587 44.7833ZM160.068 44.7833H164.797C166.629 44.7158 168.463 44.836 170.271 45.142C171.57 45.4371 172.734 46.157 173.579 47.1879C174.478 48.2868 174.95 49.674 174.907 51.0936C174.963 52.5018 174.521 53.8848 173.658 54.9993C172.767 56.0493 171.552 56.7736 170.204 57.0584C168.212 57.3891 166.191 57.5182 164.173 57.4437H162.486V68.4567H160.108V44.7302L160.068 44.7833ZM162.446 47.0949V55.1321H166.431C167.634 55.1888 168.838 55.0405 169.992 54.6937C170.719 54.4175 171.339 53.9144 171.759 53.259C172.19 52.6068 172.42 51.8422 172.42 51.0604C172.42 50.2785 172.19 49.5139 171.759 48.8617C171.346 48.2267 170.748 47.7348 170.045 47.4536C168.926 47.1198 167.757 46.9805 166.591 47.0417L162.446 47.0949Z" fill="white"/>
</svg>
