<svg width="18" height="11" viewBox="0 0 18 11" fill="none" xmlns="http://www.w3.org/2000/svg">
<path d="M15.4425 5.07464C15.6902 4.75746 15.8868 4.50297 16.032 4.31097C17.0778 2.93356 17.5311 2.05366 17.3922 1.67004L17.3377 1.5802C17.3015 1.52624 17.2076 1.47668 17.0566 1.43182C16.9054 1.387 16.712 1.37984 16.4763 1.40943L13.8648 1.42767C13.8043 1.42171 13.7438 1.4231 13.6834 1.43182C13.6229 1.44093 13.5837 1.45007 13.5654 1.45879C13.5472 1.46793 13.5322 1.47525 13.5202 1.48122L13.4839 1.50818C13.4537 1.52604 13.4205 1.55758 13.3842 1.60263C13.348 1.64765 13.3175 1.69983 13.2935 1.75992C13.0094 2.4845 12.686 3.15833 12.3233 3.78118C12.0995 4.15251 11.8939 4.47464 11.7067 4.74677C11.5193 5.01951 11.3621 5.22007 11.2351 5.34858C11.1082 5.47731 10.9933 5.58083 10.8906 5.65843C10.7877 5.73657 10.7092 5.76931 10.6549 5.75741C10.6004 5.74552 10.549 5.73362 10.5007 5.7213C10.4161 5.66757 10.3479 5.59435 10.2967 5.50133C10.2453 5.40873 10.2106 5.29186 10.1924 5.15103C10.1743 5.0104 10.1636 4.88902 10.1607 4.78705C10.1575 4.68532 10.1591 4.5417 10.1654 4.35582C10.1714 4.17014 10.1743 4.04461 10.1743 3.97856C10.1743 3.75123 10.179 3.50409 10.188 3.23751C10.197 2.97112 10.2046 2.75987 10.2106 2.60413C10.2167 2.44862 10.2196 2.28378 10.2196 2.11003C10.2196 1.93666 10.209 1.80018 10.1877 1.70122C10.1665 1.60263 10.1347 1.50682 10.0927 1.4138C10.0502 1.32117 9.98832 1.24915 9.90662 1.1984C9.82496 1.14742 9.7238 1.10716 9.60291 1.07699C9.28231 1.00497 8.87426 0.966496 8.37869 0.960176C7.25419 0.94867 6.53176 1.02046 6.21139 1.17597C6.08445 1.24202 5.96951 1.33167 5.86681 1.44553C5.7579 1.57745 5.74288 1.64943 5.82156 1.66094C6.18437 1.7149 6.4411 1.84383 6.59225 2.04734L6.64673 2.15504C6.68897 2.23319 6.73124 2.37087 6.77367 2.56842C6.81594 2.76599 6.84316 2.98457 6.85537 3.22419C6.8856 3.66135 6.8856 4.03547 6.85537 4.34711C6.82514 4.65871 6.79651 4.90111 6.76929 5.07448C6.74203 5.24823 6.7012 5.38886 6.64693 5.49657C6.59245 5.60466 6.55623 5.67052 6.53801 5.6945C6.51979 5.71829 6.50477 5.73336 6.49276 5.73936C6.41408 5.76911 6.33258 5.78418 6.2479 5.78418C6.1632 5.78418 6.06047 5.74211 5.93954 5.6582C5.81859 5.57471 5.69305 5.45926 5.56329 5.31247C5.43314 5.16591 5.28677 4.96062 5.12338 4.69698C4.96018 4.43377 4.79077 4.12214 4.61557 3.76293L4.4706 3.50228C4.37991 3.33487 4.25594 3.09069 4.09877 2.77034C3.94159 2.44999 3.80241 2.14017 3.68169 1.84046C3.63323 1.7149 3.56073 1.61909 3.46405 1.55304L3.4188 1.52607C3.38857 1.50225 3.34012 1.47668 3.27363 1.44988C3.20696 1.42291 3.13769 1.40346 3.065 1.39137L0.580341 1.40923C0.326454 1.40923 0.154262 1.46637 0.0635698 1.5802L0.027319 1.63397C0.00899727 1.66411 0 1.71211 0 1.77778C0 1.84383 0.0182236 1.92457 0.0544744 2.02018C0.417277 2.86478 0.811751 3.67924 1.23783 4.46353C1.66414 5.24823 2.03437 5.88018 2.34871 6.35922C2.66306 6.83865 2.98343 7.29049 3.31002 7.71575C3.6366 8.14102 3.85263 8.41334 3.95834 8.53297C4.06405 8.65299 4.14716 8.74286 4.20765 8.80253L4.43432 9.01833C4.57929 9.16197 4.79254 9.33411 5.07368 9.53486C5.35479 9.73558 5.66596 9.93316 6.00776 10.1276C6.34916 10.3224 6.74681 10.4808 7.20011 10.6038C7.65344 10.7268 8.09473 10.7761 8.52402 10.752H9.56685C9.7785 10.7341 9.93862 10.6685 10.0474 10.5544L10.0836 10.5096C10.1076 10.4738 10.1305 10.4183 10.1517 10.3435C10.1727 10.2687 10.1836 10.1862 10.1836 10.0966C10.1773 9.83914 10.1972 9.60665 10.2424 9.40036C10.2877 9.19367 10.3391 9.03816 10.3966 8.93305C10.4541 8.82849 10.5189 8.74004 10.5916 8.66803C10.6641 8.59601 10.7154 8.55297 10.7458 8.5379C10.776 8.52321 10.8003 8.51271 10.8183 8.50636C10.9633 8.45852 11.134 8.50497 11.3307 8.6456C11.5271 8.78665 11.7115 8.95999 11.8839 9.16667C12.0561 9.37336 12.2631 9.60523 12.505 9.86289C12.7467 10.1203 12.9583 10.312 13.1398 10.4377L13.3212 10.5458C13.4421 10.6174 13.5991 10.6833 13.7927 10.7434C13.9861 10.8031 14.1555 10.8182 14.3005 10.7882L16.6219 10.7521C16.8516 10.7521 17.03 10.7149 17.157 10.6399C17.2839 10.5655 17.3594 10.4826 17.3837 10.3929C17.4077 10.3031 17.4093 10.2017 17.3883 10.0876C17.3671 9.97397 17.3458 9.89462 17.3248 9.8498C17.3036 9.80498 17.2839 9.76728 17.2657 9.73753C16.9634 9.1986 16.3861 8.53666 15.5337 7.75219L15.5155 7.73433L15.5065 7.72522L15.4975 7.71647H15.4884C15.1014 7.3511 14.8567 7.10552 14.7539 6.97957C14.5666 6.74038 14.5241 6.49778 14.627 6.25223C14.6991 6.06603 14.971 5.67369 15.4425 5.07464Z" fill="white" fill-opacity="0.7"/>
</svg>
