<svg width="15" height="18" viewBox="0 0 15 18" fill="none" xmlns="http://www.w3.org/2000/svg">
<path d="M8.99754 1.6621V5.49118C8.99754 5.82187 9.0233 6.06472 9.07503 6.22013C9.15901 6.4601 9.34977 6.57975 9.647 6.57975C9.97003 6.57975 10.303 6.37936 10.6455 5.97728V6.5118H11.5279V1.6621H10.6457V5.36488C10.4517 5.64391 10.2677 5.78284 10.093 5.78284C9.9767 5.78284 9.90876 5.71183 9.88948 5.56908C9.88299 5.55625 9.87975 5.44258 9.87975 5.22901V1.6621H8.99754Z" fill="white" fill-opacity="0.7"/>
<path d="M6.98087 6.57975C7.42684 6.57975 7.76937 6.41457 8.00858 6.08426C8.18957 5.84463 8.28007 5.4621 8.28007 4.93734V3.23656C8.28007 2.71831 8.18957 2.3394 8.00858 2.09958C7.76937 1.76889 7.42687 1.60372 6.98087 1.60372C6.54769 1.60372 6.20841 1.76889 5.96271 2.09958C5.78172 2.33959 5.69122 2.71849 5.69122 3.23656V4.93734C5.69122 5.45597 5.78172 5.83835 5.96271 6.08426C6.20822 6.41457 6.54766 6.57975 6.98087 6.57975ZM6.56388 3.06147C6.56388 2.61458 6.70289 2.39109 6.98084 2.39109C7.25864 2.39109 7.3978 2.61461 7.3978 3.06147V5.10251C7.3978 5.55629 7.25864 5.78287 6.98084 5.78287C6.70286 5.78287 6.56388 5.55629 6.56388 5.10251V3.06147Z" fill="white" fill-opacity="0.7"/>
<path d="M4.5085 6.5118V3.87805L5.68167 0H4.69271L4.03349 2.55623L3.34485 0H2.31714C2.49814 0.544487 2.70815 1.15039 2.94735 1.81733C3.2511 2.71183 3.44813 3.39848 3.53882 3.87808V6.51164H4.50847L4.5085 6.5118Z" fill="white" fill-opacity="0.7"/>
<path d="M13.5593 8.03765C13.2715 7.77873 12.9403 7.62657 12.5656 7.58085C11.3762 7.45148 9.58248 7.38641 7.18458 7.38641C4.78648 7.38641 2.99605 7.45129 1.81315 7.58085C1.43169 7.62641 1.09892 7.77873 0.814453 8.03765C0.529981 8.29736 0.342527 8.61773 0.252029 9.00007C0.0838223 9.75179 0 10.8853 0 12.4018C0 13.9439 0.0840095 15.0776 0.252029 15.8035C0.336007 16.1855 0.521776 16.5062 0.809492 16.7656C1.09702 17.0249 1.42826 17.1738 1.80319 17.2128C2.99243 17.3487 4.78608 17.4167 7.18439 17.4167C9.58248 17.4167 11.3762 17.3487 12.5654 17.2128C12.9402 17.1738 13.2699 17.0249 13.5543 16.7656C13.8386 16.5062 14.0261 16.1855 14.1168 15.8035C14.2848 15.0518 14.3687 13.9179 14.3687 12.4018C14.3687 10.8597 14.2848 9.72596 14.1168 9.00007C14.0326 8.61773 13.8468 8.29736 13.5593 8.03765ZM3.06381 9.98148V15.5117H2.09431V9.98148H1.07637V9.06802H4.10146V9.98148H3.06381ZM5.85596 15.5117V14.9866C5.50694 15.3818 5.17727 15.5796 4.867 15.5796C4.56955 15.5796 4.38225 15.4596 4.30458 15.22C4.25282 15.0644 4.22706 14.8283 4.22706 14.5104V10.7102H5.09002V14.2482C5.09002 14.4555 5.09326 14.569 5.09975 14.5883C5.11922 14.7242 5.187 14.7921 5.30346 14.7921C5.47796 14.7921 5.66221 14.6563 5.85618 14.3839V10.7102H6.71911V15.5117H5.85596ZM10.0155 14.0733C10.0155 14.5464 9.98643 14.8702 9.92822 15.0451C9.81826 15.4013 9.58894 15.5796 9.23977 15.5796C8.92956 15.5796 8.62902 15.4013 8.33809 15.0451V15.5117H7.47513V9.06802H8.33809V11.177C8.61586 10.8273 8.91655 10.6522 9.23977 10.6522C9.58879 10.6522 9.81826 10.8337 9.92822 11.1963C9.98643 11.3649 10.0155 11.6856 10.0155 12.1587V14.0733ZM13.2926 13.2764H11.5571V14.1219C11.5571 14.5691 11.7057 14.7923 12.0031 14.7923C12.2164 14.7923 12.3456 14.6758 12.3909 14.4427C12.4037 14.3778 12.4103 14.1803 12.4103 13.8496H13.2926V13.9761C13.2926 14.2937 13.2861 14.4813 13.2731 14.5398C13.2536 14.715 13.1858 14.8895 13.0696 15.0646C12.8369 15.4078 12.4879 15.5798 12.0224 15.5798C11.5764 15.5798 11.2272 15.4146 10.9752 15.084C10.7878 14.8444 10.694 14.4689 10.694 13.9567V12.2753C10.694 11.7636 10.7845 11.3877 10.9655 11.1477C11.2175 10.8174 11.5632 10.6522 12.0029 10.6522C12.4359 10.6522 12.7786 10.8173 13.0306 11.1477C13.2051 11.3877 13.2924 11.7635 13.2924 12.2753V13.2764H13.2926Z" fill="white" fill-opacity="0.7"/>
<path d="M11.9934 11.4392C11.7024 11.4392 11.5572 11.6597 11.5572 12.1002V12.5475H12.4298V12.1002C12.4296 11.6598 12.2843 11.4392 11.9934 11.4392Z" fill="white" fill-opacity="0.7"/>
<path d="M8.77452 11.4392C8.62578 11.4392 8.48032 11.5106 8.33828 11.6534V14.5786C8.48035 14.7213 8.62581 14.7923 8.77452 14.7923C9.02652 14.7923 9.15273 14.5755 9.15273 14.1413V12.0907C9.15252 11.6564 9.02652 11.4392 8.77452 11.4392Z" fill="white" fill-opacity="0.7"/>
</svg>
