<svg width="526" height="526" viewBox="0 0 526 526" fill="none" xmlns="http://www.w3.org/2000/svg">
<g clip-path="url(#clip0_732_19801)">
<path d="M250.449 435.69L258.582 419.675C219.05 418.679 181.356 402.787 153.049 375.185C124.743 347.582 107.916 310.307 105.939 270.827L52.8079 244.135L0.00233549 269.959C-0.0111952 270.221 -0.0111952 270.484 0.00233549 270.745L52.7266 244.731L105.722 270.854L52.8079 244.731L0.00233549 270.745C1.98204 338.141 29.8317 402.191 77.7774 449.615C125.723 497.039 190.087 524.199 257.524 525.465L231.664 472.678L250.449 435.69Z" fill="url(#paint0_linear_732_19801)"/>
<path d="M268.435 105.792C268.252 105.785 268.07 105.779 267.887 105.773M268.435 105.792L268.192 106.284C268.192 106.284 268.192 106.284 268.192 106.284L267.887 105.773M268.435 105.792L294.228 53.5559L294.239 53.534L294.341 53.3261M268.435 105.792C268.435 105.792 268.435 105.792 268.435 105.792L294.341 53.3261M267.887 105.773L292.891 55.1595L293.695 53.5647L293.805 53.3467L293.807 53.3429L293.802 53.334L293.792 53.3135L293.791 53.3121L293.697 53.1199L268.221 1.06378C268.323 1.06597 268.425 1.06822 268.526 1.07053M267.887 105.773L294.341 53.3261M294.341 53.3261L294.239 53.1183L294.228 53.0964L268.526 1.07053M268.526 1.07053L268.276 0.564855L268.526 1.07053C268.526 1.07053 268.526 1.07053 268.526 1.07053ZM268.027 0.059442L268.024 0.0532227H267.718L266.9 0.0372216L266.908 0.0532227H266.613L266.966 0.773012L268.027 0.059442ZM267.659 106.235L267.726 106.268L267.659 106.235Z" fill="url(#paint1_linear_732_19801)" stroke="#552692"/>
<path d="M105.72 258.958C106.746 219.426 122.68 181.742 150.33 153.46C177.979 125.178 215.299 108.386 254.811 106.451L281.539 53.3397L255.625 0.553223H254.811L280.862 53.2584L254.811 106.235L280.943 53.3126L254.811 0.553223C187.393 2.53878 123.324 30.3805 75.8846 78.3074C28.445 126.234 1.27277 190.571 0 257.982L52.8056 232.131L105.72 258.958Z" fill="url(#paint2_linear_732_19801)"/>
<path d="M419.271 267.06C418.261 306.567 402.358 344.235 374.747 372.52C347.135 400.805 309.854 417.618 270.369 419.594L243.966 472.055L243.668 472.624L269.501 525.383C337.06 523.596 401.329 495.843 448.94 447.896C496.551 399.949 523.838 335.5 525.126 267.954L472.32 293.778L419.271 267.06Z" fill="url(#paint3_linear_732_19801)"/>
<path d="M243.668 472.678L243.966 472.109L243.668 472.678Z" stroke="#1D1D1B" stroke-width="0.36"/>
<path d="M231.855 472.678L250.451 435.69L231.855 472.678ZM231.855 472.678L257.689 525.465H257.716L231.855 472.678Z" stroke="#1D1D1B" stroke-width="0.36"/>
<path d="M243.965 472.109L270.368 419.594L243.965 472.109Z" stroke="#1D1D1B" stroke-width="0.36"/>
<path d="M258.496 419.675L250.445 435.69L258.496 419.675Z" stroke="#1D1D1B" stroke-width="0.36"/>
<path d="M243.688 472.682L269.512 525.424L243.688 472.682Z" stroke="#1D1D1B" stroke-width="0.36"/>
</g>
<defs>
<linearGradient id="paint0_linear_732_19801" x1="275.898" y1="384.256" x2="13.913" y2="215.589" gradientUnits="userSpaceOnUse">
<stop stop-color="#462183"/>
<stop offset="1" stop-color="#6A42AD"/>
</linearGradient>
<linearGradient id="paint1_linear_732_19801" x1="445.72" y1="117.635" x2="1209.65" y2="853.162" gradientUnits="userSpaceOnUse">
<stop stop-color="#36166B"/>
<stop offset="1" stop-color="#E63114"/>
</linearGradient>
<linearGradient id="paint2_linear_732_19801" x1="54.4835" y1="297.894" x2="281.691" y2="73.5843" gradientUnits="userSpaceOnUse">
<stop stop-color="#391772"/>
<stop offset="1" stop-color="#4E2691"/>
</linearGradient>
<linearGradient id="paint3_linear_732_19801" x1="486.872" y1="281.665" x2="262.562" y2="497.28" gradientUnits="userSpaceOnUse">
<stop stop-color="#6A42AD"/>
<stop offset="1" stop-color="#7D50CA"/>
</linearGradient>
<clipPath id="clip0_732_19801">
<rect width="525.128" height="525.128" fill="white" transform="translate(0 0.553223)"/>
</clipPath>
</defs>
</svg>
