<svg width="414" height="8" viewBox="0 0 414 8" fill="none" xmlns="http://www.w3.org/2000/svg">
<path d="M0.5 0.000976562V8.00098M3.5 0.000976562V5.00098M6.5 0.000976562L6.5 5.00098M9.5 0.000976562V5.00098M13 0.000976562V8.00098M16 0.000976562V5.00098M19 0.000976562V5.00098M22 0.000976562V5.00098M25.5 0.000976562V8.00098M28.5 0.000976562V5.00098M31.5 0.000976562V5.00098M34.5 0.000976562V5.00098M38 0.000976562V8.00098M41 0.000976562V5.00098M44 0.000976562V5.00098M47 0.000976562V5.00098M50.5 0.000976562V8.00098M53.5 0.000976562V5.00098M56.5 0.000976562V5.00098M59.5 0.000976562V5.00098M63 0.000976562V8.00098M66 0.000976562V5.00098M69 0.000976562V5.00098M72 0.000976562V5.00098M75.5 0.000976562V8.00098M78.5 0.000976562V5.00098M81.5 0.000976562V5.00098M84.5 0.000976562V5.00098M88 0.000976562V8.00098M91 0.000976562V5.00098M94 0.000976562V5.00098M97 0.000976562V5.00098M100.5 0.000976562V8.00098M103.5 0.000976562V5.00098M106.5 0.000976562V5.00098M109.5 0.000976562V5.00098M113 0.000976562V8.00098M116 0.000976562V5.00098M119 0.000976562V5.00098M122 0.000976562V5.00098M125.5 0.000976562V8.00098M128.5 0.000976562V5.00098M131.5 0.000976562V5.00098M134.5 0.000976562V5.00098M138 0.000976562V8.00098M141 0.000976562V5.00098M144 0.000976562V5.00098M147 0.000976562V5.00098M150.5 0.000976562V8.00098M153.5 0.000976562V5.00098M156.5 0.000976562V5.00098M159.5 0.000976562V5.00098M163 0.000976562V8.00098M166 0.000976562V5.00098M169 0.000976562V5.00098M172 0.000976562V5.00098M175.5 0.000976562V8.00098M178.5 0.000976562V5.00098M181.5 0.000976562V5.00098M184.5 0.000976562V5.00098M188 0.000976562V8.00098M191 0.000976562V5.00098M194 0.000976562V5.00098M197 0.000976562V5.00098M200.5 0.000976562V8.00098M203.5 0.000976562V5.00098M206.5 0.000976562V5.00098M209.5 0.000976562V5.00098M213 0.000976562V8.00098M216 0.000976562V5.00098M219 0.000976562V5.00098M222 0.000976562V5.00098M225.5 0.000976562V8.00098M228.5 0.000976562V5.00098M231.5 0.000976562V5.00098M234.5 0.000976562V5.00098M238 0.000976562V8.00098M241 0.000976562V5.00098M244 0.000976562V5.00098M247 0.000976562V5.00098M250.5 0.000976562V8.00098M253.5 0.000976562V5.00098M256.5 0.000976562V5.00098M259.5 0.000976562V5.00098M263 0.000976562V8.00098M266 0.000976562V5.00098M269 0.000976562V5.00098M272 0.000976562V5.00098M275.5 0.000976562V8.00098" stroke="#D0C1E8" stroke-width="0.5"/>
<path d="M138 0.000976562V8.00098M141 0.000976562V5.00098M144 0.000976562L144 5.00098M147 0.000976562V5.00098M150.5 0.000976562V8.00098M153.5 0.000976562V5.00098M156.5 0.000976562V5.00098M159.5 0.000976562V5.00098M163 0.000976562V8.00098M166 0.000976562V5.00098M169 0.000976562V5.00098M172 0.000976562V5.00098M175.5 0.000976562V8.00098M178.5 0.000976562V5.00098M181.5 0.000976562V5.00098M184.5 0.000976562V5.00098M188 0.000976562V8.00098M191 0.000976562V5.00098M194 0.000976562V5.00098M197 0.000976562V5.00098M200.5 0.000976562V8.00098M203.5 0.000976562V5.00098M206.5 0.000976562V5.00098M209.5 0.000976562V5.00098M213 0.000976562V8.00098M216 0.000976562V5.00098M219 0.000976562V5.00098M222 0.000976562V5.00098M225.5 0.000976562V8.00098M228.5 0.000976562V5.00098M231.5 0.000976562V5.00098M234.5 0.000976562V5.00098M238 0.000976562V8.00098M241 0.000976562V5.00098M244 0.000976562V5.00098M247 0.000976562V5.00098M250.5 0.000976562V8.00098M253.5 0.000976562V5.00098M256.5 0.000976562V5.00098M259.5 0.000976562V5.00098M263 0.000976562V8.00098M266 0.000976562V5.00098M269 0.000976562V5.00098M272 0.000976562V5.00098M275.5 0.000976562V8.00098M278.5 0.000976562V5.00098M281.5 0.000976562V5.00098M284.5 0.000976562V5.00098M288 0.000976562V8.00098M291 0.000976562V5.00098M294 0.000976562V5.00098M297 0.000976562V5.00098M300.5 0.000976562V8.00098M303.5 0.000976562V5.00098M306.5 0.000976562V5.00098M309.5 0.000976562V5.00098M313 0.000976562V8.00098M316 0.000976562V5.00098M319 0.000976562V5.00098M322 0.000976562V5.00098M325.5 0.000976562V8.00098M328.5 0.000976562V5.00098M331.5 0.000976562V5.00098M334.5 0.000976562V5.00098M338 0.000976562V8.00098M341 0.000976562V5.00098M344 0.000976562V5.00098M347 0.000976562V5.00098M350.5 0.000976562V8.00098M353.5 0.000976562V5.00098M356.5 0.000976562V5.00098M359.5 0.000976562V5.00098M363 0.000976562V8.00098M366 0.000976562V5.00098M369 0.000976562V5.00098M372 0.000976562V5.00098M375.5 0.000976562V8.00098M378.5 0.000976562V5.00098M381.5 0.000976562V5.00098M384.5 0.000976562V5.00098M388 0.000976562V8.00098M391 0.000976562V5.00098M394 0.000976562V5.00098M397 0.000976562V5.00098M400.5 0.000976562V8.00098M403.5 0.000976562V5.00098M406.5 0.000976562V5.00098M409.5 0.000976562V5.00098M413 0.000976562V8.00098" stroke="#D0C1E8" stroke-width="0.5"/>
</svg>
