<svg width="39" height="35" viewBox="0 0 39 35" fill="none" xmlns="http://www.w3.org/2000/svg">
<path fill-rule="evenodd" clip-rule="evenodd" d="M20.1736 4.44754C20.1998 3.97935 20.4941 3.54966 20.9523 3.3826C21.5637 3.15916 22.2369 3.48572 22.4546 4.11135C22.6729 4.73697 22.3538 5.42585 21.7424 5.6486C21.4495 5.75585 21.1424 5.7366 20.8777 5.61835L18.1539 7.33366C18.1237 7.89604 17.7071 8.37729 17.1414 8.45704C16.5696 8.53816 16.0362 8.18272 15.8628 7.64029L10.9931 6.14566C10.7163 6.36979 10.3528 6.45572 10.0081 6.37804L7.05857 9.16379C7.10628 9.51854 6.99945 9.89116 6.73674 10.1675C6.2839 10.6433 5.53879 10.6529 5.07385 10.1902C4.60892 9.72685 4.59951 8.96441 5.05168 8.48866C5.34596 8.17929 5.76387 8.06722 6.14751 8.15316L9.09704 5.36741C9.06076 5.09929 9.11182 4.81672 9.26232 4.56854C9.60431 4.00479 10.3299 3.83085 10.8815 4.18079C11.1261 4.33616 11.2954 4.56854 11.3787 4.82841L16.2492 6.32304C16.4084 6.19379 16.6026 6.10441 16.8189 6.07416C17.0413 6.04254 17.2576 6.07691 17.4498 6.16285L20.1736 4.44754Z" fill="#E63114"/>
<path fill-rule="evenodd" clip-rule="evenodd" d="M12.1094 9.5C9.51392 9.5 7.40625 11.6567 7.40625 14.3125C7.40625 16.9683 9.51392 19.125 12.1094 19.125C14.7048 19.125 16.8125 16.9683 16.8125 14.3125C16.8125 11.6567 14.7048 9.5 12.1094 9.5ZM13.3765 17.497C12.9855 17.6599 12.5575 17.75 12.1094 17.75C11.5739 17.75 11.068 17.6214 10.6185 17.3932L12.0677 15.4874L13.3765 17.497ZM13.6238 11.2435C14.7183 11.8107 15.4688 12.9726 15.4688 14.3125C15.4688 15.2564 15.0965 16.1117 14.4939 16.7332L12.8384 14.1915L13.6238 11.2435ZM12.3271 10.8819L11.4966 13.999L9.55894 16.5482C9.05436 15.9474 8.75 15.1664 8.75 14.3125C8.75 12.415 10.255 10.875 12.1094 10.875C12.1826 10.875 12.2552 10.8771 12.3271 10.8819Z" fill="#E63114"/>
<path fill-rule="evenodd" clip-rule="evenodd" d="M23.5312 8.125H33.6094C33.9803 8.125 34.2812 7.817 34.2812 7.4375C34.2812 7.058 33.9803 6.75 33.6094 6.75H23.5312C23.1604 6.75 22.8594 7.058 22.8594 7.4375C22.8594 7.817 23.1604 8.125 23.5312 8.125Z" fill="white"/>
<path fill-rule="evenodd" clip-rule="evenodd" d="M23.5312 13.625H33.6094C33.9803 13.625 34.2812 13.317 34.2812 12.9375C34.2812 12.558 33.9803 12.25 33.6094 12.25H23.5312C23.1604 12.25 22.8594 12.558 22.8594 12.9375C22.8594 13.317 23.1604 13.625 23.5312 13.625Z" fill="white"/>
<path fill-rule="evenodd" clip-rule="evenodd" d="M23.5312 10.875H31.2578C31.6287 10.875 31.9297 10.567 31.9297 10.1875C31.9297 9.808 31.6287 9.5 31.2578 9.5H23.5312C23.1604 9.5 22.8594 9.808 22.8594 10.1875C22.8594 10.567 23.1604 10.875 23.5312 10.875Z" fill="white"/>
<path fill-rule="evenodd" clip-rule="evenodd" d="M30.2013 21.7018C30.4861 22.841 30.1945 24.1011 29.3238 24.9921C28.0123 26.3335 25.8838 26.3335 24.573 24.9921C23.2615 23.6501 23.2615 21.4721 24.573 20.1308C25.8838 18.7888 28.0123 18.7888 29.3238 20.1308C29.5858 20.399 30.0118 20.399 30.2738 20.1308C30.5359 19.862 30.5359 19.4268 30.2738 19.158C28.4383 17.2798 25.4578 17.2798 23.6223 19.158C21.7874 21.0363 21.7874 24.086 23.6223 25.9643C25.4578 27.8425 28.4383 27.8425 30.2738 25.9643C31.4919 24.7171 31.9024 22.9544 31.5027 21.3608C31.4106 20.993 31.0438 20.7709 30.685 20.8651C30.3256 20.9593 30.1085 21.3346 30.2013 21.7018Z" fill="#E63114"/>
<path d="M5.39062 28.75C5.76169 28.75 6.0625 28.4422 6.0625 28.0625C6.0625 27.6828 5.76169 27.375 5.39062 27.375C5.01956 27.375 4.71875 27.6828 4.71875 28.0625C4.71875 28.4422 5.01956 28.75 5.39062 28.75Z" fill="white"/>
<path fill-rule="evenodd" clip-rule="evenodd" d="M35.625 20.5H34.0582C33.7263 19.2962 33.0981 18.1604 32.1729 17.2138C29.2892 14.2623 24.6056 14.2623 21.7212 17.2138C20.796 18.1604 20.1678 19.2962 19.8359 20.5H3.375V2.625C3.375 2.44281 3.44555 2.2675 3.57186 2.13894C3.6975 2.00969 3.86883 1.9375 4.04688 1.9375H31.5938C31.9646 1.9375 32.2656 1.6295 32.2656 1.25C32.2656 0.8705 31.9646 0.5625 31.5938 0.5625H4.04688C3.51206 0.5625 2.99942 0.77975 2.62183 1.16681C2.24356 1.55319 2.03125 2.07775 2.03125 2.625V23.9375H1.69531C1.24986 23.9375 0.822547 24.1183 0.507438 24.4407C0.192328 24.7632 0.015625 25.2004 0.015625 25.6562V26.6875C0.015625 27.8267 0.917953 28.75 2.03125 28.75H3.375C3.74588 28.75 4.04688 28.442 4.04688 28.0625C4.04688 27.683 3.74588 27.375 3.375 27.375H2.03125C1.66038 27.375 1.35938 27.067 1.35938 26.6875V25.6562C1.35938 25.5648 1.39498 25.4775 1.45747 25.4129C1.52063 25.3489 1.60595 25.3125 1.69531 25.3125H15.3102L16.5122 25.9271C16.6056 25.9753 16.7084 26 16.8125 26H20.3634C20.6039 26.4826 20.8982 26.9439 21.2469 27.375H7.40625C7.03538 27.375 6.73438 27.683 6.73438 28.0625C6.73438 28.442 7.03538 28.75 7.40625 28.75H22.6981C25.0282 30.4282 28.098 30.5671 30.551 29.1653L35.5437 34.2747C36.3305 35.0791 37.6077 35.0791 38.3945 34.2747C39.1812 33.4697 39.1812 32.1628 38.3945 31.3577L35.8461 28.75H36.9688C38.0821 28.75 38.9844 27.8267 38.9844 26.6875C38.9844 26.3438 38.9844 25.9801 38.9844 25.6562C38.9844 25.2004 38.8077 24.7632 38.4926 24.4407C38.1775 24.1183 37.7501 23.9375 37.3047 23.9375H36.9688V2.625C36.9688 2.07775 36.7564 1.55319 36.3782 1.16681C36.0006 0.77975 35.4879 0.5625 34.9531 0.5625H33.6094C33.2385 0.5625 32.9375 0.8705 32.9375 1.25C32.9375 1.6295 33.2385 1.9375 33.6094 1.9375H34.9531C35.1312 1.9375 35.3025 2.00969 35.4281 2.13894C35.5545 2.2675 35.625 2.44281 35.625 2.625V20.5ZM31.1275 27.8116C30.9017 27.5799 30.5483 27.5434 30.2816 27.7242C27.9347 29.3144 24.7386 29.0511 22.6713 26.9364C20.3116 24.5219 20.3116 20.6004 22.6713 18.1859C25.0315 15.7714 28.8633 15.7714 31.2229 18.1859C33.2902 20.3006 33.5469 23.5711 31.9928 25.9732C31.8161 26.2461 31.8518 26.6077 32.0782 26.8388L37.4438 32.3298C37.7065 32.5979 37.7065 33.0338 37.4438 33.3019C37.1817 33.5707 36.7564 33.5707 36.4937 33.3019L31.1275 27.8116ZM33.8324 25.3125C33.7108 25.6322 33.567 25.945 33.4011 26.2482L34.5023 27.375H36.9688C37.3396 27.375 37.6406 27.067 37.6406 26.6875V25.6562C37.6406 25.5648 37.605 25.4775 37.5425 25.4129C37.4794 25.3489 37.3941 25.3125 37.3047 25.3125H33.8324ZM19.588 21.875H3.375V23.9375H15.4688C15.5729 23.9375 15.6757 23.9622 15.7691 24.0104L16.9711 24.625H19.8366C19.59 23.7292 19.5067 22.7962 19.588 21.875ZM35.625 23.9375V21.875H34.3061C34.3666 22.5625 34.3357 23.2569 34.2134 23.9375H35.625Z" fill="white"/>
</svg>
