<svg width="37" height="37" viewBox="0 0 37 37" fill="none" xmlns="http://www.w3.org/2000/svg">
<g clip-path="url(#clip0_735_35409)">
<path d="M27.1894 11.7394C27.3618 11.9119 27.5909 12.0068 27.8347 12.0068C28.0784 12.0068 28.3076 11.9119 28.4799 11.7396L32.9325 7.287C33.1442 7.07526 33.1442 6.73214 32.9325 6.52048C32.7209 6.30888 32.3777 6.30888 32.166 6.52048L27.8347 10.8518L26.4197 9.43668C26.2079 9.22509 25.8648 9.22509 25.6531 9.43668C25.4415 9.64842 25.4415 9.99154 25.6531 10.2032L27.1894 11.7394ZM35.7354 28.9424H35.374V13.691C35.6052 13.5505 35.8195 13.3726 35.9681 13.1157C36.2203 12.6797 36.1783 12.1891 36.1412 11.7563C36.1203 11.5128 36.0988 11.261 36.1427 11.0963C36.1831 10.9454 36.3232 10.7459 36.4586 10.553C36.7124 10.1915 37 9.78183 37 9.26086C37 8.7399 36.7124 8.33023 36.4586 7.96875C36.3232 7.7758 36.183 7.57635 36.1428 7.42546C36.0988 7.26069 36.1202 7.00885 36.1412 6.76546C36.1783 6.33266 36.2204 5.84212 35.9681 5.40607C35.7126 4.96438 35.2631 4.75503 34.8665 4.57046C34.6481 4.46871 34.4222 4.36357 34.3062 4.24743C34.1901 4.13145 34.0849 3.90555 33.9831 3.68702C33.7985 3.29049 33.5893 2.841 33.1475 2.58547C32.7116 2.33334 32.2212 2.37532 31.7881 2.41239C31.5449 2.43328 31.293 2.45489 31.1281 2.41088C30.9772 2.37048 30.7777 2.23043 30.5848 2.095C30.2233 1.84121 29.8136 1.55359 29.2927 1.55359C28.7717 1.55359 28.362 1.84121 28.0005 2.095C27.8076 2.23043 27.6081 2.37055 27.4573 2.4108C27.2924 2.45496 27.0406 2.43328 26.7973 2.41239C26.3645 2.37525 25.874 2.33312 25.4379 2.58547C24.9962 2.841 24.7869 3.29049 24.6023 3.68702C24.5005 3.90547 24.3954 4.13138 24.2793 4.24743C24.1262 4.40049 23.773 4.54184 23.5274 4.66101H4.33594C2.84163 4.66101 1.62598 5.87666 1.62598 7.37097V28.9423H1.26465C0.567357 28.9424 0 29.5098 0 30.2071V32.7364C0 34.2307 1.21565 35.4463 2.70996 35.4463H34.29C35.7843 35.4463 37 34.2307 37 32.7364V30.2071C37 29.5098 36.4326 28.9424 35.7354 28.9424ZM23.0141 8.59183C23.2039 8.32155 23.4001 8.0421 23.49 7.70549C23.579 7.37249 23.5523 6.99678 23.5245 6.67289C23.4998 6.38614 23.4745 6.08963 23.5558 5.949C23.6528 5.78142 23.9696 5.6496 24.1767 5.5532C24.4663 5.41835 24.7946 5.26559 25.0461 5.0141C25.2975 4.76269 25.4504 4.43439 25.5852 4.14467C25.708 3.88105 25.835 3.60839 25.981 3.52391C26.1218 3.44254 26.4181 3.46798 26.705 3.49255C27.0256 3.51994 27.3891 3.55116 27.7375 3.45808C28.074 3.36818 28.3534 3.17198 28.6237 2.98221C28.865 2.81275 29.1145 2.63757 29.2929 2.63757C29.4714 2.63757 29.7209 2.81275 29.9622 2.98221C30.2324 3.17198 30.5118 3.36818 30.8485 3.45815C31.1968 3.55123 31.5604 3.51994 31.881 3.49255C32.1677 3.46783 32.4643 3.44247 32.6049 3.52391C32.751 3.60839 32.8779 3.88098 33.0007 4.14467C33.1356 4.43439 33.2884 4.76269 33.5398 5.0141C33.7913 5.26551 34.1196 5.41835 34.4092 5.5532C34.6728 5.67598 34.9456 5.80295 35.0301 5.94907C35.1114 6.08963 35.086 6.38621 35.0614 6.67296C35.0339 6.99367 35.0027 7.35731 35.0959 7.70556C35.1858 8.04203 35.382 8.32148 35.5717 8.59176C35.7412 8.83305 35.9164 9.08258 35.9164 9.26101C35.9164 9.43943 35.7412 9.68896 35.5717 9.93026C35.382 10.2005 35.1858 10.4799 35.0958 10.8165C35.0028 11.1647 35.034 11.5283 35.0614 11.849C35.086 12.1358 35.1114 12.4322 35.03 12.5729C34.9456 12.719 34.6729 12.846 34.4092 12.9688C34.1196 13.1037 33.7913 13.2565 33.5398 13.5079C33.2884 13.7593 33.1356 14.0876 33.0007 14.3773C32.7026 15.0176 32.5869 15.09 31.8811 15.0294C31.5604 15.0019 31.1967 14.9707 30.8485 15.0638C30.512 15.1538 30.2325 15.35 29.9622 15.5397C29.7209 15.7092 29.4714 15.8844 29.293 15.8844C29.1146 15.8844 28.8651 15.7092 28.6238 15.5397C28.3536 15.35 28.0741 15.1538 27.7375 15.0639C27.5611 15.0167 27.3806 15.0014 27.2039 15.0014C27.0318 15.0014 26.8631 15.0159 26.7049 15.0295C26.4182 15.054 26.1217 15.0795 25.9811 14.9981C25.835 14.9136 25.7081 14.641 25.5852 14.3772C25.2727 13.7061 24.8531 13.2837 24.1767 12.9687C23.9131 12.846 23.6404 12.719 23.5559 12.5729C23.4746 12.4324 23.5 12.1359 23.5246 11.8491C23.5368 11.707 23.5491 11.5563 23.5516 11.4025C23.5517 11.3952 23.5522 11.3879 23.5519 11.3807C23.5538 11.1941 23.5401 11.0032 23.4902 10.8165C23.4003 10.48 23.2041 10.2005 23.0143 9.93019C22.8448 9.68889 22.6697 9.43943 22.6697 9.26101C22.6697 9.08258 22.8447 8.83305 23.0141 8.59183ZM34.29 14.2924V28.9424H33.2061V15.8997C33.6078 15.6394 33.8069 15.2132 33.9831 14.8347C34.0801 14.6264 34.1803 14.4125 34.29 14.2924ZM23.719 13.9513C23.8632 14.0184 24.0099 14.0871 24.1269 14.1594C24.3279 14.762 24.4309 15.3919 24.4309 16.035C24.4309 17.4859 23.9066 18.816 23.0385 19.8479C22.6697 18.7363 21.8968 17.7822 20.877 17.1937C21.1312 16.7745 21.2777 16.283 21.2777 15.758V14.9052C21.2777 13.3736 20.0317 12.1276 18.5 12.1276C16.9683 12.1276 15.7223 13.3736 15.7223 14.9052V15.758C15.7223 16.2831 15.8688 16.7745 16.123 17.1937C15.1032 17.7821 14.3303 18.7363 13.9615 19.8479C13.0934 18.8161 12.5691 17.4859 12.5691 16.035C12.5691 12.7648 15.2296 10.1043 18.4999 10.1043C19.9721 10.1043 21.3671 10.6403 22.4557 11.6171C22.4187 12.1082 22.3375 12.6319 22.6173 13.1157C22.873 13.5573 23.3224 13.7666 23.719 13.9513ZM16.8845 18.0153C17.3401 18.3423 17.8977 18.5356 18.5 18.5356C19.1023 18.5356 19.6599 18.3423 20.1155 18.0153C21.1776 18.5338 21.9404 19.5482 22.1415 20.7118C21.1355 21.497 19.872 21.9666 18.5 21.9666C17.128 21.9666 15.8645 21.497 14.8585 20.7118C15.0597 19.5482 15.8224 18.5338 16.8845 18.0153ZM16.8063 15.758V14.9052C16.8063 13.9714 17.5661 13.2116 18.5 13.2116C19.4339 13.2116 20.1937 13.9714 20.1937 14.9052V15.758C20.1937 16.6919 19.4339 17.4517 18.5 17.4517C17.5661 17.4517 16.8063 16.6919 16.8063 15.758ZM2.70996 7.37112C2.70996 6.47459 3.43941 5.74514 4.33594 5.74514H22.4779C22.3809 6.10575 22.4205 6.48167 22.4498 6.82912H18.8613C18.5619 6.82912 18.3193 7.07172 18.3193 7.37112C18.3193 7.67051 18.5619 7.91311 18.8613 7.91311H22.166C21.8987 8.29742 21.5855 8.71388 21.5855 9.26094C21.5855 9.44753 21.6228 9.61959 21.6819 9.78053C20.7074 9.28384 19.6226 9.02022 18.4999 9.02022C14.632 9.02022 11.4851 12.167 11.4851 16.035C11.4851 19.907 14.6771 23.0505 18.4999 23.0505C22.3793 23.0505 25.5489 19.8484 25.5135 15.9765C25.9301 16.1834 26.3894 16.1442 26.7973 16.1093C27.0406 16.0884 27.2926 16.0667 27.4574 16.1108C27.6083 16.1512 27.8078 16.2912 28.0008 16.4267C28.3622 16.6804 28.7719 16.9681 29.2928 16.9681C29.8137 16.9681 30.2234 16.6804 30.5848 16.4267C30.7778 16.2912 30.9773 16.1511 31.1282 16.1108C31.3675 16.0468 31.8222 16.1204 32.1221 16.1333V28.9424H22.4018C21.7045 28.9424 21.1371 29.5098 21.1371 30.2071V31.1884C21.1371 31.288 21.0561 31.369 20.9565 31.369H16.0435C15.9439 31.369 15.8629 31.288 15.8629 31.1884V30.2071C15.8629 29.5098 15.2955 28.9424 14.5982 28.9424H4.87793V7.91311H16.332C16.6314 7.91311 16.874 7.67051 16.874 7.37112C16.874 7.07172 16.6314 6.82912 16.332 6.82912H4.8418C4.26403 6.82912 3.79395 7.29921 3.79395 7.87698V28.9424H2.70996V7.37112ZM35.916 32.7364C35.916 33.6329 35.1866 34.3623 34.29 34.3623H2.70996C1.81343 34.3623 1.08398 33.6329 1.08398 32.7364V30.2071C1.08398 30.1074 1.16499 30.0264 1.26465 30.0264H14.5982C14.6979 30.0264 14.7789 30.1074 14.7789 30.2071V31.1884C14.7789 31.8856 15.3463 32.453 16.0435 32.453H20.9565C21.6537 32.453 22.2211 31.8856 22.2211 31.1884V30.2071C22.2211 30.1074 22.3021 30.0264 22.4018 30.0264H35.7354C35.835 30.0264 35.916 30.1074 35.916 30.2071V32.7364ZM10.9388 25.5098V26.5938C10.9388 27.2911 11.5062 27.8584 12.2035 27.8584H15.2636C15.563 27.8584 15.8056 27.6158 15.8056 27.3164C15.8056 27.017 15.563 26.7744 15.2636 26.7744H12.2035C12.1038 26.7744 12.0228 26.6934 12.0228 26.5938V25.5098C12.0228 25.4101 12.1038 25.3291 12.2035 25.3291H24.7965C24.8962 25.3291 24.9772 25.4101 24.9772 25.5098V26.5938C24.9772 26.6934 24.8962 26.7744 24.7965 26.7744H17.7929C17.4935 26.7744 17.2509 27.017 17.2509 27.3164C17.2509 27.6158 17.4935 27.8584 17.7929 27.8584H24.7965C25.4938 27.8584 26.0612 27.2911 26.0612 26.5938V25.5098C26.0612 24.8125 25.4938 24.2451 24.7965 24.2451H12.2035C11.5062 24.2451 10.9388 24.8125 10.9388 25.5098Z" fill="white"/>
<path d="M27.1911 11.7394C27.3635 11.9118 27.5926 12.0068 27.8364 12.0068C28.0802 12.0068 28.3093 11.9118 28.4816 11.7395L32.9342 7.28697C33.1459 7.07523 33.1459 6.73212 32.9342 6.52045C32.7226 6.30886 32.3794 6.30886 32.1677 6.52045L27.8364 10.8518L26.4214 9.43666C26.2096 9.22506 25.8665 9.22506 25.6548 9.43666C25.4432 9.6484 25.4432 9.99151 25.6548 10.2032L27.1911 11.7394Z" fill="#E63114"/>
</g>
<defs>
<clipPath id="clip0_735_35409">
<rect width="37" height="37" fill="white"/>
</clipPath>
</defs>
</svg>
