<svg width="604" height="471" viewBox="0 0 604 471" fill="none" xmlns="http://www.w3.org/2000/svg">
<g clip-path="url(#clip0_735_35389)">
<path d="M485.495 253.999L484.947 254.159C486.585 253.54 486.754 253.096 486.891 252.044C472.351 256.295 472.588 255.705 472.271 257.867L470.603 258.356C469.368 258.717 468.846 260.258 469.297 262.207L474.707 285.846C475.16 287.831 474.645 289.104 473.688 289.564C474.408 289.199 474.873 288.379 474.849 287.111C473.96 286.785 472.983 286.083 472.091 284.857C456.02 262.752 455.326 260.696 452.517 261.318L437.178 264.707C434.292 265.346 430.494 259.988 431.513 256.709C437.012 239.032 438.372 237.927 435.617 233.94C419.996 211.341 419.24 211.009 419.255 208.171C419.458 208.249 419.656 208.339 419.848 208.441L438.52 218.811C440.07 219.667 441.439 219.317 441.946 217.922L442.405 216.672C445.027 217.419 444.594 216.58 450.677 200.014C452.402 200.52 454.387 202.552 455.086 205.257C461.501 230.137 461.22 231.82 464.648 233.881L483.332 245.101C486.846 247.219 488.298 253.179 485.495 253.999ZM450.28 199.91C450.415 199.939 450.548 199.977 450.677 200.023C450.538 199.972 450.408 199.934 450.28 199.91ZM472.68 289.783C472.789 289.786 472.898 289.78 473.006 289.765C472.898 289.778 472.789 289.784 472.68 289.783ZM472.68 289.783C472.48 289.775 472.281 289.744 472.088 289.691C472.281 289.744 472.48 289.775 472.68 289.783ZM473.223 289.738C473.151 289.752 473.079 289.761 473.006 289.765C473.079 289.761 473.151 289.752 473.223 289.738ZM473.688 289.578L473.59 289.623L473.688 289.578ZM473.223 289.738C473.349 289.713 473.472 289.674 473.59 289.623C473.472 289.675 473.349 289.714 473.223 289.738ZM448.082 201.225L447.94 201.61C448.155 201.084 448.466 200.601 448.855 200.186C448.493 200.441 448.222 200.805 448.082 201.225ZM430.337 265.278C431.463 266.59 432.879 267.438 434.126 267.162C432.891 267.438 431.463 266.579 430.337 265.278ZM469.039 287.312C460.968 276.214 456.787 270.157 454.224 266.958C456.757 270.133 460.947 276.184 469.039 287.312ZM432.565 236.399C434.458 239.142 434.408 240.519 432.408 246.849C434.467 240.359 434.479 239.168 432.565 236.399ZM510.224 281.226C512.188 284.069 512.049 285.479 509.824 292.434C512.123 285.292 512.215 284.096 510.224 281.226ZM546.701 332.139C538.627 321.035 534.446 314.974 531.886 311.776C534.417 314.957 538.609 321.002 546.707 332.139H546.701ZM525.741 246.049L525.602 246.437C525.816 245.909 526.125 245.426 526.514 245.009C526.156 245.267 525.887 245.631 525.747 246.049H525.741ZM551.249 334.45C551.132 334.5 551.01 334.539 550.885 334.565C551.012 334.539 551.136 334.5 551.255 334.45H551.249ZM550.34 334.609C550.134 334.601 549.931 334.57 549.732 334.518C549.933 334.571 550.138 334.601 550.346 334.609H550.34ZM550.885 334.565C550.81 334.578 550.735 334.587 550.66 334.592C550.743 334.583 550.817 334.58 550.891 334.565H550.885ZM560.991 289.934L542.313 278.723C538.885 276.649 539.166 274.964 532.751 250.101C532.055 247.394 530.067 245.362 528.346 244.855C522.263 261.425 522.695 262.26 520.07 261.517L520.097 261.451L519.614 262.767C519.104 264.153 517.738 264.502 516.185 263.655L497.519 253.309C497.329 253.204 497.13 253.114 496.926 253.039C496.926 255.847 497.667 256.209 513.288 278.809C516.043 282.798 514.683 283.903 509.184 301.58C508.168 304.839 511.966 310.209 514.852 309.578L530.188 306.186C532.997 305.564 533.691 307.623 549.762 329.728C550.651 330.954 551.623 331.656 552.52 331.982C552.541 333.238 552.082 334.056 551.362 334.435C552.316 333.967 552.843 332.699 552.378 330.717L546.965 307.045C546.514 305.084 547.036 303.541 548.274 303.195L549.94 302.709C550.257 300.553 549.972 301.151 564.562 296.883C564.423 297.934 564.266 298.381 562.615 299L563.163 298.841C565.963 298.005 564.511 292.052 560.997 289.934H560.991ZM527.943 244.737C528.079 244.766 528.213 244.802 528.346 244.847C528.203 244.799 528.07 244.767 527.943 244.737ZM550.346 334.609C550.453 334.613 550.56 334.607 550.665 334.592C550.559 334.605 550.452 334.611 550.346 334.609ZM551.255 334.45L551.356 334.405L551.255 334.45ZM32.2359 180.64C32.2265 180.647 32.2185 180.656 32.2122 180.666L32.2478 180.651L32.2359 180.64ZM40.2093 172.091C39.2767 171.252 38.2035 170.583 37.0389 170.116C36.5974 172.577 36.0818 174.559 35.6374 175.255C35.5114 175.447 35.3643 175.625 35.1989 175.785C36.6567 179.022 36.7841 180.453 36.313 185.086L32.2685 180.681C34.6567 186.572 35.0833 191.454 36.0107 200.023L34.2122 200.571C33.9396 192.763 32.8018 189.123 30.8285 181.765L28.4226 188.678C22.7307 185.148 19.9219 180.444 16.4137 174.414C16.2894 173.519 16.4018 172.608 16.7396 171.771C15.734 172.285 14.7906 172.912 13.9278 173.64C6.22407 180.275 2.4463 183.154 0.775184 188.433C-2.74482 199.552 6.85518 215.126 5.97518 222.599C5.53074 226.423 2.0463 252.764 1.64333 255.453C1.49518 256.437 1.85667 257.331 2.58852 258.119C8.0137 264.043 34.8641 264.514 43.8922 253.638C44.345 253.105 44.7551 252.537 45.1189 251.94C45.1189 251.94 45.3796 249.515 45.5456 246.289C45.2422 246.039 45.0136 245.71 44.8848 245.338C44.7011 245.421 44.8344 245.492 44.8522 239.491C39.593 237.815 31.2907 234.539 27.0596 231.79C23.1752 229.278 17.353 230.38 14.3781 224.122C12.6004 220.357 10.9204 216.42 9.86852 213.897L22.8611 207.931C23.4537 210.088 25.4863 216.817 27.8448 218.514C30.6181 220.52 39.6107 225.096 44.07 227.03C44.0018 225.993 43.9722 224.957 43.9604 223.929C42.3278 222.694 40.4256 221.263 38.1707 219.51C36.9322 218.55 37.193 218.082 37.193 210.961L37.3233 211.089C37.4804 209.821 39.2374 208.681 41.7678 208.719L45.0596 208.752C45.2257 207.603 45.3079 206.444 45.3055 205.283C45.1515 203.139 45.3055 200.272 45.4507 197.099L49.7085 195.136L51.19 194.448C48.6359 186.972 46.23 179.342 42.4492 174.879C41.8393 173.847 41.085 172.909 40.2093 172.091Z" fill="#7A57B5"/>
<path d="M352.136 269.227C349.724 265.607 348.853 261.881 349.114 258.457C349.754 250.018 357.241 243.443 365.348 245.027C372.237 246.372 374.85 251.12 374.93 253.259C374.935 253.997 374.774 254.727 374.459 255.394C373.991 256.407 373.167 257.281 371.92 257.376C369.78 257.533 368.752 260.065 369.226 261.253C369.701 262.441 369.386 262.758 369.386 262.758C366.397 261.573 366.355 265.243 367.801 268.385C368.278 269.416 364.714 272.583 361.783 272.828C358.966 273.056 355.22 272.76 353.81 271.401C353.747 271.352 353.686 271.3 353.629 271.244C353.095 270.599 352.597 269.926 352.136 269.227ZM423.475 307.972C423.271 307.869 423.152 307.863 423.206 307.886C419.757 308.535 416.788 309.033 414.198 309.388L413.013 309.539C401.247 311.002 397.819 309.16 392.604 304.332C390.376 302.259 387.822 299.67 384.145 296.545C382.986 295.559 381.94 294.652 380.963 293.847C380.559 292.887 380.02 291.989 379.363 291.181C379.155 290.926 378.942 290.704 378.732 290.455C377.111 288.299 375.44 285.974 373.695 283.957L376.714 283.231L381.926 281.981C383.025 277.92 383.955 272.44 380.663 270.474C380.402 270.317 380.126 270.186 379.84 270.083C379.84 270.083 376.249 271.066 372.643 271.892C372.05 272.032 371.44 272.165 370.865 272.289C370.622 272.511 370.441 272.882 370.346 273.533C370.029 275.752 370.663 279.392 370.663 279.392L355.523 275.989C355.299 275.878 355.083 275.752 354.877 275.613C354.456 275.309 354.06 274.973 353.692 274.609C353.763 274.363 353.821 274.114 353.866 273.862C353.6 273.877 353.342 273.898 353.081 273.915C351.733 272.106 353.558 272.076 347.712 274.241C347.712 274.286 347.73 274.321 347.73 274.369C346.204 274.4 344.681 274.515 343.167 274.712C340 275.189 335.167 278.116 335.487 284.054C336.586 304.67 343.066 308.639 339.461 328.546C337.958 336.858 332.732 355.065 333.126 357.044C333.38 358.305 335.318 361.629 339.372 364.816C342.095 366.932 345.148 368.585 348.409 369.709C358.509 373.263 375.117 374.152 382.415 366.809C382.61 366.614 382.829 366.436 383.007 366.217C389.298 359.001 381.262 344.497 380.637 323.268C380.572 321.085 380.637 318.955 380.797 316.882C385.917 320.413 391.167 323.419 394.077 324.074C399.455 325.276 418.231 321.627 423.852 320.481C424.865 320.273 425.458 320.146 425.458 320.146C425.573 319.367 425.659 318.641 425.727 317.957C426.468 310.28 424.278 308.375 423.475 307.972ZM18.6665 147.702C9.73609 154.079 14.7642 165.217 17.1642 167.574C17.1346 167.512 17.0605 167.325 16.9746 167.094C16.5687 166.019 15.8279 163.499 17.6028 162.948C18.9005 162.548 19.5553 163.496 21.025 165.089C21.025 165.089 21.2679 163.505 21.9702 160.545C22.4235 158.632 24.8235 156.944 29.7746 157.394C32.4087 157.631 35.7005 158.97 37.505 157.542C37.6568 157.422 37.7923 157.283 37.9079 157.127C41.025 153.078 29.0872 140.259 18.6665 147.702Z" fill="#412E69"/>
<path d="M604.001 313.265V348.463C604.001 384.169 582.285 400.594 555.494 385.12L442.057 320.487C441.66 318.872 441.204 317.024 440.682 314.897C439.138 316.291 437.228 317.216 435.177 317.563C436.027 321.118 437.121 325.638 438.436 331.419C438.513 331.91 438.564 332.404 438.587 332.9C438.587 333.804 438.315 334.494 437.861 334.909L438.098 334.781C437.926 334.952 437.726 335.091 437.506 335.193C437.523 335.176 437.539 335.157 437.553 335.137C438.608 333.91 438.297 333.04 434.715 317.661C432.641 318.008 429.805 318.102 425.731 317.957C426.475 310.289 424.285 308.384 423.482 307.981C423.864 307.795 424.225 307.567 424.558 307.303C424.684 307.206 424.815 307.116 424.952 307.033C431.606 300.973 433.248 298.053 434.469 299.279C435.654 300.464 432.572 304.489 430.747 306.684C431.321 306.715 431.896 306.704 432.469 306.651C432.561 305.763 432.904 305.09 433.491 304.744C433.265 305.06 433.124 305.428 433.079 305.813C433.041 306.002 433.017 306.193 433.008 306.385H433.032C433.032 306.438 433.032 306.5 433.032 306.557C434.489 306.346 436.211 305.801 438.303 304.649C439.295 304.107 440.252 303.504 441.171 302.845C442.433 301.957 443.085 301.687 443.396 302.765C443.592 303.438 443.052 304.341 442.62 304.927C443.615 304.104 444.398 305.736 442.824 307.735C443.838 306.936 444.572 309.021 442.564 311.038C442.564 311.038 443.355 310.078 443.598 310.523C443.876 311.041 443.722 311.619 443.301 312.255C574.925 387.525 566.732 383.079 574.762 383.079C590.685 383.079 596.143 364.419 596.143 348.469V313.265C596.143 280.684 575.731 241.369 551.556 227.418C147.319 -6.81258 175.704 7.86406 165.565 7.86406C152.575 7.86406 144.181 21.4507 144.181 42.4778V77.6751C144.181 110.257 164.593 149.574 188.756 163.519L269.746 213.029L287.953 316.221L322.697 243.395C331.855 248.614 340.632 253.617 349.115 258.457C348.854 261.881 349.725 265.607 352.137 269.227L326.152 254.417L341.263 263.14L308.812 327.527L284.478 341.78L262.614 217.89L184.824 170.329C158.033 154.867 136.318 113.385 136.318 77.678V42.4778C136.318 6.77109 158.033 -9.65312 184.824 5.82029L555.491 220.612C582.285 236.07 604.001 277.556 604.001 313.265ZM390.323 279.366C391.453 278.998 392.561 278.566 393.642 278.074L388.309 270.352C389.494 269.813 390.913 269.262 392.715 268.534C396.252 267.103 395.414 265.435 394.718 265.08C394.021 264.724 393.171 265.817 391.512 266.037C388.809 266.392 387.402 266.629 386.101 267.159C384.676 267.734 383.369 268.661 380.667 270.462C383.959 272.429 383.038 277.908 381.929 281.969L376.706 283.225L395.873 294.149C397.132 290.239 397.799 287.964 397.873 286.285L386.777 279.949C388.092 279.813 389.245 279.709 390.323 279.366ZM359.704 175.702C358.282 176.386 358.389 176.046 338.688 165.134C338.52 165.051 338.347 164.979 338.169 164.92L338.11 164.897C338.057 164.876 338.004 164.849 337.953 164.831L337.888 164.805C337.802 164.778 337.716 164.751 337.63 164.734H337.559C337.225 164.646 336.874 164.652 336.543 164.752C336.213 164.853 335.917 165.043 335.689 165.302C336.303 165.006 337.124 165.03 338.122 165.599C357.926 176.534 358.223 177.381 359.704 175.702ZM387.343 219.074C392.925 243.466 393.565 244.393 392.326 245.833C392.312 245.853 392.296 245.872 392.279 245.889C392.487 245.795 392.679 245.669 392.848 245.516C394.279 244.18 392.892 240.407 387.909 218.639C387.799 218.153 387.755 217.655 387.778 217.158C387.768 216.505 387.976 215.868 388.371 215.348C387.331 215.858 386.922 217.285 387.331 219.074H387.343ZM401.861 201.599C382.383 189.902 380.978 189.958 379.858 185.622L373.752 161.947C373.159 159.627 371.604 157.823 370.092 157.038L370.066 157.024C368.969 156.461 367.897 156.431 367.227 157.181C369.041 156.348 372.264 158.795 373.186 162.388L379.292 186.063C380.412 190.408 381.879 190.379 401.295 202.04C404.309 203.85 405.787 208.491 404.359 210.265C404.353 210.277 404.347 210.289 404.341 210.301C404.365 210.301 404.377 210.262 404.401 210.248C406.623 208.989 405.177 203.592 401.864 201.605L401.861 201.599ZM279.758 130.745C277.494 129.661 272.732 126.894 261.319 120.571C261.151 120.488 260.978 120.416 260.801 120.357L260.741 120.334C260.691 120.313 260.635 120.286 260.584 120.268L260.522 120.242C260.436 120.215 260.347 120.188 260.264 120.171H260.19C259.857 120.083 259.506 120.09 259.176 120.191C258.847 120.291 258.551 120.481 258.324 120.739C258.937 120.443 259.758 120.47 260.753 121.021C280.564 131.98 280.875 132.827 282.338 131.148C281.746 131.444 281.417 131.548 279.761 130.754L279.758 130.745ZM314.913 201.326C315.129 201.231 315.329 201.103 315.506 200.947C316.925 199.635 315.568 195.98 310.558 174.091C310.558 174.091 310.558 174.091 310.558 174.07C310.447 173.585 310.402 173.086 310.424 172.589C310.42 171.942 310.629 171.312 311.017 170.794C310.001 171.297 309.589 172.725 310.001 174.514C315.583 198.906 316.223 199.833 314.984 201.273L314.913 201.326ZM326.987 165.747C327.014 165.732 327.026 165.705 327.049 165.69C329.269 164.426 327.823 159.032 324.51 157.041C305.032 145.345 303.624 145.404 302.507 141.067L296.401 117.389C295.808 115.073 294.252 113.269 292.741 112.481L292.715 112.467C291.618 111.904 290.546 111.874 289.876 112.624C291.689 111.791 294.913 114.238 295.835 117.831L301.941 141.506C303.061 145.851 304.525 145.821 323.944 157.483C326.958 159.293 328.433 163.934 327.008 165.708C326.999 165.72 326.996 165.735 326.987 165.747ZM201.808 86.0457C199.562 84.9793 194.815 82.2158 183.319 75.8475C183.151 75.7647 182.978 75.6934 182.801 75.6343L182.741 75.6106C182.688 75.5899 182.635 75.5602 182.584 75.5454C182.534 75.5306 182.543 75.5247 182.522 75.5188C182.433 75.4921 182.347 75.4654 182.261 75.4447C182.238 75.4462 182.214 75.4462 182.19 75.4447C181.856 75.3565 181.505 75.363 181.175 75.4634C180.844 75.5639 180.549 75.7543 180.321 76.0134C180.934 75.7172 181.758 75.7409 182.753 76.2948C202.012 86.9579 202.842 88.045 204.217 86.5551L204.335 86.4218C204.182 86.5021 204.02 86.5637 203.852 86.6055C203.441 86.6854 202.943 86.5818 201.808 86.0457ZM236.901 156.6C237.11 156.507 237.302 156.381 237.47 156.227C238.901 154.891 237.515 151.117 232.531 129.344C232.531 129.276 232.531 129.217 232.501 129.148C232.421 128.741 232.386 128.326 232.398 127.91C232.382 127.245 232.591 126.594 232.99 126.062C231.971 126.569 231.562 127.996 231.971 129.785C237.553 154.177 238.193 155.104 236.955 156.544C236.934 156.562 236.919 156.582 236.901 156.6ZM248.978 121.018C249.002 121.018 249.014 120.976 249.038 120.965C251.257 119.7 249.811 114.303 246.498 112.315C227.02 100.619 225.615 100.675 224.495 96.3386L218.389 72.6634C217.796 70.3471 216.244 68.5433 214.729 67.7554L214.703 67.7406C213.609 67.1778 212.534 67.1482 211.864 67.8976C213.678 67.0653 216.901 69.5119 217.823 73.1047L223.929 96.7799C225.052 101.125 226.516 101.095 245.932 112.757C248.946 114.564 250.424 119.205 248.996 120.982C248.987 120.991 248.987 121.009 248.978 121.018ZM404.445 265.178C404.075 265.258 403.621 265.178 402.667 264.745C399.95 263.664 394.729 260.45 383.846 254.423C383.697 254.343 383.544 254.272 383.387 254.209L383.331 254.186C383.278 254.165 383.224 254.138 383.174 254.121L383.118 254.097C383.02 254.064 382.934 254.044 382.848 254.02C382.825 254.021 382.802 254.021 382.78 254.02C382.57 253.973 382.355 253.952 382.14 253.958C381.94 253.981 381.746 254.037 381.565 254.123C381.509 254.15 381.461 254.171 381.42 254.186C381.231 254.289 381.062 254.426 380.922 254.589C381.535 254.292 382.359 254.319 383.355 254.885C402.614 265.548 403.444 266.638 404.818 265.145L404.848 265.112C404.752 265.145 404.653 265.166 404.552 265.175L404.445 265.178ZM446.519 291.335C449.532 293.145 451.011 297.786 449.583 299.56C449.583 299.56 449.583 299.587 449.565 299.596C449.547 299.605 449.601 299.557 449.624 299.543C449.681 299.496 449.736 299.447 449.787 299.394C451.678 297.913 450.217 292.813 447.023 290.894C427.606 279.232 426.14 279.265 425.02 274.917L418.913 251.241C418.321 248.97 416.839 247.16 415.34 246.345H415.319H415.292C415.072 246.233 414.842 246.139 414.605 246.067C414.484 246.03 414.362 245.999 414.238 245.975C414.109 245.951 413.98 245.937 413.849 245.934C413.637 245.926 413.425 245.952 413.221 246.011L413.121 246.04C412.863 246.138 412.633 246.296 412.451 246.502C414.264 245.67 417.488 248.117 418.409 251.709L424.516 275.385C425.651 279.703 427.115 279.674 446.519 291.335ZM374.46 255.394C373.992 256.407 373.168 257.281 371.921 257.376C369.781 257.533 368.753 260.065 369.227 261.253C369.701 262.441 369.387 262.758 369.387 262.758C366.398 261.573 366.356 265.243 367.802 268.385C368.279 269.416 364.715 272.583 361.784 272.828C358.966 273.056 355.221 272.76 353.811 271.401C353.979 272.213 353.996 273.05 353.861 273.868C353.816 274.12 353.758 274.369 353.686 274.615C354.055 274.979 354.451 275.315 354.872 275.619C355.078 275.758 355.294 275.884 355.518 275.995L370.658 279.398C370.658 279.398 370.024 275.758 370.341 273.539C370.436 272.873 370.617 272.517 370.86 272.295C371.452 272.171 372.045 272.038 372.638 271.898L372.401 271.765C372.762 271.675 373.107 271.526 373.42 271.324C375.002 270.296 374.925 266.496 374.765 258.587C374.747 257.516 374.645 256.449 374.46 255.394ZM179.141 335.143C176.392 334.067 175.716 334.121 174.223 334.408L153.396 338.451C150.655 338.984 148.015 337.903 147.574 336.443L147.541 336.458V337.666H147.574C148.015 339.127 150.655 340.208 153.396 339.674C175.42 335.4 175.778 334.918 178.315 336.013L179.132 336.366C179.135 335.987 179.138 335.593 179.141 335.143ZM139.918 308.745C139.912 308.725 139.899 308.707 139.882 308.695C139.882 311.308 139.02 310.552 147.488 316.989C147.488 316.663 147.488 316.239 147.509 315.674C145.704 314.311 143.523 312.661 140.86 310.606C140.261 310.135 140.015 309.779 139.918 308.745ZM140.116 301.726C140.059 301.869 140.024 302.021 140.012 302.176C139.941 302.768 140.169 303.361 140.86 303.888L147.556 309.045V310.022H147.589C147.606 310.084 147.654 310.144 147.681 310.209C146.872 312.137 150.051 313.902 153.411 313.251L174.241 309.208C177.183 308.636 176.907 308.979 196.015 317.205C198.978 318.484 203.171 317.255 203.126 315.132L203.097 314.047C203.097 314 203.129 313.959 203.126 313.911L203.097 312.827C202.969 314.865 198.925 316.017 196.03 314.767C176.952 306.536 177.209 306.177 174.252 306.77L153.426 310.813C150.685 311.346 148.045 310.265 147.604 308.805C147.467 308.864 147.503 308.917 147.538 306.53C145.734 305.167 143.553 303.518 140.889 301.462C140.297 301 140.045 300.644 139.947 299.611C139.942 299.59 139.929 299.573 139.912 299.56C139.882 300.585 139.752 301.092 140.116 301.726ZM153.396 331.742L174.226 327.699C175.707 327.403 176.383 327.356 179.126 328.428C179.126 327.744 179.126 326.947 179.141 325.993C176.386 324.915 175.713 324.968 174.223 325.259L153.396 329.302C150.655 329.835 148.015 328.754 147.574 327.29H147.541V328.511L147.574 328.496C147.601 328.561 147.632 328.624 147.666 328.686C147.565 328.915 147.523 329.165 147.541 329.414C147.684 331.04 150.472 332.311 153.396 331.742ZM140.86 282.944C140.267 282.482 140.015 282.126 139.918 281.092C139.912 281.072 139.899 281.054 139.882 281.042C139.882 282.082 139.752 282.588 140.116 283.222C140.059 283.366 140.024 283.518 140.012 283.672C139.941 284.25 140.169 284.857 140.86 285.384L151.849 293.867C151.106 295.117 150.22 296.598 149.156 298.405C147.082 296.844 144.395 294.821 140.86 292.093C140.267 291.631 140.015 291.276 139.918 290.242C139.912 290.222 139.899 290.204 139.882 290.192C139.882 291.288 139.74 291.791 140.178 292.472C140.089 292.645 140.031 292.833 140.009 293.026C139.938 293.619 140.166 294.211 140.857 294.735L148.048 300.289L147.734 300.822C146.564 302.836 149.906 304.765 153.393 304.08L174.223 300.049C177.165 299.477 176.889 299.821 195.998 308.046C198.961 309.326 203.153 308.097 203.109 305.973L202.987 301.503C203.826 300.289 207.541 299.104 222.564 292.985C223.675 292.532 224.267 291.877 224.398 291.208C224.403 291.132 224.403 291.055 224.398 290.979C224.401 290.939 224.401 290.898 224.398 290.858C224.394 290.68 224.359 290.503 224.294 290.337C224.534 289.792 224.412 289.152 224.404 288.151C224.405 288.171 224.405 288.192 224.404 288.213C224.423 288.442 224.388 288.672 224.303 288.885C224.092 289.774 223.612 290.132 222.575 290.556C207.201 296.815 203.636 297.86 202.934 299.199L202.771 293.275C202.721 291.436 204.06 291.385 222.575 283.844C223.686 283.391 224.279 282.736 224.409 282.067C224.415 281.991 224.415 281.915 224.409 281.839C224.412 281.797 224.412 281.756 224.409 281.714C224.365 280.681 223.298 279.665 221.307 279.303L200.27 275.494C197.307 274.955 197.9 274.816 190.735 261.653C189.63 259.621 184.972 259.186 182.854 260.918L170.196 271.27C168.383 272.751 167.684 272.36 144.498 272.159C141.962 272.135 140.205 273.276 140.054 274.543C139.983 275.121 140.211 275.728 140.901 276.252L154.075 286.442C155.369 287.44 155.426 287.783 152.863 292.141C150.845 290.464 147.15 287.798 140.86 282.944ZM224.389 297.3V297.363C224.408 297.591 224.373 297.822 224.288 298.035C224.078 298.923 223.598 299.282 222.561 299.705C207.577 305.807 203.829 306.986 202.984 308.224L203.052 310.783C204.006 309.598 207.876 308.328 222.561 302.348C223.672 301.894 224.264 301.24 224.395 300.57C224.401 300.493 224.401 300.416 224.395 300.339C224.398 300.299 224.398 300.258 224.395 300.218C224.384 300.013 224.334 299.812 224.249 299.625C224.593 299.024 224.398 298.399 224.389 297.3ZM235.26 373.802C216.161 365.562 216.43 365.213 213.482 365.805L192.652 369.848C189.915 370.378 187.272 369.3 186.83 367.837H186.798V369.063H186.83C187.272 370.527 189.915 371.605 192.652 371.074C214.721 366.789 215.044 366.318 217.574 367.411L235.26 375.026C238.223 376.302 242.412 375.076 242.371 372.952L242.338 371.865C242.205 373.903 238.161 375.055 235.26 373.802ZM263.639 347.245C263.656 347.474 263.621 347.704 263.538 347.918C263.325 348.806 262.848 349.165 261.808 349.588C246.786 355.708 243.061 356.878 242.226 358.116L242.261 359.419C242.643 358.821 243.209 358.363 243.873 358.113C265.639 349.248 263.681 350.815 263.645 347.183C263.648 347.207 263.648 347.228 263.645 347.248L263.639 347.245ZM242.324 362.914C242.199 364.952 238.155 366.104 235.26 364.854C216.161 356.614 216.43 356.265 213.482 356.857L192.652 360.9C189.915 361.433 187.272 360.352 186.83 358.892L186.798 358.907V360.124H186.83C186.83 360.16 186.872 360.195 186.886 360.231C186.816 360.425 186.785 360.632 186.798 360.838C186.943 362.446 189.731 363.717 192.652 363.148L213.482 359.105C216.427 358.533 216.164 358.877 235.26 367.12C237.855 368.24 241.396 367.434 242.19 365.784C242.305 365.554 242.361 365.298 242.356 365.041L242.329 364.152C242.329 364.114 242.356 364.078 242.356 364.04L242.324 362.914ZM186.996 350.909C186.829 351.198 186.76 351.532 186.798 351.863C186.943 353.474 189.731 354.745 192.652 354.176L213.482 350.133C216.445 349.559 216.175 349.911 235.26 358.145C238.223 359.425 242.412 358.196 242.371 356.072L242.241 351.404C243.073 350.19 246.777 349.011 261.823 342.882C262.937 342.429 263.529 341.772 263.66 341.105C263.666 341.027 263.666 340.949 263.66 340.871C263.66 340.833 263.66 340.794 263.66 340.753C263.663 340.615 263.647 340.477 263.612 340.344C263.817 339.82 263.675 339.218 263.666 338.247C263.666 338.271 263.666 338.291 263.666 338.312C263.682 338.541 263.648 338.77 263.565 338.984C263.352 339.873 262.875 340.231 261.835 340.655C246.368 346.952 242.872 348.007 242.196 349.295L242.03 343.371C241.98 341.532 243.319 341.481 261.835 333.94C262.949 333.487 263.541 332.832 263.672 332.163C263.678 332.086 263.678 332.009 263.672 331.932C263.672 331.89 263.672 331.852 263.672 331.81C263.627 330.777 262.561 329.761 260.569 329.399L239.532 325.59C236.569 325.051 237.118 324.853 229.995 311.749C229.206 310.298 226.617 309.676 224.424 310.064C224.374 310.064 224.321 310.064 224.27 310.087C224.336 309.974 224.387 309.852 224.421 309.726C224.427 309.65 224.427 309.574 224.421 309.498C224.424 309.456 224.424 309.415 224.421 309.373C224.419 309.202 224.387 309.033 224.326 308.873C224.602 308.319 224.439 307.706 224.43 306.669V306.731C224.448 306.959 224.414 307.188 224.332 307.401C224.119 308.289 223.639 308.651 222.602 309.071C207.609 315.155 203.852 316.34 202.978 317.566L203.044 319.936C203.932 318.81 207.512 317.593 220.404 312.368L209.423 321.352C208.398 322.19 207.645 322.427 203.079 322.439V321.977C203.069 322.135 203.034 322.291 202.975 322.439C200.605 322.439 197.245 322.388 192.332 322.323C176.946 315.638 176.981 315.374 174.235 315.905L153.408 319.948C150.667 320.481 148.027 319.403 147.586 317.939H147.553V319.157H147.586C147.622 319.249 147.667 319.339 147.719 319.423C147.582 319.685 147.524 319.982 147.553 320.276C147.695 321.888 150.484 323.155 153.408 322.59L174.238 318.547C176.546 318.096 176.883 318.215 186.11 322.249L183.74 322.225C180.054 322.19 177.926 324.595 180.143 326.319L193.363 336.529C194.661 337.53 194.715 337.871 192.155 342.228C190.128 340.551 186.433 337.885 180.143 333.031C179.55 332.569 179.295 332.213 179.201 331.18C179.193 331.16 179.181 331.143 179.165 331.129C179.165 332.116 179.038 332.61 179.337 333.203C179.091 333.875 179.31 334.618 180.143 335.258L191.215 343.806C190.475 345.048 189.586 346.537 188.519 348.344C186.445 346.774 183.725 344.734 180.143 341.967C179.55 341.505 179.295 341.15 179.201 340.116C179.191 340.097 179.179 340.08 179.165 340.065C179.165 342.799 178.211 341.843 187.977 349.268L186.996 350.909ZM60.1487 208.912C58.2753 207.943 56.4572 206.871 54.7027 205.701C52.3324 203.998 50.3205 197.274 49.722 195.118L45.4642 197.082C45.3161 200.254 45.1679 203.121 45.319 205.266C45.3214 206.426 45.2392 207.585 45.0731 208.734C52.2879 208.82 56.9961 208.9 60.1487 208.912ZM17.1857 167.379C17.4464 167.639 18.3709 168.371 18.8924 168.792L18.2553 170.175L18.1605 170.379C18.1605 170.379 21.9887 176.682 24.842 178.48C29.3279 181.315 31.1116 182.035 32.2346 180.666C32.2409 180.656 32.2489 180.647 32.2583 180.64C32.8509 179.893 33.2598 178.566 33.7872 176.617C34.3253 176.467 34.8153 176.181 35.2094 175.785C35.3749 175.625 35.5219 175.447 35.6479 175.255C36.0924 174.55 36.6079 172.589 37.0494 170.116C37.7842 166.01 38.3057 160.534 37.9383 157.133C37.8226 157.288 37.6872 157.428 37.5353 157.548C35.7368 158.976 32.439 157.637 29.805 157.4C24.8539 156.95 22.4539 158.638 22.0005 160.551C21.2983 163.513 21.0553 165.095 21.0553 165.095C19.5739 163.502 18.9309 162.554 17.6331 162.954C15.8553 163.499 16.599 166.019 17.005 167.1C17.0521 167.196 17.1045 167.289 17.162 167.379H17.1857ZM49.0672 240.602C50.2524 240.72 54.4894 244.592 56.4361 246.251L56.8094 246.567C58.5427 248.001 62.8776 249.529 66.6287 249.381C68.7827 249.298 70.5339 249.014 73.0553 247.266C74.1161 246.532 74.7857 245.815 74.9931 245.095C75.0653 244.903 75.095 244.698 75.0802 244.494C75.0653 244.289 75.0063 244.09 74.9072 243.911C74.9072 243.89 74.9072 243.869 74.8835 243.848C74.8354 243.771 74.7765 243.701 74.7087 243.641C74.683 243.601 74.6553 243.563 74.6257 243.525C74.5165 243.438 74.3971 243.365 74.2702 243.306C73.162 242.749 70.9516 242.714 69.3161 241.811C67.2598 240.673 63.9413 237.225 63.9413 237.225C70.7057 237.735 71.9857 238.964 71.8227 237.373C71.6687 235.866 66.0568 234.183 64.2672 233.558C62.3827 232.904 56.6227 233.12 54.9013 232.966C53.9531 232.88 51.7042 231.485 49.3902 230.048C47.5146 228.884 45.5946 227.679 44.282 227.125L44.0687 227.03C39.6242 225.096 30.6168 220.514 27.8435 218.514C25.482 216.817 23.4613 210.085 22.8598 207.931L9.86719 213.923C10.919 216.462 12.5872 220.383 14.3768 224.148C17.3398 230.407 23.1739 229.305 27.0583 231.817C31.2894 234.554 39.5916 237.83 44.8509 239.518C46.7827 240.125 48.3176 240.531 49.0672 240.602ZM88.8894 396.314C62.3353 396.314 40.8094 383.784 40.8064 368.326C40.8064 388.491 68.5013 397.297 88.8894 397.297C109.278 397.297 136.975 388.482 136.975 368.323C136.984 383.775 115.458 396.314 88.8894 396.314ZM136.978 308.272C136.978 308.337 136.978 308.399 136.978 308.464C136.978 323.926 115.449 336.458 88.8953 336.458C62.3413 336.458 40.8094 323.926 40.8094 308.464C40.8303 305.504 41.5998 302.597 43.0464 300.014C49.2005 288.684 67.399 280.464 88.8953 280.464C115.346 280.473 136.798 292.902 136.978 308.272ZM132.534 308.473C132.531 307.515 132.437 306.56 132.252 305.621C131.281 299.833 127.165 295.141 121.464 291.572C113.464 286.362 101.852 283.077 88.9102 283.077C88.2939 283.077 87.6736 283.086 87.0494 283.104C75.7013 283.382 65.4761 286.178 57.9827 290.562C51.405 294.267 46.602 299.32 45.5561 305.668C45.3774 306.596 45.2861 307.539 45.2835 308.485C45.2835 322.51 64.8153 333.881 88.9102 333.881C113.005 333.881 132.525 322.498 132.525 308.473H132.534Z" fill="#FFDDC5"/>
<path d="M392.315 245.845C393.55 244.405 392.907 243.475 387.331 219.086C386.922 217.309 387.331 215.869 388.35 215.366C387.956 215.886 387.747 216.523 387.758 217.176C387.771 217.671 387.815 218.166 387.888 218.657C392.872 240.424 394.258 244.198 392.827 245.534C397.704 243.386 396.975 245.614 390.519 217.359C390.353 216.637 390.676 215.031 390.815 214.311L403.944 210.461C404.086 210.416 404.222 210.356 404.35 210.28C405.778 208.503 404.3 203.864 401.287 202.055C381.87 190.393 380.404 190.423 379.284 186.078L373.177 162.403C372.25 158.81 369.029 156.363 367.218 157.195C367.888 156.434 368.961 156.476 370.057 157.038L370.098 157.059C371.61 157.844 373.159 159.648 373.758 161.967L379.853 185.628C380.973 189.964 382.377 189.908 401.855 201.605C405.168 203.592 406.614 208.989 404.395 210.254L404.496 210.179L406.913 209.039C409.31 207.908 407.858 202.339 404.487 200.313C385.008 188.616 383.601 188.672 382.484 184.336L376.377 160.661C375.373 156.766 371.669 154.213 369.989 155.732L367.589 156.757L367.627 156.799C367.193 157.049 366.867 157.452 366.715 157.93L360.608 174.559C336.904 161.401 341.257 162.643 336.016 164.888C336.016 164.888 336.045 164.888 336.063 164.888C334.614 165.732 334.487 168.661 336.439 171.484L351.254 192.926C354.001 196.898 352.626 198.053 347.171 215.588C346.158 218.846 349.938 224.178 352.801 223.541L368.069 220.167C370.86 219.548 371.559 221.601 387.547 243.594C389.215 245.845 391.144 246.505 392.315 245.845ZM338.11 165.575C337.112 165.021 336.291 164.983 335.678 165.279C335.906 165.02 336.201 164.829 336.532 164.729C336.862 164.628 337.214 164.622 337.547 164.71C337.34 164.662 337.127 164.64 336.913 164.645C337.151 164.629 337.389 164.655 337.618 164.719C337.704 164.737 337.79 164.763 337.876 164.79C337.962 164.817 338.063 164.864 338.173 164.906C338.35 164.965 338.523 165.036 338.691 165.119C358.392 176.031 358.285 176.374 359.707 175.687C358.223 177.381 357.927 176.534 338.11 165.575ZM327.147 155.75C307.669 144.053 306.261 144.109 305.144 139.773L299.032 116.11C298.024 112.215 294.324 109.662 292.644 111.181L290.244 112.206L290.282 112.247C289.847 112.497 289.52 112.901 289.367 113.379L283.26 129.996C259.556 116.838 263.912 118.08 258.667 120.325C258.682 120.325 258.7 120.325 258.715 120.325C257.269 121.169 257.141 124.098 259.091 126.921L273.906 148.363C276.653 152.335 275.278 153.49 269.823 171.025C268.81 174.283 272.59 179.615 275.453 178.978L290.718 175.604C293.512 174.985 294.208 177.038 310.199 199.034C311.835 201.282 313.755 201.93 314.94 201.258C316.176 199.818 315.533 198.888 309.956 174.499C309.544 172.722 309.956 171.283 310.973 170.779C310.584 171.297 310.376 171.927 310.38 172.574C310.396 173.078 310.442 173.58 310.516 174.079C315.527 195.968 316.884 199.623 315.464 200.935C320.318 198.805 319.613 201.057 313.141 172.767C312.978 172.044 313.298 170.438 313.438 169.719L326.567 165.868C326.708 165.824 326.845 165.763 326.973 165.687C328.398 163.91 326.922 159.272 323.909 157.462C304.49 145.801 303.026 145.83 301.906 141.485L295.799 117.81C294.872 114.217 291.651 111.77 289.841 112.603C290.51 111.842 291.583 111.883 292.679 112.446L292.721 112.469C294.232 113.257 295.781 115.061 296.38 117.378L302.519 141.067C303.636 145.404 305.044 145.345 324.522 157.041C327.835 159.032 329.281 164.426 327.061 165.69C327.097 165.67 327.127 165.64 327.162 165.616L329.58 164.476C331.965 163.348 330.513 157.776 327.141 155.75H327.147ZM260.741 121.012C259.746 120.461 258.925 120.419 258.312 120.73C258.54 120.472 258.835 120.282 259.165 120.182C259.494 120.081 259.845 120.075 260.178 120.162C259.972 120.113 259.76 120.092 259.547 120.097C259.785 120.081 260.023 120.106 260.253 120.171C260.335 120.188 260.424 120.215 260.51 120.242C260.596 120.268 260.694 120.316 260.789 120.357C260.966 120.416 261.14 120.488 261.307 120.571C272.721 126.891 277.482 129.661 279.746 130.745C280.318 131.025 280.926 131.224 281.553 131.337C280.927 131.224 280.32 131.025 279.749 130.745C281.405 131.539 281.725 131.429 282.327 131.139C280.89 132.818 280.564 131.983 260.741 121.012ZM249.118 111.024C229.639 99.3272 228.235 99.3835 227.115 95.0471L221.02 71.3838C220.016 67.4888 216.312 64.9356 214.632 66.4551L212.235 67.4799L212.27 67.5214C211.835 67.7714 211.51 68.175 211.358 68.6529L205.251 85.2785C181.547 72.1243 185.9 73.3654 180.658 75.6106C180.658 75.6106 180.688 75.6106 180.706 75.6106C179.257 76.4547 179.13 79.3841 181.082 82.2069L195.897 103.649C198.644 107.621 197.269 108.776 191.814 126.311C190.804 129.569 194.584 134.901 197.444 134.264L212.741 130.89C215.533 130.271 216.232 132.324 232.22 154.316C233.855 156.568 235.775 157.216 236.961 156.544C238.196 155.104 237.553 154.174 231.977 129.785C231.568 128.008 231.977 126.569 232.996 126.062C232.597 126.594 232.388 127.245 232.404 127.91C232.404 128.263 232.448 128.675 232.507 129.148C232.507 129.217 232.507 129.276 232.537 129.344C237.521 151.117 238.907 154.891 237.476 156.227C242.347 154.085 241.651 156.378 235.168 128.053C235.002 127.33 235.325 125.721 235.464 125.005L248.593 121.154C248.735 121.11 248.872 121.049 248.999 120.973C250.427 119.196 248.949 114.555 245.936 112.748C226.519 101.087 225.056 101.116 223.933 96.771L217.826 73.0958C216.901 69.503 213.678 67.0564 211.867 67.8887C212.537 67.1274 213.613 67.1689 214.706 67.7317L214.75 67.7524H214.733C216.247 68.5403 217.796 70.3442 218.392 72.6604L224.498 96.3356C225.618 100.672 227.023 100.616 246.501 112.313C249.814 114.3 251.26 119.697 249.041 120.962C249.079 120.938 249.109 120.911 249.141 120.887L251.559 119.747C253.953 118.619 252.501 113.047 249.13 111.024H249.118ZM204.208 86.5462C202.833 88.0272 202.004 86.952 182.744 76.2859C181.749 75.732 180.925 75.6935 180.312 76.0045C180.54 75.7454 180.836 75.555 181.166 75.4545C181.496 75.3541 181.848 75.3476 182.181 75.4358C181.975 75.3876 181.763 75.3658 181.55 75.3706C181.787 75.3557 182.024 75.3797 182.253 75.4417C182.338 75.4625 182.424 75.4891 182.513 75.5158C182.602 75.5424 182.697 75.5898 182.792 75.6313C182.969 75.6904 183.143 75.7617 183.31 75.8446C194.807 82.2128 199.553 84.9764 201.799 86.0427C202.715 86.4337 203.364 86.6114 203.844 86.5966C204.011 86.5548 204.174 86.4932 204.327 86.4129L204.208 86.5462C204.43 86.4853 204.629 86.3583 204.777 86.1819C204.629 86.3583 204.43 86.4853 204.208 86.5462ZM201.808 86.0456C202.718 86.4366 203.367 86.6114 203.841 86.5966C203.441 86.6854 202.943 86.5818 201.808 86.0456ZM437.547 335.122C436.362 335.794 434.448 335.146 432.807 332.897C429.047 327.723 426.14 323.662 423.844 320.457C424.857 320.25 425.45 320.122 425.45 320.122C425.565 319.343 425.651 318.618 425.719 317.934C429.793 318.076 432.617 317.981 434.703 317.637C438.291 333.025 438.602 333.896 437.547 335.122ZM442.057 320.472C445.073 332.767 444.368 331.399 438.107 334.766L437.87 334.894C438.324 334.479 438.581 333.789 438.596 332.886C438.573 332.39 438.522 331.895 438.445 331.405C437.121 325.623 436.027 321.109 435.186 317.548C437.237 317.201 439.147 316.276 440.691 314.883C441.204 317.009 441.66 318.858 442.057 320.487V320.472ZM452.318 288.003C432.839 276.306 431.432 276.362 430.315 272.026L424.208 248.351C423.201 244.456 419.497 241.902 417.82 243.422L412.833 246.046L412.869 246.088C412.434 246.338 412.108 246.741 411.956 247.219L406.777 261.318L389.124 251.544C387.399 250.59 387.426 250.951 381.266 254.189C381.266 254.189 381.296 254.189 381.313 254.189C379.864 255.033 379.737 257.962 381.69 260.785L386.098 267.171C387.399 266.647 388.807 266.404 391.509 266.048C393.168 265.829 394.018 264.736 394.715 265.092C395.411 265.447 396.25 267.115 392.712 268.545C390.91 269.274 389.497 269.825 388.306 270.364L393.639 278.086L396.507 282.233C397.488 283.651 397.933 284.718 397.867 286.291C397.793 287.97 397.127 290.245 395.867 294.155C395.035 296.732 393.947 300.028 392.608 304.338C397.823 309.166 401.251 311.008 413.017 309.545L413.337 309.474C413.62 309.405 413.911 309.378 414.202 309.394C416.792 309.039 419.761 308.541 423.21 307.892C423.156 307.869 423.275 307.875 423.479 307.978C423.861 307.792 424.222 307.564 424.555 307.3C424.681 307.203 424.813 307.113 424.949 307.03C431.604 300.97 433.245 298.05 434.466 299.276C435.651 300.461 432.57 304.486 430.744 306.681C431.318 306.712 431.894 306.701 432.466 306.648C432.558 305.76 432.901 305.087 433.488 304.741C433.263 305.057 433.121 305.425 433.076 305.81C433.048 306.006 433.033 306.204 433.029 306.402C433.029 306.456 433.029 306.518 433.029 306.574C434.487 306.364 436.208 305.819 438.3 304.667C438.192 304.104 438.182 303.527 438.27 302.961L449.186 299.753C449.328 299.709 449.464 299.648 449.592 299.572C451.02 297.795 449.541 293.156 446.528 291.347C427.112 279.685 425.648 279.715 424.525 275.37L418.418 251.695C417.494 248.102 414.27 245.655 412.46 246.487C412.642 246.281 412.872 246.123 413.13 246.025L413.23 245.996C413.434 245.937 413.646 245.911 413.858 245.919C413.989 245.922 414.118 245.936 414.247 245.96C414.371 245.984 414.493 246.015 414.614 246.052C414.851 246.125 415.081 246.218 415.301 246.33L415.34 246.354H415.361C416.842 247.169 418.347 248.979 418.934 251.25L425.041 274.925C426.161 279.274 427.627 279.241 447.044 290.902C450.238 292.822 451.698 297.91 449.808 299.403C449.757 299.456 449.702 299.505 449.645 299.551C449.681 299.531 449.713 299.501 449.746 299.477L454.753 296.738C457.138 295.606 455.704 290.029 452.318 288.003ZM404.807 265.124C403.432 266.605 402.605 265.53 383.343 254.864C382.347 254.313 381.524 254.272 380.91 254.568C381.051 254.405 381.219 254.268 381.408 254.165C381.45 254.165 381.497 254.129 381.553 254.103C381.734 254.016 381.929 253.96 382.128 253.937C382.343 253.931 382.558 253.952 382.768 253.999C382.565 253.952 382.357 253.931 382.149 253.934C382.38 253.922 382.612 253.946 382.836 254.005C382.922 254.029 383.008 254.049 383.106 254.082C383.204 254.115 383.284 254.153 383.376 254.195C383.532 254.257 383.686 254.329 383.835 254.408C394.718 260.435 399.938 263.649 402.655 264.73C403.607 265.16 404.06 265.243 404.433 265.163C404.058 265.158 403.685 265.092 403.331 264.967C403.711 265.102 404.114 265.16 404.516 265.139C404.617 265.13 404.717 265.109 404.813 265.077C405.068 264.986 405.29 264.819 405.447 264.597C405.304 264.844 405.077 265.031 404.807 265.124ZM99.9177 255.054C100.943 260.619 104.605 264.621 104.605 267.198C104.605 273.394 95.2303 273.403 95.2303 267.198C95.2185 264.609 97.2688 259.434 99.9059 255.042L99.9177 255.054ZM50.1844 228.704C48.8837 227.629 46.8837 226.136 43.9622 223.926C42.3296 222.691 40.4274 221.26 38.1725 219.507C36.934 218.547 37.1948 218.079 37.1948 210.958L37.3251 211.086C37.4822 209.818 39.2392 208.678 41.7696 208.716L45.0614 208.749C52.2881 208.826 56.9963 208.915 60.137 208.927C65.6718 208.947 66.3592 208.74 67.4674 207.839L80.1251 197.487C82.2437 195.755 86.9014 196.19 88.0066 198.222C95.1592 211.385 94.5666 211.524 97.5444 212.063L118.581 215.872C120.573 216.234 121.639 217.25 121.681 218.286C121.681 218.331 121.681 218.366 121.681 218.408C121.687 218.485 121.687 218.562 121.681 218.639C121.681 225.558 122.164 226.192 119.844 227.137C104.374 233.437 100.881 234.491 100.202 235.777L100.389 242.563C100.396 242.82 100.34 243.076 100.226 243.306L100.389 249.272C100.41 249.997 99.9118 250.605 99.1622 251.049C98.0274 253.033 97.5651 254.683 95.3459 254.307C92.7118 253.869 94.5429 252.53 92.9311 251.179L90.8155 250.261C87.1414 250.074 92.934 262.592 87.5562 261.164C81.2007 259.485 90.4985 250.083 87.3696 248.836C84.7799 247.803 87.1177 251.766 84.1696 250.85C81.7429 250.098 84.9755 247.723 82.6881 246.967C79.9918 246.079 81.414 248.819 78.5666 247.903C76.694 247.311 77.3607 245.599 76.0629 243.913C75.4709 243.68 74.8654 243.482 74.2496 243.321C73.1414 242.764 70.9311 242.729 69.2955 241.825C67.26 240.673 63.9414 237.225 63.9414 237.225C70.7059 237.735 71.9859 238.964 71.8229 237.373C71.6688 235.866 66.057 234.183 64.2674 233.558C62.3829 232.904 56.6229 233.12 54.9014 232.966C53.9533 232.88 51.7044 231.485 49.3903 230.048L50.1844 228.704ZM45.5444 246.304C45.241 246.054 45.0124 245.725 44.8837 245.353C44.6999 245.436 44.8333 245.507 44.8511 239.506C46.7829 240.125 48.3177 240.531 49.0674 240.602C50.2525 240.72 54.4896 244.592 56.4362 246.251L50.7059 247.361C48.6111 247.77 46.5844 247.231 45.5444 246.304ZM132.244 305.621C132.428 306.56 132.522 307.515 132.525 308.473C132.525 322.498 112.993 333.869 88.9014 333.869C64.8096 333.869 45.2748 322.498 45.2748 308.473C45.2774 307.527 45.3687 306.584 45.5474 305.656C46.5933 299.32 51.3962 294.267 57.974 290.55C65.4674 286.166 75.6925 283.37 87.0407 283.092C87.6669 283.074 88.2871 283.065 88.9014 283.065C101.844 283.065 113.464 286.35 121.456 291.56C127.156 295.141 131.26 299.833 132.244 305.621Z" fill="#E63114"/>
<path d="M181.55 75.3707C181.786 75.3557 182.023 75.3797 182.252 75.4418C182.228 75.4432 182.205 75.4432 182.181 75.4418C181.974 75.3916 181.762 75.3677 181.55 75.3707ZM393.642 278.074C392.561 278.566 391.453 278.998 390.323 279.366C389.245 279.709 388.092 279.813 386.768 279.958L397.864 286.294C397.929 284.721 397.485 283.654 396.504 282.236L393.642 278.074ZM383.331 254.186L383.387 254.209C383.295 254.168 383.2 254.126 383.117 254.097L383.173 254.121C383.224 254.138 383.277 254.165 383.331 254.186ZM182.575 75.5306C182.625 75.5484 182.679 75.5751 182.732 75.5958L182.791 75.6195C182.696 75.578 182.599 75.5336 182.513 75.504C182.533 75.5306 182.554 75.5306 182.575 75.5306ZM404.836 265.098L404.806 265.13C405.082 265.046 405.318 264.864 405.47 264.618C405.313 264.839 405.091 265.007 404.836 265.098ZM382.848 254.026C382.623 253.967 382.392 253.943 382.16 253.955C382.368 253.951 382.576 253.973 382.779 254.02C382.802 254.021 382.825 254.021 382.848 254.02V254.026ZM404.445 265.178L404.528 265.154C404.125 265.175 403.722 265.116 403.342 264.982C403.697 265.106 404.069 265.172 404.445 265.178ZM433.028 306.379C433.032 306.181 433.048 305.983 433.076 305.786C433.038 305.975 433.014 306.166 433.005 306.358L433.028 306.379ZM260.741 120.334L260.8 120.357L260.667 120.304L260.741 120.334ZM260.584 120.268L260.667 120.304L260.522 120.242L260.584 120.268ZM370.095 157.044L370.053 157.024L370.095 157.044ZM337.547 164.725H337.618C337.389 164.66 337.15 164.635 336.913 164.651C337.126 164.649 337.339 164.674 337.547 164.725ZM442.371 308.28C442.535 308.107 442.688 307.923 442.83 307.73C442.645 307.884 442.489 308.071 442.371 308.28ZM596.148 313.265V348.463C596.148 364.422 590.69 383.074 574.768 383.074C566.738 383.074 574.93 387.516 443.307 312.249C443.731 311.613 443.899 311.035 443.603 310.517C443.36 310.072 442.569 311.032 442.569 311.032C444.578 309.015 443.843 306.93 442.83 307.73C444.397 305.73 443.621 304.098 442.625 304.922C443.058 304.329 443.597 303.441 443.402 302.759C443.105 301.681 442.439 301.936 441.176 302.839C440.258 303.498 439.3 304.101 438.308 304.643C438.2 304.08 438.19 303.503 438.279 302.937L449.185 299.753C449.327 299.709 449.464 299.648 449.591 299.572C449.591 299.572 449.591 299.599 449.573 299.608C449.556 299.617 449.609 299.569 449.633 299.554C449.656 299.54 449.701 299.504 449.733 299.48L454.741 296.741C457.135 295.612 455.686 290.041 452.314 288.015C432.836 276.318 431.428 276.374 430.311 272.038L424.205 248.362C423.197 244.467 419.493 241.914 417.816 243.434L412.83 246.058L412.865 246.099C412.43 246.35 412.105 246.753 411.953 247.231L406.773 261.33L389.12 251.555C387.396 250.602 387.422 250.963 381.262 254.201C381.262 254.201 381.292 254.201 381.31 254.201C379.861 255.045 379.733 257.974 381.686 260.797L386.098 267.171C384.673 267.746 383.366 268.673 380.664 270.474C380.403 270.317 380.127 270.186 379.84 270.083C379.84 270.083 376.249 271.066 372.643 271.892L372.406 271.759C372.768 271.67 373.112 271.52 373.425 271.318C375.008 270.29 374.931 266.49 374.771 258.581C374.755 257.519 374.656 256.459 374.474 255.412C374.79 254.744 374.951 254.015 374.945 253.276C374.865 251.138 372.252 246.39 365.363 245.045C357.256 243.46 349.769 250.036 349.129 258.475C340.646 253.635 331.87 248.632 322.711 243.413L287.953 316.221L269.745 213.029L188.756 163.519C164.593 149.58 144.181 110.263 144.181 77.6751V42.4778C144.181 21.4477 152.575 7.86408 165.565 7.86408C175.704 7.86408 147.319 -6.81255 551.547 227.418C575.722 241.369 596.148 280.681 596.148 313.265ZM249.129 111.024C229.651 99.3272 228.246 99.3835 227.126 95.0471L221.019 71.3838C220.015 67.4888 216.311 64.9356 214.631 66.4551L212.234 67.48L212.27 67.5214C211.835 67.7714 211.509 68.1751 211.357 68.6529L205.251 85.2785C181.547 72.1243 185.899 73.3654 180.658 75.6106C180.658 75.6106 180.688 75.6106 180.705 75.6106C179.256 76.4548 179.129 79.3842 181.082 82.2069L195.896 103.649C198.643 107.621 197.268 108.776 191.813 126.311C190.803 129.569 194.584 134.901 197.443 134.264L212.741 130.89C215.532 130.271 216.231 132.324 232.219 154.316C233.855 156.568 235.775 157.216 236.96 156.544C236.945 156.562 236.931 156.582 236.913 156.6C237.121 156.507 237.314 156.381 237.482 156.227C242.353 154.085 241.656 156.378 235.173 128.053C235.008 127.33 235.331 125.721 235.47 125.005L248.599 121.154C248.741 121.11 248.877 121.049 249.005 120.973C249.005 120.973 249.005 121 248.987 121.009C248.969 121.018 249.022 120.967 249.046 120.956C249.07 120.944 249.114 120.905 249.147 120.882L251.565 119.741C253.953 118.619 252.501 113.047 249.129 111.024ZM327.141 155.75C307.662 144.053 306.255 144.109 305.138 139.773L299.031 116.11C298.024 112.215 294.323 109.662 292.643 111.181L290.243 112.206L290.282 112.247C289.846 112.497 289.52 112.901 289.366 113.379L283.259 129.996C259.556 116.838 263.911 118.08 258.667 120.325C258.682 120.325 258.699 120.325 258.714 120.325C257.268 121.169 257.141 124.098 259.091 126.921L273.905 148.363C276.652 152.335 275.277 153.49 269.822 171.025C268.809 174.283 272.59 179.615 275.452 178.978L290.717 175.604C293.511 174.985 294.208 177.038 310.199 199.034C311.834 201.282 313.754 201.93 314.939 201.258L314.892 201.314C315.108 201.219 315.308 201.091 315.485 200.935C320.338 198.805 319.633 201.057 313.162 172.767C312.999 172.044 313.319 170.439 313.458 169.719L326.587 165.868C326.729 165.824 326.865 165.763 326.993 165.688C326.993 165.688 326.993 165.714 326.972 165.726C326.951 165.738 327.011 165.685 327.034 165.67C327.058 165.655 327.099 165.619 327.135 165.596L329.553 164.455C331.965 163.348 330.513 157.776 327.141 155.75ZM404.495 200.313C385.016 188.616 383.609 188.673 382.492 184.336L376.385 160.661C375.381 156.766 371.677 154.213 369.997 155.732L367.597 156.757L367.636 156.799C367.201 157.049 366.875 157.452 366.723 157.93L360.616 174.559C336.913 161.402 341.265 162.643 336.024 164.888C336.024 164.888 336.053 164.888 336.071 164.888C334.622 165.732 334.495 168.661 336.448 171.484L351.262 192.926C354.009 196.898 352.634 198.053 347.179 215.588C346.166 218.846 349.947 224.178 352.809 223.541L368.077 220.167C370.868 219.548 371.568 221.601 387.556 243.594C389.191 245.845 391.111 246.493 392.296 245.821C392.282 245.841 392.266 245.86 392.249 245.877C392.457 245.783 392.649 245.657 392.818 245.504C397.695 243.357 396.966 245.584 390.51 217.33C390.344 216.607 390.667 215.002 390.806 214.282L403.935 210.431C404.077 210.387 404.213 210.326 404.341 210.251C404.334 210.262 404.328 210.274 404.323 210.286C404.347 210.286 404.359 210.248 404.382 210.233L404.483 210.159L406.901 209.018C409.319 207.908 407.867 202.339 404.495 200.313ZM525.606 246.437C525.82 245.91 526.13 245.426 526.519 245.009C526.158 245.266 525.887 245.63 525.745 246.049L525.606 246.437ZM447.938 201.61C448.154 201.084 448.464 200.601 448.853 200.186C448.491 200.441 448.22 200.805 448.08 201.225L447.938 201.61ZM434.125 267.171C432.877 267.447 431.458 266.599 430.335 265.287C431.461 266.579 432.889 267.438 434.125 267.171ZM469.037 287.313C460.966 276.214 456.785 270.157 454.222 266.958C456.756 270.133 460.945 276.184 469.037 287.313ZM473.002 289.765C472.894 289.78 472.785 289.786 472.676 289.783C472.786 289.785 472.896 289.779 473.005 289.765H473.002ZM483.328 245.11L464.643 233.89C461.215 231.817 461.496 230.131 455.082 205.266C454.382 202.561 452.397 200.526 450.673 200.023C444.59 216.589 445.022 217.427 442.4 216.681L441.941 217.931C441.434 219.317 440.065 219.667 438.516 218.82L419.831 208.47C419.639 208.368 419.442 208.278 419.239 208.201C419.239 211.038 419.979 211.37 435.6 233.97C438.356 237.957 436.996 239.062 431.496 256.739C430.477 259.997 434.276 265.37 437.162 264.736L452.501 261.348C455.31 260.726 456.003 262.781 472.074 284.887C472.963 286.113 473.935 286.815 474.833 287.141C474.853 288.397 474.391 289.214 473.671 289.593C474.628 289.128 475.153 287.861 474.69 285.876L469.28 262.236C468.83 260.273 469.351 258.732 470.587 258.386L472.255 257.897C472.572 255.735 472.335 256.324 486.874 252.074C486.738 253.125 486.578 253.57 484.931 254.189L485.479 254.029C488.296 253.179 486.845 247.219 483.331 245.11H483.328ZM473.588 289.623C473.47 289.674 473.347 289.713 473.221 289.738C473.347 289.714 473.471 289.675 473.588 289.623ZM432.403 246.849C434.477 240.359 434.477 239.168 432.56 236.399C434.456 239.142 434.406 240.513 432.406 246.849H432.403ZM546.702 332.139C538.628 321.035 534.448 314.974 531.888 311.776C534.415 314.957 538.608 321.002 546.705 332.139H546.702ZM550.661 334.592C550.555 334.607 550.448 334.613 550.341 334.61C550.449 334.611 550.557 334.605 550.664 334.592H550.661ZM560.993 289.934L542.311 278.723C538.883 276.649 539.165 274.964 532.75 250.101C532.053 247.394 530.065 245.362 528.344 244.855C522.261 261.425 522.693 262.26 520.068 261.517L520.095 261.451L519.612 262.767C519.102 264.153 517.736 264.502 516.184 263.655L497.517 253.309C497.327 253.204 497.129 253.114 496.925 253.039C496.925 255.847 497.665 256.209 513.286 278.809C516.042 282.798 514.682 283.903 509.182 301.58C508.166 304.839 511.965 310.209 514.851 309.578L530.187 306.186C532.996 305.564 533.689 307.623 549.76 329.728C550.649 330.954 551.621 331.656 552.519 331.982C552.539 333.238 552.08 334.056 551.36 334.435C552.314 333.967 552.842 332.699 552.376 330.717L546.963 307.045C546.513 305.084 547.034 303.541 548.273 303.195L549.938 302.709C550.255 300.553 549.971 301.151 564.56 296.883C564.421 297.934 564.264 298.382 562.613 299.001L563.162 298.841C565.962 298.005 564.51 292.052 560.996 289.934H560.993ZM551.25 334.45C551.133 334.5 551.011 334.539 550.886 334.565C551.012 334.539 551.135 334.5 551.253 334.45H551.25ZM509.828 292.434C512.122 285.292 512.199 284.096 510.228 281.226C512.193 284.069 512.053 285.479 509.828 292.434ZM338.098 164.897L338.157 164.92C338.062 164.879 337.965 164.834 337.861 164.805L337.926 164.832C337.991 164.849 338.045 164.876 338.098 164.897ZM415.331 246.333L415.292 246.31L415.331 246.333ZM260.19 120.153H260.264C260.035 120.089 259.796 120.064 259.559 120.079C259.772 120.08 259.984 120.108 260.19 120.162V120.153ZM214.729 67.7554H214.747L214.702 67.7347L214.729 67.7554ZM204.208 86.5462C204.43 86.4854 204.628 86.3583 204.776 86.1819C204.628 86.3583 204.43 86.4854 204.208 86.5462ZM201.808 86.0457C202.717 86.4367 203.366 86.6114 203.84 86.5966C203.36 86.6114 202.711 86.4337 201.796 86.0427L201.808 86.0457ZM310.548 174.07C310.548 174.07 310.548 174.085 310.548 174.091C310.474 173.592 310.428 173.09 310.412 172.586C310.388 173.084 310.432 173.583 310.542 174.07H310.548ZM292.741 112.481L292.699 112.458L292.741 112.481ZM279.76 130.745C280.331 131.025 280.939 131.225 281.565 131.337C280.938 131.224 280.329 131.025 279.757 130.745H279.76ZM387.908 218.633C387.835 218.142 387.792 217.648 387.778 217.152C387.75 217.649 387.79 218.147 387.896 218.633H387.908ZM394.646 459.7C392.507 462.39 381.422 467.851 378.572 467.851C373.292 467.851 371.147 473.5 363.757 469.673C362.433 468.986 362.599 466.747 362.919 465.144C362.919 465.144 362.895 465.144 362.889 465.12C361.926 464.211 361.733 456.365 361.802 446.738C357.313 449.914 351.95 450.589 350.931 451.309C349.822 452.1 348.56 455.109 345.627 456.534C342.693 457.958 339.055 456.611 338.261 454.949C337.834 454.06 337.941 452.505 338.125 451.255C334.978 447.568 337.763 437.038 338.302 428.315C338.895 418.697 341.508 391.506 339.846 377.961C339.319 373.595 339.156 369.192 339.36 364.798C342.083 366.914 345.136 368.568 348.397 369.691C358.498 373.246 375.105 374.134 382.403 366.791C385.203 407.045 386.317 412.492 379.754 441.137C378.492 446.635 381.976 452.781 382.652 454.81C389.331 454.286 393.022 453.16 394.039 455.245C395.645 456.3 395.941 458.065 394.646 459.7ZM362.299 412.877C362.209 405.62 361.405 398.39 359.899 391.29C359.968 400.837 358.868 409.465 355.648 426.058C354.24 433.312 354.708 436.982 355.162 438.202C357.195 437.686 359.286 437.438 361.384 437.464C361.576 437.464 361.754 437.464 361.938 437.464C362.098 428.122 362.35 418.629 362.299 412.874V412.877ZM224.388 310.049C224.388 309.939 224.388 309.827 224.388 309.711C224.354 309.838 224.303 309.959 224.237 310.072C224.296 310.061 224.338 310.058 224.388 310.049ZM224.388 309.359C224.391 309.4 224.391 309.442 224.388 309.483V309.359ZM224.388 300.33V300.209C224.391 300.254 224.39 300.3 224.385 300.345L224.388 300.33ZM224.388 290.979V290.867C224.39 290.904 224.389 290.942 224.385 290.979H224.388ZM140.859 303.9C140.169 303.364 139.941 302.765 140.012 302.188L139.882 302.057C139.882 305.748 139.813 307.647 139.917 308.757C140.015 309.791 140.261 310.146 140.859 310.609C143.526 312.664 145.704 314.314 147.508 315.677C147.508 316.242 147.508 316.666 147.488 316.992C147.467 317.91 147.467 317.993 147.541 317.966H147.573C148.015 319.429 150.655 320.508 153.396 319.974L174.222 315.905C176.969 315.374 176.934 315.638 192.32 322.323C197.233 322.388 200.602 322.442 202.963 322.439C203.021 322.291 203.056 322.135 203.067 321.977V322.439C207.645 322.439 208.4 322.19 209.411 321.352L220.391 312.368C207.499 317.593 203.932 318.81 203.031 319.936L202.966 317.566C203.828 316.334 207.597 315.143 222.539 309.056C223.576 308.636 224.056 308.275 224.27 307.386C224.317 307.165 224.349 306.942 224.368 306.717V306.654C224.468 305.487 224.368 303.648 224.368 300.561C224.237 301.24 223.645 301.894 222.533 302.339C207.849 308.319 203.979 309.587 203.025 310.774L202.957 308.215C203.802 306.977 207.55 305.798 222.533 299.697C223.571 299.273 224.051 298.915 224.261 298.026C224.31 297.805 224.344 297.58 224.362 297.354V297.291C224.462 296.124 224.362 294.285 224.362 291.199C224.231 291.877 223.639 292.532 222.528 292.976C207.505 299.095 203.79 300.28 202.951 301.495L203.073 305.964C203.132 308.091 198.925 309.32 195.962 308.038C176.865 299.797 177.129 299.448 174.187 300.04L153.357 304.083C149.87 304.759 146.528 302.83 147.698 300.825L148.012 300.292L140.859 294.735C140.169 294.202 139.941 293.604 140.012 293.026L139.882 292.896C139.882 296.587 139.813 298.485 139.917 299.596C140.015 300.63 140.261 300.985 140.859 301.447C143.526 303.503 145.704 305.153 147.508 306.515C147.473 308.902 147.437 308.849 147.573 308.79C148.015 310.25 150.655 311.331 153.396 310.798L174.222 306.755C177.185 306.183 176.922 306.536 196 314.752C198.895 316.002 202.939 314.85 203.067 312.812L203.096 313.896C203.096 313.944 203.07 313.985 203.067 314.033L203.096 315.117C203.156 317.243 198.948 318.473 195.985 317.19C176.889 308.95 177.153 308.6 174.211 309.193L153.381 313.236C150.024 313.887 146.842 312.122 147.651 310.194C147.624 310.129 147.576 310.069 147.559 310.007H147.526V309.03L140.859 303.9ZM140.859 292.105C144.394 294.833 147.082 296.844 149.156 298.417C150.219 296.61 151.105 295.129 151.849 293.879L140.859 285.384C140.169 284.848 139.941 284.25 140.012 283.672L139.882 283.542C139.882 287.233 139.813 289.131 139.917 290.242C140.015 291.276 140.261 291.631 140.859 292.093V292.105ZM222.551 283.856C204.036 291.397 202.699 291.447 202.747 293.287L202.91 299.211C203.612 297.872 207.176 296.841 222.551 290.568C223.588 290.144 224.068 289.783 224.279 288.897C224.328 288.676 224.362 288.451 224.379 288.225C224.381 288.204 224.381 288.183 224.379 288.163C224.483 286.999 224.379 285.156 224.379 282.07C224.255 282.736 223.662 283.391 222.551 283.844V283.856ZM224.379 281.717C224.382 281.759 224.382 281.8 224.379 281.842V281.717ZM140.859 282.944C147.15 287.798 150.845 290.464 152.871 292.126C155.434 287.769 155.378 287.425 154.083 286.427L140.859 276.232C140.169 275.699 139.941 275.1 140.012 274.523L139.882 274.392C139.882 278.083 139.813 279.982 139.917 281.092C140.015 282.126 140.261 282.482 140.859 282.944ZM261.813 342.882C246.768 349.011 243.064 350.19 242.231 351.404L242.362 356.072C242.418 358.199 238.213 359.428 235.251 358.145C216.166 349.911 216.421 349.556 213.473 350.133L192.643 354.176C189.722 354.745 186.933 353.474 186.788 351.863C186.788 358.599 186.646 358.948 186.788 358.892L186.821 358.877C187.262 360.337 189.905 361.418 192.643 360.885L213.473 356.842C216.436 356.271 216.139 356.614 235.251 364.84C238.145 366.089 242.19 364.937 242.314 362.899C242.314 362.852 242.347 362.811 242.347 362.763L242.252 359.404L242.216 358.101C243.052 356.863 246.776 355.693 261.799 349.573C262.839 349.15 263.316 348.792 263.529 347.903C263.577 347.681 263.611 347.457 263.63 347.231C263.63 347.21 263.63 347.189 263.63 347.168C263.731 346.001 263.63 344.162 263.63 341.078C263.52 341.772 262.928 342.429 261.813 342.882ZM263.645 340.744C263.645 340.785 263.645 340.824 263.645 340.862V340.744ZM235.265 367.105C216.169 358.862 216.433 358.516 213.488 359.09L192.658 363.139C189.736 363.708 186.948 362.437 186.803 360.829C186.803 367.565 186.658 367.911 186.803 367.855H186.836C187.277 369.318 189.92 370.396 192.658 369.866L213.488 365.823C216.451 365.251 216.154 365.595 235.265 373.82C238.16 375.07 242.205 373.918 242.329 371.877C242.329 371.833 242.362 371.791 242.362 371.744L242.196 365.776C241.402 367.411 237.861 368.216 235.259 367.097L235.265 367.105ZM191.197 343.827L180.125 335.279C179.292 334.639 179.073 333.896 179.319 333.223C179.022 332.631 179.147 332.127 179.147 331.15C179.162 331.164 179.175 331.181 179.182 331.2C179.277 332.234 179.526 332.589 180.125 333.052C186.415 337.906 190.11 340.572 192.136 342.248C194.696 337.891 194.643 337.551 193.345 336.55L180.125 326.34C177.908 324.631 180.036 322.211 183.722 322.246L186.092 322.27C176.865 318.236 176.528 318.123 174.219 318.567L153.39 322.611C150.465 323.176 147.677 321.909 147.535 320.297C147.535 327.033 147.39 327.379 147.535 327.323H147.568C148.009 328.786 150.649 329.867 153.39 329.334L174.222 325.259C175.704 324.962 176.385 324.915 179.141 325.993C179.141 326.941 179.141 327.744 179.126 328.428C176.382 327.356 175.71 327.412 174.225 327.699L153.396 331.742C150.471 332.311 147.683 331.04 147.541 329.429C147.541 336.165 147.396 336.511 147.541 336.458L147.573 336.443C148.015 337.903 150.655 338.984 153.396 338.451L174.222 334.408C175.704 334.112 176.391 334.067 179.141 335.143C179.141 335.581 179.141 335.987 179.141 336.363C179.126 338.208 179.117 339.363 179.191 340.128C179.286 341.161 179.535 341.517 180.133 341.979C183.716 344.745 186.436 346.786 188.51 348.356C189.568 346.552 190.456 345.071 191.197 343.818V343.827ZM263.645 331.805C263.645 331.846 263.645 331.884 263.645 331.926V331.805ZM261.813 333.943C243.298 341.484 241.962 341.535 242.009 343.374L242.175 349.298C242.862 348.01 246.347 346.955 261.813 340.658C262.853 340.234 263.331 339.873 263.544 338.987C263.591 338.766 263.625 338.541 263.645 338.315C263.645 338.294 263.645 338.273 263.645 338.25C263.745 337.083 263.645 335.246 263.645 332.16C263.52 332.826 262.928 333.481 261.813 333.934V333.943ZM28.4209 188.678L30.815 181.759C32.7883 189.117 33.9261 192.757 34.1987 200.565L35.9972 200.017C35.0817 191.448 34.6668 186.567 32.2668 180.681L36.2994 185.091C36.7705 180.459 36.6431 179.028 35.1854 175.791C34.7913 176.187 34.3012 176.473 33.7631 176.623C33.2357 178.56 32.8268 179.899 32.2342 180.646L32.1987 180.66C31.0757 182.032 29.292 181.309 24.8061 178.474C21.9528 176.676 18.1246 170.373 18.1246 170.373L18.2194 170.169C17.5636 170.527 17.0432 171.09 16.738 171.771C16.4001 172.609 16.2878 173.52 16.412 174.414C19.9202 180.45 22.7291 185.154 28.4209 188.678ZM136.978 308.272C136.978 308.337 136.978 308.399 136.978 308.464V308.272ZM137.153 360.719C137.584 361.172 137.839 361.764 137.871 362.388C137.904 363.012 137.712 363.628 137.331 364.123C137.218 364.28 137.099 364.419 136.984 364.579V372.493C136.984 387.955 115.458 400.487 88.9009 400.487C81.8587 400.517 74.8451 399.588 68.0535 397.726C66.0079 397.161 63.9924 396.492 62.015 395.721C61.375 395.468 60.7468 395.208 60.1305 394.939C56.652 393.456 53.3731 391.542 50.3705 389.243C49.9083 388.884 49.4609 388.518 49.0283 388.144C43.8461 383.678 40.8179 378.293 40.8179 372.493V369.3V368.317C40.8179 388.482 68.5128 397.288 88.9009 397.288C109.289 397.288 136.987 388.473 136.987 368.314C136.987 383.773 115.461 396.305 88.9009 396.305C62.3409 396.305 40.8209 383.775 40.8179 368.317V344.064C38.6965 342.634 36.9661 341.102 36.3024 340.24C34.9513 338.516 32.2491 339.568 30.5987 339.055C28.9483 338.543 25.3454 336.431 25.3454 336.431L25.938 333.126C25.8558 333.023 25.7871 332.911 25.7335 332.791C25.2061 331.417 26.5068 296.199 26.5068 296.199L26.1661 275.613C24.9542 292.703 23.9705 304.845 20.652 318.372C19.1883 324.334 17.4994 332.776 17.9498 336.941C18.3557 340.705 19.9261 343.721 18.4031 345.598C19.452 347.162 20.898 349.334 21.8254 350.815C22.4831 351.703 23.0846 352.5 23.6209 353.226C25.0224 354.807 26.8802 356.78 27.1172 358.371C28.1691 360.308 27.9113 361.072 26.8446 361.925C25.3424 363.11 19.1913 363.921 14.1039 360.634C8.21943 356.821 6.20462 351.884 6.20462 351.884C4.90091 352.384 5.80758 352.838 2.15128 349.182L2.21054 346.517C1.64462 345.924 1.28906 344.985 1.28906 343.155C1.28906 339.103 1.85203 316.257 3.42832 307.14C5.00462 298.023 2.4624 266.078 2.41499 261.988C2.40022 260.702 2.4576 259.416 2.58684 258.137C8.01202 264.061 34.8624 264.532 43.8905 253.656C44.332 263.726 45.0105 280.63 44.8565 285.962C44.7617 289.193 43.932 294.575 43.052 300.017C41.6054 302.6 40.8359 305.507 40.815 308.467C40.815 323.929 62.3439 336.461 88.9009 336.461C115.458 336.461 136.984 323.929 136.984 308.467V320.768C137.031 319.337 138.053 320.813 138.308 321.281C145.517 334.553 144.148 349.357 137.153 360.719ZM136.999 323.067C136.999 323.067 136.999 323.025 136.984 323.007V357.005C142.302 346.668 142.954 334.035 136.999 323.067Z" fill="#40256B"/>
</g>
<defs>
<clipPath id="clip0_735_35389">
<rect width="604" height="471" fill="white"/>
</clipPath>
</defs>
</svg>
