<svg width="35" height="35" viewBox="0 0 35 35" fill="none" xmlns="http://www.w3.org/2000/svg">
<g clip-path="url(#clip0_735_35423)">
<path d="M26.8333 5.83335C25.6217 5.83468 24.4257 6.10757 23.3333 6.63193C22.8431 5.24473 22.0523 3.98303 21.0175 2.9371C20.1022 2.00508 19.01 1.26521 17.8049 0.760856C16.5999 0.256506 15.3063 -0.00216439 14 1.36407e-05C11.358 0.0154449 8.83005 1.0784 6.97089 2.9556C5.11173 4.8328 4.07325 7.37091 4.08333 10.0129V11.6632C4.08333 13.09 4.08333 14.0327 4.6935 15.2653C4.84891 15.59 5.0724 15.8775 5.3488 16.1082C5.6252 16.3389 5.94802 16.5074 6.29533 16.6023C6.36567 17.8377 6.73122 19.0383 7.36131 20.1033C7.99141 21.1683 8.86769 22.0667 9.91667 22.7232V23.3777C9.11021 23.4703 8.36972 23.8679 7.847 24.4889H7.58333C5.57123 24.4923 3.64268 25.2939 2.22094 26.7177C0.799212 28.1415 0.000460676 30.0712 0 32.0834L0 33.8334C0 34.1428 0.122916 34.4395 0.341709 34.6583C0.560501 34.8771 0.857247 35 1.16667 35H26.8333C27.4522 35 28.0457 34.7542 28.4833 34.3166C28.9208 33.879 29.1667 33.2855 29.1667 32.6667V24.5C29.1661 24.2961 29.1118 24.096 29.0094 23.9197C28.9071 23.7434 28.7601 23.5971 28.5833 23.4955V21.973C30.5461 21.5378 32.2794 20.3939 33.4512 18.7604C34.6231 17.1268 35.1513 15.1184 34.9345 13.1197C34.7178 11.1209 33.7715 9.2724 32.2767 7.92798C30.7819 6.58356 28.8438 5.83775 26.8333 5.83335ZM14 1.16668C15.1521 1.16489 16.2929 1.39317 17.3556 1.83812C18.4183 2.28307 19.3815 2.93574 20.1886 3.75785C21.1507 4.73 21.8731 5.91297 22.2985 7.21293C21.8456 7.5164 21.4241 7.86422 21.0403 8.25127C20.659 7.53854 20.1374 6.91037 19.507 6.40459C18.8765 5.89882 18.1501 5.52592 17.3717 5.30835C17.1427 5.24403 16.9027 5.22918 16.6675 5.26478C16.4324 5.30038 16.2075 5.38563 16.0078 5.51485C13.9662 6.88452 10.0374 7.65452 8.02142 7.74318C7.58688 7.76553 7.17767 7.95446 6.87881 8.27069C6.57996 8.58693 6.41444 9.00616 6.41667 9.44127V10.1121C6.38108 10.0969 6.34492 10.0823 6.307 10.0689C5.96529 9.95098 5.59471 9.94607 5.25 10.0549V10.0129C5.23991 7.68033 6.15548 5.43896 7.79584 3.78055C9.43621 2.12214 11.6674 1.18211 14 1.16668ZM7.45908 16.5241C7.44384 16.2875 7.35617 16.0614 7.20798 15.8764C7.0598 15.6914 6.85827 15.5564 6.63075 15.4899C6.43656 15.4387 6.25598 15.3455 6.10176 15.2169C5.94754 15.0883 5.82345 14.9274 5.73825 14.7455C5.25 13.7597 5.25 13.0591 5.25 11.6632C5.24623 11.5786 5.26323 11.4944 5.29954 11.4179C5.33584 11.3415 5.39034 11.2751 5.45825 11.2245C5.52426 11.1782 5.60057 11.1487 5.68057 11.1385C5.76057 11.1283 5.84184 11.1378 5.91733 11.1662C6.32567 11.312 6.41667 12.0453 6.41667 12.2903C6.41667 12.445 6.47813 12.5933 6.58752 12.7027C6.69692 12.8121 6.84529 12.8736 7 12.8736C7.15471 12.8736 7.30308 12.8121 7.41248 12.7027C7.52188 12.5933 7.58333 12.445 7.58333 12.2903V9.44127C7.58142 9.3064 7.63149 9.17598 7.72316 9.07704C7.81482 8.9781 7.94105 8.91823 8.07567 8.90985C10.2842 8.81243 14.4066 7.99577 16.6542 6.48785C16.7175 6.45014 16.7881 6.42628 16.8612 6.41784C16.9344 6.40939 17.0086 6.41655 17.0788 6.43885C17.7838 6.63146 18.4333 6.98821 18.974 7.47994C19.5147 7.97167 19.9313 8.5844 20.1898 9.26801C19.2187 10.6212 18.6867 12.2401 18.6658 13.9055C18.6449 15.571 19.1362 17.2027 20.0731 18.5798C19.594 19.8019 18.759 20.852 17.6762 21.5941C16.5934 22.3362 15.3127 22.736 14 22.7418C13.1382 22.7432 12.2847 22.5727 11.4896 22.2401C10.6945 21.9076 9.97373 21.4197 9.3695 20.8052C8.23591 19.6562 7.5572 18.1352 7.45908 16.5241ZM14 26.8229C14.3455 26.8342 14.6853 26.9149 14.999 27.0601C15.3128 27.2053 15.5941 27.412 15.8264 27.6681L14.9234 28.5711H13.0748L12.1748 27.671C12.6471 27.1581 13.3034 26.8532 14 26.8229ZM17.8407 24.5216C18.381 24.5625 18.8837 24.8139 19.2407 25.2216C19.1543 26.4828 17.9673 27.3449 17.2445 27.7562C17.2089 27.6769 17.1634 27.6104 17.1238 27.5369C17.1128 27.5132 17.1002 27.4904 17.0858 27.4686C16.8002 26.9596 16.3904 26.5312 15.8947 26.2232C16.6942 25.8553 17.3705 25.2645 17.8424 24.5216H17.8407ZM16.3765 28.7683C16.4235 28.9064 16.521 29.0217 16.6495 29.0909C16.7318 29.1325 16.8227 29.1542 16.9149 29.1544C16.989 29.1546 17.0625 29.1406 17.1313 29.113C17.8161 28.8179 18.4494 28.4154 19.0073 27.9207C18.6964 29.9414 18.0256 32.2735 16.7131 33.4297L15.8083 29.3417L16.3765 28.7683ZM10.8652 29.113C10.934 29.1406 11.0075 29.1546 11.0816 29.1544C11.1738 29.1542 11.2647 29.1325 11.347 29.0909C11.4755 29.0217 11.573 28.9064 11.62 28.7683L12.1923 29.3405L11.2589 33.5306C9.91725 32.5594 9.24933 30.0569 8.95417 27.8915C9.52102 28.4001 10.1671 28.8127 10.8669 29.113H10.8652ZM13.3 29.7378H14.7L15.6088 33.8334H12.3912L13.3 29.7378ZM20.4003 25.6544H20.4167C21.908 25.6557 23.3522 26.1775 24.5 27.1297V32.6667C24.5024 33.0775 24.6144 33.4802 24.8243 33.8334H17.9667C19.9669 31.5245 20.335 27.2242 20.4015 25.6556L20.4003 25.6544ZM25.0833 23.4955C24.9066 23.5971 24.7596 23.7434 24.6572 23.9197C24.5548 24.096 24.5006 24.2961 24.5 24.5V25.6889C23.2816 24.9068 21.8645 24.4904 20.4167 24.4889H20.153C19.6303 23.8679 18.8898 23.4703 18.0833 23.3777V22.7226C19.2924 21.9592 20.2672 20.8768 20.9003 19.5948C22.0237 20.7902 23.4815 21.619 25.0833 21.973V23.4955ZM14 23.9085C15.0008 23.9088 15.9918 23.7121 16.9167 23.3299V23.7889C16.7749 24.0864 16.1152 25.1825 14 25.6404C11.8749 25.1802 11.2193 24.0771 11.0833 23.7907V23.3334C12.0086 23.714 12.9995 23.9094 14 23.9085ZM10.1576 24.5216C10.6287 25.263 11.3035 25.853 12.1013 26.2209C11.6049 26.5286 11.1945 26.9571 10.9083 27.4663C10.894 27.488 10.8813 27.5109 10.8704 27.5345C10.8308 27.608 10.7853 27.6745 10.7497 27.7539C10.0269 27.3426 8.83983 26.4804 8.7535 25.2193C9.11192 24.8116 9.61617 24.561 10.1576 24.5216ZM1.16667 32.0834C1.16682 30.3806 1.84255 28.7474 3.04556 27.5423C4.24857 26.3372 5.88056 25.6587 7.58333 25.6556H7.59675C7.658 27.2452 7.99867 31.6336 9.88458 33.8328H1.16667V32.0834ZM28 32.6667C28 32.9761 27.8771 33.2729 27.6583 33.4916C27.4395 33.7104 27.1428 33.8334 26.8333 33.8334C26.5239 33.8334 26.2272 33.7104 26.0084 33.4916C25.7896 33.2729 25.6667 32.9761 25.6667 32.6667V24.5H28V32.6667ZM27.4167 23.3334H26.25V22.1369C26.4437 22.1509 26.6362 22.1667 26.8333 22.1667C27.0305 22.1667 27.223 22.1509 27.4167 22.1369V23.3334ZM26.8333 21C25.4489 21 24.0955 20.5895 22.9443 19.8203C21.7932 19.0511 20.896 17.9579 20.3662 16.6788C19.8364 15.3997 19.6977 13.9923 19.9678 12.6344C20.2379 11.2765 20.9046 10.0292 21.8836 9.05027C22.8626 8.0713 24.1098 7.40461 25.4677 7.13452C26.8256 6.86442 28.233 7.00305 29.5121 7.53286C30.7912 8.06267 31.8845 8.95988 32.6536 10.111C33.4228 11.2622 33.8333 12.6155 33.8333 14C33.8313 15.8559 33.0932 17.6352 31.7809 18.9475C30.4685 20.2599 28.6892 20.998 26.8333 21Z" fill="white"/>
<path d="M26.8348 8.16669C26.6801 8.16669 26.5317 8.22815 26.4223 8.33754C26.3129 8.44694 26.2514 8.59531 26.2514 8.75002C26.2514 8.90473 26.3129 9.0531 26.4223 9.1625C26.5317 9.2719 26.6801 9.33335 26.8348 9.33335C27.9551 9.33222 29.0385 9.73373 29.8874 10.4647C30.7364 11.1956 31.2944 12.2074 31.4597 13.3154C31.625 14.4234 31.3866 15.5539 30.788 16.5009C30.1893 17.4478 29.2703 18.1481 28.1985 18.474C27.1267 18.7999 25.9734 18.7298 24.949 18.2764C23.9245 17.823 23.0971 17.0165 22.6177 16.004C22.1382 14.9915 22.0385 13.8404 22.3369 12.7606C22.6352 11.6808 23.3117 10.7441 24.243 10.1214C24.3716 10.0353 24.4607 9.90155 24.4906 9.74971C24.5206 9.59786 24.489 9.44033 24.4029 9.31177C24.3167 9.18321 24.183 9.09414 24.0311 9.06417C23.8793 9.03419 23.7218 9.06576 23.5932 9.15194C22.4307 9.9298 21.5864 11.0995 21.2142 12.4478C20.842 13.7961 20.9667 15.2332 21.5655 16.4973C22.1643 17.7613 23.1973 18.7682 24.4764 19.3343C25.7555 19.9004 27.1953 19.988 28.5336 19.5812C29.8719 19.1745 31.0195 18.3004 31.7672 17.1183C32.5149 15.9362 32.8129 14.5248 32.607 13.1413C32.4011 11.7578 31.705 10.4944 30.6454 9.58124C29.5859 8.66811 28.2335 8.1661 26.8348 8.16669Z" fill="#E63114"/>
<path d="M25.0832 12.8333C25.2379 12.8333 25.3863 12.7718 25.4956 12.6624L26.079 12.0791C26.1852 11.9691 26.244 11.8217 26.2427 11.6688C26.2414 11.5158 26.18 11.3695 26.0719 11.2614C25.9637 11.1532 25.8174 11.0919 25.6644 11.0905C25.5115 11.0892 25.3641 11.148 25.2541 11.2543L24.6708 11.8376C24.5892 11.9192 24.5337 12.0231 24.5112 12.1362C24.4887 12.2494 24.5003 12.3667 24.5444 12.4732C24.5885 12.5798 24.6633 12.6709 24.7592 12.735C24.8551 12.7991 24.9679 12.8333 25.0832 12.8333Z" fill="white"/>
<path d="M25.2528 16.1624C25.3622 16.2718 25.5106 16.3332 25.6652 16.3332C25.8199 16.3332 25.9683 16.2718 26.0777 16.1624L29.5777 12.6624C29.6839 12.5524 29.7427 12.405 29.7414 12.2521C29.7401 12.0991 29.6787 11.9528 29.5706 11.8447C29.4624 11.7365 29.3161 11.6752 29.1631 11.6739C29.0102 11.6725 28.8628 11.7313 28.7528 11.8376L25.2528 15.3376C25.1435 15.447 25.082 15.5953 25.082 15.75C25.082 15.9047 25.1435 16.053 25.2528 16.1624Z" fill="#E63114"/>
</g>
<defs>
<clipPath id="clip0_735_35423">
<rect width="35" height="35" fill="white"/>
</clipPath>
</defs>
</svg>
