<svg width="34" height="34" viewBox="0 0 34 34" fill="none" xmlns="http://www.w3.org/2000/svg">
<path d="M19.6562 28.6875H18.5938V23.4813C18.5938 23.3404 18.5378 23.2052 18.4382 23.1056C18.3385 23.006 18.2034 22.95 18.0625 22.95C17.9216 22.95 17.7865 23.006 17.6868 23.1056C17.5872 23.2052 17.5312 23.3404 17.5312 23.4813V28.6875H3.71875V18.0625H8.13875C8.27965 18.0625 8.41477 18.0065 8.5144 17.9069C8.61403 17.8073 8.67 17.6721 8.67 17.5312C8.67 17.3904 8.61403 17.2552 8.5144 17.1556C8.41477 17.056 8.27965 17 8.13875 17H3.1875C3.0466 17 2.91148 17.056 2.81185 17.1556C2.71222 17.2552 2.65625 17.3904 2.65625 17.5312V28.6875H1.59375C1.45285 28.6875 1.31773 28.7435 1.2181 28.8431C1.11847 28.9427 1.0625 29.0779 1.0625 29.2188V30.2812C1.0625 30.9857 1.34235 31.6614 1.8405 32.1595C2.33864 32.6576 3.01427 32.9375 3.71875 32.9375H17.5312C18.2357 32.9375 18.9114 32.6576 19.4095 32.1595C19.9076 31.6614 20.1875 30.9857 20.1875 30.2812V29.2188C20.1875 29.0779 20.1315 28.9427 20.0319 28.8431C19.9323 28.7435 19.7971 28.6875 19.6562 28.6875ZM19.125 30.2812C19.125 30.7039 18.9571 31.1093 18.6582 31.4082C18.3593 31.7071 17.9539 31.875 17.5312 31.875H16.4688V31.3438C16.4688 31.2029 16.4128 31.0677 16.3132 30.9681C16.2135 30.8685 16.0784 30.8125 15.9375 30.8125C15.7966 30.8125 15.6615 30.8685 15.5618 30.9681C15.4622 31.0677 15.4062 31.2029 15.4062 31.3438V31.875H5.84375V31.3438C5.84375 31.2029 5.78778 31.0677 5.68815 30.9681C5.58852 30.8685 5.4534 30.8125 5.3125 30.8125C5.1716 30.8125 5.03648 30.8685 4.93685 30.9681C4.83722 31.0677 4.78125 31.2029 4.78125 31.3438V31.875H3.71875C3.29606 31.875 2.89068 31.7071 2.5918 31.4082C2.29291 31.1093 2.125 30.7039 2.125 30.2812V29.75H19.125V30.2812Z" fill="white"/>
<path d="M28.6875 4.25H29.75C29.8909 4.25 30.026 4.19403 30.1257 4.0944C30.2253 3.99477 30.2812 3.85965 30.2812 3.71875C30.2812 3.57785 30.2253 3.44273 30.1257 3.3431C30.026 3.24347 29.8909 3.1875 29.75 3.1875H28.6875C28.2648 3.1875 27.8594 3.35541 27.5605 3.6543C27.2617 3.95318 27.0938 4.35856 27.0938 4.78125V5.3125H26.5625C26.4216 5.3125 26.2865 5.36847 26.1868 5.4681C26.0872 5.56773 26.0312 5.70285 26.0312 5.84375C26.0312 5.98465 26.0872 6.11977 26.1868 6.2194C26.2865 6.31903 26.4216 6.375 26.5625 6.375H27.0938V7.96875C27.0938 8.10965 27.1497 8.24477 27.2493 8.3444C27.349 8.44403 27.4841 8.5 27.625 8.5C27.7659 8.5 27.901 8.44403 28.0007 8.3444C28.1003 8.24477 28.1562 8.10965 28.1562 7.96875V6.375H28.6875C28.8284 6.375 28.9635 6.31903 29.0632 6.2194C29.1628 6.11977 29.2188 5.98465 29.2188 5.84375C29.2188 5.70285 29.1628 5.56773 29.0632 5.4681C28.9635 5.36847 28.8284 5.3125 28.6875 5.3125H28.1562V4.78125C28.1562 4.64035 28.2122 4.50523 28.3118 4.4056C28.4115 4.30597 28.5466 4.25 28.6875 4.25Z" fill="#E63114"/>
<path d="M31.3438 1.0625H24.9688C24.5461 1.0625 24.1407 1.23041 23.8418 1.5293C23.5429 1.82818 23.375 2.23356 23.375 2.65625V3.71875C23.375 3.85965 23.431 3.99477 23.5306 4.0944C23.6302 4.19403 23.7654 4.25 23.9062 4.25C24.0471 4.25 24.1823 4.19403 24.2819 4.0944C24.3815 3.99477 24.4375 3.85965 24.4375 3.71875V2.65625C24.4375 2.51535 24.4935 2.38023 24.5931 2.2806C24.6927 2.18097 24.8279 2.125 24.9688 2.125H31.3438C31.4846 2.125 31.6198 2.18097 31.7194 2.2806C31.819 2.38023 31.875 2.51535 31.875 2.65625V9.03125C31.875 9.17215 31.819 9.30727 31.7194 9.4069C31.6198 9.50653 31.4846 9.5625 31.3438 9.5625H24.9688C24.8279 9.5625 24.6927 9.50653 24.5931 9.4069C24.4935 9.30727 24.4375 9.17215 24.4375 9.03125V5.84375C24.4375 5.70285 24.3815 5.56773 24.2819 5.4681C24.1823 5.36847 24.0471 5.3125 23.9062 5.3125C23.7654 5.3125 23.6302 5.36847 23.5306 5.4681C23.431 5.56773 23.375 5.70285 23.375 5.84375V9.03125C23.375 9.45394 23.5429 9.85932 23.8418 10.1582C24.1407 10.4571 24.5461 10.625 24.9688 10.625H31.3438C31.7664 10.625 32.1718 10.4571 32.4707 10.1582C32.7696 9.85932 32.9375 9.45394 32.9375 9.03125V2.65625C32.9375 2.23356 32.7696 1.82818 32.4707 1.5293C32.1718 1.23041 31.7664 1.0625 31.3438 1.0625Z" fill="white"/>
<path d="M26.0312 22.3125C26.0312 22.7328 26.1559 23.1436 26.3894 23.4931C26.6229 23.8425 26.9548 24.1149 27.343 24.2757C27.7313 24.4366 28.1586 24.4787 28.5708 24.3967C28.983 24.3147 29.3617 24.1123 29.6589 23.8151C29.956 23.5179 30.1584 23.1393 30.2404 22.7271C30.3224 22.3149 30.2803 21.8876 30.1195 21.4993C29.9587 21.111 29.6863 20.7791 29.3368 20.5456C28.9874 20.3121 28.5765 20.1875 28.1562 20.1875C27.5927 20.1875 27.0522 20.4114 26.6536 20.8099C26.2551 21.2084 26.0312 21.7489 26.0312 22.3125ZM29.2188 22.3125C29.2188 22.5226 29.1564 22.7281 29.0397 22.9028C28.9229 23.0775 28.757 23.2137 28.5629 23.2941C28.3687 23.3745 28.1551 23.3956 27.949 23.3546C27.7429 23.3136 27.5535 23.2124 27.4049 23.0638C27.2564 22.9152 27.1552 22.7259 27.1142 22.5198C27.0732 22.3137 27.0942 22.1 27.1746 21.9059C27.255 21.7118 27.3912 21.5458 27.566 21.4291C27.7407 21.3123 27.9461 21.25 28.1562 21.25C28.438 21.25 28.7083 21.3619 28.9076 21.5612C29.1068 21.7605 29.2188 22.0307 29.2188 22.3125Z" fill="#E63114"/>
<path d="M31.3438 17.5312H24.9688C24.5461 17.5312 24.1407 17.6992 23.8418 17.998C23.5429 18.2969 23.375 18.7023 23.375 19.125V25.5C23.375 25.9227 23.5429 26.3281 23.8418 26.627C24.1407 26.9258 24.5461 27.0938 24.9688 27.0938H31.3438C31.7664 27.0938 32.1718 26.9258 32.4707 26.627C32.7696 26.3281 32.9375 25.9227 32.9375 25.5V24.4375C32.9375 24.2966 32.8815 24.1615 32.7819 24.0618C32.6823 23.9622 32.5471 23.9062 32.4062 23.9062C32.2654 23.9062 32.1302 23.9622 32.0306 24.0618C31.931 24.1615 31.875 24.2966 31.875 24.4375V25.5C31.875 25.6409 31.819 25.776 31.7194 25.8757C31.6198 25.9753 31.4846 26.0312 31.3438 26.0312H24.9688C24.8279 26.0312 24.6927 25.9753 24.5931 25.8757C24.4935 25.776 24.4375 25.6409 24.4375 25.5V19.125C24.4375 18.9841 24.4935 18.849 24.5931 18.7493C24.6927 18.6497 24.8279 18.5938 24.9688 18.5938H31.3438C31.4846 18.5938 31.6198 18.6497 31.7194 18.7493C31.819 18.849 31.875 18.9841 31.875 19.125V22.3125C31.875 22.4534 31.931 22.5885 32.0306 22.6882C32.1302 22.7878 32.2654 22.8438 32.4062 22.8438C32.5471 22.8438 32.6823 22.7878 32.7819 22.6882C32.8815 22.5885 32.9375 22.4534 32.9375 22.3125V19.125C32.9375 18.7023 32.7696 18.2969 32.4707 17.998C32.1718 17.6992 31.7664 17.5312 31.3438 17.5312Z" fill="white"/>
<path d="M12.9997 7.35779C13.0842 7.41019 13.1818 7.4378 13.2813 7.43748C13.3644 7.43698 13.4463 7.41696 13.5203 7.37904L16.7078 5.78529C16.7948 5.74071 16.8679 5.67298 16.9189 5.58956C16.9699 5.50613 16.9968 5.41025 16.9968 5.31248C16.9968 5.2147 16.9699 5.11883 16.9189 5.0354C16.8679 4.95198 16.7948 4.88425 16.7078 4.83967L13.5203 3.24592C13.4394 3.20516 13.3495 3.18576 13.259 3.18955C13.1685 3.19334 13.0805 3.2202 13.0033 3.26757C12.9262 3.31494 12.8624 3.38126 12.818 3.46022C12.7737 3.53918 12.7503 3.62817 12.75 3.71873V6.90623C12.7498 6.99651 12.7727 7.08535 12.8163 7.16436C12.86 7.24337 12.9231 7.30994 12.9997 7.35779ZM13.8125 4.57935L15.2788 5.31248L13.8125 6.0456V4.57935Z" fill="#E63114"/>
<path d="M14.3438 10.0938C15.2894 10.0938 16.2138 9.81334 17.0001 9.28797C17.7863 8.7626 18.3992 8.01587 18.761 7.14221C19.1229 6.26855 19.2176 5.3072 19.0331 4.37973C18.8486 3.45226 18.3933 2.60032 17.7246 1.93165C17.0559 1.26298 16.204 0.807608 15.2765 0.623123C14.3491 0.438637 13.3877 0.533322 12.514 0.895203C11.6404 1.25708 10.8937 1.86991 10.3683 2.65618C9.84292 3.44245 9.5625 4.36686 9.5625 5.3125C9.5625 6.58057 10.0662 7.7967 10.9629 8.69336C11.8596 9.59001 13.0757 10.0938 14.3438 10.0938ZM14.3438 1.59375C15.0792 1.59375 15.7982 1.81185 16.4098 2.22047C17.0213 2.6291 17.498 3.20989 17.7794 3.8894C18.0609 4.56891 18.1345 5.31663 17.991 6.03799C17.8476 6.75936 17.4934 7.42198 16.9733 7.94206C16.4532 8.46213 15.7906 8.81631 15.0692 8.9598C14.3479 9.10329 13.6002 9.02964 12.9206 8.74818C12.2411 8.46672 11.6603 7.99007 11.2517 7.37853C10.8431 6.76698 10.625 6.048 10.625 5.3125C10.625 4.32623 11.0168 3.38035 11.7142 2.68295C12.4116 1.98555 13.3575 1.59375 14.3438 1.59375Z" fill="white"/>
<path d="M19.6563 12.2188C19.7387 12.2188 19.8201 12.1995 19.8938 12.1627C19.9676 12.1258 20.0318 12.0722 20.0813 12.0063L21.675 9.88125C21.7595 9.76854 21.7958 9.62685 21.7759 9.48737C21.756 9.34789 21.6815 9.22204 21.5688 9.1375C21.456 9.05297 21.3144 9.01667 21.1749 9.03659C21.0354 9.05652 20.9095 9.13104 20.825 9.24375L19.2313 11.3688C19.1467 11.4815 19.1104 11.6232 19.1303 11.7626C19.1503 11.9021 19.2248 12.028 19.3375 12.1125C19.4295 12.1815 19.5413 12.2188 19.6563 12.2188Z" fill="white"/>
<path d="M20.825 14.1313C20.8745 14.1972 20.9387 14.2508 21.0124 14.2877C21.0862 14.3245 21.1675 14.3438 21.25 14.3438C21.3649 14.3438 21.4768 14.3065 21.5688 14.2375L23.6938 12.6438C23.8065 12.5592 23.881 12.4334 23.9009 12.2939C23.9208 12.1544 23.8845 12.0127 23.8 11.9C23.7155 11.7873 23.5896 11.7128 23.4501 11.6928C23.3107 11.6729 23.169 11.7092 23.0563 11.7938L20.9313 13.3875C20.8185 13.472 20.744 13.5979 20.7241 13.7374C20.7042 13.8769 20.7405 14.0185 20.825 14.1313Z" fill="white"/>
<path d="M26.0323 15.3C26.0197 15.2296 25.993 15.1624 25.9538 15.1026C25.9145 15.0427 25.8636 14.9914 25.8041 14.9517C25.7446 14.912 25.6776 14.8848 25.6073 14.8716C25.537 14.8584 25.4647 14.8596 25.3948 14.875L22.7386 15.4062C22.6688 15.4132 22.6011 15.4339 22.5393 15.467C22.4775 15.5002 22.4229 15.5451 22.3785 15.5994C22.2888 15.709 22.2464 15.8497 22.2605 15.9906C22.2746 16.1315 22.344 16.261 22.4536 16.3507C22.5632 16.4404 22.7039 16.4828 22.8448 16.4687H22.9511L25.6073 15.9375C25.6778 15.9249 25.7449 15.8981 25.8048 15.8589C25.8646 15.8197 25.9159 15.7688 25.9556 15.7093C25.9953 15.6497 26.0226 15.5828 26.0357 15.5125C26.0489 15.4421 26.0478 15.3699 26.0323 15.3Z" fill="white"/>
<path d="M1.59375 15.4062H7.96875C8.10965 15.4062 8.24477 15.3503 8.3444 15.2507C8.44403 15.151 8.5 15.0159 8.5 14.875V6.375C8.5 6.2341 8.44403 6.09898 8.3444 5.99935C8.24477 5.89972 8.10965 5.84375 7.96875 5.84375H1.59375C1.45285 5.84375 1.31773 5.89972 1.2181 5.99935C1.11847 6.09898 1.0625 6.2341 1.0625 6.375V14.875C1.0625 15.0159 1.11847 15.151 1.2181 15.2507C1.31773 15.3503 1.45285 15.4062 1.59375 15.4062ZM2.125 6.90625H7.4375V14.3438H2.125V6.90625Z" fill="white"/>
<path d="M5.84375 7.96875H4.78125C4.64035 7.96875 4.50523 8.02472 4.4056 8.12435C4.30597 8.22398 4.25 8.3591 4.25 8.5C4.25 8.6409 4.30597 8.77602 4.4056 8.87565C4.50523 8.97528 4.64035 9.03125 4.78125 9.03125H5.84375C5.98465 9.03125 6.11977 8.97528 6.2194 8.87565C6.31903 8.77602 6.375 8.6409 6.375 8.5C6.375 8.3591 6.31903 8.22398 6.2194 8.12435C6.11977 8.02472 5.98465 7.96875 5.84375 7.96875Z" fill="#E63114"/>
<path d="M5.84375 10.0938H3.71875C3.57785 10.0938 3.44273 10.1497 3.3431 10.2493C3.24347 10.349 3.1875 10.4841 3.1875 10.625C3.1875 10.7659 3.24347 10.901 3.3431 11.0007C3.44273 11.1003 3.57785 11.1562 3.71875 11.1562H5.84375C5.98465 11.1562 6.11977 11.1003 6.2194 11.0007C6.31903 10.901 6.375 10.7659 6.375 10.625C6.375 10.4841 6.31903 10.349 6.2194 10.2493C6.11977 10.1497 5.98465 10.0938 5.84375 10.0938Z" fill="#E63114"/>
<path d="M5.84375 12.2188H3.71875C3.57785 12.2188 3.44273 12.2747 3.3431 12.3743C3.24347 12.474 3.1875 12.6091 3.1875 12.75C3.1875 12.8909 3.24347 13.026 3.3431 13.1257C3.44273 13.2253 3.57785 13.2812 3.71875 13.2812H5.84375C5.98465 13.2812 6.11977 13.2253 6.2194 13.1257C6.31903 13.026 6.375 12.8909 6.375 12.75C6.375 12.6091 6.31903 12.474 6.2194 12.3743C6.11977 12.2747 5.98465 12.2188 5.84375 12.2188Z" fill="#E63114"/>
<path d="M19.1863 15.2468C19.1515 15.1862 19.105 15.1329 19.0495 15.0902C18.9941 15.0475 18.9307 15.0161 18.8631 14.9978C18.7956 14.9796 18.725 14.9748 18.6556 14.9838C18.5862 14.9928 18.5192 15.0154 18.4585 15.0503C18.3978 15.0852 18.3446 15.1317 18.3019 15.1871C18.2591 15.2426 18.2278 15.3059 18.2095 15.3735C18.1913 15.4411 18.1865 15.5116 18.1955 15.581C18.2045 15.6504 18.2271 15.7174 18.262 15.7781L20.6048 19.8315L12.1048 23.019C12.1048 23.019 12.1048 23.019 12.0676 23.019H12.0251L10.6438 23.8159L9.72477 24.3472C9.60378 24.4171 9.47017 24.4625 9.33161 24.4807C9.19304 24.499 9.05224 24.4897 8.91727 24.4534C8.64612 24.3802 8.41501 24.2025 8.27446 23.9593L7.21196 22.1212C7.08696 21.8807 7.05859 21.6016 7.13266 21.3408C7.20673 21.0801 7.37763 20.8576 7.6104 20.7187L9.44852 19.6562L10.7766 21.9565C10.8235 22.0376 10.8908 22.1049 10.972 22.1515C11.0532 22.1982 11.1452 22.2225 11.2388 22.2222C11.3323 22.2225 11.4241 22.1983 11.5052 22.1518C11.5863 22.1053 11.6536 22.0383 11.7005 21.9575C11.7474 21.8766 11.7721 21.7849 11.7722 21.6914C11.7723 21.598 11.7477 21.5062 11.701 21.4253L10.3304 19.0559L16.9976 13.5575L17.2154 13.9347C17.2503 13.9954 17.2968 14.0486 17.3522 14.0913C17.4077 14.134 17.471 14.1654 17.5386 14.1837C17.6062 14.2019 17.6767 14.2067 17.7461 14.1977C17.8155 14.1887 17.8825 14.1661 17.9432 14.1312C18.0039 14.0963 18.0571 14.0498 18.0999 13.9944C18.1426 13.9389 18.174 13.8756 18.1922 13.808C18.2105 13.7404 18.2152 13.6699 18.2062 13.6005C18.1972 13.5311 18.1747 13.4641 18.1398 13.4034L17.6085 12.4843C17.5696 12.4178 17.5166 12.3605 17.4533 12.3165C17.39 12.2724 17.3179 12.2427 17.242 12.2293C17.1656 12.215 17.087 12.2175 17.0118 12.2368C16.9365 12.256 16.8664 12.2916 16.8063 12.3409L9.36883 18.4715L7.10571 19.7784C6.69958 20.015 6.38333 20.3795 6.20645 20.8149C6.02958 21.2504 6.00206 21.7322 6.12821 22.185L5.59696 22.4878C5.32324 22.645 5.10235 22.8799 4.96231 23.1628C4.82227 23.4457 4.76939 23.7638 4.81036 24.0767C4.85133 24.3897 4.98431 24.6835 5.19245 24.9208C5.40059 25.1581 5.6745 25.3282 5.97946 25.4097C6.11466 25.4455 6.25398 25.4633 6.39384 25.4628C6.67331 25.4616 6.94777 25.3884 7.19071 25.2503L7.72196 24.9475C7.97716 25.2111 8.2981 25.4018 8.65165 25.5C8.83319 25.5508 9.02096 25.5758 9.20946 25.5743C9.58288 25.5752 9.94972 25.4762 10.272 25.2875L10.7341 25.0218L11.7966 26.8653C12.0078 27.2304 12.3551 27.4968 12.7623 27.6064C13.1696 27.7159 13.6037 27.6596 13.9695 27.4497C14.1509 27.3451 14.31 27.2058 14.4376 27.0397C14.5652 26.8736 14.6588 26.684 14.7131 26.4817C14.7674 26.2794 14.7812 26.0684 14.7539 25.8608C14.7266 25.6531 14.6586 25.4529 14.5538 25.2715L13.587 23.5875L21.5557 20.5965C21.628 20.5694 21.6935 20.5268 21.7476 20.4717C21.8017 20.4167 21.8432 20.3505 21.8691 20.2778C21.895 20.2059 21.9051 20.1294 21.8986 20.0533C21.8922 19.9772 21.8695 19.9034 21.832 19.8368L19.1863 15.2468ZM6.63821 24.3259C6.57771 24.3609 6.51091 24.3836 6.44163 24.3927C6.37235 24.4018 6.30195 24.3972 6.23446 24.379C6.09835 24.3437 5.98182 24.2558 5.9104 24.1347C5.87542 24.0742 5.85273 24.0074 5.84361 23.9381C5.8345 23.8688 5.83914 23.7984 5.85727 23.7309C5.87541 23.6631 5.90681 23.5995 5.94967 23.5439C5.99253 23.4883 6.04599 23.4417 6.10696 23.4068L6.56915 23.1412L7.1004 24.0603L6.63821 24.3259ZM13.6295 25.8134C13.6644 25.8739 13.6871 25.9407 13.6962 26.01C13.7054 26.0793 13.7007 26.1497 13.6826 26.2172C13.6447 26.3522 13.5549 26.4668 13.4329 26.5359C13.3116 26.6056 13.1676 26.6246 13.0323 26.5888C12.897 26.553 12.7814 26.4653 12.7104 26.3447L11.6479 24.5012L12.5298 23.9965H12.5723L13.6295 25.8134Z" fill="white"/>
</svg>
