<svg width="525" height="445" viewBox="0 0 525 445" fill="none" xmlns="http://www.w3.org/2000/svg">
<path style="mix-blend-mode:multiply" d="M472.234 433.655C472.242 427.629 374.61 422.625 254.168 422.478C133.727 422.331 36.0832 427.096 36.0758 433.122C36.0685 439.148 133.7 444.152 254.142 444.299C374.584 444.446 472.227 439.681 472.234 433.655Z" fill="url(#paint0_radial_734_31630)"/>
<path d="M339.913 0H188.539C174.628 0 163.352 11.2769 163.352 25.1878V405.244C163.352 419.155 174.628 430.432 188.539 430.432H339.913C353.824 430.432 365.101 419.155 365.101 405.244V25.1878C365.101 11.2769 353.824 0 339.913 0Z" fill="white"/>
<path d="M337.895 4.7428H190.554C187.603 4.74254 184.68 5.32367 181.953 6.45299C179.226 7.58231 176.749 9.23771 174.661 11.3247C172.574 13.4116 170.919 15.8892 169.789 18.6161C168.659 21.3429 168.078 24.2655 168.078 27.217V402.825C168.079 408.836 170.467 414.6 174.717 418.851C178.968 423.101 184.732 425.489 190.743 425.49H337.704C343.715 425.489 349.48 423.101 353.73 418.851C357.981 414.6 360.369 408.836 360.369 402.825V27.217C360.369 21.2565 358.002 15.5401 353.787 11.3254C349.572 7.11061 343.856 4.7428 337.895 4.7428Z" fill="#F3F9FA"/>
<path d="M199.912 7.21266H328.543C332.383 7.21266 336.185 7.96899 339.733 9.43846C343.281 10.9079 346.504 13.0618 349.219 15.777C351.935 18.4922 354.088 21.7157 355.558 25.2633C357.027 28.8109 357.784 32.6132 357.784 36.4531V395.162C357.784 402.681 354.797 409.892 349.48 415.209C344.163 420.526 336.951 423.513 329.432 423.513H199.039C191.52 423.513 184.308 420.526 178.991 415.209C173.675 409.892 170.688 402.681 170.688 395.162V36.4434C170.688 32.6035 171.444 28.8012 172.913 25.2535C174.383 21.7059 176.537 18.4825 179.252 15.7673C181.967 13.052 185.191 10.8982 188.738 9.42871C192.286 7.95924 196.088 7.20291 199.928 7.20291L199.912 7.21266Z" fill="#DFF1FC"/>
<path d="M170.406 403.384C170.406 414.944 179.804 424.316 191.399 424.316H337.044C348.637 424.316 358.037 414.944 358.037 403.384V394.222H170.406V403.384Z" fill="url(#paint1_linear_734_31630)"/>
<path d="M357.764 28.143C357.764 22.5917 355.558 17.268 351.633 13.3429C347.707 9.41774 342.383 7.21265 336.832 7.21265H191.604C186.053 7.21316 180.729 9.41869 176.803 13.3441C172.878 17.2696 170.672 22.5935 170.672 28.1449V33.9579H357.766L357.764 28.143Z" fill="url(#paint2_linear_734_31630)"/>
<path d="M357.93 34.533H170.836V393.998H357.93V34.533Z" fill="#6AC8D9"/>
<path d="M352.632 40.6228H176.133V388.331H352.632V40.6228Z" fill="#411969"/>
<path d="M238.414 127.064C238.414 124.077 240.753 121.888 243.944 121.888C247.136 121.888 249.477 124.077 249.477 127.064C249.477 130.05 247.137 132.239 243.944 132.239C240.751 132.239 238.414 130.05 238.414 127.064ZM246.633 127.064C246.633 125.342 245.451 124.219 243.944 124.219C242.438 124.219 241.258 125.342 241.258 127.064C241.258 128.785 242.438 129.908 243.944 129.908C245.451 129.908 246.633 128.783 246.633 127.064Z" fill="white"/>
<path d="M260.431 122.087V132.04H258.113L253.719 126.736V132.04H250.961V122.087H253.279L257.673 127.391V122.087H260.431Z" fill="white"/>
<path d="M262.414 122.087H265.229V129.808H269.98V132.04H262.414V122.087Z" fill="white"/>
<path d="M271.094 122.087H273.909V132.04H271.094V122.087Z" fill="white"/>
<path d="M285.376 122.087V132.04H283.059L278.665 126.736V132.04H275.906V122.087H278.224L282.618 127.391V122.087H285.376Z" fill="white"/>
<path d="M295.36 129.865V132.04H287.367V122.087H295.174V124.262H290.155V125.941H294.576V128.044H290.155V129.865H295.36Z" fill="white"/>
<path d="M200.797 152.772L202.329 149.331C203.958 150.368 205.843 150.931 207.774 150.957C209.705 150.957 210.46 150.415 210.46 149.614C210.46 146.998 201.08 148.906 201.08 142.777C201.08 139.832 203.483 137.428 208.386 137.428C210.53 137.428 212.746 137.922 214.372 138.865L212.936 142.331C211.357 141.481 209.801 141.058 208.362 141.058C206.413 141.058 205.7 141.717 205.7 142.542C205.7 145.064 215.056 143.179 215.056 149.261C215.056 152.136 212.653 154.587 207.75 154.587C205.039 154.585 202.352 153.858 200.797 152.772Z" fill="white"/>
<path d="M232.905 137.758V154.257H228.227V147.824H221.864V154.257H217.195V137.758H221.864V143.957H228.227V137.758H232.905Z" fill="white"/>
<path d="M235.352 146.008C235.352 141.058 239.25 137.43 244.514 137.43C249.777 137.43 253.676 141.06 253.676 146.008C253.676 150.955 249.787 154.585 244.514 154.585C239.241 154.585 235.352 150.957 235.352 146.008ZM248.976 146.008C248.976 143.156 247.026 141.294 244.521 141.294C242.016 141.294 240.067 143.156 240.067 146.008C240.067 148.859 242.016 150.721 244.521 150.721C247.026 150.721 248.976 148.859 248.976 146.008Z" fill="white"/>
<path d="M271.03 143.863C271.03 147.61 268.201 149.943 263.698 149.943H260.823V154.257H256.156V137.758H263.7C268.201 137.758 271.03 140.091 271.03 143.863ZM266.314 143.863C266.314 142.331 265.34 141.434 263.416 141.434H260.823V146.267H263.416C265.348 146.267 266.314 145.37 266.314 143.863Z" fill="white"/>
<path d="M288.161 143.863C288.161 147.61 285.334 149.943 280.831 149.943H277.956V154.257H273.289V137.758H280.831C285.332 137.758 288.161 140.091 288.161 143.863ZM283.447 143.863C283.447 142.331 282.482 141.434 280.548 141.434H277.956V146.267H280.548C282.482 146.267 283.447 145.37 283.447 143.863Z" fill="white"/>
<path d="M290.43 137.758H295.097V154.257H290.43V137.758Z" fill="white"/>
<path d="M314.118 137.758V154.257H310.286L303.003 145.466V154.257H298.43V137.758H302.272L309.557 146.549V137.758H314.118Z" fill="white"/>
<path d="M328.473 145.655H332.598V152.489C330.69 153.854 328.072 154.587 325.668 154.587C320.405 154.587 316.57 151.029 316.57 146.009C316.57 140.99 320.412 137.432 325.764 137.432C328.849 137.432 331.348 138.493 332.976 140.448L330.005 143.136C328.875 141.887 327.576 141.298 325.997 141.298C323.169 141.298 321.284 143.159 321.284 146.011C321.284 148.793 323.169 150.725 325.951 150.725C326.821 150.732 327.682 150.547 328.473 150.183V145.655Z" fill="white"/>
<g style="mix-blend-mode:multiply">
<path d="M325.539 168.447H207.675C200.618 168.447 194.898 174.167 194.898 181.223C194.898 188.279 200.618 193.999 207.675 193.999H325.539C332.595 193.999 338.315 188.279 338.315 181.223C338.315 174.167 332.595 168.447 325.539 168.447Z" fill="#F0F0F0"/>
</g>
<path d="M325.373 165.836H207.675C200.618 165.836 194.898 171.557 194.898 178.613C194.898 185.669 200.618 191.389 207.675 191.389H325.373C332.429 191.389 338.15 185.669 338.15 178.613C338.15 171.557 332.429 165.836 325.373 165.836Z" fill="white"/>
<path style="mix-blend-mode:multiply" d="M357.813 33.956H170.57V247.977H357.813V33.956Z" fill="url(#paint3_linear_734_31630)"/>
<path style="mix-blend-mode:multiply" d="M176.132 33.956H170.57V247.977H176.132V33.956Z" fill="url(#paint4_linear_734_31630)"/>
<path style="mix-blend-mode:multiply" d="M357.671 33.956H352.109V247.977H357.671V33.956Z" fill="url(#paint5_linear_734_31630)"/>
<path d="M352.619 388.331H176.132L170.406 393.998H357.768L352.619 388.331Z" fill="#D1F8FF"/>
<path d="M175.553 40.1998H352.042L357.768 34.533H170.406L175.553 40.1998Z" fill="#C6C6C6"/>
<path d="M216.672 184.523L213.321 181.64C214.226 180.118 214.524 178.31 214.154 176.577C213.784 174.845 212.774 173.316 211.326 172.296C209.879 171.276 208.099 170.84 206.343 171.074C204.588 171.309 202.985 172.197 201.856 173.562C200.727 174.927 200.155 176.667 200.253 178.436C200.351 180.204 201.113 181.871 202.387 183.102C203.66 184.333 205.351 185.038 207.122 185.077C208.893 185.116 210.613 184.485 211.939 183.311L215.253 186.166L216.672 184.523ZM207.299 182.913C206.341 182.913 205.405 182.629 204.608 182.097C203.811 181.564 203.191 180.808 202.824 179.923C202.457 179.037 202.361 178.063 202.548 177.124C202.735 176.184 203.197 175.321 203.874 174.643C204.551 173.966 205.415 173.505 206.354 173.318C207.294 173.131 208.268 173.227 209.153 173.593C210.038 173.96 210.795 174.581 211.327 175.377C211.859 176.174 212.144 177.111 212.144 178.069C212.142 179.353 211.631 180.584 210.723 181.492C209.815 182.4 208.584 182.911 207.299 182.913Z" fill="#87C9D4"/>
<path d="M164.788 120.309H161.977V165.293H164.788V120.309Z" fill="white"/>
<path d="M164.788 171.62H161.977V216.604H164.788V171.62Z" fill="white"/>
<path d="M292.215 13.7391H236.972C236.811 13.7391 236.68 13.87 236.68 14.0315V15.8561C236.68 16.0176 236.811 16.1486 236.972 16.1486H292.215C292.377 16.1486 292.508 16.0176 292.508 15.8561V14.0315C292.508 13.87 292.377 13.7391 292.215 13.7391Z" fill="#D3E8EB"/>
<path d="M291.305 15.7138H237.892C237.611 15.7135 237.338 15.6146 237.122 15.4345C236.906 15.2543 236.76 15.0042 236.709 14.7274C236.695 14.7987 236.688 14.8712 236.688 14.9438C236.688 15.102 236.719 15.2587 236.779 15.4048C236.84 15.551 236.928 15.6838 237.04 15.7957C237.152 15.9076 237.285 15.9963 237.431 16.0568C237.577 16.1174 237.734 16.1485 237.892 16.1485H291.305C291.463 16.1485 291.62 16.1174 291.766 16.0568C291.912 15.9963 292.045 15.9076 292.157 15.7957C292.269 15.6838 292.357 15.551 292.418 15.4048C292.478 15.2587 292.51 15.102 292.51 14.9438C292.509 14.8711 292.501 14.7987 292.486 14.7274C292.436 15.0042 292.29 15.2545 292.074 15.4348C291.858 15.615 291.586 15.7138 291.305 15.7138Z" fill="#C0D3D6"/>
<path d="M289.264 403.174H245.512C243.421 403.174 241.727 404.869 241.727 406.959V412.907C241.727 414.998 243.421 416.693 245.512 416.693H289.264C291.355 416.693 293.049 414.998 293.049 412.907V406.959C293.049 404.869 291.355 403.174 289.264 403.174Z" fill="#F0F0F0"/>
<path d="M288.704 404.074H246.064C244.251 404.074 242.781 405.544 242.781 407.357V412.513C242.781 414.326 244.251 415.796 246.064 415.796H288.704C290.517 415.796 291.987 414.326 291.987 412.513V407.357C291.987 405.544 290.517 404.074 288.704 404.074Z" fill="white"/>
<path d="M288.184 404.881H246.588C245.025 404.881 243.758 406.149 243.758 407.712V412.158C243.758 413.722 245.025 414.989 246.588 414.989H288.184C289.747 414.989 291.014 413.722 291.014 412.158V407.712C291.014 406.149 289.747 404.881 288.184 404.881Z" fill="url(#paint6_linear_734_31630)"/>
<path style="mix-blend-mode:multiply" d="M344.956 246.928H183.383V298.618H344.956V246.928Z" fill="url(#paint7_linear_734_31630)"/>
<path d="M350.33 253.26H178.203V260.823H350.33V253.26Z" fill="url(#paint8_linear_734_31630)"/>
<path d="M350.328 253.26H178.203L183.96 245.201H344.572L350.328 253.26Z" fill="url(#paint9_linear_734_31630)"/>
<path d="M278.36 206.921H252.777C248.158 206.921 244.414 210.665 244.414 215.284V240.868C244.414 245.486 248.158 249.23 252.777 249.23H278.36C282.979 249.23 286.723 245.486 286.723 240.868V215.284C286.723 210.665 282.979 206.921 278.36 206.921Z" fill="#C4D4E0"/>
<path d="M333.455 206.921H298.994C296.827 206.921 295.07 208.678 295.07 210.845V245.306C295.07 247.473 296.827 249.23 298.994 249.23H333.455C335.623 249.23 337.379 247.473 337.379 245.306V210.845C337.379 208.678 335.623 206.921 333.455 206.921Z" fill="#C4D4E0"/>
<path d="M282.633 206.921H248.504C246.245 206.921 244.414 208.752 244.414 211.011V239.265C244.414 241.524 246.245 243.355 248.504 243.355H282.633C284.892 243.355 286.723 241.524 286.723 239.265V211.011C286.723 208.752 284.892 206.921 282.633 206.921Z" fill="#FAFDFF"/>
<path d="M333.455 206.921H298.994C296.827 206.921 295.07 208.678 295.07 210.845V239.431C295.07 241.598 296.827 243.355 298.994 243.355H333.455C335.623 243.355 337.379 241.598 337.379 239.431V210.845C337.379 208.678 335.623 206.921 333.455 206.921Z" fill="#FAFDFF"/>
<path d="M230.552 206.921H199.257C196.216 206.921 193.75 209.387 193.75 212.428V243.723C193.75 246.765 196.216 249.23 199.257 249.23H230.552C233.593 249.23 236.059 246.765 236.059 243.723V212.428C236.059 209.387 233.593 206.921 230.552 206.921Z" fill="#C4D4E0"/>
<path d="M230.552 206.921H199.257C196.216 206.921 193.75 209.387 193.75 212.428V237.848C193.75 240.889 196.216 243.355 199.257 243.355H230.552C233.593 243.355 236.059 240.889 236.059 237.848V212.428C236.059 209.387 233.593 206.921 230.552 206.921Z" fill="#FAFDFF"/>
<path d="M282.657 208.522H248.48C246.235 208.522 244.414 210.342 244.414 212.588V239.289C244.414 241.534 246.235 243.355 248.48 243.355H282.657C284.903 243.355 286.723 241.534 286.723 239.289V212.588C286.723 210.342 284.903 208.522 282.657 208.522Z" fill="#EDF8FF"/>
<path d="M333.455 208.522H298.994C296.827 208.522 295.07 210.279 295.07 212.446V239.431C295.07 241.598 296.827 243.355 298.994 243.355H333.455C335.623 243.355 337.379 241.598 337.379 239.431V212.446C337.379 210.279 335.623 208.522 333.455 208.522Z" fill="#EDF8FF"/>
<path d="M230.552 208.522H199.257C196.216 208.522 193.75 210.987 193.75 214.029V237.848C193.75 240.889 196.216 243.355 199.257 243.355H230.552C233.593 243.355 236.059 240.889 236.059 237.848V214.029C236.059 210.987 233.593 208.522 230.552 208.522Z" fill="#EDF8FF"/>
<path style="mix-blend-mode:multiply" d="M236.053 244.413V237.458L228.138 222.75H201.656L207.44 233.499L206.921 239.004L212.423 249.23H231.236C232.513 249.23 233.739 248.723 234.642 247.82C235.545 246.916 236.053 245.691 236.053 244.413Z" fill="url(#paint10_linear_734_31630)"/>
<path style="mix-blend-mode:multiply" d="M286.691 244.413V237.458L276.396 218.22L264.39 231.281L258.078 233.509L260.692 239.014L266.193 249.24H281.874C282.507 249.24 283.135 249.115 283.72 248.872C284.305 248.63 284.836 248.274 285.284 247.826C285.731 247.377 286.086 246.845 286.327 246.26C286.569 245.674 286.692 245.047 286.691 244.413Z" fill="url(#paint11_linear_734_31630)"/>
<path style="mix-blend-mode:multiply" d="M337.38 244.413V237.458L327.086 218.22L314.183 230.357L306.664 230.976L316.875 249.23H332.556C333.189 249.231 333.816 249.107 334.401 248.866C334.987 248.624 335.519 248.27 335.967 247.822C336.415 247.375 336.77 246.844 337.013 246.259C337.255 245.674 337.38 245.047 337.38 244.413Z" fill="url(#paint12_linear_734_31630)"/>
<path d="M206.921 218.604L201.656 222.75L205.366 227.333L206.921 226.267V218.604Z" fill="#492C88"/>
<path d="M222.875 218.604L228.138 222.75L224.431 227.333L222.875 226.267V218.604Z" fill="#492C88"/>
<path d="M217.889 218.003C217.766 218.748 217.38 219.424 216.803 219.909C216.225 220.394 215.493 220.657 214.738 220.65C213.984 220.643 213.257 220.366 212.688 219.87C212.119 219.374 211.747 218.691 211.637 217.945L206.93 218.604V238.756H222.883V218.604L217.889 218.003Z" fill="#492C88"/>
<path d="M261.706 231.873C261.706 231.873 256.312 232.951 256.312 235.109C256.312 237.267 258.2 237.536 261.166 237.536C264.133 237.536 267.907 237.805 268.716 234.3C269.525 230.795 269.796 225.67 272.225 225.401V237.536H273.572C273.572 237.536 274.652 227.828 275.999 225.13C277.346 222.432 279.235 220.276 277.617 217.849C275.999 215.422 273.034 213.804 271.685 213.804L268.989 221.625C268.989 221.625 266.02 233.76 261.706 231.873Z" fill="#492C88"/>
<g style="mix-blend-mode:multiply">
<path d="M326.535 358.003H204.594C202.458 358.003 200.727 359.734 200.727 361.87V377.163C200.727 379.299 202.458 381.031 204.594 381.031H326.535C328.671 381.031 330.402 379.299 330.402 377.163V361.87C330.402 359.734 328.671 358.003 326.535 358.003Z" fill="#DADADA"/>
</g>
<path d="M326.535 354.295H204.594C202.458 354.295 200.727 356.027 200.727 358.163V373.456C200.727 375.592 202.458 377.323 204.594 377.323H326.535C328.671 377.323 330.402 375.592 330.402 373.456V358.163C330.402 356.027 328.671 354.295 326.535 354.295Z" fill="#E63114"/>
<path d="M237.795 368.346H234.846L234.33 370.021H232.023L235.308 361.054H237.339L240.653 370.021H238.334L237.795 368.346ZM235.353 366.676H237.281L236.306 363.568L235.353 366.676Z" fill="white"/>
<path d="M241.289 370.021V361.054H244.176C244.926 361.041 245.666 361.226 246.32 361.592C246.949 361.947 247.462 362.475 247.8 363.112C248.16 363.789 248.345 364.545 248.338 365.311V365.724C248.351 366.491 248.172 367.249 247.819 367.929C247.485 368.567 246.977 369.096 246.354 369.456C245.714 369.827 244.986 370.019 244.246 370.013L241.289 370.021ZM243.449 362.728V368.36H244.201C244.476 368.375 244.749 368.322 244.998 368.206C245.247 368.091 245.464 367.916 245.63 367.697C245.962 367.257 246.127 366.602 246.127 365.732V365.342C246.127 364.477 245.962 363.827 245.63 363.393C245.46 363.174 245.238 362.999 244.985 362.884C244.732 362.77 244.455 362.718 244.178 362.734L243.449 362.728Z" fill="white"/>
<path d="M249.438 370.021V361.054H252.323C253.072 361.041 253.812 361.226 254.467 361.592C255.095 361.947 255.608 362.475 255.946 363.112C256.305 363.789 256.489 364.545 256.482 365.311V365.724C256.495 366.491 256.316 367.249 255.962 367.929C255.628 368.567 255.12 369.096 254.496 369.456C253.857 369.826 253.13 370.019 252.391 370.013L249.438 370.021ZM251.597 362.728V368.36H252.346C252.62 368.375 252.894 368.322 253.143 368.206C253.392 368.091 253.609 367.916 253.775 367.697C254.106 367.257 254.273 366.602 254.274 365.732V365.342C254.274 364.477 254.108 363.827 253.775 363.393C253.604 363.174 253.383 362.999 253.13 362.884C252.877 362.77 252.6 362.718 252.323 362.734L251.597 362.728Z" fill="white"/>
<path d="M267.386 362.728H264.698V370.021H262.538V362.728H259.898V361.062H267.386V362.728Z" fill="white"/>
<path d="M275.714 365.726C275.73 366.526 275.564 367.32 275.229 368.046C274.932 368.691 274.451 369.233 273.847 369.606C273.231 369.973 272.525 370.162 271.808 370.149C271.096 370.163 270.393 369.981 269.777 369.623C269.18 369.266 268.701 368.743 268.397 368.118C268.054 367.419 267.876 366.651 267.876 365.873V365.368C267.86 364.567 268.025 363.774 268.359 363.046C268.656 362.4 269.138 361.858 269.744 361.486C270.363 361.116 271.074 360.927 271.796 360.939C272.51 360.927 273.213 361.115 273.826 361.481C274.427 361.849 274.909 362.384 275.213 363.021C275.554 363.736 275.726 364.521 275.714 365.313V365.726ZM273.518 365.35C273.518 364.461 273.369 363.785 273.073 363.323C272.941 363.104 272.754 362.924 272.529 362.803C272.304 362.681 272.051 362.622 271.796 362.631C270.712 362.631 270.14 363.443 270.079 365.067V365.726C270.079 366.604 270.224 367.278 270.516 367.75C270.647 367.975 270.837 368.16 271.066 368.284C271.295 368.409 271.553 368.469 271.814 368.457C272.067 368.466 272.318 368.405 272.54 368.283C272.762 368.16 272.947 367.98 273.075 367.761C273.371 367.3 273.521 366.634 273.523 365.763L273.518 365.35Z" fill="white"/>
<path d="M287.204 366.988C287.187 367.573 287.013 368.143 286.701 368.639C286.383 369.125 285.933 369.51 285.404 369.75C284.807 370.02 284.156 370.153 283.5 370.14C282.323 370.14 281.395 369.756 280.718 368.99C280.041 368.223 279.703 367.14 279.704 365.74V365.311C279.687 364.519 279.843 363.732 280.163 363.007C280.442 362.379 280.901 361.847 281.482 361.481C282.082 361.115 282.774 360.928 283.477 360.943C284.563 360.943 285.436 361.229 286.096 361.8C286.757 362.372 287.132 363.161 287.223 364.167H285.079C285.063 363.621 284.925 363.229 284.668 362.997C284.41 362.765 284.015 362.641 283.486 362.641C283.253 362.625 283.02 362.672 282.812 362.778C282.603 362.884 282.427 363.045 282.303 363.243C282.053 363.644 281.923 364.288 281.913 365.169V365.802C281.913 366.759 282.033 367.442 282.272 367.851C282.511 368.261 282.924 368.466 283.512 368.467C283.921 368.496 284.327 368.371 284.65 368.116C284.913 367.882 285.052 367.512 285.069 367.003L287.204 366.988Z" fill="white"/>
<path d="M293.329 368.346H290.37L289.853 370.021H287.539L290.824 361.054H292.855L296.169 370.021H293.849L293.329 368.346ZM290.888 366.68H292.814L291.839 363.572L290.888 366.68Z" fill="white"/>
<path d="M300.142 366.851H298.972V370.021H296.812V361.054H300.337C301.399 361.054 302.229 361.29 302.828 361.761C303.427 362.233 303.727 362.898 303.727 363.757C303.749 364.302 303.618 364.843 303.349 365.317C303.06 365.757 302.649 366.104 302.165 366.313L304.035 369.929V370.023H301.721L300.142 366.851ZM298.972 365.19H300.337C300.505 365.203 300.674 365.181 300.834 365.125C300.993 365.07 301.139 364.982 301.263 364.867C301.465 364.608 301.575 364.289 301.575 363.96C301.575 363.632 301.465 363.313 301.263 363.054C301.141 362.937 300.996 362.848 300.837 362.79C300.678 362.733 300.509 362.71 300.341 362.722H298.976L298.972 365.19Z" fill="white"/>
<path d="M311.753 362.728H309.065V370.021H306.905V362.728H304.266V361.062H311.753V362.728Z" fill="white"/>
<path d="M218.157 371.003V366.964H214.289V364.414H218.157V360.438H221.028V364.413H224.786V366.962H221.028V371.001L218.157 371.003Z" fill="white"/>
<path d="M174.042 78.77H138L170.972 33.956H197.616L174.042 78.77Z" fill="#E63114"/>
<path d="M210.157 78.77H174.117L197.664 33.956H224.302C219.588 48.8947 214.873 63.8327 210.157 78.77Z" fill="white"/>
<path d="M246.282 78.77H210.242C214.951 63.8327 219.659 48.8947 224.367 33.956H251.005C249.43 48.8947 247.856 63.8327 246.282 78.77Z" fill="#E63114"/>
<path d="M282.405 78.77H246.359L251.061 33.956H277.699L282.405 78.77Z" fill="white"/>
<path d="M318.529 78.77H282.489C280.914 63.8327 279.339 48.8947 277.766 33.956H304.404C309.106 48.8947 313.814 63.8327 318.529 78.77Z" fill="#E63114"/>
<path d="M354.645 78.77H318.606C313.891 63.8327 309.176 48.8947 304.461 33.956H331.099L354.645 78.77Z" fill="white"/>
<path d="M390.766 78.77H354.724L331.156 33.956H357.794L390.766 78.77Z" fill="#E63114"/>
<path style="mix-blend-mode:multiply" d="M344.956 322.195H183.383V370.138H344.956V322.195Z" fill="url(#paint13_linear_734_31630)"/>
<path d="M350.33 321.62H178.203V329.184H350.33V321.62Z" fill="url(#paint14_linear_734_31630)"/>
<path d="M350.328 321.62H178.203L183.96 313.559H344.572L350.328 321.62Z" fill="url(#paint15_linear_734_31630)"/>
<path d="M230.552 275.02H199.257C196.216 275.02 193.75 277.486 193.75 280.527V311.822C193.75 314.864 196.216 317.329 199.257 317.329H230.552C233.593 317.329 236.059 314.864 236.059 311.822V280.527C236.059 277.486 233.593 275.02 230.552 275.02Z" fill="#D2E3F0"/>
<path d="M281.216 275.02H249.921C246.88 275.02 244.414 277.486 244.414 280.527V311.822C244.414 314.864 246.88 317.329 249.921 317.329H281.216C284.258 317.329 286.723 314.864 286.723 311.822V280.527C286.723 277.486 284.258 275.02 281.216 275.02Z" fill="#D2E3F0"/>
<path d="M234.427 275.02H195.382C194.481 275.02 193.75 275.751 193.75 276.652V309.653C193.75 310.554 194.481 311.284 195.382 311.284H234.427C235.329 311.284 236.059 310.554 236.059 309.653V276.652C236.059 275.751 235.329 275.02 234.427 275.02Z" fill="#FAFDFF"/>
<path d="M281.216 275.02H249.921C246.88 275.02 244.414 277.486 244.414 280.527V305.777C244.414 308.819 246.88 311.284 249.921 311.284H281.216C284.258 311.284 286.723 308.819 286.723 305.777V280.527C286.723 277.486 284.258 275.02 281.216 275.02Z" fill="#FAFDFF"/>
<path d="M331.872 275.282H300.577C297.536 275.282 295.07 277.747 295.07 280.789V312.084C295.07 315.125 297.536 317.591 300.577 317.591H331.872C334.914 317.591 337.379 315.125 337.379 312.084V280.789C337.379 277.747 334.914 275.282 331.872 275.282Z" fill="#D2E3F0"/>
<path d="M331.872 275.02H300.577C297.536 275.02 295.07 277.486 295.07 280.527V305.777C295.07 308.819 297.536 311.284 300.577 311.284H331.872C334.914 311.284 337.379 308.819 337.379 305.777V280.527C337.379 277.486 334.914 275.02 331.872 275.02Z" fill="#FAFDFF"/>
<path d="M230.552 277.252H199.257C196.216 277.252 193.75 279.718 193.75 282.759V305.778C193.75 308.819 196.216 311.284 199.257 311.284H230.552C233.593 311.284 236.059 308.819 236.059 305.778V282.759C236.059 279.718 233.593 277.252 230.552 277.252Z" fill="#EDF8FF"/>
<path d="M281.216 277.252H249.921C246.88 277.252 244.414 279.718 244.414 282.759V305.778C244.414 308.819 246.88 311.284 249.921 311.284H281.216C284.258 311.284 286.723 308.819 286.723 305.778V282.759C286.723 279.718 284.258 277.252 281.216 277.252Z" fill="#EDF8FF"/>
<path d="M331.872 277.252H300.577C297.536 277.252 295.07 279.718 295.07 282.759V305.778C295.07 308.819 297.536 311.284 300.577 311.284H331.872C334.914 311.284 337.379 308.819 337.379 305.778V282.759C337.379 279.718 334.914 277.252 331.872 277.252Z" fill="#EDF8FF"/>
<path style="mix-blend-mode:multiply" d="M236.053 312.392V305.436L225.137 285.13L204.984 300.202L214.454 317.201H231.236C232.513 317.201 233.737 316.694 234.64 315.793C235.543 314.891 236.051 313.668 236.053 312.392Z" fill="url(#paint16_linear_734_31630)"/>
<path style="mix-blend-mode:multiply" d="M286.717 312.392V307.859L271.422 284.206L259.555 285.395L259.75 302.855L269.886 317.209H281.908C283.184 317.207 284.407 316.698 285.309 315.795C286.211 314.892 286.717 313.668 286.717 312.392Z" fill="url(#paint17_linear_734_31630)"/>
<path style="mix-blend-mode:multiply" d="M337.382 312.392V306.916L324.844 286.904L308.828 300.148L319.409 317.209H332.566C333.843 317.209 335.068 316.701 335.972 315.798C336.875 314.894 337.382 313.669 337.382 312.392Z" fill="url(#paint18_linear_734_31630)"/>
<path d="M247.204 338.136C248.235 337.708 248.725 336.526 248.298 335.494C247.871 334.463 246.688 333.973 245.657 334.4C244.625 334.828 244.135 336.01 244.563 337.042C244.99 338.073 246.172 338.563 247.204 338.136Z" fill="#492C88"/>
<path d="M256.259 338.134C257.29 337.707 257.78 336.525 257.353 335.493C256.925 334.462 255.743 333.972 254.711 334.399C253.68 334.827 253.19 336.009 253.617 337.04C254.045 338.072 255.227 338.562 256.259 338.134Z" fill="white"/>
<path d="M264.797 338.252C265.905 338.116 266.693 337.107 266.557 335.999C266.42 334.891 265.411 334.103 264.303 334.24C263.195 334.376 262.407 335.385 262.544 336.493C262.68 337.601 263.689 338.389 264.797 338.252Z" fill="white"/>
<path d="M274.368 338.135C275.399 337.708 275.889 336.525 275.462 335.494C275.035 334.462 273.852 333.972 272.821 334.4C271.789 334.827 271.299 336.009 271.727 337.041C272.154 338.072 273.336 338.562 274.368 338.135Z" fill="white"/>
<path d="M283.423 338.134C284.454 337.707 284.944 336.524 284.517 335.493C284.089 334.461 282.907 333.971 281.875 334.399C280.844 334.826 280.354 336.008 280.781 337.04C281.209 338.071 282.391 338.561 283.423 338.134Z" fill="white"/>
<path d="M224.271 284.824H205.527C204.973 284.824 204.523 285.273 204.523 285.828V299.688C204.523 300.242 204.973 300.692 205.527 300.692H224.271C224.825 300.692 225.274 300.242 225.274 299.688V285.828C225.274 285.273 224.825 284.824 224.271 284.824Z" fill="#492C88"/>
<path d="M217.337 301.374H212.456V303.815H211.039V304.532H218.755V303.815H217.337V301.374Z" fill="#492C88"/>
<path d="M259.947 283.693H271.183C271.286 283.693 271.385 283.734 271.458 283.807C271.531 283.88 271.573 283.98 271.573 284.083V286.077H259.555V284.083C259.555 284.032 259.565 283.981 259.585 283.933C259.604 283.886 259.633 283.843 259.67 283.807C259.706 283.77 259.749 283.742 259.797 283.722C259.844 283.703 259.895 283.693 259.947 283.693Z" fill="#492C88"/>
<path d="M271.178 303.302H259.942C259.839 303.302 259.74 303.261 259.667 303.188C259.594 303.115 259.552 303.015 259.552 302.912V300.918H271.57V302.912C271.57 302.963 271.56 303.014 271.54 303.062C271.521 303.109 271.492 303.152 271.455 303.188C271.419 303.225 271.376 303.253 271.328 303.273C271.281 303.292 271.23 303.302 271.178 303.302Z" fill="#492C88"/>
<path d="M271.573 286.847H259.555V300.146H271.573V286.847Z" fill="#492C88"/>
<path d="M266.306 302.109C266.306 301.961 266.262 301.817 266.18 301.694C266.098 301.571 265.981 301.476 265.845 301.419C265.708 301.363 265.558 301.348 265.413 301.377C265.269 301.405 265.136 301.476 265.031 301.581C264.927 301.685 264.856 301.818 264.827 301.963C264.798 302.108 264.813 302.258 264.869 302.395C264.926 302.531 265.022 302.648 265.144 302.73C265.267 302.812 265.411 302.855 265.559 302.855C265.657 302.856 265.754 302.837 265.845 302.799C265.936 302.762 266.018 302.707 266.088 302.637C266.157 302.568 266.212 302.486 266.249 302.395C266.287 302.304 266.306 302.207 266.306 302.109Z" fill="#EDF8FF"/>
<path d="M309.632 286.005C309.478 286.151 309.332 286.305 309.188 286.461C309.332 286.305 309.478 286.151 309.632 286.005Z" fill="#492C88"/>
<path d="M317.231 293.606L320.062 290.777C319.026 289.855 318.302 288.634 317.99 287.282C317.678 285.931 317.793 284.516 318.319 283.233C318.514 283.26 318.709 283.284 318.904 283.323C318.214 283.182 317.511 283.11 316.806 283.11C314.128 283.108 311.553 284.146 309.625 286.005L317.231 293.606Z" fill="#492C88"/>
<path d="M306.513 294.744C307.835 294.055 309.349 293.827 310.816 294.096C312.282 294.365 313.616 295.116 314.607 296.23L316.787 294.052L309.184 286.45C307.408 288.362 306.421 290.875 306.422 293.485C306.426 294.04 306.475 294.594 306.566 295.142C306.552 295.021 306.529 294.886 306.513 294.744Z" fill="#492C88"/>
<path d="M318.914 283.323C318.394 284.511 318.264 285.833 318.545 287.099C318.825 288.365 319.5 289.509 320.473 290.366L324.409 286.43C324.553 286.586 324.701 286.74 324.836 286.904L320.974 290.767C321.836 291.385 322.843 291.768 323.897 291.878C324.95 291.989 326.015 291.824 326.986 291.399C327.027 291.594 327.048 291.789 327.078 291.984C326.013 292.421 324.854 292.576 323.712 292.434C322.57 292.292 321.484 291.857 320.559 291.173L317.695 294.058L324.323 300.686C325.607 299.347 326.508 297.688 326.933 295.883C327.359 294.077 327.292 292.191 326.742 290.42C326.191 288.649 325.175 287.058 323.801 285.812C322.427 284.566 320.744 283.711 318.927 283.336L318.914 283.323Z" fill="#492C88"/>
<path d="M323.852 301.124C324.008 300.98 324.161 300.834 324.31 300.68C324.161 300.834 324.008 300.982 323.852 301.124Z" fill="#492C88"/>
<path d="M317.232 294.508L315.008 296.734C315.753 297.742 316.2 298.94 316.298 300.189C316.395 301.439 316.139 302.691 315.559 303.803C315.45 303.789 315.341 303.77 315.232 303.752C316.773 304.003 318.352 303.897 319.846 303.441C321.34 302.986 322.709 302.193 323.848 301.124L317.232 294.508Z" fill="#492C88"/>
<path d="M315.742 300.709C315.743 299.431 315.342 298.185 314.596 297.148L310.221 301.524C310.056 301.388 309.904 301.239 309.748 301.095L314.196 296.647C313.269 295.593 312.008 294.889 310.623 294.655C309.239 294.42 307.817 294.669 306.594 295.358C306.972 297.434 307.974 299.345 309.466 300.837C310.958 302.329 312.869 303.331 314.945 303.709C315.465 302.795 315.74 301.761 315.742 300.709Z" fill="#492C88"/>
<path d="M311.696 230.253C311.696 230.253 315.127 225.731 316.884 224.635L306.632 218.113L307.702 217.426L319.798 221.813L324.053 217.865C324.053 217.865 326.511 216.358 327.264 217.015C328.016 217.672 326.802 219.811 325.876 220.606L322.229 224.142L326.743 235.544L326.02 236.476L319.197 226.91C319.197 226.91 314.162 231.376 313.264 231.733L313.848 235.598L312.575 236.803L310.462 232.803L306.094 230.692L307.684 229.733L311.696 230.253Z" fill="#492C88"/>
<path d="M464.406 328.495C464.406 328.495 485.459 308.222 489.908 314.46C494.356 320.698 499.485 333.954 492.692 336.954C485.898 339.954 464.517 340.517 464.406 338.847V328.495Z" fill="#492C88"/>
<path d="M453.202 328.495C453.202 328.495 432.149 308.222 427.701 314.46C423.252 320.698 418.124 333.954 424.917 336.954C431.711 339.954 453.091 340.517 453.202 338.847V328.495Z" fill="#492C88"/>
<path d="M464.596 326.525H451.631C450.998 326.525 450.484 327.038 450.484 327.671V339.199C450.484 339.832 450.998 340.346 451.631 340.346H464.596C465.229 340.346 465.742 339.832 465.742 339.199V327.671C465.742 327.038 465.229 326.525 464.596 326.525Z" fill="#5418A3"/>
<path d="M521.958 347.621H483.047V431.036H521.958V347.621Z" fill="url(#paint19_linear_734_31630)"/>
<path d="M524.188 334.669H483.047V347.621H524.188V334.669Z" fill="url(#paint20_linear_734_31630)"/>
<path d="M510.54 347.621H498.711V431.106H510.54V347.621Z" fill="#5418A3"/>
<path d="M511.321 334.669H499.492V347.621H511.321V334.669Z" fill="#5418A3"/>
<path d="M485.519 347.621H391.242V431.036H485.519V347.621Z" fill="url(#paint21_linear_734_31630)"/>
<path d="M485.521 334.669H389.188V347.621H485.521V334.669Z" fill="url(#paint22_linear_734_31630)"/>
<path d="M444.29 347.621H432.461V431.215H444.29V347.621Z" fill="#5418A3"/>
<path d="M443.11 334.669H431.281V347.621H443.11V334.669Z" fill="#5418A3"/>
<g style="mix-blend-mode:multiply">
<path d="M485.519 347.621H391.242V349.976H485.519V347.621Z" fill="#E3F0F2"/>
</g>
<g style="mix-blend-mode:multiply">
<path d="M521.961 347.621H485.336V349.976H521.961V347.621Z" fill="#E3F0F2"/>
</g>
<path d="M43.2344 318.675C43.2344 312.969 45.5007 307.498 49.5349 303.464C53.569 299.43 59.0405 297.163 64.7456 297.163C70.4507 297.163 75.9222 299.43 79.9564 303.464C83.9905 307.498 86.2569 312.969 86.2569 318.675" stroke="#3C2266" stroke-width="10.57" stroke-miterlimit="10"/>
<path d="M13.9516 311.325H96.3533L102.757 433.363H0L13.9516 311.325Z" fill="#D8E6E6"/>
<path d="M26.2435 311.325H112.864L122.119 433.363H21.8984L26.2435 311.325Z" fill="url(#paint23_linear_734_31630)"/>
<path d="M21.8992 433.364L11.743 427.866L0 433.364H21.8992Z" fill="#C7E0E0"/>
<path d="M11.743 427.866L19.8387 311.325H13.9516L0 433.363L11.743 427.866Z" fill="#E4F2F2"/>
<path d="M90.3594 318.571C90.3594 318.995 90.4851 319.41 90.7207 319.763C90.9564 320.115 91.2913 320.39 91.6831 320.552C92.0749 320.715 92.5061 320.757 92.922 320.674C93.338 320.592 93.72 320.387 94.0199 320.087C94.3198 319.788 94.524 319.405 94.6068 318.99C94.6895 318.574 94.647 318.142 94.4847 317.751C94.3224 317.359 94.0476 317.024 93.695 316.788C93.3424 316.553 92.9278 316.427 92.5037 316.427C91.935 316.427 91.3895 316.653 90.9874 317.055C90.5853 317.457 90.3594 318.002 90.3594 318.571Z" fill="#492C88"/>
<path d="M49.2205 320.721C50.408 320.721 51.3706 319.759 51.3706 318.571C51.3706 317.384 50.408 316.421 49.2205 316.421C48.033 316.421 47.0703 317.384 47.0703 318.571C47.0703 319.759 48.033 320.721 49.2205 320.721Z" fill="#492C88"/>
<path d="M49.2656 318.675C49.2656 312.969 51.532 307.498 55.5661 303.464C59.6003 299.43 65.0718 297.163 70.7769 297.163C76.482 297.163 81.9535 299.43 85.9876 303.464C90.0218 307.498 92.2881 312.969 92.2881 318.675" stroke="#492C88" stroke-width="10.57" stroke-miterlimit="10"/>
<g style="mix-blend-mode:multiply">
<path d="M106.853 344.41L89.9717 346.527L86.4297 351.18L91.5838 392.312L116.59 389.177L111.434 348.046L106.853 344.41ZM98.6659 352.999C98.2592 353.05 97.8465 352.98 97.48 352.796C97.1134 352.613 96.8095 352.325 96.6066 351.969C96.4037 351.612 96.311 351.204 96.3402 350.795C96.3694 350.387 96.5192 349.996 96.7707 349.672C97.0221 349.348 97.3639 349.106 97.7528 348.977C98.1417 348.847 98.5602 348.836 98.9555 348.945C99.3507 349.053 99.7049 349.276 99.9733 349.586C100.242 349.896 100.412 350.278 100.463 350.685C100.532 351.23 100.381 351.779 100.045 352.213C99.7088 352.647 99.2142 352.929 98.6698 352.999H98.6659Z" fill="#F2F2F2"/>
</g>
<path d="M103.319 338.677L88.1138 346.305L86.3281 351.874L104.909 388.928L127.436 377.621L108.855 340.566L103.319 338.677ZM98.4688 349.504C98.1024 349.687 97.6898 349.758 97.2832 349.707C96.8766 349.656 96.4942 349.486 96.1844 349.218C95.8745 348.95 95.6512 348.596 95.5425 348.2C95.4339 347.805 95.4449 347.387 95.574 346.998C95.7032 346.609 95.9448 346.267 96.2683 346.016C96.5917 345.764 96.9825 345.614 97.3913 345.584C97.8 345.555 98.2083 345.647 98.5646 345.85C98.9208 346.052 99.209 346.356 99.3928 346.722C99.6387 347.214 99.6796 347.783 99.5063 348.304C99.3331 348.826 98.9599 349.257 98.4688 349.504Z" fill="#E63114"/>
<path d="M99.7265 365.479C98.7518 363.545 99.4516 361.814 101.105 360.995C102.758 360.177 104.559 360.65 105.528 362.584C106.497 364.518 105.801 366.249 104.148 367.068C102.495 367.886 100.701 367.428 99.7265 365.479ZM107.592 357.935L110.228 356.617L108.235 371.263L105.602 372.582L107.592 357.935ZM103.313 363.684C102.791 362.641 102.29 362.5 101.949 362.672C101.608 362.843 101.418 363.327 101.949 364.372C102.479 365.417 102.97 365.557 103.313 365.385C103.656 365.214 103.836 364.726 103.313 363.684ZM110.302 366.621C109.327 364.689 110.027 362.956 111.68 362.138C113.333 361.319 115.134 361.793 116.101 363.726C117.068 365.66 116.376 367.391 114.723 368.22C113.07 369.048 111.276 368.571 110.302 366.621ZM113.889 364.828C113.364 363.783 112.865 363.643 112.524 363.814C112.183 363.986 111.994 364.469 112.524 365.514C113.054 366.559 113.545 366.699 113.889 366.528C114.232 366.356 114.411 365.873 113.889 364.828Z" fill="white"/>
<path d="M96.5517 345.862C96.5517 345.862 82.988 305.661 77.7578 311.407" stroke="#B3B3B3" stroke-width="2.68" stroke-miterlimit="10"/>
<path d="M96.0938 346.166C96.0938 346.166 106.47 335.422 106.991 339.597C107.511 343.773 96.0938 346.166 96.0938 346.166Z" stroke="#B3B3B3" stroke-width="2.68" stroke-miterlimit="10"/>
<path d="M85.0625 338.554C85.5849 339.077 93.1485 341.498 96.4137 344.987" stroke="#B3B3B3" stroke-width="2.68" stroke-miterlimit="10"/>
<path opacity="0.42" d="M506.852 134.9H408.21C400.69 134.9 394.594 140.996 394.594 148.516V283.442C394.594 290.962 400.69 297.058 408.21 297.058H506.852C514.372 297.058 520.468 290.962 520.468 283.442V148.516C520.468 140.996 514.372 134.9 506.852 134.9Z" fill="white"/>
<path d="M426.397 151.943H409.632C407.143 151.943 405.125 153.961 405.125 156.45V173.215C405.125 175.704 407.143 177.722 409.632 177.722H426.397C428.886 177.722 430.903 175.704 430.903 173.215V156.45C430.903 153.961 428.886 151.943 426.397 151.943Z" stroke="white" stroke-width="7.81" stroke-miterlimit="10"/>
<path d="M426.397 200.915H409.632C407.143 200.915 405.125 202.933 405.125 205.422V222.187C405.125 224.676 407.143 226.694 409.632 226.694H426.397C428.886 226.694 430.903 224.676 430.903 222.187V205.422C430.903 202.933 428.886 200.915 426.397 200.915Z" stroke="white" stroke-width="7.81" stroke-miterlimit="10"/>
<path d="M426.397 249.887H409.632C407.143 249.887 405.125 251.905 405.125 254.394V271.159C405.125 273.648 407.143 275.666 409.632 275.666H426.397C428.886 275.666 430.903 273.648 430.903 271.159V254.394C430.903 251.905 428.886 249.887 426.397 249.887Z" stroke="white" stroke-width="7.81" stroke-miterlimit="10"/>
<path d="M424.973 160.823C424.887 160.715 424.778 160.629 424.654 160.57C424.53 160.51 424.395 160.479 424.257 160.48H413.341L412.756 158.16C412.737 158.083 412.692 158.014 412.629 157.965C412.566 157.916 412.489 157.889 412.409 157.889H408.723C408.633 157.896 408.548 157.936 408.486 158.003C408.425 158.069 408.391 158.156 408.391 158.247C408.391 158.337 408.425 158.424 408.486 158.491C408.548 158.557 408.633 158.598 408.723 158.604H412.13L412.702 160.844C412.702 160.898 412.716 160.951 412.741 160.998L413.29 163.156C413.287 163.179 413.287 163.203 413.29 163.226C413.291 163.309 413.319 163.389 413.372 163.452L414.6 168.273C414.62 168.35 414.665 168.418 414.728 168.467C414.791 168.516 414.868 168.542 414.947 168.542H423.524C423.574 168.546 423.623 168.539 423.67 168.523C423.716 168.507 423.759 168.481 423.795 168.447C423.831 168.414 423.86 168.373 423.88 168.328C423.899 168.283 423.909 168.234 423.909 168.184C423.909 168.135 423.899 168.086 423.88 168.041C423.86 167.996 423.831 167.955 423.795 167.922C423.759 167.888 423.716 167.862 423.67 167.846C423.623 167.83 423.574 167.823 423.524 167.827H415.226L414.725 165.864H420.561C420.613 165.893 420.671 165.909 420.731 165.909C420.79 165.909 420.849 165.893 420.901 165.864H423.926C424.007 165.864 424.086 165.836 424.149 165.785C424.213 165.735 424.257 165.664 424.275 165.585L425.17 161.595C425.197 161.459 425.194 161.32 425.16 161.186C425.125 161.053 425.062 160.928 424.973 160.823ZM424.413 161.271C424.432 161.294 424.446 161.321 424.452 161.35C424.459 161.379 424.459 161.41 424.452 161.439L424.131 162.87H421.07V161.195H424.259C424.288 161.194 424.317 161.199 424.344 161.211C424.37 161.222 424.394 161.24 424.413 161.261V161.271ZM417.653 162.873V161.199H420.355V162.871L417.653 162.873ZM420.353 163.589V165.148H417.651V163.589H420.353ZM416.934 161.201V162.873H413.943L413.518 161.201H416.934ZM414.128 163.593H416.936V165.152H414.524L414.128 163.593ZM423.62 165.152H421.072V163.593H423.973L423.62 165.152Z" fill="white"/>
<path d="M422.404 169.092C422.138 169.092 421.879 169.171 421.659 169.318C421.438 169.465 421.266 169.675 421.165 169.92C421.063 170.165 421.037 170.435 421.088 170.695C421.14 170.955 421.268 171.194 421.455 171.381C421.643 171.569 421.882 171.697 422.142 171.748C422.402 171.8 422.672 171.774 422.917 171.672C423.162 171.571 423.371 171.399 423.519 171.178C423.666 170.958 423.745 170.698 423.745 170.433C423.744 170.077 423.603 169.737 423.351 169.485C423.1 169.234 422.759 169.092 422.404 169.092ZM422.404 171.057C422.28 171.057 422.16 171.02 422.057 170.952C421.955 170.883 421.875 170.786 421.827 170.672C421.78 170.558 421.768 170.432 421.792 170.311C421.816 170.19 421.875 170.079 421.963 169.992C422.05 169.905 422.161 169.845 422.282 169.821C422.403 169.797 422.528 169.809 422.642 169.857C422.756 169.904 422.854 169.984 422.922 170.086C422.991 170.189 423.027 170.31 423.027 170.433C423.027 170.598 422.962 170.756 422.845 170.873C422.729 170.99 422.571 171.056 422.406 171.057H422.404Z" fill="white"/>
<path d="M416.107 169.096C415.842 169.096 415.582 169.174 415.362 169.322C415.141 169.469 414.969 169.679 414.868 169.924C414.766 170.169 414.74 170.438 414.791 170.699C414.843 170.959 414.971 171.198 415.158 171.385C415.346 171.573 415.585 171.701 415.845 171.752C416.105 171.804 416.375 171.778 416.62 171.676C416.865 171.575 417.075 171.403 417.222 171.182C417.369 170.962 417.448 170.702 417.448 170.437C417.447 170.081 417.306 169.741 417.055 169.489C416.803 169.238 416.462 169.096 416.107 169.096ZM416.107 171.063C415.983 171.063 415.862 171.026 415.759 170.957C415.656 170.889 415.576 170.791 415.529 170.676C415.481 170.562 415.469 170.436 415.493 170.315C415.517 170.194 415.577 170.082 415.664 169.995C415.752 169.907 415.863 169.847 415.985 169.823C416.106 169.799 416.232 169.812 416.346 169.859C416.461 169.906 416.558 169.986 416.627 170.089C416.696 170.192 416.733 170.313 416.733 170.437C416.733 170.603 416.667 170.762 416.549 170.879C416.432 170.997 416.273 171.063 416.107 171.063Z" fill="white"/>
<path d="M467.772 152.764H435.859V156.378H467.772V152.764Z" fill="white"/>
<path d="M491.383 158.587H435.859V162.201H491.383V158.587Z" fill="white"/>
<path d="M466.155 166.833H438.353C437.218 166.833 436.297 167.753 436.297 168.889V174.87C436.297 176.006 437.218 176.926 438.353 176.926H466.155C467.291 176.926 468.212 176.006 468.212 174.87V168.889C468.212 167.753 467.291 166.833 466.155 166.833Z" fill="#E63114"/>
<path d="M467.772 201.724H435.859V205.338H467.772V201.724Z" fill="white"/>
<path d="M491.383 207.547H435.859V211.161H491.383V207.547Z" fill="white"/>
<path d="M466.155 215.793H438.353C437.218 215.793 436.297 216.714 436.297 217.849V223.83C436.297 224.966 437.218 225.887 438.353 225.887H466.155C467.291 225.887 468.212 224.966 468.212 223.83V217.849C468.212 216.714 467.291 215.793 466.155 215.793Z" fill="#E63114"/>
<path d="M467.772 250.683H435.859V254.297H467.772V250.683Z" fill="white"/>
<path d="M491.383 256.507H435.859V260.121H491.383V256.507Z" fill="white"/>
<path d="M466.155 264.753H438.353C437.218 264.753 436.297 265.674 436.297 266.81V272.79C436.297 273.926 437.218 274.847 438.353 274.847H466.155C467.291 274.847 468.212 273.926 468.212 272.79V266.81C468.212 265.674 467.291 264.753 466.155 264.753Z" fill="#E63114"/>
<path d="M420.819 256.537L412.386 256.583C412.184 256.584 411.985 256.625 411.799 256.703C411.613 256.781 411.444 256.895 411.302 257.039C411.161 257.182 411.049 257.352 410.973 257.539C410.897 257.726 410.858 257.926 410.859 258.127L410.902 265.893C410.903 266.095 410.944 266.295 411.022 266.48C411.1 266.666 411.214 266.835 411.358 266.977C411.501 267.118 411.671 267.231 411.858 267.307C412.045 267.383 412.244 267.421 412.446 267.42H413.031C413.015 267.369 413.002 267.318 412.992 267.266C412.933 266.991 412.945 266.706 413.025 266.437H412.44C412.293 266.438 412.152 266.38 412.048 266.277C411.943 266.173 411.884 266.033 411.883 265.886L411.84 258.119C411.839 257.972 411.897 257.831 412.001 257.727C412.104 257.622 412.245 257.563 412.392 257.562L420.824 257.515C420.972 257.515 421.113 257.572 421.217 257.676C421.322 257.779 421.381 257.92 421.382 258.067L421.425 265.833C421.425 265.98 421.368 266.121 421.264 266.226C421.161 266.33 421.02 266.39 420.873 266.391L416.279 266.416C416.294 266.467 416.308 266.517 416.32 266.57C416.377 266.845 416.365 267.129 416.285 267.398L420.879 267.373C421.287 267.37 421.676 267.206 421.963 266.916C422.249 266.626 422.409 266.235 422.407 265.827L422.365 258.061C422.361 257.654 422.196 257.265 421.906 256.979C421.617 256.694 421.226 256.534 420.819 256.537Z" fill="white"/>
<path d="M427.647 262.295L425.224 259.613C425.077 259.448 424.896 259.317 424.695 259.228C424.493 259.139 424.275 259.093 424.054 259.094L421.758 259.108V260.082L424.054 260.071C424.137 260.071 424.218 260.088 424.293 260.122C424.369 260.155 424.436 260.204 424.491 260.266L426.914 262.95C427.011 263.056 427.065 263.196 427.064 263.34L427.078 265.784C427.078 265.939 427.016 266.088 426.906 266.198C426.797 266.308 426.648 266.369 426.493 266.369H426.027C426.045 266.576 426.048 266.759 426.048 266.759L426.173 267.361H426.499C426.705 267.361 426.909 267.321 427.099 267.241C427.289 267.162 427.462 267.046 427.607 266.899C427.752 266.753 427.867 266.579 427.944 266.388C428.021 266.197 428.06 265.992 428.058 265.786L428.045 263.342C428.045 262.956 427.903 262.583 427.647 262.295Z" fill="white"/>
<path d="M423.082 266.387L416.172 266.41L416.178 267.391L423.172 267.367L423.082 266.387Z" fill="white"/>
<path d="M424.586 268.954C424.173 268.956 423.769 268.835 423.426 268.608C423.082 268.38 422.813 268.055 422.654 267.675C422.495 267.294 422.452 266.875 422.531 266.47C422.61 266.065 422.808 265.693 423.098 265.401C423.389 265.108 423.76 264.909 424.165 264.827C424.569 264.746 424.988 264.786 425.37 264.943C425.751 265.101 426.077 265.367 426.307 265.71C426.537 266.053 426.66 266.456 426.66 266.868C426.66 267.419 426.442 267.948 426.053 268.339C425.664 268.73 425.137 268.951 424.586 268.954ZM424.568 265.769C424.35 265.771 424.138 265.838 423.959 265.962C423.779 266.085 423.64 266.258 423.558 266.46C423.477 266.662 423.457 266.884 423.502 267.097C423.546 267.31 423.653 267.506 423.808 267.658C423.963 267.811 424.16 267.915 424.374 267.956C424.588 267.997 424.809 267.973 425.01 267.889C425.211 267.804 425.382 267.662 425.502 267.481C425.622 267.299 425.686 267.086 425.685 266.868C425.685 266.722 425.656 266.578 425.599 266.444C425.543 266.309 425.46 266.187 425.356 266.085C425.253 265.983 425.129 265.902 424.994 265.848C424.859 265.794 424.714 265.767 424.568 265.769Z" fill="white"/>
<path d="M414.662 269.012C414.249 269.015 413.845 268.895 413.5 268.668C413.156 268.441 412.886 268.117 412.726 267.737C412.566 267.356 412.522 266.937 412.6 266.532C412.678 266.126 412.875 265.754 413.165 265.46C413.455 265.167 413.826 264.966 414.23 264.883C414.635 264.8 415.055 264.84 415.437 264.996C415.819 265.152 416.146 265.417 416.377 265.759C416.608 266.101 416.732 266.504 416.734 266.917C416.737 267.469 416.52 268 416.131 268.393C415.743 268.786 415.214 269.009 414.662 269.012ZM414.644 265.825C414.426 265.826 414.213 265.892 414.032 266.015C413.851 266.137 413.711 266.31 413.629 266.512C413.546 266.714 413.526 266.936 413.569 267.15C413.613 267.364 413.72 267.56 413.875 267.714C414.03 267.867 414.228 267.971 414.442 268.012C414.656 268.053 414.878 268.03 415.079 267.945C415.28 267.86 415.452 267.718 415.572 267.535C415.692 267.353 415.755 267.139 415.754 266.921C415.752 266.628 415.634 266.349 415.426 266.143C415.218 265.937 414.937 265.822 414.644 265.823V265.825Z" fill="white"/>
<path d="M411.412 258.911H409.696C409.632 258.911 409.568 258.899 409.508 258.875C409.449 258.851 409.394 258.815 409.348 258.77C409.303 258.724 409.266 258.67 409.241 258.611C409.216 258.552 409.203 258.488 409.203 258.424C409.203 258.359 409.215 258.295 409.239 258.236C409.263 258.176 409.299 258.122 409.344 258.076C409.39 258.03 409.444 257.993 409.503 257.969C409.562 257.944 409.626 257.931 409.69 257.93H411.406L411.412 258.911Z" fill="white"/>
<path d="M411.18 262.322L407.683 262.342C407.552 262.342 407.427 262.29 407.335 262.199C407.242 262.107 407.189 261.983 407.188 261.852C407.187 261.722 407.239 261.597 407.331 261.505C407.422 261.413 407.547 261.36 407.677 261.359L411.174 261.34L411.18 262.322Z" fill="white"/>
<path d="M411.398 266.804L409.493 266.816C409.363 266.816 409.238 266.764 409.146 266.672C409.053 266.581 409.001 266.456 409 266.326C409 266.262 409.012 266.198 409.036 266.138C409.06 266.079 409.096 266.024 409.141 265.978C409.187 265.933 409.24 265.896 409.3 265.871C409.359 265.846 409.423 265.833 409.487 265.833H411.392L411.398 266.804Z" fill="white"/>
<path d="M411.164 210.627C411.174 208.705 412.422 207.611 414.065 207.619C415.708 207.627 416.942 208.736 416.932 210.66C416.923 212.584 415.675 213.676 414.032 213.668C412.388 213.66 411.152 212.565 411.164 210.627ZM420.437 207.81L423.057 207.826L415.583 218.639L412.964 218.623L420.437 207.81ZM414.73 210.647C414.73 209.609 414.396 209.296 414.055 209.294C413.714 209.292 413.371 209.602 413.365 210.639C413.359 211.676 413.698 211.992 414.039 212.003C414.381 212.015 414.724 211.686 414.73 210.647ZM419.088 215.789C419.1 213.867 420.348 212.773 421.991 212.781C423.634 212.789 424.868 213.9 424.857 215.822C424.845 217.744 423.599 218.838 421.956 218.83C420.313 218.822 419.079 217.729 419.088 215.795V215.789ZM422.656 215.81C422.656 214.771 422.322 214.459 421.981 214.458C421.64 214.456 421.297 214.764 421.291 215.803C421.285 216.842 421.624 217.154 421.966 217.155C422.307 217.157 422.65 216.847 422.656 215.81Z" fill="white"/>
<path d="M444.719 174.373V169.349H446.473C447.081 169.349 447.545 169.466 447.859 169.7C448.017 169.819 448.142 169.974 448.225 170.153C448.308 170.332 448.345 170.529 448.333 170.725C448.336 170.957 448.268 171.184 448.138 171.377C448.01 171.566 447.826 171.71 447.612 171.788C447.854 171.843 448.069 171.981 448.22 172.178C448.372 172.386 448.45 172.639 448.442 172.897C448.456 173.103 448.421 173.309 448.341 173.5C448.261 173.69 448.137 173.859 447.98 173.993C447.672 174.242 447.231 174.369 446.662 174.382L444.719 174.373ZM445.754 171.449H446.52C447.04 171.44 447.3 171.231 447.3 170.823C447.308 170.731 447.295 170.639 447.261 170.554C447.227 170.469 447.173 170.393 447.105 170.332C446.917 170.217 446.698 170.165 446.479 170.182H445.764L445.754 171.449ZM445.754 172.18V173.544H446.641C446.846 173.557 447.049 173.494 447.212 173.369C447.279 173.308 447.331 173.234 447.365 173.15C447.398 173.067 447.413 172.977 447.407 172.887C447.407 172.427 447.169 172.194 446.693 172.187L445.754 172.18Z" fill="white"/>
<path d="M454.445 169.349V172.663C454.457 172.905 454.418 173.147 454.329 173.372C454.24 173.597 454.104 173.801 453.93 173.969C453.54 174.305 453.035 174.477 452.521 174.449C452.013 174.476 451.514 174.309 451.123 173.983C450.949 173.82 450.811 173.621 450.72 173.4C450.629 173.179 450.586 172.941 450.595 172.702V169.349H451.63V172.663C451.618 172.793 451.633 172.923 451.674 173.047C451.714 173.171 451.78 173.285 451.866 173.382C452.046 173.541 452.281 173.622 452.521 173.609C453.106 173.609 453.398 173.302 453.406 172.69V169.349H454.445Z" fill="white"/>
<path d="M458.431 171.612L459.478 169.349H460.609L458.96 172.552V174.373H457.907V172.552L456.258 169.349H457.394L458.431 171.612Z" fill="white"/>
<path d="M439.82 222.573V218.914H440.949C441.251 218.909 441.549 218.985 441.813 219.132C442.067 219.277 442.274 219.492 442.409 219.752C442.554 220.034 442.627 220.347 442.621 220.664V220.834C442.628 221.149 442.556 221.461 442.413 221.742C442.278 222.001 442.072 222.215 441.818 222.358C441.555 222.507 441.257 222.584 440.955 222.581L439.82 222.573ZM440.575 219.518V221.966H440.941C441.069 221.974 441.196 221.952 441.314 221.901C441.431 221.851 441.535 221.774 441.618 221.676C441.789 221.435 441.873 221.143 441.857 220.848V220.653C441.878 220.352 441.796 220.053 441.625 219.805C441.543 219.707 441.439 219.63 441.322 219.58C441.204 219.53 441.076 219.508 440.949 219.516L440.575 219.518Z" fill="white"/>
<path d="M443.965 222.573H443.211V218.914H443.965V222.573Z" fill="white"/>
<path d="M446.569 221.612C446.572 221.549 446.56 221.486 446.534 221.428C446.508 221.371 446.468 221.321 446.418 221.282C446.25 221.175 446.067 221.093 445.875 221.041C445.66 220.976 445.452 220.892 445.253 220.791C444.836 220.565 444.629 220.263 444.629 219.881C444.626 219.691 444.684 219.505 444.795 219.35C444.918 219.187 445.085 219.062 445.276 218.988C445.5 218.898 445.739 218.853 445.98 218.857C446.221 218.853 446.459 218.901 446.68 218.998C446.874 219.084 447.04 219.224 447.157 219.401C447.27 219.575 447.329 219.778 447.327 219.986H446.572C446.576 219.913 446.564 219.84 446.536 219.773C446.509 219.706 446.466 219.645 446.413 219.596C446.287 219.496 446.129 219.446 445.968 219.456C445.816 219.446 445.664 219.487 445.537 219.573C445.488 219.608 445.449 219.654 445.422 219.708C445.395 219.762 445.382 219.822 445.383 219.883C445.385 219.944 445.402 220.003 445.434 220.055C445.465 220.108 445.51 220.151 445.563 220.181C445.728 220.28 445.907 220.357 446.093 220.407C446.439 220.493 446.761 220.658 447.032 220.888C447.129 220.981 447.204 221.092 447.255 221.215C447.306 221.338 447.33 221.471 447.327 221.604C447.333 221.748 447.303 221.892 447.24 222.022C447.177 222.153 447.083 222.265 446.966 222.35C446.68 222.547 446.337 222.642 445.992 222.621C445.727 222.624 445.464 222.571 445.221 222.465C445.008 222.377 444.825 222.231 444.691 222.043C444.568 221.857 444.504 221.639 444.508 221.417H445.266C445.266 221.822 445.508 222.025 445.992 222.025C446.14 222.033 446.287 221.995 446.413 221.914C446.462 221.881 446.502 221.836 446.53 221.783C446.557 221.73 446.57 221.671 446.569 221.612Z" fill="white"/>
<path d="M450.718 221.35C450.712 221.527 450.671 221.701 450.596 221.861C450.521 222.022 450.414 222.165 450.281 222.282C449.989 222.52 449.619 222.642 449.242 222.623C449.034 222.634 448.825 222.596 448.633 222.514C448.441 222.431 448.27 222.306 448.133 222.148C447.846 221.776 447.703 221.314 447.73 220.846V220.621C447.723 220.301 447.786 219.983 447.915 219.69C448.027 219.436 448.213 219.221 448.447 219.072C448.731 218.912 449.055 218.839 449.379 218.861C449.704 218.883 450.015 219 450.274 219.196C450.543 219.443 450.704 219.785 450.722 220.15H449.968C449.969 219.96 449.899 219.776 449.773 219.635C449.627 219.518 449.442 219.461 449.256 219.475C449.147 219.469 449.037 219.49 448.938 219.537C448.839 219.585 448.754 219.657 448.691 219.746C448.546 220.002 448.479 220.293 448.496 220.586V220.863C448.474 221.164 448.537 221.465 448.677 221.733C448.739 221.824 448.825 221.897 448.924 221.945C449.024 221.993 449.134 222.014 449.244 222.005C449.432 222.02 449.619 221.963 449.767 221.846C449.893 221.712 449.963 221.534 449.962 221.35H450.718Z" fill="white"/>
<path d="M454.233 220.822C454.238 221.149 454.172 221.473 454.038 221.772C453.921 222.031 453.731 222.25 453.49 222.401C453.243 222.546 452.962 222.623 452.675 222.623C452.389 222.623 452.107 222.546 451.86 222.401C451.618 222.252 451.424 222.034 451.305 221.775C451.171 221.483 451.104 221.164 451.11 220.842V220.668C451.103 220.34 451.17 220.014 451.305 219.715C451.423 219.455 451.615 219.235 451.856 219.083C452.104 218.939 452.385 218.863 452.671 218.863C452.957 218.863 453.239 218.939 453.486 219.083C453.728 219.235 453.92 219.455 454.038 219.715C454.173 220.013 454.24 220.337 454.233 220.664V220.822ZM453.467 220.656C453.486 220.35 453.414 220.045 453.26 219.779C453.192 219.688 453.104 219.614 453.002 219.563C452.901 219.512 452.789 219.486 452.675 219.486C452.561 219.486 452.449 219.512 452.348 219.563C452.246 219.614 452.158 219.688 452.09 219.779C451.936 220.041 451.864 220.343 451.882 220.647V220.824C451.864 221.129 451.936 221.431 452.088 221.695C452.152 221.795 452.24 221.876 452.344 221.93C452.448 221.984 452.565 222.01 452.683 222.005C452.798 222.011 452.912 221.986 453.015 221.934C453.118 221.882 453.205 221.804 453.268 221.707C453.42 221.444 453.492 221.142 453.474 220.838L453.467 220.656Z" fill="white"/>
<path d="M457.55 218.914V221.329C457.559 221.505 457.53 221.682 457.465 221.846C457.401 222.01 457.301 222.158 457.174 222.28C456.879 222.505 456.52 222.626 456.149 222.626C455.779 222.626 455.419 222.505 455.125 222.28C454.997 222.162 454.895 222.017 454.828 221.856C454.761 221.695 454.729 221.521 454.735 221.347V218.914H455.49V221.335C455.481 221.43 455.492 221.525 455.522 221.615C455.552 221.705 455.6 221.788 455.663 221.859C455.794 221.974 455.965 222.033 456.139 222.023C456.564 222.023 456.779 221.8 456.786 221.354V218.914H457.55Z" fill="white"/>
<path d="M461.152 222.573H460.398L458.926 220.161V222.573H458.172V218.914H458.926L460.4 221.331V218.914H461.152V222.573Z" fill="white"/>
<path d="M464.502 219.518H463.379V222.573H462.623V219.518H461.516V218.914H464.502V219.518Z" fill="white"/>
<path d="M446.997 270.283H444.777V272.578H443.625V266.966H447.28V267.901H444.781V269.352H447.001L446.997 270.283Z" fill="white"/>
<path d="M450.021 270.523H449.101V272.578H447.945V266.966H450.029C450.692 266.966 451.199 267.112 451.563 267.408C451.744 267.561 451.887 267.754 451.981 267.971C452.075 268.189 452.116 268.425 452.103 268.662C452.116 268.998 452.03 269.331 451.854 269.619C451.668 269.892 451.407 270.104 451.101 270.229L452.316 272.523V272.578H451.074L450.021 270.523ZM449.101 269.586H450.033C450.278 269.601 450.519 269.522 450.708 269.365C450.789 269.286 450.852 269.191 450.894 269.085C450.935 268.98 450.953 268.866 450.947 268.753C450.953 268.639 450.937 268.525 450.898 268.418C450.859 268.311 450.799 268.213 450.721 268.129C450.627 268.047 450.517 267.984 450.398 267.945C450.28 267.906 450.154 267.891 450.029 267.901H449.101V269.586Z" fill="white"/>
<path d="M456.355 270.145H454.134V271.648H456.741V272.578H452.977V266.966H456.731V267.901H454.133V269.239H456.353L456.355 270.145Z" fill="white"/>
<path d="M460.798 270.145H458.578V271.648H461.182V272.578H457.422V266.966H461.167V267.901H458.57V269.239H460.79L460.798 270.145Z" fill="white"/>
<defs>
<radialGradient id="paint0_radial_734_31630" cx="0" cy="0" r="1" gradientUnits="userSpaceOnUse" gradientTransform="translate(251.812 433.363) rotate(0.07) scale(193.41 9.67051)">
<stop stop-color="#C2D9D9"/>
<stop offset="1" stop-color="white"/>
</radialGradient>
<linearGradient id="paint1_linear_734_31630" x1="247.338" y1="372.062" x2="342.874" y2="539.118" gradientUnits="userSpaceOnUse">
<stop stop-color="white"/>
<stop offset="1" stop-color="#E2EFF0"/>
</linearGradient>
<linearGradient id="paint2_linear_734_31630" x1="206.544" y1="64.6117" x2="361.526" y2="-40.4883" gradientUnits="userSpaceOnUse">
<stop stop-color="white"/>
<stop offset="1" stop-color="#E2EFF0"/>
</linearGradient>
<linearGradient id="paint3_linear_734_31630" x1="264.191" y1="163.404" x2="264.191" y2="29.1996" gradientUnits="userSpaceOnUse">
<stop stop-color="white"/>
<stop offset="1" stop-color="#004B57"/>
</linearGradient>
<linearGradient id="paint4_linear_734_31630" x1="173.352" y1="131.789" x2="173.352" y2="65.0523" gradientUnits="userSpaceOnUse">
<stop stop-color="white"/>
<stop offset="1" stop-color="#004B57"/>
</linearGradient>
<linearGradient id="paint5_linear_734_31630" x1="354.891" y1="131.789" x2="354.891" y2="65.0523" gradientUnits="userSpaceOnUse">
<stop stop-color="white"/>
<stop offset="1" stop-color="#004B57"/>
</linearGradient>
<linearGradient id="paint6_linear_734_31630" x1="267.386" y1="406.435" x2="267.386" y2="424.387" gradientUnits="userSpaceOnUse">
<stop stop-color="white"/>
<stop offset="1" stop-color="#E6E6E6"/>
</linearGradient>
<linearGradient id="paint7_linear_734_31630" x1="264.17" y1="282.048" x2="264.17" y2="235.396" gradientUnits="userSpaceOnUse">
<stop stop-color="white"/>
<stop offset="0.13" stop-color="#ECF5F7"/>
<stop offset="0.54" stop-color="#B2D8DE"/>
<stop offset="0.84" stop-color="#8EC6CF"/>
<stop offset="1" stop-color="#80BFC9"/>
</linearGradient>
<linearGradient id="paint8_linear_734_31630" x1="264.266" y1="260.823" x2="264.266" y2="253.301" gradientUnits="userSpaceOnUse">
<stop stop-color="#929497"/>
<stop offset="0.01" stop-color="#95979A"/>
<stop offset="0.1" stop-color="#AAADAF"/>
<stop offset="0.2" stop-color="#BBBEBF"/>
<stop offset="0.33" stop-color="#C6C9CB"/>
<stop offset="0.5" stop-color="#CDD0D1"/>
<stop offset="1" stop-color="#CFD2D3"/>
</linearGradient>
<linearGradient id="paint9_linear_734_31630" x1="264.266" y1="252.971" x2="264.266" y2="245.297" gradientUnits="userSpaceOnUse">
<stop stop-color="white"/>
<stop offset="0.49" stop-color="#FDFDFD"/>
<stop offset="0.77" stop-color="#F5F5F5"/>
<stop offset="0.99" stop-color="#E7E8E9"/>
<stop offset="1" stop-color="#E6E7E8"/>
</linearGradient>
<linearGradient id="paint10_linear_734_31630" x1="224.953" y1="244.4" x2="212.343" y2="221.703" gradientUnits="userSpaceOnUse">
<stop stop-color="white"/>
<stop offset="1" stop-color="#DADADA"/>
</linearGradient>
<linearGradient id="paint11_linear_734_31630" x1="276.578" y1="244.355" x2="268.544" y2="227.356" gradientUnits="userSpaceOnUse">
<stop stop-color="white"/>
<stop offset="1" stop-color="#DADADA"/>
</linearGradient>
<linearGradient id="paint12_linear_734_31630" x1="326.06" y1="242.768" x2="318.029" y2="225.768" gradientUnits="userSpaceOnUse">
<stop stop-color="white"/>
<stop offset="1" stop-color="#DADADA"/>
</linearGradient>
<linearGradient id="paint13_linear_734_31630" x1="264.17" y1="348.229" x2="264.17" y2="317.871" gradientUnits="userSpaceOnUse">
<stop stop-color="white"/>
<stop offset="0.13" stop-color="#ECF5F7"/>
<stop offset="0.54" stop-color="#B2D8DE"/>
<stop offset="0.84" stop-color="#8EC6CF"/>
<stop offset="1" stop-color="#80BFC9"/>
</linearGradient>
<linearGradient id="paint14_linear_734_31630" x1="264.266" y1="329.182" x2="264.266" y2="321.661" gradientUnits="userSpaceOnUse">
<stop stop-color="#929497"/>
<stop offset="0.01" stop-color="#95979A"/>
<stop offset="0.1" stop-color="#AAADAF"/>
<stop offset="0.2" stop-color="#BBBEBF"/>
<stop offset="0.33" stop-color="#C6C9CB"/>
<stop offset="0.5" stop-color="#CDD0D1"/>
<stop offset="1" stop-color="#CFD2D3"/>
</linearGradient>
<linearGradient id="paint15_linear_734_31630" x1="264.266" y1="321.332" x2="264.266" y2="313.655" gradientUnits="userSpaceOnUse">
<stop stop-color="white"/>
<stop offset="0.49" stop-color="#FDFDFD"/>
<stop offset="0.77" stop-color="#F5F5F5"/>
<stop offset="0.99" stop-color="#E7E8E9"/>
<stop offset="1" stop-color="#E6E7E8"/>
</linearGradient>
<linearGradient id="paint16_linear_734_31630" x1="226.41" y1="313.107" x2="215.951" y2="294.282" gradientUnits="userSpaceOnUse">
<stop stop-color="white"/>
<stop offset="1" stop-color="#DADADA"/>
</linearGradient>
<linearGradient id="paint17_linear_734_31630" x1="276.66" y1="311.528" x2="263.67" y2="288.145" gradientUnits="userSpaceOnUse">
<stop stop-color="white"/>
<stop offset="1" stop-color="#DADADA"/>
</linearGradient>
<linearGradient id="paint18_linear_734_31630" x1="328.335" y1="312.955" x2="318.13" y2="294.588" gradientUnits="userSpaceOnUse">
<stop stop-color="white"/>
<stop offset="1" stop-color="#DADADA"/>
</linearGradient>
<linearGradient id="paint19_linear_734_31630" x1="477.031" y1="348.736" x2="539.171" y2="447.767" gradientUnits="userSpaceOnUse">
<stop stop-color="#E3E3E3"/>
<stop offset="1" stop-color="#C5D0D1"/>
</linearGradient>
<linearGradient id="paint20_linear_734_31630" x1="495.458" y1="332.751" x2="522.67" y2="360.748" gradientUnits="userSpaceOnUse">
<stop stop-color="#E3E3E3"/>
<stop offset="1" stop-color="#C5D0D1"/>
</linearGradient>
<linearGradient id="paint21_linear_734_31630" x1="392.63" y1="337.884" x2="487.213" y2="444.241" gradientUnits="userSpaceOnUse">
<stop stop-color="white"/>
<stop offset="1" stop-color="#E2EFF0"/>
</linearGradient>
<linearGradient id="paint22_linear_734_31630" x1="416.344" y1="305.688" x2="489.205" y2="428.652" gradientUnits="userSpaceOnUse">
<stop stop-color="white"/>
<stop offset="1" stop-color="#E2EFF0"/>
</linearGradient>
<linearGradient id="paint23_linear_734_31630" x1="111.353" y1="263.778" x2="32.5224" y2="494.006" gradientUnits="userSpaceOnUse">
<stop stop-color="white"/>
<stop offset="1" stop-color="#D8E7E8"/>
</linearGradient>
</defs>
</svg>
