<svg width="33" height="34" viewBox="0 0 33 34" fill="none" xmlns="http://www.w3.org/2000/svg">
<g clip-path="url(#clip0_734_31827)">
<path d="M31.9688 0.53125H19.5938C19.3086 0.53125 19.0781 0.76925 19.0781 1.0625V18.0625C19.0781 18.3557 19.3086 18.5938 19.5938 18.5938H31.9688C32.2539 18.5938 32.4844 18.3557 32.4844 18.0625V1.0625C32.4844 0.76925 32.2539 0.53125 31.9688 0.53125ZM31.4531 17.5312H20.1094V1.59375H31.4531V17.5312Z" fill="white"/>
<path d="M30.9375 20.1875H17.5312C16.6784 20.1875 15.9844 20.9026 15.9844 21.7812V31.875C15.9844 32.7537 16.6784 33.4688 17.5312 33.4688H30.9375C31.7903 33.4688 32.4844 32.7537 32.4844 31.875V21.7812C32.4844 20.9026 31.7903 20.1875 30.9375 20.1875ZM31.4531 31.875C31.4531 32.1677 31.2221 32.4062 30.9375 32.4062H17.5312C17.2466 32.4062 17.0156 32.1677 17.0156 31.875V21.7812C17.0156 21.4885 17.2466 21.25 17.5312 21.25H30.9375C31.2221 21.25 31.4531 21.4885 31.4531 21.7812V31.875Z" fill="white"/>
<path d="M29.3868 29.75H28.3556C28.3556 29.4568 28.1251 29.2188 27.8399 29.2188C27.5548 29.2188 27.3243 29.4568 27.3243 29.75H19.0743C18.3916 29.75 18.3922 30.8125 19.0743 30.8125H27.3243C27.3243 31.1057 27.5548 31.3438 27.8399 31.3438C28.1251 31.3438 28.3556 31.1057 28.3556 30.8125H29.3868C30.0695 30.8125 30.069 29.75 29.3868 29.75Z" fill="white"/>
<path d="M17.0156 16.4688V3.71875C17.0156 2.84006 16.3216 2.125 15.4688 2.125H2.0625C1.20966 2.125 0.515625 2.84006 0.515625 3.71875V16.4688C0.515625 17.3474 1.20966 18.0625 2.0625 18.0625H15.4688C16.3216 18.0625 17.0156 17.3474 17.0156 16.4688ZM15.9844 16.4688C15.9844 16.7615 15.7534 17 15.4688 17H2.0625C1.77788 17 1.54688 16.7615 1.54688 16.4688V3.71875C1.54688 3.42603 1.77788 3.1875 2.0625 3.1875H15.4688C15.7534 3.1875 15.9844 3.42603 15.9844 3.71875V16.4688Z" fill="white"/>
<path d="M10.8281 9.03125C11.9656 9.03125 12.8906 8.07819 12.8906 6.90625C12.8906 5.73431 11.9656 4.78125 10.8281 4.78125C9.69066 4.78125 8.76562 5.73431 8.76562 6.90625C8.76562 8.07819 9.69066 9.03125 10.8281 9.03125ZM10.8281 5.84375C11.3969 5.84375 11.8594 6.32028 11.8594 6.90625C11.8594 7.49222 11.3969 7.96875 10.8281 7.96875C10.2594 7.96875 9.79688 7.49222 9.79688 6.90625C9.79688 6.32028 10.2594 5.84375 10.8281 5.84375Z" fill="white"/>
<path d="M12.7391 10.7807C12.5374 10.5729 12.2116 10.5729 12.01 10.7807L10.312 12.5301L7.06718 9.18692C6.86557 8.9792 6.53969 8.9792 6.33808 9.18692L2.72871 12.9057C2.24608 13.4029 2.97569 14.1536 3.4578 13.6569L6.70263 10.3137L9.94746 13.6569C10.1491 13.8646 10.4749 13.8646 10.6766 13.6569L12.3745 11.9074L14.0725 13.6569C14.5479 14.1467 15.2904 13.4088 14.8016 12.9057L12.7391 10.7807Z" fill="#E63114"/>
<path d="M22.1681 4.25H27.3243C28.007 4.25 28.0065 3.1875 27.3243 3.1875H22.1681C21.4854 3.1875 21.4859 4.25 22.1681 4.25Z" fill="#E63114"/>
<path d="M22.1681 9.03125H29.3868C30.0695 9.03125 30.069 7.96875 29.3868 7.96875H22.1681C21.4854 7.96875 21.4859 9.03125 22.1681 9.03125Z" fill="#E63114"/>
<path d="M22.1681 13.8125H29.3868C30.0695 13.8125 30.069 12.75 29.3868 12.75H22.1681C21.4854 12.75 21.4859 13.8125 22.1681 13.8125Z" fill="white"/>
<path d="M22.1681 15.9375H24.7462C25.4289 15.9375 25.4284 14.875 24.7462 14.875H22.1681C21.4854 14.875 21.4859 15.9375 22.1681 15.9375Z" fill="#E63114"/>
<path d="M22.1681 6.90625H23.1993C23.882 6.90625 23.8815 5.84375 23.1993 5.84375H22.1681C21.4854 5.84375 21.4859 6.90625 22.1681 6.90625Z" fill="white"/>
<path d="M25.7774 6.90625H29.3868C30.0695 6.90625 30.069 5.84375 29.3868 5.84375H25.7774C25.0948 5.84375 25.0953 6.90625 25.7774 6.90625Z" fill="white"/>
<path d="M22.1681 11.6875H25.7774C26.4601 11.6875 26.4596 10.625 25.7774 10.625H22.1681C21.4854 10.625 21.4859 11.6875 22.1681 11.6875Z" fill="white"/>
<path d="M29.3868 10.625H28.3556C27.6729 10.625 27.6734 11.6875 28.3556 11.6875H29.3868C30.0695 11.6875 30.069 10.625 29.3868 10.625Z" fill="white"/>
<path d="M7.73438 19.6562C3.75375 19.6562 0.515625 22.278 0.515625 25.5C0.515625 26.8117 1.06322 28.0893 2.0625 29.1199V32.9375C2.0625 33.4135 2.62092 33.6446 2.94267 33.3131L5.21091 30.9761C6.00703 31.2205 6.85472 31.3438 7.73438 31.3438C11.715 31.3438 14.9531 28.722 14.9531 25.5C14.9531 22.278 11.715 19.6562 7.73438 19.6562ZM7.73438 30.2812C6.85317 30.2812 6.0127 30.1426 5.23514 29.869C5.05003 29.8031 4.84275 29.852 4.70405 29.996L3.09375 31.6551V28.8947C3.09375 28.747 3.03445 28.6062 2.92978 28.5058C2.02486 27.6388 1.54688 26.5992 1.54688 25.5C1.54688 22.8639 4.32248 20.7188 7.73438 20.7188C11.1463 20.7188 13.9219 22.8639 13.9219 25.5C13.9219 28.1361 11.1463 30.2812 7.73438 30.2812Z" fill="white"/>
<path d="M7.73438 26.2969C8.16153 26.2969 8.50781 25.9401 8.50781 25.5C8.50781 25.0599 8.16153 24.7031 7.73438 24.7031C7.30722 24.7031 6.96094 25.0599 6.96094 25.5C6.96094 25.9401 7.30722 26.2969 7.73438 26.2969Z" fill="#E63114"/>
<path d="M11.3438 26.2969C11.7709 26.2969 12.1172 25.9401 12.1172 25.5C12.1172 25.0599 11.7709 24.7031 11.3438 24.7031C10.9166 24.7031 10.5703 25.0599 10.5703 25.5C10.5703 25.9401 10.9166 26.2969 11.3438 26.2969Z" fill="#E63114"/>
<path d="M4.125 26.2969C4.55216 26.2969 4.89844 25.9401 4.89844 25.5C4.89844 25.0599 4.55216 24.7031 4.125 24.7031C3.69784 24.7031 3.35156 25.0599 3.35156 25.5C3.35156 25.9401 3.69784 26.2969 4.125 26.2969Z" fill="#E63114"/>
<path d="M23.3382 28.5356L26.7656 26.5009C27.5122 26.0583 27.5122 24.9443 26.7656 24.5012L23.3387 22.4676C22.5942 22.0235 21.6562 22.5808 21.6562 23.4669V27.5352C21.6562 28.433 22.6024 28.9706 23.3382 28.5356ZM22.6875 23.4669C22.6875 23.3984 22.7628 23.3516 22.8236 23.3883L26.251 25.4224C26.3098 25.4575 26.3098 25.5451 26.251 25.5802L22.8241 27.6144C22.7633 27.6494 22.6875 27.6064 22.6875 27.5357V23.4669Z" fill="#E63114"/>
</g>
<defs>
<clipPath id="clip0_734_31827">
<rect width="33" height="34" fill="white"/>
</clipPath>
</defs>
</svg>
