<svg width="34" height="34" viewBox="0 0 34 34" fill="none" xmlns="http://www.w3.org/2000/svg">
<path d="M27.4758 21.0046C26.7863 21.0046 26.1498 21.1107 25.5133 21.3229V19.8907C26.521 17.9282 27.1045 15.7534 27.1045 13.5788C27.0514 6.04677 21.0046 0 13.5257 0C6.04684 0 0 6.04677 0 13.5257C0 20.6864 5.46333 26.521 12.518 27.0515V30.7114C12.518 32.3026 16.6022 32.78 18.9891 32.78C20.5273 32.78 22.0125 32.6209 23.1794 32.3557C24.3463 33.3635 25.8315 34 27.4758 34C31.0296 33.947 33.9469 31.0297 33.9469 27.4758C33.9469 23.8689 31.0296 21.0046 27.4758 21.0046ZM12.5179 18.5647V25.9906C6.25891 25.4602 1.32602 20.3682 1.0608 14.0562H2.70512C3.02335 14.0562 3.23555 13.844 3.23555 13.5257C3.23555 13.2075 3.02335 12.9953 2.70512 12.9953H1.0608C1.32602 6.52419 6.52412 1.32602 12.9952 1.06087V2.70519C12.9952 3.02342 13.2074 3.23562 13.5257 3.23562C13.8439 3.23562 14.0561 3.02342 14.0561 2.70519V1.06087C20.5272 1.32609 25.7254 6.52419 25.9905 12.9953H24.3462C24.028 12.9953 23.8158 13.2075 23.8158 13.5257C23.8158 13.844 24.028 14.0562 24.3462 14.0562H25.9905C25.9375 15.3823 25.6723 16.6553 25.1949 17.8752C24.2401 16.8143 21.0046 16.4961 18.989 16.4961C16.6022 16.4961 12.5179 16.9204 12.5179 18.5647ZM21.1107 28.5366C20.4212 28.5896 19.7847 28.6427 19.0421 28.6427C15.7534 28.6427 13.7909 28.0062 13.6318 27.6349V25.8315C15.0109 26.468 17.3978 26.6802 19.0421 26.6802C19.7316 26.6802 20.4212 26.6271 21.0576 26.5741C21.0046 26.8923 21.0046 27.1575 21.0046 27.4757C21.0046 27.8471 21.0046 28.1654 21.1107 28.5366ZM18.9891 25.6194C15.7004 25.6194 13.7379 24.9828 13.5788 24.6116V22.8081C14.9579 23.4447 17.3447 23.6568 18.9891 23.6568C19.9968 23.6568 21.2698 23.6038 22.4368 23.3916C21.9064 24.0281 21.5351 24.7176 21.2699 25.5133C20.5803 25.5663 19.7846 25.6194 18.9891 25.6194ZM18.9891 22.5959C15.7004 22.5959 13.7379 21.9594 13.5788 21.5881V19.7847C14.9579 20.4212 17.3447 20.6334 18.9891 20.6334C20.6334 20.6334 23.0203 20.4212 24.3994 19.7847V21.5881C24.2402 21.9064 22.2776 22.5959 18.9891 22.5959ZM13.6318 18.5647C13.95 18.1934 15.8595 17.5569 19.0421 17.5569C22.1715 17.5569 24.1341 18.1935 24.4524 18.5647C24.1342 18.936 22.2246 19.5725 19.0421 19.5725C15.8595 19.5195 13.9501 18.936 13.6318 18.5647ZM18.9891 31.6661C15.7004 31.6661 13.7379 31.0296 13.5788 30.6583V28.8549C14.9579 29.4914 17.3447 29.7036 18.9891 29.7036C19.7847 29.7036 20.5803 29.6506 21.3229 29.5975C21.5351 30.287 21.9064 30.8705 22.3307 31.4539C21.3759 31.613 20.209 31.6661 18.9891 31.6661ZM27.4758 32.8861C25.0359 32.8861 22.8612 31.2418 22.2246 28.8549C22.1185 28.3776 22.0655 27.9532 22.0655 27.4758C22.0655 26.9984 22.1185 26.5741 22.2246 26.0967C22.8612 23.7098 24.9828 22.0125 27.4758 22.0125C30.4461 22.0125 32.8861 24.4524 32.8861 27.4228C32.886 30.4461 30.4461 32.8861 27.4758 32.8861Z" fill="white"/>
<path d="M20.4759 7.37288C20.6881 7.16068 20.6881 6.84245 20.4759 6.63032C20.2637 6.41818 19.9455 6.41812 19.7333 6.63032L14.323 11.9875C14.0578 11.8814 13.7926 11.7753 13.5274 11.7753C12.9439 11.7753 12.4665 12.0406 12.1483 12.4649L7.4806 10.8206C7.21538 10.7145 6.89715 10.8736 6.79105 11.1388C6.68495 11.404 6.84407 11.7223 7.10928 11.8284L11.777 13.4727V13.5257C11.777 14.4805 12.5726 15.2761 13.5274 15.2761C14.4821 15.2761 15.2778 14.4805 15.2778 13.5257C15.2778 13.2605 15.2248 12.9422 15.0656 12.73L20.4759 7.37288ZM13.5274 14.2153C13.1561 14.2153 12.8379 13.8971 12.8379 13.5258C12.8379 13.1544 13.1561 12.8362 13.5274 12.8362C13.8988 12.8362 14.217 13.1544 14.217 13.5258C14.217 13.8971 13.8987 14.2153 13.5274 14.2153Z" fill="#E63114"/>
</svg>
