<svg width="55" height="52" viewBox="0 0 55 52" fill="none" xmlns="http://www.w3.org/2000/svg">
<rect x="0.5" y="0.5" width="54" height="51" rx="9.5" stroke="url(#paint0_linear_20_19)"/>
<path d="M32.4417 21.1456C32.2141 21.1456 32.0289 21.3308 32.0289 21.5583C32.0289 21.7859 32.2141 21.9711 32.4417 21.9711C32.6692 21.9711 32.8544 21.7859 32.8544 21.5583C32.8544 21.3308 32.6692 21.1456 32.4417 21.1456Z" fill="white" fill-opacity="0.7"/>
<path d="M27.5 22.8411C25.4825 22.8411 23.8411 24.4825 23.8411 26.5C23.8411 28.5175 25.4825 30.1589 27.5 30.1589C29.5175 30.1589 31.1589 28.5175 31.1589 26.5C31.1589 24.4825 29.5175 22.8411 27.5 22.8411Z" fill="white" fill-opacity="0.7"/>
<path d="M31.3397 18H23.6603C21.0906 18 19 20.0906 19 22.6603V30.3397C19 32.9094 21.0906 35 23.6603 35H31.3397C33.9094 35 36 32.9094 36 30.3397V22.6603C36 20.0906 33.9094 18 31.3397 18ZM27.5 31.1628C24.9289 31.1628 22.8373 29.0711 22.8373 26.5C22.8373 23.9289 24.9289 21.8373 27.5 21.8373C30.0711 21.8373 32.1628 23.9289 32.1628 26.5C32.1628 29.0711 30.0711 31.1628 27.5 31.1628ZM32.4417 22.975C31.6605 22.975 31.025 22.3395 31.025 21.5584C31.025 20.7772 31.6605 20.1417 32.4417 20.1417C33.2228 20.1417 33.8583 20.7772 33.8583 21.5583C33.8583 22.3395 33.2228 22.975 32.4417 22.975Z" fill="white" fill-opacity="0.7"/>
<defs>
<linearGradient id="paint0_linear_20_19" x1="27.5" y1="0" x2="27.5" y2="52" gradientUnits="userSpaceOnUse">
<stop stop-color="#5418A3"/>
<stop offset="1" stop-color="#5418A3" stop-opacity="0.76"/>
</linearGradient>
</defs>
</svg>
