<svg width="580" height="400" xmlns="http://www.w3.org/2000/svg">
 <!-- Created with Method Draw - http://github.com/duopixel/Method-Draw/ -->
 <g>
  <title>background</title>
  <rect fill="#fff" id="canvas_background" height="402" width="582" y="-1" x="-1"/>
  <g display="none" overflow="visible" y="0" x="0" height="100%" width="100%" id="canvasGrid">
   <rect fill="url(#gridpattern)" stroke-width="0" y="0" x="0" height="100%" width="100%"/>
  </g>
 </g>
 <g>
  <title>Layer 1</title>
  <path d="m14,192.453125c0,-2 1.915865,-6.068481 6,-11c5.880547,-7.100647 14.234398,-13.708618 23,-21c9.257507,-7.700546 18.702965,-15.536026 31,-22c16.630646,-8.741943 34.834679,-17.357643 54,-26c20.827652,-9.39196 41.748047,-16.953987 59,-21c16.806656,-3.941582 32.040253,-5.134224 48,-4c14.106552,1.002525 29.096161,5.7752 41,11c13.110535,5.754448 21.771729,11.3853 30,16c3.900574,2.187576 10,6 14,12c4,6 7.401611,11.377701 12,18c4.454651,6.415314 8.741821,12.327179 15,17c5.778076,4.314362 12.198853,8.624847 20,13c8.228271,4.6147 15,8 23,10c8,2 14.893982,4.48584 23,6c7.925171,1.480377 16.020111,2.567108 24,2c7.053284,-0.501266 12.88855,-3.194092 18,-6c5.880463,-3.228043 9,-7 12,-9l2,-2l1,-1l0,-1" id="svg_1" stroke-width="2.5" stroke="#000" fill="none"/>
 </g>
</svg>