<svg width="580" height="400" xmlns="http://www.w3.org/2000/svg">
 <!-- Created with Method Draw - http://github.com/duopixel/Method-Draw/ -->
 <g>
  <title>background</title>
  <rect fill="#fff" id="canvas_background" height="402" width="582" y="-1" x="-1"/>
  <g display="none" overflow="visible" y="0" x="0" height="100%" width="100%" id="canvasGrid">
   <rect fill="url(#gridpattern)" stroke-width="0" y="0" x="0" height="100%" width="100%"/>
  </g>
 </g>
 <g>
  <title>Layer 1</title>
  <path d="m2,229.453125c1,0 2.07612,0.38269 3,0c1.306563,-0.541199 2.705461,-2.346191 5,-4c1.813993,-1.307449 5.186007,-2.692551 7,-4c2.294538,-1.653809 3,-3 4,-4c2,-2 4,-3 5,-4c1,-1 1.85273,-2.173096 3,-3c1.813993,-1.307449 3.186008,-1.692551 5,-3c1.14727,-0.826904 3,-2 5,-3c2,-1 3.611046,-0.92807 6,-3c1.689247,-1.465073 4,-2 5,-3c2,-2 3.85273,-3.173096 5,-4c1.813992,-1.307449 4.053501,-2.540497 6,-3c2.17625,-0.513748 3.152245,-2.234634 5,-3c1.306564,-0.541199 3.097885,-2.824432 5,-4c2.551956,-1.577194 3.85273,-1.173096 5,-2c1.813995,-1.307449 4.053505,-1.540497 6,-2c2.176254,-0.513748 3.823746,-2.486252 6,-3c2.919746,-0.689255 4.823746,-1.486252 7,-2c0.973251,-0.229752 4,0 6,0c3,0 6,0 8,0c3,0 5.022476,-0.366547 8,0c4.092216,0.503769 7.907784,2.496231 12,3c2.977524,0.366547 4.902832,1.224197 7,2c3.867004,1.430496 6.823746,2.486252 9,3c1.946503,0.459503 4.805649,1.44841 9,3c3.867004,1.430496 6.796997,3.2565 8,4c2.689987,1.662506 5.19577,2.648865 9,5c4.25325,2.628662 7.702667,4.541367 11,6c3.770645,1.668015 6.6689,2.620209 10,4c4.710876,1.951309 10,2 15,3c5,1 10,1 16,1c4,0 9.024338,0.492691 14,0c5.074203,-0.502441 9.041321,-0.847229 13,-2c3.036163,-0.88414 5.186005,-2.692551 7,-4c1.147278,-0.826904 3.372009,-2.385101 7,-5c2.294525,-1.653809 5,-4 8,-7c2,-2 5,-4 7,-6c3,-3 6.918304,-5.112137 11,-8c2.943359,-2.082474 6.522217,-4.380737 9,-7c3.436066,-3.632263 8,-5 12,-7c4,-2 7.132996,-4.569504 11,-6c4.194336,-1.55159 5.878571,-3.493454 9,-4c2.961273,-0.480545 6.878571,-0.493454 10,-1c3.948364,-0.640732 7,-1 10,-1c2,0 4.805664,1.44841 9,3c7.734009,2.860992 13.782745,4.56868 21,7c3.907349,1.316284 7.309998,3.337494 10,5c3.609009,2.230484 7.19577,5.648865 11,8c4.253265,2.628662 6.522217,6.380737 9,9c3.436066,3.632263 7,6 11,10c2,2 2.770233,3.026749 3,4c0.513733,2.176254 2.190277,4.881516 4,8c1.122345,1.93399 2.95517,3.549149 4,7c0.579559,1.914185 1.692535,4.186005 3,6c1.653809,2.29454 2.31076,3.534927 4,5c2.388947,2.07193 5,2 8,3c3,1 6.029968,0.511261 10,1c4.092224,0.503769 8,1 11,1c2,0 3,0 5,0c2,0 2.292908,-0.292892 3,-1c0.707092,-0.707108 1.61731,-0.076126 2,-1c0.541199,-1.306564 0.948547,-3.298691 2,-5c1.175568,-1.902115 2,-2 2,-3c0,-1 0.486267,-1.823746 1,-4c0.459503,-1.946503 0,-3 0,-5c0,-1 0,-2 0,-4c0,-2 0,-4 0,-6c0,-2 0,-3 0,-5c0,-1 0,-2 0,-3c0,-1 0.234619,-3.152237 1,-5c0.541199,-1.306564 2,-3 3,-4c1,-1 2,-2 3,-3c1,-1 2,-1 3,-1c2,0 3.053497,-0.459503 5,0c2.176239,0.513748 5.186005,2.692551 7,4c1.147278,0.826904 1.693451,2.458801 3,3c0.923889,0.38269 1.693451,1.458801 3,2c0.923889,0.38269 2.076111,0.61731 3,1c1.30658,0.541199 2.907776,1.496231 7,2c2.977539,0.366547 6,0 7,0c1,0 1.149353,-0.474274 2,-1c1.9021,-1.175568 2.75531,-5.132004 5,-9c1.809692,-3.118484 4.288696,-6.347183 7,-11c3.223877,-5.532333 7.881897,-10.072784 11,-15c3.85614,-6.09346 6.328247,-11.38588 10,-17c4.274902,-6.536438 10.190613,-12.779778 16,-18c5.36377,-4.819763 9.296997,-7.613838 12,-10c1.676331,-1.479836 3,-1 7,-1l4,0" id="svg_2" stroke-width="1.5" stroke="#000" fill="none"/>
 </g>
</svg>