<svg width="288" height="273" viewBox="0 0 288 273" fill="none" xmlns="http://www.w3.org/2000/svg">
<path fill-rule="evenodd" clip-rule="evenodd" d="M200.335 45.9344H240.941V29.9613C240.941 24.3731 238.656 19.2901 234.974 15.6042C231.291 11.9162 226.218 9.62729 220.638 9.62729C215.058 9.62729 209.985 11.9162 206.305 15.6042C202.622 19.2921 200.337 24.3751 200.337 29.9613V45.9344H200.335ZM250.554 45.9344V46.0804C255.342 46.9033 259.014 51.1062 259.014 56.1261V103.298C259.014 108.904 254.436 113.489 248.838 113.489H192.436C186.837 113.489 182.258 108.904 182.258 103.298V56.1261C182.258 51.1062 185.932 46.9033 190.72 46.0804V29.9632C190.72 21.7191 194.085 14.2268 199.503 8.79854C204.922 3.37023 212.401 0.00195312 220.632 0.00195312C228.864 0.00195312 236.345 3.3722 241.765 8.79854C247.185 14.2268 250.548 21.7191 250.548 29.9632V45.9364L250.554 45.9344Z" fill="#E63114"/>
<path fill-rule="evenodd" clip-rule="evenodd" d="M220.637 60.4473C226.627 60.4473 231.483 65.3112 231.483 71.3098C231.483 76.1856 228.278 80.3116 223.861 81.685V94.8128C223.861 96.5886 222.41 98.0409 220.637 98.0409C218.864 98.0409 217.414 96.5886 217.414 94.8128V81.685C212.995 80.3116 209.789 76.1856 209.789 71.3098C209.789 65.3112 214.646 60.4473 220.637 60.4473Z" fill="#20113A"/>
<path fill-rule="evenodd" clip-rule="evenodd" d="M85.9342 53.7563H205.433C209.311 53.7563 212.471 56.9194 212.471 60.8027V232.411C212.471 236.294 209.311 239.459 205.433 239.459H85.9342C82.0567 239.459 78.8984 236.294 78.8984 232.411V60.8027C78.8984 56.9194 82.0567 53.7563 85.9342 53.7563Z" fill="#492C88"/>
<path fill-rule="evenodd" clip-rule="evenodd" d="M85.9328 55.4966H205.432C208.344 55.4966 210.732 57.8862 210.732 60.8045V232.413C210.732 235.329 208.344 237.723 205.432 237.723H85.9328C83.0207 237.723 80.6328 235.331 80.6328 232.413V60.8026C80.6328 57.8842 83.0207 55.4946 85.9328 55.4946V55.4966Z" fill="#DEEAF7"/>
<path fill-rule="evenodd" clip-rule="evenodd" d="M177.145 62.0262C177.145 64.1928 174.556 65.9469 171.362 65.9469H120.002C116.808 65.9469 114.219 64.1928 114.219 62.0262V50.2717C114.219 48.1071 116.808 46.3529 120.002 46.3529H171.362C174.554 46.3529 177.145 48.1071 177.145 50.2717V62.0262ZM176.914 39.1685H114.45C110.566 39.1685 107.418 41.8007 107.418 45.0467V62.6813C107.418 65.9272 110.564 68.5575 114.45 68.5575H176.914C180.798 68.5575 183.946 65.9272 183.946 62.6813V45.0467C183.946 41.8007 180.798 39.1685 176.914 39.1685Z" fill="#301D4E"/>
<path d="M201.944 73.1294H89.4453V229.883H201.944V73.1294Z" fill="#EFF9FC"/>
<path fill-rule="evenodd" clip-rule="evenodd" d="M177.617 73.1295C177.617 76.3774 174.989 79.0077 171.75 79.0077H119.623C116.38 79.0077 113.754 76.3774 113.754 73.1295V55.4949C113.754 52.249 116.38 49.6167 119.623 49.6167H171.75C174.989 49.6167 177.617 52.249 177.617 55.4969V73.1295Z" fill="#301D4E"/>
<path fill-rule="evenodd" clip-rule="evenodd" d="M130.899 64.6407C130.899 67.344 128.709 69.5382 126.007 69.5382C123.306 69.5382 121.117 67.344 121.117 64.6407C121.117 61.9374 123.306 59.7412 126.007 59.7412C128.709 59.7412 130.899 61.9334 130.899 64.6407Z" fill="#A4D0FC"/>
<path fill-rule="evenodd" clip-rule="evenodd" d="M171.569 64.6407C171.569 67.344 169.378 69.5382 166.679 69.5382C163.98 69.5382 161.789 67.344 161.789 64.6407C161.789 61.9374 163.978 59.7412 166.679 59.7412C169.38 59.7412 171.569 61.9334 171.569 64.6407Z" fill="#A4D0FC"/>
<path fill-rule="evenodd" clip-rule="evenodd" d="M102.766 119.05L114.355 119.014L114.39 130.621L102.803 130.656L102.766 119.05ZM102.941 175.588L114.53 175.549L114.567 187.157L102.978 187.191L102.941 175.588ZM102.882 156.74L114.471 156.704L114.51 168.311L102.921 168.348L102.882 156.74ZM102.823 137.894L114.412 137.858L114.447 149.467L102.86 149.502L102.823 137.894Z" fill="#DEEAF7"/>
<path fill-rule="evenodd" clip-rule="evenodd" d="M123.46 119.407L186.372 119.211C187.434 119.207 188.305 120.074 188.309 121.139C188.313 122.205 187.448 123.077 186.382 123.079L123.472 123.276C122.41 123.282 121.539 122.414 121.535 121.348C121.533 120.287 122.398 119.411 123.458 119.407H123.46ZM123.639 175.943L186.547 175.746C187.611 175.742 188.48 176.61 188.484 177.676C188.488 178.739 187.623 179.612 186.561 179.615L123.649 179.815C122.585 179.815 121.712 178.947 121.711 177.885C121.709 176.821 122.573 175.947 123.637 175.945L123.639 175.943ZM123.659 182.836L161.442 182.713C162.506 182.713 163.377 183.582 163.379 184.645C163.383 185.709 162.518 186.581 161.452 186.587L123.669 186.703C122.607 186.707 121.734 185.839 121.73 184.775C121.728 183.71 122.595 182.838 123.657 182.836H123.659ZM123.578 157.097L186.488 156.9C187.552 156.894 188.423 157.764 188.427 158.828C188.431 159.891 187.564 160.765 186.502 160.769L123.588 160.967C122.526 160.967 121.655 160.1 121.653 159.039V159.035C121.649 157.971 122.514 157.101 123.578 157.097ZM123.602 163.988L161.385 163.869C162.447 163.869 163.32 164.735 163.324 165.801C163.328 166.865 162.459 167.737 161.397 167.739L123.612 167.861C122.552 167.861 121.677 166.993 121.673 165.929C121.671 164.866 122.538 163.992 123.6 163.988H123.602ZM123.519 138.253L186.429 138.052C187.491 138.05 188.366 138.916 188.368 139.981C188.368 141.045 187.505 141.915 186.439 141.919L123.529 142.12C122.467 142.12 121.596 141.256 121.592 140.191C121.59 139.127 122.455 138.255 123.517 138.253H123.519ZM123.543 145.143L161.326 145.027C162.388 145.021 163.259 145.891 163.265 146.955C163.269 148.018 162.4 148.893 161.338 148.894L123.555 149.013C122.493 149.017 121.618 148.149 121.616 147.085C121.614 146.02 122.479 145.147 123.543 145.143ZM123.484 126.299L161.269 126.179C162.331 126.177 163.202 127.041 163.206 128.109C163.21 129.17 162.341 130.044 161.279 130.046L123.496 130.167C122.432 130.171 121.559 129.302 121.557 128.237C121.553 127.173 122.418 126.301 123.484 126.297V126.299Z" fill="#492C88"/>
<path fill-rule="evenodd" clip-rule="evenodd" d="M104.089 121.757C103.77 121.238 103.933 120.559 104.45 120.238C104.968 119.918 105.65 120.08 105.969 120.599L108.577 124.833L114.6 116.433C114.955 115.94 115.645 115.826 116.137 116.181C116.634 116.536 116.744 117.227 116.389 117.722L109.434 127.424C109.346 127.556 109.231 127.675 109.088 127.762C108.569 128.081 107.888 127.921 107.569 127.4L104.087 121.755L104.089 121.757ZM104.148 140.603C103.829 140.082 103.993 139.402 104.509 139.082C105.029 138.762 105.709 138.926 106.028 139.443L108.638 143.678L114.661 135.281C115.016 134.784 115.706 134.674 116.198 135.029C116.693 135.384 116.805 136.075 116.45 136.568L109.493 146.268C109.405 146.405 109.291 146.519 109.147 146.61C108.629 146.927 107.947 146.766 107.628 146.247L104.146 140.603H104.148ZM104.264 178.296C103.947 177.775 104.109 177.094 104.629 176.772C105.145 176.453 105.825 176.618 106.146 177.137L108.757 181.37L114.78 172.972C115.134 172.477 115.824 172.364 116.32 172.721C116.813 173.076 116.923 173.767 116.571 174.258L109.614 183.961C109.529 184.095 109.411 184.209 109.267 184.302C108.747 184.618 108.067 184.456 107.748 183.937L104.266 178.296H104.264ZM104.205 159.447C103.888 158.927 104.05 158.25 104.568 157.928C105.084 157.608 105.766 157.77 106.085 158.291L108.696 162.526L114.719 154.126C115.073 153.632 115.763 153.516 116.257 153.873C116.75 154.228 116.862 154.919 116.508 155.416L109.553 165.116C109.466 165.249 109.35 165.367 109.206 165.454C108.686 165.774 108.006 165.612 107.687 165.093L104.205 159.447Z" fill="#492C88"/>
<path fill-rule="evenodd" clip-rule="evenodd" d="M134.826 60.9688H156.544C157.045 60.9688 157.449 61.3733 157.449 61.8725V62.2158C157.449 62.715 157.045 63.1196 156.544 63.1196H134.826C134.326 63.1196 133.922 62.715 133.922 62.2158V61.8725C133.922 61.3733 134.326 60.9688 134.826 60.9688Z" fill="#DFEDFA"/>
<path fill-rule="evenodd" clip-rule="evenodd" d="M134.826 65.5425H156.544C157.045 65.5425 157.449 65.947 157.449 66.4462V66.7876C157.449 67.2868 157.045 67.6913 156.544 67.6913H134.826C134.326 67.6913 133.922 67.2868 133.922 66.7876V66.4462C133.922 65.947 134.326 65.5425 134.826 65.5425Z" fill="#DFEDFA"/>
<path fill-rule="evenodd" clip-rule="evenodd" d="M170.565 64.9308C170.565 67.2394 168.695 69.112 166.388 69.112C164.081 69.112 162.211 67.2394 162.211 64.9308C162.211 62.6221 164.081 60.7476 166.388 60.7476C168.695 60.7476 170.565 62.6182 170.565 64.9308Z" fill="#DFEDFA"/>
<path fill-rule="evenodd" clip-rule="evenodd" d="M129.752 65.2662C129.752 67.5768 127.883 69.4494 125.575 69.4494C123.268 69.4494 121.398 67.5768 121.398 65.2662C121.398 62.9556 123.268 61.085 125.575 61.085C127.883 61.085 129.752 62.9556 129.752 65.2662Z" fill="#DFEDFA"/>
<path fill-rule="evenodd" clip-rule="evenodd" d="M138.793 110.176C139.794 110.303 141.254 110.431 143.077 110.431C146.511 110.431 149.251 109.636 151.046 108.018C152.559 106.658 154.019 104.194 154.019 99.9552C154.019 96.3856 152.918 93.9487 151.046 92.4057C149.407 91.0461 147.175 90.3535 143.894 90.3535C141.973 90.3535 140.179 90.5055 138.793 90.7639V110.176ZM142.562 93.485C142.972 93.408 143.561 93.3331 144.357 93.3331C147.868 93.3331 150.047 95.5411 150.047 100.008C150.047 105.194 147.64 107.428 144.024 107.404C143.51 107.404 142.949 107.404 142.564 107.325V93.485H142.562ZM135.324 90.5055H131.89V96.4389C131.89 99.6493 131.992 102.445 132.221 104.961H132.172C131.376 102.909 130.274 100.494 129.224 98.5187L125.069 90.5055H120.969V110.251H124.403V104.194C124.403 100.675 124.328 97.9011 124.17 95.4641H124.275C125.096 97.6189 126.251 100.056 127.301 102.086L131.529 110.249H135.324V90.5035V90.5055ZM165.078 90.5055H160.312L154.721 110.251H158.567L159.928 105.04H165.21L166.621 110.251H170.593L165.082 90.5055H165.078ZM160.462 102.163L161.642 97.6466C161.926 96.4883 162.257 94.8742 162.515 93.6409H162.592C162.846 94.8485 163.181 96.439 163.488 97.6702L164.669 102.163H160.462Z" fill="#492C88"/>
<path d="M157.44 217.042C156.145 217.042 154.489 216.714 152.29 216.284C149.317 215.698 145.246 214.899 139.842 214.504C133.334 214.029 132.656 213.575 132.664 212.654C132.672 211.702 132.682 210.633 160.175 208.946C160.175 208.729 160.179 208.502 160.181 208.273C153.71 208.166 153.346 207.415 153.09 206.888C152.995 206.69 152.824 206.172 153.32 205.611C157.288 201.134 159.822 199.472 161.54 200.226C163.232 200.976 163.343 203.756 163.118 206.758C163.861 206.748 164.665 206.734 165.536 206.714C165.924 205.976 166.351 205.147 166.826 204.218C167.457 202.981 168.046 201.976 168.936 202.247C169.801 202.509 169.884 203.521 169.581 206.582C170.461 206.546 171.393 206.507 172.38 206.46C173.616 203.431 174.455 202.294 175.468 202.27C176.472 202.251 177.022 203.348 177.611 204.623C177.836 205.112 178.086 205.651 178.372 206.134C178.456 206.128 178.543 206.124 178.628 206.12C179.266 206.081 179.704 206.055 179.877 206.049C191.935 205.546 191.945 205.67 191.996 206.639C192.043 207.555 192.051 207.724 179.773 208.908C179.619 208.983 179.438 209.001 179.264 208.958C177.042 209.169 174.798 209.374 172.747 209.554C169.902 216.261 169.098 216.661 168.243 216.446C167.165 216.17 167.133 214.848 167.673 209.98C166.747 210.055 165.973 210.112 165.4 210.155C163.201 214.049 162.62 214.165 161.934 213.96C161.672 213.883 161.485 213.737 161.357 213.51C161.099 214.816 160.673 215.676 159.993 216.251C159.323 216.815 158.506 217.038 157.44 217.038V217.042ZM135.998 212.608C136.884 212.725 138.149 212.855 139.952 212.985C145.449 213.386 149.571 214.197 152.583 214.789C156.015 215.465 158.088 215.868 159.012 215.088C159.723 214.489 160.033 212.989 160.137 210.477C146.816 211.302 139.32 212.048 135.998 212.608ZM169.214 209.857C169.045 211.353 168.859 213.119 168.844 214.226C169.271 213.512 169.951 212.178 171.021 209.706C170.39 209.761 169.783 209.812 169.212 209.857H169.214ZM162.771 210.317C162.722 210.824 162.679 211.328 162.655 211.748C162.888 211.408 163.187 210.933 163.577 210.272C163.307 210.286 163.039 210.303 162.771 210.319V210.317ZM162.982 208.281C162.966 208.451 162.949 208.614 162.931 208.78C163.297 208.758 163.664 208.737 164.038 208.715L164.472 208.689C164.549 208.549 164.627 208.405 164.71 208.255C164.101 208.267 163.526 208.277 162.982 208.281ZM166.464 208.214C166.399 208.334 166.336 208.453 166.274 208.567C166.745 208.531 167.273 208.488 167.847 208.443C167.855 208.352 167.866 208.261 167.876 208.168C167.388 208.186 166.919 208.2 166.464 208.214ZM169.415 208.115C169.407 208.18 169.399 208.247 169.391 208.316C170.118 208.255 170.889 208.19 171.697 208.121C171.71 208.087 171.726 208.05 171.74 208.014C170.93 208.052 170.154 208.084 169.415 208.115ZM173.421 207.934C173.415 207.945 173.411 207.957 173.405 207.971C173.708 207.941 174.014 207.916 174.321 207.888C174.016 207.902 173.714 207.92 173.421 207.934ZM154.753 206.294C155.377 206.491 156.829 206.706 160.173 206.754C160.159 205.432 160.127 203.948 160.09 202.296C160.082 201.984 160.265 201.708 160.531 201.586C159.828 201.675 158.202 202.456 154.753 206.296V206.294ZM168.192 204.885C168.192 204.885 168.184 204.901 168.182 204.911C167.862 205.536 167.561 206.118 167.277 206.663C167.528 206.655 167.784 206.647 168.044 206.637C168.107 206.008 168.16 205.402 168.193 204.885H168.192ZM175.391 203.77C175.466 203.819 175.036 204.123 174.063 206.375C174.902 206.333 175.777 206.284 176.689 206.233C176.524 205.903 176.372 205.576 176.228 205.262C175.978 204.719 175.598 203.9 175.391 203.77ZM161.638 203.533C161.648 204.076 161.66 204.597 161.67 205.098C161.68 204.542 161.674 204.009 161.638 203.533Z" fill="#492C88"/>
<path fill-rule="evenodd" clip-rule="evenodd" d="M214.81 171.67C214.81 171.67 212.174 169.511 211.226 169.499C210.278 169.489 208.48 169.014 208.551 169.323C208.621 169.629 210.137 170.034 209.878 170.174C209.616 170.318 207.414 169.724 206.797 170.081C206.184 170.436 204.738 171.906 205.899 172.548C207.059 173.189 210.542 174.209 211.441 174.091C212.341 173.972 214.377 173.828 214.377 173.828L214.81 171.67Z" fill="#FFB27D"/>
<path d="M263.45 109.983L177.844 187.615L185.22 195.774L270.827 118.142L263.45 109.983Z" fill="#5C3E9B"/>
<path d="M265.55 112.322L179.945 189.952L183.122 193.465L268.727 115.835L265.55 112.322Z" fill="#492C88"/>
<path fill-rule="evenodd" clip-rule="evenodd" d="M177.845 187.635L168.988 203.091L185.221 195.794L177.845 187.635Z" fill="#EBC7AB"/>
<path fill-rule="evenodd" clip-rule="evenodd" d="M270.832 118.164L277.546 112.072C279.229 110.547 279.361 107.921 277.836 106.236L276 104.203C274.475 102.518 271.854 102.388 270.17 103.913L263.453 110.004L270.832 118.164Z" fill="#5C3E9B"/>
<path fill-rule="evenodd" clip-rule="evenodd" d="M175.147 200.322L168.988 203.091L172.35 197.226C173.778 196.518 175.051 196.407 175.64 197.057C176.229 197.71 175.991 198.967 175.147 200.322Z" fill="#492C88"/>
<path fill-rule="evenodd" clip-rule="evenodd" d="M240.565 139.097C240.565 139.097 241.983 148.346 242.237 151.969C242.367 153.792 242.551 155.258 241.408 156.481C241.408 156.481 244.257 156.76 245.222 155.97C245.222 155.97 245.033 156.359 244.858 156.529C244.858 156.529 248.042 156.645 249.358 155.649C251.356 154.297 250.036 127.394 240.452 129.61C240.452 129.61 231.614 128.858 232.311 137.542C232.162 147.858 231.336 156.758 230.645 158.553C231.64 159.122 234.041 157.249 234.339 156.428C234.601 155.698 234.747 154.851 234.821 154.636C234.821 154.636 234.508 157.129 234.364 157.284C234.364 157.284 237.936 156.878 239.465 155.726C240.988 154.571 241 140.891 240.565 139.099V139.097Z" fill="#284191"/>
<path fill-rule="evenodd" clip-rule="evenodd" d="M244.184 145.779C244.155 145.674 244.131 145.576 244.105 145.475C244.381 144.573 244.476 143.545 244.344 142.419C245.207 141.657 247.075 142.308 248.655 142.792C249.344 149.163 249.338 155.613 248.956 156.089C248.162 157.087 246.235 156.971 246.235 156.971C246.34 156.799 246.456 156.413 246.456 156.413C245.871 157.202 244.149 156.926 244.149 156.926C244.838 155.698 244.728 154.234 244.651 152.411C244.584 150.848 244.387 148.242 244.182 145.779H244.184Z" fill="#284191"/>
<path fill-rule="evenodd" clip-rule="evenodd" d="M215.121 238.715L216.177 238.536V238.534L215.121 238.715Z" fill="#636466"/>
<path fill-rule="evenodd" clip-rule="evenodd" d="M231.418 157.152H250.437C249.077 153.739 247.127 151.268 245.649 150.966C244.861 150.755 243.521 147.509 243.541 142.91L243.182 143.371L237.21 144.557C237.21 144.557 237.344 146.442 237.35 148.214C237.356 149.692 237.275 151.195 236.939 151.371C236.511 151.408 236.119 151.487 236.119 151.487C236.119 151.487 232.876 153.766 231.418 157.152Z" fill="#FFB27D"/>
<path fill-rule="evenodd" clip-rule="evenodd" d="M237.207 144.557C237.207 144.557 237.341 146.44 237.347 148.212C240.69 148.119 242.458 145.065 243.179 143.372L237.207 144.557Z" fill="#F08261"/>
<path fill-rule="evenodd" clip-rule="evenodd" d="M244.007 141.434C244.015 136.499 245.036 133.194 239.99 132.902C234.94 132.61 233.957 134.492 233.555 136.138C233.305 137.16 233.301 141.124 234.018 143.733C235.767 150.11 244.003 144.642 244.007 141.434Z" fill="#FFB27D"/>
<path fill-rule="evenodd" clip-rule="evenodd" d="M248.485 251.92L246.276 261.251L242.962 261.232L242.84 251.92H248.485Z" fill="#FFB27D"/>
<path fill-rule="evenodd" clip-rule="evenodd" d="M220.623 252.321L214.33 261.251L211.879 258.098L215.666 251.091L220.623 252.321Z" fill="#FFB27D"/>
<path fill-rule="evenodd" clip-rule="evenodd" d="M212.877 255.649L216.118 255.748L219.625 255.857C219.625 255.857 227.727 246.823 232.27 232.34C232.378 232.004 232.489 231.663 232.607 231.318C235.093 224.056 240.25 214.94 242.965 206.686C243.398 205.374 243.786 204.135 244.133 202.965C244.243 202.59 244.356 202.223 244.458 201.858C246.462 194.89 247.039 190.318 247.575 185.427L227.953 185.587C227.953 185.587 224.787 218.962 212.875 255.647L212.877 255.649Z" fill="#5418A3"/>
<path fill-rule="evenodd" clip-rule="evenodd" d="M230.702 174.296C230.751 183.647 229.332 187.656 229.332 187.656C229.332 187.656 237.731 191.93 247.719 188.785C247.835 188.748 255.986 186.885 255.986 186.885C255.816 186.506 254.333 180.208 254.167 179.858C252.061 175.326 250.461 173.337 250.211 171.944C249.746 169.341 249.736 166.652 249.967 164.11C250.575 157.389 252.388 151.807 252.388 151.807C249.667 151.19 247.12 150.098 244.288 149.037C243.636 149.848 241.644 150.698 239.92 150.659C237.93 150.615 237.286 149.765 237.389 148.833C235.269 150.013 233.58 151.128 233.58 151.128C231.779 154.262 228.125 157.303 227.861 162.111C227.794 163.293 230.704 174.033 230.704 174.296H230.702Z" fill="#FFE2DC"/>
<path fill-rule="evenodd" clip-rule="evenodd" d="M244.763 149.493C243.687 150.13 242.674 150.59 241.756 150.876C240.645 151.219 239.658 151.306 238.842 151.142C237.975 150.969 237.301 150.513 236.874 149.791C236.744 149.576 236.641 149.335 236.559 149.072L237.355 148.828C237.416 149.025 237.494 149.205 237.587 149.366C237.892 149.877 238.375 150.201 239.004 150.329C239.681 150.465 240.531 150.385 241.51 150.081C242.363 149.816 243.315 149.382 244.335 148.776L244.761 149.493H244.763Z" fill="#ED5D1F"/>
<path fill-rule="evenodd" clip-rule="evenodd" d="M246.382 260.729C246.382 260.729 246.114 262.577 246.803 264.553C246.803 264.553 247.345 267.027 244.914 267.072C242.483 267.12 241.884 266.889 242.16 265.371C242.435 263.856 242.959 261.232 242.959 261.232L246.384 260.729H246.382Z" fill="#FFB27D"/>
<path fill-rule="evenodd" clip-rule="evenodd" d="M241.838 268.542C243.387 271.467 245.588 271.255 247.166 268.542C247.384 267.445 246.902 265.105 246.823 264.653C246.817 264.619 246.811 264.596 246.807 264.58C246.807 264.562 246.803 264.554 246.803 264.554C244.051 267.08 242.327 264.489 242.327 264.489C242.323 264.493 242.323 264.497 242.319 264.501C241.917 265.492 241.83 268.152 241.836 268.54L241.838 268.542Z" fill="#284191"/>
<path fill-rule="evenodd" clip-rule="evenodd" d="M206.014 265.622C206.014 265.622 210.5 260.634 211.877 258.098L215.213 259.809L207.755 266.822L206.012 266.593V265.622H206.014Z" fill="#FFB27D"/>
<path fill-rule="evenodd" clip-rule="evenodd" d="M203.166 268.543H208.809C209.64 268.543 210.304 267.163 211.199 265.372C211.565 264.638 212.387 264.235 213.23 264.012L213.206 268.543H214.511L215.709 263.752C216.503 262.289 215.772 260.961 215.214 259.809C214.564 259.809 212.814 260.255 209.5 263.992C208.411 265.222 207.209 265.66 206.013 265.622C205.999 265.632 205.981 265.64 205.964 265.648C203.211 266.887 203.164 268.543 203.164 268.543H203.166Z" fill="#284191"/>
<path fill-rule="evenodd" clip-rule="evenodd" d="M216.117 255.748L219.624 255.856C219.624 255.856 227.726 246.823 232.269 232.339C232.378 232.004 232.488 231.663 232.606 231.317C235.093 224.056 240.249 214.94 242.964 206.686C243.397 205.374 243.785 204.134 244.132 202.964C244.242 202.589 244.355 202.222 244.457 201.857L241.569 199.663C241.569 199.663 232.894 213.732 230.21 226.968C227.876 238.468 218.537 252.306 216.117 255.748Z" fill="#391F71"/>
<path fill-rule="evenodd" clip-rule="evenodd" d="M241.269 228.204C241.219 234.641 241.545 249.442 242.38 255.571H245.485C247.203 255.571 248.06 255.545 248.06 255.545C250.158 244.89 251.654 236.075 252.741 228.478C253.634 222.245 254.428 216.901 255.037 212.302C255.651 207.671 256.079 203.793 256.231 200.518C256.254 200.003 256.274 199.5 256.28 199.012C256.29 198.523 256.294 198.047 256.29 197.586L239.336 195.93C239.551 207.211 241.292 224.463 241.265 228.204H241.269Z" fill="#5418A3"/>
<path fill-rule="evenodd" clip-rule="evenodd" d="M245.486 255.57C247.204 255.57 248.061 255.545 248.061 255.545C250.16 244.889 251.655 236.075 252.743 228.478C253.635 222.245 254.429 216.901 255.038 212.302C255.653 207.67 256.08 203.793 256.232 200.518L250.012 204.182C250.012 204.182 253.982 205.587 252.467 216.205C250.952 226.824 247.595 254.067 245.484 255.57H245.486Z" fill="#391F71"/>
<path fill-rule="evenodd" clip-rule="evenodd" d="M244.686 200.413C244.686 200.413 245.88 204.735 250.012 204.182C254.141 203.632 260.017 201.151 260.017 201.151C260.017 201.151 258.249 195.561 256.054 188.223C253.397 179.335 252.737 166.847 251.186 159.623C250.751 157.599 247.823 156.941 247.716 155.732L244.288 149.072C244.288 149.072 239.177 160.558 238.904 163.455C238.63 166.352 244.686 200.415 244.686 200.415V200.413Z" fill="#E63114"/>
<path fill-rule="evenodd" clip-rule="evenodd" d="M247.574 171.979C247.759 176.671 249.397 184.669 255.977 188.183C256.003 188.197 256.029 188.211 256.054 188.221C253.396 179.333 253.432 170.809 251.881 163.583C248.343 162.845 247.472 169.396 247.574 171.977V171.979Z" fill="#ED5D1F"/>
<path fill-rule="evenodd" clip-rule="evenodd" d="M254.804 182.392C254.804 182.392 251.852 181.753 251.094 182.597C250.337 183.442 249.91 184.784 250.666 185.253C251.425 185.725 253.62 184.432 254.41 184.953C254.975 185.326 255.155 186.277 255.72 185.944C256.289 185.612 256.888 183.432 256.888 183.432L254.802 182.39L254.804 182.392Z" fill="#FFB27D"/>
<path fill-rule="evenodd" clip-rule="evenodd" d="M244.285 149.068C244.285 149.068 252.251 149.418 254.162 151.197C256.077 152.977 267.54 166.735 267.731 170.342C267.92 173.945 257.689 184.194 257.689 184.194C257.689 184.194 254.848 183.505 253.616 181.715C253.616 181.715 259.962 170.381 259.582 169.886C259.206 169.392 248.452 160.568 247.572 162.526C246.811 164.215 244.285 149.068 244.285 149.068Z" fill="#E63114"/>
<path fill-rule="evenodd" clip-rule="evenodd" d="M213.986 170.499C213.986 170.499 223.082 173.536 224.219 173.282C225.356 173.031 226.979 160.687 227.856 156.46C228.987 151.01 233.298 149.929 233.298 149.929L237.386 148.835C237.386 148.835 232.705 160.42 232.567 162.764C232.429 165.109 232.017 201.106 232.017 201.106C232.017 201.106 232.293 202.761 229.125 202.071C225.959 201.382 225.131 200.691 225.131 200.691C225.131 200.691 226.505 190.628 227.151 181.697C223.924 181.145 213.546 175.878 213.546 175.878C211.937 173.347 213.988 170.503 213.988 170.503L213.986 170.499Z" fill="#E63114"/>
<path fill-rule="evenodd" clip-rule="evenodd" d="M235.935 133.586C231.735 136.053 233.057 137.734 231.971 139.975C231.971 139.975 230.71 135.64 232.683 133.249C234.771 130.713 235.935 133.586 235.935 133.586Z" fill="#284191"/>
<path fill-rule="evenodd" clip-rule="evenodd" d="M233.837 132.651C234.394 132.389 234.782 132.444 234.997 132.815C234.851 133.697 234.438 134.348 233.758 134.772C233.984 134.389 234.01 133.683 233.837 132.651Z" fill="#284191"/>
<path fill-rule="evenodd" clip-rule="evenodd" d="M240.082 130.958C239.347 130.751 239.028 130.388 239.127 129.865C239.974 129.155 240.89 128.876 241.873 129.032C241.349 129.208 240.754 129.851 240.082 130.96V130.958Z" fill="#284191"/>
<path fill-rule="evenodd" clip-rule="evenodd" d="M244.528 138.608C243.689 137.744 242.944 137.578 242.296 138.107C241.953 139.818 242.26 141.296 243.214 142.541C243.064 141.684 243.502 140.374 244.528 138.61V138.608Z" fill="#284191"/>
<path fill-rule="evenodd" clip-rule="evenodd" d="M233.563 135.723C233.108 134.023 232.635 133.521 232.144 134.222C231.719 137 231.752 139.575 232.239 141.953C232.239 140.465 232.68 138.389 233.563 135.723Z" fill="#284191"/>
<path fill-rule="evenodd" clip-rule="evenodd" d="M237.508 134.001C238.103 132.343 236.379 132.444 235.575 132.738C233.644 134.776 232.2 136.909 231.246 139.139C232.724 137.859 237.665 135.467 237.509 134.001H237.508Z" fill="#284191"/>
<path fill-rule="evenodd" clip-rule="evenodd" d="M239.936 130.79C240.223 130.583 240.348 130.22 240.308 129.697C239.979 128.987 239.622 128.708 239.238 128.864C239.443 129.042 239.674 129.683 239.934 130.792L239.936 130.79Z" fill="#284191"/>
<path fill-rule="evenodd" clip-rule="evenodd" d="M239.167 151C238.712 150.921 238.252 151.394 238.138 152.055C238.026 152.716 238.304 153.318 238.759 153.395C239.214 153.474 239.673 153.001 239.787 152.34C239.902 151.679 239.624 151.079 239.167 151Z" fill="#ED5D1F"/>
<path fill-rule="evenodd" clip-rule="evenodd" d="M238.65 153.028C238.371 152.979 238.085 153.271 238.016 153.678C237.945 154.086 238.116 154.455 238.398 154.504C238.678 154.554 238.964 154.26 239.033 153.855C239.104 153.445 238.93 153.076 238.65 153.028Z" fill="#ED5D1F"/>
<path fill-rule="evenodd" clip-rule="evenodd" d="M238.38 154.297C238.132 154.254 237.886 154.51 237.823 154.868C237.76 155.227 237.912 155.55 238.158 155.594C238.406 155.637 238.652 155.383 238.713 155.023C238.776 154.664 238.627 154.341 238.38 154.297Z" fill="#ED5D1F"/>
<path fill-rule="evenodd" clip-rule="evenodd" d="M235.477 132.598C235.477 132.598 237.137 139.111 241.641 141.195C241.641 141.195 237.136 137.193 236.753 132.894C236.369 128.594 235.477 132.598 235.477 132.598Z" fill="#284191"/>
<path fill-rule="evenodd" clip-rule="evenodd" d="M235.883 131.895C235.883 131.895 238.21 138.115 241.78 139.034C245.352 139.956 246.902 138.997 246.902 138.997C246.902 138.997 244.164 136.817 243.596 133.014C243.596 133.014 237.638 128.934 235.885 131.895H235.883Z" fill="#284191"/>
<path d="M244.635 139.634C243.752 139.634 242.777 139.496 241.73 139.226C238.103 138.291 235.792 132.223 235.698 131.964L235.664 131.874L235.713 131.793C236.174 131.013 236.941 130.617 237.987 130.617C240.418 130.617 243.571 132.758 243.707 132.848L243.778 132.898L243.791 132.983C244.341 136.665 246.999 138.817 247.026 138.839L247.245 139.015L247.005 139.163C246.975 139.182 246.232 139.632 244.635 139.632V139.634ZM236.105 131.917C236.407 132.679 238.633 138.018 241.829 138.843C242.84 139.105 243.783 139.236 244.635 139.236C245.592 139.236 246.217 139.064 246.54 138.944C245.85 138.312 243.913 136.292 243.411 133.131C242.93 132.815 240.105 131.017 237.989 131.017C237.116 131.017 236.499 131.311 236.105 131.917Z" fill="#284191"/>
<path fill-rule="evenodd" clip-rule="evenodd" d="M53.3902 50.0269C53.8098 50.5419 54.1802 50.9859 54.4561 51.3055L54.464 51.3154C54.728 51.6173 55.1733 51.6824 55.5161 51.4713L55.8766 51.2483C56.0736 51.1279 56.2313 50.9503 56.3298 50.7412L56.7691 49.8197L56.9071 49.5336C56.9386 49.4665 56.9622 49.3935 56.9741 49.3244C56.9957 49.2021 56.9898 49.0758 56.9543 48.9574C56.9287 48.8607 56.8854 48.768 56.8223 48.6851C56.8046 48.6594 56.7849 48.6358 56.7652 48.614C56.6923 48.5351 56.6194 48.4522 56.5485 48.3694C55.0393 46.625 53.5636 44.0638 52.9429 42.9312C52.7499 42.5819 52.7558 42.1537 52.9567 41.8065L53.0552 41.6427L53.2562 41.2993L53.4158 41.029L53.6187 40.6817L53.5498 40.5771L52.4405 40.7804L51.7391 40.9086L48.8429 41.4394L47.0559 41.769L45.7969 41.9998C45.8954 42.2031 45.9959 42.3925 46.0983 42.5681C46.1377 42.6411 46.1811 42.7122 46.2224 42.7773C46.2599 42.8365 46.2934 42.8937 46.3308 42.947C47.4184 44.5966 48.5769 44.8057 49.2389 44.7564C49.2763 44.7525 49.3078 44.7505 49.3433 44.7465C49.5265 44.7229 49.7039 44.7801 49.8339 44.8965H49.8359C49.895 44.9518 49.9442 45.0149 49.9777 45.0899C50.6259 46.4988 52.1942 48.5548 53.3922 50.0288L53.3902 50.0269Z" fill="#A4D0FC"/>
<path fill-rule="evenodd" clip-rule="evenodd" d="M50.6693 42.8069C49.4162 43.7856 47.5622 43.7875 47.4874 43.7875C48.6951 45.0405 50.9038 43.2942 51.1047 43.2331C51.286 43.1778 55.8176 48.6653 56.7672 49.8216L56.9051 49.5355C56.9367 49.4684 56.9603 49.3974 56.9721 49.3264C56.9938 49.204 56.9879 49.0777 56.9524 48.9593C56.9268 48.8627 56.8835 48.7699 56.8204 48.687C56.8027 48.6614 56.783 48.6377 56.7633 48.616C56.6904 48.5371 56.6175 48.4542 56.5465 48.3713C55.0373 46.627 53.5616 44.0658 52.941 42.9331C52.7459 42.5839 52.7538 42.1577 52.9548 41.8104L53.4119 41.031L53.6148 40.6837L53.5459 40.5791L52.4366 40.7823L48.839 41.4414L47.052 41.7709L45.793 42.0018C45.8915 42.205 45.992 42.3945 46.0944 42.5701C47.5859 42.2603 49.5798 41.9071 49.9462 42.1478C50.1354 42.3076 50.36 42.4142 50.6043 42.4793C50.756 42.5207 50.7934 42.7141 50.6693 42.8088V42.8069Z" fill="#87BEF5"/>
<path fill-rule="evenodd" clip-rule="evenodd" d="M41.9044 41.1829C42.0186 41.2954 42.1408 41.4059 42.2748 41.5125C42.5033 41.692 42.7654 41.8558 43.0609 42.0038C44.1465 42.507 47.6969 42.0571 49.5942 41.7058H49.5982C49.5982 41.7058 49.8405 41.5421 49.9213 41.6387C49.9489 41.6723 50.2602 41.7394 50.6522 41.7848H50.6562C50.8 41.8045 50.9557 41.8223 51.1133 41.8321H51.133C51.7575 41.8755 52.388 41.844 52.392 41.5953L52.3939 41.5894V41.5855C52.3979 41.4848 52.4944 41.3566 52.6422 41.2204C52.7111 41.1573 52.7939 41.0882 52.8825 41.0211C53.1328 40.8317 53.4421 40.6364 53.7258 40.4686C54.1494 40.22 54.51 40.0365 54.51 40.0365L53.7199 39.0361L53.0697 38.2152L51.8403 32.5995L51.8107 32.4633C51.7635 32.4357 51.2492 32.1693 50.2109 32.3942C50.1065 32.4159 49.9626 32.4475 49.7873 32.4909C48.812 32.7218 46.8595 33.2111 45.4015 33.5782L45.37 33.5861C44.6036 33.7775 43.9771 33.9353 43.7071 34.0064C43.6126 34.03 43.5633 34.0419 43.5633 34.0419C43.5633 34.0419 43.0491 34.1839 42.4836 34.5036C41.9773 34.7858 41.4315 35.214 41.1734 35.8079C41.0217 36.1572 40.866 36.6741 40.7853 37.274C40.736 37.6509 40.7143 38.0574 40.7439 38.4757C40.8089 39.413 41.1241 40.3976 41.9122 41.1849L41.9044 41.1829Z" fill="#87BEF5"/>
<path fill-rule="evenodd" clip-rule="evenodd" d="M43.8353 41.457C44.1111 41.7727 45.4942 41.7273 46.9266 41.5833H46.9325C47.3699 41.5379 47.8112 41.4846 48.225 41.4294H48.2289C48.4988 41.3919 48.7609 41.3544 48.9993 41.3189C49.2081 41.2873 49.285 41.0288 49.1273 40.8887C49.1017 40.865 49.0722 40.8493 49.0387 40.8394C47.4053 40.3145 47.5669 36.8969 47.3896 36.6582C47.1965 36.4016 42.8777 36.6976 42.2886 37.5737C42.2473 37.631 42.2275 37.6921 42.2216 37.7553C42.2118 37.9151 42.2315 38.0966 42.2709 38.2959C42.2926 38.4064 42.3221 38.5228 42.3576 38.6412C42.3871 38.7438 42.4226 38.8484 42.4581 38.951C42.6886 39.5963 43.0472 40.2948 43.3821 40.8276C43.5102 41.0288 43.6323 41.2044 43.7466 41.3465C43.7762 41.384 43.8057 41.4195 43.8333 41.4531L43.8353 41.457ZM40.7361 38.4735C40.7065 38.0552 40.7282 37.6487 40.7775 37.2718C40.8582 36.672 41.0139 36.155 41.1656 35.8057C41.4257 35.2118 41.9694 34.7856 42.4758 34.5014C41.8926 35.194 41.4848 35.8906 41.2582 36.6661L41.2483 36.6937C41.1794 36.9285 41.1301 37.1712 41.0966 37.4218C41.0572 37.7138 41.0375 38.0177 41.0434 38.3374C41.0474 38.509 41.0553 38.6846 41.075 38.8662C41.0769 38.9195 41.0828 38.9727 41.0887 39.026C41.0927 39.0675 41.0986 39.1089 41.1065 39.1484C41.2345 40.0008 41.7035 40.6362 42.2157 41.088C42.3753 41.2321 42.5388 41.3564 42.6984 41.461C42.8698 41.5754 43.0353 41.6721 43.1811 41.751C43.2383 41.7806 43.2915 41.7037 43.2422 41.6603C43.1654 41.5932 43.0866 41.5182 43.0019 41.4294C42.8856 41.307 42.7615 41.1571 42.6413 40.9815C42.4344 40.6815 42.2354 40.3066 42.0699 39.8311C41.9754 39.5608 41.8985 39.3003 41.8355 39.0457C41.8118 38.9451 41.7882 38.8465 41.7685 38.7478C41.7409 38.6077 41.7173 38.4696 41.7015 38.3334C41.668 38.0651 41.6542 37.8006 41.666 37.5402C41.6779 37.2284 41.7232 36.9206 41.8059 36.6108C41.8118 36.5871 41.8177 36.5615 41.8256 36.5378C41.9635 36.0425 42.1941 35.5472 42.531 35.0263C42.7891 34.6257 43.2107 34.2883 43.6993 34.0042C43.9692 33.9351 44.5977 33.7773 45.3622 33.5839C44.1741 34.1482 43.524 34.6534 43.1693 35.0441C42.9093 35.3322 43.1811 35.788 43.5614 35.6992C44.9701 35.3736 47.7954 34.604 48.7136 33.5109C49.9332 32.0606 51.734 32.4473 51.8069 32.4611C51.8069 32.4611 51.8088 32.4947 51.8147 32.5578C51.8502 33.059 51.994 35.4762 51.6847 37.5796C51.4463 39.1997 50.94 40.6283 49.9095 40.8591L50.3489 41.1038C50.41 41.0939 50.4454 41.086 50.4454 41.086C50.4454 41.086 51.6098 41.1393 52.6383 41.2183C52.4925 41.3544 52.396 41.4827 52.3901 41.5833V41.5872V41.5912C52.3861 41.8418 51.7556 41.8734 51.1311 41.83H51.1114C50.9557 41.8201 50.7981 41.8004 50.6543 41.7826H50.6503C50.2583 41.7352 49.947 41.6701 49.9194 41.6346C49.8406 41.5379 49.5963 41.7017 49.5963 41.7017H49.5923C47.695 42.0529 44.1446 42.5028 43.059 42.0016C42.7635 41.8536 42.5014 41.6899 42.2729 41.5103C42.1389 41.4037 42.0148 41.2952 41.9025 41.1808C41.1144 40.3935 40.8011 39.4088 40.7341 38.4715L40.7361 38.4735Z" fill="#87BEF5"/>
<path fill-rule="evenodd" clip-rule="evenodd" d="M52.9974 41.3644C52.9974 41.3644 52.4182 41.7946 51.3149 41.54C50.2096 41.2855 49.2954 40.5159 48.7732 39.5076C47.8807 37.781 47.3941 34.9692 50.1248 33.1006L52.9955 41.3644H52.9974Z" fill="#4F8ECC"/>
<path fill-rule="evenodd" clip-rule="evenodd" d="M43.593 35.0362C43.4669 35.198 43.6186 35.4269 43.8156 35.3716C44.7614 35.1151 47.3562 34.3416 48.4871 33.3175C48.9343 32.913 49.3796 32.6565 49.7796 32.4907C48.8043 32.7216 46.8518 33.2109 45.3938 33.578C44.3121 34.2982 43.8137 34.754 43.595 35.0362H43.593Z" fill="#87BEF5"/>
<path fill-rule="evenodd" clip-rule="evenodd" d="M50.927 32.7829L50.3871 32.9487C48.87 33.7952 48.5824 35.3994 48.5824 35.3994L48.543 36.8537C48.543 36.8537 48.8937 38.377 48.9252 38.3691C48.9547 38.3592 49.7527 40.0582 49.7527 40.0582L50.3497 40.6462C50.4502 40.8297 50.7851 40.9954 51.0511 41.102C51.254 41.1849 51.4688 41.2342 51.6875 41.2519L52.71 41.3269H52.7238L53.2262 41.3664C54.5699 41.4947 58.2858 42.0333 61.3633 44.192C61.3633 44.192 61.2589 43.8388 61.1486 43.4837L61.2727 43.2528L61.052 43.1778C60.9772 42.941 60.9121 42.7575 60.9023 42.7595C60.8846 42.7654 60.589 42.3865 60.3033 42.0116C60.3014 40.9264 59.3655 34.693 58.7803 30.8906L59.3261 30.2079L58.4966 29.0555L58.3193 27.9189C58.3193 27.9189 55.4782 31.301 50.9289 32.7829H50.927Z" fill="#71AFED"/>
<path fill-rule="evenodd" clip-rule="evenodd" d="M50.3777 32.9526C50.3561 32.9625 50.307 32.988 50.2383 33.0274C50.2854 33.0018 50.3306 32.9762 50.3777 32.9526Z" fill="#545B5C"/>
<path fill-rule="evenodd" clip-rule="evenodd" d="M50.235 33.0298C50.2036 33.0495 50.1662 33.073 50.125 33.1006C50.1623 33.077 50.1957 33.0514 50.235 33.0298Z" fill="#545B5C"/>
<path fill-rule="evenodd" clip-rule="evenodd" d="M49.0138 39.2491C49.2916 39.7148 49.6324 40.1469 50.0422 40.5001C50.4245 40.8297 50.9052 41.1375 51.4116 41.2322C51.4116 41.2322 49.1123 40.3758 48.734 36.8892C48.7301 36.8596 48.7281 36.83 48.7241 36.7984C48.7143 36.7135 48.7064 36.6287 48.7005 36.5498C48.5468 34.4286 49.6186 33.4439 50.1289 33.1006C49.3152 33.6038 48.7754 34.4207 48.5232 35.3461C48.401 35.7901 48.3419 36.2518 48.3301 36.7116C48.3301 36.7767 48.3281 36.8379 48.3281 36.903V36.9582C48.338 37.7968 48.5843 38.5249 49.0138 39.2471V39.2491Z" fill="#4F8ECC"/>
<path fill-rule="evenodd" clip-rule="evenodd" d="M64.3041 23.122C65.896 22.9325 68.3805 22.9325 69.4681 24.4953C71.1329 26.8868 75.3867 38.3887 74.1454 40.433C72.9042 42.4772 73.0697 46.4157 69.9646 47.0156C66.8595 47.6135 65.2971 47.3155 65.2971 47.3155L65.2261 46.6071C64.6193 46.3269 64.0203 45.8396 63.4529 45.1785C62.6766 44.8352 61.9161 44.0814 61.2364 43.0258L58.6751 34.0812C58.4997 30.8471 59.0888 28.0806 60.2 26.6441C60.7556 24.8979 61.6107 23.6626 62.6904 23.2127C62.8776 23.1318 63.0707 23.0805 63.2697 23.0509C63.6125 23.0016 63.9593 23.0272 64.3041 23.122Z" fill="#A4D0FC"/>
<path fill-rule="evenodd" clip-rule="evenodd" d="M57.9948 35.1687C57.8293 32.0846 58.6036 29.5766 59.9355 29.0222C60.0497 28.9728 60.168 28.9413 60.2901 28.9235C62.0633 28.665 63.9764 31.7136 64.5636 35.737C65.0995 39.4052 64.3488 42.6137 62.8692 43.3497C62.7253 43.4207 62.5756 43.47 62.4199 43.4898C61.5511 43.618 60.6487 42.9511 59.8842 41.7632L57.9968 35.1707L57.9948 35.1687Z" fill="#61A0E0"/>
<path fill-rule="evenodd" clip-rule="evenodd" d="M65.0899 32.248L59.4924 32.9288C59.4924 32.9288 59.455 36.0998 60.3731 38.6235L65.811 37.6981C65.878 37.6981 65.9449 37.6941 66.0119 37.6803C66.2621 37.6329 66.4808 37.4909 66.6601 37.2817H66.6641C67.1231 36.7371 67.3241 35.7406 67.1172 34.6712C66.8434 33.2406 65.9528 32.2007 65.0899 32.2698V32.25V32.248Z" fill="#4F8ECC"/>
<path fill-rule="evenodd" clip-rule="evenodd" d="M66.1206 37.6452C66.3708 37.5978 66.5895 37.4577 66.7688 37.2466H66.7707C67.2298 36.704 67.4308 35.7075 67.2239 34.636C66.9382 33.1463 65.9826 32.0768 65.0862 32.2504C64.9207 32.282 64.767 32.353 64.6311 32.4615C64.0341 32.9292 63.7464 34.046 63.9789 35.2596C64.2646 36.7493 65.2202 37.8208 66.1186 37.6472L66.1206 37.6452Z" fill="#4F8ECC"/>
<path fill-rule="evenodd" clip-rule="evenodd" d="M66.3178 37.4513C66.4833 37.4217 66.6331 37.3487 66.769 37.2442H66.771C67.23 36.7015 67.431 35.705 67.2241 34.6336C66.9384 33.1438 65.9829 32.0743 65.0864 32.248C64.9209 32.2795 64.7672 32.3506 64.6313 32.4591C64.1722 32.9998 63.9732 33.9962 64.1781 35.0637C64.4638 36.5555 65.4194 37.625 66.3158 37.4533L66.3178 37.4513Z" fill="#61A0E0"/>
<path fill-rule="evenodd" clip-rule="evenodd" d="M66.291 36.3939C66.6595 36.3308 66.9058 35.8868 66.9333 35.3165C66.9432 35.1528 66.9333 34.9791 66.9038 34.7996C66.7678 34.0004 66.2753 33.4183 65.8005 33.4992C65.7197 33.513 65.6448 33.5466 65.5758 33.5939C65.2448 33.8268 65.0734 34.4286 65.1877 35.0916C65.3237 35.8907 65.8162 36.4709 66.291 36.3919V36.3939Z" fill="#DFEDFA"/>
<path fill-rule="evenodd" clip-rule="evenodd" d="M66.708 35.4113C66.7888 35.3974 66.8637 35.3659 66.9307 35.3165C66.9405 35.1528 66.9306 34.9791 66.9011 34.7996C66.7651 34.0004 66.2726 33.4183 65.7978 33.4992C65.717 33.513 65.6421 33.5466 65.5732 33.5939C65.5653 33.7577 65.5732 33.9313 65.6047 34.1109C65.7406 34.9101 66.2332 35.4922 66.706 35.4113H66.708Z" fill="#EFF9FC"/>
<path fill-rule="evenodd" clip-rule="evenodd" d="M65.7473 33.5603L65.8084 33.5465C66.2576 33.4696 66.7265 34.0359 66.8566 34.8074C66.9866 35.5789 66.7325 36.2696 66.2813 36.3465C66.0685 36.382 65.8419 36.2755 65.6449 36.0407C65.442 35.8019 65.2962 35.4625 65.2311 35.0837C65.107 34.3476 65.3356 33.6866 65.7454 33.5603H65.7473ZM66.368 36.4215C66.8231 36.2814 67.0812 35.577 66.9472 34.7936C66.8073 33.9708 66.2892 33.3709 65.7907 33.4558C65.2922 33.5426 65.0006 34.2786 65.1405 35.1014C65.2075 35.4961 65.3612 35.8532 65.574 36.1038C65.7946 36.3623 66.0508 36.4807 66.2951 36.4393C66.3187 36.4353 66.3424 36.4294 66.366 36.4215H66.368Z" fill="#A4D0FC"/>
<path fill-rule="evenodd" clip-rule="evenodd" d="M72.6107 33.7992C71.4877 27.4691 67.7343 22.834 64.2273 23.4457C60.935 24.0179 59.0318 29.0062 59.7391 34.8489C59.7844 35.2317 59.8435 35.6185 59.9105 36.0092C61.0355 42.3392 64.7869 46.9743 68.2959 46.3646C71.3379 45.8338 73.1959 41.5263 72.8983 36.2598C72.855 35.4586 72.7585 34.6338 72.6107 33.7972V33.7992ZM58.1511 36.2104C58.0802 35.8 58.0211 35.3935 57.9738 34.991C57.1502 28.0887 59.6288 22.1375 63.7801 21.4153C68.1737 20.6497 72.7762 26.0346 74.0608 33.442C74.2105 34.2964 74.3071 35.141 74.3563 35.9677C74.7405 42.2998 72.3191 47.5604 68.4338 48.2372C64.0382 49.0008 59.4357 43.6159 58.1491 36.2124L58.1511 36.2104Z" fill="#87BEF5"/>
<path fill-rule="evenodd" clip-rule="evenodd" d="M68.4118 47.6727C71.7041 47.1005 73.6073 42.1063 72.898 36.2616C72.8547 35.4605 72.7582 34.6357 72.6104 33.799C71.4873 27.469 67.734 22.8339 64.227 23.4456C60.9347 24.0178 59.0315 29.0061 59.7388 34.8488C59.7841 35.6519 59.8807 36.4767 60.0284 37.3173C61.1515 43.6473 64.9048 48.2844 68.4118 47.6727ZM58.1508 36.2103C58.0799 35.7999 58.0208 35.3934 57.9735 34.9909C57.5893 28.6588 60.0127 23.3982 63.896 22.7234C68.2896 21.9578 72.8941 27.3427 74.1787 34.7481C74.2496 35.1566 74.3087 35.5631 74.356 35.9676C74.7402 42.2996 72.3188 47.5602 68.4335 48.237C64.0379 49.0007 59.4354 43.6158 58.1488 36.2123L58.1508 36.2103Z" fill="#87BEF5"/>
<path fill-rule="evenodd" clip-rule="evenodd" d="M74.9019 21.9245C82.9976 31.167 82.0814 45.2301 72.8548 53.3381C63.6282 61.446 49.5843 60.5304 41.4886 51.2879C33.3928 42.0454 34.309 27.9823 43.5356 19.8743C52.7623 11.7644 66.8062 12.682 74.9019 21.9245ZM73.0932 26.7194L46.4674 50.1178C53.111 55.9151 63.175 56.0433 69.9802 50.0625C76.7874 44.0817 77.9695 34.0696 73.0912 26.7194H73.0932ZM43.2953 46.495L69.9211 23.0966C63.2775 17.2993 53.2135 17.171 46.4063 23.1518C39.6011 29.1327 38.4189 39.1447 43.2953 46.495Z" fill="#E63114"/>
<path fill-rule="evenodd" clip-rule="evenodd" d="M20.5862 74.3626L22.1979 72.9399C22.0009 73.5082 21.8433 73.97 21.7172 74.3626C21.2542 75.8129 21.2148 76.4167 21.2148 78.6307L16.9531 77.6835L20.5862 74.3626Z" fill="#99C5F2"/>
<path fill-rule="evenodd" clip-rule="evenodd" d="M16.9531 77.7903V77.6838L21.2148 78.6309C21.2148 76.417 21.2542 75.8132 21.7172 74.3628C21.8295 74.0136 21.9654 73.615 22.1309 73.1335L22.1979 73.0151C22.0009 73.5834 21.8984 74.0925 21.7723 74.4872C21.3093 75.9375 21.2699 76.5413 21.2699 78.7552L16.9531 77.7903Z" fill="#B3B3B3"/>
<path fill-rule="evenodd" clip-rule="evenodd" d="M27.9932 91.3482L20.5023 86.4566L16.1875 83.6389C16.3097 83.2127 16.7037 82.8989 17.1667 82.8989H40.185C40.65 82.8989 41.0441 83.2127 41.1662 83.6389L36.8494 86.4566L29.3625 91.3443C28.8108 91.7133 28.5429 91.6995 27.9932 91.3482Z" fill="#61A0E0"/>
<path fill-rule="evenodd" clip-rule="evenodd" d="M40.3931 72.9419H22.1979C21.2778 75.6057 21.2148 75.8149 21.2148 78.6326L16.9531 77.6855V92.8615H40.3931V72.9419Z" fill="#EFF9FC"/>
<path fill-rule="evenodd" clip-rule="evenodd" d="M27.9902 89.7476L20.4993 94.6392L16.3086 97.3741C16.4899 97.6543 16.8071 97.8398 17.1637 97.8398H40.182C40.5406 97.8398 40.8558 97.6543 41.0371 97.3741L36.8464 94.6392L29.3595 89.7516C28.8078 89.3826 28.5399 89.3964 27.9902 89.7476Z" fill="#61A0E0"/>
<path fill-rule="evenodd" clip-rule="evenodd" d="M36.8474 94.6393L30.582 90.5488L36.8474 86.4584L41.1642 83.6406C41.1898 83.7314 41.2036 83.8241 41.2036 83.9228V96.8177C41.2036 97.023 41.1425 97.2144 41.0381 97.3742L36.8474 94.6393Z" fill="#87BEF5"/>
<path fill-rule="evenodd" clip-rule="evenodd" d="M26.7661 90.5488L20.5007 94.6393L16.31 97.3742C16.2056 97.2144 16.1445 97.023 16.1445 96.8177V83.9228C16.1445 83.8241 16.1583 83.7314 16.1839 83.6406L20.4988 86.4584L26.7641 90.5488H26.7661Z" fill="#87BEF5"/>
<path fill-rule="evenodd" clip-rule="evenodd" d="M45.2066 70.132C53.3023 79.3746 52.3861 93.4377 43.1595 101.546C33.9328 109.654 19.889 108.738 11.7933 99.4954C3.69753 90.2529 4.61369 76.1898 13.8403 68.0799C23.067 59.972 37.1108 60.8895 45.2066 70.1301V70.132ZM43.3999 74.9269L16.774 98.3253C23.4157 104.123 33.4817 104.251 40.2869 98.2701C47.0921 92.2893 48.2742 82.2772 43.3979 74.9269H43.3999ZM13.6 94.7025L40.2258 71.3041C33.5841 65.5068 23.5182 65.3786 16.7129 71.3594C9.90773 77.3402 8.72558 87.3523 13.6019 94.7025H13.6Z" fill="#E63114"/>
<path fill-rule="evenodd" clip-rule="evenodd" d="M56.0523 130.341C64.148 139.581 63.2318 153.646 54.0052 161.754C44.7786 169.862 30.7327 168.946 22.637 159.702C14.5413 150.463 15.4574 136.396 24.6841 128.288C33.9107 120.18 47.9546 121.098 56.0503 130.339L56.0523 130.341ZM39.3446 127.116C29.4698 127.116 21.4667 135.131 21.4667 145.021C21.4667 154.911 29.4698 162.926 39.3446 162.926C49.2195 162.926 57.2246 154.911 57.2246 145.021C57.2246 135.131 49.2195 127.116 39.3446 127.116Z" fill="#E63114"/>
<path fill-rule="evenodd" clip-rule="evenodd" d="M52.8763 154.461L25.8505 154.503C25.3107 154.503 24.8713 154.065 24.8713 153.526L24.8438 135.27C24.8438 134.729 25.2811 134.291 25.821 134.289L52.8468 134.25C53.3866 134.25 53.826 134.686 53.826 135.226L53.8536 153.482C53.8536 154.023 53.4182 154.463 52.8763 154.463V154.461Z" fill="#87BEF5"/>
<path fill-rule="evenodd" clip-rule="evenodd" d="M51.9573 153.391L26.7599 153.429C26.2674 153.429 25.8674 153.03 25.8674 152.537L25.8438 136.252C25.8438 135.759 26.2417 135.358 26.7343 135.358L51.9317 135.321C52.4243 135.321 52.8242 135.719 52.8242 136.213L52.8479 152.5C52.8479 152.991 52.4499 153.393 51.9573 153.393V153.391Z" fill="#EFF9FC"/>
<path fill-rule="evenodd" clip-rule="evenodd" d="M52.8265 136.278V136.74L25.8125 136.781V136.319C25.8125 135.779 26.1829 135.339 26.8213 135.339L51.8138 135.301C52.4856 135.301 52.8245 135.639 52.8265 136.28V136.278Z" fill="#EFF9FC"/>
<path fill-rule="evenodd" clip-rule="evenodd" d="M49.6414 136.023C49.6414 136.173 49.5193 136.298 49.3695 136.298C49.2198 136.298 49.0977 136.177 49.0977 136.025C49.0977 135.873 49.2198 135.753 49.3695 135.753C49.5193 135.753 49.6414 135.873 49.6414 136.023ZM51.5979 136.021C51.5979 136.173 51.4757 136.294 51.326 136.294C51.1763 136.294 51.0541 136.173 51.0541 136.021C51.0541 135.871 51.1743 135.749 51.324 135.749C51.4738 135.749 51.5979 135.871 51.5979 136.021ZM50.6187 136.021C50.6187 136.171 50.4985 136.294 50.3468 136.294C50.1971 136.294 50.0749 136.173 50.0749 136.021C50.0749 135.869 50.1971 135.749 50.3468 135.749C50.4965 135.749 50.6187 135.869 50.6187 136.021Z" fill="#EFF9FC"/>
<path fill-rule="evenodd" clip-rule="evenodd" d="M23.0391 154.07H36.5096C36.5135 154.185 36.6081 154.276 36.7263 154.276H41.9652C42.0834 154.276 42.18 154.185 42.1839 154.07H55.6544V154.935C55.6544 155.41 55.2525 155.799 54.7599 155.799H23.6439C23.311 155.799 23.041 155.536 23.041 155.215V154.07H23.0391Z" fill="#61A0E0"/>
<path fill-rule="evenodd" clip-rule="evenodd" d="M37.5568 142.792H41.1348V141.383C41.1348 140.892 40.9338 140.442 40.6087 140.118C40.2836 139.79 39.8364 139.589 39.3458 139.589C38.8552 139.589 38.406 139.79 38.0829 140.118C37.7578 140.442 37.5568 140.89 37.5568 141.383V142.792ZM41.982 142.792V142.804C42.4036 142.875 42.7287 143.248 42.7287 143.69V147.845C42.7287 148.336 42.3248 148.743 41.8322 148.743H36.8613C36.3687 148.743 35.9648 148.336 35.9648 147.845V143.69C35.9648 143.248 36.288 142.877 36.7096 142.804V141.383C36.7096 140.657 37.0071 139.996 37.4839 139.518C37.9627 139.039 38.6207 138.743 39.3458 138.743C40.0708 138.743 40.7289 139.041 41.2077 139.518C41.6864 139.996 41.982 140.657 41.982 141.383V142.792Z" fill="#E63114"/>
<path fill-rule="evenodd" clip-rule="evenodd" d="M39.3462 144.07C39.8742 144.07 40.3018 144.498 40.3018 145.025C40.3018 145.456 40.02 145.819 39.6299 145.941V147.097C39.6299 147.251 39.5018 147.381 39.3462 147.381C39.1886 147.381 39.0625 147.251 39.0625 147.097V145.941C38.6724 145.819 38.3906 145.456 38.3906 145.025C38.3906 144.497 38.8182 144.07 39.3462 144.07Z" fill="white"/>
<path fill-rule="evenodd" clip-rule="evenodd" d="M38.9382 136.24C38.8279 136.24 38.7392 136.15 38.7392 136.041C38.7392 135.933 38.8279 135.844 38.9382 135.844H39.1392H39.2042H39.2712L39.3382 135.846H39.4032L39.4702 135.85H39.5352L39.6002 135.856H39.6652L39.7303 135.862H39.7421C39.8504 135.867 39.9352 135.962 39.9293 136.071C39.9233 136.179 39.8288 136.264 39.7204 136.258H39.7106L39.6475 136.256L39.5825 136.252H39.5194L39.4544 136.246H39.3894L39.3244 136.242H39.2613L39.1983 136.24H39.1333L39.0683 136.238H38.9402L38.9382 136.24ZM38.3846 135.854C38.4949 135.85 38.5856 135.935 38.5915 136.045C38.5954 136.154 38.5107 136.246 38.4004 136.252H38.359L38.2959 136.256L38.2329 136.26H38.1698L38.1068 136.266L38.0437 136.27L37.9807 136.274L37.9176 136.278L37.8546 136.284L37.7915 136.29L37.7285 136.294L37.6654 136.3L37.6221 136.304C37.5137 136.313 37.4172 136.234 37.4073 136.124C37.3975 136.015 37.4763 135.919 37.5866 135.909L37.632 135.905L37.695 135.899L37.76 135.893L37.825 135.887L37.8901 135.883L37.9551 135.879L38.0181 135.875L38.0831 135.871L38.1501 135.867L38.2151 135.863H38.2802L38.3452 135.858H38.3866L38.3846 135.854ZM36.3868 136.067C36.4951 136.047 36.5976 136.118 36.6173 136.227C36.637 136.335 36.5661 136.438 36.4577 136.457L36.436 136.461L36.3769 136.471L36.3158 136.483L36.2567 136.495L36.1957 136.507L36.1365 136.519L36.0774 136.53L36.0183 136.542L35.9592 136.554L35.9021 136.568L35.843 136.582L35.7839 136.596L35.7248 136.609L35.6913 136.617C35.5849 136.643 35.4765 136.578 35.4509 136.471C35.4253 136.365 35.4903 136.256 35.5967 136.232L35.6322 136.223L35.6913 136.209L35.7504 136.195L35.8115 136.181L35.8725 136.167L35.9336 136.156L35.9927 136.144L36.0538 136.132L36.1149 136.12L36.1759 136.108L36.237 136.096L36.2981 136.084L36.3592 136.073L36.3809 136.069L36.3868 136.067ZM34.4402 136.572C34.5426 136.536 34.6569 136.592 34.6924 136.694C34.7278 136.797 34.6727 136.911 34.5702 136.947L34.5446 136.955L34.4914 136.974L34.4382 136.994L34.385 137.014L34.3298 137.034L34.2766 137.053L34.2234 137.073L34.1702 137.093L34.117 137.114L34.0638 137.134L34.0107 137.156L33.9594 137.176L33.9082 137.195L33.857 137.217L33.8452 137.223C33.7447 137.264 33.6265 137.219 33.5851 137.118C33.5417 137.018 33.589 136.899 33.6895 136.858L33.7033 136.852L33.7565 136.83L33.8117 136.809L33.8668 136.787L33.922 136.765L33.9752 136.746L34.0304 136.724L34.0855 136.704L34.1407 136.682L34.1959 136.663L34.251 136.643L34.3062 136.623L34.3633 136.603L34.4205 136.584L34.4461 136.576L34.4402 136.572ZM32.596 137.387C32.6906 137.334 32.8127 137.367 32.8659 137.464C32.9191 137.558 32.8856 137.681 32.7891 137.734L32.7655 137.748L32.7182 137.776L32.6709 137.803L32.6236 137.829L32.5783 137.856L32.533 137.884L32.4857 137.912L32.4404 137.939L32.397 137.967L32.3517 137.997L32.3064 138.026L32.2611 138.054L32.2158 138.081L32.1724 138.111L32.1291 138.141H32.1232C32.0325 138.204 31.9104 138.18 31.8493 138.089C31.7882 138 31.8119 137.876 31.9045 137.815L31.9104 137.809L31.9577 137.777L32.003 137.748L32.0483 137.718L32.0956 137.689L32.1409 137.659L32.1882 137.63L32.2374 137.6L32.2847 137.572L32.332 137.543L32.3813 137.515L32.4286 137.487L32.4778 137.46L32.5271 137.432L32.5743 137.407L32.6 137.393L32.596 137.387ZM30.9351 138.539C31.0179 138.468 31.144 138.476 31.2149 138.559C31.2858 138.642 31.2779 138.766 31.1952 138.839H31.1932L31.1558 138.875L31.1164 138.908L31.0809 138.94L31.0435 138.973L31.006 139.007L30.9706 139.04L30.9351 139.074L30.8996 139.107L30.8642 139.143L30.8287 139.177L30.7952 139.212L30.7598 139.248L30.7263 139.281L30.6928 139.317L30.6593 139.352L30.6356 139.378C30.5608 139.457 30.4347 139.461 30.3559 139.386C30.277 139.311 30.2731 139.184 30.348 139.105L30.3736 139.078L30.4091 139.042L30.4445 139.005L30.48 138.967L30.5154 138.932L30.5509 138.896L30.5883 138.859L30.6258 138.823L30.6632 138.788L30.7026 138.752L30.7401 138.717L30.7795 138.681L30.8169 138.648L30.8583 138.612L30.8977 138.579L30.9371 138.543H30.939L30.9351 138.539ZM29.5835 140.055C29.6446 139.966 29.7668 139.938 29.8574 139.999C29.948 140.059 29.9736 140.183 29.9145 140.274L29.8968 140.301L29.8712 140.341L29.8475 140.378L29.8219 140.418L29.7983 140.455L29.7746 140.495L29.751 140.534L29.7273 140.572L29.7057 140.611L29.682 140.65L29.6604 140.69L29.6387 140.729L29.617 140.769L29.5973 140.808L29.5776 140.848L29.5559 140.889L29.5362 140.929L29.5323 140.937C29.485 141.033 29.3648 141.075 29.2683 141.027C29.1698 140.98 29.1284 140.862 29.1777 140.763L29.1836 140.751L29.2052 140.708L29.2249 140.666L29.2466 140.625L29.2703 140.579L29.2939 140.538L29.3156 140.495L29.3392 140.453L29.3629 140.412L29.3865 140.368L29.4121 140.327L29.4377 140.285L29.4633 140.242L29.4889 140.203L29.5146 140.161L29.5421 140.12L29.5697 140.08L29.5875 140.051L29.5835 140.055ZM28.7462 141.919C28.7718 141.813 28.8801 141.748 28.9846 141.773C29.091 141.801 29.156 141.907 29.1304 142.014L29.1225 142.05L29.1126 142.093L29.1028 142.134L29.0929 142.178L29.0851 142.221L29.0752 142.265L29.0673 142.308L29.0594 142.351L29.0516 142.397L29.0437 142.438L29.0378 142.482L29.0299 142.527L29.024 142.572L29.0181 142.616L29.0141 142.659L29.0082 142.703L29.0043 142.748V142.772C28.9925 142.88 28.8939 142.961 28.7856 142.951C28.6772 142.941 28.5964 142.845 28.6063 142.736V142.711L28.6142 142.661L28.6201 142.614L28.626 142.565L28.6339 142.517L28.6398 142.47L28.6457 142.422L28.6536 142.373L28.6634 142.326L28.6713 142.278L28.6812 142.233L28.691 142.184L28.7009 142.136L28.7107 142.091L28.7206 142.044L28.7304 141.996L28.7422 141.949L28.7521 141.913L28.7462 141.919ZM28.6358 143.967C28.6201 143.859 28.6949 143.758 28.8033 143.741C28.9117 143.727 29.0122 143.802 29.0279 143.91L29.0319 143.94L29.0397 143.985L29.0456 144.029L29.0535 144.07L29.0614 144.115L29.0693 144.159L29.0772 144.202L29.087 144.246L29.0949 144.289L29.1048 144.333L29.1146 144.374L29.1245 144.417L29.1343 144.461L29.1461 144.504L29.156 144.546L29.1678 144.589L29.1796 144.63L29.1895 144.66C29.221 144.765 29.1619 144.875 29.0575 144.909C28.953 144.94 28.8407 144.879 28.8092 144.776L28.7994 144.743L28.7875 144.698L28.7757 144.65L28.7639 144.603L28.7521 144.557L28.7403 144.512L28.7284 144.465L28.7186 144.417L28.7087 144.37L28.6989 144.325L28.689 144.277L28.6792 144.228L28.6693 144.183L28.6614 144.135L28.6516 144.088L28.6437 144.038L28.6378 143.991L28.6339 143.962L28.6358 143.967ZM29.2821 145.907C29.2289 145.812 29.2643 145.692 29.3609 145.637C29.4574 145.586 29.5776 145.619 29.6308 145.716L29.6407 145.733L29.6623 145.773L29.684 145.812L29.7076 145.852L29.7293 145.891L29.753 145.929L29.7766 145.968L29.8002 146.006L29.8239 146.045L29.8495 146.085L29.8731 146.122L29.8988 146.162L29.9244 146.199L29.95 146.237L29.9756 146.274L30.0012 146.314L30.0268 146.349L30.0386 146.363C30.1037 146.454 30.084 146.576 29.9953 146.641C29.9066 146.706 29.7825 146.687 29.7175 146.598L29.7057 146.582L29.6761 146.539L29.6485 146.499L29.621 146.46L29.5934 146.418L29.5678 146.377L29.5402 146.337L29.5126 146.296L29.487 146.254L29.4614 146.215L29.4358 146.172L29.4101 146.13L29.3845 146.089L29.3609 146.045L29.3372 146.004L29.3136 145.962L29.2919 145.919L29.2821 145.901V145.907ZM30.5095 147.531C30.4327 147.454 30.4307 147.328 30.5095 147.251C30.5864 147.172 30.7125 147.172 30.7893 147.251L30.7972 147.259L30.8307 147.294L30.8661 147.326L30.9016 147.361L30.9371 147.395L30.9725 147.427L31.008 147.458L31.0454 147.492L31.0829 147.525L31.1183 147.557L31.1577 147.588L31.1952 147.622L31.2326 147.653L31.272 147.685L31.3114 147.717L31.3508 147.748L31.3686 147.76C31.4533 147.829 31.4651 147.955 31.3961 148.04C31.3272 148.125 31.2011 148.137 31.1164 148.07L31.0967 148.054L31.0573 148.022L31.0179 147.989L30.9785 147.955L30.9371 147.922L30.8977 147.886L30.8583 147.855L30.8169 147.819L30.7795 147.786L30.7401 147.752L30.7026 147.717L30.6632 147.681L30.6258 147.646L30.5883 147.61L30.5509 147.575L30.5154 147.539L30.5076 147.531H30.5095ZM32.0975 148.784C32.0049 148.727 31.9774 148.605 32.0345 148.512C32.0936 148.419 32.2158 148.391 32.3084 148.449L32.3517 148.476L32.397 148.506L32.4404 148.533L32.4857 148.561L32.533 148.591L32.5783 148.616L32.6236 148.646L32.6709 148.672L32.7182 148.699L32.7655 148.727L32.8127 148.753L32.86 148.778L32.9093 148.804L32.9585 148.831L32.9861 148.845C33.0827 148.895 33.1201 149.017 33.0708 149.114C33.0196 149.21 32.8994 149.25 32.8029 149.198L32.7733 149.183L32.7241 149.157L32.6748 149.129L32.6256 149.102L32.5763 149.072L32.529 149.047L32.4798 149.017L32.4305 148.989L32.3832 148.962L32.334 148.932L32.2867 148.902L32.2394 148.873L32.1902 148.843L32.1429 148.814L32.0995 148.784H32.0975ZM33.9003 149.696C33.7979 149.656 33.7486 149.54 33.788 149.439C33.8274 149.335 33.9437 149.285 34.0461 149.327L34.0658 149.335L34.119 149.354L34.1722 149.376L34.2254 149.398L34.2786 149.416L34.3318 149.437L34.387 149.455L34.4402 149.477L34.4934 149.494L34.5466 149.514L34.5998 149.532L34.6549 149.55L34.7101 149.569L34.7653 149.587L34.779 149.591C34.8835 149.623 34.9406 149.737 34.9091 149.84C34.8756 149.944 34.7633 150.002 34.6589 149.968L34.6431 149.964L34.586 149.946L34.5288 149.927L34.4717 149.907L34.4146 149.889L34.3574 149.867L34.3003 149.848L34.2451 149.828L34.1899 149.808L34.1348 149.788L34.0796 149.767L34.0244 149.745L33.9693 149.723L33.9161 149.704L33.8964 149.696H33.9003ZM35.8252 150.286C35.7189 150.262 35.6499 150.155 35.6735 150.049C35.6952 149.942 35.8036 149.875 35.91 149.899L35.9632 149.911L36.0223 149.923L36.0814 149.932L36.1405 149.946L36.1996 149.956L36.2607 149.968L36.3198 149.98L36.3809 149.99L36.44 150L36.4991 150.009L36.5601 150.019L36.6212 150.029L36.6803 150.039C36.7887 150.057 36.8616 150.159 36.8439 150.268C36.8261 150.376 36.7237 150.449 36.6153 150.434L36.5542 150.424L36.4932 150.414L36.4321 150.404L36.369 150.394L36.308 150.382L36.2469 150.371L36.1858 150.361L36.1247 150.349L36.0636 150.337L36.0026 150.325L35.9435 150.313L35.8824 150.3L35.8292 150.29L35.8252 150.286ZM37.8112 150.584C37.7009 150.574 37.6201 150.479 37.628 150.371C37.6359 150.262 37.7324 150.179 37.8408 150.187H37.8507L37.9137 150.193L37.9767 150.197L38.0398 150.201L38.1028 150.207L38.1659 150.211H38.2289L38.292 150.217L38.355 150.221H38.4201L38.4851 150.225H38.5501L38.6131 150.228H38.619C38.7294 150.228 38.8161 150.321 38.8141 150.43C38.8141 150.54 38.7235 150.627 38.6131 150.627H38.6053L38.5383 150.623H38.4732L38.4063 150.619L38.3412 150.615H38.2762L38.2112 150.611L38.1462 150.607L38.0792 150.603L38.0142 150.597L37.9511 150.594L37.8861 150.588L37.8211 150.584H37.8093H37.8112ZM39.8209 150.597C39.7125 150.605 39.618 150.522 39.6101 150.414C39.6042 150.305 39.6869 150.209 39.7953 150.203L39.8386 150.199L39.9017 150.195L39.9647 150.191L40.0278 150.185L40.0908 150.179L40.1539 150.173L40.2169 150.167L40.278 150.161L40.341 150.155L40.4021 150.148L40.4652 150.14L40.5262 150.134L40.5716 150.128C40.6799 150.114 40.7804 150.193 40.7922 150.3C40.806 150.408 40.7272 150.509 40.6208 150.521L40.5716 150.528L40.5085 150.534L40.4435 150.542L40.3804 150.55L40.3154 150.558L40.2504 150.562L40.1874 150.57L40.1223 150.576L40.0573 150.582L39.9923 150.586L39.9273 150.592L39.8642 150.595H39.8209V150.597ZM41.8128 150.339C41.7044 150.361 41.6 150.29 41.5783 150.185C41.5567 150.077 41.6256 149.972 41.732 149.95H41.7419L41.801 149.936L41.8621 149.927L41.9212 149.915L41.9783 149.903L42.0374 149.889L42.0965 149.875L42.1556 149.861L42.2147 149.85L42.2719 149.836L42.331 149.822L42.3881 149.806L42.4472 149.792L42.4985 149.779C42.6048 149.751 42.7132 149.814 42.7408 149.919C42.7703 150.027 42.7073 150.134 42.6009 150.163L42.5457 150.177L42.4866 150.193L42.4275 150.207L42.3684 150.223L42.3073 150.236L42.2482 150.25L42.1891 150.264L42.128 150.278L42.0689 150.29L42.0079 150.301L41.9468 150.315L41.8857 150.327L41.8246 150.339H41.8148H41.8128ZM43.7496 149.786C43.6471 149.826 43.5328 149.775 43.4934 149.672C43.454 149.571 43.5052 149.457 43.6077 149.417L43.657 149.4L43.7102 149.378L43.7633 149.356L43.8165 149.337L43.8697 149.315L43.921 149.295L43.9722 149.273L44.0234 149.252L44.0746 149.228L44.1259 149.206L44.1771 149.183L44.2264 149.161L44.2776 149.139L44.3249 149.118C44.4253 149.07 44.5436 149.118 44.5869 149.216C44.6322 149.317 44.5869 149.433 44.4864 149.481L44.4391 149.502L44.3879 149.524L44.3327 149.55L44.2796 149.571L44.2264 149.595L44.1732 149.619L44.12 149.64L44.0648 149.662L44.0096 149.686L43.9545 149.708L43.8993 149.727L43.8461 149.749L43.7909 149.771L43.7417 149.788L43.7496 149.786ZM45.5681 148.92C45.4755 148.974 45.3514 148.946 45.2962 148.849C45.241 148.756 45.2726 148.634 45.3652 148.579L45.3947 148.561L45.44 148.533L45.4834 148.506L45.5287 148.476L45.574 148.447L45.6193 148.417L45.6646 148.389L45.708 148.36L45.7513 148.33L45.7947 148.301L45.838 148.271L45.8814 148.241L45.9247 148.212L45.968 148.182L46.0094 148.151L46.0173 148.145C46.106 148.08 46.2301 148.101 46.2931 148.19C46.3582 148.279 46.3365 148.403 46.2478 148.468L46.238 148.476L46.1927 148.508L46.1493 148.537L46.104 148.569L46.0587 148.599L46.0134 148.628L45.968 148.66L45.9208 148.689L45.8754 148.721L45.8301 148.751L45.7828 148.78L45.7375 148.81L45.6902 148.839L45.641 148.869L45.5937 148.899L45.5641 148.916L45.5681 148.92ZM47.1896 147.711C47.1108 147.784 46.9847 147.782 46.9098 147.703C46.835 147.624 46.8389 147.496 46.9177 147.421L46.9453 147.397L46.9808 147.363L47.0162 147.328L47.0517 147.296L47.0871 147.261L47.1206 147.227L47.1541 147.194L47.1876 147.16L47.2211 147.125L47.2546 147.091L47.2861 147.056L47.3196 147.022L47.3512 146.986L47.3827 146.951L47.4142 146.915L47.4457 146.88L47.4536 146.872C47.5245 146.789 47.6506 146.781 47.7334 146.85C47.8161 146.919 47.826 147.046 47.7551 147.129L47.7452 147.142L47.7117 147.178L47.6782 147.217L47.6447 147.253L47.6112 147.29L47.5777 147.328L47.5423 147.363L47.5068 147.401L47.4713 147.436L47.4359 147.474L47.4004 147.509L47.3649 147.545L47.3275 147.58L47.2901 147.616L47.2526 147.651L47.2152 147.687L47.1876 147.713L47.1896 147.711ZM48.4742 146.132C48.419 146.227 48.2969 146.26 48.2023 146.201C48.1077 146.148 48.0762 146.026 48.1314 145.931L48.153 145.897L48.1747 145.858L48.1984 145.818L48.22 145.779L48.2417 145.739L48.2634 145.7L48.2831 145.66L48.3028 145.621L48.3245 145.58L48.3442 145.54L48.3639 145.499L48.3836 145.459L48.4033 145.42L48.421 145.378L48.4407 145.337L48.4584 145.297L48.4762 145.256L48.4801 145.248C48.5235 145.147 48.6397 145.1 48.7402 145.144C48.8407 145.187 48.8879 145.303 48.8466 145.404L48.8407 145.414L48.821 145.457L48.8013 145.503L48.7816 145.546L48.7618 145.589L48.7421 145.635L48.7224 145.678L48.7027 145.722L48.6811 145.763L48.6594 145.807L48.6377 145.848L48.6161 145.891L48.5924 145.935L48.5707 145.978L48.5471 146.02L48.5234 146.061L48.4998 146.104L48.4781 146.138L48.4742 146.132ZM49.2052 144.222C49.1854 144.331 49.083 144.402 48.9746 144.382C48.8663 144.362 48.7953 144.258 48.815 144.151L48.821 144.119L48.8288 144.074L48.8367 144.033L48.8426 143.989L48.8485 143.944L48.8545 143.898L48.8604 143.855L48.8643 143.812L48.8702 143.768L48.8742 143.723L48.8781 143.677L48.882 143.632L48.886 143.589V143.543L48.8919 143.5V143.454L48.8958 143.409V143.387C48.8998 143.277 48.9904 143.192 49.1007 143.194C49.2111 143.194 49.2958 143.287 49.2938 143.397V143.425L49.2899 143.474V143.522L49.284 143.571V143.62L49.2781 143.67L49.2741 143.717L49.2702 143.764L49.2662 143.814L49.2603 143.861L49.2544 143.91L49.2465 143.958L49.2406 144.005L49.2347 144.052L49.2268 144.102L49.217 144.149L49.2091 144.196L49.2032 144.23L49.2052 144.222ZM49.1894 142.172C49.2111 142.28 49.1441 142.383 49.0357 142.407C48.9273 142.43 48.8229 142.361 48.8013 142.255L48.7953 142.225L48.7855 142.182L48.7756 142.138L48.7658 142.097L48.7559 142.053L48.7461 142.01L48.7343 141.967L48.7244 141.923L48.7126 141.882L48.7008 141.84L48.689 141.799L48.6752 141.756L48.6633 141.712L48.6495 141.669L48.6358 141.627L48.622 141.586L48.6062 141.542L48.5963 141.513C48.5589 141.41 48.6121 141.296 48.7146 141.26C48.817 141.223 48.9333 141.274 48.9687 141.379L48.9805 141.414L48.9963 141.458L49.0121 141.503L49.0278 141.548L49.0416 141.594L49.0554 141.639L49.0692 141.684L49.083 141.73L49.0948 141.777L49.1066 141.825L49.1185 141.872L49.1303 141.917L49.1421 141.963L49.1539 142.01L49.1638 142.057L49.1736 142.105L49.1835 142.15L49.1894 142.178V142.172ZM48.4328 140.274C48.49 140.364 48.4624 140.489 48.3698 140.546C48.2772 140.605 48.153 140.576 48.0959 140.483L48.0821 140.459L48.0585 140.422L48.0329 140.382L48.0072 140.345L47.9816 140.305L47.956 140.268L47.9304 140.23L47.9048 140.193L47.8772 140.153L47.8516 140.118L47.824 140.08L47.7964 140.043L47.7688 140.003L47.7393 139.968L47.7117 139.93L47.6822 139.893L47.6526 139.857V139.853C47.5817 139.766 47.5955 139.642 47.6822 139.573C47.7669 139.504 47.893 139.52 47.9619 139.605L47.9659 139.609L47.9954 139.648L48.025 139.688L48.0545 139.727L48.0841 139.768L48.1136 139.806L48.1432 139.845L48.1727 139.885L48.2023 139.928L48.2299 139.968L48.2575 140.007L48.2851 140.049L48.3107 140.09L48.3382 140.13L48.3639 140.171L48.3914 140.212L48.4171 140.252L48.4308 140.276L48.4328 140.274ZM47.1325 138.709C47.2132 138.782 47.2192 138.91 47.1463 138.989C47.0734 139.07 46.9473 139.076 46.8665 139.003L46.8369 138.975L46.7995 138.942L46.764 138.91L46.7246 138.877L46.6872 138.843L46.6497 138.811L46.6103 138.78L46.5709 138.748L46.5315 138.717L46.4921 138.685L46.4527 138.654L46.4133 138.622L46.3739 138.59L46.3345 138.559L46.2951 138.529L46.2675 138.508C46.1808 138.44 46.1631 138.316 46.2281 138.229C46.2951 138.143 46.4192 138.125 46.5059 138.19L46.5335 138.212L46.5769 138.245L46.6182 138.279L46.6576 138.31L46.699 138.342L46.7404 138.375L46.7818 138.409L46.8212 138.44L46.8606 138.474L46.9 138.508L46.9413 138.541L46.9808 138.577L47.0202 138.61L47.0596 138.646L47.097 138.679L47.1265 138.707L47.1325 138.709ZM45.5031 137.513C45.5976 137.568 45.6292 137.691 45.574 137.785C45.5188 137.88 45.3967 137.912 45.3021 137.856L45.2568 137.829L45.2095 137.803L45.1622 137.776L45.1149 137.748L45.0676 137.722L45.0223 137.699L44.9731 137.671L44.9238 137.645L44.8746 137.62L44.8253 137.594L44.7761 137.568L44.7268 137.545L44.6775 137.519L44.6283 137.495L44.6105 137.487C44.512 137.44 44.4707 137.32 44.518 137.223C44.5652 137.124 44.6854 137.083 44.7839 137.13L44.8036 137.138L44.8549 137.164L44.9061 137.189L44.9553 137.215L45.0046 137.241L45.0558 137.266L45.1051 137.294L45.1543 137.32L45.2036 137.345L45.2528 137.373L45.3021 137.401L45.3494 137.426L45.3986 137.454L45.4479 137.482L45.4952 137.509L45.5031 137.513ZM43.6767 136.659C43.7791 136.696 43.8323 136.811 43.7949 136.913C43.7574 137.016 43.6432 137.069 43.5407 137.032L43.4974 137.016L43.4442 136.996L43.391 136.976L43.3378 136.957L43.2826 136.939L43.2274 136.919L43.1723 136.901L43.1171 136.884L43.0619 136.866L43.0068 136.848L42.9516 136.83L42.8964 136.815L42.8393 136.797L42.7999 136.785C42.6955 136.755 42.6364 136.643 42.6659 136.538C42.6955 136.434 42.8078 136.375 42.9122 136.404L42.9536 136.416L43.0107 136.434L43.0679 136.452L43.125 136.469L43.1821 136.487L43.2393 136.505L43.2964 136.525L43.3535 136.544L43.4107 136.564L43.4678 136.584L43.5249 136.603L43.5821 136.623L43.6373 136.643L43.6806 136.659H43.6767ZM41.7399 136.116C41.8463 136.138 41.9172 136.242 41.8956 136.349C41.8759 136.457 41.7695 136.526 41.6631 136.507L41.6237 136.499L41.5646 136.487L41.5035 136.475L41.4444 136.465L41.3853 136.455L41.3242 136.446L41.2631 136.436L41.202 136.426L41.1429 136.416L41.0819 136.406L41.0208 136.396L40.9597 136.386L40.8986 136.377H40.8907C40.7824 136.361 40.7055 136.26 40.7213 136.152C40.7371 136.043 40.8375 135.966 40.9439 135.982H40.9538L41.0168 135.992L41.0799 136.002L41.141 136.011L41.204 136.021L41.2671 136.031L41.3301 136.041L41.3912 136.051L41.4523 136.063L41.5153 136.073L41.5764 136.084L41.6375 136.096L41.6985 136.108L41.7379 136.116H41.7399Z" fill="#A4D0FC"/>
<path d="M39.2401 137.523C41.8386 137.523 43.945 135.413 43.945 132.811C43.945 130.208 41.8386 128.099 39.2401 128.099C36.6416 128.099 34.5352 130.208 34.5352 132.811C34.5352 135.413 36.6416 137.523 39.2401 137.523Z" fill="#ED5D1F"/>
<path fill-rule="evenodd" clip-rule="evenodd" d="M34.75 132.651C34.75 130.048 36.8582 127.939 39.4549 127.939C42.0517 127.939 44.1599 130.048 44.1599 132.651C44.1599 135.254 42.0517 137.363 39.4549 137.363C36.8582 137.363 34.75 135.254 34.75 132.651Z" fill="#E63114"/>
<path fill-rule="evenodd" clip-rule="evenodd" d="M35.3984 132.746C35.3984 130.536 37.1854 128.746 39.3921 128.746C41.5988 128.746 43.3858 130.538 43.3858 132.746C43.3858 134.954 41.5988 136.746 39.3921 136.746C37.1854 136.746 35.3984 134.956 35.3984 132.746Z" fill="#ED5D1F"/>
<path d="M43.4002 133.29C43.7513 131.109 42.2707 129.056 40.0932 128.705C37.9157 128.353 35.8658 129.836 35.5147 132.017C35.1635 134.197 36.6441 136.25 38.8217 136.602C40.9992 136.954 43.0491 135.471 43.4002 133.29Z" fill="#FC9774"/>
<g opacity="0.29">
<path fill-rule="evenodd" clip-rule="evenodd" d="M36.3196 133.809C35.8153 131.925 36.9304 129.989 38.812 129.486C39.9114 129.19 41.0285 129.45 41.8678 130.094C41.0068 129.229 39.7203 128.837 38.4574 129.174C36.5758 129.679 35.4606 131.615 35.965 133.497C36.1738 134.281 36.6309 134.93 37.226 135.388C36.8043 134.965 36.4851 134.429 36.3196 133.809Z" fill="#FFE2DC"/>
</g>
<path fill-rule="evenodd" clip-rule="evenodd" d="M39.299 130.125C38.6823 130.129 38.1858 130.635 38.1898 131.252C38.1937 131.87 38.6981 132.367 39.3148 132.363C39.9314 132.359 40.4279 131.854 40.422 131.236C40.4181 130.619 39.9137 130.122 39.297 130.127L39.299 130.125ZM39.3187 132.744C38.176 132.752 37.2539 133.687 37.2618 134.834C37.2618 135.134 37.51 135.374 37.8095 135.374L40.8653 135.353C41.1648 135.351 41.4072 135.104 41.4052 134.804C41.3973 133.658 40.4634 132.736 39.3187 132.744Z" fill="#E63114"/>
<path fill-rule="evenodd" clip-rule="evenodd" d="M39.4201 130.029C38.8034 130.033 38.3089 130.538 38.3108 131.156C38.3148 131.773 38.8192 132.268 39.4359 132.264C40.0525 132.261 40.549 131.755 40.5431 131.14C40.5392 130.522 40.0348 130.025 39.4181 130.031L39.4201 130.029ZM39.4398 132.647C38.2971 132.657 37.375 133.59 37.3829 134.737C37.3829 135.037 37.6311 135.28 37.9306 135.278L40.9864 135.256C41.2859 135.256 41.5282 135.007 41.5263 134.707C41.5164 133.561 40.5845 132.639 39.4398 132.647Z" fill="white"/>
<g opacity="0.42">
<path fill-rule="evenodd" clip-rule="evenodd" d="M41.5435 129.237C41.9415 129.859 42.172 130.599 42.172 131.392C42.172 133.602 40.385 135.392 38.1783 135.392C37.4119 135.392 36.6967 135.175 36.0898 134.802C36.7991 135.911 38.0424 136.647 39.455 136.647C41.6617 136.647 43.4487 134.855 43.4487 132.647C43.4487 131.207 42.6862 129.942 41.5435 129.237Z" fill="#FBBFA8"/>
</g>
<path fill-rule="evenodd" clip-rule="evenodd" d="M21.9258 145.228C21.9258 142.625 24.032 140.516 26.6307 140.516C29.2295 140.516 31.3357 142.627 31.3357 145.228C31.3357 147.829 29.2275 149.94 26.6307 149.94C24.0339 149.94 21.9258 147.831 21.9258 145.228Z" fill="#ED5D1F"/>
<path fill-rule="evenodd" clip-rule="evenodd" d="M22.1406 145.068C22.1406 142.464 24.2488 140.356 26.8456 140.356C29.4423 140.356 31.5505 142.466 31.5505 145.068C31.5505 147.671 29.4443 149.781 26.8456 149.781C24.2468 149.781 22.1406 147.669 22.1406 145.068Z" fill="#E63114"/>
<path fill-rule="evenodd" clip-rule="evenodd" d="M22.7891 145.163C22.7891 142.953 24.578 141.164 26.7827 141.164C28.9874 141.164 30.7764 142.953 30.7764 145.163C30.7764 147.373 28.9894 149.163 26.7827 149.163C24.5761 149.163 22.7891 147.371 22.7891 145.163Z" fill="#ED5D1F"/>
<path fill-rule="evenodd" clip-rule="evenodd" d="M22.8516 145.069C22.8516 142.859 24.6405 141.069 26.8452 141.069C29.0499 141.069 30.8389 142.861 30.8389 145.069C30.8389 147.277 29.0499 149.068 26.8452 149.068C24.6405 149.068 22.8516 147.277 22.8516 145.069Z" fill="#FC9774"/>
<g opacity="0.29">
<path fill-rule="evenodd" clip-rule="evenodd" d="M23.7101 146.227C23.2058 144.342 24.3229 142.409 26.2025 141.901C27.3019 141.607 28.419 141.866 29.2583 142.509C28.3973 141.645 27.1108 141.252 25.8478 141.592C23.9682 142.097 22.8511 144.033 23.3555 145.915C23.5643 146.698 24.0214 147.348 24.6184 147.805C24.1968 147.383 23.8776 146.846 23.7101 146.229V146.227Z" fill="#FFE2DC"/>
</g>
<path fill-rule="evenodd" clip-rule="evenodd" d="M26.6896 142.543C26.0729 142.547 25.5764 143.052 25.5804 143.67C25.5843 144.287 26.0887 144.783 26.7054 144.781C27.3221 144.775 27.8166 144.272 27.8127 143.654C27.8068 143.036 27.3043 142.539 26.6877 142.543H26.6896ZM26.7093 145.161C25.5646 145.169 24.6445 146.105 24.6524 147.251C24.6544 147.551 24.9006 147.794 25.2001 147.792L28.256 147.77C28.5554 147.766 28.7978 147.521 28.7958 147.22C28.7879 146.073 27.854 145.152 26.7093 145.161Z" fill="#E63114"/>
<path fill-rule="evenodd" clip-rule="evenodd" d="M26.8107 142.444C26.194 142.448 25.6995 142.953 25.7034 143.571C25.7074 144.188 26.2117 144.683 26.8284 144.68C27.4451 144.674 27.9416 144.17 27.9357 143.553C27.9318 142.935 27.4274 142.438 26.8107 142.444ZM26.8304 145.06C25.6877 145.07 24.7676 146.006 24.7735 147.15C24.7754 147.45 25.0217 147.693 25.3212 147.691L28.377 147.667C28.6765 147.667 28.9189 147.42 28.9169 147.12C28.909 145.974 27.9751 145.051 26.8304 145.058V145.06Z" fill="white"/>
<g opacity="0.42">
<path fill-rule="evenodd" clip-rule="evenodd" d="M28.9341 141.655C29.3321 142.278 29.5626 143.016 29.5626 143.808C29.5626 146.018 27.7736 147.809 25.5689 147.809C24.8025 147.809 24.0873 147.592 23.4805 147.217C24.1898 148.326 25.433 149.064 26.8456 149.064C29.0523 149.064 30.8393 147.273 30.8393 145.064C30.8393 143.622 30.0768 142.359 28.9361 141.655H28.9341Z" fill="#FBBFA8"/>
</g>
<path fill-rule="evenodd" clip-rule="evenodd" d="M46.9023 145.228C46.9023 142.625 49.0085 140.516 51.6073 140.516C54.206 140.516 56.3122 142.627 56.3122 145.228C56.3122 147.829 54.206 149.94 51.6073 149.94C49.0085 149.94 46.9023 147.831 46.9023 145.228Z" fill="#ED5D1F"/>
<path fill-rule="evenodd" clip-rule="evenodd" d="M47.1172 145.068C47.1172 142.464 49.2253 140.356 51.8221 140.356C54.4189 140.356 56.5271 142.466 56.5271 145.068C56.5271 147.671 54.4209 149.781 51.8221 149.781C49.2234 149.781 47.1172 147.669 47.1172 145.068Z" fill="#E63114"/>
<path fill-rule="evenodd" clip-rule="evenodd" d="M47.7656 145.163C47.7656 142.953 49.5526 141.164 51.7593 141.164C53.966 141.164 55.753 142.953 55.753 145.163C55.753 147.373 53.964 149.163 51.7593 149.163C49.5546 149.163 47.7656 147.371 47.7656 145.163Z" fill="#ED5D1F"/>
<path fill-rule="evenodd" clip-rule="evenodd" d="M47.832 145.069C47.832 142.859 49.621 141.069 51.8257 141.069C54.0304 141.069 55.8194 142.861 55.8194 145.069C55.8194 147.277 54.0304 149.068 51.8257 149.068C49.621 149.068 47.832 147.277 47.832 145.069Z" fill="#FC9774"/>
<g opacity="0.29">
<path fill-rule="evenodd" clip-rule="evenodd" d="M48.6867 146.227C48.1823 144.342 49.2994 142.409 51.1791 141.901C52.2785 141.607 53.3956 141.866 54.2349 142.509C53.3739 141.645 52.0873 141.252 50.8244 141.592C48.9448 142.097 47.8277 144.033 48.3321 145.915C48.5409 146.698 48.998 147.348 49.595 147.805C49.1733 147.383 48.8542 146.846 48.6867 146.229V146.227Z" fill="#FFE2DC"/>
</g>
<path fill-rule="evenodd" clip-rule="evenodd" d="M51.6662 142.543C51.0495 142.547 50.553 143.052 50.5589 143.67C50.5629 144.287 51.0672 144.783 51.6839 144.781C52.3006 144.775 52.7951 144.272 52.7932 143.654C52.7873 143.036 52.2848 142.539 51.6682 142.543H51.6662ZM51.6859 145.161C50.5412 145.169 49.6211 146.105 49.629 147.251C49.6309 147.551 49.8772 147.794 50.1767 147.792L53.2325 147.77C53.532 147.766 53.7743 147.521 53.7724 147.22C53.7645 146.073 52.8306 145.152 51.6859 145.161Z" fill="#E63114"/>
<path fill-rule="evenodd" clip-rule="evenodd" d="M51.7892 142.444C51.1725 142.448 50.676 142.953 50.682 143.571C50.6859 144.188 51.1903 144.683 51.807 144.68C52.4236 144.674 52.9201 144.17 52.9142 143.553C52.9103 142.935 52.4059 142.438 51.7912 142.444H51.7892ZM51.807 145.06C50.6642 145.07 49.7441 146.006 49.75 147.15C49.75 147.45 49.9983 147.693 50.2978 147.691L53.3536 147.667C53.6531 147.667 53.8954 147.42 53.8934 147.12C53.8856 145.974 52.9517 145.051 51.807 145.058V145.06Z" fill="white"/>
<g opacity="0.42">
<path fill-rule="evenodd" clip-rule="evenodd" d="M53.9107 141.655C54.3086 142.278 54.5392 143.016 54.5392 143.808C54.5392 146.018 52.7522 147.809 50.5455 147.809C49.7791 147.809 49.0639 147.592 48.457 147.217C49.1663 148.326 50.4095 149.064 51.8222 149.064C54.0289 149.064 55.8159 147.273 55.8159 145.064C55.8159 143.622 55.0534 142.359 53.9107 141.655Z" fill="#FBBFA8"/>
</g>
<path fill-rule="evenodd" clip-rule="evenodd" d="M120.929 174.774C120.929 174.774 122.281 173.132 123.006 172.903C123.731 172.674 125.139 171.581 125.323 172.031C125.506 172.481 124.377 173.171 124.438 173.684C124.497 174.197 128.026 175.022 128.004 175.567C127.983 176.109 127.175 177.422 125.827 177.274C124.481 177.122 121.069 176.311 120.368 176.662C119.668 177.013 120.929 174.774 120.929 174.774Z" fill="#FFB27D"/>
<path fill-rule="evenodd" clip-rule="evenodd" d="M84.5402 166.786C86.5321 169.466 88.8649 171.583 91.2627 173.252C98.8816 178.56 107.145 179.349 107.145 179.349C109.125 178.714 115.209 178.053 118.803 177.471C120.371 177.22 121.463 176.982 121.537 176.772L121.449 173.637C121.449 173.637 108.254 172.938 106.069 171.924C102.623 168.952 99.5791 165.091 97.597 162.076C95.9223 159.528 94.0466 157.646 90.9553 156.543C86.4848 154.947 78.3576 158.463 84.5422 166.786H84.5402Z" fill="#E63114"/>
<path fill-rule="evenodd" clip-rule="evenodd" d="M90.5879 171.277L91.2598 173.25C98.8787 178.558 107.142 179.347 107.142 179.347C108.732 179.347 115.206 178.051 118.8 177.469C118.658 177.481 109.012 178.238 106.88 178.017C104.732 177.794 94.7333 169.116 94.7333 169.116L90.5859 171.277H90.5879Z" fill="#F06A30"/>
<path fill-rule="evenodd" clip-rule="evenodd" d="M99.2014 270.658H84.6196C83.5754 269.948 84.9013 263.01 84.9013 263.01C84.9013 263.01 88.8812 261.498 89.5688 264.572C90.2584 267.645 94.6383 268.624 96.9553 268.998C98.5413 269.257 99.0418 270.127 99.2014 270.658Z" fill="#284191"/>
<path fill-rule="evenodd" clip-rule="evenodd" d="M77.5764 270.658H62.9946C61.9504 269.948 63.2763 263.01 63.2763 263.01C63.2763 263.01 67.2562 261.498 67.9438 264.572C68.6334 267.645 73.0133 268.624 75.3303 268.998C76.9163 269.257 77.4187 270.127 77.5764 270.658Z" fill="#284191"/>
<path fill-rule="evenodd" clip-rule="evenodd" d="M95.2821 199.887C95.2821 199.887 94.6261 208.075 93.8557 217.92C92.8095 231.292 89.9842 264.446 89.9842 264.446C89.9842 264.446 88.1321 266.027 84.0321 265.162C84.0321 265.162 80.5428 253.724 79.4985 240.669C79.4828 240.456 79.467 240.239 79.4493 240.024C78.4799 226.734 76.9688 198.752 76.9688 198.752L95.2802 199.885L95.2821 199.887Z" fill="#5418A3"/>
<path fill-rule="evenodd" clip-rule="evenodd" d="M95.5048 197.057C95.5048 197.057 94.626 208.076 93.8557 217.92L79.4985 240.671C79.4828 240.458 79.467 240.241 79.4493 240.026C78.4799 226.736 76.9688 198.754 76.9688 198.754L95.5048 197.057Z" fill="#391F71"/>
<path fill-rule="evenodd" clip-rule="evenodd" d="M91.3196 197.057C91.3196 197.057 80.9068 223.015 77.5771 232.855C75.2069 239.864 68.5199 264.454 68.5199 264.454C68.5199 264.454 65.6118 265.34 63.1668 263.625C63.1668 263.625 60.6784 238.506 65.7044 231.423C68.3702 227.666 66.3664 192.359 77.1772 192.057C87.9879 191.753 91.3196 197.059 91.3196 197.059V197.057Z" fill="#5418A3"/>
<path fill-rule="evenodd" clip-rule="evenodd" d="M86.6698 158.79C85.0798 159.627 83.5292 159.68 82.1835 159.394C80.9521 159.136 79.8961 158.591 79.1435 158.11C78.3731 157.616 77.918 157.184 77.918 157.184C77.918 157.184 77.9712 157.105 78.0618 156.953C78.5307 156.146 79.9552 153.255 79.3228 148.609C79.3129 148.547 79.7739 148.634 80.4675 148.796C82.5342 149.287 86.6875 150.467 86.8707 150.519H86.8786C86.8786 150.519 86.9298 151.495 87.1013 153.25C87.1151 153.403 87.1308 153.565 87.1485 153.733C87.1702 153.938 87.1899 154.155 87.2175 154.38C87.4086 156.203 86.6717 158.79 86.6717 158.79H86.6698Z" fill="#FFB27D"/>
<path fill-rule="evenodd" clip-rule="evenodd" d="M87.098 153.252C84.0126 153.96 79.4102 149.4 79.4102 149.4C79.7471 149.152 80.0997 148.95 80.4662 148.8C82.533 149.292 86.6863 150.472 86.8695 150.523H86.8774C86.8774 150.523 86.9286 151.5 87.1 153.254L87.098 153.252Z" fill="#F08261"/>
<path fill-rule="evenodd" clip-rule="evenodd" d="M88.046 150.847C88.046 150.847 86.7338 151.318 85.0611 151.543C82.616 151.873 79.4006 151.679 78.3898 148.715C76.6895 143.727 74.5144 140.738 79.5227 138.701C82.2023 137.61 83.9183 137.553 85.0828 137.969C86.0935 138.329 86.6905 139.047 87.1436 139.755C88.115 141.282 90.0714 149.972 88.046 150.847Z" fill="#FFB27D"/>
<path fill-rule="evenodd" clip-rule="evenodd" d="M82.93 140.74C81.6848 141.294 81.4622 143.386 81.4386 144.051C81.4169 144.716 81.3282 145.278 79.6378 144.879C79.3619 144.814 79.161 144.834 79.025 144.917C78.3236 145.333 79.2201 147.352 79.49 147.79C79.49 147.79 79.8781 149.238 79.0152 149.941C78.9107 150.025 77.2144 150.767 73.1261 144.502C72.4838 143.518 71.8691 141.191 72.8621 139.06C71.2702 133.391 87.9876 131.286 90.1372 135.149C94.0284 142.158 81.277 140.242 82.93 140.74Z" fill="#284191"/>
<path fill-rule="evenodd" clip-rule="evenodd" d="M96.9103 192.687C96.6857 195.66 96.0572 197.791 94.6819 197.791C94.6819 197.791 88.5643 199.948 81.2528 200.005C79.8243 200.013 77.8009 199.735 76.1223 199.455C74.4081 199.165 73.0506 198.871 73.0506 198.871C71.5808 198.529 69.9593 197.62 70.1761 195.94C70.2982 194.989 70.3849 193.752 70.444 192.314C70.6056 188.422 70.578 183.065 70.5997 177.939C70.6135 174.788 70.645 171.725 70.7494 169.142C70.7494 169.142 69.3052 158.994 70.909 157.331C72.7866 155.383 78.2994 154.783 78.6442 154.86C78.7486 154.838 78.853 154.811 78.9574 154.795C78.9574 154.795 83.6525 157.443 87.1398 155.482C87.1398 155.482 87.1733 155.489 87.2384 155.497C88.0875 155.632 92.3275 156.612 93.7914 158.165C94.2958 158.696 96.3133 161.973 96.3685 165.573C96.4453 170.587 96.2483 176.285 96.2483 176.285C96.2995 177.098 96.3882 178.15 96.4827 179.348C96.5852 180.626 96.6975 182.069 96.794 183.572C96.8413 184.332 96.8866 185.103 96.9221 185.881C97.0305 188.269 97.064 190.672 96.9122 192.687H96.9103Z" fill="#E63114"/>
<path fill-rule="evenodd" clip-rule="evenodd" d="M78.6641 154.868C78.6641 154.868 83.8596 160.235 87.5735 159.134C87.5735 159.134 88.068 158.41 86.3953 158.179C84.7226 157.946 82.9158 158.043 78.6641 154.868Z" fill="#F06A30"/>
<path fill-rule="evenodd" clip-rule="evenodd" d="M75.371 173.728C75.371 173.728 75.3808 188.243 70.4414 192.317C70.603 188.426 70.5754 183.069 70.5971 177.942L75.371 173.73V173.728Z" fill="#F06A30"/>
<path fill-rule="evenodd" clip-rule="evenodd" d="M60.1845 200.899C60.1845 200.899 57.6685 204.853 57.5286 206.367C57.434 207.397 57.6645 211.454 58.1768 211.467C58.8999 211.487 59.6249 208.963 59.9047 208.31C60.1845 207.653 60.5115 207.14 60.7933 207.14C61.075 207.14 60.1864 209.666 60.7933 209.386C61.4001 209.106 62.4286 206.767 62.5212 206.207C62.6138 205.643 61.9735 203.845 62.2867 203.137C62.6 202.428 60.1864 200.901 60.1864 200.901L60.1845 200.899Z" fill="#FFB27D"/>
<path fill-rule="evenodd" clip-rule="evenodd" d="M71.386 156.784C71.386 156.784 67.9873 158.392 65.1384 170.294C62.9908 179.266 58.8789 202.179 58.8789 202.179L62.3564 203.61C62.3564 203.61 75.092 174.328 76.9125 170.209C78.735 166.091 71.386 156.784 71.386 156.784Z" fill="#E63114"/>
<path fill-rule="evenodd" clip-rule="evenodd" d="M86.5147 137.693C88.0593 138.184 88.7056 138.981 88.4593 140.082C86.6092 141.523 84.6488 142.042 82.5781 141.641C83.6992 141.308 85.0114 139.99 86.5147 137.693Z" fill="#284191"/>
<path fill-rule="evenodd" clip-rule="evenodd" d="M73.4848 140.266C73.8336 139.544 73.7705 139.042 73.2937 138.754C72.147 138.928 71.2959 139.453 70.7344 140.333C71.2348 140.043 72.153 140.021 73.4848 140.264V140.266Z" fill="#284191"/>
<path fill-rule="evenodd" clip-rule="evenodd" d="M75.2273 140.033C75.0322 141.101 74.5594 141.6 73.8087 141.527C72.6975 140.42 72.1852 139.161 72.2758 137.75C72.5931 138.466 73.5762 139.228 75.2273 140.033Z" fill="#284191"/>
<path fill-rule="evenodd" clip-rule="evenodd" d="M7.58132 230.913H43.8239C44.3992 230.913 44.8662 230.446 44.8662 229.87C44.8662 229.293 44.3992 228.826 43.8239 228.826H7.58132C7.00404 228.826 6.53906 229.293 6.53906 229.87C6.53906 230.446 7.00404 230.913 7.58132 230.913ZM59.3573 222.271H63.6721C64.2474 222.271 64.7124 221.803 64.7124 221.227C64.7124 220.651 64.2455 220.183 63.6701 220.183H59.3553C58.78 220.183 58.3131 220.651 58.3131 221.227C58.3131 221.803 58.78 222.271 59.3553 222.271H59.3573ZM52.4555 230.913H55.9074C56.4807 230.913 56.9477 230.446 56.9477 229.87C56.9477 229.293 56.4807 228.826 55.9054 228.826H52.4555C51.8782 228.826 51.4133 229.293 51.4133 229.87C51.4133 230.446 51.8782 230.913 52.4555 230.913ZM14.485 222.271H52.4555C53.0289 222.271 53.4958 221.803 53.4958 221.227C53.4958 220.651 53.0289 220.183 52.4536 220.183H14.485C13.9097 220.183 13.4428 220.651 13.4428 221.227C13.4428 221.803 13.9097 222.271 14.485 222.271Z" fill="#E63114"/>
<path fill-rule="evenodd" clip-rule="evenodd" d="M131.577 25.7484H167.82C168.395 25.7484 168.862 25.2807 168.862 24.7065C168.862 24.1323 168.395 23.6627 167.82 23.6627H131.577C131 23.6627 130.535 24.1303 130.535 24.7065C130.535 25.2827 131 25.7484 131.577 25.7484ZM183.353 17.1077H187.668C188.242 17.1077 188.708 16.64 188.708 16.0638C188.712 15.4857 188.242 15.02 187.668 15.02H183.353C182.778 15.02 182.309 15.4877 182.309 16.0638C182.309 16.64 182.776 17.1077 183.353 17.1077ZM176.45 25.7484H179.902C180.477 25.7484 180.944 25.2807 180.944 24.7065C180.944 24.1323 180.477 23.6627 179.9 23.6627H176.45C175.872 23.6627 175.407 24.1303 175.407 24.7065C175.407 25.2827 175.872 25.7484 176.45 25.7484ZM138.481 17.1077H176.45C177.025 17.1077 177.494 16.64 177.494 16.0638C177.494 15.4877 177.025 15.02 176.45 15.02H138.481C137.906 15.02 137.437 15.4877 137.437 16.0638C137.437 16.64 137.904 17.1077 138.481 17.1077Z" fill="#E63114"/>
</svg>
