<svg width="583" height="490" viewBox="0 0 583 490" fill="none" xmlns="http://www.w3.org/2000/svg">
<path d="M193.176 456.42H45.5312V489.759H193.176V456.42Z" fill="#341C58"/>
<path d="M147.641 456.42H0V489.762H147.641V456.42Z" fill="#4E2F7E"/>
<path d="M251.25 489.751H361.188V336.089H251.25V489.751Z" fill="#B32C16"/>
<path d="M217.352 489.751H327.289V336.089H217.352V489.751Z" fill="#E63114"/>
<path d="M327.289 336.089L361.187 359.161V336.089H327.289Z" fill="#B22C16"/>
<path d="M425.379 119.15C423.679 118.89 418.557 123.625 418.557 123.625C407.622 124.89 391.635 127.793 385.88 128.9C381.797 129.686 370.825 125.946 360.106 121.651C347.361 116.532 334.972 110.646 334.972 110.646C327.897 110.281 319.865 123.19 334.211 131.394C336.405 132.648 344.627 134.786 354.103 136.735C367.173 139.429 382.619 141.766 387.869 140.947C393.975 139.989 411.267 133.668 421.537 128.827H421.562L421.675 128.776C422.293 128.487 424.809 127.365 426.49 127.464C428.417 127.581 432.705 124.056 432.837 123.113C432.969 122.17 427.083 119.406 425.379 119.15Z" fill="#F0C29F"/>
<path d="M412.024 281.722L405.995 282.947C405.995 282.947 378.441 251.988 374.189 238.958C371.915 232.012 357.371 228.989 342.163 225.066C328.932 221.644 315.204 217.524 308.649 209.481C294.555 192.203 317.496 170.969 317.496 170.969C317.496 170.969 341.892 185.469 362.936 200.443C377.644 210.914 390.721 221.615 392.688 227.764C397.481 242.709 407.626 271.138 412.024 281.722Z" fill="#2B478B"/>
<path d="M403.954 291.936H407.343C408.476 291.757 409.314 291.428 410.476 291.278C412.246 291.044 413.057 291.768 413.218 291.936L413.251 291.969H427.637C428.003 291.454 427.637 290.255 427.312 289.373C427.199 289.078 427.018 288.813 426.784 288.6C426.551 288.387 426.271 288.231 425.966 288.145C424.442 287.703 421.433 287.308 418.676 284.815C417.13 283.414 411.196 279.667 411.196 279.667H411.164C411.032 279.667 410.414 279.857 407.712 282.138C406.319 283.312 403.939 280.475 403.939 280.475C403.613 280.774 403.348 281.134 403.161 281.535C402.828 282.215 402.72 282.984 402.854 283.729C403.066 285.023 402.375 287.432 401.823 289.063C401.486 290.05 401.205 290.752 401.205 290.752C401.205 290.752 401.04 291.571 403.954 291.936Z" fill="#233862"/>
<path d="M362.936 200.435L342.163 225.058C328.932 221.636 315.204 217.516 308.649 209.473C294.555 192.195 317.496 170.961 317.496 170.961C317.496 170.961 341.892 185.461 362.936 200.435Z" fill="#1E3D70"/>
<path d="M344.072 187.578C344.072 187.578 342.398 192.857 339.685 200.801C336.237 210.848 331.104 225.15 325.536 238.414C324.312 241.338 323.065 244.197 321.811 246.954C317.183 257.161 312.441 265.91 308.284 270.352C300.782 278.344 282.55 329.735 282.55 329.735L278.006 328.477C278.006 328.477 271.67 284.606 294.092 259.625C294.344 259.375 294.503 259.046 294.545 258.693C294.845 254.997 295.912 238.446 298.238 221.673C298.808 217.557 299.455 213.433 300.179 209.477L300.321 208.724C303.732 190.444 307.005 182.317 311.223 178.226L342.248 187.059L344.072 187.578Z" fill="#2B478B"/>
<path d="M277.465 336.052H280.854C281.988 335.873 282.825 335.548 283.988 335.394C285.757 335.164 286.569 335.888 286.73 336.052L286.762 336.089H301.149C301.514 335.57 301.149 334.374 300.823 333.493C300.71 333.198 300.529 332.932 300.296 332.719C300.062 332.505 299.782 332.348 299.478 332.261C297.95 331.819 294.944 331.428 292.188 328.934C290.638 327.534 284.704 323.783 284.704 323.783H284.675C284.543 323.783 283.925 323.977 281.224 326.255C279.831 327.432 277.451 324.595 277.451 324.595C277.125 324.893 276.86 325.252 276.672 325.651C276.34 326.332 276.231 327.099 276.361 327.845C276.577 329.143 275.886 331.552 275.334 333.183C274.998 334.17 274.713 334.868 274.713 334.868C274.713 334.868 274.552 335.691 277.465 336.052Z" fill="#233862"/>
<path d="M284.123 127.895C284.123 127.895 278.935 140.596 272.947 152.956C267.913 163.35 262.319 173.503 258.773 175.667C253.772 178.723 239.996 187.34 231.057 193.767C231.057 193.767 224.085 193.716 223.014 195.051C221.943 196.385 219.431 202.384 220.163 202.991C220.894 203.598 226.436 203.317 227.785 201.938C228.959 200.732 231.573 199.869 232.223 199.664L232.344 199.628H232.373C243.231 196.286 260.268 189.325 265.423 185.922C269.865 182.997 279.707 170.867 287.556 160.078C293.248 152.258 297.891 145.136 298.666 142.738C303.741 127.003 289.113 122.868 284.123 127.895Z" fill="#FFB27D"/>
<path d="M311.259 78.0977C310.686 77.2626 310.066 76.4606 309.402 75.6958C310.18 75.7348 310.958 75.6179 311.69 75.3521C313.518 74.599 314.345 68.8117 314.07 67.097C313.796 65.3824 311.266 60.4213 308.144 59.9241C305.022 59.4269 301.797 62.8818 301.797 62.8818C302.375 60.3811 307.647 58.937 307.647 58.937C296.77 60.9441 297.326 68.1975 297.41 68.8665C287.455 65.3203 281.609 84.0715 281.609 84.0715L307.402 99.2692C307.402 99.2692 307.468 95.1307 309.928 95.3976C313.763 95.8253 316.959 86.404 311.259 78.0977Z" fill="#2C3A64"/>
<path d="M312.915 117.442C306.996 120.232 299.143 116.214 299.183 116.17C299.691 115.666 299.512 114.145 299.048 112.149C298.584 110.076 297.483 107.242 295.454 103.861C295.034 103.129 294.61 102.424 294.102 101.667L294.778 101.415L306.276 96.8047C306.276 96.8047 308.137 100.146 310.082 103.188C311.73 105.725 313.463 108.006 314.224 107.941C314.268 107.889 321.876 113.128 312.915 117.442Z" fill="#FFB27D"/>
<path d="M306.275 97.9531C305.979 102.055 304.586 109.451 299.047 112.16C298.583 110.087 297.482 107.254 295.453 103.872L306.275 97.9531Z" fill="#D7A179"/>
<path d="M294.771 108.541C294.771 108.541 309.761 102.64 305.922 93.3761C302.083 84.112 301.465 77.1072 291.748 80.4816C282.03 83.856 281.639 88.1591 282.162 91.5554C282.685 94.9518 290.779 109.835 294.771 108.541Z" fill="#FFB27D"/>
<path d="M300.369 91.2623C307.279 90.2862 309.297 87.493 309.297 87.493C305.099 86.063 301.527 83.2202 299.192 79.45C299.192 79.45 291.423 76.8287 285.665 81.2085C285.298 81.6851 285.048 82.241 284.934 82.8317C283.614 82.4003 281.643 82.5136 280.485 86.2427C278.766 91.8436 284.872 97.9417 284.872 97.9417C286.356 97.5249 284.682 92.5309 284.448 89.8657C284.276 87.9061 285.336 85.3945 285.91 84.2063C286.641 85.1532 293.953 94.3186 302.837 94.6842C299.637 93.4933 296.615 91.8709 293.854 89.8621C295.993 90.9077 298.256 91.5584 300.369 91.2623Z" fill="#2C3A64"/>
<path d="M341.412 136.53C341.284 136.084 341.149 135.62 341.006 135.144C342.905 131.611 344.182 127.777 344.783 123.811C345.799 116.96 344.052 112.734 344.052 112.734C344.052 112.734 333.669 107.228 329.084 106.519C329.065 106.515 329.045 106.515 329.026 106.519L328.843 106.5C324.215 105.861 314.198 107.908 314.198 107.908C314.198 107.908 316.128 113.052 310.677 116.485C305.226 119.918 299.398 115.604 299.398 115.604L298.846 115.969C298.846 115.969 284.5 125.434 283.214 127.599C281.927 129.763 276.406 140.475 276.406 140.475C276.406 140.475 278.157 149.465 297.537 150.218C299.131 154.082 300.353 157.851 300.747 160.996C302.287 173.203 300.499 182.829 302.294 189.954C304.089 197.08 336.426 193.014 342.282 191.647C348.139 190.28 346.819 184.021 347.273 177.944C347.85 170.336 343.321 143.264 341.412 136.53Z" fill="#7A57B5"/>
<path d="M344.784 123.826C344.178 127.806 342.892 131.652 340.981 135.196C340.473 132.955 338.404 124.755 335.062 121.033C335.077 121.033 340.685 121.541 344.784 123.826Z" fill="#7A57B5"/>
<path d="M213.107 203.822C213.107 203.822 219.132 196.51 220.419 195.658C221.706 194.806 227.405 193.282 227.731 193.585C228.056 193.889 228.071 194.316 227.365 194.953C226.659 195.589 223.972 197.146 224.353 197.325C224.733 197.504 232.856 193.457 234.03 194.817C235.203 196.177 233.364 201.789 230.235 204.48C227.105 207.171 217.768 208.319 217.183 208.692C212.229 211.88 213.107 203.822 213.107 203.822Z" fill="#F0C29F"/>
<path d="M107.039 186.961C107.039 186.961 115.715 197.23 126.719 192.934C126.719 192.934 129.088 187.202 129.121 182.972C129.121 182.453 129.121 181.948 129.139 181.469C129.198 176.717 129.358 174.037 129.358 174.037C128.858 173.825 112.508 167.116 112.541 167.672C112.79 180.548 107.039 186.961 107.039 186.961Z" fill="#FFB27D"/>
<path d="M114.151 170.731C115.727 173.656 121.138 179.37 129.141 181.458C129.199 176.705 129.36 174.025 129.36 174.025C128.892 173.912 113.683 169.88 114.151 170.731Z" fill="#D7A179"/>
<path d="M132.789 173.543C132.789 173.543 114.403 177.864 111.888 166.374C109.373 154.883 105.307 147.703 116.937 144.457C128.566 141.21 131.816 145.096 133.59 148.727C135.363 152.357 137.505 172.121 132.789 173.543Z" fill="#FFB27D"/>
<path d="M112.513 169.507C112.261 169.664 108.305 170.882 100.814 155.958C99.637 153.615 98.8364 148.548 101.578 144.069C104.32 139.591 114.041 136.07 122.117 134.538C130.193 133.006 132.131 137.547 134.032 142.117C136.028 146.91 141.794 150.858 141.794 150.858C134.847 154.748 126.439 149.184 123.536 150.098C120.633 151.012 119.606 155.582 119.386 157.062C119.167 158.543 118.834 159.749 115.178 158.437C111.522 157.124 113.53 163.617 114.111 164.857C114.111 164.857 114.619 168.173 112.513 169.507Z" fill="#412E69"/>
<path d="M65.1555 456.42H54.0232C51.6907 456.42 49.095 454.051 48.4479 449.715C47.8008 445.379 43.0005 443.014 41.9623 439.479C40.924 435.943 46.2543 430.92 46.2543 430.92L47.1427 429.761L48.0677 428.555L56.8857 430.657C56.8857 430.657 57.1051 432.785 57.2513 435.494C57.3464 437.453 57.3976 439.716 57.2879 441.709C57.0283 446.443 58.5931 451.536 62.7425 452.457C66.892 453.378 65.1555 456.42 65.1555 456.42Z" fill="#2C3A64"/>
<path d="M142.651 456.526H113.155C112.94 456.491 112.73 456.428 112.53 456.34C110.56 455.323 111.177 447.566 111.411 445.16C111.459 444.714 111.492 444.454 111.492 444.454C111.492 444.454 121.867 435.91 123.293 442.451C123.34 442.656 123.391 442.857 123.447 443.054C125.249 449.174 133.299 451.956 137.953 452.731C141.492 453.335 142.403 455.462 142.651 456.526Z" fill="#2C3A64"/>
<path d="M136.706 285.893C136.706 285.893 135.131 305.547 133.266 329.179C130.751 361.286 127.72 400.718 127.417 408.191C126.898 421.162 124.821 441.913 124.821 441.913C124.821 441.913 119.893 446.842 110.033 444.765C110.033 444.765 101.259 415.152 98.7397 383.802C98.6995 383.287 98.6593 382.771 98.6227 382.252C96.2866 350.347 92.6562 283.177 92.6562 283.177L136.706 285.893Z" fill="#301D4E"/>
<path d="M136.715 285.893C136.715 285.893 135.139 305.547 133.275 329.179L98.7553 383.802C98.7151 383.287 98.6749 382.771 98.6383 382.252C96.3022 350.347 92.6719 283.177 92.6719 283.177L136.715 285.893Z" fill="#22113C"/>
<path d="M129.511 288.222C129.511 288.222 101.097 359.425 82.4295 392.887C63.7624 426.35 57.9348 435.687 57.9348 435.687C57.9348 435.687 47.2193 431.399 46.2578 428.474C46.2578 428.474 53.3978 363.874 65.9048 348.128C72.9717 339.229 81.2596 312.523 81.6654 303.186C82.0713 293.848 84.1917 275.368 84.1917 275.368L129.511 288.222Z" fill="#301D4E"/>
<path d="M64.4806 276.362C64.4806 276.362 63.7493 285.254 63.2046 286.621C62.6599 287.988 59.0771 292.218 58.6603 292.16C58.2435 292.101 57.9949 291.765 58.207 290.902C58.419 290.039 59.6693 287.378 59.2635 287.447C58.8577 287.517 54.7594 295.015 53.1216 294.591C51.4837 294.167 49.8861 288.84 50.8586 285.085C51.831 281.331 58.4446 275.408 58.6969 274.801C60.8392 269.643 64.4806 276.362 64.4806 276.362Z" fill="#F0C29F"/>
<path d="M61.4343 278.618C64.5784 279.627 65.0902 279.4 65.0902 279.4C65.0902 279.4 80.3903 251.539 81.9404 248.991C83.4905 246.442 114.431 217.747 114.431 217.747L106.479 188.101C106.479 188.101 71.2833 233.669 67.4666 240.194C61.1893 250.998 57.5078 276.092 57.5078 276.092C58.5784 277.257 59.9305 278.127 61.4343 278.618Z" fill="#1E3D70"/>
<path d="M142.711 229.387C142.602 235.478 142.247 242.322 141.768 249.276L141.68 250.511C141.377 254.818 141.044 259.136 140.668 263.344C140.514 265.033 140.352 266.697 140.182 268.338L140.156 268.561C140.156 269.175 140.068 269.836 140.002 270.447C138.449 286.211 136.822 298.667 136.522 298.861C136.169 299.107 135.739 299.216 135.312 299.168C131.177 298.649 118.838 299.588 108.741 297.391C100.219 295.592 92.8775 292.185 85.1013 287.59C84.0704 286.979 81.7159 285.363 81.9097 284.153C82.0962 282.826 82.4435 280.91 82.8858 278.497C84.4177 270.111 87.0646 255.684 87.9639 238.801C88.1394 235.657 88.3953 232.55 88.728 229.497C89.5056 221.997 90.8834 214.571 92.8482 207.291C96.3104 194.824 101.399 185.275 107.783 181.539C108.616 181.071 113.106 183.926 117.226 186.573C120.699 188.796 124.824 189.774 128.925 189.348L132.354 193.142C136.526 197.954 140.953 204.366 142.156 213.506C142.247 214.182 142.324 214.899 142.39 215.663C142.731 220.229 142.838 224.81 142.711 229.387Z" fill="#2A4E96"/>
<path d="M142.708 229.388C142.598 235.478 142.243 242.322 141.765 249.276L141.677 250.512C118.06 235.727 114.422 208.677 114.422 208.677C126.04 209.185 135.261 211.857 142.386 215.678C142.727 220.239 142.834 224.815 142.708 229.388Z" fill="#1E3D70"/>
<path d="M216.698 204.549C215.48 201.258 213.587 201.47 213.587 201.47C213.587 201.47 178.49 210.223 175.316 210.61C172.143 210.998 137.503 197.083 137.503 197.083C137.503 197.083 123.859 190.963 117.469 196.553C111.915 201.412 111.663 207.565 112.961 212.734C113.73 215.744 115.387 218.451 117.717 220.505C120.047 222.558 122.942 223.862 126.024 224.247C140.165 226.049 168.381 229.438 174.282 228.616C187.443 226.788 217.268 209.568 217.268 209.568C217.467 207.874 217.271 206.156 216.698 204.549Z" fill="#2A4E96"/>
<path d="M562.975 268.915C562.975 268.915 567.852 273.438 566.901 276.651C565.951 279.865 561.545 282.004 560.949 285.93C560.354 289.856 557.977 291.999 555.831 291.999H545.62C545.62 291.999 544.044 289.235 547.85 288.405C551.656 287.575 553.093 282.958 552.855 278.673C552.618 274.388 553.221 268.678 553.221 268.678L561.311 266.773L562.975 268.915Z" fill="#2C3A64"/>
<path d="M502.165 291.465C501.672 291.714 499.931 291.886 497.544 291.999H474.453C474.53 291.312 475.067 288.866 478.84 288.256C483.107 287.561 490.495 285.082 492.14 279.628C492.199 279.451 492.247 279.272 492.287 279.09C493.592 273.263 503.112 280.874 503.112 280.874C503.112 280.874 503.141 281.108 503.181 281.507C503.415 283.649 503.993 290.566 502.165 291.465Z" fill="#2C3A64"/>
<path d="M479.977 135.514C479.977 135.514 481.439 153.552 483.121 175.236C485.431 204.688 488.21 240.867 488.484 247.722C488.959 259.625 490.864 278.662 490.864 278.662C490.864 278.662 495.383 283.184 504.431 281.279C504.431 281.279 512.474 254.101 514.792 225.344L514.902 223.922C517.04 194.649 520.386 133.01 520.386 133.01L479.977 135.514Z" fill="#35488B"/>
<path d="M479.977 135.514C479.977 135.514 481.439 153.553 483.121 175.236L514.792 225.348L514.902 223.926C517.04 194.653 520.386 133.014 520.386 133.014L479.977 135.514Z" fill="#2C3A64"/>
<path d="M486.57 137.657C486.57 137.657 512.63 202.984 529.765 233.683C546.9 264.382 552.238 272.951 552.238 272.951C552.238 272.951 562.058 269.025 562.95 266.345C562.95 266.345 556.398 207.079 544.923 192.631C538.437 184.467 530.822 159.965 530.463 151.399C530.105 142.833 528.142 125.874 528.142 125.874L486.57 137.657Z" fill="#35488B"/>
<path d="M406.202 102.223C406.202 102.223 399.135 100.608 397.943 100.688C396.751 100.768 392.595 102.516 392.54 102.849C392.485 103.181 392.679 103.463 393.399 103.51C394.119 103.558 396.484 103.254 396.324 103.54C396.163 103.825 389.355 105.166 389.282 106.541C389.209 107.916 392.938 110.46 396.097 110.632C399.256 110.804 405.456 107.137 405.99 107.089C410.512 106.695 406.202 102.223 406.202 102.223Z" fill="#FFB27D"/>
<path d="M403.178 104.019C402.161 100.791 402.399 100.275 402.399 100.275C402.399 100.275 431.054 84.7849 433.676 83.2128C436.297 81.6408 465.91 50.1304 465.91 50.1304L496.254 58.4769C496.254 58.4769 449.305 94.2318 442.57 98.0815C431.456 104.443 405.715 108.044 405.715 108.044C404.538 106.942 403.665 105.556 403.178 104.019Z" fill="#B22C16"/>
<path d="M475.109 34.8116C475.109 34.8116 464.477 53.519 454.083 55.9611C454.083 55.9611 454.515 49.6766 457.045 45.3772C456.01 44.1561 455.1 43.0338 454.314 42.0284C452.932 40.2968 451.643 38.4931 450.453 36.6249L453.981 27.1415L456.372 20.707C457.428 22.6304 458.684 24.4367 460.119 26.0959C466.916 33.9269 475.109 34.8116 475.109 34.8116Z" fill="#FFB27D"/>
<path d="M460.111 26.0958C460.111 26.0958 461.365 35.4623 454.298 42.0429C452.917 40.3114 451.628 38.5077 450.438 36.6395L453.965 27.156C457.746 25.9897 460.111 26.0958 460.111 26.0958Z" fill="#D7A179"/>
<path d="M447.645 38.0214C447.645 38.0214 463.534 31.8282 459.523 21.9938C455.512 12.1593 454.865 4.7378 444.552 8.27674C434.239 11.8157 433.811 16.3636 434.352 19.9757C434.893 23.5878 443.411 39.3631 447.645 38.0214Z" fill="#FFB27D"/>
<path d="M529.706 130.812C523.297 140.025 475.382 152.339 475.963 145.959C476.347 141.774 476.347 137.563 475.963 133.379C475.846 132.012 475.675 130.568 475.455 129.036C474.238 120.653 471.346 109.879 464.897 97.4046C464.409 96.4736 463.906 95.5303 463.387 94.5749C460.759 89.795 458.537 84.803 456.744 79.6514C453.425 70.0546 452.087 60.8783 453.761 54.8752C453.761 54.846 453.761 54.8204 453.787 54.7911C463.804 50.1591 467.679 32.2012 467.679 32.2012C467.679 32.2012 501.847 38.3358 520.99 83.8813C520.975 83.8813 535.281 122.791 529.706 130.812Z" fill="#E63114"/>
<path d="M475.949 133.379C475.832 132.012 475.66 130.568 475.441 129.036C474.224 120.653 471.332 109.879 464.883 97.4047C465.98 90.6961 467.519 85.1135 469.197 82.5982C476.011 72.3872 479.982 70.7896 479.982 70.7896C479.982 70.7896 490.2 113.889 475.949 133.379Z" fill="#E63114"/>
<path d="M422.096 123.124C422.096 123.124 412.641 123.621 411.179 124.148C409.717 124.674 405.11 128.352 405.161 128.794C405.213 129.237 405.556 129.526 406.478 129.314C407.399 129.101 410.261 127.891 410.174 128.304C410.086 128.718 402.006 132.838 402.405 134.585C402.803 136.333 408.401 138.205 412.426 137.291C416.451 136.377 422.929 129.555 423.58 129.306C429.09 127.2 422.096 123.124 422.096 123.124Z" fill="#FFB27D"/>
<path d="M420.301 126.711C418.407 123.651 419.774 122.254 419.774 122.254C419.774 122.254 448.974 99.3936 451.263 97.0831C453.551 94.7725 464.143 57.9939 464.143 57.9939C464.143 57.9939 467.798 43.1106 476.339 41.4691C483.764 40.0396 488.897 43.7139 492.257 48.0242C494.204 50.5411 495.348 53.5864 495.539 56.763C495.73 59.9396 494.959 63.1 493.328 65.8322C485.873 78.394 470.833 103.335 466.442 107.594C456.666 117.077 423.96 130.326 423.96 130.326C422.479 129.418 421.227 128.181 420.301 126.711Z" fill="#E63114"/>
<path d="M461.802 3.71076C461.912 3.49141 462.237 3.25743 463.023 3.01614C462.503 2.86559 461.955 2.8455 461.425 2.95764C460.979 1.86087 459.897 0.0329033 457.861 0C458.22 0.108879 458.549 0.296761 458.826 0.549832C459.102 0.802902 459.318 1.11472 459.459 1.46237C456.673 -0.303442 451.507 -0.815271 438.62 3.48044C421.616 9.13981 430.109 19.0108 432.701 19.8041C435.293 20.5975 440.013 15.5194 444.283 14.8248C448.553 14.1302 450.863 20.0747 452.483 20.5646C454.103 21.0545 453.181 19.7054 454.885 18.371C456.589 17.0366 457.565 20.199 457.528 22.4401C457.492 24.6812 460.819 26.7979 460.819 26.7979L462.767 23.2261C464.712 19.6543 464.182 6.68669 462.321 4.35421L461.802 3.71076Z" fill="#412E69"/>
<path d="M193.168 456.044V475.278L147.641 456.044H193.168Z" fill="#341C58"/>
<path d="M582.769 291.999H432.211V489.751H582.769V291.999Z" fill="#341C58"/>
<path d="M536.359 291.999H385.797V489.751H536.359V291.999Z" fill="#4E2F7E"/>
<path d="M582.767 291.999V321.571L536.344 291.999H582.767Z" fill="#341C58"/>
</svg>
