<svg width="9" height="7" viewBox="0 0 9 7" fill="none" xmlns="http://www.w3.org/2000/svg">
<path d="M0.217415 2.95525C0.0724639 3.1057 -1.44371e-07 3.30282 -1.5299e-07 3.5C-1.61607e-07 3.69713 0.0724867 3.89435 0.217415 4.04475L2.84729 6.77435C3.13716 7.07522 3.60713 7.07522 3.89701 6.77435C4.18689 6.47348 4.18689 5.98569 3.89701 5.68482L2.53426 4.27041L8.25773 4.27041C8.66767 4.27041 9 3.92548 9 3.5C9 3.07452 8.66767 2.72959 8.25773 2.72959L2.53426 2.72959L3.89701 1.31517C4.18689 1.01431 4.18689 0.526519 3.89701 0.225651C3.60714 -0.0752172 3.13716 -0.0752172 2.84729 0.225651L0.217415 2.95525Z" fill="#E63114"/>
</svg>
