<svg width="20" height="20" viewBox="0 0 20 20" fill="none" xmlns="http://www.w3.org/2000/svg">
<path d="M15.2055 13.2304C14.5521 12.5853 13.7363 12.5853 13.0871 13.2304C12.5918 13.7215 12.0965 14.2126 11.6096 14.712C11.4764 14.8493 11.364 14.8785 11.2017 14.7869C10.8812 14.6121 10.54 14.4706 10.232 14.2792C8.79613 13.3761 7.59334 12.2149 6.52789 10.9081C5.99933 10.2589 5.52903 9.56384 5.20024 8.78142C5.13365 8.62327 5.14613 8.51922 5.27515 8.39021C5.77042 7.9116 6.2532 7.42051 6.74015 6.92941C7.41854 6.24688 7.41854 5.44781 6.73598 4.76111C6.34893 4.3699 5.96187 3.98701 5.57481 3.5958C5.17527 3.19627 4.77988 2.79257 4.37618 2.3972C3.72276 1.76045 2.90702 1.76045 2.25777 2.40136C1.75834 2.89246 1.27972 3.39604 0.771963 3.87881C0.301666 4.32412 0.0644373 4.86932 0.0144944 5.50607C-0.064582 6.54236 0.189295 7.52039 0.547219 8.47344C1.27972 10.4461 2.39511 12.1983 3.74773 13.8047C5.57481 15.9772 7.75565 17.696 10.3069 18.9362C11.4556 19.4939 12.6459 19.9226 13.9403 19.9933C14.8309 20.0433 15.605 19.8185 16.2251 19.1235C16.6497 18.6491 17.1283 18.2162 17.5778 17.7626C18.2437 17.0884 18.2478 16.2727 17.5861 15.6068C16.7953 14.8119 16.0004 14.0211 15.2055 13.2304Z" fill="#E63114"/>
<path d="M14.4106 9.91343L15.9463 9.65123C15.7049 8.24038 15.039 6.96271 14.0277 5.94722C12.958 4.87764 11.6054 4.20343 10.1155 3.99534L9.89904 5.53937C11.0519 5.70168 12.1007 6.2219 12.9289 7.0501C13.7113 7.83252 14.2233 8.82304 14.4106 9.91343Z" fill="#E63114"/>
<path d="M16.812 3.23789C15.039 1.46496 12.7957 0.34543 10.3194 0L10.103 1.54403C12.2422 1.84368 14.1816 2.81338 15.7132 4.34077C17.1657 5.79324 18.1188 7.6286 18.4643 9.64707L20 9.38488C19.5963 7.04594 18.4934 4.92342 16.812 3.23789Z" fill="#E63114"/>
</svg>
