<svg width="491" height="372" viewBox="0 0 491 372" fill="none" xmlns="http://www.w3.org/2000/svg">
<path fill-rule="evenodd" clip-rule="evenodd" d="M165.179 12.1995C179.414 13.0582 188.074 24.7602 188.671 38.2729C188.924 44.0138 184.422 29.0013 168.642 26.9106C158.85 25.6141 157.388 28.5013 153.88 24.4564C150.371 20.4114 153.7 11.4962 165.179 12.1995Z" fill="white"/>
<path fill-rule="evenodd" clip-rule="evenodd" d="M231.363 31.7138C244.05 27.4679 262.381 29.6447 269.099 48.4008C275.818 67.1569 264 80.471 250.585 85.3317C244.222 87.6376 236.641 87.5013 230.133 84.8533C226.454 83.3493 223.134 81.085 220.389 78.2084C217.644 75.3317 215.536 71.9074 214.202 68.1591C211.152 59.5669 212.53 50.1111 217.226 42.856C220.634 37.5887 226.03 33.4887 231.363 31.7138Z" fill="#AAB9DE"/>
<path fill-rule="evenodd" clip-rule="evenodd" d="M231.832 33.0103C236.869 31.199 242.329 30.9241 247.522 32.2204C252.715 33.5166 257.407 36.3258 261.006 40.2928C264.605 44.2598 266.949 49.2065 267.741 54.5074C268.534 59.8084 267.739 65.2256 265.458 70.0742C263.176 74.9229 259.511 78.9852 254.924 81.7476C250.338 84.5101 245.037 85.8486 239.691 85.5939C234.345 85.3393 229.195 83.5029 224.891 80.317C220.587 77.1311 217.323 72.7387 215.512 67.6951C214.308 64.3445 213.776 60.7893 213.945 57.2325C214.114 53.6758 214.981 50.1872 216.496 46.9661C218.012 43.7451 220.146 40.8547 222.777 38.4601C225.409 36.0655 228.485 34.2136 231.832 33.0103Z" fill="#E63114"/>
<path fill-rule="evenodd" clip-rule="evenodd" d="M234.906 41.593C238.249 40.3906 241.873 40.2081 245.32 41.0686C248.767 41.9292 251.881 43.794 254.27 46.4274C256.658 49.0608 258.214 52.3444 258.739 55.863C259.264 59.3816 258.736 62.9773 257.221 66.1952C255.706 69.413 253.272 72.1087 250.227 73.9412C247.182 75.7738 243.663 76.6609 240.115 76.4903C236.567 76.3198 233.149 75.0994 230.293 72.9833C227.437 70.8672 225.272 67.9506 224.072 64.6022C222.463 60.1121 222.7 55.1657 224.732 50.8508C226.763 46.536 230.423 43.2059 234.906 41.593Z" fill="white"/>
<path fill-rule="evenodd" clip-rule="evenodd" d="M237.766 50.1852C239.465 49.5718 241.307 49.4767 243.06 49.912C244.813 50.3473 246.397 51.2934 247.613 52.6307C248.828 53.9679 249.621 55.6363 249.89 57.4246C250.158 59.213 249.891 61.041 249.123 62.6775C248.354 64.3139 247.118 65.6853 245.571 66.6181C244.024 67.5509 242.236 68.0032 240.432 67.9179C238.628 67.8325 236.89 67.2133 235.438 66.1385C233.986 65.0638 232.884 63.5818 232.273 61.88C231.454 59.5995 231.573 57.0867 232.603 54.8938C233.633 52.7009 235.49 51.0073 237.766 50.1852Z" fill="#E63114"/>
<path fill-rule="evenodd" clip-rule="evenodd" d="M238.852 60.117C244.053 58.4546 251.813 53.204 253.034 52.3692C266.755 42.9852 276.545 36.2946 290.266 26.913C290.911 26.4704 291.033 25.5088 290.536 24.7792C290.037 24.0473 289.103 23.8224 288.454 24.253L251.223 49.7092C249.998 50.544 242.291 55.8711 238.852 60.117Z" fill="#E9EFF8"/>
<path fill-rule="evenodd" clip-rule="evenodd" d="M252.432 51.4865L289.664 26.0279C290.312 25.5854 290.703 25.0232 290.536 24.7792C291.033 25.4969 290.911 26.4704 290.266 26.9129L288.817 27.9033L285.97 29.8504L283.123 31.7951L280.276 33.7423L277.426 35.6894L253.034 52.3692C251.813 53.204 244.053 58.4545 238.852 60.117C243.468 57.5958 251.209 52.3213 252.432 51.4865Z" fill="#D0D9EE"/>
<path fill-rule="evenodd" clip-rule="evenodd" d="M277.426 35.6894L284.526 38.4546C285.152 38.6938 286.217 38.524 286.889 38.0623L296.012 31.8262C296.585 31.4339 296.616 30.9436 296.084 30.7355L288.816 27.9033L277.426 35.6894Z" fill="#AAB9DE"/>
<path fill-rule="evenodd" clip-rule="evenodd" d="M275.621 33.0318V25.4012C275.621 24.7266 276.175 23.8009 276.849 23.3392L285.968 17.1031C286.543 16.7108 287.011 16.8639 287.009 17.4332L286.995 25.2457L275.621 33.0318Z" fill="#AAB9DE"/>
<path fill-rule="evenodd" clip-rule="evenodd" d="M306.444 308.778C306.413 308.864 303.101 314.127 303.074 319.875C303.058 322.865 304.066 326.094 307.042 328.445C310.017 330.797 314.718 332.215 322.01 332.22H322.454H322.666C328.16 332.232 331.843 333.863 334.869 336.337C339.407 340.045 342.33 345.869 346.445 350.928C350.56 355.988 356.109 360.233 365.595 360.195C371.604 360.195 379.157 358.569 389.037 354.619L388.201 352.519C378.488 356.404 371.191 357.939 365.595 357.939C359.71 357.939 355.715 356.282 352.502 353.804C347.68 350.086 344.702 344.293 340.744 339.238C336.787 334.184 331.606 329.909 322.666 329.955H322.428H321.998C314.983 329.955 310.791 328.548 308.427 326.668C306.062 324.788 305.336 322.417 305.322 319.87C305.322 317.442 306.067 314.933 306.836 313.057C307.221 312.117 307.605 311.335 307.889 310.795L308.236 310.168L308.358 309.964L306.444 308.778Z" fill="#99A9D4"/>
<path d="M302.645 305.838H189.844V347.261H302.645V305.838Z" fill="#99A9D4"/>
<path fill-rule="evenodd" clip-rule="evenodd" d="M395.889 304.152C395.889 308.917 390.837 312.78 384.609 312.78H107.88C101.649 312.78 96.5977 308.917 96.5977 304.152V137.622C96.5977 132.857 101.649 128.991 107.88 128.991H384.609C390.837 128.991 395.889 132.854 395.889 137.619V304.152Z" fill="#BCC9E7"/>
<path d="M319.435 339.729H172.043V347.264H319.435V339.729Z" fill="#AAB9DE"/>
<path d="M375.032 347.264H119.594V359.875H375.032V347.264Z" fill="#BCC9E7"/>
<path d="M418.39 349.543H382.641V359.25H418.39V349.543Z" fill="#AAB9DE"/>
<path d="M385.109 141.566H108.844V295.282H385.109V141.566Z" fill="#DEE7F5"/>
<path d="M247.613 170.252H115.344V264.755H247.613V170.252Z" fill="#99A9D4"/>
<path d="M243.306 173.754H119.652V249.137H243.306V173.754Z" fill="#E63114"/>
<path fill-rule="evenodd" clip-rule="evenodd" d="M132.37 256.854C132.371 258.114 131.999 259.347 131.3 260.395C130.602 261.444 129.608 262.261 128.446 262.744C127.284 263.227 126.004 263.354 124.77 263.109C123.535 262.864 122.401 262.258 121.511 261.367C120.62 260.476 120.014 259.341 119.767 258.105C119.521 256.869 119.647 255.587 120.128 254.423C120.609 253.258 121.424 252.262 122.47 251.562C123.516 250.861 124.746 250.487 126.005 250.486C127.692 250.486 129.31 251.157 130.503 252.351C131.697 253.545 132.368 255.164 132.37 256.854Z" fill="#BCC9E7"/>
<path fill-rule="evenodd" clip-rule="evenodd" d="M146.35 256.854C146.351 258.114 145.979 259.347 145.28 260.395C144.582 261.444 143.588 262.261 142.426 262.744C141.263 263.228 139.984 263.354 138.749 263.109C137.515 262.864 136.381 262.257 135.49 261.366C134.6 260.475 133.994 259.34 133.748 258.103C133.502 256.867 133.627 255.586 134.109 254.421C134.59 253.256 135.406 252.261 136.452 251.56C137.499 250.86 138.729 250.486 139.988 250.486C141.674 250.486 143.292 251.157 144.485 252.351C145.678 253.545 146.349 255.164 146.35 256.854Z" fill="#BCC9E7"/>
<path fill-rule="evenodd" clip-rule="evenodd" d="M123.688 253.137H123.191V260.578L123.445 261.011L123.946 261.004L130.099 257.282L130.337 256.856L130.099 256.43L123.946 252.711L123.445 252.704L123.191 253.137H123.688L123.433 253.565L128.876 256.856L124.187 259.691V253.137H123.688L123.433 253.565L123.688 253.137Z" fill="white"/>
<path fill-rule="evenodd" clip-rule="evenodd" d="M193.79 211.457C193.79 213.897 193.067 216.282 191.713 218.31C190.359 220.338 188.436 221.919 186.185 222.852C183.934 223.786 181.458 224.03 179.069 223.553C176.68 223.077 174.485 221.902 172.763 220.177C171.041 218.452 169.868 216.254 169.393 213.861C168.918 211.468 169.162 208.988 170.094 206.734C171.026 204.48 172.605 202.553 174.631 201.198C176.656 199.843 179.037 199.119 181.473 199.119C184.74 199.12 187.872 200.421 190.182 202.734C192.492 205.048 193.789 208.186 193.79 211.457Z" fill="#D0D9EE"/>
<path fill-rule="evenodd" clip-rule="evenodd" d="M176.984 204.241V218.653L188.893 211.448L176.984 204.241Z" fill="white"/>
<path fill-rule="evenodd" clip-rule="evenodd" d="M182.099 223.812L182.059 223.772C184.381 223.661 186.625 222.896 188.531 221.564C190.438 220.231 191.93 218.386 192.835 216.242C191.943 218.39 190.46 220.242 188.56 221.582C186.66 222.922 184.42 223.695 182.099 223.812Z" fill="#454467"/>
<path fill-rule="evenodd" clip-rule="evenodd" d="M138.202 260.765L137.703 260.267V253.445L138.202 252.947L138.701 253.445V260.267L138.202 260.765Z" fill="white"/>
<path fill-rule="evenodd" clip-rule="evenodd" d="M141.776 260.765L141.281 260.267V253.445L141.776 252.947L142.275 253.445V260.267L141.776 260.765Z" fill="white"/>
<path d="M232.369 252.374H152.891V254.706H232.369V252.374Z" fill="#BCC9E7"/>
<path fill-rule="evenodd" clip-rule="evenodd" d="M155.581 253.536C155.581 254.068 155.423 254.589 155.128 255.031C154.833 255.474 154.413 255.819 153.922 256.022C153.431 256.226 152.891 256.279 152.37 256.175C151.849 256.072 151.37 255.815 150.994 255.439C150.618 255.063 150.362 254.583 150.259 254.061C150.155 253.539 150.208 252.998 150.412 252.506C150.615 252.014 150.959 251.594 151.401 251.298C151.843 251.003 152.363 250.845 152.894 250.845C153.607 250.845 154.29 251.128 154.794 251.633C155.298 252.138 155.581 252.822 155.581 253.536Z" fill="white"/>
<path d="M243.302 252.374H236.383V254.122H243.302V252.374Z" fill="white"/>
<path d="M243.3 254.703H238.129V256.454H243.3V254.703Z" fill="white"/>
<path d="M243.302 257.038H239.844V258.784H243.302V257.038Z" fill="white"/>
<path d="M243.301 259.37H241.574V261.119H243.301V259.37Z" fill="white"/>
<path d="M378.906 145.521H114.953V157.603H378.906V145.521Z" fill="white"/>
<path fill-rule="evenodd" clip-rule="evenodd" d="M378.905 180.562H263.417V170.252H378.905V180.562ZM274.322 211.218V211.175L278.717 211.218H319.229V217.741H263.417V211.218H274.322ZM319.224 254.062H263.417V247.539H319.229V254.062H319.224ZM305.07 280.083H263.417V273.562H305.075V280.083H305.07ZM314.072 266.714H263.417V260.193H314.072V266.714ZM314.072 241.961H263.417V235.431H314.072V241.954V241.961ZM302.811 229.852H263.402V223.324H302.811V229.845V229.852ZM316.964 205.642H263.417V199.11H316.974V205.635L316.964 205.642ZM319.219 193.534H263.417V187.001H319.229L319.219 193.534Z" fill="white"/>
<path d="M247.991 274.931H114.953V285.238H247.991V274.931Z" fill="white"/>
<path d="M379.082 186.243H326.246V279.588H379.082V186.243Z" fill="white"/>
<path fill-rule="evenodd" clip-rule="evenodd" d="M141.151 133.9C141.151 134.487 140.978 135.061 140.652 135.55C140.327 136.038 139.864 136.419 139.323 136.644C138.781 136.869 138.185 136.928 137.61 136.814C137.035 136.7 136.506 136.417 136.092 136.002C135.677 135.587 135.394 135.058 135.28 134.482C135.165 133.906 135.224 133.309 135.448 132.767C135.672 132.224 136.052 131.76 136.54 131.434C137.027 131.108 137.6 130.934 138.187 130.934C138.972 130.934 139.726 131.246 140.282 131.802C140.837 132.359 141.15 133.113 141.151 133.9Z" fill="#6DB9B9"/>
<path fill-rule="evenodd" clip-rule="evenodd" d="M148.944 133.9C148.944 134.487 148.771 135.061 148.445 135.55C148.12 136.038 147.657 136.419 147.116 136.644C146.574 136.869 145.978 136.928 145.403 136.814C144.828 136.7 144.299 136.417 143.885 136.002C143.47 135.587 143.187 135.058 143.073 134.482C142.958 133.906 143.017 133.309 143.241 132.767C143.465 132.224 143.845 131.76 144.333 131.434C144.82 131.108 145.393 130.934 145.98 130.934C146.765 130.934 147.518 131.247 148.074 131.803C148.63 132.359 148.942 133.113 148.944 133.9Z" fill="#6DB9B9"/>
<path fill-rule="evenodd" clip-rule="evenodd" d="M156.733 133.9C156.733 134.487 156.56 135.061 156.234 135.55C155.909 136.038 155.446 136.419 154.905 136.644C154.363 136.869 153.767 136.928 153.192 136.814C152.617 136.7 152.088 136.417 151.674 136.002C151.259 135.587 150.976 135.058 150.862 134.482C150.747 133.906 150.806 133.309 151.03 132.767C151.254 132.224 151.634 131.76 152.122 131.434C152.609 131.108 153.182 130.934 153.769 130.934C154.554 130.934 155.308 131.246 155.864 131.802C156.419 132.359 156.732 133.113 156.733 133.9Z" fill="#6DB9B9"/>
<path d="M202.899 37.7968H41.2812V153.771H202.899V37.7968Z" fill="#D0D9EE"/>
<path d="M202.9 37.481H41.2656V49.8503H202.9V37.481Z" fill="#99A9D4"/>
<path fill-rule="evenodd" clip-rule="evenodd" d="M180.31 43.8272C180.311 44.5521 180.096 45.2608 179.695 45.8638C179.293 46.4667 178.722 46.9368 178.053 47.2146C177.385 47.4923 176.649 47.5652 175.939 47.4241C175.229 47.2829 174.577 46.9341 174.065 46.4217C173.553 45.9093 173.204 45.2563 173.063 44.5454C172.921 43.8345 172.994 43.0975 173.27 42.4277C173.547 41.758 174.016 41.1855 174.618 40.7827C175.22 40.3799 175.927 40.1649 176.651 40.1649C177.132 40.1646 177.607 40.2591 178.051 40.443C178.495 40.6269 178.899 40.8966 179.238 41.2367C179.578 41.5768 179.848 41.9807 180.032 42.4252C180.216 42.8696 180.31 43.346 180.31 43.8272Z" fill="#F2F2F3"/>
<path fill-rule="evenodd" clip-rule="evenodd" d="M189.909 43.8272C189.908 44.5503 189.693 45.2568 189.292 45.8576C188.89 46.4584 188.319 46.9264 187.652 47.2026C186.985 47.4787 186.251 47.5506 185.543 47.4092C184.835 47.2677 184.185 46.9192 183.674 46.4078C183.164 45.8963 182.816 45.2448 182.676 44.5356C182.535 43.8264 182.607 43.0914 182.883 42.4233C183.159 41.7552 183.627 41.1841 184.227 40.7822C184.827 40.3802 185.533 40.1654 186.255 40.165C186.735 40.1643 187.211 40.2586 187.655 40.4425C188.098 40.6263 188.502 40.8961 188.841 41.2363C189.181 41.5766 189.45 41.9806 189.633 42.4251C189.816 42.8697 189.91 43.3462 189.909 43.8272Z" fill="#F2F2F3"/>
<path fill-rule="evenodd" clip-rule="evenodd" d="M199.515 43.8272C199.514 44.5499 199.299 45.256 198.898 45.8566C198.496 46.4572 197.926 46.9252 197.26 47.2017C196.593 47.4781 195.86 47.5506 195.152 47.4099C194.444 47.2692 193.794 46.9216 193.283 46.4111C192.772 45.9006 192.424 45.2501 192.282 44.5415C192.14 43.8329 192.211 43.0982 192.486 42.4299C192.761 41.7617 193.227 41.1899 193.826 40.7868C194.425 40.3837 195.129 40.1673 195.851 40.165C196.332 40.1631 196.809 40.2565 197.253 40.4397C197.698 40.623 198.103 40.8926 198.443 41.233C198.784 41.5733 199.054 41.9777 199.238 42.4229C199.421 42.8682 199.516 43.3454 199.515 43.8272Z" fill="#F2F2F3"/>
<path d="M94.2788 41.5284H44.4141V46.1235H94.2788V41.5284Z" fill="#F2F2F3"/>
<path d="M111.767 59.4664H48.4297V110.704H111.767V59.4664Z" fill="#E63114"/>
<path fill-rule="evenodd" clip-rule="evenodd" d="M97.0411 87.1281C97.0412 91.2542 95.6827 95.2652 93.176 98.5396C90.6693 101.814 87.1544 104.169 83.1758 105.24C79.1972 106.311 74.977 106.038 71.1692 104.463C67.3613 102.888 64.1783 100.099 62.1133 96.5289L78.3209 87.1281H97.0411Z" fill="white"/>
<path fill-rule="evenodd" clip-rule="evenodd" d="M100.613 85.0064H81.8906L90.539 68.3745C93.5778 69.9571 96.1243 72.3451 97.9008 75.278C99.6772 78.2109 100.616 81.576 100.613 85.0064Z" fill="#99A9D4"/>
<path fill-rule="evenodd" clip-rule="evenodd" d="M88.2178 68.3744L79.5742 85.0064V66.2599C82.5842 66.2504 85.5511 66.9762 88.2178 68.3744Z" fill="#99A9D4"/>
<path fill-rule="evenodd" clip-rule="evenodd" d="M78.3162 68.3745V87.1282L71.5547 69.6351C73.7109 68.7982 76.0038 68.3707 78.3162 68.3745Z" fill="#AAB9DE"/>
<path fill-rule="evenodd" clip-rule="evenodd" d="M78.3191 87.1281L62.1115 96.5288C60.7559 94.1844 59.9234 91.5738 59.6714 88.8764C59.4193 86.1791 59.7535 83.459 60.6512 80.9034C61.5488 78.3478 62.9885 76.0172 64.8712 74.072C66.7539 72.1268 69.035 70.6131 71.5575 69.635L78.3191 87.1281Z" fill="#D0D9EE"/>
<path d="M195.858 59.4664H122.914V66.2503H195.858V59.4664Z" fill="white"/>
<path d="M195.858 69.635H122.914V73.0269H195.858V69.635Z" fill="white"/>
<path d="M195.858 76.0529H122.914V79.4472H195.858V76.0529Z" fill="white"/>
<path d="M195.858 82.4708H122.914V85.8651H195.858V82.4708Z" fill="white"/>
<path d="M195.858 88.8911H122.914V92.283H195.858V88.8911Z" fill="white"/>
<path d="M195.858 95.3066H122.914V98.6985H195.858V95.3066Z" fill="white"/>
<path d="M195.858 101.724H122.914V105.114H195.858V101.724Z" fill="white"/>
<path d="M195.858 108.145H122.914V111.534H195.858V108.145Z" fill="white"/>
<path d="M78.4231 125.987H48.4297V147.422H78.4231V125.987Z" fill="#99A9D4"/>
<path d="M77.4451 126.784H49.4102V143.882H77.4451V126.784Z" fill="#D0D9EE"/>
<path fill-rule="evenodd" clip-rule="evenodd" d="M60.9336 131.905V138.756L66.5893 135.333L60.9336 131.905Z" fill="white"/>
<path d="M115.61 125.987H85.6211V147.422H115.61V125.987Z" fill="#99A9D4"/>
<path d="M114.637 126.784H86.5977V143.882H114.637V126.784Z" fill="#D0D9EE"/>
<path fill-rule="evenodd" clip-rule="evenodd" d="M98.1172 131.905V138.756L103.775 135.333L98.1172 131.905Z" fill="white"/>
<path d="M152.807 125.987H122.809V147.422H152.807V125.987Z" fill="#99A9D4"/>
<path d="M151.819 126.784H123.781V143.882H151.819V126.784Z" fill="#D0D9EE"/>
<path fill-rule="evenodd" clip-rule="evenodd" d="M135.312 131.905V138.756L140.966 135.333L135.312 131.905Z" fill="white"/>
<path d="M189.982 125.987H159.988V147.422H189.982V125.987Z" fill="#99A9D4"/>
<path d="M189.008 126.784H160.961V143.882H189.008V126.784Z" fill="#D0D9EE"/>
<path fill-rule="evenodd" clip-rule="evenodd" d="M172.484 131.905V138.756L178.142 135.333L172.484 131.905Z" fill="white"/>
<path fill-rule="evenodd" clip-rule="evenodd" d="M62.1104 119.459H48.4297V122.473H62.1104V119.459ZM110.012 119.459H103.098V122.473H110.012V119.459ZM149.597 119.459H135.31V122.473H149.597V119.459ZM133.265 119.459H122.806V122.473H133.272V119.459H133.265ZM99.3071 119.459H85.4784V122.473H99.3071V119.459ZM186.139 120.968H180.906V123.982H186.139V120.968ZM178.145 120.968H159.994V123.982H178.145V120.968ZM70.6465 119.459H64.1286V122.473H70.6465V119.459ZM77.4462 119.459H72.5214V122.473H77.4462V119.459Z" fill="white"/>
<path fill-rule="evenodd" clip-rule="evenodd" d="M135.312 138.756V131.905L140.966 135.333L135.312 138.756Z" fill="white"/>
<path fill-rule="evenodd" clip-rule="evenodd" d="M172.484 138.756V131.905L178.142 135.333L172.484 138.756Z" fill="white"/>
<path fill-rule="evenodd" clip-rule="evenodd" d="M95.3001 84.9991C95.3302 85.7284 95.0904 86.4431 94.6266 87.0061C94.2856 87.4057 93.8277 87.6877 93.3178 87.8122L92.8401 87.9055V89.0561H91.4787V87.86C91.1012 87.8026 90.7413 87.6612 90.4254 87.4462C90.0098 87.1772 89.6721 86.8035 89.4462 86.3626C89.1971 85.8673 89.0532 85.3257 89.0234 84.7719L90.8386 84.6475C90.9246 85.2958 91.1133 85.7718 91.4309 86.0827C91.5316 86.1856 91.6527 86.2663 91.7864 86.3194C91.9201 86.3726 92.0634 86.3971 92.2072 86.3913C92.4066 86.3897 92.6025 86.338 92.7768 86.2411C92.9512 86.1441 93.0986 86.005 93.2055 85.8364C93.3497 85.6166 93.4146 85.3542 93.3894 85.0924C93.3894 84.614 93.1506 84.1691 92.6729 83.7027C92.2955 83.3941 91.739 82.9228 90.9771 82.2913C90.4598 81.8747 90.0067 81.3838 89.6325 80.8346C89.3489 80.3581 89.2011 79.8129 89.205 79.2582C89.1767 78.8039 89.2679 78.3501 89.4695 77.9421C89.6711 77.5341 89.976 77.1862 90.3538 76.9331C90.6804 76.7195 91.0482 76.5769 91.4333 76.5145V75.3496H92.8114V76.4978C93.1802 76.547 93.5366 76.6647 93.8623 76.8446C94.2399 77.0508 94.5576 77.3517 94.7842 77.7177C95.0246 78.1097 95.1687 78.5532 95.2046 79.0118L93.3822 79.3156C93.3523 78.9183 93.1929 78.5417 92.9285 78.244C92.8302 78.1475 92.7124 78.0734 92.583 78.0268C92.4535 77.9801 92.3156 77.962 92.1785 77.9737C92.0205 77.9672 91.8637 78.0025 91.7236 78.0759C91.5836 78.1494 91.4653 78.2585 91.3808 78.3923C91.2307 78.6388 91.1567 78.9243 91.1682 79.2128C91.1682 79.7247 91.4214 80.2461 91.9158 80.7796C92.1774 81.0436 92.4619 81.2837 92.766 81.4972C93.0724 81.7045 93.3644 81.9323 93.6402 82.1789C94.0602 82.5353 94.4299 82.9473 94.7388 83.4037L95.0302 83.9299C95.187 84.266 95.2785 84.6288 95.3001 84.9991Z" fill="#F6EC18"/>
<path fill-rule="evenodd" clip-rule="evenodd" d="M99.6328 87.0062C98.2284 90.355 95.508 92.3452 92.6539 92.5868H92.5178C91.0229 92.681 89.5344 92.3209 88.2473 91.5534C87.1881 90.8996 86.2756 90.033 85.5676 89.0083C83.4323 85.9728 82.9188 81.6336 84.4665 77.8757C84.7679 77.1772 85.1367 76.5098 85.5676 75.8831C87.2179 73.6059 89.5538 72.295 92.0329 72.295L92.6539 72.3237H92.6897C93.81 72.412 94.8927 72.768 95.8472 73.3619C100.041 75.8759 101.73 82.0044 99.6328 86.9966V87.0062ZM96.6783 71.4363C95.5933 70.809 94.401 70.3896 93.1626 70.1996C92.79 70.1637 92.4461 70.1302 92.0711 70.1302H92.0329C88.2808 70.1637 84.6695 72.6443 82.8472 76.9165C80.5495 82.4923 82.0614 89.1757 86.2172 92.5868L86.2554 92.6203C86.6226 92.9262 87.0131 93.2029 87.4233 93.4479C88.3699 94.0417 89.4256 94.4394 90.5282 94.6177C91.0278 94.7148 91.5359 94.7613 92.0449 94.7564H92.0831C92.4378 94.7683 92.7929 94.7467 93.1435 94.6918L93.7597 94.6201C96.8646 93.9694 99.7187 91.6252 101.223 87.9749C103.765 81.9087 101.73 74.5029 96.6783 71.4363Z" fill="#E9EFF8"/>
<path fill-rule="evenodd" clip-rule="evenodd" d="M95.3001 84.9991C95.3302 85.7284 95.0904 86.4431 94.6266 87.0061C94.2856 87.4057 93.8277 87.6877 93.3178 87.8122L92.8401 87.9055V89.0561H91.4787V87.86C91.1012 87.8026 90.7413 87.6612 90.4254 87.4462C90.0098 87.1772 89.6721 86.8035 89.4462 86.3626C89.1971 85.8673 89.0532 85.3257 89.0234 84.7719L90.8386 84.6475C90.9246 85.2958 91.1133 85.7718 91.4309 86.0827C91.5316 86.1856 91.6527 86.2663 91.7864 86.3194C91.9201 86.3726 92.0634 86.3971 92.2072 86.3913C92.4066 86.3897 92.6025 86.338 92.7768 86.2411C92.9512 86.1441 93.0986 86.005 93.2055 85.8364C93.3497 85.6166 93.4146 85.3542 93.3894 85.0924C93.3894 84.614 93.1506 84.1691 92.6729 83.7027C92.2955 83.3941 91.739 82.9228 90.9771 82.2913C90.4598 81.8747 90.0067 81.3838 89.6325 80.8346C89.3489 80.3581 89.2011 79.8129 89.205 79.2582C89.1767 78.8039 89.2679 78.3501 89.4695 77.9421C89.6711 77.5341 89.976 77.1862 90.3538 76.9331C90.6804 76.7195 91.0482 76.5769 91.4333 76.5145V75.3496H92.8114V76.4978C93.1802 76.547 93.5366 76.6647 93.8623 76.8446C94.2399 77.0508 94.5576 77.3517 94.7842 77.7177C95.0246 78.1097 95.1687 78.5532 95.2046 79.0118L93.3822 79.3156C93.3523 78.9183 93.1929 78.5417 92.9285 78.244C92.8302 78.1475 92.7124 78.0734 92.583 78.0268C92.4535 77.9801 92.3156 77.962 92.1785 77.9737C92.0205 77.9672 91.8637 78.0025 91.7236 78.0759C91.5836 78.1494 91.4653 78.2585 91.3808 78.3923C91.2307 78.6388 91.1567 78.9243 91.1682 79.2128C91.1682 79.7247 91.4214 80.2461 91.9158 80.7796C92.1774 81.0436 92.4619 81.2837 92.766 81.4972C93.0724 81.7045 93.3644 81.9323 93.6402 82.1789C94.0602 82.5353 94.4299 82.9473 94.7388 83.4037L95.0302 83.9299C95.187 84.266 95.2785 84.6288 95.3001 84.9991Z" fill="#F6EC18"/>
<path fill-rule="evenodd" clip-rule="evenodd" d="M94.6334 87.0061C94.2924 87.4057 93.8345 87.6877 93.3246 87.8122L92.8469 87.9055V89.056H91.4783V87.86C91.1008 87.8025 90.7409 87.6611 90.4251 87.4462C90.0095 87.1772 89.6718 86.8035 89.4458 86.3626C89.1968 85.8673 89.0528 85.3257 89.0231 84.7719L90.8382 84.6475C90.9242 85.2957 91.1129 85.7718 91.4306 86.0827C91.5312 86.1856 91.6523 86.2662 91.786 86.3194C91.9197 86.3725 92.0631 86.397 92.2068 86.3913C92.4062 86.3897 92.6021 86.338 92.7765 86.2411C92.9509 86.1441 93.0982 86.005 93.2051 85.8363C93.3493 85.6166 93.4142 85.3541 93.389 85.0924C93.389 84.614 93.1502 84.1691 92.6725 83.7026C92.2952 83.3941 91.7387 82.9228 90.9768 82.2913C90.4594 81.8747 90.0063 81.3838 89.6321 80.8346C89.3486 80.3581 89.2007 79.8129 89.2046 79.2582C89.1763 78.8039 89.2675 78.3501 89.4691 77.9421C89.6707 77.5341 89.9756 77.1862 90.3534 76.9331C90.68 76.7195 91.0478 76.5768 91.433 76.5145V75.3496H92.8111V76.4978C93.1798 76.547 93.5362 76.6646 93.8619 76.8446C94.2395 77.0508 94.5572 77.3517 94.7839 77.7177C95.0243 78.1097 95.1683 78.5532 95.2042 79.0118L93.3819 79.3156C93.352 78.9182 93.1925 78.5417 92.9281 78.244C92.8299 78.1475 92.712 78.0734 92.5826 78.0267C92.4532 77.9801 92.3152 77.962 92.1781 77.9737C92.0202 77.9672 91.8633 78.0024 91.7233 78.0759C91.5832 78.1494 91.465 78.2585 91.3804 78.3923C91.2303 78.6388 91.1564 78.9242 91.1678 79.2128C91.1678 79.7246 91.421 80.2461 91.9154 80.7795C92.177 81.0435 92.4616 81.2837 92.7657 81.4972C93.072 81.7045 93.364 81.9323 93.6398 82.1789C94.0599 82.5353 94.4295 82.9473 94.7385 83.4036L95.0299 83.9299C95.1935 84.2678 95.2908 84.634 95.3165 85.0087C95.3466 85.7379 95.1067 86.4526 94.6429 87.0156L94.6334 87.0061ZM95.8539 73.3714C94.884 72.7742 93.7879 72.4129 92.6534 72.3165C90.4107 72.4983 88.2516 73.7517 86.7517 75.883C86.3094 76.5047 85.9377 77.1738 85.6435 77.878C84.0743 81.6144 84.6141 85.9679 86.7302 88.9819C87.4346 90.0106 88.3487 90.8781 89.4124 91.527C90.3929 92.1204 91.4956 92.482 92.6367 92.5843C95.5171 92.3308 98.2303 90.3214 99.6203 87.0061C101.725 82.0115 100.036 75.8902 95.8539 73.3785V73.3714Z" fill="#F6EC18"/>
<path fill-rule="evenodd" clip-rule="evenodd" d="M89.4093 91.539C90.3898 92.1324 91.4925 92.494 92.6336 92.5963C91.0918 92.717 89.5513 92.3469 88.2318 91.539C87.17 90.887 86.2589 90.0162 85.5592 88.9843C83.4335 85.9703 82.8985 81.6168 84.4725 77.8804C84.767 77.178 85.137 76.5099 85.5759 75.8878C87.3361 73.3929 89.9849 72.0892 92.6503 72.3212C90.4076 72.503 88.2485 73.7565 86.7486 75.8878C86.3063 76.5095 85.9346 77.1786 85.6404 77.8828C84.0712 81.6191 84.611 85.9727 86.7271 88.9867C87.4307 90.018 88.3449 90.888 89.4093 91.539Z" fill="#AAB9DE"/>
<path fill-rule="evenodd" clip-rule="evenodd" d="M95.3001 84.9991C95.3302 85.7284 95.0904 86.4431 94.6266 87.0061C94.2856 87.4057 93.8277 87.6877 93.3178 87.8122L92.8401 87.9055V89.0561H91.4787V87.86C91.1012 87.8026 90.7413 87.6612 90.4254 87.4462C90.0098 87.1772 89.6721 86.8035 89.4462 86.3626C89.1971 85.8673 89.0532 85.3257 89.0234 84.7719L90.8386 84.6475C90.9246 85.2958 91.1133 85.7718 91.4309 86.0827C91.5316 86.1856 91.6527 86.2663 91.7864 86.3194C91.9201 86.3726 92.0634 86.3971 92.2072 86.3913C92.4066 86.3897 92.6025 86.338 92.7768 86.2411C92.9512 86.1441 93.0986 86.005 93.2055 85.8364C93.3497 85.6166 93.4146 85.3542 93.3894 85.0924C93.3894 84.614 93.1506 84.1691 92.6729 83.7027C92.2955 83.3941 91.739 82.9228 90.9771 82.2913C90.4598 81.8747 90.0067 81.3838 89.6325 80.8346C89.3489 80.3581 89.2011 79.8129 89.205 79.2582C89.1767 78.8039 89.2679 78.3501 89.4695 77.9421C89.6711 77.5341 89.976 77.1862 90.3538 76.9331C90.6804 76.7195 91.0482 76.5769 91.4333 76.5145V75.3496H92.8114V76.4978C93.1802 76.547 93.5366 76.6647 93.8623 76.8446C94.2399 77.0508 94.5576 77.3517 94.7842 77.7177C95.0246 78.1097 95.1687 78.5532 95.2046 79.0118L93.3822 79.3156C93.3523 78.9183 93.1929 78.5417 92.9285 78.244C92.8302 78.1475 92.7124 78.0734 92.583 78.0268C92.4535 77.9801 92.3156 77.962 92.1785 77.9737C92.0205 77.9672 91.8637 78.0025 91.7236 78.0759C91.5836 78.1494 91.4653 78.2585 91.3808 78.3923C91.2307 78.6388 91.1567 78.9243 91.1682 79.2128C91.1682 79.7247 91.4214 80.2461 91.9158 80.7796C92.1774 81.0436 92.4619 81.2837 92.766 81.4972C93.0724 81.7045 93.3644 81.9323 93.6402 82.1789C94.0602 82.5353 94.4299 82.9473 94.7388 83.4037L95.0302 83.9299C95.187 84.266 95.2785 84.6288 95.3001 84.9991Z" fill="#F6EC18"/>
<path fill-rule="evenodd" clip-rule="evenodd" d="M99.6203 87.0181C98.2303 90.3335 95.5171 92.3452 92.6367 92.5964H92.6224C91.4862 92.4923 90.3885 92.1308 89.4124 91.5391C88.3478 90.8874 87.4335 90.0166 86.7302 88.9844C84.6141 85.9704 84.0743 81.6168 85.6435 77.8804C85.9368 77.1766 86.3086 76.5081 86.7517 75.8879C88.2516 73.7661 90.4107 72.5031 92.6534 72.3213H92.6725C93.8003 72.4212 94.8894 72.7824 95.8539 73.3762C100.036 75.8903 101.725 82.0115 99.6203 87.0181Z" fill="#D0D9EE"/>
<path fill-rule="evenodd" clip-rule="evenodd" d="M95.3001 84.9991C95.3302 85.7284 95.0904 86.4431 94.6266 87.0061C94.2856 87.4057 93.8277 87.6877 93.3178 87.8122L92.8401 87.9055V89.0561H91.4787V87.86C91.1012 87.8026 90.7413 87.6612 90.4254 87.4462C90.0098 87.1772 89.6721 86.8035 89.4462 86.3626C89.1971 85.8673 89.0532 85.3257 89.0234 84.7719L90.8386 84.6475C90.9246 85.2958 91.1133 85.7718 91.4309 86.0827C91.5316 86.1856 91.6527 86.2663 91.7864 86.3194C91.9201 86.3726 92.0634 86.3971 92.2072 86.3913C92.4066 86.3897 92.6025 86.338 92.7768 86.2411C92.9512 86.1441 93.0986 86.005 93.2055 85.8364C93.3497 85.6166 93.4146 85.3542 93.3894 85.0924C93.3894 84.614 93.1506 84.1691 92.6729 83.7027C92.2955 83.3941 91.739 82.9228 90.9771 82.2913C90.4598 81.8747 90.0067 81.3838 89.6325 80.8346C89.3489 80.3581 89.2011 79.8129 89.205 79.2582C89.1767 78.8039 89.2679 78.3501 89.4695 77.9421C89.6711 77.5341 89.976 77.1862 90.3538 76.9331C90.6804 76.7195 91.0482 76.5769 91.4333 76.5145V75.3496H92.8114V76.4978C93.1802 76.547 93.5366 76.6647 93.8623 76.8446C94.2399 77.0508 94.5576 77.3517 94.7842 77.7177C95.0246 78.1097 95.1687 78.5532 95.2046 79.0118L93.3822 79.3156C93.3523 78.9183 93.1929 78.5417 92.9285 78.244C92.8302 78.1475 92.7124 78.0734 92.583 78.0268C92.4535 77.9801 92.3156 77.962 92.1785 77.9737C92.0205 77.9672 91.8637 78.0025 91.7236 78.0759C91.5836 78.1494 91.4653 78.2585 91.3808 78.3923C91.2307 78.6388 91.1567 78.9243 91.1682 79.2128C91.1682 79.7247 91.4214 80.2461 91.9158 80.7796C92.1774 81.0436 92.4619 81.2837 92.766 81.4972C93.0724 81.7045 93.3644 81.9323 93.6402 82.1789C94.0602 82.5353 94.4299 82.9473 94.7388 83.4037L95.0302 83.9299C95.187 84.266 95.2785 84.6288 95.3001 84.9991Z" fill="white"/>
<path fill-rule="evenodd" clip-rule="evenodd" d="M324.979 175.306C325.204 175.555 325.353 175.864 325.407 176.195C325.462 176.527 325.419 176.867 325.285 177.175C324.836 178.421 323.346 179.806 321.619 181.2C321.399 181.38 321.201 181.54 321.031 181.691C320.986 181.731 320.94 181.77 320.9 181.81C320.859 181.851 320.833 181.875 320.797 181.904C319.185 183.389 319.792 183.731 316.899 186.748C313.601 190.185 311.327 190.25 310.69 189.936C310.147 189.668 311.253 187.846 312.488 185.796C312.548 185.695 312.605 185.597 312.667 185.497C312.83 185.226 312.992 184.946 313.145 184.674C314.59 182.205 314.22 181.047 313.878 177.378C313.601 174.393 309.242 160.708 309.242 160.708L315.569 159.617C315.569 159.617 317.48 170.515 319.57 172.192C320.692 173.087 321.958 173.099 323.026 173.764C323.102 173.809 323.178 173.854 323.25 173.905C323.887 174.292 324.468 174.763 324.979 175.306Z" fill="#F0C29F"/>
<path fill-rule="evenodd" clip-rule="evenodd" d="M324.978 175.306C325.203 175.555 325.352 175.864 325.406 176.195C325.46 176.527 325.418 176.867 325.284 177.174C324.732 178.421 323.282 179.806 321.613 181.188C321.395 181.37 321.2 181.535 321.03 181.691C320.985 181.731 320.939 181.77 320.899 181.81C320.858 181.851 320.832 181.875 320.796 181.904C319.184 183.389 319.79 183.731 316.898 186.747C313.6 190.185 311.326 190.249 310.688 189.936C310.146 189.668 311.252 187.845 312.487 185.795C314.794 184.891 316.822 183.393 318.367 181.454C320.357 178.914 321.68 175.651 323.032 173.763C323.108 173.809 323.184 173.854 323.256 173.905C323.89 174.292 324.469 174.764 324.978 175.306Z" fill="#152F54"/>
<path fill-rule="evenodd" clip-rule="evenodd" d="M273.98 171.35C273.591 173.304 270.806 172.979 267.699 172.218C264.592 171.457 265.33 172.362 260.904 171.871C256.478 171.381 255.141 169.718 255.005 169.07C254.885 168.484 257.073 168.281 259.416 168.008C259.71 167.977 260.006 167.939 260.305 167.903C262.948 167.57 264.89 165.858 267.293 164.454C269.569 163.124 272.97 157.701 272.97 157.701L279.039 158.179C279.039 158.179 275.855 163.021 274.623 165.128C273.906 166.367 273.937 167.999 274.028 169.269C274.104 169.962 274.088 170.661 273.98 171.35Z" fill="#F0C29F"/>
<path fill-rule="evenodd" clip-rule="evenodd" d="M267.699 172.228C264.594 171.467 265.33 172.371 260.904 171.881C256.478 171.391 255.141 169.728 255.005 169.08C254.885 168.494 257.073 168.291 259.416 168.018L259.438 168.063C261.332 169.282 263.521 169.964 265.772 170.037C268.776 170.106 271.955 169.247 274.028 169.281C274.104 169.973 274.088 170.672 273.98 171.36C273.591 173.304 270.806 172.979 267.699 172.228Z" fill="#152F54"/>
<path fill-rule="evenodd" clip-rule="evenodd" d="M287.488 82.0976C287.488 82.0976 286.055 78.5502 284.453 78.4067C282.85 78.2632 277.803 77.4618 277.438 78.1866C277.073 78.9114 277.438 81.5188 278.527 82.4589C279.616 83.3989 286.33 84.9179 286.33 84.9179L287.488 82.0976Z" fill="#F0C29F"/>
<path fill-rule="evenodd" clip-rule="evenodd" d="M297.242 132.493L310.319 167.738C311.641 167.837 312.97 167.715 314.252 167.377C316.022 166.867 318.055 165.523 318.055 165.523C318.055 165.523 314.814 131.68 308.864 124.643C302.915 117.605 297.242 132.493 297.242 132.493Z" fill="#0F3970"/>
<path fill-rule="evenodd" clip-rule="evenodd" d="M348.956 118.234C348.956 118.234 311.382 105.509 303.001 108.219C294.62 110.929 269.461 161.062 269.461 161.062C269.461 161.062 270.029 161.815 271.579 162.399C273.012 162.942 276.511 162.908 276.511 162.908C276.511 162.908 299.218 143.411 301.919 137.727C304.62 132.044 305.705 126.628 308.406 127.169C311.107 127.709 343.276 140.435 350.578 132.855C357.879 125.274 355.966 115.426 355.966 115.426L348.956 118.234Z" fill="#0F3D86"/>
<path fill-rule="evenodd" clip-rule="evenodd" d="M325.998 59.0383C325.401 57.7968 324.73 55.5937 324.401 51.666C324.451 52.0535 325.117 57.0098 327.028 59.8157C334.843 64.9514 349.823 82.112 349.522 85.3628C349.522 85.3628 354.8 76.3998 354.891 76.3448C354.891 76.3448 364.623 63.9539 353.088 56.8543C347.226 53.2447 347.257 48.6137 347.501 44.5903C347.745 40.5668 345.901 23.2508 334.162 27.7813C334.162 27.7813 332.273 26.9417 331.43 27.0637C331.813 27.1375 332.171 27.3079 332.471 27.5588C331.11 27.4775 329.161 27.578 327.539 28.5157C323.235 30.958 319.385 52.9385 325.998 59.0383Z" fill="#0F3970"/>
<path fill-rule="evenodd" clip-rule="evenodd" d="M327.485 60.0716C327.446 60.0883 331.258 62.0714 334.129 61.2844C336.826 60.55 338.583 57.048 338.548 57.0385C337.406 56.8112 337.076 55.2373 337.115 48.4845L336.599 48.585L327.917 50.3072C327.917 50.3072 328.11 53.0437 328.118 55.62C328.115 57.7872 327.979 59.8396 327.485 60.0716Z" fill="#F0C29F"/>
<path fill-rule="evenodd" clip-rule="evenodd" d="M327.906 50.3072C327.906 50.3072 328.1 53.0437 328.107 55.62C332.965 55.486 335.535 51.0464 336.588 48.585L327.906 50.3072Z" fill="#ED7D5B"/>
<path fill-rule="evenodd" clip-rule="evenodd" d="M337.479 47.6377C337.479 47.6377 340.025 43.6095 340.639 40.165C341.071 37.7035 339.82 28.5874 330.672 29.9007C328.83 30.1574 327.069 30.8244 325.518 31.8526C323.533 33.1945 320.67 36.0961 323.872 44.052L324.704 46.7407L337.479 47.6377Z" fill="#0F3970"/>
<path fill-rule="evenodd" clip-rule="evenodd" d="M326.279 52.7472C326.279 52.7472 337.776 52.9385 337.784 45.7671C337.791 38.5958 339.281 33.7901 331.942 33.3644C324.602 32.9386 323.176 35.6751 322.591 38.0695C322.006 40.464 323.291 52.5151 326.279 52.7472Z" fill="#F0C29F"/>
<path fill-rule="evenodd" clip-rule="evenodd" d="M326.711 33.1897C326.711 33.1897 329.856 41.6026 334.686 42.8488C339.515 44.0951 341.612 42.7962 341.612 42.7962C339.229 40.6994 337.648 37.8377 337.141 34.7015C337.141 34.7015 329.083 29.183 326.711 33.1897Z" fill="#0F3970"/>
<path fill-rule="evenodd" clip-rule="evenodd" d="M327.484 33.8738C327.484 33.8738 325.136 35.7516 324.563 37.5767C323.99 39.4019 323.732 43.1646 322.638 43.0354C322.638 43.0354 320.264 37.316 322.929 34.0819C325.755 30.6517 327.484 33.8738 327.484 33.8738Z" fill="#0F3970"/>
<path fill-rule="evenodd" clip-rule="evenodd" d="M357.779 118.433C357.158 120.158 355.26 120.6 352.709 120.301C347.851 119.734 340.633 116.474 335.434 114.206C327.502 110.764 323.898 113.998 321.375 111.814C318.853 109.63 324.258 104.753 319.572 82.1311C317.984 74.4598 328.053 58.0121 328.053 58.0121C328.053 58.0121 328.925 62.7746 338.562 57.0552C338.901 56.8543 342.697 62.4756 346.348 69.4102C350.375 77.0648 354.23 86.3005 353.098 91.063C350.922 100.122 359.573 113.424 357.779 118.433Z" fill="#6998D0"/>
<path fill-rule="evenodd" clip-rule="evenodd" d="M328.046 58.0049L322.109 82.4038C322.109 82.4038 321.368 83.7218 320.198 85.5996C317.48 90.0034 312.448 97.4833 309.211 98.244C307.625 98.6195 304.243 97.2872 300.501 95.4022C293.426 91.8141 285.065 86.212 285.065 86.212C284.525 82.9636 287.346 80.3156 287.346 80.3156C287.346 80.3156 304.289 86.6928 305.975 86.8124C309.644 87.0755 313.379 69.3504 316.802 63.4372C319.295 59.1698 328.046 58.0049 328.046 58.0049Z" fill="#6998D0"/>
<path fill-rule="evenodd" clip-rule="evenodd" d="M357.779 118.433C357.158 120.158 355.259 120.6 352.708 120.301C349.346 118.835 334.817 113.197 334.982 109.377C335.221 103.722 337.774 103.542 335.971 96.5623C334.526 90.9554 347.948 80.5356 350.088 78.2727C354.115 85.9273 354.227 86.2837 353.093 91.0463C350.922 100.122 359.573 113.424 357.779 118.433Z" fill="#406FB5"/>
<path fill-rule="evenodd" clip-rule="evenodd" d="M320.205 85.602C317.487 90.0057 312.455 97.4857 309.218 98.2464C307.632 98.6219 304.25 97.2895 300.508 95.4046C303.24 96.1222 305.891 96.0887 308.468 95.8399C311.265 95.5696 312.075 92.1394 316.491 86.9894C319.362 83.6596 320.064 84.4992 320.205 85.602Z" fill="#406FB5"/>
<path fill-rule="evenodd" clip-rule="evenodd" d="M333.653 96.4284C333.653 96.4284 331.22 94.5315 328.922 94.9813C326.624 95.431 325.497 97.0145 325.578 97.7345C325.66 98.4545 326.88 100.488 328.638 100.67C330.396 100.851 335.399 99.5836 335.399 99.5836L333.653 96.4284Z" fill="#F0C29F"/>
<path fill-rule="evenodd" clip-rule="evenodd" d="M338.553 57.0385C338.553 57.0385 347.925 57.6174 351.164 62.1479C355.733 68.5251 363.662 94.5626 361.5 100.519L332.995 100.397C332.995 100.397 332.302 97.1652 333.265 95.6127C334.227 94.0603 349.845 91.5199 350.566 90.7999C351.288 90.0799 341.557 76.7203 341.557 74.5531C341.557 72.3859 338.553 57.0385 338.553 57.0385Z" fill="#6998D0"/>
<path fill-rule="evenodd" clip-rule="evenodd" d="M331.219 107.09H296.712L290.492 85.3628H324.947L331.219 107.09Z" fill="#D0D9EE"/>
<path d="M341.942 106.243H296.828V107.09H341.942V106.243Z" fill="#8D9FCA"/>
<path fill-rule="evenodd" clip-rule="evenodd" d="M307.67 95.8734C307.45 95.1104 307.892 94.4908 308.656 94.4908C309.057 94.5135 309.442 94.658 309.759 94.905C310.076 95.152 310.31 95.4898 310.431 95.8734C310.648 96.6365 310.209 97.256 309.447 97.256C309.045 97.2331 308.661 97.0886 308.343 96.8417C308.026 96.5948 307.791 96.2571 307.67 95.8734Z" fill="#8D9FCA"/>
<path fill-rule="evenodd" clip-rule="evenodd" d="M332.318 37.8806C331.291 37.9571 331.351 38.7776 332.108 38.9689C340.202 41.0022 334.855 37.6892 332.318 37.8806Z" fill="#0F3970"/>
<path fill-rule="evenodd" clip-rule="evenodd" d="M78.0039 179.643C79.1981 179.727 80.3326 178.32 80.6622 177.899C81.7112 176.532 82.519 174.995 83.0506 173.354C82.8038 172.653 82.5466 171.767 82.2791 170.697C77.7141 167.589 77.0907 165.291 80.409 163.803C81.0746 164.179 81.9033 165.336 82.8953 167.274C83.6914 167.24 84.2925 166.834 84.6986 166.056C83.7559 162.787 83.1421 160.132 82.8571 158.091C85.1046 154.742 90.3662 154.263 97.3331 155.168C97.6516 157.025 97.9167 158.993 98.1285 161.069C99.3585 162.205 99.1985 166.417 98.0664 171.273C98.63 174.034 96.9279 175.541 92.96 175.794C92.9194 176.459 92.9815 177.23 92.9934 177.694C92.9934 178.117 93.0173 178.945 93.4592 179.074L94.1972 179.256C94.1207 189.123 89.086 191.02 78.0039 179.643Z" fill="#F0C29F"/>
<path fill-rule="evenodd" clip-rule="evenodd" d="M97.3323 155.165C90.3654 154.259 85.1038 154.739 82.8563 158.086C83.1413 160.126 83.7551 162.781 84.6977 166.051C84.2869 166.831 83.6898 167.247 82.8945 167.269C81.9057 165.331 81.0769 164.174 80.4082 163.798C77.0883 165.289 77.7125 167.587 82.2807 170.692C82.5466 171.76 82.8037 172.646 83.0521 173.35C78.9417 172.426 75.5072 168.75 75.0248 167.157C70.2336 157.701 75.5765 153.706 78.4354 152.249C79.6964 142.884 93.327 150.982 96.9143 145.265C104.416 149.553 99.4389 155.081 97.3323 155.165Z" fill="#0F3970"/>
<path fill-rule="evenodd" clip-rule="evenodd" d="M88.3672 174.828C89.4818 175.378 91.008 175.697 92.9457 175.785C92.9125 176.411 92.9228 177.04 92.9768 177.665C91.1308 177.354 89.4778 176.337 88.3672 174.828Z" fill="#ED7D5B"/>
<path fill-rule="evenodd" clip-rule="evenodd" d="M69.7009 364.508C65.3755 362.98 65.0268 360.748 62.6934 359.657C60.3599 358.566 60.0661 356.605 62.3709 354.478C64.0691 355.837 66.1709 357.504 67.2862 356.619C68.029 356.028 70.5536 356.069 71.0527 356.93C73.25 362.044 76.3072 360.425 76.9114 362.752C76.9807 365.852 71.6856 365.207 69.7009 364.508Z" fill="#142D4D"/>
<path fill-rule="evenodd" clip-rule="evenodd" d="M107.184 359.418C99.5646 359.293 93.8683 359.202 91.2363 358.37C88.3989 357.473 88.984 355.739 90.6153 352.964C97.7996 356.275 95.8817 352.287 99.2421 352.792C101.602 354.696 105.097 355.972 109.727 356.619C111.686 358.064 110.89 359.353 107.184 359.418Z" fill="#142D4D"/>
<path fill-rule="evenodd" clip-rule="evenodd" d="M103.38 180.748C99.5824 179.643 96.171 178.973 93.1457 178.737C92.5995 187.107 88.2399 187.049 80.0669 178.562C72.2019 179.224 70.659 179.325 66.293 180.743C56.8422 189.781 55.968 200.215 51.0312 212.13C56.4983 212.369 58.9535 213.031 62.6675 214.361C63.4636 211.505 64.1324 209.206 64.6737 207.465C64.5145 223.181 64.4564 233.949 64.4994 239.77C82.5795 246.946 97.4734 244.489 103.557 238.897C103.641 224.927 103.757 213.867 103.903 205.716C106.067 208.268 108.072 210.248 109.919 211.656C114.352 206.566 117.354 204.516 119.869 201.514C114.304 192.364 106.33 183.851 103.38 180.748Z" fill="#6998D0"/>
<path fill-rule="evenodd" clip-rule="evenodd" d="M139.823 196.057C130.325 200.009 123.674 203.278 119.871 205.865L118.182 203.363C116.61 204.939 114.819 206.472 112.629 208.728C114.603 210.82 116.867 212.618 119.352 214.065C125.952 213.362 133.248 208.356 141.239 199.048C143.72 198.552 145.551 197.651 146.733 196.344C146.797 195.148 146.191 193.952 144.925 192.737C148.235 190.575 149.554 189.027 148.882 188.094C143.684 191.301 140.664 193.956 139.823 196.057Z" fill="#F0C29F"/>
<path fill-rule="evenodd" clip-rule="evenodd" d="M103.557 238.897C103.199 240.255 104.677 248.226 104.923 252.4C107.326 267.262 105.267 286.606 103.968 311.483C101.653 320.248 98.2354 331.928 98.4552 348.366C94.4236 349.603 92.9619 349.73 89.322 348.802C86.7736 331.646 88.5099 317.906 90.8123 311.562C89.3387 301.755 87.1414 290.775 83.9409 274.938C80.3345 292.196 75.5099 305.001 73.4201 313.359C73.0069 322.688 71.1248 335.248 70.1408 351.077C67.1482 351.983 65.2828 352.244 62.1755 351.861C58.144 337.31 58.8199 321.482 60.5276 304.365C62.3475 283.793 59.3501 260.554 62.3523 252.5C63.8833 247.716 64.0839 243.492 64.5018 239.774C79.5853 244.799 92.6036 244.507 103.557 238.897Z" fill="#406FB5"/>
<path fill-rule="evenodd" clip-rule="evenodd" d="M67.2804 223.805C66.3131 223.951 65.3983 224.076 64.5361 224.193C64.4899 231.125 64.4772 236.317 64.4979 239.77C65.3553 240.152 66.5543 240.595 67.4905 240.705C67.4905 240.26 67.3472 239.232 67.3425 238.791C67.2835 233.491 67.2629 228.494 67.2804 223.803V223.805ZM111.487 209.915C108.826 207.695 106.295 204.089 103.894 199.098C104.163 200.836 104.272 203.162 104.219 206.075C106.265 208.456 108.169 210.316 109.93 211.656C110.471 211.034 110.993 210.454 111.497 209.915H111.487ZM68.0327 196.388C66.8624 200.17 65.743 203.859 64.6746 207.453C64.6444 210.491 64.6181 213.344 64.5958 216.012C65.372 215.94 66.2796 215.888 67.3568 215.861C67.4667 208.494 67.692 202.002 68.0327 196.388Z" fill="#406FB5"/>
<path fill-rule="evenodd" clip-rule="evenodd" d="M91.8971 201.834H111.802C112.01 201.828 112.217 201.869 112.407 201.955C112.597 202.04 112.766 202.167 112.9 202.327C113.034 202.486 113.13 202.674 113.182 202.877C113.233 203.079 113.238 203.29 113.197 203.494L108.73 231.737C108.647 232.192 108.411 232.604 108.061 232.906C107.711 233.208 107.269 233.381 106.808 233.397H86.9054C86.697 233.404 86.4898 233.363 86.2994 233.278C86.1091 233.192 85.9404 233.065 85.806 232.906C85.6716 232.746 85.575 232.558 85.5235 232.356C85.4719 232.153 85.4666 231.942 85.5081 231.737L89.9744 203.494C90.0584 203.04 90.2947 202.627 90.6443 202.326C90.9939 202.024 91.4358 201.85 91.8971 201.834Z" fill="#0F3D86"/>
<path fill-rule="evenodd" clip-rule="evenodd" d="M52.8641 212.235C52.0043 215.732 51.646 218.933 52.3506 223.171C54.5001 226.295 63.1676 224.549 85.4895 220.813C86.2872 221.545 87.9447 222.269 90.4549 221.946C92.7932 221.363 92.903 220.75 95.5231 218.282C96.16 216.357 96.0294 214.887 95.1314 213.871C92.1841 215.608 90.6293 216.533 87.3094 216.643C88.1931 214.364 88.3261 212.893 87.7083 212.23C86.5762 213.141 85.839 214.509 85.4966 216.335C67.899 215.569 63.2584 215.672 60.9153 216.902C61.1685 215.797 61.3938 214.824 61.5913 213.983C58.8518 213.05 56.621 212.507 52.8641 212.235Z" fill="#F0C29F"/>
<path fill-rule="evenodd" clip-rule="evenodd" d="M91.1292 349.199C91.3062 350.534 91.3319 351.886 91.2057 353.227C97.2148 355.842 96.1926 352.825 98.5953 352.749C97.9903 351.687 97.5986 350.331 97.4202 348.682C94.793 349.436 93.3122 349.603 91.1292 349.208V349.199ZM63.1302 351.957C63.1453 352.923 63.0386 353.888 62.8125 354.827C64.4199 356.1 66.2661 357.425 67.286 356.617C67.7636 356.229 69.0343 356.112 69.9777 356.322C69.5301 354.705 69.2217 353.053 69.0557 351.383C67.1353 351.952 65.1238 352.146 63.1302 351.957Z" fill="#F4AE7C"/>
<path fill-rule="evenodd" clip-rule="evenodd" d="M104.928 252.4C94.3184 262.308 80.1297 262.34 62.3617 252.495C59.3595 260.55 62.3617 283.781 60.537 304.36C58.8293 321.473 58.1486 337.306 62.185 351.857C62.5146 351.897 62.8299 351.931 63.1403 351.957C65.1339 352.147 67.1453 351.953 69.0659 351.385C69.417 351.292 69.7824 351.187 70.1574 351.072C71.1414 335.244 73.0235 322.671 73.4367 313.354C75.5265 304.996 80.3511 292.192 83.9575 274.933C87.158 290.771 89.3553 301.75 90.8289 311.558C88.5265 317.901 86.7902 331.651 89.3386 348.797C90.0002 348.967 90.5901 349.101 91.1394 349.199C93.3224 349.594 94.8128 349.424 97.4304 348.673C97.76 348.579 98.1039 348.474 98.4718 348.362C98.2496 331.924 101.67 320.243 103.984 311.479C105.271 286.604 107.33 267.262 104.928 252.4Z" fill="#0F3970"/>
<path fill-rule="evenodd" clip-rule="evenodd" d="M88.1777 337.009C92.0469 338.065 95.5913 338.384 98.8108 337.966C98.8801 337.114 98.9565 336.291 99.0497 335.457C95.3884 335.907 91.6752 335.663 88.1037 334.739C88.1212 335.482 88.1475 336.236 88.1825 337.002L88.1777 337.009ZM59.8921 339.961C64.102 340.465 67.8303 340.186 71.0769 339.124C71.1605 338.239 71.2417 337.365 71.3157 336.507C67.5511 337.709 63.5801 338.125 59.6484 337.729C59.7185 338.475 59.7981 339.219 59.8873 339.961H59.8921ZM70.5323 345.532C70.6016 344.654 70.6708 343.786 70.7425 342.932C67.382 343.833 63.8876 344.123 60.4247 343.791C60.5489 344.544 60.6802 345.298 60.8259 346.044C64.4149 346.447 67.6503 346.277 70.5323 345.532ZM98.6221 340.683C95.2274 341.224 91.7641 341.164 88.3903 340.504C88.4476 341.255 88.5121 342.016 88.5885 342.783C92.2061 343.552 95.5133 343.688 98.5099 343.193C98.5362 342.343 98.5768 341.506 98.6221 340.683Z" fill="#142D4D"/>
<path fill-rule="evenodd" clip-rule="evenodd" d="M418.39 349.941C418.39 344.525 410.387 340.133 400.513 340.133C390.639 340.133 382.641 344.527 382.641 349.941C382.641 355.354 390.644 359.748 400.513 359.748C410.382 359.748 418.39 355.361 418.39 349.941Z" fill="#AAB9DE"/>
</svg>
