<svg width="7" height="5" viewBox="0 0 7 5" fill="none" xmlns="http://www.w3.org/2000/svg">
<path d="M6.8309 2.88911C6.94364 2.78165 7 2.64084 7 2.5C7 2.35919 6.94362 2.21832 6.8309 2.11089L4.78544 0.161179C4.55998 -0.0537264 4.19445 -0.0537264 3.96899 0.161179C3.74353 0.376085 3.74353 0.724505 3.96899 0.939411L5.02891 1.94971L0.577318 1.94971C0.258476 1.94971 -1.22563e-07 2.19608 -1.09278e-07 2.5C-9.59939e-08 2.80392 0.258476 3.05029 0.577318 3.05029L5.02891 3.05029L3.96899 4.06059C3.74353 4.2755 3.74353 4.62391 3.96899 4.83882C4.19445 5.05373 4.55998 5.05373 4.78544 4.83882L6.8309 2.88911Z" fill="#E63114"/>
</svg>
