<svg width="222" height="222" viewBox="0 0 222 222" fill="none" xmlns="http://www.w3.org/2000/svg">
<path d="M196 110.5C196 99.272 193.801 88.1539 189.53 77.7806C185.258 67.4072 178.997 57.9818 171.104 50.0424C163.211 42.103 153.841 35.8051 143.528 31.5083C133.215 27.2115 122.162 25 111 25C99.8376 25 88.7846 27.2115 78.4719 31.5083C68.1592 35.8051 58.7889 42.103 50.8959 50.0424C43.0029 57.9818 36.7419 67.4072 32.4702 77.7806C28.1986 88.1539 26 99.272 26 110.5H43.7686C43.7686 101.619 45.5076 92.8252 48.8862 84.6203C52.2649 76.4154 57.2172 68.9603 63.4602 62.6806C69.7032 56.4008 77.1147 51.4194 85.2716 48.0209C93.4285 44.6223 102.171 42.8731 111 42.8731C119.829 42.8731 128.571 44.6223 136.728 48.0209C144.885 51.4194 152.297 56.4008 158.54 62.6805C164.783 68.9603 169.735 76.4154 173.114 84.6203C176.492 92.8252 178.231 101.619 178.231 110.5H196Z" fill="url(#paint0_linear_104_24)"/>
<path opacity="0.3" d="M210 110.5C210 97.4335 207.439 84.4949 202.464 72.423C197.489 60.3511 190.197 49.3823 181.004 40.1429C171.811 30.9034 160.897 23.5743 148.886 18.574C136.874 13.5736 124.001 11 111 11C97.9991 11 85.1256 13.5736 73.1143 18.574C61.1031 23.5743 50.1894 30.9034 40.9964 40.1429C31.8034 49.3823 24.5111 60.3511 19.5359 72.423C14.5607 84.4949 12 97.4335 12 110.5H16.0039C16.0039 97.9619 18.4611 85.5466 23.2351 73.963C28.0091 62.3793 35.0064 51.8541 43.8276 42.9884C52.6488 34.1226 63.1211 27.0899 74.6466 22.2918C86.172 17.4937 98.5249 15.0242 111 15.0242C123.475 15.0242 135.828 17.4937 147.353 22.2918C158.879 27.0899 169.351 34.1226 178.172 42.9884C186.994 51.8541 193.991 62.3793 198.765 73.963C203.539 85.5466 205.996 97.9619 205.996 110.5H210Z" fill="url(#paint1_linear_104_24)"/>
<path opacity="0.1" d="M222 111C222 96.4233 219.129 81.9893 213.551 68.5221C207.972 55.055 199.796 42.8185 189.489 32.5111C179.182 22.2038 166.945 14.0276 153.478 8.44937C140.011 2.87109 125.577 0 111 0C96.4233 0 81.9893 2.87109 68.5221 8.44937C55.055 14.0276 42.8184 22.2038 32.5111 32.5112C22.2038 42.8185 14.0276 55.055 8.44937 68.5221C2.8711 81.9893 -1.27434e-06 96.4233 0 111H0.950356C0.950354 96.5481 3.79687 82.2377 9.32738 68.8858C14.8579 55.534 22.9641 43.4022 33.1831 33.1832C43.4022 22.9641 55.534 14.8579 68.8858 9.32739C82.2377 3.79688 96.5481 0.950363 111 0.950363C125.452 0.950348 139.762 3.79688 153.114 9.32738C166.466 14.8579 178.598 22.9641 188.817 33.1832C199.036 43.4022 207.142 55.534 212.673 68.8858C218.203 82.2377 221.05 96.5481 221.05 111H222Z" fill="#59388B"/>
<defs>
<linearGradient id="paint0_linear_104_24" x1="111" y1="196" x2="111" y2="25" gradientUnits="userSpaceOnUse">
<stop stop-color="#55308E"/>
<stop offset="1" stop-color="#55308E" stop-opacity="0"/>
</linearGradient>
<linearGradient id="paint1_linear_104_24" x1="107.5" y1="-149" x2="99.5" y2="178.5" gradientUnits="userSpaceOnUse">
<stop stop-color="#55308E"/>
<stop offset="1" stop-color="#55308E" stop-opacity="0"/>
</linearGradient>
</defs>
</svg>
