<svg width="39" height="48" viewBox="0 0 39 48" fill="none" xmlns="http://www.w3.org/2000/svg">
<g clip-path="url(#clip0_831_6549)">
<path d="M38.7728 30.1309C38.6162 29.1047 38.3238 28.1408 37.8853 27.239C37.3319 26.0367 36.5905 25.0002 35.6507 24.1192C34.711 23.2485 33.6355 22.4919 32.4451 21.8493C31.2443 21.2066 29.9704 20.6677 28.6234 20.2116C27.266 19.7659 25.9295 19.3721 24.5929 19.0196C23.7471 18.802 22.9327 18.6154 22.1391 18.4392C21.6379 18.3252 21.1367 18.2215 20.6564 18.1179C19.4034 17.8691 18.2443 17.5997 17.1897 17.3302C16.1351 17.0607 15.2371 16.7601 14.5166 16.4284C13.7857 16.0967 13.2949 15.7236 13.013 15.2883C12.7728 14.8944 12.658 14.428 12.658 13.889C12.658 13.1531 12.8355 12.5623 13.1905 12.1166C13.5455 11.6709 13.9945 11.3289 14.5479 11.1008C15.1013 10.8624 15.6965 10.7173 16.3439 10.6655C16.9913 10.6033 17.6074 10.5826 18.1921 10.5826C20.6668 10.5826 22.964 10.935 25.1046 11.6295C25.9295 11.8989 26.7752 12.1995 27.621 12.5312C30.0226 13.464 32.7584 12.5105 34.0532 10.2924C34.2098 10.0229 34.3664 9.7534 34.523 9.48391C34.523 9.46318 34.5439 9.45282 34.5544 9.43209C36.152 6.68538 34.9616 3.08875 31.9544 2.00043C30.9728 1.63766 29.9809 1.33708 28.968 1.08832C26.0234 0.362773 23.0475 0 20.0299 0C18.1817 0 16.3439 0.134744 14.4957 0.414597C12.6475 0.684085 10.8933 1.15051 9.23308 1.81386C7.56239 2.47722 6.04834 3.38933 4.67002 4.56057C3.30215 5.73181 2.17444 7.21399 1.31822 9.00712C0.890104 9.90887 0.566409 10.8521 0.347132 11.8471C0.127855 12.8421 0.0234375 13.8268 0.0234375 14.8011C0.0234375 17.61 0.524642 19.8592 1.52705 21.5591C2.52946 23.2589 3.86601 24.6063 5.55757 25.6221C6.38247 26.13 7.27002 26.5653 8.23067 26.9385C9.19131 27.3116 10.2042 27.6536 11.2588 27.9646C12.2821 28.2755 13.3367 28.545 14.4331 28.7834C15.3937 28.9907 16.3648 29.2084 17.3568 29.4468C17.5238 29.4882 17.67 29.5193 17.8371 29.5608C18.6724 29.7681 19.5287 29.9132 20.3744 30.079C20.6877 30.1412 21.0009 30.2138 21.3038 30.2967C21.4395 30.3278 21.5752 30.3589 21.711 30.39C22.1078 30.504 22.515 30.6284 22.9013 30.7838C23.2564 30.8979 23.6218 31.0533 24.0186 31.2503C24.4154 31.4472 24.7809 31.6649 25.1359 31.924C25.4909 32.1727 25.7833 32.4733 26.013 32.805C26.2532 33.1367 26.368 33.5202 26.368 33.9451C26.368 34.8469 26.1592 35.531 25.752 36.0181C25.3447 36.5053 24.8226 36.8681 24.1961 37.0961C23.5696 37.3345 22.87 37.4796 22.1078 37.5314C21.3455 37.5936 20.625 37.6247 19.9568 37.6247C17.5656 37.6247 15.3102 37.3034 13.1592 36.7748C12.7728 36.6711 12.376 36.5571 11.9897 36.4327C11.1439 36.184 10.3086 35.9041 9.53589 35.5932C7.01942 34.6085 4.16882 35.5932 2.80095 37.8942C1.07806 40.8067 2.42504 44.5485 5.62022 45.7404C5.95436 45.8648 6.27806 45.9788 6.60175 46.0928L6.54954 46.1758C7.15516 46.3623 7.77123 46.5178 8.37685 46.6836C8.70055 46.7769 9.00336 46.8702 9.27484 46.9324C12.2716 47.6476 15.2997 48.0104 18.3592 48.0104C20.8339 48.0104 23.2981 47.7823 25.7728 47.3366C28.2475 46.8909 30.4612 46.1136 32.4242 45.0045C34.3873 43.8955 35.9744 42.3926 37.1857 40.4854C38.3969 38.5783 39.013 36.1529 39.013 33.1989C39.013 32.1935 38.9295 31.1673 38.7728 30.1412V30.1309Z" fill="url(#paint0_linear_831_6549)"/>
<path d="M14.5219 16.4284C13.7805 16.1278 13.3002 15.7236 13.0183 15.2883C12.7781 14.8944 12.6632 14.428 12.6632 13.889C12.6632 13.1531 12.8407 12.5623 13.1958 12.1166C13.5508 11.6709 13.9998 11.3289 14.5532 11.1008C15.1066 10.8624 15.7018 10.7173 16.3492 10.6655C16.9966 10.6033 17.6126 10.5826 18.1974 10.5826C20.6721 10.5826 22.9693 10.935 25.1098 11.6295C25.8303 11.8678 26.5612 12.127 27.2922 12.4068C29.8922 13.4019 32.8367 12.3965 34.2255 10.0022C34.2464 9.9607 34.2673 9.91924 34.2986 9.87778C36.0946 6.80976 34.5909 2.88145 31.2078 1.74131C30.4664 1.49255 29.7146 1.27489 28.9524 1.08832C26.0078 0.362773 23.0319 0 20.0142 0C18.166 0 16.3283 0.134744 14.4801 0.414597C12.6319 0.684085 10.8777 1.15051 9.21745 1.81386C7.54677 2.47722 6.03271 3.38933 4.6544 4.56057C3.27609 5.73181 2.15882 7.21399 1.30259 9.00712C0.874479 9.90887 0.550784 10.8521 0.331507 11.8471C0.11223 12.8422 0.0078125 13.8268 0.0078125 14.8011C0.0078125 17.61 0.509017 19.8592 1.51143 21.5591C2.51384 23.2589 3.85038 24.6063 5.54195 25.6221C6.36685 26.13 7.27528 26.5239 8.21504 26.9385C9.33231 27.4256 10.8255 27.8817 12.2873 28.2652C15.1484 29.0218 18.1452 27.5811 19.3251 24.8862C20.7243 21.6834 19.0432 18.0039 15.7122 16.8845C15.2946 16.7497 14.8978 16.5943 14.5114 16.4388L14.5219 16.4284Z" fill="url(#paint1_linear_831_6549)"/>
</g>
<defs>
<linearGradient id="paint0_linear_831_6549" x1="19.518" y1="49.088" x2="19.518" y2="-1.35878" gradientUnits="userSpaceOnUse">
<stop stop-color="white"/>
<stop offset="1" stop-color="#C5C2CB"/>
</linearGradient>
<linearGradient id="paint1_linear_831_6549" x1="-54.734" y1="-10.3781" x2="-50.0465" y2="39.8084" gradientUnits="userSpaceOnUse">
<stop stop-color="white"/>
<stop offset="1" stop-color="#C5C2CB"/>
</linearGradient>
<clipPath id="clip0_831_6549">
<rect width="39" height="48" fill="white"/>
</clipPath>
</defs>
</svg>
