<svg width="47" height="42" viewBox="0 0 47 42" fill="none" xmlns="http://www.w3.org/2000/svg">
<g clip-path="url(#clip0_735_35805)">
<path d="M15.7261 5.46519L23.4867 23.2271L31.2336 5.46519C31.9344 3.84338 33.0942 2.46192 34.5702 1.49088C36.0462 0.51984 37.7739 0.00161245 39.5407 2.85999e-08H46.9733V42H45.0878C42.6877 42 40.3857 41.0475 38.6873 39.3516C36.9889 37.6558 36.0329 35.3552 36.0293 32.9551V17.1334L29.0885 34.1574C28.6351 35.2715 27.8601 36.2251 26.8623 36.8968C25.8646 37.5684 24.6894 37.9276 23.4867 37.9284C22.2816 37.9303 21.1034 37.5724 20.103 36.9006C19.1026 36.2288 18.3255 35.2736 17.8712 34.1574L10.9304 17.1334V32.9414C10.934 35.3379 9.98643 37.6379 8.29569 39.3363C6.60496 41.0348 4.3093 41.9928 1.91282 42H0V2.85999e-08H7.419C9.18615 -0.00014047 10.9146 0.51738 12.3909 1.48863C13.8672 2.45989 15.0267 3.84233 15.7261 5.46519Z" fill="url(#paint0_linear_735_35805)"/>
<path d="M7.419 0H0V42H1.91282C4.3093 41.9928 6.60496 41.0348 8.29569 39.3363C9.98642 37.6379 10.934 35.3379 10.9304 32.9414V0.737801C9.82082 0.260201 8.62695 0.00934697 7.419 0V0Z" fill="url(#paint1_linear_735_35805)"/>
<path d="M36.0039 0.737801V17.7619V32.9961C36.0184 35.3938 36.9829 37.688 38.686 39.3758C40.3892 41.0636 42.692 42.0073 45.0898 42H46.948V0H39.5426C38.3256 0.00717784 37.1224 0.258046 36.0039 0.737801Z" fill="url(#paint2_linear_735_35805)"/>
</g>
<defs>
<linearGradient id="paint0_linear_735_35805" x1="23.4867" y1="31.4249" x2="23" y2="-18" gradientUnits="userSpaceOnUse">
<stop stop-color="#E63114"/>
<stop offset="1" stop-color="#FF2F2F"/>
</linearGradient>
<linearGradient id="paint1_linear_735_35805" x1="1.08407e-08" y1="-21.5" x2="-17" y2="90.5" gradientUnits="userSpaceOnUse">
<stop stop-color="#E63114"/>
<stop offset="1" stop-color="#AB0404"/>
</linearGradient>
<linearGradient id="paint2_linear_735_35805" x1="36.0039" y1="-21.5" x2="19.0241" y2="90.5064" gradientUnits="userSpaceOnUse">
<stop stop-color="#E63114"/>
<stop offset="1" stop-color="#AB0404"/>
</linearGradient>
<clipPath id="clip0_735_35805">
<rect width="46.9733" height="42" fill="white"/>
</clipPath>
</defs>
</svg>
