<svg width="261" height="261" viewBox="0 0 261 261" fill="none" xmlns="http://www.w3.org/2000/svg">
<path d="M230.431 129.912C230.431 116.712 227.846 103.641 222.824 91.4449C217.802 79.2492 210.441 68.168 201.162 58.8338C191.882 49.4996 180.866 42.0953 168.741 37.0437C156.617 31.9921 143.622 29.3921 130.499 29.3921C117.376 29.3921 104.381 31.9921 92.2563 37.0437C80.132 42.0953 69.1155 49.4996 59.8359 58.8338C50.5564 68.168 43.1954 79.2492 38.1733 91.4449C33.1512 103.641 30.5664 116.712 30.5664 129.912H51.4565C51.4565 119.471 53.501 109.132 57.4732 99.4862C61.4455 89.84 67.2677 81.0751 74.6074 73.6922C81.9472 66.3092 90.6608 60.4528 100.251 56.4572C109.84 52.4615 120.119 50.405 130.499 50.405C140.879 50.405 151.157 52.4615 160.747 56.4572C170.337 60.4528 179.05 66.3092 186.39 73.6922C193.73 81.0751 199.552 89.8399 203.524 99.4862C207.497 109.132 209.541 119.471 209.541 129.912H230.431Z" fill="url(#paint0_linear_104_23)"/>
<path opacity="0.3" d="M246.893 129.912C246.893 114.55 243.883 99.3383 238.033 85.1457C232.184 70.953 223.611 58.0573 212.803 47.1947C201.995 36.3321 189.164 27.7155 175.043 21.8367C160.921 15.9579 145.786 12.9321 130.501 12.9321C115.216 12.9321 100.081 15.9579 85.96 21.8367C71.8387 27.7155 59.0078 36.3322 48.1998 47.1947C37.3918 58.0573 28.8184 70.953 22.9692 85.1457C17.1199 99.3383 14.1094 114.55 14.1094 129.912H18.8167C18.8167 115.171 21.7055 100.575 27.3182 86.9562C32.9309 73.3376 41.1575 60.9634 51.5284 50.5401C61.8992 40.1169 74.2112 31.8487 87.7614 26.2077C101.312 20.5667 115.835 17.6633 130.501 17.6633C145.168 17.6632 159.691 20.5666 173.241 26.2077C186.791 31.8487 199.103 40.1169 209.474 50.5401C219.845 60.9633 228.072 73.3376 233.684 86.9562C239.297 100.575 242.186 115.171 242.186 129.912H246.893Z" fill="url(#paint1_linear_104_23)"/>
<path opacity="0.1" d="M261 130.5C261 113.362 257.625 96.3928 251.066 80.5598C244.508 64.7268 234.895 50.3406 222.777 38.2226C210.659 26.1045 196.273 16.492 180.44 9.93372C164.607 3.37549 147.637 0 130.5 0C113.362 0 96.3928 3.37549 80.5598 9.93373C64.7268 16.492 50.3406 26.1045 38.2226 38.2226C26.1045 50.3406 16.492 64.7268 9.93372 80.5598C3.37548 96.3928 -1.49821e-06 113.363 0 130.5H1.11731C1.11731 113.509 4.46389 96.6848 10.966 80.9874C17.4681 65.29 26.9983 51.0269 39.0126 39.0126C51.0269 26.9983 65.2899 17.4681 80.9874 10.966C96.6848 4.4639 113.509 1.11731 130.5 1.11731C147.491 1.11731 164.315 4.4639 180.013 10.966C195.71 17.4681 209.973 26.9983 221.987 39.0126C234.002 51.0269 243.532 65.29 250.034 80.9874C256.536 96.6848 259.883 113.509 259.883 130.5H261Z" fill="#59388B"/>
<defs>
<linearGradient id="paint0_linear_104_23" x1="130.499" y1="230.433" x2="130.499" y2="29.3921" gradientUnits="userSpaceOnUse">
<stop stop-color="#55308E"/>
<stop offset="1" stop-color="#55308E" stop-opacity="0"/>
</linearGradient>
<linearGradient id="paint1_linear_104_23" x1="126.386" y1="-175.176" x2="116.981" y2="209.858" gradientUnits="userSpaceOnUse">
<stop stop-color="#55308E"/>
<stop offset="1" stop-color="#55308E" stop-opacity="0"/>
</linearGradient>
</defs>
</svg>
