<svg width="63" height="63" viewBox="0 0 63 63" fill="none" xmlns="http://www.w3.org/2000/svg">
<path d="M31.4844 39.625C35.9643 39.625 39.6094 35.9799 39.6094 31.5C39.6094 27.0201 35.9643 23.375 31.4844 23.375C27.0045 23.375 23.3594 27.0201 23.3594 31.5C23.3594 35.9799 27.0045 39.625 31.4844 39.625ZM31.4844 25.4062C34.8451 25.4062 37.5781 28.1393 37.5781 31.5C37.5781 34.8607 34.8451 37.5938 31.4844 37.5938C28.1237 37.5938 25.3906 34.8607 25.3906 31.5C25.3906 28.1393 28.1237 25.4062 31.4844 25.4062Z" fill="#E63114"/>
<path d="M31.4844 35.5625C33.7248 35.5625 35.5469 33.7405 35.5469 31.5C35.5469 29.2595 33.7248 27.4375 31.4844 27.4375C29.2439 27.4375 27.4219 29.2595 27.4219 31.5C27.4219 33.7405 29.2439 35.5625 31.4844 35.5625ZM31.4844 29.4688C32.6046 29.4688 33.5156 30.3798 33.5156 31.5C33.5156 32.6202 32.6046 33.5312 31.4844 33.5312C30.3641 33.5312 29.4531 32.6202 29.4531 31.5C29.4531 30.3798 30.3641 29.4688 31.4844 29.4688Z" fill="white"/>
<path d="M24.8117 43.4986L26.587 42.6495C26.7455 42.7196 26.9049 42.7866 27.0654 42.8486L27.7184 44.7031H35.2493L35.9044 42.8486C36.0638 42.7856 36.2233 42.7196 36.3827 42.6495L38.158 43.4986L43.484 38.1727L42.6349 36.3973C42.705 36.2389 42.772 36.0795 42.834 35.919L44.6875 35.2659V27.7351L42.833 27.08C42.77 26.9205 42.704 26.7611 42.6339 26.6016L43.483 24.8263L38.157 19.5004L36.3817 20.3495C36.2233 20.2794 36.0638 20.2123 35.9034 20.1504L35.2503 18.2969H27.7195L27.0644 20.1514C26.9049 20.2144 26.7455 20.2804 26.586 20.3505L24.8107 19.5014L19.4848 24.8273L20.3338 26.6027C20.2637 26.7611 20.1967 26.9205 20.1348 27.081L18.2812 27.7341V35.2649L20.1358 35.92C20.1988 36.0795 20.2648 36.2389 20.3348 36.3984L19.4858 38.1737L24.8117 43.4986ZM20.3125 33.8278V29.1712L21.7263 28.6725L21.8857 28.2073C22.0187 27.8184 22.1823 27.4263 22.3712 27.0424L22.5875 26.6006L21.9395 25.2458L25.2322 21.9531L26.587 22.6011L27.0288 22.3848C27.4127 22.1959 27.8048 22.0334 28.1938 21.8993L28.6589 21.7398L29.1566 20.3281H33.8132L34.3119 21.7419L34.777 21.9013C35.166 22.0344 35.558 22.1979 35.942 22.3868L36.3838 22.6031L37.7386 21.9552L41.0313 25.2478L40.3833 26.6027L40.5996 27.0445C40.7885 27.4284 40.951 27.8204 41.0851 28.2094L41.2445 28.6745L42.6562 29.1722V33.8288L41.2425 34.3275L41.083 34.7927C40.95 35.1816 40.7865 35.5737 40.5976 35.9576L40.3812 36.3994L41.0292 37.7542L37.7366 41.0469L36.3817 40.3989L35.9399 40.6152C35.556 40.8041 35.164 40.9666 34.775 41.1007L34.3098 41.2602L33.8122 42.6719H29.1555L28.6569 41.2581L28.1917 41.0987C27.8027 40.9656 27.4107 40.8021 27.0268 40.6132L26.585 40.3969L25.2302 41.0448L21.9375 37.7522L22.5855 36.3973L22.3691 35.9555C22.1802 35.5716 22.0177 35.1796 21.8837 34.7906L21.7242 34.3255L20.3125 33.8278Z" fill="white"/>
<path d="M13.2031 46.7344H3.04688C1.36703 46.7344 0 48.1014 0 49.7812V59.9375C0 61.6173 1.36703 62.9844 3.04688 62.9844H13.2031C14.883 62.9844 16.25 61.6173 16.25 59.9375V49.7812C16.25 48.1014 14.883 46.7344 13.2031 46.7344ZM14.2188 59.9375C14.2188 60.4971 13.7627 60.9531 13.2031 60.9531H3.04688C2.48727 60.9531 2.03125 60.4971 2.03125 59.9375V49.7812C2.03125 49.2216 2.48727 48.7656 3.04688 48.7656H13.2031C13.7627 48.7656 14.2188 49.2216 14.2188 49.7812V59.9375Z" fill="white"/>
<path d="M59.9219 23.375H49.7656C48.0858 23.375 46.7188 24.742 46.7188 26.4219V36.5781C46.7188 38.258 48.0858 39.625 49.7656 39.625H59.9219C61.6017 39.625 62.9688 38.258 62.9688 36.5781V26.4219C62.9688 24.742 61.6017 23.375 59.9219 23.375ZM60.9375 36.5781C60.9375 37.1377 60.4815 37.5938 59.9219 37.5938H49.7656C49.206 37.5938 48.75 37.1377 48.75 36.5781V26.4219C48.75 25.8623 49.206 25.4062 49.7656 25.4062H59.9219C60.4815 25.4062 60.9375 25.8623 60.9375 26.4219V36.5781Z" fill="white"/>
<path d="M9.14062 16.2656H19.2969C20.9767 16.2656 22.3438 14.8986 22.3438 13.2188V3.0625C22.3438 1.38266 20.9767 0.015625 19.2969 0.015625H9.14062C7.46078 0.015625 6.09375 1.38266 6.09375 3.0625V13.2188C6.09375 14.8986 7.46078 16.2656 9.14062 16.2656ZM8.125 3.0625C8.125 2.50289 8.58102 2.04688 9.14062 2.04688H19.2969C19.8565 2.04688 20.3125 2.50289 20.3125 3.0625V13.2188C20.3125 13.7784 19.8565 14.2344 19.2969 14.2344H9.14062C8.58102 14.2344 8.125 13.7784 8.125 13.2188V3.0625Z" fill="white"/>
<path d="M6.09305 56.4702L4.77984 55.157L3.34375 56.5931L6.09305 59.3424L12.9048 52.5306L11.4688 51.0945L6.09305 56.4702Z" fill="#E63114"/>
<path d="M18.9986 5.81183L17.5625 4.37573L12.1868 9.75144L10.8736 8.43823L9.4375 9.87433L12.1868 12.6236L18.9986 5.81183Z" fill="#E63114"/>
<path d="M52.8118 33.1108L51.4986 31.7976L50.0625 33.2337L52.8118 35.983L59.6236 29.1712L58.1875 27.7351L52.8118 33.1108Z" fill="#E63114"/>
<path d="M46.4707 44.7336L46.9633 46.7039L52.7361 45.2607C48.0734 52.4838 40.1352 56.8906 31.4831 56.8906C27.767 56.8906 24.1859 56.1066 20.8404 54.5598L19.9883 56.4031C23.6029 58.0749 27.4704 58.9219 31.4831 58.9219C40.6837 58.9219 49.1337 54.3109 54.1996 46.7303L54.8506 51.9384L56.8656 51.6866L55.7078 42.4241L46.4707 44.7336Z" fill="white"/>
<path d="M11.1428 35.7982L9.16742 35.3259L7.92836 40.5117C6.71367 37.5055 6.09211 34.484 6.09211 31.5001C6.09211 27.7524 6.88938 24.1439 8.46156 20.773L6.62023 19.9138C4.92211 23.5558 4.06086 27.4538 4.06086 31.5001C4.06086 34.7328 4.72609 37.994 6.02609 41.2287L1.50453 38.7354L0.523438 40.5148L8.91047 45.1379L11.1428 35.7982Z" fill="white"/>
<path d="M33.0628 8.31128L29.76 6.1094H31.4835C40.9847 6.1094 49.6185 11.348 54.0141 19.7807L55.8148 18.8413C51.0688 9.73519 41.7454 4.07815 31.4835 4.07815H29.76L33.0628 1.87628L31.9365 0.186279L24.5742 5.09378L31.9355 10.0013L33.0628 8.31128Z" fill="white"/>
</svg>
