<svg width="65" height="65" viewBox="0 0 65 65" fill="none" xmlns="http://www.w3.org/2000/svg">
<g clip-path="url(#clip0_735_35629)">
<path d="M31.2001 26.4876H31.8058C33.1463 26.4876 34.2352 25.4053 34.2433 24.0648V20.1205C34.2193 18.7974 33.1439 17.7352 31.8205 17.7273H31.2148C29.8743 17.7273 28.7855 18.8096 28.7773 20.1501V24.0944C28.8015 25.4175 29.8768 26.4798 31.2001 26.4876ZM30.5944 19.9728C30.5948 19.4671 31.0051 19.0571 31.5109 19.0575C32.0163 19.0579 32.426 19.4674 32.4262 19.9728V24.2126C32.4259 24.7183 32.0155 25.1283 31.5098 25.1279C31.0044 25.1275 30.5948 24.718 30.5944 24.2126V19.9728Z" fill="white"/>
<path d="M24.004 26.3397H26.1461V21.6272L28.5836 14.95H26.5893L25.1119 19.3818L23.6347 14.95H21.4336L24.0336 21.6272L24.004 26.3397Z" fill="white"/>
<path d="M37.2997 26.4876C38.1619 26.4047 38.9699 26.0293 39.5894 25.424V26.3399H41.3622V17.7274H39.5894V24.4046C39.5894 24.4046 38.9837 25.1137 38.4076 25.1137C37.8315 25.1137 37.8019 24.6558 37.8019 24.6558V17.7273H35.9258V25.3058C36.0282 25.9855 36.6123 26.4879 37.2997 26.4876Z" fill="white"/>
<path d="M36.0878 36.3853C35.7319 36.4026 35.3995 36.5688 35.1719 36.8432V42.9591C35.4056 43.2176 35.7394 43.363 36.0878 43.358C37.0038 43.358 37.0038 42.3387 37.0038 42.3387V37.4047C37.0038 37.4046 36.8413 36.3853 36.0878 36.3853Z" fill="#E63114"/>
<path d="M32.5 0C14.5507 0 0 14.5507 0 32.5C0 50.4493 14.5507 65 32.5 65C50.4493 65 65 50.4493 65 32.5C65 14.5507 50.4493 0 32.5 0ZM32.5 62.0454C16.1825 62.0454 2.95458 48.8175 2.95458 32.5C2.95458 16.1825 16.1825 2.95458 32.5 2.95458C48.8175 2.95458 62.0454 16.1825 62.0454 32.5C62.0454 48.8175 48.8175 62.0454 32.5 62.0454Z" fill="white"/>
<path d="M43.1074 36.3853C42.1914 36.3853 42.1914 37.4046 42.1914 37.4046V38.7193H44.0232V37.4046C44.0233 37.4046 44.0233 36.3853 43.1074 36.3853Z" fill="#E63114"/>
<path d="M43.7893 28.3765C43.7637 28.3769 43.738 28.3775 43.7124 28.3784H43.6828C43.6828 28.3784 38.1135 28.0681 32.4999 28.0681C26.8863 28.0681 21.2874 28.3635 21.2874 28.3635C18.8411 28.2819 16.7918 30.1989 16.7103 32.6452C16.7087 32.6952 16.7078 32.7453 16.7079 32.7953C16.4258 34.6537 16.2727 36.5294 16.25 38.409C16.2708 40.3082 16.4238 42.2037 16.7079 44.0817C16.7065 46.5294 18.6897 48.5147 21.1373 48.5159C21.1873 48.5159 21.2375 48.5152 21.2875 48.5135C21.2875 48.5135 26.7978 48.809 32.5 48.809C38.2022 48.809 43.7125 48.5135 43.7125 48.5135C46.1588 48.5952 48.208 46.6782 48.2895 44.2319C48.2912 44.1819 48.2921 44.1317 48.292 44.0817C48.5747 42.2036 48.7277 40.3082 48.7499 38.409C48.7312 36.5096 48.5781 34.6139 48.292 32.7362C48.2525 30.289 46.2366 28.337 43.7893 28.3765ZM25.867 33.3271H23.6363V44.8203H21.4351V33.3271H19.2045V31.4362H25.9113L25.867 33.3271ZM31.6726 44.8203H29.8261V43.9488C29.1977 44.5341 28.3918 44.8928 27.5364 44.9681C26.8492 44.9825 26.2595 44.4815 26.1625 43.801V34.7749H28.0682V43.2102C28.0682 43.2102 28.0682 43.6534 28.6739 43.6534C29.2796 43.6534 29.9 42.9295 29.9 42.9295V34.7749H31.7318L31.6726 44.8203ZM37.1533 44.9681C36.3763 44.9751 35.6418 44.6134 35.1738 43.9931V44.8203H33.1795V31.4363H35.159V35.7795C35.6657 35.2055 36.3754 34.8507 37.1386 34.7898C38.3647 34.7898 38.8226 35.8091 38.8226 37.1238L38.8374 42.6341C38.8374 42.6341 38.8374 44.9681 37.1533 44.9681ZM46.0021 40.2113H42.1907V42.3977C42.1907 42.3977 42.1907 43.417 43.1067 43.417C44.0226 43.417 44.0226 42.3977 44.0226 42.3977V41.3635H46.0022V42.959C45.7373 44.2379 44.5553 45.1149 43.2545 44.9976C41.907 45.1189 40.6647 44.2617 40.2999 42.959V37.2567C40.341 35.8376 41.5246 34.7206 42.9437 34.7617C43.0478 34.7648 43.1515 34.774 43.2545 34.7896C44.571 34.6013 45.7908 35.5157 45.9794 36.8321C45.9996 36.9726 46.0072 37.1148 46.0022 37.2567V40.2113H46.0021Z" fill="#E63114"/>
</g>
<defs>
<clipPath id="clip0_735_35629">
<rect width="65" height="65" fill="white"/>
</clipPath>
</defs>
</svg>
