<svg width="65" height="65" viewBox="0 0 65 65" fill="none" xmlns="http://www.w3.org/2000/svg">
<path d="M43.6719 53.8281H37.5781V48.297L46.604 42.6562L37.5781 37.0155V30.4688H43.6719V22.3438H37.5781V15.2344H45.7031V1.01562H27.4219V15.2344H35.5469V22.3438H29.4531V25.3906H20.3125V27.4219H29.4531V30.4688H35.5469V37.0155L26.521 42.6562L35.5469 48.297V53.8281H29.4531C27.7733 53.8281 26.4062 55.1952 26.4062 56.875V60.9375C26.4062 62.6173 27.7733 63.9844 29.4531 63.9844H43.6719C45.3517 63.9844 46.7188 62.6173 46.7188 60.9375V56.875C46.7188 55.1952 45.3517 53.8281 43.6719 53.8281ZM29.4531 3.04688H43.6719V13.2031H29.4531V3.04688ZM31.4844 24.375H41.6406V28.4375H31.4844V24.375ZM36.5625 38.7755L42.771 42.6562L36.5625 46.537L30.354 42.6562L36.5625 38.7755ZM44.6875 60.9375C44.6875 61.4971 44.2315 61.9531 43.6719 61.9531H29.4531C28.8935 61.9531 28.4375 61.4971 28.4375 60.9375V56.875C28.4375 56.3154 28.8935 55.8594 29.4531 55.8594H43.6719C44.2315 55.8594 44.6875 56.3154 44.6875 56.875V60.9375Z" fill="white"/>
<path d="M18.5788 55.5618L20.9077 57.8906H12.0006C11.6939 57.0304 11.0165 56.353 10.1562 56.0462V34.5312H8.125V56.0462C6.94586 56.4667 6.09375 57.5839 6.09375 58.9062C6.09375 60.5861 7.46078 61.9531 9.14062 61.9531C10.463 61.9531 11.5802 61.101 12.0006 59.9219H20.9077L18.5788 62.2507L20.0149 63.6868L24.7955 58.9062L20.0149 54.1257L18.5788 55.5618ZM9.14062 59.9219C8.58102 59.9219 8.125 59.4659 8.125 58.9062C8.125 58.3466 8.58102 57.8906 9.14062 57.8906C9.70023 57.8906 10.1562 58.3466 10.1562 58.9062C10.1562 59.4659 9.70023 59.9219 9.14062 59.9219Z" fill="white"/>
<path d="M61.9556 39.7962V10.985C63.1348 10.5645 63.9869 9.44734 63.9869 8.125C63.9869 6.44516 62.6198 5.07812 60.94 5.07812C59.6177 5.07812 58.5005 5.93023 58.08 7.10938H47.7369V9.14062H58.08C58.3867 10.0009 59.0641 10.6783 59.9244 10.985V39.7973C59.0641 40.104 58.3867 40.7814 58.08 41.6416H51.2042L53.533 39.3128L52.097 37.8767L47.3164 42.6562L52.097 47.4368L53.533 46.0007L51.2042 43.6719H58.08C58.5005 44.851 59.6177 45.7031 60.94 45.7031C62.6198 45.7031 63.9869 44.3361 63.9869 42.6562C63.9869 41.3339 63.1348 40.2167 61.9556 39.7962ZM60.94 7.10938C61.4996 7.10938 61.9556 7.56539 61.9556 8.125C61.9556 8.68461 61.4996 9.14062 60.94 9.14062C60.3804 9.14062 59.9244 8.68461 59.9244 8.125C59.9244 7.56539 60.3804 7.10938 60.94 7.10938ZM60.94 43.6719C60.3804 43.6719 59.9244 43.2159 59.9244 42.6562C59.9244 42.0966 60.3804 41.6406 60.94 41.6406C61.4996 41.6406 61.9556 42.0966 61.9556 42.6562C61.9556 43.2159 61.4996 43.6719 60.94 43.6719Z" fill="#E63114"/>
<path d="M17.9997 26.4062L9.14242 20.0798L0.285156 26.4062L9.14242 32.7325L17.9997 26.4062ZM9.14242 22.5762L14.5039 26.4062L9.14242 30.2361L3.78094 26.4062L9.14242 22.5762Z" fill="#E63114"/>
<path d="M31.4844 5.07812H41.6406V7.10938H31.4844V5.07812Z" fill="white"/>
<path d="M31.4844 9.14062H37.5781V11.1719H31.4844V9.14062Z" fill="white"/>
<path d="M39.6094 9.14062H41.6406V11.1719H39.6094V9.14062Z" fill="white"/>
<path d="M56.875 57.8906H58.9062V59.9219H56.875V57.8906Z" fill="white"/>
<path d="M52.8125 57.8906H54.8438V59.9219H52.8125V57.8906Z" fill="white"/>
<path d="M48.75 57.8906H50.7812V59.9219H48.75V57.8906Z" fill="white"/>
<path d="M19.2969 9.14062H21.3281V11.1719H19.2969V9.14062Z" fill="white"/>
<path d="M23.3594 9.14062H25.3906V11.1719H23.3594V9.14062Z" fill="white"/>
<path d="M15.2344 9.14062H17.2656V11.1719H15.2344V9.14062Z" fill="white"/>
</svg>
