<svg width="65" height="65" viewBox="0 0 65 65" fill="none" xmlns="http://www.w3.org/2000/svg">
<path d="M19.7725 5.58594C20.2983 5.58594 20.7246 5.15965 20.7246 4.63379C20.7246 4.10793 20.2983 3.68164 19.7725 3.68164C19.2466 3.68164 18.8203 4.10793 18.8203 4.63379C18.8203 5.15965 19.2466 5.58594 19.7725 5.58594Z" fill="white"/>
<path d="M22.4365 5.58594C22.9624 5.58594 23.3887 5.15965 23.3887 4.63379C23.3887 4.10793 22.9624 3.68164 22.4365 3.68164C21.9107 3.68164 21.4844 4.10793 21.4844 4.63379C21.4844 5.15965 21.9107 5.58594 22.4365 5.58594Z" fill="white"/>
<path d="M44.7803 5.58594C45.3061 5.58594 45.7324 5.15965 45.7324 4.63379C45.7324 4.10793 45.3061 3.68164 44.7803 3.68164C44.2544 3.68164 43.8281 4.10793 43.8281 4.63379C43.8281 5.15965 44.2544 5.58594 44.7803 5.58594Z" fill="white"/>
<path d="M60.1445 15.1709H57.0015C56.4757 15.1709 56.0494 15.5971 56.0494 16.123C56.0494 16.649 56.4757 17.0752 57.0015 17.0752H60.1445C60.3194 17.0752 60.4619 17.2175 60.4619 17.3926V29.9372C60.4619 30.1123 60.3194 30.2546 60.1445 30.2546H45.7363C45.4838 30.2546 45.2416 30.3549 45.0631 30.5334L43.0141 32.5825V31.4594C43.2661 30.531 43.4014 29.5551 43.4014 28.5479C43.4014 28.3976 43.3975 28.2483 43.3916 28.0996H50.6048C51.1307 28.0996 51.557 27.6734 51.557 27.1474C51.557 26.6214 51.1307 26.1953 50.6048 26.1953H43.1502C43.0354 25.6645 42.8829 25.1478 42.6952 24.6479C42.7707 24.6672 42.8494 24.6785 42.931 24.6785H45.6083C46.1342 24.6785 46.5605 24.2524 46.5605 23.7264C46.5605 23.2004 46.1342 22.7742 45.6083 22.7742H42.931C42.5597 22.7742 42.2389 22.9871 42.0818 23.2973C41.4951 22.206 40.7313 21.2235 39.8294 20.388V17.3926C39.8294 17.2175 39.9719 17.0752 40.1468 17.0752H52.5581C53.084 17.0752 53.5103 16.649 53.5103 16.123C53.5103 15.5971 53.084 15.1709 52.5581 15.1709H49.6448V4.52093C49.6448 2.0282 47.6167 0 45.1239 0H19.4288C16.936 0 14.9079 2.0282 14.9079 4.52093V8.69629H4.66914C3.54637 8.69629 2.63281 9.60972 2.63281 10.7326V24.9721C2.63281 26.095 3.54624 27.0084 4.66914 27.0084H9.52104C10.0469 27.0084 10.4732 26.5822 10.4732 26.0562C10.4732 25.5303 10.0469 25.1041 9.52104 25.1041H4.66914C4.5964 25.1041 4.53711 25.0448 4.53711 24.9721V10.7326C4.53711 10.6599 4.59627 10.6006 4.66914 10.6006H28.0982C28.171 10.6006 28.2302 10.6599 28.2302 10.7326V24.9721C28.2302 25.0448 28.1711 25.1041 28.0982 25.1041H26.1152C25.287 25.1041 24.6131 25.778 24.6131 26.6061V27.9311L22.2261 25.544C21.9425 25.2604 21.5652 25.1041 21.164 25.1041H13.9644C13.4386 25.1041 13.0122 25.5303 13.0122 26.0562C13.0122 26.5822 13.4386 27.0084 13.9644 27.0084H14.908V60.4791C14.908 62.9719 16.9361 65 19.429 65H45.124C47.6169 65 49.645 62.9718 49.645 60.4791V32.1589H60.1446C61.3696 32.1589 62.3663 31.1622 62.3663 29.9372V17.3926C62.3662 16.1676 61.3696 15.1709 60.1445 15.1709ZM38.7275 1.9043L38.4119 3.10908C38.275 3.63188 37.802 3.99699 37.2616 3.99699H27.291C26.7507 3.99699 26.2777 3.63188 26.1407 3.10908L25.8254 1.9043H38.7275ZM28.0982 8.69629H16.8123V4.52093C16.8123 3.07811 17.9861 1.9043 19.429 1.9043H23.8568L24.2988 3.59163C24.6549 4.95155 25.8854 5.90129 27.2912 5.90129H37.2617C38.6674 5.90129 39.898 4.95155 40.2541 3.59163L40.696 1.9043H45.1239C46.5667 1.9043 47.7405 3.07811 47.7405 4.52093V15.1709H40.1468C38.9219 15.1709 37.9251 16.1676 37.9251 17.3926V18.9676C36.2684 17.987 34.3372 17.423 32.2764 17.423C31.5436 17.423 30.8278 17.496 30.1344 17.6321V10.7326C30.1345 9.60972 29.221 8.69629 28.0982 8.69629ZM23.9534 29.9642C24.2415 30.2523 24.6239 30.4049 25.014 30.4049C25.2077 30.4049 25.4035 30.3672 25.5905 30.2899C26.1538 30.0565 26.5176 29.5118 26.5176 28.9021V27.0084H28.0983C29.2211 27.0084 30.1347 26.095 30.1347 24.9721V19.5819C30.8224 19.4171 31.539 19.3275 32.2766 19.3275C37.3608 19.3275 41.4972 23.4639 41.4972 28.5481C41.4972 33.6323 37.3608 37.7687 32.2766 37.7687C27.3722 37.7687 23.3512 33.9193 23.0728 29.0836L23.9534 29.9642ZM47.7405 60.4791C47.7405 61.9219 46.5667 63.0957 45.1239 63.0957H19.4288C17.986 63.0957 16.8122 61.9219 16.8122 60.4791V57.4344H27.7868C28.0474 59.6812 29.9609 61.4312 32.2764 61.4312C34.5919 61.4312 36.5053 59.681 36.7659 57.4344H47.7405V60.4791ZM29.6599 56.9103C29.6599 55.4675 30.8337 54.2937 32.2765 54.2937C33.7193 54.2937 34.8931 55.4675 34.8931 56.9103C34.8931 58.353 33.7193 59.5268 32.2765 59.5268C30.8337 59.5268 29.6599 58.3531 29.6599 56.9103ZM47.7405 55.5299H36.5811C35.9962 53.7103 34.2881 52.3894 32.2765 52.3894C30.2649 52.3894 28.5568 53.7103 27.9719 55.5299H16.8123V27.0084H20.9976L21.2293 27.2401C21.1786 27.6692 21.1517 28.1055 21.1517 28.5479C21.1517 34.6822 26.1424 39.6729 32.2766 39.6729C36.0756 39.6729 39.4353 37.7584 41.4433 34.8439C41.5749 34.9929 41.7406 35.1136 41.9328 35.1933C42.0987 35.262 42.2723 35.2955 42.4443 35.2955C42.7905 35.2955 43.1298 35.16 43.3854 34.9045L46.1308 32.159H47.7407V55.5299H47.7405Z" fill="white"/>
<path d="M57.362 19.3533H42.9326C42.4068 19.3533 41.9805 19.7795 41.9805 20.3054C41.9805 20.8314 42.4068 21.2576 42.9326 21.2576H57.362C57.8878 21.2576 58.3141 20.8314 58.3141 20.3054C58.3141 19.7795 57.8878 19.3533 57.362 19.3533Z" fill="#E63114"/>
<path d="M57.3604 22.7744H48.9092C48.3833 22.7744 47.957 23.2006 47.957 23.7266C47.957 24.2525 48.3833 24.6787 48.9092 24.6787H57.3604C57.8863 24.6787 58.3126 24.2525 58.3126 23.7266C58.3126 23.2006 57.8863 22.7744 57.3604 22.7744Z" fill="#E63114"/>
<path d="M31.7051 34.0893H32.8477C33.058 34.0893 33.2285 33.9188 33.2285 33.7084V26.6838C33.2285 26.4735 33.058 26.303 32.8477 26.303H31.7051C31.4947 26.303 31.3242 26.4735 31.3242 26.6838V33.7084C31.3242 33.9186 31.4947 34.0893 31.7051 34.0893Z" fill="white"/>
<path d="M31.7051 24.9109H32.8477C33.058 24.9109 33.2285 24.7404 33.2285 24.53V23.3875C33.2285 23.1771 33.058 23.0066 32.8477 23.0066H31.7051C31.4947 23.0066 31.3242 23.1771 31.3242 23.3875V24.53C31.3242 24.7404 31.4947 24.9109 31.7051 24.9109Z" fill="#E63114"/>
<path d="M42.1162 41.958H22.4385C21.5634 41.958 20.8516 42.6698 20.8516 43.5449V47.6074C20.8516 48.4825 21.5634 49.1943 22.4385 49.1943H34.9125C35.4383 49.1943 35.8647 48.7682 35.8647 48.2422C35.8647 47.7162 35.4383 47.29 34.9125 47.29H22.7559V43.8623H41.7988V47.29H39.3559C38.83 47.29 38.4037 47.7162 38.4037 48.2422C38.4037 48.7682 38.83 49.1943 39.3559 49.1943H42.1162C42.9913 49.1943 43.7031 48.4825 43.7031 47.6074V43.5449C43.7031 42.6698 42.9912 41.958 42.1162 41.958Z" fill="white"/>
<path d="M19.6613 12.8857H7.63965C7.11381 12.8857 6.6875 13.3119 6.6875 13.8379C6.6875 14.3639 7.11381 14.79 7.63965 14.79H19.6612C20.1871 14.79 20.6134 14.3639 20.6134 13.8379C20.6134 13.3119 20.1872 12.8857 19.6613 12.8857Z" fill="#E63114"/>
<path d="M25.1286 14.79C25.6544 14.79 26.0807 14.3639 26.0807 13.8379C26.0807 13.3119 25.6544 12.8857 25.1286 12.8857H22.96C22.4341 12.8857 22.0078 13.3119 22.0078 13.8379C22.0078 14.3639 22.4341 14.79 22.96 14.79H25.1286Z" fill="white"/>
<path d="M7.63965 18.6152H10.7745C11.3003 18.6152 11.7267 18.1891 11.7267 17.6631C11.7267 17.1371 11.3003 16.7109 10.7745 16.7109H7.63965C7.11381 16.7109 6.6875 17.1371 6.6875 17.6631C6.6875 18.1891 7.11381 18.6152 7.63965 18.6152Z" fill="white"/>
<path d="M12.9961 17.6631C12.9961 18.1891 13.4224 18.6152 13.9482 18.6152H25.1284C25.6542 18.6152 26.0805 18.1891 26.0805 17.6631C26.0805 17.1371 25.6542 16.7109 25.1284 16.7109H13.9482C13.4224 16.7109 12.9961 17.1371 12.9961 17.6631Z" fill="#E63114"/>
<path d="M7.63965 22.4407H19.8026C20.3285 22.4407 20.7548 22.0145 20.7548 21.4885C20.7548 20.9626 20.3285 20.5364 19.8026 20.5364H7.63965C7.11381 20.5364 6.6875 20.9626 6.6875 21.4885C6.6875 22.0145 7.11381 22.4407 7.63965 22.4407Z" fill="white"/>
</svg>
