<svg width="65" height="65" viewBox="0 0 65 65" fill="none" xmlns="http://www.w3.org/2000/svg">
<path d="M13.2383 7.14502C9.87758 7.14502 7.14453 9.87807 7.14453 13.2388C7.14453 16.5995 9.87758 19.3325 13.2383 19.3325C16.599 19.3325 19.332 16.5995 19.332 13.2388C19.332 9.87807 16.599 7.14502 13.2383 7.14502ZM13.2383 17.3013C10.9978 17.3013 9.17578 15.4792 9.17578 13.2388C9.17578 10.9983 10.9978 9.17627 13.2383 9.17627C15.4788 9.17627 17.3008 10.9983 17.3008 13.2388C17.3008 15.4792 15.4788 17.3013 13.2383 17.3013Z" fill="#E63114"/>
<path d="M58.608 49.4681L57.1719 48.032L49.7649 55.4389L48.4517 54.1257L47.0156 55.5618L49.7649 58.3111L58.608 49.4681Z" fill="#E63114"/>
<path d="M35.5469 12.1875H37.5781V14.2188H35.5469V12.1875Z" fill="white"/>
<path d="M47.7344 12.1875H49.7656V14.2188H47.7344V12.1875Z" fill="white"/>
<path d="M43.6719 12.1875H45.7031V14.2188H43.6719V12.1875Z" fill="white"/>
<path d="M39.6094 12.1875H41.6406V14.2188H39.6094V12.1875Z" fill="#E63114"/>
<path d="M24.375 37.5782H40.625C42.3048 37.5782 43.6719 36.2112 43.6719 34.5313V33.5157H56.875C60.7943 33.5157 63.9844 30.3267 63.9844 26.4063V19.297C63.9844 15.3767 60.7943 12.1876 56.875 12.1876H53.8281V11.172C53.8281 9.49213 52.4611 8.1251 50.7812 8.1251H34.5312C32.8514 8.1251 31.4844 9.49213 31.4844 11.172V12.1876H25.4262V10.4326L22.7602 9.7044C22.6728 9.4708 22.5753 9.23822 22.4697 9.00869L23.8418 6.60572L19.8727 2.63666L17.4708 4.00775C17.2402 3.90213 17.0087 3.80463 16.7751 3.71729L16.0459 1.05127H10.4325L9.70328 3.71729C9.46969 3.80463 9.23812 3.90111 9.00859 4.00775L6.60563 2.63666L2.63656 6.60572L4.00766 9.00869C3.90203 9.23822 3.80453 9.4708 3.71719 9.7044L1.05117 10.4326V16.0449L3.71719 16.7742C3.80453 17.0078 3.90203 17.2403 4.00766 17.4699L2.63555 19.8728L6.60461 23.8409L9.00758 22.4698C9.23711 22.5754 9.46867 22.6729 9.70227 22.7603L10.4315 25.4263H16.0448L16.7741 22.7603C17.0066 22.6729 17.2392 22.5754 17.4698 22.4698L19.8717 23.8399L23.8408 19.8718L22.4687 17.4688C22.5743 17.2393 22.6718 17.0067 22.7591 16.7731L25.4252 16.0439V14.2188H31.4844V15.2345C31.4844 16.9143 32.8514 18.2813 34.5312 18.2813H50.7812C52.4611 18.2813 53.8281 16.9143 53.8281 15.2345V14.2188H56.875C59.6751 14.2188 61.9531 16.4969 61.9531 19.297V26.4063C61.9531 29.2064 59.6751 31.4845 56.875 31.4845H43.6719V30.4688C43.6719 28.789 42.3048 27.422 40.625 27.422H24.375C22.6952 27.422 21.3281 28.789 21.3281 30.4688V31.4845H8.125C4.2057 31.4845 1.01562 34.6745 1.01562 38.5938V46.7188C1.01562 50.6381 4.2057 53.8282 8.125 53.8282H11.1719V54.8438C11.1719 56.5237 12.5389 57.8907 14.2188 57.8907H30.4688C32.1486 57.8907 33.5156 56.5237 33.5156 54.8438V53.8282H41.6924C42.2073 59.5137 46.995 63.9845 52.8125 63.9845C58.9723 63.9845 63.9844 58.9724 63.9844 52.8126C63.9844 46.6528 58.9723 41.6407 52.8125 41.6407C46.995 41.6407 42.2073 46.1115 41.6924 51.797H33.5156V50.7813C33.5156 49.1015 32.1486 47.7345 30.4688 47.7345H14.2188C12.5389 47.7345 11.1719 49.1015 11.1719 50.7813V51.797H8.125C5.32492 51.797 3.04688 49.5189 3.04688 46.7188V38.5938C3.04688 35.7938 5.32492 33.5157 8.125 33.5157H21.3281V34.5313C21.3281 36.2112 22.6952 37.5782 24.375 37.5782ZM23.3949 14.4951L21.1677 15.1045L21.0041 15.6377C20.8579 16.1079 20.6629 16.5761 20.4232 17.0291L20.1612 17.5227L21.3088 19.5326L19.5335 21.3089L17.5226 20.1623L17.03 20.4233C16.578 20.663 16.1098 20.858 15.6386 21.0032L15.1064 21.1678L14.496 23.395H11.9844L11.374 21.1678L10.8418 21.0032C10.3726 20.858 9.90438 20.664 9.45039 20.4233L8.9568 20.1623L6.94688 21.3089L5.16953 19.5326L6.31719 17.5227L6.05516 17.0291C5.81547 16.5761 5.61945 16.1079 5.47422 15.6377L5.3107 15.1045L3.08344 14.4951V11.9824L5.3107 11.3741L5.47523 10.8409C5.62047 10.3706 5.81547 9.90244 6.05516 9.45049L6.31719 8.95588L5.16953 6.94596L6.94484 5.16963L8.95477 6.31627L9.44836 6.05525C9.90438 5.81455 10.3726 5.61854 10.8398 5.47432L11.372 5.30979L11.9823 3.08252H14.494L15.1044 5.30979L15.6366 5.47432C16.1058 5.61955 16.574 5.81455 17.028 6.05525L17.5205 6.31627L19.5315 5.16963L21.3068 6.94596L20.1591 8.95588L20.4212 9.44947C20.6609 9.90143 20.8569 10.3696 21.0011 10.8399L21.1656 11.3731L23.3929 11.9814V14.4951H23.3949ZM51.7969 15.2345C51.7969 15.7941 51.3419 16.2501 50.7812 16.2501H34.5312C33.9706 16.2501 33.5156 15.7941 33.5156 15.2345V11.172C33.5156 10.6124 33.9706 10.1563 34.5312 10.1563H50.7812C51.3419 10.1563 51.7969 10.6124 51.7969 11.172V15.2345ZM52.8125 43.672C57.853 43.672 61.9531 47.7721 61.9531 52.8126C61.9531 57.8531 57.853 61.9532 52.8125 61.9532C47.772 61.9532 43.6719 57.8531 43.6719 52.8126C43.6719 47.7721 47.772 43.672 52.8125 43.672ZM13.2031 50.7813C13.2031 50.2207 13.6581 49.7657 14.2188 49.7657H30.4688C31.0294 49.7657 31.4844 50.2207 31.4844 50.7813V54.8438C31.4844 55.4045 31.0294 55.8595 30.4688 55.8595H14.2188C13.6581 55.8595 13.2031 55.4045 13.2031 54.8438V50.7813ZM23.3594 30.4688C23.3594 29.9092 23.8144 29.4532 24.375 29.4532H40.625C41.1856 29.4532 41.6406 29.9092 41.6406 30.4688V34.5313C41.6406 35.092 41.1856 35.547 40.625 35.547H24.375C23.8144 35.547 23.3594 35.092 23.3594 34.5313V30.4688Z" fill="white"/>
<path d="M33.5156 31.4844H35.5469V33.5156H33.5156V31.4844Z" fill="#E63114"/>
<path d="M29.4531 31.4844H31.4844V33.5156H29.4531V31.4844Z" fill="white"/>
<path d="M25.3906 31.4844H27.4219V33.5156H25.3906V31.4844Z" fill="white"/>
<path d="M37.5781 31.4844H39.6094V33.5156H37.5781V31.4844Z" fill="white"/>
<path d="M19.2969 51.7969H21.3281V53.8281H19.2969V51.7969Z" fill="#E63114"/>
<path d="M27.4219 51.7969H29.4531V53.8281H27.4219V51.7969Z" fill="white"/>
<path d="M23.3594 51.7969H25.3906V53.8281H23.3594V51.7969Z" fill="white"/>
<path d="M15.2344 51.7969H17.2656V53.8281H15.2344V51.7969Z" fill="white"/>
</svg>
