<svg width="65" height="65" viewBox="0 0 65 65" fill="none" xmlns="http://www.w3.org/2000/svg">
<path d="M55.8594 1.01562C52.0823 1.01562 48.9074 3.61055 48.0015 7.10938H16.25C13.4499 7.10938 11.1719 9.38742 11.1719 12.1875V38.5938C11.1719 41.3938 13.4499 43.6719 16.25 43.6719H19.2451C18.8307 43.8466 18.4285 44.0456 18.0537 44.2945L15.9433 45.7021H1.01562V61.9521H16.0103L18.5717 63.2318C19.5528 63.7234 20.6527 63.9834 21.7506 63.9834H28.4345H28.4375H34.5312C36.2111 63.9834 37.5781 62.6163 37.5781 60.9365C37.5781 60.1534 37.2724 59.4455 36.7859 58.9052C37.2734 58.3649 37.5781 57.657 37.5781 56.874C37.5781 56.0909 37.2724 55.383 36.7859 54.8427C37.2734 54.3024 37.5781 53.5945 37.5781 52.8115C37.5781 52.0284 37.2724 51.3205 36.7859 50.7802C37.2734 50.2399 37.5781 49.532 37.5781 48.749C37.5781 47.0691 36.2111 45.7021 34.5312 45.7021H30.7531L31.2609 43.6719H39.6094V47.4266C39.6094 48.7165 40.6585 49.7656 41.9484 49.7656C42.7324 49.7656 43.4596 49.3766 43.8943 48.7246L47.2621 43.6719H47.7344H54.8438C57.6438 43.6719 59.9219 41.3938 59.9219 38.5938V16.1667C62.3462 14.7591 63.9844 12.1408 63.9844 9.14062C63.9844 4.6607 60.3393 1.01562 55.8594 1.01562ZM15.2344 59.9209H13.2031V51.7969H11.1719V59.9209H3.04688V47.7334H11.1719V49.7656H13.2031V47.7334H15.2344V59.9209ZM26.1828 50.7802C25.6953 51.3205 25.3906 52.0284 25.3906 52.8115C25.3906 53.5945 25.6963 54.3024 26.1828 54.8427C25.6953 55.383 25.3906 56.0909 25.3906 56.874C25.3906 57.657 25.6963 58.3649 26.1828 58.9052C25.6953 59.4455 25.3906 60.1534 25.3906 60.9365C25.3906 61.294 25.4638 61.6332 25.5775 61.9521H21.7506C20.9666 61.9521 20.1815 61.7663 19.4807 61.4159L17.2656 60.3088V47.2621L19.1811 45.9855C19.5569 45.7346 19.9641 45.5355 20.3927 45.3923L21.5455 45.0084C24.4522 44.0385 26.4062 41.3288 26.4062 38.2637V36.5625C26.4062 36.0029 26.8623 35.5469 27.4219 35.5469H27.8667H27.8677C28.5624 35.5469 29.2155 35.817 29.707 36.3086C30.1976 36.8002 30.4688 37.4532 30.4688 38.1479C30.4688 38.3591 30.4434 38.5714 30.3916 38.7786L28.6609 45.7021H28.4375C26.7577 45.7021 25.3906 47.0691 25.3906 48.749C25.3906 49.532 25.6963 50.2399 26.1828 50.7802ZM34.5312 61.9521H28.4365C27.8769 61.9511 27.4219 61.4961 27.4219 60.9365C27.4219 60.3769 27.8769 59.9209 28.4375 59.9209H34.5312C35.0919 59.9209 35.5469 60.3769 35.5469 60.9365C35.5469 61.4961 35.0919 61.9521 34.5312 61.9521ZM34.5312 57.8896H28.4375C27.8769 57.8896 27.4219 57.4336 27.4219 56.874C27.4219 56.3144 27.8769 55.8584 28.4375 55.8584H34.5312C35.0919 55.8584 35.5469 56.3144 35.5469 56.874C35.5469 57.4336 35.0919 57.8896 34.5312 57.8896ZM34.5312 53.8271H28.4375C27.8769 53.8271 27.4219 53.3711 27.4219 52.8115C27.4219 52.2519 27.8769 51.7959 28.4375 51.7959H34.5312C35.0919 51.7959 35.5469 52.2519 35.5469 52.8115C35.5469 53.3711 35.0919 53.8271 34.5312 53.8271ZM34.5312 47.7334C35.0919 47.7334 35.5469 48.1894 35.5469 48.749C35.5469 49.3086 35.0919 49.7646 34.5312 49.7646H28.4375C27.8769 49.7646 27.4219 49.3086 27.4219 48.749C27.4219 48.1894 27.8769 47.7334 28.4375 47.7334H34.5312ZM42.2043 47.5983C42.052 47.8237 41.6406 47.6988 41.6406 47.4266V43.6719H44.8216L42.2043 47.5983ZM45.7031 41.6406H41.6406H39.6094H31.7698L32.3629 39.2702C32.4533 38.9015 32.5 38.5237 32.5 38.1479C32.5 36.9109 32.0176 35.747 31.1431 34.8725C30.8506 34.58 30.5165 34.3495 30.1681 34.1484C30.288 34.1118 30.4048 34.0691 30.5277 34.0387L32.0166 33.668L35.5469 39.5525L39.0772 33.668L40.5742 34.0427C43.5998 34.8004 45.7082 37.506 45.7031 40.624V41.6406ZM27.4615 19.8402C27.6484 18.6591 28.5218 17.678 29.7172 17.3743L30.4992 17.1752L30.482 16.3688C30.4809 16.3089 30.4748 16.25 30.4688 16.25C30.4688 16.25 30.4677 16.25 30.4677 16.251C30.4677 14.5712 31.8348 13.2041 33.5146 13.2041C34.0387 13.2041 34.5505 13.3473 35.035 13.6297L35.5469 13.9252L36.0577 13.6287C36.5422 13.3463 37.0541 13.2031 37.5781 13.2031C39.258 13.2031 40.625 14.5702 40.628 16.184L40.5773 17.1702L41.3755 17.3743C42.5709 17.679 43.4444 18.6601 43.6312 19.8402C43.0412 19.5041 42.3678 19.2969 41.6406 19.2969H40.625C38.1245 19.2969 35.62 18.7058 33.3013 17.5459C32.9347 17.3631 32.5223 17.2656 32.112 17.2656C30.8638 17.2656 29.8198 18.134 29.5364 19.2969H29.4531C28.7259 19.2969 28.0526 19.5041 27.4615 19.8402ZM29.4531 21.3281V25.3906C28.3329 25.3906 27.4219 24.4796 27.4219 23.3594C27.4219 22.2391 28.3329 21.3281 29.4531 21.3281ZM43.6719 23.3594C43.6719 24.4796 42.7609 25.3906 41.6406 25.3906V21.3281C42.7609 21.3281 43.6719 22.2391 43.6719 23.3594ZM31.4844 19.9245C31.4844 19.5782 31.7657 19.2969 32.112 19.2969C32.2095 19.2969 32.306 19.3192 32.4736 19.4035C34.6887 20.5105 37.1363 21.1595 39.6084 21.2987V26.4062C39.6084 28.0861 38.2413 29.4531 36.5615 29.4531H34.5302C32.8504 29.4531 31.4834 28.0861 31.4834 26.4062V19.9245H31.4844ZM37.507 32.3375L35.5469 35.6037L33.5867 32.3375L33.8183 31.4123C34.0539 31.4458 34.2875 31.4844 34.5312 31.4844H36.5625C36.8063 31.4844 37.0398 31.4458 37.2755 31.4123L37.507 32.3375ZM57.8906 38.5938C57.8906 40.2736 56.5236 41.6406 54.8438 41.6406H47.7344V40.626C47.7415 36.5747 45.0003 33.0566 41.0688 32.0724L39.4316 31.6631L39.197 30.7267C40.3792 30.0026 41.2527 28.8234 41.538 27.4219H41.6406C43.8811 27.4219 45.7031 25.5998 45.7031 23.3594C45.7031 22.8445 45.5975 22.3549 45.4208 21.9009C45.5904 21.3891 45.7031 20.8609 45.7031 20.3125C45.7031 18.262 44.4691 16.444 42.6217 15.6569C42.3272 13.1351 40.1781 11.1719 37.5781 11.1719C36.8773 11.1719 36.1969 11.3191 35.5469 11.6106C34.8969 11.3191 34.2164 11.1719 33.5156 11.1719C30.9156 11.1719 28.7666 13.1351 28.472 15.6569C26.6246 16.444 25.3906 18.262 25.3906 20.3125C25.3906 20.8609 25.5034 21.3891 25.673 21.9009C25.4963 22.3549 25.3906 22.8445 25.3906 23.3594C25.3906 25.5998 27.2127 27.4219 29.4531 27.4219H29.5557C29.8411 28.8234 30.7145 30.0026 31.8967 30.7257L31.6621 31.6611L30.0361 32.0653C28.8854 32.3517 27.8332 32.8626 26.8927 33.5674C25.4658 33.8213 24.375 35.0645 24.375 36.5625V38.2637C24.375 39.5454 23.8865 40.7316 23.074 41.6406H16.25C14.5702 41.6406 13.2031 40.2736 13.2031 38.5938V12.1875C13.2031 10.5077 14.5702 9.14062 16.25 9.14062H47.7344C47.7344 13.6205 51.3795 17.2656 55.8594 17.2656C56.5622 17.2656 57.2396 17.1671 57.8906 16.9985V38.5938ZM55.8594 15.2344C52.4987 15.2344 49.7656 12.5013 49.7656 9.14062C49.7656 5.77992 52.4987 3.04688 55.8594 3.04688C59.2201 3.04688 61.9531 5.77992 61.9531 9.14062C61.9531 12.5013 59.2201 15.2344 55.8594 15.2344Z" fill="white"/>
<path d="M53.8274 10.7514L52.5142 9.43823L51.0781 10.8743L53.8274 13.6236L59.6236 7.82745L58.1875 6.39136L53.8274 10.7514Z" fill="#E63114"/>
<path d="M15.2344 17.2656H23.3594V11.1719H15.2344V17.2656ZM17.2656 13.2031H21.3281V15.2344H17.2656V13.2031Z" fill="#E63114"/>
<path d="M15.2344 19.2969H23.3594V21.3281H15.2344V19.2969Z" fill="#E63114"/>
<path d="M15.2344 27.4219H23.3594V29.4531H15.2344V27.4219Z" fill="#E63114"/>
<path d="M21.3281 23.3594H23.3594V25.3906H21.3281V23.3594Z" fill="white"/>
<path d="M15.2344 23.3594H19.2969V25.3906H15.2344V23.3594Z" fill="white"/>
<path d="M19.2969 31.4844C17.0564 31.4844 15.2344 33.3064 15.2344 35.5469C15.2344 37.7873 17.0564 39.6094 19.2969 39.6094C21.5373 39.6094 23.3594 37.7873 23.3594 35.5469C23.3594 33.3064 21.5373 31.4844 19.2969 31.4844ZM19.2969 37.5781C18.1766 37.5781 17.2656 36.6671 17.2656 35.5469C17.2656 34.4266 18.1766 33.5156 19.2969 33.5156C20.4171 33.5156 21.3281 34.4266 21.3281 35.5469C21.3281 36.6671 20.4171 37.5781 19.2969 37.5781Z" fill="#E63114"/>
</svg>
