<svg width="65" height="65" viewBox="0 0 65 65" fill="none" xmlns="http://www.w3.org/2000/svg">
<g clip-path="url(#clip0_735_36156)">
<path d="M45.0309 54.6831H43.8779C43.4298 52.2922 41.3281 50.4768 38.8091 50.4768H34.5519C34.3858 50.2521 34.2012 50.0386 33.9968 49.8394L25.6891 41.5322C24.7081 40.519 23.3926 39.961 21.984 39.961H10.317V39.8257C10.317 38.7406 9.43427 37.8579 8.3492 37.8579H1.96777C0.882705 37.8579 0 38.7406 0 39.8257V56.7229C0 57.808 0.882705 58.6907 1.96777 58.6907H8.3492C9.43427 58.6907 10.317 57.808 10.317 56.7229V56.5876H11.8289C12.698 56.5876 13.5152 56.926 14.1299 57.5407L19.4625 62.8734C20.8339 64.2447 22.6576 65.0001 24.5972 65.0001H37.2315C37.7574 65.0001 38.1837 64.5739 38.1837 64.048C38.1837 63.522 37.7574 63.0958 37.2315 63.0958H24.5972C23.1663 63.0958 21.8208 62.5385 20.809 61.5267L15.4763 56.194C14.502 55.2198 13.2066 54.6833 11.8289 54.6833H10.317V41.8654H21.9837C22.8739 41.8654 23.7052 42.219 24.3247 42.861C24.3287 42.8651 24.3326 42.8691 24.3367 42.8732L32.6546 51.1907C32.6578 51.1937 32.661 51.1969 32.6642 51.1999C33.3003 51.8184 33.6506 52.6468 33.6506 53.5323C33.6506 55.3267 32.1907 56.7865 30.3964 56.7865C29.5108 56.7865 28.6825 56.4361 28.0639 55.8001C28.0608 55.7969 28.0577 55.7937 28.0545 55.7905L22.6569 50.3935C22.285 50.0218 21.6822 50.0217 21.3104 50.3936C20.9385 50.7655 20.9386 51.3684 21.3104 51.7401L26.7034 57.1327C27.683 58.1375 28.9942 58.6908 30.3963 58.6908C32.0979 58.6908 33.6092 57.8622 34.5493 56.5877H45.0308C46.8249 56.5877 48.3233 58.0063 48.3712 59.7498C48.3955 60.6374 48.0686 61.4759 47.4509 62.1109C46.8328 62.7462 46.0044 63.0961 45.1183 63.0961H41.6746C41.1488 63.0961 40.7225 63.5222 40.7225 64.0482C40.7225 64.5742 41.1488 65.0004 41.6746 65.0004H45.1183C46.5229 65.0004 47.8361 64.4458 48.8158 63.4388C49.7951 62.4322 50.3132 61.1035 50.2747 59.6977C50.199 56.9325 47.8467 54.6831 45.0309 54.6831ZM1.9043 56.7229V39.8257C1.9043 39.7908 1.93273 39.7622 1.96777 39.7622H4.20634V56.7864H1.96777C1.93273 56.7864 1.9043 56.7578 1.9043 56.7229ZM8.41268 56.7229C8.41268 56.7578 8.38424 56.7864 8.3492 56.7864H6.11063V39.7622H8.3492C8.38424 39.7622 8.41268 39.7908 8.41268 39.8257V56.7229ZM35.4253 52.3812H38.8089C40.2721 52.3812 41.5125 53.352 41.9207 54.6833H35.4237C35.5085 54.3128 35.5547 53.928 35.5547 53.5323C35.5547 53.1395 35.5098 52.7543 35.4253 52.3812Z" fill="white"/>
<path d="M38.313 16.4012L35.7039 16.0219L34.5371 13.6577C34.1516 12.8769 33.3714 12.3918 32.5006 12.3918C31.6299 12.3918 30.8496 12.8768 30.4642 13.6577L29.2973 16.0219L26.6882 16.4012C25.8264 16.5263 25.124 17.1186 24.855 17.9468C24.586 18.7749 24.8061 19.6669 25.4296 20.2746L27.3176 22.1151L26.8719 24.7138C26.7246 25.572 27.0708 26.423 27.7753 26.9348C28.1733 27.224 28.6391 27.371 29.1079 27.371C29.4689 27.371 29.8317 27.2838 30.1668 27.1077L32.5006 25.8807L34.8343 27.1076C35.6051 27.513 36.5215 27.4466 37.2258 26.9348C37.9303 26.423 38.2765 25.572 38.1292 24.7138L37.6835 22.1151L39.5715 20.2747C40.1951 19.6669 40.4153 18.775 40.1462 17.9468C39.8772 17.1187 39.1748 16.5265 38.313 16.4012ZM38.2425 18.9111L36.2442 20.859C35.8644 21.2293 35.6911 21.7625 35.7808 22.2853L36.2525 25.0356C36.286 25.2311 36.1755 25.3442 36.1066 25.3941C36.0378 25.4443 35.8959 25.5141 35.7205 25.4221L33.2503 24.1233C32.7811 23.8769 32.2204 23.8768 31.7507 24.1235L29.2807 25.4221C29.1053 25.5142 28.9635 25.4443 28.8946 25.3941C28.8257 25.3442 28.7153 25.2311 28.7488 25.0356L29.2204 22.2853C29.31 21.7625 29.1369 21.2293 28.757 20.859L26.7588 18.911C26.6169 18.7726 26.6397 18.6162 26.666 18.5352C26.6923 18.4542 26.7658 18.3142 26.962 18.2856L29.7231 17.8845C30.2482 17.8083 30.702 17.4789 30.9369 17.0029L32.1719 14.5005C32.2597 14.3228 32.4156 14.2963 32.5008 14.2963C32.5858 14.2963 32.7417 14.3228 32.8296 14.5005L34.0646 17.0029C34.2994 17.4789 34.7532 17.8084 35.2779 17.8843L38.0393 18.2856C38.2356 18.3142 38.309 18.4542 38.3353 18.5352C38.3615 18.6162 38.3844 18.7726 38.2425 18.9111Z" fill="#E63114"/>
<path d="M19.3836 16.4012L16.7743 16.0219L15.6075 13.6577C15.2221 12.8769 14.4418 12.3918 13.5711 12.3918C12.7003 12.3918 11.92 12.8768 11.5346 13.6577L10.3678 16.0219L7.75864 16.4012C6.89689 16.5263 6.19445 17.1186 5.92531 17.9468C5.6563 18.7749 5.87644 19.6669 6.4999 20.2746L8.38795 22.1151L7.94222 24.7138C7.79495 25.572 8.14115 26.423 8.84562 26.9348C9.24361 27.224 9.7094 27.371 10.1782 27.371C10.5392 27.371 10.902 27.2838 11.2372 27.1077L13.5708 25.8809L15.9045 27.1077C16.6753 27.5131 17.5915 27.4467 18.296 26.935C19.0005 26.4231 19.3467 25.5721 19.1994 24.7139L18.7537 22.1152L20.6417 20.2749C21.2653 19.667 21.4854 18.775 21.2164 17.9469C20.9477 17.1187 20.2454 16.5265 19.3836 16.4012ZM19.3129 18.9111L17.3147 20.859C16.9348 21.2293 16.7615 21.7625 16.8513 22.2853L17.3229 25.0356C17.3564 25.2311 17.2458 25.3442 17.177 25.3941C17.1082 25.4443 16.9663 25.5141 16.791 25.4221L14.3207 24.1233C13.8515 23.8769 13.2909 23.8768 12.8212 24.1235L10.3513 25.4221C10.1758 25.5142 10.034 25.4443 9.96522 25.3941C9.89641 25.3442 9.78583 25.2311 9.81935 25.0356L10.291 22.2853C10.3807 21.7625 10.2074 21.2293 9.8276 20.859L7.82936 18.911C7.68742 18.7726 7.71027 18.6162 7.73668 18.5352C7.76296 18.4542 7.83647 18.3142 8.03273 18.2856L10.7938 17.8845C11.319 17.8083 11.7728 17.4787 12.0076 17.0029L13.2425 14.5005C13.3302 14.3228 13.4861 14.2963 13.5713 14.2963C13.6565 14.2963 13.8123 14.3228 13.9001 14.5005L15.1351 17.0029C15.37 17.4789 15.8237 17.8084 16.3484 17.8843L19.11 18.2856C19.3062 18.3142 19.3797 18.4542 19.406 18.5352C19.432 18.6162 19.455 18.7726 19.3129 18.9111Z" fill="#E63114"/>
<path d="M57.239 16.4012L54.6298 16.0219L53.463 13.6577C53.0776 12.8769 52.2973 12.3918 51.4265 12.3918C50.5558 12.3918 49.7755 12.8768 49.3901 13.6577L48.2233 16.0219L45.614 16.4012C44.7522 16.5263 44.0499 17.1186 43.7808 17.9468C43.5118 18.7748 43.7319 19.6669 44.3554 20.2746L46.2434 22.1151L45.7977 24.7138C45.6506 25.572 45.9968 26.4231 46.7012 26.9348C47.4057 27.4466 48.322 27.5126 49.0928 27.1076L51.4264 25.8807L53.7601 27.1076C54.0953 27.284 54.458 27.3709 54.819 27.3709C55.2878 27.3708 55.7536 27.2239 56.1516 26.9347C56.8561 26.4228 57.2023 25.5719 57.055 24.7137L56.6093 22.1149L58.4973 20.2746C59.1209 19.6668 59.341 18.7749 59.072 17.9467C58.8031 17.1187 58.1006 16.5265 57.239 16.4012ZM57.1682 18.9111L55.17 20.859C54.7903 21.2292 54.617 21.7623 54.7065 22.2853L55.1783 25.0356C55.2118 25.2311 55.1012 25.3442 55.0324 25.3941C54.9636 25.4443 54.8216 25.5141 54.6463 25.4221L52.1761 24.1233C51.7069 23.8769 51.1462 23.8768 50.6765 24.1235L48.2065 25.4221C48.031 25.5142 47.8894 25.4443 47.8203 25.3941C47.7515 25.3442 47.6409 25.231 47.6744 25.0356L48.1462 22.2853C48.2359 21.7625 48.0627 21.2293 47.6828 20.859L45.6846 18.911C45.5426 18.7726 45.5655 18.6162 45.5919 18.5352C45.6182 18.4542 45.6917 18.3142 45.8878 18.2856L48.6489 17.8845C49.1741 17.8083 49.6279 17.4789 49.8627 17.0029L51.0976 14.5005C51.1853 14.3228 51.3412 14.2963 51.4264 14.2963C51.5115 14.2963 51.6674 14.3228 51.7552 14.5005L52.9901 17.0028C53.225 17.4787 53.6787 17.8084 54.2035 17.8843L56.965 18.2856C57.1613 18.3142 57.2346 18.4542 57.261 18.5352C57.2873 18.6162 57.3103 18.7726 57.1682 18.9111Z" fill="#E63114"/>
<path d="M59.8405 0H5.15849C2.3141 0 0 2.3141 0 5.15849V30.3964C0 33.2408 2.3141 35.5549 5.15849 35.5549H29.3447C29.3995 35.5549 29.4441 35.5996 29.4441 35.6543V39.8606C29.4441 40.7379 29.9819 41.4841 30.8143 41.7615C31.0299 41.8333 31.2484 41.8683 31.4632 41.8683C32.0776 41.8683 32.6608 41.583 33.0508 41.0629L37.1521 35.5947C37.1709 35.5699 37.2004 35.5549 37.2317 35.5549H59.8406C62.685 35.5549 64.9991 33.2408 64.9991 30.3964V5.15849C64.999 2.3141 62.6849 0 59.8405 0V0ZM63.0947 30.3964C63.0947 32.1907 61.6349 33.6506 59.8405 33.6506H37.2315C36.6043 33.6506 36.0049 33.9502 35.6285 34.4522L31.5273 39.9203C31.5081 39.9458 31.484 39.9775 31.4163 39.9549C31.3483 39.9322 31.3483 39.8925 31.3483 39.8606V35.6543C31.3483 34.5494 30.4493 33.6506 29.3446 33.6506H5.15849C3.36413 33.6506 1.9043 32.1907 1.9043 30.3964V9.36482C1.9043 7.57047 3.36413 6.11063 5.15849 6.11063H7.14276C7.6686 6.11063 8.09491 5.68445 8.09491 5.15849C8.09491 4.63252 7.6686 4.20634 7.14276 4.20634H5.15849C3.92552 4.20634 2.79271 4.64166 1.9043 5.36593V5.15849C1.9043 3.36413 3.36413 1.9043 5.15849 1.9043H59.8406C61.635 1.9043 63.0948 3.36413 63.0948 5.15849V5.36593C62.2064 4.64166 61.0736 4.20634 59.8406 4.20634H11.5861C11.0603 4.20634 10.634 4.63252 10.634 5.15849C10.634 5.68445 11.0603 6.11063 11.5861 6.11063H59.8406C61.635 6.11063 63.0948 7.57047 63.0948 9.36482V30.3964H63.0947Z" fill="white"/>
</g>
<defs>
<clipPath id="clip0_735_36156">
<rect width="65" height="65" fill="white"/>
</clipPath>
</defs>
</svg>
