<svg width="65" height="65" viewBox="0 0 65 65" fill="none" xmlns="http://www.w3.org/2000/svg">
<path d="M5.78734 39.9566C5.58485 39.9566 5.38856 39.8867 5.23169 39.7586C5.07483 39.6306 4.96703 39.4523 4.92653 39.2539C3.8843 33.9827 4.40338 28.522 6.42009 23.5416C8.43681 18.5612 11.8634 14.2778 16.2796 11.2169C16.3742 11.1473 16.4817 11.0973 16.596 11.07C16.7102 11.0427 16.8287 11.0385 16.9446 11.0578C17.0605 11.0771 17.1713 11.1195 17.2705 11.1823C17.3697 11.2452 17.4553 11.3273 17.5222 11.4238C17.5891 11.5204 17.636 11.6293 17.6601 11.7443C17.6841 11.8592 17.6849 11.9779 17.6623 12.0931C17.6397 12.2084 17.5943 12.3179 17.5286 12.4153C17.463 12.5127 17.3784 12.5959 17.28 12.6601C13.1461 15.5258 9.93843 19.5357 8.05047 24.198C6.16252 28.8603 5.67637 33.9723 6.65166 38.9069C6.67418 39.0201 6.67418 39.1366 6.65167 39.2497C6.62916 39.3629 6.58457 39.4705 6.52045 39.5664C6.45634 39.6623 6.37396 39.7447 6.27801 39.8088C6.18206 39.8729 6.07443 39.9174 5.96126 39.9399C5.90397 39.9511 5.84572 39.9567 5.78734 39.9566Z" fill="white"/>
<path d="M31.9227 61.382C28.1269 61.392 24.3709 60.6087 20.8955 59.0824C20.685 58.9898 20.5193 58.8183 20.4339 58.6048C20.3485 58.3912 20.3502 58.1528 20.4387 57.9405L24.9246 47.2305C24.9701 47.1219 25.037 47.0236 25.1212 46.9414C25.2054 46.8592 25.3053 46.7947 25.4149 46.7518C25.5246 46.709 25.6417 46.6886 25.7594 46.6919C25.877 46.6952 25.9928 46.7221 26.0999 46.7711C27.9278 47.6035 29.9141 48.0308 31.9227 48.0236C34.721 48.0265 37.4573 47.199 39.7852 45.6461C42.1131 44.0931 43.9279 41.8844 44.9999 39.2996C45.0507 39.1776 45.1284 39.0687 45.2271 38.9809C45.3258 38.8931 45.443 38.8287 45.5701 38.7924C45.6971 38.7562 45.8307 38.7491 45.9609 38.7717C46.0911 38.7943 46.2145 38.8459 46.3219 38.9228L55.9041 45.7741C56.0783 45.8983 56.2011 46.0817 56.2496 46.29C56.2981 46.4983 56.269 46.7171 56.1676 46.9055C53.8109 51.2834 50.3122 54.9412 46.0433 57.4901C41.7743 60.0391 36.8947 61.384 31.9227 61.382ZM22.3975 57.8079C28.1501 60.0897 34.5312 60.2277 40.3771 58.1968C46.223 56.166 51.1442 52.1015 54.2431 46.7447L46.1664 40.9711C44.8483 43.6204 42.8164 45.8489 40.2998 47.4053C37.7831 48.9618 34.8817 49.7844 31.9227 49.7804C29.9675 49.7864 28.0285 49.4271 26.2053 48.7211L22.3975 57.8079Z" fill="white"/>
<path d="M46.3716 30.5552C46.1813 30.5551 45.9962 30.4932 45.8442 30.3788C45.6921 30.2644 45.5813 30.1038 45.5284 29.921C44.5941 26.7231 42.5689 23.9536 39.8049 22.0937C39.7069 22.0276 39.6233 21.9424 39.559 21.8431C39.4948 21.7439 39.4512 21.6327 39.431 21.5163C39.4107 21.3998 39.4142 21.2804 39.4411 21.1654C39.4681 21.0503 39.518 20.9418 39.5879 20.8464L46.4542 11.4873C46.5899 11.3024 46.7927 11.1779 47.019 11.1404C47.2454 11.103 47.4774 11.1556 47.6655 11.2871C52.7339 14.8311 56.4663 19.9736 58.2649 25.891C58.3313 26.1116 58.3085 26.3495 58.2012 26.5534C58.0939 26.7573 57.9108 26.9109 57.6913 26.981L46.643 30.513C46.5554 30.5414 46.4638 30.5556 46.3716 30.5552ZM41.5291 21.1688C44.0158 23.0562 45.8966 25.6294 46.9399 28.5718L56.3193 25.5739C54.6393 20.6519 51.5153 16.3503 47.3545 13.23L41.5291 21.1688Z" fill="white"/>
<path d="M31.9243 49.7803C29.6641 49.7879 27.429 49.3064 25.3725 48.3688C21.791 46.7508 18.9347 43.8652 17.3533 40.2674C15.772 36.6697 15.5774 32.6141 16.8072 28.8815C18.0369 25.1488 20.6039 22.0031 24.0141 20.0498C27.4243 18.0965 31.4365 17.4737 35.2783 18.3014C39.1201 19.1291 42.52 21.3487 44.8233 24.533C47.1266 27.7172 48.1705 31.641 47.7542 35.5488C47.3378 39.4567 45.4905 43.0724 42.568 45.6998C39.6455 48.3272 35.8543 49.7807 31.9243 49.7803ZM31.9243 19.7002C30.0646 19.7 28.223 20.0662 26.5048 20.7777C24.7866 21.4893 23.2254 22.5324 21.9103 23.8475C20.5953 25.1625 19.5522 26.7237 18.8406 28.4419C18.129 30.1602 17.7629 32.0017 17.7631 33.8615C17.7616 34.6473 17.8266 35.4318 17.9572 36.2067C18.3383 38.502 19.2809 40.6674 20.7013 42.5103C22.1216 44.3531 23.9755 45.8162 26.098 46.7692C27.9269 47.6027 29.9145 48.0306 31.9243 48.0236C33.7934 48.0383 35.647 47.6829 37.3781 46.9778C39.1092 46.2727 40.6836 45.2319 42.0105 43.9154C43.3374 42.5989 44.3905 41.0327 45.1092 39.3073C45.8279 37.5818 46.1979 35.7311 46.1979 33.8619C46.1979 31.9927 45.8279 30.142 45.1092 28.4166C44.3905 26.6911 43.3374 25.1249 42.0105 23.8084C40.6836 22.4919 39.1092 21.4511 37.3781 20.7461C35.647 20.041 33.7934 19.6855 31.9243 19.7002Z" fill="white"/>
<path d="M40.2921 22.244C40.1181 22.2444 39.9481 22.1927 39.8037 22.0956C37.48 20.5395 34.7477 19.7061 31.9511 19.7003C29.1545 19.6945 26.4188 20.5167 24.0887 22.0631C23.9 22.1884 23.6702 22.2359 23.4472 22.1958C23.2243 22.1557 23.0255 22.0311 22.8923 21.8479L13.9328 9.50667C13.8631 9.41049 13.8136 9.30117 13.7874 9.18532C13.7611 9.06947 13.7586 8.94949 13.78 8.83265C13.8015 8.71581 13.8464 8.60453 13.912 8.50554C13.9777 8.40655 14.0628 8.32191 14.1621 8.25673C25.8946 0.651733 38.1963 0.71322 49.7364 8.43241C49.835 8.49835 49.9192 8.58356 49.9839 8.68291C50.0487 8.78226 50.0926 8.89369 50.1131 9.01048C50.1336 9.12728 50.1303 9.24702 50.1033 9.36248C50.0763 9.47795 50.0262 9.58676 49.956 9.68234L41.0009 21.8857C40.9193 21.9969 40.8125 22.0873 40.6893 22.1495C40.5662 22.2118 40.4301 22.2442 40.2921 22.244ZM31.922 17.94C34.791 17.9378 37.6069 18.7137 40.0699 20.1851L47.9911 9.39072C37.4259 2.65531 26.6386 2.60261 15.8969 9.23173L23.8278 20.1517C26.2787 18.7023 29.0746 17.9395 31.922 17.9435V17.94Z" fill="white"/>
<path d="M19.8758 62.4308C19.7335 62.4307 19.5933 62.3961 19.4674 62.3298C9.36603 57.0191 3.41063 49.5002 1.77069 39.9847C1.73261 39.7648 1.7797 39.5386 1.90239 39.3521C2.02508 39.1656 2.21417 39.0328 2.43123 38.9808L16.8858 35.5006C17.0031 35.4725 17.1249 35.4687 17.2436 35.4897C17.3623 35.5106 17.4755 35.5558 17.576 35.6224C17.6766 35.6889 17.7623 35.7755 17.8279 35.8767C17.8935 35.9778 17.9376 36.0914 17.9575 36.2103C18.3391 38.5049 19.282 40.6696 20.7023 42.5118C22.1226 44.354 23.9762 45.8165 26.0983 46.7693C26.3073 46.8635 26.4712 47.0356 26.5551 47.2489C26.639 47.4623 26.6361 47.7 26.5471 47.9112L20.6857 61.895C20.6187 62.0545 20.5062 62.1908 20.3621 62.2865C20.218 62.3823 20.0488 62.4334 19.8758 62.4335V62.4308ZM3.65306 40.4933C5.33691 48.801 10.6423 55.4635 19.4402 60.3192L24.605 47.9973C22.55 46.9383 20.7515 45.4427 19.3354 43.6154C17.9192 41.7881 16.9198 39.6732 16.4071 37.419L3.65306 40.4933Z" fill="white"/>
<path d="M58.1281 49.3156C57.9451 49.3157 57.7667 49.2585 57.6177 49.1523L45.302 40.3518C45.1399 40.2362 45.0218 40.0689 44.9672 39.8774C44.9126 39.6858 44.9248 39.4815 45.0016 39.2977C46.2369 36.3224 46.4228 33.0152 45.5286 29.9202C45.4644 29.7001 45.4887 29.4637 45.5963 29.2614C45.704 29.059 45.8865 28.9068 46.1048 28.8371L60.5427 24.2221C60.6536 24.1867 60.7703 24.1736 60.8862 24.1837C61.0022 24.1938 61.1149 24.2268 61.218 24.2808C61.321 24.3348 61.4123 24.4088 61.4865 24.4984C61.5608 24.588 61.6165 24.6914 61.6504 24.8027C64.4831 34.0995 63.5406 42.2192 58.8519 48.9406C58.7853 49.0356 58.7006 49.1165 58.6026 49.1786C58.5046 49.2407 58.3953 49.2828 58.2809 49.3025C58.2305 49.3114 58.1793 49.3158 58.1281 49.3156ZM46.8796 39.3197L57.9023 47.197C61.704 41.2925 62.4822 34.2268 60.2195 26.1721L47.4329 30.2601C48.1284 33.2699 47.9365 36.4167 46.8804 39.3197H46.8796Z" fill="white"/>
<path d="M17.6051 46.4443H11.2729C11.0399 46.4443 10.8165 46.3517 10.6518 46.187C10.4871 46.0223 10.3945 45.7988 10.3945 45.5659C10.3945 45.3329 10.4871 45.1095 10.6518 44.9448C10.8165 44.78 11.0399 44.6875 11.2729 44.6875H17.6051C17.8381 44.6875 18.0615 44.78 18.2262 44.9448C18.391 45.1095 18.4835 45.3329 18.4835 45.5659C18.4835 45.7988 18.391 46.0223 18.2262 46.187C18.0615 46.3517 17.8381 46.4443 17.6051 46.4443Z" fill="#E63114"/>
<path d="M13.9037 50.0817H11.2729C11.0399 50.0817 10.8165 49.9892 10.6518 49.8244C10.4871 49.6597 10.3945 49.4363 10.3945 49.2033C10.3945 48.9704 10.4871 48.747 10.6518 48.5822C10.8165 48.4175 11.0399 48.325 11.2729 48.325H13.9037C14.1366 48.325 14.36 48.4175 14.5248 48.5822C14.6895 48.747 14.782 48.9704 14.782 49.2033C14.782 49.4363 14.6895 49.6597 14.5248 49.8244C14.36 49.9892 14.1366 50.0817 13.9037 50.0817Z" fill="#E63114"/>
<path d="M35.0886 10.4684H28.7573C28.5243 10.4684 28.3009 10.3759 28.1362 10.2112C27.9715 10.0464 27.8789 9.82301 27.8789 9.59005C27.8789 9.35709 27.9715 9.13367 28.1362 8.96894C28.3009 8.80421 28.5243 8.71167 28.7573 8.71167H35.0886C35.3216 8.71167 35.545 8.80421 35.7097 8.96894C35.8745 9.13367 35.967 9.35709 35.967 9.59005C35.967 9.82301 35.8745 10.0464 35.7097 10.2112C35.545 10.3759 35.3216 10.4684 35.0886 10.4684Z" fill="#E63114"/>
<path d="M31.3872 14.1069H28.7573C28.5243 14.1069 28.3009 14.0143 28.1362 13.8496C27.9715 13.6849 27.8789 13.4614 27.8789 13.2285C27.8789 12.9955 27.9715 12.7721 28.1362 12.6074C28.3009 12.4426 28.5243 12.3501 28.7573 12.3501H31.3872C31.6201 12.3501 31.8435 12.4426 32.0083 12.6074C32.173 12.7721 32.2655 12.9955 32.2655 13.2285C32.2655 13.4614 32.173 13.6849 32.0083 13.8496C31.8435 14.0143 31.6201 14.1069 31.3872 14.1069Z" fill="#E63114"/>
<path d="M57.2551 34.7565H51.4956C51.2626 34.7565 51.0392 34.664 50.8745 34.4992C50.7097 34.3345 50.6172 34.1111 50.6172 33.8781C50.6172 33.6452 50.7097 33.4218 50.8745 33.257C51.0392 33.0923 51.2626 32.9998 51.4956 32.9998H57.2551C57.4881 32.9998 57.7115 33.0923 57.8762 33.257C58.0409 33.4218 58.1335 33.6452 58.1335 33.8781C58.1335 34.1111 58.0409 34.3345 57.8762 34.4992C57.7115 34.664 57.4881 34.7565 57.2551 34.7565Z" fill="#E63114"/>
<path d="M55.7504 38.394H53.1206C52.8876 38.394 52.6642 38.3014 52.4995 38.1367C52.3347 37.972 52.2422 37.7485 52.2422 37.5156C52.2422 37.2826 52.3347 37.0592 52.4995 36.8945C52.6642 36.7297 52.8876 36.6372 53.1206 36.6372H55.7504C55.9834 36.6372 56.2068 36.7297 56.3715 36.8945C56.5363 37.0592 56.6288 37.2826 56.6288 37.5156C56.6288 37.7485 56.5363 37.972 56.3715 38.1367C56.2068 38.3014 55.9834 38.394 55.7504 38.394Z" fill="#E63114"/>
<path d="M38.6226 30.5553H25.2651C25.0321 30.5553 24.8087 30.4628 24.644 30.2981C24.4793 30.1333 24.3867 29.9099 24.3867 29.677C24.3867 29.444 24.4793 29.2206 24.644 29.0559C24.8087 28.8911 25.0321 28.7986 25.2651 28.7986H38.6226C38.8556 28.7986 39.079 28.8911 39.2437 29.0559C39.4084 29.2206 39.501 29.444 39.501 29.677C39.501 29.9099 39.4084 30.1333 39.2437 30.2981C39.079 30.4628 38.8556 30.5553 38.6226 30.5553Z" fill="#E63114"/>
<path d="M38.6226 35.7211H25.2651C25.0321 35.7211 24.8087 35.6286 24.644 35.4638C24.4793 35.2991 24.3867 35.0757 24.3867 34.8427C24.3867 34.6098 24.4793 34.3864 24.644 34.2216C24.8087 34.0569 25.0321 33.9644 25.2651 33.9644H38.6226C38.8556 33.9644 39.079 34.0569 39.2437 34.2216C39.4084 34.3864 39.501 34.6098 39.501 34.8427C39.501 35.0757 39.4084 35.2991 39.2437 35.4638C39.079 35.6286 38.8556 35.7211 38.6226 35.7211Z" fill="#E63114"/>
<path d="M33.3769 40.5153H25.2651C25.0321 40.5153 24.8087 40.4228 24.644 40.258C24.4793 40.0933 24.3867 39.8699 24.3867 39.6369C24.3867 39.404 24.4793 39.1805 24.644 39.0158C24.8087 38.8511 25.0321 38.7585 25.2651 38.7585H33.3769C33.6099 38.7585 33.8333 38.8511 33.998 39.0158C34.1628 39.1805 34.2553 39.404 34.2553 39.6369C34.2553 39.8699 34.1628 40.0933 33.998 40.258C33.8333 40.4228 33.6099 40.5153 33.3769 40.5153Z" fill="#E63114"/>
</svg>
