<svg width="65" height="65" viewBox="0 0 65 65" fill="none" xmlns="http://www.w3.org/2000/svg">
<path d="M51.595 15.6566V15.8482C51.595 16.374 52.0212 16.8004 52.5472 16.8004C53.0731 16.8004 53.4993 16.374 53.4993 15.8482V15.6566C53.4993 14.9847 53.2613 14.3318 52.829 13.8181C52.4904 13.4159 51.8898 13.364 51.4875 13.7026C51.0852 14.0412 51.0335 14.6418 51.3721 15.0442C51.4737 15.1652 51.595 15.3696 51.595 15.6566Z" fill="white"/>
<path d="M52.5498 22.7671C52.0238 22.7671 51.5977 23.1934 51.5977 23.7192V25.2427C51.5977 25.7685 52.0238 26.1948 52.5498 26.1948C53.0758 26.1948 53.502 25.7685 53.502 25.2427V23.7192C53.502 23.1934 53.0758 22.7671 52.5498 22.7671Z" fill="white"/>
<path d="M53.502 19.022C53.502 18.4961 53.0758 18.0698 52.5498 18.0698C52.0238 18.0698 51.5977 18.4961 51.5977 19.022V20.5454C51.5977 21.0712 52.0238 21.4976 52.5498 21.4976C53.0758 21.4976 53.502 21.0712 53.502 20.5454V19.022Z" fill="white"/>
<path d="M37.0693 58.6699H35.5459C35.0199 58.6699 34.5938 59.0962 34.5938 59.6221C34.5938 60.1479 35.0199 60.5742 35.5459 60.5742H37.0693C37.5953 60.5742 38.0215 60.1479 38.0215 59.6221C38.0215 59.0962 37.5953 58.6699 37.0693 58.6699Z" fill="white"/>
<path d="M32.374 58.6699H30.8506C30.3247 58.6699 29.8984 59.0962 29.8984 59.6221C29.8984 60.1479 30.3247 60.5742 30.8506 60.5742H32.374C32.9 60.5742 33.3262 60.1479 33.3262 59.6221C33.3262 59.0962 32.9 58.6699 32.374 58.6699Z" fill="white"/>
<path d="M27.6748 58.6699H26.1514C25.6255 58.6699 25.1992 59.0962 25.1992 59.6221C25.1992 60.1479 25.6255 60.5742 26.1514 60.5742H27.6748C28.2006 60.5742 28.627 60.1479 28.627 59.6221C28.627 59.0962 28.2006 58.6699 27.6748 58.6699Z" fill="white"/>
<path d="M22.9795 58.6699H21.4561C20.9302 58.6699 20.5039 59.0962 20.5039 59.6221C20.5039 60.1479 20.9302 60.5742 21.4561 60.5742H22.9795C23.5053 60.5742 23.9316 60.1479 23.9316 59.6221C23.9316 59.0962 23.5053 58.6699 22.9795 58.6699Z" fill="white"/>
<path d="M18.6768 58.5949C18.4412 58.4944 18.253 58.2999 18.1608 58.0611C17.971 57.5706 17.4197 57.327 16.9294 57.5164C16.439 57.7061 16.195 58.2573 16.3846 58.7478C16.6611 59.4631 17.2244 60.0458 17.93 60.3466C18.0518 60.3985 18.1785 60.4231 18.303 60.4231C18.6731 60.4231 19.0251 60.206 19.1794 59.8441C19.3856 59.3603 19.1606 58.801 18.6768 58.5949Z" fill="white"/>
<path d="M17.1436 56.1987C17.6694 56.1987 18.0957 55.7724 18.0957 55.2466V53.7231C18.0957 53.1973 17.6694 52.771 17.1436 52.771C16.6177 52.771 16.1914 53.1973 16.1914 53.7231V55.2466C16.1914 55.7725 16.6177 56.1987 17.1436 56.1987Z" fill="white"/>
<path d="M21.4818 21.7078H8.27637C7.75053 21.7078 7.32422 22.1341 7.32422 22.6599C7.32422 23.1858 7.75053 23.6121 8.27637 23.6121H21.4818C22.0076 23.6121 22.4339 23.1858 22.4339 22.6599C22.4339 22.1341 22.0076 21.7078 21.4818 21.7078Z" fill="#E63114"/>
<path d="M21.4818 26.3208H8.27637C7.75053 26.3208 7.32422 26.7471 7.32422 27.2729C7.32422 27.7988 7.75053 28.2251 8.27637 28.2251H21.4818C22.0076 28.2251 22.4339 27.7988 22.4339 27.2729C22.4339 26.7471 22.0076 26.3208 21.4818 26.3208Z" fill="white"/>
<path d="M21.4818 30.9131H8.27637C7.75053 30.9131 7.32422 31.3394 7.32422 31.8652C7.32422 32.3911 7.75053 32.8174 8.27637 32.8174H21.4818C22.0076 32.8174 22.4339 32.3911 22.4339 31.8652C22.4339 31.3394 22.0076 30.9131 21.4818 30.9131Z" fill="#E63114"/>
<path d="M22.4339 36.499C22.4339 35.9732 22.0076 35.5469 21.4818 35.5469H8.27637C7.75053 35.5469 7.32422 35.9732 7.32422 36.499C7.32422 37.0249 7.75053 37.4512 8.27637 37.4512H21.4818C22.0076 37.4512 22.4339 37.0249 22.4339 36.499Z" fill="white"/>
<path d="M8.27637 40.1602C7.75053 40.1602 7.32422 40.5865 7.32422 41.1123C7.32422 41.6381 7.75053 42.0645 8.27637 42.0645H14.1961C14.7219 42.0645 15.1482 41.6381 15.1482 41.1123C15.1482 40.5865 14.7219 40.1602 14.1961 40.1602H8.27637Z" fill="white"/>
<path d="M27.636 50.0816C27.8219 50.2675 28.0656 50.3606 28.3092 50.3606C28.5529 50.3606 28.7966 50.2676 28.9825 50.0816L32.826 46.2381C33.1978 45.8663 33.1978 45.2634 32.826 44.8917C32.454 44.5198 31.8512 44.5198 31.4795 44.8917L28.3092 48.0619L26.0863 45.839C25.7144 45.4672 25.1115 45.4672 24.7398 45.839C24.368 46.2108 24.368 46.8137 24.7398 47.1855L27.636 50.0816Z" fill="#E63114"/>
<path d="M42.784 24.7164C43.6688 24.0238 44.4688 23.2239 45.1617 22.3386C45.6833 21.672 45.6235 20.716 45.0225 20.115L43.287 18.3796C43.5145 17.9291 43.7088 17.4597 43.8664 16.9798H46.3219C47.172 16.9798 47.8903 16.3463 47.9925 15.5061C48.0247 15.2407 48.049 14.9728 48.0658 14.7045H49.1309C49.6568 14.7045 50.083 14.2782 50.083 13.7524C50.083 13.2265 49.6568 12.8002 49.1309 12.8002H48.0552C48.0389 12.5802 48.0191 12.3607 47.9927 12.1429C47.8904 11.3027 47.1722 10.6692 46.3222 10.6692H43.8666C43.7092 10.1896 43.5148 9.7201 43.2872 9.26942L45.0228 7.53384C45.6238 6.93272 45.6836 5.97676 45.1619 5.31026C44.4691 4.42527 43.6691 3.62534 42.7842 2.93255C42.1176 2.41065 41.1616 2.47019 40.5606 3.07157L38.8249 4.80702C38.3748 4.57952 37.9053 4.38515 37.4253 4.2276V1.77208C37.4253 0.921997 36.7918 0.203696 35.9517 0.101499C34.8413 -0.033833 33.6991 -0.033833 32.5884 0.101499C31.7482 0.203823 31.1147 0.92187 31.1147 1.77208V4.22748C30.6348 4.38502 30.1652 4.57939 29.7149 4.80702L27.9795 3.07157C27.3783 2.47032 26.4222 2.41052 25.7559 2.9323C24.8708 3.62508 24.0708 4.42501 23.3782 5.31C22.8563 5.97664 22.9161 6.93259 23.5172 7.53372L25.2526 9.26917C25.0251 9.71947 24.8306 10.1892 24.6731 10.669H22.2177C21.3676 10.669 20.6494 11.3024 20.5471 12.1425C20.5206 12.3603 20.5006 12.5798 20.4845 12.8H7.13185C6.53847 12.8 5.98051 13.031 5.5608 13.4507L0.650635 18.3612C0.231055 18.7807 0 19.3386 0 19.9321V47.3714C0 48.5963 0.996709 49.593 2.22168 49.593H16.1916V50.5494C16.1916 51.0752 16.6179 51.5015 17.1437 51.5015C17.6696 51.5015 18.0959 51.0752 18.0959 50.5494V49.593H20.6955C21.6964 53.118 24.942 55.7084 28.7833 55.7084C33.4196 55.7084 37.1914 51.9365 37.1914 47.3003C37.1914 42.9945 33.9375 39.4364 29.7598 38.9507V34.6259C29.7598 34.1001 29.3335 33.6737 28.8077 33.6737C28.2819 33.6737 27.8555 34.1001 27.8555 34.6259V38.9445C23.6543 39.4078 20.3751 42.9776 20.3751 47.3003C20.3751 47.4305 20.379 47.5599 20.385 47.6889H2.22168C2.04674 47.6889 1.9043 47.5464 1.9043 47.3715V19.9321C1.9043 19.8485 1.93819 19.7668 1.99723 19.7076L6.90739 14.7975C6.96744 14.7375 7.04704 14.7045 7.13185 14.7045H20.4732C20.4902 14.9729 20.5145 15.2408 20.5467 15.5061C20.6491 16.3463 21.3671 16.9798 22.2173 16.9798H24.6727C24.8303 17.4597 25.0246 17.9293 25.2522 18.3796L23.5168 20.115C22.9157 20.716 22.8558 21.6721 23.3777 22.3387C24.0706 23.2239 24.8705 24.0238 25.7554 24.7164C26.3779 25.2037 27.253 25.1834 27.8554 24.6888V30.1824C27.8554 30.7082 28.2817 31.1346 28.8076 31.1346C29.3334 31.1346 29.7597 30.7082 29.7597 30.1824V22.8637C30.1964 23.0817 30.6504 23.269 31.1142 23.4213V25.8767C31.1142 26.7267 31.7477 27.445 32.5878 27.5474C33.1433 27.6149 33.7092 27.6492 34.2695 27.6492C34.8298 27.6492 35.3957 27.6149 35.9511 27.5472C36.7913 27.445 37.4248 26.7267 37.4248 25.8767V23.4213C37.9046 23.2637 38.3742 23.0693 38.8246 22.8419L40.56 24.5773C41.1615 25.1783 42.1172 25.2381 42.784 24.7164ZM28.7833 40.7962C32.3696 40.7962 35.2871 43.7138 35.2871 47.3C35.2871 50.8862 32.3695 53.8038 28.7833 53.8038C25.1971 53.8038 22.2795 50.8862 22.2795 47.3C22.2795 43.7138 25.197 40.7962 28.7833 40.7962ZM38.0781 21.0843C37.6416 21.3135 37.1814 21.504 36.71 21.6505C35.9986 21.8718 35.5207 22.5179 35.5207 23.2583V25.6795C34.6916 25.7662 33.8481 25.7662 33.0187 25.6795V23.2583C33.0187 22.5179 32.5408 21.8718 31.8292 21.6504C31.3579 21.5039 30.8976 21.3135 30.4613 21.0842C29.8016 20.7377 29.0066 20.8566 28.4831 21.38L26.7717 23.0913C26.1225 22.5652 25.5287 21.9715 25.0025 21.3221L26.7137 19.6108C27.2373 19.0872 27.3561 18.2924 27.0097 17.6327C26.7805 17.1964 26.59 16.7362 26.4433 16.2647C26.222 15.5532 25.5758 15.0752 24.8356 15.0752H22.4143C22.371 14.6607 22.3491 14.2408 22.3491 13.8242C22.3491 13.4077 22.371 12.9879 22.4143 12.5732H24.8356C25.576 12.5732 26.222 12.0953 26.4433 11.3838C26.59 10.9124 26.7805 10.4521 27.0095 10.0159C27.3561 9.35613 27.2372 8.56127 26.7137 8.03772L25.0025 6.32639C25.5286 5.67715 26.1224 5.08327 26.7717 4.55717L28.4831 6.26837C29.0065 6.7918 29.8014 6.91076 30.4613 6.5643C30.8976 6.33515 31.3579 6.14459 31.8292 5.99796C32.5406 5.77681 33.0187 5.13062 33.0187 4.39023V1.96911C33.8476 1.8824 34.6916 1.8824 35.5207 1.96911V4.39036C35.5207 5.13087 35.9988 5.77694 36.71 5.99809C37.1815 6.14472 37.6419 6.33528 38.0781 6.56443C38.7378 6.91088 39.533 6.79193 40.0561 6.2685L41.7676 4.55743C42.4168 5.08352 43.0107 5.67728 43.5368 6.32665L41.8256 8.03797C41.8255 8.03797 41.8255 8.03797 41.8255 8.03797C41.3019 8.56153 41.1831 9.35651 41.5297 10.016C41.7591 10.4527 41.9496 10.9131 42.096 11.384C42.317 12.0955 42.9632 12.5736 43.7037 12.5736H46.125C46.1684 12.9885 46.1904 13.4085 46.1904 13.8246C46.1904 14.2408 46.1684 14.6607 46.125 15.0756H43.7036C42.963 15.0756 42.3169 15.5537 42.096 16.265C41.9494 16.7363 41.7588 17.1966 41.5298 17.633C41.1831 18.2926 41.3019 19.0876 41.8253 19.6113L43.5367 21.3226C43.0104 21.972 42.4167 22.5657 41.7674 23.0918L40.0562 21.3805C39.5328 20.8567 38.738 20.7379 38.0781 21.0843Z" fill="white"/>
<path d="M39.1616 10.6168C38.6809 10.8301 38.4642 11.3926 38.6775 11.8733C38.9515 12.4906 39.0903 13.1471 39.0903 13.8244C39.0903 16.4819 36.9283 18.6439 34.2707 18.6439C31.6132 18.6439 29.4512 16.4819 29.4512 13.8244C29.4512 11.1669 31.6132 9.00488 34.2707 9.00488C34.8587 9.00488 35.435 9.11064 35.9834 9.31922C36.4747 9.50571 37.0248 9.2593 37.2118 8.76773C37.3988 8.27617 37.1519 7.72621 36.6603 7.53934C35.8949 7.24823 35.0909 7.10059 34.2707 7.10059C30.5632 7.10059 27.5469 10.1169 27.5469 13.8244C27.5469 17.5319 30.5632 20.5482 34.2707 20.5482C37.9782 20.5482 40.9946 17.5319 40.9946 13.8244C40.9946 12.8794 40.8007 11.963 40.4181 11.1009C40.2049 10.6202 39.6421 10.4037 39.1616 10.6168Z" fill="white"/>
<path d="M34.2685 10.8684C32.6385 10.8684 31.3125 12.1944 31.3125 13.8244C31.3125 15.4543 32.6385 16.7804 34.2685 16.7804C35.8984 16.7804 37.2245 15.4543 37.2245 13.8244C37.2245 12.1944 35.8984 10.8684 34.2685 10.8684ZM34.2685 14.8761C33.6886 14.8761 33.2168 14.4043 33.2168 13.8244C33.2168 13.2445 33.6886 12.7727 34.2685 12.7727C34.8484 12.7727 35.3202 13.2445 35.3202 13.8244C35.3202 14.4043 34.8485 14.8761 34.2685 14.8761Z" fill="#E63114"/>
<path d="M63.4141 40.6265C64.2892 40.6265 65.001 39.9146 65.001 39.0396V32.0952C65.001 31.2201 64.2892 30.5083 63.4141 30.5083H53.312C53.4306 30.3496 53.5016 30.1532 53.5016 29.9399V28.4165C53.5016 27.8907 53.0754 27.4644 52.5494 27.4644C52.0234 27.4644 51.5973 27.8907 51.5973 28.4165V29.9399C51.5973 30.1532 51.6682 30.3496 51.7868 30.5083H41.6848C40.8097 30.5083 40.0979 31.2201 40.0979 32.0952V39.0396C40.0979 39.9146 40.8097 40.6265 41.6848 40.6265H51.5973V42.5357H41.6848C40.8097 42.5357 40.0979 43.2475 40.0979 44.1226V51.067C40.0979 51.9421 40.8097 52.6539 41.6848 52.6539H51.5973V54.5633H41.6848C40.8097 54.5633 40.0979 55.2751 40.0979 56.1502V58.6828C39.6421 58.7537 39.293 59.1468 39.293 59.6223C39.293 60.0979 39.6421 60.491 40.0979 60.5619V63.0945C40.0979 63.9696 40.8097 64.6814 41.6848 64.6814H63.4141C64.2892 64.6814 65.001 63.9696 65.001 63.0945V56.1502C65.001 55.2751 64.2892 54.5633 63.4141 54.5633H53.5016V52.6539H55.9873C56.5133 52.6539 56.9395 52.2276 56.9395 51.7017C56.9395 51.1759 56.5133 50.7496 55.9873 50.7496H42.0021V44.44H63.0967V50.7496H60.4307C59.9047 50.7496 59.4785 51.1759 59.4785 51.7017C59.4785 52.2276 59.9047 52.6539 60.4307 52.6539H63.4141C64.2892 52.6539 65.001 51.9421 65.001 51.067V44.1226C65.001 43.2475 64.2892 42.5357 63.4141 42.5357H53.5016V40.6265H63.4141ZM63.0967 56.4676V62.7771H42.0021V56.4676H63.0967ZM42.0021 38.7222V32.4126H63.0967V38.7222H42.0021Z" fill="white"/>
<path d="M59.529 34.6152H45.5654C45.0395 34.6152 44.6133 35.0415 44.6133 35.5674C44.6133 36.0932 45.0395 36.5195 45.5654 36.5195H59.529C60.055 36.5195 60.4812 36.0932 60.4812 35.5674C60.4812 35.0415 60.055 34.6152 59.529 34.6152Z" fill="#E63114"/>
<path d="M60.4812 47.5947C60.4812 47.0689 60.055 46.6426 59.529 46.6426H45.5654C45.0395 46.6426 44.6133 47.0689 44.6133 47.5947C44.6133 48.1206 45.0395 48.5469 45.5654 48.5469H59.529C60.055 48.5469 60.4812 48.1206 60.4812 47.5947Z" fill="#E63114"/>
<path d="M45.5654 60.5742H59.529C60.055 60.5742 60.4812 60.1479 60.4812 59.6221C60.4812 59.0962 60.055 58.6699 59.529 58.6699H45.5654C45.0395 58.6699 44.6133 59.0962 44.6133 59.6221C44.6133 60.1479 45.0395 60.5742 45.5654 60.5742Z" fill="#E63114"/>
</svg>
