<svg width="12" height="8" viewBox="0 0 12 8" fill="none" xmlns="http://www.w3.org/2000/svg">
<path d="M3.72702e-05 1.54945C-0.00208942 1.24285 0.0887318 0.942608 0.260852 0.687234C0.432972 0.431861 0.678543 0.232997 0.966075 0.116145C1.25361 -0.000707754 1.56999 -0.0302211 1.87465 0.0313896C2.17931 0.0930003 2.45836 0.242926 2.67601 0.46194L6.018 3.7743L9.37486 0.46194C9.67077 0.190104 10.0622 0.0421128 10.4666 0.0491476C10.871 0.0561819 11.2568 0.217691 11.5428 0.49965C11.8288 0.781609 11.9926 1.162 11.9998 1.56069C12.0069 1.95938 11.8568 2.34523 11.581 2.63696L6.2291 7.91329C6.20146 7.94077 6.16858 7.96257 6.13235 7.97746C6.09611 7.99234 6.05725 8 6.018 8C5.97875 8 5.93989 7.99234 5.90365 7.97746C5.86742 7.96257 5.83454 7.94077 5.8069 7.91329L0.454952 2.63696C0.163493 2.34797 -6.28704e-05 1.95698 3.72702e-05 1.54945Z" fill="#E63114"/>
</svg>
