<svg width="65" height="65" viewBox="0 0 65 65" fill="none" xmlns="http://www.w3.org/2000/svg">
<g clip-path="url(#clip0_734_32205)">
<path d="M39.1652 20.8534C38.6024 20.8534 38.1495 20.4007 38.1495 19.8377V15.5211H32.6563C32.0935 15.5211 31.6406 15.0683 31.6406 14.5053C31.6406 13.9424 32.0934 13.4896 32.6563 13.4896H39.1652C39.7281 13.4896 40.181 13.9424 40.181 14.5053V19.8377C40.1808 20.3964 39.7281 20.8534 39.1652 20.8534Z" fill="white"/>
<path d="M39.1707 58.8908H5.18759C4.62477 58.8908 4.17188 58.438 4.17188 57.8751V14.5012C4.17188 13.9384 4.62464 13.4855 5.18759 13.4855H11.6965C12.2593 13.4855 12.7122 13.9382 12.7122 14.5012C12.7122 15.0641 12.2594 15.5169 11.6965 15.5169H6.20318V56.8552H38.155V53.0042C38.155 52.4413 38.6077 51.9884 39.1707 51.9884C39.7336 51.9884 40.1864 52.4412 40.1864 53.0042V57.871C40.1863 58.4338 39.7335 58.8908 39.1707 58.8908Z" fill="white"/>
<path d="M32.6608 17.3959H11.6954C11.1326 17.3959 10.6797 16.9432 10.6797 16.3802V8.80487C10.6797 7.2221 11.9662 5.93555 13.549 5.93555H16.596C17.1589 5.93555 17.6118 6.38832 17.6118 6.95126C17.6118 7.51421 17.159 7.96698 16.596 7.96698H13.549C13.0877 7.96698 12.7111 8.34365 12.7111 8.80487V15.3645H31.6451V8.80487C31.6451 8.34352 31.2685 7.96698 30.8072 7.96698H27.7602C27.1974 7.96698 26.7445 7.51421 26.7445 6.95126C26.7445 6.38832 27.1973 5.93555 27.7602 5.93555H30.8072C32.39 5.93555 33.6766 7.2221 33.6766 8.80487V16.3802C33.6766 16.943 33.2237 17.3959 32.6608 17.3959Z" fill="white"/>
<path d="M43.34 63.0593H1.01572C0.452896 63.0593 0 62.6066 0 62.0436V10.3326C0 9.76979 0.452768 9.31689 1.01572 9.31689H11.693C12.2559 9.31689 12.7088 9.76966 12.7088 10.3326C12.7088 10.8954 12.256 11.3483 11.693 11.3483H2.03131V61.028H42.3243V53.2072C42.3243 52.6444 42.7771 52.1915 43.34 52.1915C43.903 52.1915 44.3558 52.6442 44.3558 53.2072V62.0436C44.3558 62.6022 43.8988 63.0593 43.34 63.0593Z" fill="white"/>
<path d="M43.3379 20.6545C42.7751 20.6545 42.3222 20.2018 42.3222 19.6388V11.3483H32.6563C32.0935 11.3483 31.6406 10.8956 31.6406 10.3326C31.6406 9.76979 32.0934 9.31689 32.6563 9.31689H43.3337C43.8965 9.31689 44.3494 9.76966 44.3494 10.3326V19.6388C44.3536 20.1974 43.8966 20.6545 43.3379 20.6545Z" fill="white"/>
<path d="M27.7579 10.1803H16.5938C16.031 10.1803 15.5781 9.72755 15.5781 9.1646V2.95627C15.5781 2.39345 16.0309 1.94055 16.5938 1.94055H27.7579C28.3207 1.94055 28.7736 2.39332 28.7736 2.95627V9.1646C28.7735 9.72742 28.3207 10.1803 27.7579 10.1803ZM17.6094 8.14888H26.7422V3.97199H17.6094V8.14888Z" fill="white"/>
<path d="M29.5817 26.1307H18.9298C18.367 26.1307 17.9141 25.6779 17.9141 25.115C17.9141 24.5521 18.3668 24.0992 18.9298 24.0992H29.5817C30.1446 24.0992 30.5975 24.552 30.5975 25.115C30.5973 25.6779 30.1403 26.1307 29.5817 26.1307Z" fill="white"/>
<path d="M12.0492 26.8967C11.7783 26.8967 11.5202 26.7908 11.3298 26.6005L10.0093 25.2801C9.61149 24.8823 9.61149 24.239 10.0093 23.8454C10.4071 23.4518 11.0504 23.4476 11.444 23.8454L12.045 24.4464L14.3853 22.1061C14.7831 21.7083 15.4264 21.7083 15.8199 22.1061C16.2177 22.5039 16.2177 23.1472 15.8199 23.5408L12.7602 26.6005C12.5782 26.7866 12.32 26.8967 12.0492 26.8967Z" fill="#E63114"/>
<path d="M25.5063 34.3323H18.9298C18.367 34.3323 17.9141 33.8796 17.9141 33.3166C17.9141 32.7537 18.3668 32.3009 18.9298 32.3009H25.5063C26.0691 32.3009 26.522 32.7537 26.522 33.3166C26.522 33.8796 26.065 34.3323 25.5063 34.3323Z" fill="white"/>
<path d="M12.0491 35.0942C11.7782 35.0942 11.5201 34.9884 11.3297 34.798L10.0093 33.4776C9.61149 33.0798 9.61149 32.4365 10.0093 32.0429C10.4071 31.6451 11.0504 31.6451 11.444 32.0429L12.045 32.6439L14.3853 30.3036C14.7831 29.9058 15.4264 29.9058 15.8199 30.3036C16.2177 30.7014 16.2177 31.3447 15.8199 31.7383L12.7602 34.798C12.5781 34.9884 12.3199 35.0942 12.0491 35.0942Z" fill="white"/>
<path d="M26.0015 42.5297H18.9298C18.367 42.5297 17.9141 42.077 17.9141 41.514C17.9141 40.9511 18.3668 40.4983 18.9298 40.4983H26.0015C26.5643 40.4983 27.0172 40.9511 27.0172 41.514C27.0172 42.077 26.5644 42.5297 26.0015 42.5297Z" fill="white"/>
<path d="M12.0492 43.2957C11.7783 43.2957 11.5202 43.1899 11.3298 42.9995L10.0093 41.6791C9.61149 41.2813 9.61149 40.638 10.0093 40.2445C10.4071 39.8467 11.0504 39.8467 11.444 40.2445L12.045 40.8455L14.3853 38.5051C14.7831 38.1073 15.4264 38.1073 15.8199 38.5051C16.2177 38.9029 16.2177 39.5462 15.8199 39.9398L12.7602 42.9995C12.5782 43.1899 12.32 43.2957 12.0492 43.2957Z" fill="#E63114"/>
<path d="M31.7232 50.7315H18.9298C18.367 50.7315 17.9141 50.2787 17.9141 49.7158C17.9141 49.1528 18.3668 48.7001 18.9298 48.7001H31.7232C32.2861 48.7001 32.7389 49.1528 32.7389 49.7158C32.7389 50.2787 32.2861 50.7315 31.7232 50.7315Z" fill="white"/>
<path d="M12.0491 51.4975C11.7782 51.4975 11.5201 51.3917 11.3297 51.2013L10.0093 49.8809C9.61149 49.4831 9.61149 48.8398 10.0093 48.4463C10.4071 48.0484 11.0504 48.0484 11.444 48.4463L12.045 49.0472L14.3853 46.7069C14.7831 46.3091 15.4264 46.3091 15.8199 46.7069C16.2177 47.1047 16.2177 47.748 15.8199 48.1416L12.7602 51.2013C12.5781 51.3874 12.3199 51.4975 12.0491 51.4975Z" fill="white"/>
<path d="M42.0538 54.2694C39.6458 54.2694 37.3055 53.7954 35.1048 52.8643C32.9803 51.9671 31.0716 50.6806 29.4339 49.0386C27.7962 47.4009 26.5096 45.4922 25.6082 43.3677C24.6772 41.1671 24.2031 38.831 24.2031 36.4188C24.2031 34.0066 24.6772 31.6705 25.6082 29.4698C26.5054 27.3453 27.792 25.4366 29.4339 23.7989C31.0759 22.1612 32.9803 20.8746 35.1048 19.9732C37.3055 19.0422 39.6416 18.5681 42.0538 18.5681C44.466 18.5681 46.8021 19.0422 49.0027 19.9732C51.1272 20.8704 53.0359 22.1569 54.6736 23.7989C56.3113 25.4366 57.5979 27.3453 58.4993 29.4698C59.4304 31.6705 59.9044 34.0066 59.9044 36.4188C59.9044 38.831 59.4304 41.1671 58.4993 43.3677C57.6021 45.4922 56.3156 47.4009 54.6736 49.0386C53.0359 50.6763 51.1272 51.9629 49.0027 52.8643C46.8021 53.7996 44.4617 54.2694 42.0538 54.2694ZM42.0538 20.6036C33.3316 20.6036 26.2387 27.7007 26.2387 36.423C26.2387 45.1452 33.3357 52.2381 42.0538 52.2381C50.7718 52.2381 57.8689 45.141 57.8689 36.423C57.8689 27.705 50.7759 20.6036 42.0538 20.6036Z" fill="white"/>
<path d="M42.0518 48.6155C38.7931 48.6155 35.7334 47.3458 33.4312 45.0437C31.1289 42.7414 29.8594 39.6775 29.8594 36.423C29.8594 33.1686 31.129 30.1047 33.4312 27.8024C35.7334 25.5001 38.7974 24.2306 42.0518 24.2306C45.3063 24.2306 48.3702 25.5002 50.6725 27.8024C52.9748 30.1047 54.2443 33.1686 54.2443 36.423C54.2443 39.6775 52.9746 42.7414 50.6725 45.0437C48.3702 47.3458 45.3104 48.6155 42.0518 48.6155ZM42.0518 26.2619C39.3391 26.2619 36.7872 27.3199 34.8658 29.237C32.9487 31.1542 31.8907 33.706 31.8907 36.423C31.8907 39.14 32.9487 41.6877 34.8658 43.609C36.783 45.5262 39.3348 46.5842 42.0518 46.5842C44.7688 46.5842 47.3164 45.5262 49.2378 43.609C51.1592 41.6919 52.213 39.14 52.213 36.423C52.213 33.706 51.155 31.1584 49.2378 29.237C47.3164 27.32 44.7687 26.2619 42.0518 26.2619Z" fill="#E63114"/>
<path d="M42.0499 42.9573C41.178 42.9573 40.3359 42.7923 39.5445 42.4664C38.7574 42.1406 38.0422 41.6623 37.4286 41.0444C36.8106 40.4265 36.3325 39.7155 36.0066 38.9284C35.6808 38.1412 35.5156 37.2991 35.5156 36.4231C35.5156 35.547 35.6806 34.7091 36.0066 33.9177C36.3324 33.1306 36.8106 32.4154 37.4286 31.8017C38.0465 31.1838 38.7574 30.7057 39.5445 30.3797C40.3317 30.0539 41.1738 29.8888 42.0499 29.8888C42.926 29.8888 43.7638 30.0538 44.5552 30.3797C45.3424 30.7055 46.0575 31.1838 46.6712 31.8017C47.2891 32.4196 47.7673 33.1306 48.0932 33.9177C48.419 34.7049 48.5841 35.547 48.5841 36.4231C48.5841 37.2991 48.4191 38.137 48.0932 38.9284C47.7674 39.7155 47.2891 40.4307 46.6712 41.0444C46.0533 41.6623 45.3424 42.1404 44.5552 42.4664C43.7681 42.7922 42.9258 42.9573 42.0499 42.9573ZM42.0499 31.916C41.4447 31.916 40.8649 32.0303 40.3232 32.2546C39.7816 32.4789 39.2906 32.809 38.8632 33.2364C38.4358 33.6638 38.1057 34.1547 37.8814 34.6964C37.6571 35.2381 37.5428 35.818 37.5428 36.4231C37.5428 37.0282 37.6571 37.608 37.8814 38.1497C38.1058 38.6914 38.4358 39.1823 38.8632 39.6097C39.2906 40.0371 39.7816 40.3673 40.3232 40.5915C40.8649 40.8157 41.4448 40.9301 42.0499 40.9301C42.6551 40.9301 43.2348 40.8158 43.7765 40.5915C44.3182 40.3672 44.8092 40.0371 45.2366 39.6097C45.664 39.1823 45.9941 38.6914 46.2183 38.1497C46.4427 37.608 46.5569 37.0282 46.5569 36.4231C46.5569 35.818 46.4427 35.2381 46.2183 34.6964C45.994 34.1547 45.664 33.6638 45.2366 33.2364C44.8092 32.809 44.3182 32.4788 43.7765 32.2546C43.2348 32.0304 42.655 31.916 42.0499 31.916Z" fill="white"/>
<path d="M42.0569 37.4387C41.7988 37.4387 41.5364 37.3413 41.3374 37.1425C40.9396 36.7447 40.9396 36.1014 41.3374 35.7078L57.1948 19.8462C57.5926 19.4484 58.2359 19.4484 58.6295 19.8462C59.0273 20.244 59.0273 20.8873 58.6295 21.2809L42.7721 37.1381C42.5775 37.3371 42.3193 37.4387 42.0569 37.4387Z" fill="white"/>
<path d="M57.9159 21.5813C57.6492 21.5813 57.3869 21.4755 57.1963 21.2851C56.9932 21.0819 56.8832 20.7984 56.9001 20.5064L57.0778 17.4848C57.0905 17.2351 57.1963 17.0023 57.374 16.8246L60.4295 13.7691C60.7257 13.4729 61.1786 13.3882 61.5638 13.5617C61.9489 13.7352 62.1859 14.1287 62.1605 14.5478L62.0505 16.4268L63.9294 16.3167C64.3526 16.2914 64.742 16.5284 64.9156 16.9135C65.089 17.2986 65.0045 17.7514 64.7081 18.0477L61.6527 21.1032C61.475 21.2809 61.2422 21.3825 60.9925 21.3994L57.9708 21.5771C57.9583 21.5813 57.9371 21.5813 57.9159 21.5813ZM59.0839 17.9883L58.995 19.4821L60.4888 19.3932L61.3818 18.5002L61.0263 18.5214C60.7343 18.5383 60.455 18.4325 60.2476 18.2252C60.0444 18.022 59.9345 17.7385 59.9514 17.4465L59.9725 17.091L59.0839 17.9883Z" fill="white"/>
</g>
<defs>
<clipPath id="clip0_734_32205">
<rect width="65" height="65" fill="white"/>
</clipPath>
</defs>
</svg>
