<svg width="65" height="65" viewBox="0 0 65 65" fill="none" xmlns="http://www.w3.org/2000/svg">
<path d="M62.1055 45.6016C61.5664 44.67 60.6803 43.9899 59.6411 43.7101C58.6018 43.4303 57.494 43.5736 56.5602 44.1086L46.6578 49.8266C46.1171 49.0163 45.302 48.4285 44.3625 48.1711L29.2094 44.1187C28.0432 43.8041 26.8159 43.7936 25.6445 44.0883L20.3125 45.4188V43.6719C20.3125 43.4025 20.2055 43.1442 20.015 42.9537C19.8246 42.7633 19.5662 42.6562 19.2969 42.6562H11.1719C10.9025 42.6562 10.6442 42.7633 10.4537 42.9537C10.2633 43.1442 10.1562 43.4025 10.1562 43.6719V44.6875H3.04688C2.77751 44.6875 2.51919 44.7945 2.32872 44.985C2.13825 45.1754 2.03125 45.4338 2.03125 45.7031V59.9219C2.03125 60.1912 2.13825 60.4496 2.32872 60.64C2.51919 60.8305 2.77751 60.9375 3.04688 60.9375H10.1562V61.9531C10.1562 62.2225 10.2633 62.4808 10.4537 62.6713C10.6442 62.8617 10.9025 62.9688 11.1719 62.9688H19.2969C19.5662 62.9688 19.8246 62.8617 20.015 62.6713C20.2055 62.4808 20.3125 62.2225 20.3125 61.9531V60.5516L21.6227 61.2016C22.6104 61.6932 23.6982 61.9504 24.8016 61.9531H40.0055C41.2541 61.9558 42.4809 61.6263 43.5602 60.9984L60.6227 51.1469C61.5521 50.6058 62.2296 49.7189 62.5075 48.68C62.7853 47.641 62.6408 46.5343 62.1055 45.6016ZM10.1562 58.9062H4.0625V46.7188H10.1562V58.9062ZM18.2812 60.9375H12.1875V44.6875H18.2812V60.9375ZM59.607 49.3898L42.5445 59.2414C41.7729 59.688 40.897 59.9227 40.0055 59.9219H24.8016C24.0115 59.9235 23.2321 59.7391 22.5266 59.3836L20.3125 58.2766V47.5109L26.132 46.0586C26.9695 45.8469 27.8473 45.8539 28.6812 46.0789L43.8344 50.1414C44.2242 50.2426 44.575 50.458 44.8416 50.7598C45.1083 51.0617 45.2787 51.4363 45.3311 51.8357C45.3835 52.235 45.3154 52.6409 45.1356 53.0013C44.9558 53.3618 44.6724 53.6603 44.3219 53.8586C44.093 53.9936 43.8392 54.0812 43.5757 54.1161C43.3123 54.151 43.0445 54.1325 42.7883 54.0617L30.6719 50.8117C30.4106 50.7417 30.1322 50.7783 29.8979 50.9135C29.6636 51.0488 29.4927 51.2715 29.4227 51.5328C29.3526 51.7941 29.3892 52.0725 29.5245 52.3068C29.6597 52.541 29.8825 52.712 30.1438 52.782L42.2602 56.0219C42.6046 56.1146 42.9597 56.1624 43.3164 56.1641C44.027 56.1651 44.7249 55.9757 45.3375 55.6156C45.8017 55.3505 46.2086 54.9958 46.5347 54.5721C46.8607 54.1485 47.0993 53.6643 47.2367 53.1477C47.3494 52.6999 47.3871 52.2366 47.3484 51.7766L57.5758 45.8758C58.0424 45.6167 58.5915 45.5493 59.107 45.6876C59.6225 45.826 60.064 46.1593 60.3383 46.6172C60.608 47.0821 60.6825 47.6349 60.5454 48.1546C60.4084 48.6743 60.0709 49.1185 59.607 49.3898Z" fill="white"/>
<path d="M15.2344 59.9219C15.5037 59.9219 15.7621 59.8149 15.9525 59.6244C16.143 59.4339 16.25 59.1756 16.25 58.9062V57.8906C16.25 57.6213 16.143 57.3629 15.9525 57.1725C15.7621 56.982 15.5037 56.875 15.2344 56.875C14.965 56.875 14.7067 56.982 14.5162 57.1725C14.3258 57.3629 14.2188 57.6213 14.2188 57.8906V58.9062C14.2188 59.1756 14.3258 59.4339 14.5162 59.6244C14.7067 59.8149 14.965 59.9219 15.2344 59.9219Z" fill="white"/>
<path d="M46.7188 17.2656H42.9102L42.7273 16.8391L45.4289 14.1477C45.6192 13.9559 45.726 13.6967 45.726 13.4266C45.726 13.1564 45.6192 12.8972 45.4289 12.7055L41.1227 8.39922C40.9309 8.20894 40.6717 8.10217 40.4016 8.10217C40.1314 8.10217 39.8722 8.20894 39.6805 8.39922L36.9891 11.1008L36.5625 10.918V7.10938C36.5625 6.84001 36.4555 6.58169 36.265 6.39122C36.0746 6.20075 35.8162 6.09375 35.5469 6.09375H29.4531C29.1838 6.09375 28.9254 6.20075 28.735 6.39122C28.5445 6.58169 28.4375 6.84001 28.4375 7.10938V10.918L28.0109 11.1008L25.3195 8.39922C25.1278 8.20894 24.8686 8.10217 24.5984 8.10217C24.3283 8.10217 24.0691 8.20894 23.8773 8.39922L19.5711 12.7055C19.3808 12.8972 19.274 13.1564 19.274 13.4266C19.274 13.6967 19.3808 13.9559 19.5711 14.1477L22.2727 16.8391L22.0898 17.2656H18.2812C18.0119 17.2656 17.7536 17.3726 17.5631 17.5631C17.3726 17.7536 17.2656 18.0119 17.2656 18.2812V24.375C17.2656 24.6444 17.3726 24.9027 17.5631 25.0932C17.7536 25.2836 18.0119 25.3906 18.2812 25.3906H22.0898L22.2727 25.8172L19.5711 28.5086C19.384 28.7023 19.2786 28.9604 19.2766 29.2297C19.2805 29.4986 19.3857 29.756 19.5711 29.9508L23.8773 34.257C24.071 34.4441 24.3292 34.5496 24.5984 34.5516C24.8673 34.5476 25.1248 34.4424 25.3195 34.257L28.0109 31.5555L28.4375 31.7383V35.5469C28.4375 35.8162 28.5445 36.0746 28.735 36.265C28.9254 36.4555 29.1838 36.5625 29.4531 36.5625H35.5469C35.8162 36.5625 36.0746 36.4555 36.265 36.265C36.4555 36.0746 36.5625 35.8162 36.5625 35.5469V31.7383L36.9891 31.5555L39.6805 34.257C39.8769 34.4383 40.1343 34.5389 40.4016 34.5389C40.6688 34.5389 40.9263 34.4383 41.1227 34.257L45.4289 29.9508C45.6143 29.756 45.7195 29.4986 45.7234 29.2297C45.7214 28.9604 45.616 28.7023 45.4289 28.5086L42.7273 25.8172L42.9102 25.3906H46.7188C46.9881 25.3906 47.2464 25.2836 47.4369 25.0932C47.6274 24.9027 47.7344 24.6444 47.7344 24.375V18.2812C47.7344 18.0119 47.6274 17.7536 47.4369 17.5631C47.2464 17.3726 46.9881 17.2656 46.7188 17.2656ZM45.7031 23.3594H42.1891C41.9749 23.3595 41.7663 23.4274 41.593 23.5533C41.4197 23.6791 41.2906 23.8565 41.2242 24.0602C41.0672 24.5704 40.8596 25.0637 40.6047 25.5328C40.5011 25.7264 40.462 25.948 40.4931 26.1654C40.5242 26.3827 40.6237 26.5845 40.7773 26.7414L43.2758 29.2297L40.4016 32.1039L37.9133 29.6055C37.7564 29.4518 37.5546 29.3523 37.3373 29.3212C37.1199 29.2902 36.8983 29.3293 36.7047 29.4328C36.2356 29.6878 35.7423 29.8953 35.232 30.0523C35.0284 30.1187 34.851 30.2478 34.7251 30.4211C34.5993 30.5944 34.5314 30.803 34.5312 31.0172V34.5312H30.4688V31.0172C30.4686 30.803 30.4007 30.5944 30.2749 30.4211C30.149 30.2478 29.9716 30.1187 29.768 30.0523C29.2577 29.8953 28.7644 29.6878 28.2953 29.4328C28.1017 29.3293 27.8801 29.2902 27.6627 29.3212C27.4454 29.3523 27.2436 29.4518 27.0867 29.6055L24.5984 32.1039L21.7242 29.2297L24.2227 26.7414C24.3763 26.5845 24.4758 26.3827 24.5069 26.1654C24.538 25.948 24.4989 25.7264 24.3953 25.5328C24.1404 25.0637 23.9328 24.5704 23.7758 24.0602C23.7094 23.8565 23.5803 23.6791 23.407 23.5533C23.2337 23.4274 23.0251 23.3595 22.8109 23.3594H19.2969V19.2969H22.8109C23.0251 19.2967 23.2337 19.2289 23.407 19.103C23.5803 18.9771 23.7094 18.7997 23.7758 18.5961C23.9328 18.0858 24.1404 17.5925 24.3953 17.1234C24.4989 16.9298 24.538 16.7082 24.5069 16.4909C24.4758 16.2735 24.3763 16.0717 24.2227 15.9148L21.7242 13.4266L24.5984 10.5523L27.0867 13.0508C27.2436 13.2044 27.4454 13.304 27.6627 13.335C27.8801 13.3661 28.1017 13.327 28.2953 13.2234C28.7644 12.9685 29.2577 12.7609 29.768 12.6039C29.9716 12.5375 30.149 12.4084 30.2749 12.2352C30.4007 12.0619 30.4686 11.8532 30.4688 11.6391V8.125H34.5312V11.6391C34.5314 11.8532 34.5993 12.0619 34.7251 12.2352C34.851 12.4084 35.0284 12.5375 35.232 12.6039C35.7423 12.7609 36.2356 12.9685 36.7047 13.2234C36.8983 13.327 37.1199 13.3661 37.3373 13.335C37.5546 13.304 37.7564 13.2044 37.9133 13.0508L40.4016 10.5523L43.2758 13.4266L40.7773 15.9148C40.6237 16.0717 40.5242 16.2735 40.4931 16.4909C40.462 16.7082 40.5011 16.9298 40.6047 17.1234C40.8596 17.5925 41.0672 18.0858 41.2242 18.5961C41.2906 18.7997 41.4197 18.9771 41.593 19.103C41.7663 19.2289 41.9749 19.2967 42.1891 19.2969H45.7031V23.3594Z" fill="#E63114"/>
<path d="M38.5938 21.3281C38.5938 20.1229 38.2364 18.9447 37.5668 17.9426C36.8972 16.9405 35.9455 16.1595 34.832 15.6982C33.7185 15.237 32.4932 15.1163 31.3112 15.3515C30.1291 15.5866 29.0433 16.167 28.1911 17.0192C27.3388 17.8714 26.7585 18.9572 26.5233 20.1393C26.2882 21.3214 26.4089 22.5466 26.8701 23.6601C27.3313 24.7736 28.1124 25.7253 29.1145 26.3949C30.1166 27.0645 31.2948 27.4219 32.5 27.4219C34.1157 27.4203 35.6647 26.7777 36.8072 25.6353C37.9496 24.4928 38.5921 22.9438 38.5938 21.3281ZM28.4375 21.3281C28.4375 20.5246 28.6758 19.7392 29.1222 19.0711C29.5686 18.403 30.203 17.8823 30.9454 17.5749C31.6877 17.2674 32.5045 17.1869 33.2926 17.3437C34.0806 17.5004 34.8045 17.8874 35.3726 18.4555C35.9408 19.0237 36.3277 19.7475 36.4844 20.5356C36.6412 21.3236 36.5607 22.1405 36.2533 22.8828C35.9458 23.6251 35.4251 24.2596 34.757 24.706C34.0889 25.1524 33.3035 25.3906 32.5 25.3906C31.4226 25.3906 30.3892 24.9626 29.6274 24.2007C28.8655 23.4389 28.4375 22.4056 28.4375 21.3281Z" fill="white"/>
<path d="M55.8594 23.3594H53.8281C53.8281 17.7028 51.5811 12.2779 47.5813 8.27811C43.5815 4.27831 38.1566 2.03125 32.5 2.03125C26.8434 2.03125 21.4185 4.27831 17.4187 8.27811C13.4189 12.2779 11.1719 17.7028 11.1719 23.3594H9.14062C7.52446 23.3594 5.97449 24.0014 4.83169 25.1442C3.68889 26.287 3.04688 27.837 3.04688 29.4531C3.04688 31.0693 3.68889 32.6193 4.83169 33.7621C5.97449 34.9049 7.52446 35.5469 9.14062 35.5469H14.2188C14.4881 35.5469 14.7464 35.4399 14.9369 35.2494C15.1274 35.0589 15.2344 34.8006 15.2344 34.5312V24.375C15.2344 24.1056 15.1274 23.8473 14.9369 23.6568C14.7464 23.4664 14.4881 23.3594 14.2188 23.3594H13.2031C13.2031 18.2415 15.2362 13.3333 18.855 9.71442C22.4739 6.09556 27.3822 4.0625 32.5 4.0625C37.6179 4.0625 42.5261 6.09556 46.145 9.71442C49.7638 13.3333 51.7969 18.2415 51.7969 23.3594H50.7812C50.5119 23.3594 50.2536 23.4664 50.0631 23.6568C49.8726 23.8473 49.7656 24.1056 49.7656 24.375V34.5312C49.7656 34.8006 49.8726 35.0589 50.0631 35.2494C50.2536 35.4399 50.5119 35.5469 50.7812 35.5469H51.7969V38.5938C51.7969 38.8631 51.6899 39.1214 51.4994 39.3119C51.3089 39.5024 51.0506 39.6094 50.7812 39.6094H43.4891C43.2783 39.0175 42.8902 38.505 42.3777 38.1415C41.8653 37.7781 41.2533 37.5814 40.625 37.5781H38.5938C37.7857 37.5781 37.0107 37.8991 36.4393 38.4705C35.8679 39.0419 35.5469 39.8169 35.5469 40.625C35.5469 41.4331 35.8679 42.2081 36.4393 42.7795C37.0107 43.3509 37.7857 43.6719 38.5938 43.6719H40.625C41.2533 43.6686 41.8653 43.4719 42.3777 43.1085C42.8902 42.745 43.2783 42.2325 43.4891 41.6406H50.7812C51.5886 41.6382 52.3622 41.3164 52.9331 40.7456C53.5039 40.1747 53.8257 39.4011 53.8281 38.5938V35.5469H55.8594C57.4755 35.5469 59.0255 34.9049 60.1683 33.7621C61.3111 32.6193 61.9531 31.0693 61.9531 29.4531C61.9531 27.837 61.3111 26.287 60.1683 25.1442C59.0255 24.0014 57.4755 23.3594 55.8594 23.3594ZM9.14062 33.5156C8.06318 33.5156 7.02987 33.0876 6.268 32.3257C5.50614 31.5639 5.07812 30.5306 5.07812 29.4531C5.07812 28.3757 5.50614 27.3424 6.268 26.5805C7.02987 25.8186 8.06318 25.3906 9.14062 25.3906V33.5156ZM13.2031 33.5156H11.1719V25.3906H13.2031V33.5156ZM40.625 41.6406H38.5938C38.3244 41.6406 38.0661 41.5336 37.8756 41.3432C37.6851 41.1527 37.5781 40.8944 37.5781 40.625C37.5781 40.3556 37.6851 40.0973 37.8756 39.9068C38.0661 39.7164 38.3244 39.6094 38.5938 39.6094H40.625C40.8944 39.6094 41.1527 39.7164 41.3432 39.9068C41.5336 40.0973 41.6406 40.3556 41.6406 40.625C41.6406 40.8944 41.5336 41.1527 41.3432 41.3432C41.1527 41.5336 40.8944 41.6406 40.625 41.6406ZM53.8281 33.5156H51.7969V25.3906H53.8281V33.5156ZM55.8594 33.5156V25.3906C56.9368 25.3906 57.9701 25.8186 58.732 26.5805C59.4939 27.3424 59.9219 28.3757 59.9219 29.4531C59.9219 30.5306 59.4939 31.5639 58.732 32.3257C57.9701 33.0876 56.9368 33.5156 55.8594 33.5156Z" fill="white"/>
</svg>
