<svg width="65" height="65" viewBox="0 0 65 65" fill="none" xmlns="http://www.w3.org/2000/svg">
<g clip-path="url(#clip0_734_32187)">
<path d="M40.0498 26.5649C38.0191 26.5649 36.3672 28.2168 36.3672 30.2471C36.3672 32.2778 38.0191 33.9297 40.0498 33.9297C42.0801 33.9297 43.732 32.2778 43.732 30.2471C43.732 28.2168 42.0801 26.5649 40.0498 26.5649ZM40.0498 32.0239C39.0699 32.0239 38.2725 31.227 38.2725 30.2471C38.2725 29.2677 39.0699 28.4702 40.0498 28.4702C41.0292 28.4702 41.8267 29.2677 41.8267 30.2471C41.8267 31.227 41.0292 32.0239 40.0498 32.0239Z" fill="white"/>
<path d="M28.9577 17.339C28.443 17.4466 28.1127 17.9514 28.2203 18.4662C28.2912 18.8059 28.3274 19.156 28.3274 19.5066C28.3274 22.2936 26.0596 24.5614 23.2726 24.5614C20.4851 24.5614 18.2178 22.2936 18.2178 19.5066C18.2178 16.7196 20.4851 14.4518 23.2726 14.4518C24.4291 14.4518 25.5171 14.8317 26.4192 15.5507C26.8308 15.878 27.4303 15.8106 27.7581 15.399C28.0859 14.9874 28.018 14.3878 27.6064 14.06C26.3815 13.0841 24.8422 12.5465 23.2726 12.5465C19.4348 12.5465 16.3125 15.6688 16.3125 19.5066C16.3125 23.3445 19.4348 26.4667 23.2726 26.4667C27.1105 26.4667 30.2327 23.3445 30.2327 19.5066C30.2327 19.0251 30.1831 18.5441 30.0854 18.0764C29.9778 17.5617 29.473 17.2324 28.9577 17.339Z" fill="#E63114"/>
<path d="M4.81083 62.5239H0.952644C0.426483 62.5239 0 62.9504 0 63.4766C0 64.0027 0.426483 64.4292 0.952644 64.4292H4.81083C5.33699 64.4292 5.76347 64.0027 5.76347 63.4766C5.76347 62.9504 5.33699 62.5239 4.81083 62.5239Z" fill="white"/>
<path d="M14.6311 62.5239H10.7735C10.2473 62.5239 9.82031 62.9504 9.82031 63.4766C9.82031 64.0027 10.2473 64.4292 10.7735 64.4292H14.6311C15.1573 64.4292 15.5838 64.0027 15.5838 63.4766C15.5838 62.9504 15.1573 62.5239 14.6311 62.5239Z" fill="white"/>
<path d="M60.6591 60.9662C60.8401 61.177 61.1039 61.298 61.3821 61.298H63.6985C64.0323 61.298 64.3417 61.1234 64.5143 60.8378C64.6869 60.5521 64.6973 60.1971 64.5421 59.902L60.671 52.5397C60.5713 52.3508 60.545 52.1326 60.5961 51.9253L62.3055 45.0242C62.3055 45.0237 62.306 45.0232 62.306 45.0227L62.307 45.0197C62.308 45.0153 62.3085 45.0108 62.3095 45.0068C62.3144 44.9845 62.3189 44.9627 62.3229 44.9409C62.3239 44.9339 62.3244 44.927 62.3254 44.9201C62.3254 44.9191 62.3258 44.9186 62.3258 44.9176C62.3263 44.9126 62.3273 44.9077 62.3278 44.9027C62.3298 44.8863 62.3313 44.8695 62.3328 44.8526C62.3333 44.8462 62.3333 44.8392 62.3333 44.8328C62.3343 44.8119 62.3353 44.7916 62.3348 44.7713V42.9776C62.3348 42.4514 61.9083 42.0249 61.3821 42.0249C60.856 42.0249 60.4295 42.4514 60.4295 42.9776V43.3708L56.2886 41.6738L56.3729 36.2525L56.916 36.5828C57.3653 36.856 57.9514 36.7127 58.2247 36.2629C58.4979 35.8136 58.3551 35.2275 57.9053 34.9542L55.9321 33.7551C55.9246 33.7507 55.9172 33.7457 55.9093 33.7412L49.6871 29.9604C48.6828 29.3504 48.0585 28.2976 47.9593 27.1699L57.4585 32.3289C57.5101 32.3596 57.5606 32.3909 57.6142 32.4186L57.7754 32.501L59.1282 33.2359C59.9306 33.6718 60.429 34.5099 60.429 35.4234V39.1516C60.429 39.6778 60.856 40.1043 61.3821 40.1043C61.9083 40.1043 62.3348 39.6778 62.3348 39.1516V35.4234C62.3348 34.3834 61.9668 33.3996 61.3266 32.6249C61.7065 32.3616 62.0184 32.0065 62.2351 31.5835L63.2512 29.5989C63.5984 28.9215 63.6608 28.1498 63.4268 27.4253C63.1932 26.7008 62.6913 26.1107 62.0139 25.764L61.2284 25.3613C59.8299 24.6452 58.1096 25.2002 57.393 26.5986L56.3769 28.5833C56.2395 28.8516 56.1483 29.1342 56.1012 29.4233L48.5658 25.3306C48.7131 24.8292 48.5886 24.2679 48.1974 23.8796L46.5172 22.1984C45.9772 21.6579 45.0999 21.6251 44.5217 22.123L43.09 23.3509C43.024 23.3217 42.9571 23.2934 42.8896 23.2661L42.7736 21.3628C42.726 20.5897 42.0818 19.9842 41.3077 19.9842H38.9313C38.3892 19.9842 37.9102 20.2847 37.6558 20.7295V17.8924C37.6558 17.0107 36.9675 16.2678 36.0887 16.2004L34.2166 16.0576C34.0341 15.4798 33.8055 14.917 33.5328 14.3729L34.7964 12.9452C35.39 12.2752 35.3587 11.2542 34.7259 10.6209L32.3029 8.19737C31.6796 7.57451 30.6669 7.53533 29.9984 8.1096L28.5732 9.33202C28.0351 9.05183 27.4747 8.81429 26.8985 8.62286L26.7824 6.72154C26.7284 5.82791 25.9845 5.12769 25.0889 5.12769H21.6622C20.7809 5.12769 20.0376 5.81601 19.9706 6.69526L19.8278 8.56683C19.1905 8.76767 18.5731 9.02356 17.981 9.33202L16.5563 8.1096C15.8868 7.53533 14.8746 7.57401 14.2518 8.19737L11.8288 10.6204C11.1955 11.2537 11.1647 12.2747 11.7578 12.9447L13.0219 14.3725C12.7487 14.916 12.5201 15.4793 12.3381 16.0571L10.4655 16.1999C9.58674 16.2673 8.89842 17.0102 8.89842 17.8919V21.3182C8.89842 22.2138 9.59864 22.9577 10.4918 23.0122L12.3936 23.1278C12.585 23.704 12.8221 24.2639 13.1027 24.8024L11.8803 26.2277C11.3061 26.8967 11.3447 27.9088 11.9681 28.5322L14.3911 30.9552C15.0239 31.5885 16.045 31.6192 16.7155 31.0256L18.1432 29.762C18.6867 30.0348 19.2501 30.2634 19.8278 30.4459L19.9691 32.2976L15.0576 32.8213C14.9887 32.8288 14.9188 32.8129 14.8593 32.7777L10.162 29.7675C10.6321 29.3118 10.9505 28.6953 11.0165 27.9941L11.2262 25.7739C11.2976 25.0162 11.0695 24.2763 10.5845 23.6896C10.099 23.1035 9.41466 22.7409 8.65691 22.6695L7.77816 22.5862C7.0204 22.5143 6.28001 22.7424 5.69384 23.2279C5.10718 23.7134 4.74467 24.3978 4.67326 25.1555L4.46349 27.3752C4.39753 28.0745 4.58945 28.7573 5.00006 29.3197C4.87014 29.4293 4.74467 29.5473 4.62912 29.6782L4.18776 30.1786C3.38042 31.0946 2.93013 32.2714 2.92021 33.4923L2.85773 41.0123L0.398509 60.088C0.3633 60.3597 0.447109 60.6335 0.628116 60.8393C0.808627 61.0446 1.06948 61.1626 1.34322 61.1626H3.80988C4.21603 61.1626 4.57804 60.9047 4.71045 60.5209L10.834 42.7708L16.5295 48.6959C16.8484 49.0192 16.9069 49.5157 16.6718 49.903C16.6465 49.9451 16.6242 49.9893 16.6059 50.0344L12.8146 59.2578H12.3152L13.9919 51.7949C14.1665 51.2791 14.0817 50.7153 13.7603 50.2709C13.736 50.2382 13.7102 50.2065 13.6825 50.1772L11.926 48.3111C11.5654 47.9282 10.9624 47.9099 10.5796 48.2704C10.1962 48.631 10.1779 49.234 10.5384 49.6173L12.1451 51.3237L10.1952 60.0017C10.1317 60.2839 10.2002 60.5799 10.3807 60.8061C10.5617 61.0317 10.8354 61.1631 11.1246 61.1631H13.4529C13.8392 61.1631 14.1873 60.93 14.3341 60.573L18.343 50.8204C18.9818 49.6967 18.7993 48.2843 17.8947 47.3669L11.3988 40.6091L11.4504 36.745L13.3805 37.8181C13.7955 38.0487 14.2637 38.14 14.7343 38.0814L19.5992 37.4829C21.5645 37.2414 23.1107 35.7611 23.496 33.885H25.0894C25.9845 33.885 26.7284 33.1848 26.7829 32.2912L26.8985 30.3899C27.4162 30.2173 27.9216 30.0075 28.4115 29.7616L29.7892 30.981V31.5037C29.7892 32.2778 30.3942 32.9215 31.1678 32.9696L33.0696 33.0856C33.0974 33.1526 33.1256 33.2195 33.1549 33.286L31.9255 34.7187C31.4306 35.2979 31.4648 36.1732 32.0029 36.7112L33.6855 38.3954C34.234 38.9404 35.1167 38.9657 35.695 38.4534L37.1217 37.1908C37.1886 37.2191 37.2561 37.2463 37.324 37.2726L37.4673 39.1501C37.5229 39.9128 38.1661 40.5099 38.9313 40.5099H41.3077C42.0818 40.5099 42.7255 39.9049 42.7736 39.1313L42.8896 37.2295C42.9204 37.2171 42.9511 37.2042 42.9819 37.1913L44.4076 38.4534C44.9858 38.9657 45.8686 38.9404 46.4205 38.3929L48.0997 36.7122C48.6382 36.1737 48.6724 35.2979 48.1765 34.7177L46.9482 33.286C46.9774 33.22 47.0062 33.1531 47.0335 33.0856L48.9363 32.9696C49.3781 32.9423 49.7644 32.7197 50.0149 32.3894L54.485 35.1055L54.3779 41.9937L49.0275 49.4318C48.6085 50.014 48.418 50.7291 48.4914 51.4472L49.4252 60.4435C49.4758 60.929 49.8849 61.298 50.3729 61.298H52.5574C53.0543 61.298 53.4684 60.9156 53.5071 60.4197L54.0724 53.234C54.0789 53.1537 54.0952 53.0758 54.1195 53.0009C54.247 53.3793 54.4463 53.7339 54.7131 54.0438L60.6591 60.9662ZM58.0144 30.1722C57.937 29.9321 57.9579 29.6763 58.0729 29.4516L59.089 27.4675C59.3266 27.0043 59.8964 26.8203 60.3596 27.0574L61.1451 27.4595C61.3697 27.5746 61.5359 27.77 61.6132 28.01C61.6906 28.25 61.6703 28.5059 61.5552 28.7301L60.5391 30.7147C60.424 30.9393 60.2286 31.1055 59.9886 31.1828C59.7481 31.2602 59.4927 31.2399 59.2681 31.1248L58.6675 30.8173L58.3829 30.6626C58.2093 30.5451 58.0799 30.375 58.0144 30.1722ZM37.4014 22.2093L37.324 23.222C37.2189 23.2626 37.1147 23.3058 37.0121 23.3509L36.5117 22.9215C36.8846 22.7925 37.1976 22.5381 37.4014 22.2093ZM6.36084 27.5543L6.57061 25.3346C6.59442 25.0836 6.71443 24.8565 6.90833 24.6958C7.07942 24.5545 7.28968 24.4791 7.50888 24.4791C7.53863 24.4791 7.56888 24.4806 7.59913 24.4836L8.47789 24.5664C8.72882 24.5902 8.95594 24.7102 9.11662 24.9046C9.27729 25.0985 9.35267 25.344 9.32936 25.5949L9.11959 27.8151C9.07496 28.2887 8.68518 28.6477 8.22249 28.6686C7.80791 28.5376 7.37845 28.491 6.95594 28.5213C6.57408 28.371 6.32067 27.9822 6.36084 27.5543ZM3.13098 59.2573H2.42678L4.64946 42.0195L9.09827 41.9595L3.13098 59.2573ZM19.3666 35.592L14.5012 36.1905C14.4338 36.199 14.3663 36.1861 14.3063 36.1528L10.9971 34.313C10.9867 34.3071 10.9763 34.3011 10.9659 34.2957L8.71989 33.047C8.25968 32.7906 7.67997 32.9567 7.42408 33.4164C7.16868 33.8761 7.33432 34.4563 7.79402 34.7122L9.55897 35.6936L9.50095 40.0477L4.77095 40.1117L4.826 33.5082C4.83195 32.7454 5.11313 32.0105 5.61747 31.4387L6.05883 30.9383C6.28001 30.6869 6.56516 30.5248 6.86915 30.4563C6.9237 30.4648 6.97776 30.4747 7.0333 30.4801L7.83072 30.5555C7.89767 30.5858 7.96363 30.6215 8.0276 30.6626L13.8402 34.3874C13.8446 34.3904 13.8486 34.3929 13.8531 34.3958C14.2711 34.6537 14.7705 34.7673 15.26 34.7157L21.4509 34.0561C21.0815 34.8734 20.3059 35.4764 19.3666 35.592ZM28.0664 27.7834C27.3344 28.2079 26.5528 28.5322 25.743 28.7479C25.3463 28.8535 25.0616 29.2012 25.0368 29.6108L24.893 31.9798H21.8561L21.677 29.6376C21.6458 29.228 21.3557 28.8848 20.9575 28.7856C20.0946 28.5704 19.2639 28.2332 18.4878 27.7834C18.1328 27.5771 17.686 27.6217 17.3785 27.894L15.5997 29.469L13.4524 27.3217L14.9822 25.5384C15.25 25.2269 15.2872 24.7786 15.076 24.427C14.6158 23.6618 14.2657 22.8357 14.0361 21.9723C13.9304 21.5756 13.5828 21.2909 13.1732 21.2661L10.8042 21.1218V18.0853L13.1464 17.9063C13.556 17.8751 13.8992 17.585 13.9984 17.1867C14.2131 16.3244 14.5503 15.4932 15.0006 14.7171C15.2064 14.362 15.1623 13.9152 14.89 13.6078L13.315 11.8289L15.4623 9.68163L17.2456 11.2115C17.557 11.4793 18.0048 11.517 18.3569 11.3052C19.1662 10.8188 20.041 10.4562 20.9575 10.2276C21.3562 10.1284 21.6458 9.78528 21.677 9.37566L21.8561 7.03347H24.893L25.0368 9.40244C25.0616 9.81206 25.3463 10.1597 25.743 10.2653C26.6069 10.4954 27.4326 10.845 28.1983 11.3052C28.5499 11.517 28.9977 11.4793 29.3096 11.212L31.0924 9.68213L33.2397 11.8289L31.6652 13.6078C31.3929 13.9152 31.3483 14.362 31.5541 14.7171C32.0044 15.4937 32.3416 16.3244 32.5563 17.1867C32.6555 17.5855 32.9992 17.8756 33.4083 17.9068L35.751 18.0853V21.1218L33.382 21.2661C32.9719 21.2909 32.6248 21.5756 32.5191 21.9723C32.289 22.8362 31.9394 23.6618 31.4792 24.427C31.2675 24.7791 31.3051 25.2269 31.5724 25.5384L33.1023 27.3217L30.955 29.469L29.1762 27.894C28.8687 27.6217 28.4214 27.5771 28.0664 27.7834ZM46.2901 31.222C45.8938 31.2463 45.5537 31.5141 45.4371 31.8935C45.3231 32.2664 45.1693 32.6274 44.9819 32.9666C44.7885 33.3152 44.8326 33.7467 45.092 34.0492L46.4661 35.6505L45.3632 36.7544L43.7733 35.347C43.4748 35.0827 43.0434 35.0321 42.6922 35.2205C42.3788 35.3877 42.0441 35.527 41.6975 35.6331C41.3181 35.7497 41.0503 36.0894 41.026 36.4861L40.8966 38.6046H39.3369L39.1757 36.4985C39.1455 36.1018 38.8713 35.7655 38.4889 35.6554C38.111 35.5468 37.748 35.4006 37.4103 35.22C37.0592 35.0326 36.6278 35.0832 36.3297 35.347L34.7393 36.7544L33.6364 35.6505L35.0111 34.0492C35.2705 33.7467 35.3141 33.3152 35.1212 32.9666C34.9332 32.6274 34.78 32.2664 34.6659 31.894C34.5494 31.5141 34.2092 31.2463 33.813 31.222L31.9816 31.1104C32.0446 31.0628 32.106 31.0122 32.1631 30.9552C32.1631 30.9552 35.0691 27.6247 35.0815 27.6014C35.266 27.2508 35.2144 26.8223 34.9521 26.5257L34.2588 25.7427L34.2514 25.7338C34.2464 25.7283 34.2414 25.7224 34.2365 25.7169L34.2201 25.6986L33.5556 24.9239L34.6466 23.8319L36.2484 25.2071C36.5509 25.467 36.9828 25.5111 37.3315 25.3172C37.692 25.1169 38.0818 24.9557 38.4899 24.8382C38.8718 24.7276 39.1455 24.3918 39.1757 23.9951L39.3369 21.8895H40.8966L41.026 24.009C41.0503 24.4057 41.3176 24.7454 41.6975 24.862C42.0704 24.9765 42.4314 25.1297 42.7706 25.3177C43.1192 25.5106 43.5507 25.467 43.8527 25.2071L45.456 23.8319L46.5435 24.9205C46.4448 25.0038 46.363 25.1059 46.305 25.2225L45.151 26.5257C44.8867 26.8243 44.8361 27.2547 45.024 27.6063C45.204 27.9435 45.3513 28.307 45.4614 28.6879C45.5725 29.0693 45.9077 29.3415 46.3035 29.3723L46.6625 29.3995C46.9977 30.0502 47.4614 30.6363 48.0367 31.1159L46.2901 31.222ZM62.1215 59.3927H61.8195L56.1582 52.8021C55.9529 52.563 55.8473 52.258 55.8612 51.9431L56.2187 43.7041L60.2594 45.3604L58.7469 51.4671C58.5832 52.1276 58.6675 52.8239 58.9844 53.4264L62.1215 59.3927ZM53.1059 51.1606C52.5643 51.6605 52.2331 52.3419 52.1726 53.0822L51.6762 59.3927H51.2318L50.3868 51.2523C50.361 50.9999 50.4275 50.7485 50.5743 50.5447L54.2351 45.4551L54.0243 50.3106L53.1059 51.1606Z" fill="white"/>
<path d="M64.0452 62.5239H60.187C59.6609 62.5239 59.2344 62.9504 59.2344 63.4766C59.2344 64.0027 59.6609 64.4292 60.187 64.4292H64.0452C64.5714 64.4292 64.9978 64.0027 64.9978 63.4766C64.9978 62.9504 64.5714 62.5239 64.0452 62.5239Z" fill="white"/>
<path d="M52.7015 62.5239H48.8433C48.3171 62.5239 47.8906 62.9504 47.8906 63.4766C47.8906 64.0027 48.3171 64.4292 48.8433 64.4292H52.7015C53.2276 64.4292 53.6541 64.0027 53.6541 63.4766C53.6541 62.9504 53.2276 62.5239 52.7015 62.5239Z" fill="white"/>
<path d="M41.6558 17.4282C45.0885 17.4282 48.2469 18.9824 50.3273 21.5944L49.6166 21.4218C49.1048 21.2983 48.5901 21.6122 48.4661 22.1235C48.3421 22.6348 48.656 23.1496 49.1673 23.274L52.1254 23.9911C52.6025 24.1404 53.205 23.9113 53.3513 23.3078L54.0317 20.5009C54.1557 19.9896 53.8418 19.4749 53.3305 19.3504C52.8187 19.2269 52.304 19.5403 52.18 20.0521L52.0282 20.6779C49.5968 17.4525 45.7966 15.5229 41.6558 15.5229C41.1296 15.5229 40.7031 15.9494 40.7031 16.4756C40.7031 17.0018 41.1296 17.4282 41.6558 17.4282Z" fill="#E63114"/>
<path d="M4.82901 12.4518C4.90786 13.0092 5.60164 13.4045 6.12185 13.2145L9.26195 12.0675C9.75638 11.887 10.0108 11.34 9.83027 10.8461C9.64926 10.3516 9.10227 10.0972 8.60834 10.2777L7.67653 10.6179C10.5845 5.64743 15.9047 2.54005 21.7887 2.54005C22.3148 2.54005 22.7413 2.11357 22.7413 1.58741C22.7413 1.06125 22.3148 0.634766 21.7887 0.634766C15.137 0.634766 9.13103 4.19193 5.91257 9.86416L5.54312 8.8525C5.36261 8.35857 4.81512 8.10467 4.32169 8.28468C3.82727 8.4652 3.57287 9.01219 3.75338 9.50661L4.82901 12.4518Z" fill="#E63114"/>
</g>
<defs>
<clipPath id="clip0_734_32187">
<rect width="65" height="65" fill="white"/>
</clipPath>
</defs>
</svg>
