<svg width="65" height="65" viewBox="0 0 65 65" fill="none" xmlns="http://www.w3.org/2000/svg">
<g clip-path="url(#clip0_734_32235)">
<path d="M32.5926 12.9028C33.4822 12.9028 34.3518 12.639 35.0915 12.1447C35.8312 11.6505 36.4076 10.948 36.7481 10.1262C37.0885 9.30431 37.1776 8.39995 37.004 7.52746C36.8305 6.65496 36.4021 5.85353 35.7731 5.2245C35.144 4.59547 34.3426 4.16709 33.4701 3.99354C32.5976 3.81999 31.6933 3.90906 30.8714 4.24949C30.0495 4.58992 29.3471 5.16642 28.8528 5.90608C28.3586 6.64574 28.0948 7.51535 28.0948 8.40494C28.0962 9.59742 28.5705 10.7407 29.4137 11.5839C30.2569 12.4271 31.4002 12.9014 32.5926 12.9028ZM32.5926 5.93837C33.0805 5.93837 33.5574 6.08303 33.963 6.35406C34.3686 6.62509 34.6848 7.01031 34.8715 7.46102C35.0581 7.91173 35.107 8.40767 35.0118 8.88614C34.9166 9.36461 34.6817 9.80411 34.3368 10.1491C33.9918 10.494 33.5523 10.7289 33.0738 10.8241C32.5954 10.9193 32.0994 10.8704 31.6487 10.6838C31.198 10.4971 30.8128 10.1809 30.5418 9.77529C30.2707 9.36967 30.1261 8.89278 30.1261 8.40494C30.1268 7.75099 30.3869 7.12404 30.8493 6.66162C31.3117 6.19921 31.9387 5.9391 32.5926 5.93837ZM14.7975 48.4931C15.6871 48.4931 16.5568 48.2293 17.2965 47.7351C18.0362 47.2409 18.6128 46.5385 18.9532 45.7166C19.2937 44.8947 19.3828 43.9903 19.2093 43.1178C19.0358 42.2452 18.6074 41.4437 17.9784 40.8147C17.3493 40.1856 16.5479 39.7572 15.6753 39.5836C14.8028 39.41 13.8984 39.4991 13.0765 39.8395C12.2546 40.1799 11.5521 40.7565 11.0579 41.4962C10.5636 42.2358 10.2998 43.1055 10.2998 43.9951C10.3011 45.1876 10.7754 46.3308 11.6186 47.1741C12.4618 48.0173 13.605 48.4916 14.7975 48.4931ZM14.7975 41.5285C15.2854 41.5285 15.7623 41.6731 16.168 41.9441C16.5737 42.2152 16.8899 42.6004 17.0766 43.0511C17.2634 43.5019 17.3122 43.9978 17.2171 44.4764C17.1219 44.9549 16.887 45.3944 16.542 45.7394C16.197 46.0844 15.7575 46.3193 15.279 46.4145C14.8005 46.5097 14.3045 46.4609 13.8537 46.2742C13.403 46.0874 13.0178 45.7713 12.7467 45.3656C12.4757 44.9599 12.331 44.483 12.331 43.9951C12.3318 43.3412 12.5919 42.7142 13.0543 42.2518C13.5166 41.7894 14.1436 41.5293 14.7975 41.5285ZM32.4986 26.0787C35.0775 26.0787 37.5985 25.314 39.7428 23.8812C41.8872 22.4484 43.5584 20.4119 44.5454 18.0293C45.5323 15.6467 45.7905 13.0249 45.2874 10.4955C44.7842 7.96612 43.5424 5.64273 41.7188 3.81914C39.8952 1.99556 37.5718 0.75368 35.0424 0.250553C32.513 -0.252573 29.8912 0.00564981 27.5086 0.992568C25.126 1.97949 23.0895 3.65077 21.6567 5.79508C20.224 7.93939 19.4592 10.4604 19.4592 13.0394C19.4631 16.4964 20.8381 19.8108 23.2827 22.2553C25.7272 24.6998 29.0415 26.0748 32.4986 26.0787ZM28.9092 23.4461V18.6367C28.9092 18.3674 28.8022 18.109 28.6117 17.9186C28.4213 17.7281 28.163 17.6211 27.8936 17.6211C27.6242 17.6211 27.3659 17.7281 27.1754 17.9186C26.985 18.109 26.878 18.3674 26.878 18.6367V22.5003C26.1775 22.0825 25.5253 21.5886 24.9333 21.0276V17.5161C24.9333 16.5238 25.9948 16.0308 26.885 15.7926C28.6884 15.3137 30.5468 15.0733 32.4127 15.0776H32.5016C34.3946 15.0667 36.2807 15.307 38.1104 15.7923C39.0009 16.0309 40.0622 16.5236 40.0622 17.5159V21.0294C39.4701 21.5902 38.818 22.0838 38.1175 22.5013V18.6367C38.1175 18.3674 38.0105 18.109 37.82 17.9186C37.6296 17.7281 37.3712 17.6211 37.1019 17.6211C36.8325 17.6211 36.5742 17.7281 36.3837 17.9186C36.1933 18.109 36.0863 18.3674 36.0863 18.6367V23.4462C33.761 24.2477 31.2345 24.2476 28.9092 23.4461ZM32.4986 2.03126C34.42 2.03051 36.3082 2.5329 37.9751 3.48845C39.6421 4.44401 41.0298 5.8194 42.0002 7.4778C42.9706 9.1362 43.4898 11.0198 43.5062 12.9412C43.5226 14.8625 43.0356 16.7547 42.0937 18.4294V17.5161C42.0937 15.7626 40.8335 14.4193 38.6364 13.8305C36.6665 13.3068 34.6366 13.0431 32.5984 13.0463H32.5019C30.4286 13.0338 28.363 13.2974 26.3594 13.8303C24.1622 14.4191 22.9021 15.7624 22.9021 17.5159V18.4267C21.9607 16.752 21.4742 14.86 21.491 12.9389C21.5078 11.0178 22.0273 9.13456 22.9977 7.47652C23.9682 5.81849 25.3559 4.44343 27.0227 3.48811C28.6895 2.5328 30.5774 2.03053 32.4986 2.03126ZM14.7034 61.669C17.2824 61.669 19.8035 60.9043 21.9478 59.4715C24.0922 58.0387 25.7635 56.0022 26.7504 53.6196C27.7374 51.2369 27.9956 48.6151 27.4925 46.0857C26.9894 43.5563 25.7475 41.2328 23.9239 39.4092C22.1002 37.5856 19.7768 36.3437 17.2474 35.8406C14.718 35.3375 12.0962 35.5957 9.71349 36.5826C7.33083 37.5696 5.29435 39.2409 3.86156 41.3853C2.42877 43.5296 1.66404 46.0507 1.66406 48.6297C1.66796 52.0867 3.043 55.4011 5.48751 57.8456C7.93202 60.2901 11.2464 61.6651 14.7034 61.669ZM11.1141 59.0363V54.2274C11.1141 53.958 11.0071 53.6997 10.8166 53.5092C10.6261 53.3188 10.3678 53.2118 10.0984 53.2118C9.82909 53.2118 9.57076 53.3188 9.38029 53.5092C9.18983 53.6997 9.08282 53.958 9.08282 54.2274V58.0911C8.38238 57.6733 7.7302 57.1794 7.13815 56.6184V53.1063C7.13815 52.114 8.19961 51.6209 9.08993 51.3829C10.9221 50.8959 12.8111 50.6555 14.7068 50.668C16.6 50.6543 18.4864 50.8948 20.3155 51.3829C21.206 51.6214 22.2673 52.114 22.2673 53.1063V56.62C21.6753 57.1807 21.0232 57.6743 20.3227 58.0919V54.2274C20.3227 53.958 20.2157 53.6997 20.0253 53.5092C19.8348 53.3188 19.5765 53.2118 19.3071 53.2118C19.0378 53.2118 18.7794 53.3188 18.589 53.5092C18.3985 53.6997 18.2915 53.958 18.2915 54.2274V59.0368C15.9662 59.8384 13.4394 59.8379 11.1141 59.0363ZM14.7034 37.6214C16.6249 37.6207 18.513 38.1231 20.18 39.0786C21.8471 40.0342 23.2348 41.4096 24.2052 43.068C25.1756 44.7264 25.6948 46.61 25.7112 48.5314C25.7275 50.4528 25.2405 52.345 24.2985 54.0197V53.1063C24.2985 51.3528 23.0383 50.0095 20.8413 49.4208C18.8718 48.897 16.8421 48.6334 14.8041 48.6366H14.7068C12.6336 48.6243 10.568 48.888 8.56435 49.4207C6.36704 50.0094 5.1069 51.3527 5.1069 53.1061V54.0172C4.1655 52.3424 3.67899 50.4504 3.69575 48.5292C3.71251 46.6081 4.23196 44.7248 5.20244 43.0667C6.17291 41.4086 7.56059 40.0335 9.22744 39.0782C10.8943 38.1229 12.7822 37.6207 14.7034 37.6214ZM63.3331 48.6297C63.3331 46.0507 62.5683 43.5297 61.1355 41.3854C59.7028 39.2411 57.6663 37.5698 55.2837 36.5829C52.901 35.5959 50.2792 35.3377 47.7499 35.8409C45.2205 36.344 42.8971 37.5859 41.0735 39.4094C39.2499 41.233 38.008 43.5564 37.5049 46.0858C37.0018 48.6152 37.26 51.237 38.2469 53.6196C39.2338 56.0022 40.9051 58.0387 43.0494 59.4715C45.1937 60.9043 47.7148 61.669 50.2937 61.669C53.7508 61.6651 57.0651 60.29 59.5096 57.8455C61.9541 55.401 63.3291 52.0867 63.3331 48.6297ZM46.7046 59.0363V54.2274C46.7046 53.958 46.5976 53.6997 46.4072 53.5092C46.2167 53.3188 45.9584 53.2118 45.689 53.2118C45.4196 53.2118 45.1613 53.3188 44.9708 53.5092C44.7804 53.6997 44.6734 53.958 44.6734 54.2274V58.0911C43.973 57.6733 43.3208 57.1794 42.7288 56.6184V53.1063C42.7288 52.1141 43.7902 51.6209 44.6805 51.3829C48.3617 50.4297 52.225 50.4297 55.9062 51.3829C56.7966 51.6214 57.858 52.1141 57.858 53.1063V56.62C57.2659 57.1807 56.6137 57.6743 55.9133 58.0919V54.2274C55.9133 53.958 55.8063 53.6997 55.6158 53.5092C55.4254 53.3188 55.167 53.2118 54.8977 53.2118C54.6283 53.2118 54.37 53.3188 54.1795 53.5092C53.989 53.6997 53.882 53.958 53.882 54.2274V59.0369C51.5567 59.8385 49.03 59.8378 46.7046 59.0363ZM50.2941 37.6214C52.2156 37.6207 54.1037 38.1231 55.7707 39.0786C57.4377 40.0342 58.8255 41.4096 59.7959 43.068C60.7662 44.7264 61.2854 46.61 61.3018 48.5314C61.3182 50.4528 60.8312 52.345 59.8892 54.0197V53.1063C59.8892 51.3528 58.6291 50.0095 56.4319 49.4208C52.4065 48.3755 48.1809 48.3755 44.1555 49.4208C41.9584 50.0095 40.6982 51.3528 40.6982 53.1063V54.0173C39.7568 52.3425 39.2703 50.4505 39.2871 48.5293C39.3038 46.6082 39.8233 44.7249 40.7937 43.0668C41.7642 41.4088 43.1519 40.0337 44.8187 39.0783C46.4856 38.123 48.3729 37.6207 50.2941 37.6214ZM50.3882 48.4931C51.2778 48.4931 52.1474 48.2293 52.8871 47.7351C53.6268 47.2409 54.2034 46.5384 54.5438 45.7165C54.8843 44.8946 54.9734 43.9902 54.7998 43.1177C54.6263 42.2452 54.1979 41.4437 53.5689 40.8146C52.9398 40.1856 52.1384 39.7572 51.2658 39.5836C50.3933 39.41 49.4889 39.4991 48.667 39.8395C47.8451 40.18 47.1426 40.7565 46.6484 41.4962C46.1541 42.2358 45.8903 43.1055 45.8903 43.9951C45.8917 45.1875 46.3659 46.3307 47.2091 47.174C48.0522 48.0172 49.1957 48.4916 50.3882 48.4931ZM50.3882 41.5285C50.876 41.5285 51.353 41.6732 51.7586 41.9442C52.1643 42.2152 52.4805 42.6005 52.6672 43.0512C52.8539 43.5019 52.9028 43.9979 52.8076 44.4764C52.7124 44.9549 52.4775 45.3945 52.1325 45.7395C51.7875 46.0844 51.348 46.3194 50.8695 46.4145C50.391 46.5097 49.895 46.4609 49.4443 46.2741C48.9935 46.0874 48.6083 45.7712 48.3373 45.3656C48.0662 44.9599 47.9216 44.483 47.9216 43.9951C47.9223 43.3412 48.1824 42.7143 48.6447 42.2519C49.107 41.7895 49.7343 41.5294 50.3882 41.5285ZM23.4868 61.3761C29.307 63.4996 35.6902 63.4996 41.5105 61.3761C41.7634 61.2834 42.0427 61.2949 42.2872 61.4081C42.5316 61.5213 42.721 61.727 42.8138 61.9799C42.9065 62.2328 42.895 62.5122 42.7818 62.7566C42.6686 63.001 42.4629 63.1905 42.21 63.2832C35.9381 65.5723 29.0592 65.5723 22.7873 63.2832C22.6621 63.2373 22.5471 63.1671 22.449 63.0768C22.3509 62.9864 22.2715 62.8776 22.2155 62.7566C22.1594 62.6356 22.1277 62.5047 22.1222 62.3714C22.1167 62.2382 22.1376 62.1051 22.1835 61.9799C22.2294 61.8547 22.2996 61.7398 22.3899 61.6416C22.4803 61.5435 22.5891 61.4642 22.7101 61.4081C22.8311 61.352 22.962 61.3204 23.0953 61.3149C23.2285 61.3094 23.3616 61.3302 23.4868 61.3761ZM17.3291 14.2061C17.4076 14.3139 17.4641 14.4361 17.4954 14.5658C17.5267 14.6954 17.5321 14.83 17.5114 14.9617C17.4907 15.0935 17.4443 15.2199 17.3747 15.3337C17.3051 15.4475 17.2138 15.5465 17.106 15.625C13.9238 17.9276 11.3036 20.9201 9.44152 24.3786C7.5794 27.837 6.52358 31.6718 6.35308 35.596C6.34128 35.8571 6.22932 36.1035 6.04047 36.2841C5.85162 36.4648 5.60042 36.5656 5.3391 36.5658C5.32374 36.5658 5.30825 36.5658 5.29264 36.5649C5.15938 36.5589 5.02862 36.5267 4.90781 36.4702C4.787 36.4137 4.67851 36.3339 4.58854 36.2354C4.49856 36.1369 4.42887 36.0217 4.38343 35.8963C4.338 35.7709 4.31771 35.6377 4.32373 35.5045C4.50743 31.2757 5.64511 27.1433 7.65164 23.4164C9.65818 19.6895 12.4816 16.4646 15.9106 13.9831C16.1283 13.8247 16.4 13.7592 16.666 13.801C16.932 13.8428 17.1705 13.9885 17.3291 14.2061ZM47.891 15.625C47.7829 15.5466 47.6913 15.4477 47.6215 15.3338C47.5516 15.22 47.505 15.0935 47.4841 14.9616C47.4632 14.8296 47.4686 14.6949 47.4998 14.5651C47.5311 14.4352 47.5877 14.3128 47.6663 14.2049C47.7449 14.0969 47.8441 14.0055 47.9581 13.936C48.0721 13.8664 48.1986 13.82 48.3306 13.7994C48.4626 13.7788 48.5973 13.7844 48.7271 13.8159C48.8568 13.8475 48.9791 13.9043 49.0869 13.9831C52.516 16.4646 55.3394 19.6894 57.346 23.4163C59.3525 27.1433 60.4902 31.2757 60.6738 35.5045C60.6798 35.6377 60.6595 35.7709 60.6141 35.8963C60.5686 36.0217 60.4989 36.1369 60.409 36.2354C60.319 36.3339 60.2105 36.4137 60.0897 36.4702C59.9689 36.5267 59.8381 36.5589 59.7049 36.5649C59.6893 36.5649 59.6738 36.5658 59.6584 36.5658C59.3971 36.5656 59.1459 36.4648 58.957 36.2841C58.7682 36.1035 58.6562 35.8571 58.6444 35.596C58.4739 31.6718 57.418 27.837 55.5558 24.3785C53.6936 20.9201 51.0733 17.9276 47.891 15.625ZM25.3178 39.2841C25.2425 39.1741 25.1895 39.0503 25.1619 38.9198C25.1344 38.7892 25.1328 38.6546 25.1573 38.5235C25.1819 38.3924 25.232 38.2674 25.3048 38.1556C25.3776 38.0438 25.4717 37.9475 25.5818 37.8722L31.4829 33.8287V28.2942C31.4829 28.0248 31.5899 27.7665 31.7804 27.576C31.9709 27.3856 32.2292 27.2786 32.4986 27.2786C32.7679 27.2786 33.0263 27.3856 33.2167 27.576C33.4072 27.7665 33.5142 28.0248 33.5142 28.2942V33.8293L39.4154 37.8728C39.5254 37.9482 39.6195 38.0445 39.6923 38.1562C39.7651 38.268 39.8152 38.393 39.8397 38.5241C39.8642 38.6552 39.8626 38.7899 39.8351 38.9204C39.8076 39.0509 39.7546 39.1747 39.6792 39.2847C39.6038 39.3947 39.5075 39.4888 39.3958 39.5617C39.284 39.6345 39.159 39.6846 39.0279 39.7091C38.8968 39.7336 38.7622 39.732 38.6317 39.7045C38.5012 39.6769 38.3773 39.624 38.2673 39.5486L32.4986 35.5953L26.7298 39.5479C26.6198 39.6233 26.496 39.6763 26.3655 39.7039C26.235 39.7314 26.1003 39.733 25.9692 39.7085C25.8381 39.684 25.7131 39.6339 25.6013 39.5611C25.4895 39.4883 25.3932 39.3942 25.3178 39.2841Z" fill="#F1F1F1"/>
<path d="M23.4844 61.3762C29.3047 63.4997 35.6878 63.4997 41.5081 61.3762C41.761 61.2834 42.0404 61.2949 42.2848 61.4081C42.5292 61.5214 42.7186 61.7271 42.8114 61.9799C42.9041 62.2328 42.8926 62.5122 42.7794 62.7566C42.6662 63.0011 42.4605 63.1905 42.2076 63.2832C35.9357 65.5723 29.0568 65.5723 22.7849 63.2832C22.6597 63.2373 22.5447 63.1672 22.4466 63.0768C22.3485 62.9865 22.2692 62.8777 22.2131 62.7566C22.157 62.6356 22.1253 62.5047 22.1199 62.3715C22.1144 62.2382 22.1352 62.1052 22.1811 61.9799C22.227 61.8547 22.2972 61.7398 22.3875 61.6417C22.4779 61.5436 22.5867 61.4642 22.7077 61.4081C22.8287 61.3521 22.9596 61.3204 23.0929 61.3149C23.2262 61.3094 23.3592 61.3302 23.4844 61.3762ZM17.3267 14.2061C17.4052 14.3139 17.4617 14.4361 17.493 14.5658C17.5243 14.6954 17.5298 14.83 17.509 14.9618C17.4883 15.0935 17.4419 15.2199 17.3723 15.3337C17.3027 15.4475 17.2114 15.5465 17.1036 15.625C13.9214 17.9277 11.3013 20.9202 9.43914 24.3786C7.57702 27.837 6.5212 31.6719 6.35069 35.596C6.3389 35.8571 6.22694 36.1036 6.03809 36.2842C5.84924 36.4648 5.59804 36.5657 5.33672 36.5658C5.32136 36.5658 5.30587 36.5658 5.29025 36.565C5.157 36.559 5.02624 36.5268 4.90543 36.4702C4.78462 36.4137 4.67613 36.3339 4.58615 36.2354C4.49618 36.1369 4.42648 36.0217 4.38105 35.8963C4.33561 35.7709 4.31533 35.6378 4.32135 35.5045C4.50505 31.2758 5.64273 27.1433 7.64926 23.4164C9.65579 19.6895 12.4792 16.4647 15.9082 13.9832C16.1259 13.8247 16.3976 13.7592 16.6636 13.801C16.9296 13.8428 17.1681 13.9885 17.3267 14.2061ZM47.8886 15.625C47.7805 15.5466 47.6889 15.4477 47.6191 15.3338C47.5493 15.22 47.5026 15.0935 47.4817 14.9616C47.4608 14.8297 47.4662 14.6949 47.4974 14.5651C47.5287 14.4353 47.5853 14.3129 47.6639 14.2049C47.7425 14.097 47.8417 14.0056 47.9557 13.936C48.0697 13.8664 48.1963 13.82 48.3282 13.7994C48.4602 13.7788 48.5949 13.7844 48.7247 13.816C48.8544 13.8475 48.9767 13.9043 49.0845 13.9832C52.5136 16.4646 55.337 19.6894 57.3436 23.4164C59.3501 27.1433 60.4878 31.2757 60.6714 35.5045C60.6774 35.6378 60.6571 35.7709 60.6117 35.8963C60.5663 36.0217 60.4966 36.1369 60.4066 36.2354C60.3166 36.3339 60.2081 36.4137 60.0873 36.4702C59.9665 36.5268 59.8357 36.559 59.7025 36.565C59.6869 36.565 59.6714 36.5658 59.656 36.5658C59.3947 36.5657 59.1435 36.4648 58.9547 36.2842C58.7658 36.1036 58.6538 35.8571 58.6421 35.596C58.4715 31.6718 57.4156 27.837 55.5534 24.3785C53.6912 20.9201 51.0709 17.9276 47.8886 15.625Z" fill="#E63114"/>
</g>
<defs>
<clipPath id="clip0_734_32235">
<rect width="65" height="65" fill="white"/>
</clipPath>
</defs>
</svg>
