<svg width="65" height="65" viewBox="0 0 65 65" fill="none" xmlns="http://www.w3.org/2000/svg">
<g clip-path="url(#clip0_734_32238)">
<path d="M64.046 59.9792H59.6614V42.1261C59.6614 41.5992 59.2342 41.1721 58.7073 41.1721C58.1805 41.1721 57.7533 41.5992 57.7533 42.1261V59.9792H50.3232V28.577C50.3232 28.4017 50.4658 28.259 50.6412 28.259H57.4353C57.6106 28.259 57.7533 28.4017 57.7533 28.577V38.3101C57.7533 38.8369 58.1805 39.2641 58.7073 39.2641C59.2342 39.2641 59.6614 38.8369 59.6614 38.3101V28.577C59.6614 27.3496 58.6628 26.351 57.4353 26.351H50.6412C49.4139 26.351 48.4152 27.3496 48.4152 28.577V59.9794H45.3025V35.5199C45.3025 34.2925 44.3038 33.2939 43.0764 33.2939H36.2823C35.0548 33.2939 34.0563 34.2925 34.0563 35.5199V59.9794H30.9436V42.4628C30.9436 41.2354 29.945 40.2368 28.7175 40.2368H21.9234C20.6961 40.2368 19.6974 41.2354 19.6974 42.4628V50.8049C19.6974 51.3318 20.1246 51.759 20.6514 51.759C21.1783 51.759 21.6054 51.3318 21.6054 50.8049V42.4628C21.6054 42.2874 21.7482 42.1448 21.9234 42.1448H28.7175C28.8929 42.1448 29.0355 42.2874 29.0355 42.4628V59.9792H21.6054V54.621C21.6054 54.0941 21.1783 53.667 20.6514 53.667C20.1246 53.667 19.6974 54.0941 19.6974 54.621V59.9792H16.5847V49.4057C16.5847 48.1784 15.5861 47.1797 14.3586 47.1797H7.56468C6.33731 47.1797 5.33865 48.1784 5.33865 49.4057V59.9792H0.954012C0.427143 59.9792 0 60.4064 0 60.9332C0 61.4601 0.427143 61.8873 0.954012 61.8873H64.046C64.5729 61.8873 65 61.4601 65 60.9332C65 60.4064 64.5729 59.9792 64.046 59.9792ZM35.9643 35.5199C35.9643 35.3446 36.1071 35.2019 36.2823 35.2019H43.0764C43.2517 35.2019 43.3944 35.3446 43.3944 35.5199V59.9794H35.9643V35.5199ZM7.24667 49.4057C7.24667 49.2304 7.38939 49.0877 7.56468 49.0877H14.3588C14.5342 49.0877 14.6768 49.2304 14.6768 49.4057V59.9792H7.24667V49.4057Z" fill="white"/>
<path d="M10.1846 35.7905C10.2368 35.7905 10.2896 35.7886 10.3425 35.785C17.3783 35.2963 23.9945 33.7608 30.0074 31.2213C38.104 27.8016 44.8069 22.6469 49.9436 15.8923L53.159 18.128C53.7924 18.6003 54.7576 18.0326 54.6528 17.2494L53.3201 3.97366C53.2768 3.40672 52.6773 2.98963 52.1304 3.1457L39.2095 6.51095C38.4382 6.68496 38.2418 7.7878 38.9053 8.21748L42.1501 10.4735C41.5045 11.4878 40.0821 13.499 37.6021 15.9591C37.228 16.3303 37.2256 16.9342 37.5966 17.3082C37.9677 17.6823 38.5718 17.6847 38.9457 17.3137C42.769 13.5212 44.2125 10.7482 44.272 10.632C44.4899 10.2069 44.3599 9.68615 43.9678 9.41343L41.6972 7.83474L51.5331 5.27302L52.5476 15.3788L50.2752 13.7988C49.8496 13.503 49.2661 13.6009 48.9603 14.0191C43.9615 20.8588 37.335 26.0551 29.2651 29.4635C22.0175 32.5244 14.9027 33.5554 10.2105 33.8814C9.93639 33.9516 9.85333 33.4483 10.1263 33.419C20.5791 30.1933 29.3086 25.6586 36.0722 19.9409C36.4747 19.6008 36.5251 18.9988 36.1849 18.5965C35.8449 18.1942 35.2428 18.1435 34.8406 18.4838C28.2742 24.0347 19.7698 28.4462 9.56382 31.5959C8.50398 31.9229 7.88209 32.9508 8.0851 34.0399C8.27807 35.0756 9.14774 35.7905 10.1846 35.7905Z" fill="#E63114"/>
</g>
<defs>
<clipPath id="clip0_734_32238">
<rect width="65" height="65" fill="white"/>
</clipPath>
</defs>
</svg>
