<svg width="65" height="65" viewBox="0 0 65 65" fill="none" xmlns="http://www.w3.org/2000/svg">
<g clip-path="url(#clip0_734_32242)">
<path d="M18.7299 27.7657H60.5589C61.7858 27.7657 62.8923 28.2659 63.6962 29.0693V29.0769C64.4995 29.8808 65.0002 30.9873 65.0002 32.2066V60.5583C65.0002 61.777 64.4995 62.8911 63.6962 63.6945C62.8923 64.4989 61.7858 64.9986 60.5589 64.9986H18.7299C17.5106 64.9986 16.3965 64.4989 15.5931 63.6945C14.7893 62.8911 14.2891 61.7841 14.2891 60.5583V32.2066C14.2891 30.9873 14.7893 29.8732 15.5931 29.0693C16.397 28.2659 17.5106 27.7657 18.7299 27.7657ZM60.5589 29.796H18.7299C18.0672 29.796 17.468 30.0707 17.0312 30.5074C16.594 30.9447 16.3193 31.5439 16.3193 32.2066V60.5583C16.3193 61.2209 16.594 61.8268 17.0312 62.264C17.4675 62.7002 18.0672 62.9683 18.7299 62.9683H60.5589C61.2216 62.9683 61.8274 62.7007 62.2646 62.264C62.7014 61.8268 62.97 61.2204 62.97 60.5583V32.2066C62.97 31.5439 62.7019 30.9381 62.2646 30.5008V30.5079C61.8274 30.0712 61.2216 29.796 60.5589 29.796Z" fill="#E63114"/>
<path d="M31.1654 19.2999H48.1324C49.0982 19.2999 49.9859 19.6945 50.6207 20.3359C51.2549 20.9772 51.6571 21.8588 51.6571 22.8241V28.7803V29.7954H50.6415H46.3561H45.3414V28.7803V25.482H33.9568V28.7808V29.7959H32.9412H28.6557H27.6406V28.7808V22.8241C27.6406 21.8588 28.0352 20.9701 28.6695 20.3359C29.3108 19.6945 30.1929 19.2999 31.1654 19.2999ZM48.1319 21.3302H31.1654C30.7561 21.3302 30.3828 21.4988 30.1076 21.774C29.84 22.0421 29.6714 22.4154 29.6714 22.8241V27.7652H31.9266V24.4664V23.4518H32.9417H46.3561H47.3717V24.4664V27.7657H49.6269V22.8247C49.6269 22.4154 49.4578 22.0421 49.1902 21.7745H49.1825C48.9144 21.4993 48.5412 21.3302 48.1319 21.3302Z" fill="#E63114"/>
<path d="M11.2145 55.0951C11.7716 55.0951 12.2296 55.5455 12.2296 56.1097C12.2296 56.6663 11.7716 57.1243 11.2145 57.1243H3.04535C2.21355 57.1243 1.45234 56.779 0.895273 56.2296V56.2225C0.345313 55.6725 0 54.9118 0 54.0724V3.04484C0 2.21305 0.345313 1.45184 0.895273 0.895273C1.44473 0.345313 2.20594 0 3.04535 0H31.6002C32.0374 0 32.4462 0.0848047 32.8275 0.253906C33.2013 0.423008 33.5395 0.669297 33.8427 0.98668V0.993789V0.98668L41.505 9.1848C41.5259 9.20613 41.5401 9.22695 41.5614 9.24828C41.8072 9.52301 41.9839 9.82668 42.1109 10.1436C42.2378 10.4894 42.3084 10.8555 42.3084 11.2435V16.22C42.3084 16.7837 41.8504 17.2352 41.2933 17.2352C40.7296 17.2352 40.2711 16.7837 40.2711 16.22V11.2435C40.2711 11.1023 40.2573 10.9759 40.2147 10.8626C40.1725 10.7712 40.1233 10.6864 40.0598 10.6016C40.0456 10.5879 40.0309 10.5808 40.0172 10.5666L32.3619 2.36844C32.2557 2.2557 32.1364 2.1709 32.0095 2.10742C31.8901 2.05816 31.7561 2.03023 31.6007 2.03023H3.04535C2.77063 2.03023 2.51672 2.14297 2.3334 2.3334L2.32629 2.32629C2.14297 2.5091 2.03023 2.77012 2.03023 3.04484V54.0724C2.03023 54.3542 2.14297 54.6081 2.32629 54.7914L2.3334 54.7986C2.51672 54.9753 2.77012 55.0951 3.04535 55.0951H11.2145Z" fill="white"/>
<path d="M35.965 46.2698L18.5471 42.9629C17.37 42.7446 16.2837 42.2302 15.5022 41.4476C14.7542 40.7006 14.2891 39.7211 14.2891 38.5435H16.3193C16.3193 39.1427 16.5595 39.6363 16.9398 40.0171C17.4263 40.496 18.1383 40.8276 18.9208 40.9754L36.3388 44.2812L35.965 46.2698ZM64.9997 38.5435C64.9997 39.7206 64.5346 40.6935 63.7871 41.4405V41.4476C63.0045 42.2302 61.9193 42.7451 60.7493 42.9629L43.3309 46.2972L42.9505 44.3097L60.3685 40.9754C61.1581 40.8205 61.8701 40.4965 62.3561 40.0171C62.7369 39.6363 62.9695 39.1422 62.9695 38.5435H64.9997Z" fill="white"/>
<path d="M25.8666 9.07166C26.4303 9.07166 26.8818 9.5231 26.8818 10.0868C26.8818 10.6438 26.4303 11.1019 25.8666 11.1019H11.6987C11.1345 11.1019 10.683 10.6438 10.683 10.0868C10.683 9.5231 11.1345 9.07166 11.6987 9.07166H25.8666ZM6.86227 9.07166C7.42645 9.07166 7.885 9.5231 7.885 10.0868C7.885 10.6438 7.42695 11.1019 6.86227 11.1019H6.10156C5.54398 11.1019 5.08594 10.6438 5.08594 10.0868C5.08594 9.5231 5.54398 9.07166 6.10156 9.07166H6.86227Z" fill="white"/>
<path d="M19.1909 18.2848C19.748 18.2848 20.2061 18.7423 20.2061 19.2999C20.2061 19.8636 19.748 20.3145 19.1909 20.3145H11.6982C11.1345 20.3145 10.683 19.8636 10.683 19.2999C10.683 18.7428 11.1345 18.2848 11.6982 18.2848H19.1909ZM6.86277 18.2848C7.42645 18.2848 7.885 18.7423 7.885 19.2999C7.885 19.8636 7.42695 20.3145 6.86277 20.3145H6.10156C5.54449 20.3145 5.08594 19.8636 5.08594 19.2999C5.08594 18.7428 5.54398 18.2848 6.10156 18.2848H6.86277Z" fill="white"/>
<path d="M25.8666 13.6815C26.4303 13.6815 26.8818 14.133 26.8818 14.6966C26.8818 15.2532 26.4303 15.7118 25.8666 15.7118H11.6987C11.1345 15.7118 10.683 15.2537 10.683 14.6966C10.683 14.133 11.1345 13.6815 11.6987 13.6815H25.8666ZM6.86227 13.6815C7.42645 13.6815 7.885 14.133 7.885 14.6966C7.885 15.2532 7.42695 15.7118 6.86227 15.7118H6.10156C5.54398 15.7118 5.08594 15.2537 5.08594 14.6966C5.08594 14.133 5.54398 13.6815 6.10156 13.6815H6.86227Z" fill="white"/>
<path d="M32.6407 0.373242L41.8814 10.4041C42.2551 10.8129 42.2343 11.4542 41.8179 11.8346C41.6275 12.0108 41.3817 12.1027 41.1344 12.1027H34.7695C33.6843 12.1027 32.7042 11.6584 31.9922 10.9469C31.9714 10.9256 31.9496 10.9048 31.9288 10.8834C31.2518 10.1781 30.8359 9.21984 30.8359 8.16918V1.01512C30.8359 0.458047 31.2874 0 31.8516 0C32.1679 0 32.4503 0.147773 32.6407 0.373242ZM38.8228 10.073L32.8662 3.61562V8.16969C32.8662 8.67699 33.0637 9.13504 33.3811 9.47324C33.3948 9.48746 33.4095 9.50168 33.4237 9.5159C33.7691 9.86121 34.2479 10.0725 34.7695 10.0725L38.8228 10.073Z" fill="white"/>
<path d="M46.157 5.46969C46.0443 6.01914 45.509 6.37156 44.9591 6.25223C44.4091 6.13898 44.0567 5.60375 44.1694 5.06039L44.5574 3.21348L45.0647 0.81C45.1632 0.331133 45.5862 -0.000976562 46.0585 -0.000976562H47.8348H49.6112C50.1256 -0.000976562 50.5491 0.379883 50.6192 0.880078L51.3662 4.43273C51.8877 4.58102 52.3955 4.75723 52.8886 4.96137C53.3893 5.16602 53.8753 5.4057 54.3404 5.66672L57.4492 3.63648C57.8509 3.37547 58.3796 3.43895 58.7106 3.77055H58.7183L59.9731 5.02535C59.9868 5.04668 60.0081 5.0609 60.0228 5.08172L61.2279 6.28727C61.5798 6.63258 61.6158 7.18254 61.3411 7.57711L59.3317 10.657C59.5993 11.1227 59.8324 11.6086 60.0437 12.1093C60.2412 12.6024 60.4174 13.1102 60.5652 13.6318L64.1884 14.4001C64.6891 14.4986 65.0273 14.95 64.9994 15.4431V17.1641V18.9404C64.9994 19.4548 64.619 19.885 64.1183 19.9484L60.5657 20.6954C60.4179 21.2241 60.2412 21.7319 60.0442 22.2178C59.7481 22.9298 59.3957 23.6062 58.994 24.2344C58.6985 24.7132 58.0708 24.8544 57.5914 24.5513C57.1192 24.2481 56.9785 23.6209 57.2812 23.1482C57.627 22.6058 57.923 22.0345 58.1698 21.4429C58.4095 20.8645 58.5994 20.2724 58.7406 19.6666C58.8041 19.2649 59.1138 18.9333 59.5303 18.8419L62.9692 18.1229V17.1641H62.9763V16.2125L59.5292 15.4863C59.156 15.4091 58.8386 15.1196 58.7467 14.718C58.6126 14.0908 58.4156 13.4845 58.1688 12.8858C57.922 12.2937 57.626 11.7224 57.2801 11.18C57.076 10.8555 57.0689 10.4325 57.2872 10.0872L59.2124 7.1409L58.5913 6.51375C58.5705 6.50004 58.5568 6.48531 58.5349 6.46398L57.8585 5.78758L54.9752 7.66953C54.6441 7.92293 54.1855 7.95137 53.8199 7.71879C53.2771 7.37348 52.7063 7.07742 52.1142 6.83063C51.5358 6.59094 50.9371 6.40051 50.3307 6.25984C49.9362 6.19637 49.5974 5.8932 49.5131 5.4702L48.786 2.02977H47.8348H46.8756L46.5445 3.62277L46.157 5.46969ZM47.8348 10.8764C47.2706 10.8764 46.8192 10.4249 46.8192 9.86125C46.8192 9.29758 47.2706 8.84613 47.8348 8.84613C50.1322 8.84613 52.2117 9.77695 53.7204 11.2852C55.222 12.7868 56.1523 14.8662 56.1523 17.1641C56.1523 17.7704 56.0888 18.3696 55.9619 18.9404C55.8349 19.5249 55.6445 20.0896 55.3987 20.632C55.1656 21.1398 54.5664 21.3652 54.052 21.1327C53.5447 20.8996 53.3258 20.3004 53.5589 19.793C53.7417 19.3985 53.8829 18.9684 53.9814 18.5169C54.0733 18.0802 54.1226 17.6287 54.1226 17.1636C54.1226 15.4294 53.4177 13.8572 52.2828 12.7157C51.1407 11.5817 49.5685 10.8764 47.8348 10.8764Z" fill="white"/>
<path d="M36.2916 38.5725H42.9947C43.5239 38.5725 44.0027 38.7909 44.3486 39.1357L44.3557 39.1428C44.7015 39.4891 44.9193 39.9751 44.9193 40.5037V47.9335C44.9193 49.3854 44.3277 50.7036 43.3685 51.6619C42.4173 52.6211 41.092 53.2133 39.6396 53.2133C38.1873 53.2133 36.869 52.6211 35.9107 51.6619C34.9586 50.7036 34.3594 49.3859 34.3594 47.9335V40.5037C34.3594 39.9751 34.5782 39.4881 34.9307 39.1428V39.1357C35.2831 38.7909 35.763 38.5725 36.2916 38.5725ZM42.8896 40.6027H36.3972V47.9335C36.3972 48.8212 36.7568 49.6393 37.3489 50.2248C37.941 50.8169 38.752 51.183 39.6396 51.183C40.5354 51.183 41.3454 50.8169 41.9375 50.2248C42.5225 49.6398 42.8896 48.8212 42.8896 47.9335V40.6027Z" fill="white"/>
<path d="M39.6401 48.814C40.2008 48.814 40.6552 48.3596 40.6552 47.7989C40.6552 47.2383 40.2008 46.7838 39.6401 46.7838C39.0795 46.7838 38.625 47.2383 38.625 47.7989C38.625 48.3596 39.0795 48.814 39.6401 48.814Z" fill="white"/>
</g>
<defs>
<clipPath id="clip0_734_32242">
<rect width="65" height="65" fill="white"/>
</clipPath>
</defs>
</svg>
