<svg width="44" height="44" viewBox="0 0 44 44" fill="none" xmlns="http://www.w3.org/2000/svg">
<circle cx="22" cy="22" r="22" fill="#E63114"/>
<path d="M24.4506 16C24.7572 15.9979 25.0574 16.0887 25.3128 16.2609C25.5681 16.433 25.767 16.6785 25.8839 16.9661C26.0007 17.2536 26.0302 17.57 25.9686 17.8747C25.907 18.1793 25.7571 18.4584 25.5381 18.676L22.2257 22.018L25.5381 25.3749C25.8099 25.6708 25.9579 26.0622 25.9509 26.4666C25.9438 26.871 25.7823 27.2568 25.5004 27.5428C25.2184 27.8288 24.838 27.9926 24.4393 27.9998C24.0406 28.0069 23.6548 27.8568 23.363 27.581L18.0867 22.2291C18.0592 22.2015 18.0374 22.1686 18.0225 22.1323C18.0077 22.0961 18 22.0573 18 22.018C18 21.9787 18.0077 21.9399 18.0225 21.9037C18.0374 21.8674 18.0592 21.8345 18.0867 21.8069L23.363 16.455C23.652 16.1635 24.043 15.9999 24.4506 16Z" fill="white"/>
</svg>
