<svg width="55" height="52" viewBox="0 0 55 52" fill="none" xmlns="http://www.w3.org/2000/svg">
<rect x="0.5" y="0.5" width="54" height="51" rx="9.5" stroke="url(#paint0_linear_20_16)"/>
<path d="M34.4425 25.0746C34.6902 24.7575 34.8868 24.503 35.032 24.311C36.0778 22.9336 36.5311 22.0537 36.3922 21.67L36.3377 21.5802C36.3015 21.5262 36.2076 21.4767 36.0566 21.4318C35.9054 21.387 35.712 21.3798 35.4763 21.4094L32.8648 21.4277C32.8043 21.4217 32.7438 21.4231 32.6834 21.4318C32.6229 21.4409 32.5837 21.4501 32.5654 21.4588C32.5472 21.4679 32.5322 21.4753 32.5202 21.4812L32.4839 21.5082C32.4537 21.526 32.4205 21.5576 32.3842 21.6026C32.348 21.6476 32.3175 21.6998 32.2935 21.7599C32.0094 22.4845 31.686 23.1583 31.3233 23.7812C31.0995 24.1525 30.8939 24.4746 30.7067 24.7468C30.5193 25.0195 30.3621 25.2201 30.2351 25.3486C30.1082 25.4773 29.9933 25.5808 29.8906 25.6584C29.7877 25.7366 29.7092 25.7693 29.6549 25.7574C29.6004 25.7455 29.549 25.7336 29.5007 25.7213C29.4161 25.6676 29.3479 25.5944 29.2967 25.5013C29.2453 25.4087 29.2106 25.2919 29.1924 25.151C29.1743 25.0104 29.1636 24.889 29.1607 24.7871C29.1575 24.6853 29.1591 24.5417 29.1654 24.3558C29.1714 24.1701 29.1743 24.0446 29.1743 23.9786C29.1743 23.7512 29.179 23.5041 29.188 23.2375C29.197 22.9711 29.2046 22.7599 29.2106 22.6041C29.2167 22.4486 29.2196 22.2838 29.2196 22.11C29.2196 21.9367 29.209 21.8002 29.1877 21.7012C29.1665 21.6026 29.1347 21.5068 29.0927 21.4138C29.0502 21.3212 28.9883 21.2492 28.9066 21.1984C28.825 21.1474 28.7238 21.1072 28.6029 21.077C28.2823 21.005 27.8743 20.9665 27.3787 20.9602C26.2542 20.9487 25.5318 21.0205 25.2114 21.176C25.0844 21.242 24.9695 21.3317 24.8668 21.4455C24.7579 21.5774 24.7429 21.6494 24.8216 21.6609C25.1844 21.7149 25.4411 21.8438 25.5923 22.0473L25.6467 22.155C25.689 22.2332 25.7312 22.3709 25.7737 22.5684C25.8159 22.766 25.8432 22.9846 25.8554 23.2242C25.8856 23.6614 25.8856 24.0355 25.8554 24.3471C25.8251 24.6587 25.7965 24.9011 25.7693 25.0745C25.742 25.2482 25.7012 25.3889 25.6469 25.4966C25.5925 25.6047 25.5562 25.6705 25.538 25.6945C25.5198 25.7183 25.5048 25.7334 25.4928 25.7394C25.4141 25.7691 25.3326 25.7842 25.2479 25.7842C25.1632 25.7842 25.0605 25.7421 24.9395 25.6582C24.8186 25.5747 24.6931 25.4593 24.5633 25.3125C24.4331 25.1659 24.2868 24.9606 24.1234 24.697C23.9602 24.4338 23.7908 24.1221 23.6156 23.7629L23.4706 23.5023C23.3799 23.3349 23.2559 23.0907 23.0988 22.7703C22.9416 22.45 22.8024 22.1402 22.6817 21.8405C22.6332 21.7149 22.5607 21.6191 22.464 21.553L22.4188 21.5261C22.3886 21.5023 22.3401 21.4767 22.2736 21.4499C22.207 21.4229 22.1377 21.4035 22.065 21.3914L19.5803 21.4092C19.3265 21.4092 19.1543 21.4664 19.0636 21.5802L19.0273 21.634C19.009 21.6641 19 21.7121 19 21.7778C19 21.8438 19.0182 21.9246 19.0545 22.0202C19.4173 22.8648 19.8118 23.6792 20.2378 24.4635C20.6641 25.2482 21.0344 25.8802 21.3487 26.3592C21.6631 26.8386 21.9834 27.2905 22.31 27.7158C22.6366 28.141 22.8526 28.4133 22.9583 28.533C23.0641 28.653 23.1472 28.7429 23.2076 28.8025L23.4343 29.0183C23.5793 29.162 23.7925 29.3341 24.0737 29.5349C24.3548 29.7356 24.666 29.9332 25.0078 30.1276C25.3492 30.3224 25.7468 30.4808 26.2001 30.6038C26.6534 30.7268 27.0947 30.7761 27.524 30.752H28.5669C28.7785 30.7341 28.9386 30.6685 29.0474 30.5544L29.0836 30.5096C29.1076 30.4738 29.1305 30.4183 29.1517 30.3435C29.1727 30.2687 29.1836 30.1862 29.1836 30.0966C29.1773 29.8391 29.1972 29.6067 29.2424 29.4004C29.2877 29.1937 29.3391 29.0382 29.3966 28.9331C29.4541 28.8285 29.5189 28.74 29.5916 28.668C29.6641 28.596 29.7154 28.553 29.7458 28.5379C29.776 28.5232 29.8003 28.5127 29.8183 28.5064C29.9633 28.4585 30.134 28.505 30.3307 28.6456C30.5271 28.7867 30.7115 28.96 30.8839 29.1667C31.0561 29.3734 31.2631 29.6052 31.505 29.8629C31.7467 30.1203 31.9583 30.312 32.1398 30.4377L32.3212 30.5458C32.4421 30.6174 32.5991 30.6833 32.7927 30.7434C32.9861 30.8031 33.1555 30.8182 33.3005 30.7882L35.6219 30.7521C35.8516 30.7521 36.03 30.7149 36.157 30.6399C36.2839 30.5655 36.3594 30.4826 36.3837 30.3929C36.4077 30.3031 36.4093 30.2017 36.3883 30.0876C36.3671 29.974 36.3458 29.8946 36.3248 29.8498C36.3036 29.805 36.2839 29.7673 36.2657 29.7375C35.9634 29.1986 35.3861 28.5367 34.5337 27.7522L34.5155 27.7343L34.5065 27.7252L34.4975 27.7165H34.4884C34.1014 27.3511 33.8567 27.1055 33.7539 26.9796C33.5666 26.7404 33.5241 26.4978 33.627 26.2522C33.6991 26.066 33.971 25.6737 34.4425 25.0746Z" fill="white" fill-opacity="0.7"/>
<defs>
<linearGradient id="paint0_linear_20_16" x1="27.5" y1="0" x2="27.5" y2="52" gradientUnits="userSpaceOnUse">
<stop stop-color="#5418A3"/>
<stop offset="1" stop-color="#5418A3" stop-opacity="0.76"/>
</linearGradient>
</defs>
</svg>
