<svg width="22" height="13" viewBox="0 0 22 13" fill="none" xmlns="http://www.w3.org/2000/svg">
<path d="M19.5064 5.19872C19.8192 4.79808 20.0676 4.47661 20.251 4.23408C21.572 2.4942 22.1446 1.38275 21.9691 0.898182L21.9003 0.784695C21.8545 0.716529 21.7359 0.653931 21.5452 0.59727C21.3542 0.540649 21.1099 0.531602 20.8122 0.56898L17.5134 0.59203C17.437 0.584497 17.3606 0.586257 17.2842 0.59727C17.2079 0.608774 17.1583 0.620319 17.1352 0.631332C17.1122 0.642877 17.0933 0.65213 17.0781 0.659663L17.0323 0.693725C16.9942 0.716283 16.9522 0.756118 16.9064 0.813026C16.8606 0.869892 16.8222 0.935806 16.7918 1.01171C16.4329 1.92697 16.0245 2.77812 15.5662 3.56487C15.2836 4.03393 15.0239 4.44083 14.7875 4.78457C14.5507 5.12908 14.3522 5.38242 14.1918 5.54475C14.0315 5.70736 13.8862 5.83813 13.7565 5.93614C13.6265 6.03485 13.5274 6.07619 13.4589 6.06117C13.39 6.04614 13.325 6.03112 13.2641 6.01556C13.1571 5.94768 13.0711 5.8552 13.0064 5.7377C12.9414 5.62073 12.8976 5.4731 12.8746 5.29522C12.8518 5.11758 12.8382 4.96425 12.8346 4.83546C12.8306 4.70694 12.8326 4.52554 12.8404 4.29075C12.848 4.0562 12.8518 3.89764 12.8518 3.8142C12.8518 3.52704 12.8576 3.21487 12.8691 2.87814C12.8804 2.54165 12.8901 2.2748 12.8976 2.07808C12.9052 1.88165 12.909 1.67343 12.909 1.45395C12.909 1.23496 12.8956 1.06256 12.8687 0.937566C12.8419 0.813025 12.8017 0.692006 12.7486 0.574507C12.695 0.457499 12.6168 0.36653 12.5136 0.302417C12.4105 0.238018 12.2827 0.18717 12.13 0.149055C11.725 0.0580853 11.2096 0.00948889 10.5836 0.00150552C9.16319 -0.0130283 8.25065 0.0776548 7.84597 0.274087C7.68562 0.357523 7.54044 0.470764 7.41071 0.614588C7.27313 0.781215 7.25416 0.872143 7.35356 0.886677C7.81183 0.954843 8.13613 1.1177 8.32706 1.37477L8.39587 1.51081C8.44922 1.60952 8.50262 1.78344 8.55622 2.03297C8.60961 2.28254 8.644 2.55864 8.65941 2.86131C8.6976 3.41352 8.6976 3.88609 8.65941 4.27973C8.62123 4.67333 8.58506 4.97953 8.55068 5.19852C8.51625 5.418 8.46468 5.59564 8.39612 5.73168C8.32731 5.86822 8.28156 5.95141 8.25854 5.98171C8.23552 6.01176 8.21655 6.03079 8.20138 6.03837C8.10199 6.07595 7.99905 6.09499 7.89209 6.09499C7.78509 6.09499 7.65533 6.04185 7.50258 5.93585C7.34979 5.83039 7.19122 5.68456 7.02732 5.49914C6.86292 5.31401 6.67802 5.05469 6.47163 4.72168C6.26549 4.38921 6.0515 3.99557 5.83019 3.54182L5.64707 3.21258C5.53251 3.00112 5.37593 2.69268 5.17739 2.28802C4.97885 1.88337 4.80305 1.49202 4.65055 1.11345C4.58934 0.954843 4.49776 0.833823 4.37564 0.750387L4.31849 0.716324C4.2803 0.686233 4.21909 0.653931 4.13512 0.620074C4.05089 0.586011 3.9634 0.561447 3.87157 0.546176L0.733062 0.568735C0.412363 0.568735 0.194858 0.640912 0.0802988 0.784695L0.0345082 0.852615C0.011365 0.890689 0 0.951322 0 1.03427C0 1.1177 0.0230192 1.21969 0.0688098 1.34046C0.527087 2.40732 1.02537 3.43612 1.56357 4.42679C2.10207 5.418 2.56973 6.21625 2.9668 6.82135C3.36387 7.42694 3.76854 7.99769 4.18107 8.53487C4.5936 9.07205 4.86648 9.41603 5.00001 9.56714C5.13354 9.71874 5.23851 9.83227 5.31493 9.90764L5.60124 10.1802C5.78436 10.3617 6.05373 10.5791 6.40886 10.8327C6.76394 11.0862 7.157 11.3358 7.58875 11.5814C8.02 11.8274 8.52229 12.0276 9.09488 12.1829C9.66751 12.3383 10.2249 12.4006 10.7672 12.3701H12.0844C12.3518 12.3475 12.554 12.2646 12.6915 12.1205L12.7372 12.0639C12.7675 12.0188 12.7964 11.9486 12.8232 11.8541C12.8497 11.7597 12.8635 11.6555 12.8635 11.5422C12.8556 11.217 12.8807 10.9234 12.9378 10.6628C12.995 10.4017 13.0599 10.2053 13.1326 10.0725C13.2052 9.94043 13.2871 9.82871 13.3789 9.73774C13.4705 9.64677 13.5352 9.5924 13.5736 9.57336C13.6118 9.55482 13.6425 9.54155 13.6653 9.53353C13.8483 9.4731 14.0641 9.53177 14.3124 9.70941C14.5606 9.88758 14.7935 10.1065 15.0113 10.3676C15.2287 10.6287 15.4903 10.9216 15.7958 11.247C16.1011 11.5722 16.3684 11.8143 16.5976 11.9731L16.8267 12.1097C16.9794 12.2001 17.1778 12.2833 17.4223 12.3593C17.6667 12.4347 17.8807 12.4537 18.0637 12.4159L20.9961 12.3703C21.2862 12.3703 21.5116 12.3232 21.672 12.2285C21.8323 12.1345 21.9277 12.0298 21.9583 11.9165C21.9886 11.8031 21.9907 11.675 21.9641 11.5309C21.9373 11.3873 21.9105 11.2871 21.884 11.2305C21.8572 11.1739 21.8323 11.1263 21.8093 11.0887C21.4275 10.4079 20.6982 9.57181 19.6215 8.58089L19.5985 8.55833L19.5872 8.54682L19.5758 8.53577H19.5643C19.0754 8.07425 18.7663 7.76404 18.6365 7.60495C18.3999 7.30281 18.3462 6.99637 18.4762 6.68621C18.5673 6.451 18.9107 5.95542 19.5064 5.19872Z" fill="#7141B3"/>
</svg>
