<svg width="206" height="206" viewBox="0 0 206 206" fill="none" xmlns="http://www.w3.org/2000/svg">
<path d="M206 103C206 159.885 159.885 206 103 206C46.1147 206 0 159.885 0 103C0 46.1147 46.1147 0 103 0C159.885 0 206 46.1147 206 103ZM17.7602 103C17.7602 150.077 55.9234 188.24 103 188.24C150.077 188.24 188.24 150.077 188.24 103C188.24 55.9234 150.077 17.7602 103 17.7602C55.9234 17.7602 17.7602 55.9234 17.7602 103Z" fill="#4B3485"/>
<path d="M103 0C128.701 3.06476e-07 153.473 9.60822 172.452 26.9378C191.431 44.2675 203.246 68.0664 205.576 93.6611C207.906 119.256 200.583 144.797 185.046 165.269C169.509 185.741 146.879 199.665 121.601 204.307C96.3228 208.948 70.2228 203.971 48.4262 190.354C26.6297 176.737 10.7114 155.463 3.79727 130.71C-3.11682 105.956 -0.527145 79.5128 11.0578 56.5713C22.6427 33.6298 42.3857 15.8482 66.41 6.71827L72.7192 23.3201C52.8374 30.8757 36.4986 45.5913 26.9113 64.577C17.324 83.5626 15.1808 105.447 20.9027 125.932C26.6246 146.417 39.7982 164.022 57.8364 175.292C75.8746 186.561 97.4741 190.679 118.394 186.838C139.313 182.997 158.041 171.474 170.899 154.532C183.757 137.59 189.817 116.453 187.889 95.2714C185.96 74.09 176.183 54.3947 160.476 40.0532C144.77 25.7117 124.269 17.7602 103 17.7602V0Z" fill="#E63114"/>
</svg>
