<svg width="206" height="206" viewBox="0 0 206 206" fill="none" xmlns="http://www.w3.org/2000/svg">
<path d="M206 103C206 159.885 159.885 206 103 206C46.1147 206 0 159.885 0 103C0 46.1147 46.1147 0 103 0C159.885 0 206 46.1147 206 103ZM17.7602 103C17.7602 150.077 55.9234 188.24 103 188.24C150.077 188.24 188.24 150.077 188.24 103C188.24 55.9234 150.077 17.7602 103 17.7602C55.9234 17.7602 17.7602 55.9234 17.7602 103Z" fill="#4B3485"/>
<path d="M103 0C124.995 2.62289e-07 146.413 7.04102 164.117 20.0923C181.822 33.1436 194.883 51.5196 201.39 72.5304C207.897 93.5411 207.507 116.083 200.277 136.856C193.047 157.629 179.357 175.542 161.212 187.973C143.066 200.404 121.418 206.699 99.436 205.938C77.454 205.177 56.2929 197.399 39.0506 183.743C21.8083 170.087 9.3903 151.27 3.61456 130.047C-2.16117 108.824 -0.991295 86.3088 6.95292 65.7984L23.5143 72.2131C16.9399 89.1868 15.9717 107.819 20.7515 125.383C25.5314 142.947 35.8081 158.519 50.0774 169.821C64.3466 181.122 81.8589 187.559 100.051 188.189C118.242 188.819 136.158 183.608 151.174 173.321C166.191 163.034 177.52 148.209 183.503 131.018C189.487 113.827 189.809 95.1721 184.425 77.7842C179.04 60.3964 168.231 45.1889 153.579 34.388C138.927 23.5872 121.203 17.7602 103 17.7602V0Z" fill="#E63114"/>
</svg>
