<svg width="206" height="206" viewBox="0 0 206 206" fill="none" xmlns="http://www.w3.org/2000/svg">
<path d="M206 103C206 159.885 159.885 206 103 206C46.1147 206 0 159.885 0 103C0 46.1147 46.1147 0 103 0C159.885 0 206 46.1147 206 103ZM17.7602 103C17.7602 150.077 55.9234 188.24 103 188.24C150.077 188.24 188.24 150.077 188.24 103C188.24 55.9234 150.077 17.7602 103 17.7602C55.9234 17.7602 17.7602 55.9234 17.7602 103Z" fill="#4B3485"/>
<path d="M103 0C123.371 2.42927e-07 143.285 6.04084 160.224 17.3586C177.162 28.6764 190.364 44.7628 198.16 63.5836C205.955 82.4044 207.995 103.114 204.021 123.094C200.047 143.074 190.237 161.427 175.832 175.832L163.274 163.274C175.195 151.353 183.313 136.164 186.602 119.629C189.891 103.095 188.203 85.9557 181.751 70.3801C175.3 54.8046 164.374 41.492 150.357 32.1257C136.339 22.7594 119.859 17.7602 103 17.7602V0Z" fill="#E63114"/>
</svg>
