<svg width="19" height="22" viewBox="0 0 19 22" fill="none" xmlns="http://www.w3.org/2000/svg">
<path d="M11.3653 2.0995V6.93623C11.3653 7.35394 11.3979 7.6607 11.4632 7.85701C11.5693 8.16013 11.8102 8.31126 12.1857 8.31126C12.5937 8.31126 13.0143 8.05814 13.4469 7.55025V8.22543H14.5616V2.0995H13.4472V6.77669C13.2022 7.12915 12.9697 7.30464 12.7491 7.30464C12.6021 7.30464 12.5163 7.21494 12.492 7.03462C12.4838 7.01843 12.4797 6.87484 12.4797 6.60506V2.0995H11.3653Z" fill="#7141B3"/>
<path d="M8.81794 8.31126C9.38127 8.31126 9.81394 8.10262 10.1161 7.68538C10.3447 7.3827 10.459 6.89949 10.459 6.23664V4.08828C10.459 3.43365 10.3447 2.95503 10.1161 2.6521C9.81394 2.23439 9.38131 2.02575 8.81794 2.02575C8.27077 2.02575 7.8422 2.23439 7.53185 2.6521C7.30322 2.95527 7.18891 3.43389 7.18891 4.08828V6.23664C7.18891 6.89175 7.30322 7.37476 7.53185 7.68538C7.84196 8.10262 8.27073 8.31126 8.81794 8.31126ZM8.29122 3.86712C8.29122 3.30263 8.46681 3.02032 8.8179 3.02032C9.1688 3.02032 9.34459 3.30267 9.34459 3.86712V6.44528C9.34459 7.01847 9.1688 7.30468 8.8179 7.30468C8.46677 7.30468 8.29122 7.01847 8.29122 6.44528V3.86712Z" fill="#7141B3"/>
<path d="M5.69495 8.22543V4.89858L7.17685 0H5.92763L5.09493 3.22892L4.22507 0H2.92691C3.15554 0.687773 3.42082 1.45312 3.72297 2.29558C4.10666 3.42547 4.35554 4.29281 4.47009 4.89862V8.22523H5.69491L5.69495 8.22543Z" fill="#7141B3"/>
<path d="M17.1275 10.1528C16.7641 9.82577 16.3457 9.63356 15.8723 9.57581C14.3699 9.4124 12.1042 9.3302 9.07526 9.3302C6.04609 9.3302 3.78448 9.41216 2.29029 9.57581C1.80845 9.63336 1.38812 9.82577 1.02878 10.1528C0.669449 10.4809 0.432665 10.8855 0.318352 11.3685C0.105881 12.3181 0 13.7499 0 15.6654C0 17.6133 0.106117 19.0454 0.318352 19.9624C0.42443 20.4448 0.659086 20.85 1.02252 21.1776C1.38571 21.5051 1.80411 21.6932 2.27772 21.7425C3.77991 21.9142 6.04557 22 9.07502 22C12.1042 22 14.3699 21.9142 15.872 21.7425C16.3455 21.6932 16.7619 21.5051 17.1212 21.1776C17.4803 20.85 17.7171 20.4448 17.8317 19.9624C18.0439 19.0128 18.15 17.5805 18.15 15.6654C18.15 13.7175 18.0439 12.2854 17.8317 11.3685C17.7253 10.8855 17.4907 10.4809 17.1275 10.1528ZM3.87007 12.6082V19.5937H2.64545V12.6082H1.35963V11.4543H5.18079V12.6082H3.87007ZM7.397 19.5937V18.9304C6.95614 19.4296 6.53971 19.6795 6.14779 19.6795C5.77206 19.6795 5.53548 19.528 5.43736 19.2253C5.37199 19.0288 5.33944 18.7305 5.33944 18.329V13.5287H6.4295V17.9978C6.4295 18.2596 6.43359 18.4029 6.44179 18.4273C6.46638 18.599 6.552 18.6848 6.6991 18.6848C6.91953 18.6848 7.15226 18.5132 7.39728 18.1692V13.5287H8.4873V19.5937H7.397ZM12.6511 17.7768C12.6511 18.3744 12.6144 18.7834 12.5409 19.0044C12.402 19.4543 12.1123 19.6795 11.6713 19.6795C11.2794 19.6795 10.8998 19.4543 10.5323 19.0044V19.5937H9.44227V11.4543H10.5323V14.1183C10.8832 13.6766 11.263 13.4555 11.6713 13.4555C12.1121 13.4555 12.402 13.6846 12.5409 14.1427C12.6144 14.3557 12.6511 14.7608 12.6511 15.3584V17.7768ZM16.7906 16.7702H14.5985V17.8382C14.5985 18.4031 14.7861 18.685 15.1618 18.685C15.4312 18.685 15.5944 18.5378 15.6516 18.2434C15.6678 18.1614 15.6762 17.9119 15.6762 17.4942H16.7906V17.654C16.7906 18.0553 16.7824 18.2922 16.766 18.3661C16.7414 18.5874 16.6558 18.8078 16.5089 19.029C16.215 19.4624 15.7742 19.6798 15.1862 19.6798C14.6229 19.6798 14.1818 19.4711 13.8635 19.0534C13.6266 18.7508 13.5082 18.2765 13.5082 17.6296V15.5056C13.5082 14.8592 13.6225 14.3845 13.8512 14.0813C14.1695 13.6641 14.6062 13.4554 15.1616 13.4554C15.7086 13.4554 16.1414 13.664 16.4597 14.0813C16.6802 14.3845 16.7904 14.8592 16.7904 15.5056V16.7702H16.7906Z" fill="#7141B3"/>
<path d="M15.1495 14.4495C14.782 14.4495 14.5985 14.728 14.5985 15.2845V15.8495H15.7008V15.2845C15.7006 14.7282 15.517 14.4495 15.1495 14.4495Z" fill="#7141B3"/>
<path d="M11.0836 14.4495C10.8957 14.4495 10.712 14.5397 10.5326 14.72V18.415C10.712 18.5953 10.8958 18.685 11.0836 18.685C11.4019 18.685 11.5613 18.4112 11.5613 17.8627V15.2725C11.5611 14.7239 11.4019 14.4495 11.0836 14.4495Z" fill="#7141B3"/>
</svg>
