<svg width="55" height="52" viewBox="0 0 55 52" fill="none" xmlns="http://www.w3.org/2000/svg">
<rect x="0.5" y="0.5" width="54" height="51" rx="9.5" stroke="url(#paint0_linear_20_18)"/>
<path d="M29.9975 18.6621V22.4912C29.9975 22.8219 30.0233 23.0647 30.075 23.2201C30.159 23.4601 30.3498 23.5797 30.647 23.5797C30.97 23.5797 31.303 23.3794 31.6455 22.9773V23.5118H32.5279V18.6621H31.6457V22.3649C31.4517 22.6439 31.2677 22.7828 31.093 22.7828C30.9767 22.7828 30.9088 22.7118 30.8895 22.5691C30.883 22.5563 30.8797 22.4426 30.8797 22.229V18.6621H29.9975Z" fill="white" fill-opacity="0.7"/>
<path d="M27.9809 23.5797C28.4268 23.5797 28.7694 23.4146 29.0086 23.0843C29.1896 22.8446 29.2801 22.4621 29.2801 21.9373V20.2366C29.2801 19.7183 29.1896 19.3394 29.0086 19.0996C28.7694 18.7689 28.4269 18.6037 27.9809 18.6037C27.5477 18.6037 27.2084 18.7689 26.9627 19.0996C26.7817 19.3396 26.6912 19.7185 26.6912 20.2366V21.9373C26.6912 22.456 26.7817 22.8383 26.9627 23.0843C27.2082 23.4146 27.5477 23.5797 27.9809 23.5797ZM27.5639 20.0615C27.5639 19.6146 27.7029 19.3911 27.9808 19.3911C28.2586 19.3911 28.3978 19.6146 28.3978 20.0615V22.1025C28.3978 22.5563 28.2586 22.7829 27.9808 22.7829C27.7029 22.7829 27.5639 22.5563 27.5639 22.1025V20.0615Z" fill="white" fill-opacity="0.7"/>
<path d="M25.5085 23.5118V20.878L26.6817 17H25.6927L25.0335 19.5562L24.3448 17H23.3171C23.4981 17.5445 23.7081 18.1504 23.9474 18.8173C24.2511 19.7118 24.4481 20.3985 24.5388 20.8781V23.5116H25.5085L25.5085 23.5118Z" fill="white" fill-opacity="0.7"/>
<path d="M34.5593 25.0377C34.2715 24.7787 33.9403 24.6266 33.5656 24.5808C32.3762 24.4515 30.5825 24.3864 28.1846 24.3864C25.7865 24.3864 23.996 24.4513 22.8131 24.5808C22.4317 24.6264 22.0989 24.7787 21.8145 25.0377C21.53 25.2974 21.3425 25.6177 21.252 26.0001C21.0838 26.7518 21 27.8853 21 29.4018C21 30.9439 21.084 32.0776 21.252 32.8035C21.336 33.1855 21.5218 33.5062 21.8095 33.7656C22.097 34.0249 22.4283 34.1738 22.8032 34.2128C23.9924 34.3487 25.7861 34.4167 28.1844 34.4167C30.5825 34.4167 32.3762 34.3487 33.5654 34.2128C33.9402 34.1738 34.2699 34.0249 34.5543 33.7656C34.8386 33.5062 35.0261 33.1855 35.1168 32.8035C35.2848 32.0518 35.3687 30.9179 35.3687 29.4018C35.3687 27.8597 35.2848 26.726 35.1168 26.0001C35.0326 25.6177 34.8468 25.2974 34.5593 25.0377ZM24.0638 26.9815V32.5117H23.0943V26.9815H22.0764V26.068H25.1015V26.9815H24.0638ZM26.856 32.5117V31.9866C26.5069 32.3818 26.1773 32.5796 25.867 32.5796C25.5696 32.5796 25.3823 32.4596 25.3046 32.22C25.2528 32.0644 25.2271 31.8283 25.2271 31.5104V27.7102H26.09V31.2482C26.09 31.4555 26.0933 31.569 26.0997 31.5883C26.1192 31.7242 26.187 31.7921 26.3035 31.7921C26.478 31.7921 26.6622 31.6563 26.8562 31.3839V27.7102H27.7191V32.5117H26.856ZM31.0155 31.0733C31.0155 31.5464 30.9864 31.8702 30.9282 32.0451C30.8183 32.4013 30.5889 32.5796 30.2398 32.5796C29.9296 32.5796 29.629 32.4013 29.3381 32.0451V32.5117H28.4751V26.068H29.3381V28.177C29.6159 27.8273 29.9166 27.6522 30.2398 27.6522C30.5888 27.6522 30.8183 27.8337 30.9282 28.1963C30.9864 28.3649 31.0155 28.6856 31.0155 29.1587V31.0733ZM34.2926 30.2764H32.5571V31.1219C32.5571 31.5691 32.7057 31.7923 33.0031 31.7923C33.2164 31.7923 33.3456 31.6758 33.3909 31.4427C33.4037 31.3778 33.4103 31.1803 33.4103 30.8496H34.2926V30.9761C34.2926 31.2937 34.2861 31.4813 34.2731 31.5398C34.2536 31.715 34.1858 31.8895 34.0696 32.0646C33.8369 32.4078 33.4879 32.5798 33.0224 32.5798C32.5764 32.5798 32.2272 32.4146 31.9752 32.084C31.7878 31.8444 31.694 31.4689 31.694 30.9567V29.2753C31.694 28.7636 31.7845 28.3877 31.9655 28.1477C32.2175 27.8174 32.5632 27.6522 33.0029 27.6522C33.4359 27.6522 33.7786 27.8173 34.0306 28.1477C34.2051 28.3877 34.2924 28.7635 34.2924 29.2753V30.2764H34.2926Z" fill="white" fill-opacity="0.7"/>
<path d="M32.9934 28.4392C32.7024 28.4392 32.5572 28.6597 32.5572 29.1002V29.5475H33.4298V29.1002C33.4296 28.6598 33.2843 28.4392 32.9934 28.4392Z" fill="white" fill-opacity="0.7"/>
<path d="M29.7745 28.4392C29.6258 28.4392 29.4803 28.5106 29.3383 28.6534V31.5786C29.4803 31.7213 29.6258 31.7923 29.7745 31.7923C30.0265 31.7923 30.1527 31.5755 30.1527 31.1413V29.0907C30.1525 28.6564 30.0265 28.4392 29.7745 28.4392Z" fill="white" fill-opacity="0.7"/>
<defs>
<linearGradient id="paint0_linear_20_18" x1="27.5" y1="0" x2="27.5" y2="52" gradientUnits="userSpaceOnUse">
<stop stop-color="#5418A3"/>
<stop offset="1" stop-color="#5418A3" stop-opacity="0.76"/>
</linearGradient>
</defs>
</svg>
