<svg width="373" height="320" viewBox="0 0 373 320" fill="none" xmlns="http://www.w3.org/2000/svg">
<path d="M0 320L141 199.69L141 144.491L-4.71903e-06 0L0 320Z" fill="url(#paint0_linear_24_38)"/>
<path d="M99.5495 170C99.2428 170.002 98.9426 169.911 98.6872 169.739C98.4319 169.567 98.233 169.321 98.1161 169.034C97.9993 168.746 97.9698 168.43 98.0314 168.125C98.093 167.821 98.2429 167.542 98.4619 167.324L101.774 163.982L98.4619 160.625C98.1901 160.329 98.0421 159.938 98.0491 159.533C98.0562 159.129 98.2177 158.743 98.4997 158.457C98.7816 158.171 99.162 158.007 99.5607 158C99.9594 157.993 100.345 158.143 100.637 158.419L105.913 163.771C105.941 163.799 105.963 163.831 105.977 163.868C105.992 163.904 106 163.943 106 163.982C106 164.021 105.992 164.06 105.977 164.096C105.963 164.133 105.941 164.165 105.913 164.193L100.637 169.545C100.348 169.837 99.957 170 99.5495 170Z" fill="white"/>
<path d="M18.75 158V146.364H26.9318V148.909H21.9091V150.273H23.0909C24.0682 150.273 24.9223 150.43 25.6534 150.744C26.3883 151.059 26.9583 151.502 27.3636 152.074C27.7727 152.646 27.9773 153.318 27.9773 154.091C27.9773 154.864 27.7727 155.544 27.3636 156.131C26.9583 156.718 26.3883 157.176 25.6534 157.506C24.9223 157.835 24.0682 158 23.0909 158H18.75ZM21.9091 155.523H23.0909C23.4697 155.523 23.7879 155.46 24.0455 155.335C24.3068 155.21 24.5038 155.038 24.6364 154.818C24.7727 154.598 24.8409 154.348 24.8409 154.068C24.8409 153.67 24.6913 153.341 24.392 153.08C24.0928 152.814 23.6591 152.682 23.0909 152.682H21.9091V155.523ZM32.0938 154L34.5256 149.273H37.4801V158H34.5256V153.25L32.0938 158H29.1392V149.273H32.0938V154ZM38.6903 155.364H41.6449C41.6449 155.583 41.7396 155.763 41.929 155.903C42.1222 156.044 42.3684 156.114 42.6676 156.114C42.9669 156.114 43.2112 156.036 43.4006 155.881C43.5938 155.722 43.6903 155.519 43.6903 155.273C43.6903 155.117 43.6506 154.981 43.571 154.864C43.4915 154.742 43.3816 154.648 43.2415 154.58C43.1013 154.511 42.9403 154.477 42.7585 154.477H41.6676V152.636H42.7585C43.0275 152.636 43.2453 152.572 43.4119 152.443C43.5824 152.314 43.6676 152.152 43.6676 151.955C43.6676 151.727 43.5843 151.542 43.4176 151.398C43.2509 151.254 43.0388 151.182 42.7812 151.182C42.5237 151.182 42.3116 151.241 42.1449 151.358C41.9782 151.475 41.8949 151.629 41.8949 151.818H38.9403C38.9403 151.258 39.107 150.78 39.4403 150.386C39.7737 149.989 40.2206 149.686 40.7812 149.477C41.3419 149.265 41.9631 149.159 42.6449 149.159C43.4252 149.159 44.0956 149.254 44.6562 149.443C45.2169 149.633 45.6468 149.911 45.946 150.278C46.2453 150.646 46.3949 151.098 46.3949 151.636C46.3949 152.08 46.2339 152.46 45.9119 152.778C45.59 153.093 45.1146 153.318 44.4858 153.455V153.545C44.8608 153.564 45.2093 153.653 45.5312 153.812C45.857 153.972 46.1203 154.199 46.321 154.494C46.5218 154.79 46.6222 155.155 46.6222 155.591C46.6222 156.136 46.4517 156.6 46.1108 156.983C45.7737 157.366 45.3078 157.657 44.7131 157.858C44.1184 158.059 43.4366 158.159 42.6676 158.159C41.9176 158.159 41.2472 158.059 40.6562 157.858C40.0653 157.653 39.5956 157.345 39.2472 156.932C38.8987 156.515 38.7131 155.992 38.6903 155.364ZM54.0696 152.432V154.773H49.6832V152.432H54.0696ZM50.7969 149.273V158H47.8423V149.273H50.7969ZM55.9105 149.273V158H52.9787V149.273H55.9105ZM61.5866 158.159C60.6548 158.159 59.8518 157.981 59.1776 157.625C58.5071 157.265 57.9901 156.75 57.6264 156.08C57.2666 155.405 57.0866 154.598 57.0866 153.659C57.0866 152.758 57.2685 151.97 57.6321 151.295C57.9957 150.621 58.509 150.097 59.1719 149.722C59.8348 149.347 60.617 149.159 61.5185 149.159C62.1776 149.159 62.7741 149.261 63.3082 149.466C63.8423 149.67 64.2988 149.968 64.6776 150.358C65.0563 150.744 65.348 151.214 65.5526 151.767C65.7571 152.32 65.8594 152.943 65.8594 153.636V154.364H58.0639V152.636H62.973C62.9692 152.386 62.9048 152.167 62.7798 151.977C62.6586 151.784 62.4938 151.634 62.2855 151.528C62.081 151.419 61.848 151.364 61.5866 151.364C61.3329 151.364 61.0999 151.419 60.8878 151.528C60.6757 151.634 60.5052 151.782 60.3764 151.972C60.2514 152.161 60.1851 152.383 60.1776 152.636V154.5C60.1776 154.78 60.2363 155.03 60.3537 155.25C60.4711 155.47 60.6397 155.642 60.8594 155.767C61.0791 155.892 61.3442 155.955 61.6548 155.955C61.8707 155.955 62.0677 155.924 62.2457 155.864C62.4276 155.803 62.5829 155.716 62.7116 155.602C62.8404 155.485 62.9351 155.345 62.9957 155.182H65.8594C65.7609 155.788 65.5279 156.314 65.1605 156.761C64.7931 157.205 64.3063 157.549 63.7003 157.795C63.098 158.038 62.3935 158.159 61.5866 158.159ZM71.3438 158.159C70.3968 158.159 69.5862 157.972 68.9119 157.597C68.2377 157.218 67.7206 156.691 67.3608 156.017C67.0009 155.339 66.821 154.553 66.821 153.659C66.821 152.765 67.0009 151.981 67.3608 151.307C67.7206 150.629 68.2377 150.102 68.9119 149.727C69.5862 149.348 70.3968 149.159 71.3438 149.159C72.1998 149.159 72.9403 149.314 73.5653 149.625C74.1941 149.932 74.6809 150.367 75.0256 150.932C75.3703 151.492 75.5445 152.152 75.5483 152.909H72.6392C72.5975 152.451 72.465 152.102 72.2415 151.864C72.0218 151.621 71.7377 151.5 71.3892 151.5C71.1165 151.5 70.8778 151.58 70.6733 151.739C70.4688 151.894 70.3097 152.131 70.196 152.449C70.0824 152.763 70.0256 153.159 70.0256 153.636C70.0256 154.114 70.0824 154.511 70.196 154.83C70.3097 155.144 70.4688 155.381 70.6733 155.54C70.8778 155.695 71.1165 155.773 71.3892 155.773C71.6203 155.773 71.8248 155.72 72.0028 155.614C72.1809 155.504 72.3248 155.345 72.4347 155.136C72.5483 154.924 72.6165 154.667 72.6392 154.364H75.5483C75.5369 155.133 75.3608 155.803 75.0199 156.375C74.679 156.943 74.196 157.383 73.571 157.693C72.9498 158.004 72.2074 158.159 71.3438 158.159ZM26.9318 168.273V177H24V168.273H26.9318ZM25.4091 171.886V174.227C25.303 174.295 25.1193 174.364 24.858 174.432C24.6004 174.496 24.3277 174.551 24.0398 174.597C23.7557 174.638 23.5227 174.659 23.3409 174.659C21.9091 174.659 20.7936 174.405 19.9943 173.898C19.1951 173.39 18.7955 172.545 18.7955 171.364V168.273H21.7045V171.364C21.7045 171.629 21.7424 171.83 21.8182 171.966C21.8977 172.102 22.053 172.195 22.2841 172.244C22.5189 172.294 22.8712 172.318 23.3409 172.318C23.625 172.318 23.9318 172.284 24.2614 172.216C24.5947 172.144 24.9773 172.034 25.4091 171.886ZM30.8679 177.136C30.3111 177.136 29.8187 177.045 29.3906 176.864C28.9664 176.678 28.633 176.398 28.3906 176.023C28.1482 175.648 28.027 175.17 28.027 174.591C28.027 174.114 28.1084 173.706 28.2713 173.369C28.4342 173.028 28.6615 172.75 28.9531 172.534C29.2448 172.318 29.5838 172.153 29.9702 172.04C30.3603 171.926 30.7808 171.852 31.2315 171.818C31.7202 171.78 32.1122 171.735 32.4077 171.682C32.7069 171.625 32.9228 171.547 33.0554 171.449C33.188 171.347 33.2543 171.212 33.2543 171.045V171.023C33.2543 170.795 33.1671 170.621 32.9929 170.5C32.8187 170.379 32.5952 170.318 32.3224 170.318C32.0232 170.318 31.7789 170.384 31.5895 170.517C31.4039 170.646 31.2921 170.845 31.2543 171.114H28.3679C28.4058 170.583 28.5743 170.095 28.8736 169.648C29.1766 169.197 29.6179 168.837 30.1974 168.568C30.777 168.295 31.5005 168.159 32.3679 168.159C32.9929 168.159 33.5535 168.233 34.0497 168.381C34.5459 168.525 34.9683 168.727 35.3168 168.989C35.6652 169.246 35.9304 169.549 36.1122 169.898C36.2978 170.242 36.3906 170.617 36.3906 171.023V177H33.4588V175.773H33.3906C33.2164 176.098 33.0043 176.362 32.7543 176.562C32.508 176.763 32.2259 176.909 31.9077 177C31.5933 177.091 31.2467 177.136 30.8679 177.136ZM31.8906 175.159C32.1293 175.159 32.3527 175.11 32.5611 175.011C32.7732 174.913 32.9455 174.771 33.0781 174.585C33.2107 174.4 33.277 174.174 33.277 173.909V173.182C33.1937 173.216 33.1046 173.248 33.0099 173.278C32.919 173.309 32.8205 173.337 32.7145 173.364C32.6122 173.39 32.5024 173.415 32.3849 173.438C32.2713 173.46 32.152 173.481 32.027 173.5C31.7846 173.538 31.5857 173.6 31.4304 173.688C31.2789 173.771 31.1652 173.875 31.0895 174C31.0175 174.121 30.9815 174.258 30.9815 174.409C30.9815 174.652 31.0668 174.837 31.2372 174.966C31.4077 175.095 31.6255 175.159 31.8906 175.159ZM42.0938 177.159C41.1468 177.159 40.3362 176.972 39.6619 176.597C38.9877 176.218 38.4706 175.691 38.1108 175.017C37.7509 174.339 37.571 173.553 37.571 172.659C37.571 171.765 37.7509 170.981 38.1108 170.307C38.4706 169.629 38.9877 169.102 39.6619 168.727C40.3362 168.348 41.1468 168.159 42.0938 168.159C42.9498 168.159 43.6903 168.314 44.3153 168.625C44.9441 168.932 45.4309 169.367 45.7756 169.932C46.1203 170.492 46.2945 171.152 46.2983 171.909H43.3892C43.3475 171.451 43.215 171.102 42.9915 170.864C42.7718 170.621 42.4877 170.5 42.1392 170.5C41.8665 170.5 41.6278 170.58 41.4233 170.739C41.2188 170.894 41.0597 171.131 40.946 171.449C40.8324 171.763 40.7756 172.159 40.7756 172.636C40.7756 173.114 40.8324 173.511 40.946 173.83C41.0597 174.144 41.2188 174.381 41.4233 174.54C41.6278 174.695 41.8665 174.773 42.1392 174.773C42.3703 174.773 42.5748 174.72 42.7528 174.614C42.9309 174.504 43.0748 174.345 43.1847 174.136C43.2983 173.924 43.3665 173.667 43.3892 173.364H46.2983C46.2869 174.133 46.1108 174.803 45.7699 175.375C45.429 175.943 44.946 176.383 44.321 176.693C43.6998 177.004 42.9574 177.159 42.0938 177.159ZM47.0668 170.614V168.273H55.5213V170.614H52.7486V177H49.794V170.614H47.0668ZM59.6406 173L62.0724 168.273H65.027V177H62.0724V172.25L59.6406 177H56.6861V168.273H59.6406V173ZM74.7599 168.273V175.045H76.2599V179.795H73.2372V177H66.6236V168.273H69.5781V174.659H71.8509V168.273H74.7599ZM79.1236 170.636H81.8054C83.0516 170.636 84.0327 170.924 84.7486 171.5C85.4645 172.072 85.8243 172.86 85.8281 173.864C85.8243 174.511 85.6596 175.07 85.3338 175.54C85.0118 176.009 84.5497 176.371 83.9474 176.625C83.349 176.875 82.6349 177 81.8054 177H77.3736V168.273H80.3281V174.659H81.8054C82.1274 174.659 82.3925 174.583 82.6009 174.432C82.8092 174.277 82.9152 174.08 82.919 173.841C82.9152 173.587 82.8092 173.381 82.6009 173.222C82.3925 173.059 82.1274 172.977 81.8054 172.977H79.1236V170.636ZM86.4645 177V168.273H89.6009V177H86.4645Z" fill="white"/>
<path d="M244 199L141 199L141 144L244 144L244 199Z" fill="url(#paint1_linear_24_38)"/>
<path d="M244 199L380 178.556L380 163.527L244 144L244 199Z" fill="url(#paint2_linear_24_38)"/>
<path d="M313 224.451C313.002 224.757 312.911 225.057 312.739 225.313C312.567 225.568 312.321 225.767 312.034 225.884C311.746 226.001 311.43 226.03 311.125 225.969C310.821 225.907 310.542 225.757 310.324 225.538L306.982 222.226L303.625 225.538C303.329 225.81 302.938 225.958 302.533 225.951C302.129 225.944 301.743 225.782 301.457 225.5C301.171 225.218 301.007 224.838 301 224.439C300.993 224.041 301.143 223.655 301.419 223.363L306.771 218.087C306.799 218.059 306.831 218.037 306.868 218.023C306.904 218.008 306.943 218 306.982 218C307.021 218 307.06 218.008 307.096 218.023C307.133 218.037 307.165 218.059 307.193 218.087L312.545 223.363C312.837 223.652 313 224.043 313 224.451Z" fill="white"/>
<path d="M189 117.549C188.998 117.243 189.089 116.943 189.261 116.687C189.433 116.432 189.679 116.233 189.966 116.116C190.254 115.999 190.57 115.97 190.875 116.031C191.179 116.093 191.458 116.243 191.676 116.462L195.018 119.774L198.375 116.462C198.671 116.19 199.062 116.042 199.467 116.049C199.871 116.056 200.257 116.218 200.543 116.5C200.829 116.782 200.993 117.162 201 117.561C201.007 117.959 200.857 118.345 200.581 118.637L195.229 123.913C195.201 123.941 195.169 123.963 195.132 123.977C195.096 123.992 195.057 124 195.018 124C194.979 124 194.94 123.992 194.904 123.977C194.867 123.963 194.835 123.941 194.807 123.913L189.455 118.637C189.163 118.348 189 117.957 189 117.549Z" fill="white"/>
<path d="M284.854 247.364V259H281.74V249.864H277.808V259H274.695V247.364H284.854ZM289.875 255L292.307 250.273H295.261V259H292.307V254.25L289.875 259H286.92V250.273H289.875V255ZM304.631 247.114L305.403 249.205C305.169 249.371 304.919 249.502 304.653 249.597C304.388 249.687 304.057 249.752 303.659 249.79C303.261 249.824 302.744 249.841 302.108 249.841C301.388 249.841 300.809 249.924 300.369 250.091C299.93 250.258 299.598 250.54 299.375 250.938C299.152 251.335 299.002 251.879 298.926 252.568H298.994C299.233 252.045 299.574 251.627 300.017 251.312C300.464 250.998 301.07 250.841 301.835 250.841C302.619 250.841 303.295 251.008 303.864 251.341C304.432 251.67 304.867 252.134 305.17 252.733C305.477 253.331 305.631 254.034 305.631 254.841C305.631 255.712 305.451 256.472 305.091 257.119C304.731 257.767 304.214 258.269 303.54 258.625C302.866 258.981 302.055 259.159 301.108 259.159C300.161 259.159 299.35 258.973 298.676 258.602C298.002 258.231 297.485 257.686 297.125 256.966C296.765 256.246 296.585 255.364 296.585 254.318V253.75C296.585 251.538 297.045 249.92 297.966 248.898C298.89 247.875 300.233 247.364 301.994 247.364C302.403 247.364 302.775 247.364 303.108 247.364C303.445 247.364 303.741 247.347 303.994 247.312C304.252 247.278 304.464 247.212 304.631 247.114ZM301.131 256.841C301.396 256.841 301.625 256.769 301.818 256.625C302.011 256.477 302.161 256.265 302.267 255.989C302.373 255.708 302.426 255.371 302.426 254.977C302.426 254.576 302.373 254.235 302.267 253.955C302.161 253.674 302.011 253.46 301.818 253.312C301.625 253.165 301.396 253.091 301.131 253.091C300.922 253.091 300.735 253.133 300.568 253.216C300.402 253.299 300.259 253.422 300.142 253.585C300.028 253.744 299.941 253.941 299.881 254.176C299.82 254.407 299.79 254.674 299.79 254.977C299.79 255.568 299.907 256.027 300.142 256.352C300.381 256.678 300.71 256.841 301.131 256.841ZM308.702 252.636H311.384C312.63 252.636 313.611 252.924 314.327 253.5C315.043 254.072 315.402 254.86 315.406 255.864C315.402 256.511 315.238 257.07 314.912 257.54C314.59 258.009 314.128 258.371 313.526 258.625C312.927 258.875 312.213 259 311.384 259H306.952V250.273H309.906V256.659H311.384C311.705 256.659 311.971 256.583 312.179 256.432C312.387 256.277 312.493 256.08 312.497 255.841C312.493 255.587 312.387 255.381 312.179 255.222C311.971 255.059 311.705 254.977 311.384 254.977H308.702V252.636ZM316.043 259V250.273H319.179V259H316.043ZM320.423 259L320.401 256.636H320.673C320.844 256.636 320.993 256.587 321.122 256.489C321.255 256.39 321.366 256.239 321.457 256.034C321.552 255.83 321.626 255.57 321.679 255.256C321.736 254.941 321.772 254.568 321.787 254.136L321.923 250.273H329.105V259H326.151V252.614H324.696L324.56 254.977C324.522 255.72 324.416 256.348 324.241 256.864C324.071 257.379 323.844 257.794 323.56 258.108C323.276 258.419 322.946 258.646 322.571 258.79C322.196 258.93 321.783 259 321.332 259H320.423ZM332.358 252.636H335.04C336.286 252.636 337.267 252.924 337.983 253.5C338.699 254.072 339.059 254.86 339.062 255.864C339.059 256.511 338.894 257.07 338.568 257.54C338.246 258.009 337.784 258.371 337.182 258.625C336.583 258.875 335.869 259 335.04 259H330.608V250.273H333.562V256.659H335.04C335.362 256.659 335.627 256.583 335.835 256.432C336.044 256.277 336.15 256.08 336.153 255.841C336.15 255.587 336.044 255.381 335.835 255.222C335.627 255.059 335.362 254.977 335.04 254.977H332.358V252.636ZM266.975 278V269.273H270.112V272.386H270.657L272.521 269.273H276.112L273.316 273.682L276.134 278H272.498L270.816 275.295H270.112V278H266.975ZM280.711 278.159C279.764 278.159 278.953 277.972 278.279 277.597C277.605 277.218 277.088 276.691 276.728 276.017C276.368 275.339 276.188 274.553 276.188 273.659C276.188 272.765 276.368 271.981 276.728 271.307C277.088 270.629 277.605 270.102 278.279 269.727C278.953 269.348 279.764 269.159 280.711 269.159C281.658 269.159 282.469 269.348 283.143 269.727C283.817 270.102 284.334 270.629 284.694 271.307C285.054 271.981 285.234 272.765 285.234 273.659C285.234 274.553 285.054 275.339 284.694 276.017C284.334 276.691 283.817 277.218 283.143 277.597C282.469 277.972 281.658 278.159 280.711 278.159ZM280.734 275.841C280.999 275.841 281.228 275.752 281.421 275.574C281.614 275.396 281.764 275.142 281.87 274.812C281.976 274.483 282.029 274.091 282.029 273.636C282.029 273.178 281.976 272.786 281.87 272.46C281.764 272.131 281.614 271.877 281.421 271.699C281.228 271.521 280.999 271.432 280.734 271.432C280.453 271.432 280.213 271.521 280.012 271.699C279.811 271.877 279.658 272.131 279.552 272.46C279.446 272.786 279.393 273.178 279.393 273.636C279.393 274.091 279.446 274.483 279.552 274.812C279.658 275.142 279.811 275.396 280.012 275.574C280.213 275.752 280.453 275.841 280.734 275.841ZM291.915 274.75L293.825 269.273H296.052L292.893 278H290.938L287.87 269.273H290.097L291.915 274.75ZM289.461 269.273V278H286.506V269.273H289.461ZM294.575 278V269.273H297.484V278H294.575ZM298.991 278V269.273H307.127V278H304.173V271.614H301.9V278H298.991ZM311.157 278.136C310.6 278.136 310.108 278.045 309.68 277.864C309.255 277.678 308.922 277.398 308.68 277.023C308.437 276.648 308.316 276.17 308.316 275.591C308.316 275.114 308.397 274.706 308.56 274.369C308.723 274.028 308.951 273.75 309.242 273.534C309.534 273.318 309.873 273.153 310.259 273.04C310.649 272.926 311.07 272.852 311.521 272.818C312.009 272.78 312.401 272.735 312.697 272.682C312.996 272.625 313.212 272.547 313.344 272.449C313.477 272.347 313.543 272.212 313.543 272.045V272.023C313.543 271.795 313.456 271.621 313.282 271.5C313.108 271.379 312.884 271.318 312.612 271.318C312.312 271.318 312.068 271.384 311.879 271.517C311.693 271.646 311.581 271.845 311.543 272.114H308.657C308.695 271.583 308.863 271.095 309.163 270.648C309.466 270.197 309.907 269.837 310.487 269.568C311.066 269.295 311.79 269.159 312.657 269.159C313.282 269.159 313.843 269.233 314.339 269.381C314.835 269.525 315.257 269.727 315.606 269.989C315.954 270.246 316.219 270.549 316.401 270.898C316.587 271.242 316.68 271.617 316.68 272.023V278H313.748V276.773H313.68C313.505 277.098 313.293 277.362 313.043 277.562C312.797 277.763 312.515 277.909 312.197 278C311.882 278.091 311.536 278.136 311.157 278.136ZM312.18 276.159C312.418 276.159 312.642 276.11 312.85 276.011C313.062 275.913 313.235 275.771 313.367 275.585C313.5 275.4 313.566 275.174 313.566 274.909V274.182C313.483 274.216 313.394 274.248 313.299 274.278C313.208 274.309 313.11 274.337 313.004 274.364C312.901 274.39 312.791 274.415 312.674 274.438C312.56 274.46 312.441 274.481 312.316 274.5C312.074 274.538 311.875 274.6 311.719 274.688C311.568 274.771 311.454 274.875 311.379 275C311.307 275.121 311.271 275.258 311.271 275.409C311.271 275.652 311.356 275.837 311.526 275.966C311.697 276.095 311.915 276.159 312.18 276.159ZM324.406 272.432V274.773H320.019V272.432H324.406ZM321.133 269.273V278H318.178V269.273H321.133ZM326.246 269.273V278H323.315V269.273H326.246ZM330.695 274L333.127 269.273H336.082V278H333.127V273.25L330.695 278H327.741V269.273H330.695V274ZM340.633 274L343.065 269.273H346.019V278H343.065V273.25L340.633 278H337.678V269.273H340.633V274ZM342.974 266.136H344.951C344.947 266.875 344.665 267.466 344.104 267.909C343.544 268.348 342.788 268.568 341.837 268.568C340.879 268.568 340.12 268.348 339.559 267.909C338.998 267.466 338.72 266.875 338.724 266.136H340.678C340.674 266.375 340.76 266.595 340.934 266.795C341.112 266.992 341.413 267.091 341.837 267.091C342.243 267.091 342.532 266.994 342.707 266.801C342.881 266.608 342.97 266.386 342.974 266.136Z" fill="white"/>
<path d="M153.437 68.1818C153.437 69.4773 153.185 70.5701 152.681 71.4602C152.177 72.3466 151.497 73.0189 150.641 73.4773C149.785 73.9318 148.831 74.1591 147.778 74.1591C146.717 74.1591 145.759 73.9299 144.903 73.4716C144.05 73.0095 143.372 72.3352 142.869 71.4489C142.369 70.5587 142.119 69.4697 142.119 68.1818C142.119 66.8864 142.369 65.7955 142.869 64.9091C143.372 64.0189 144.05 63.3466 144.903 62.892C145.759 62.4337 146.717 62.2045 147.778 62.2045C148.831 62.2045 149.785 62.4337 150.641 62.892C151.497 63.3466 152.177 64.0189 152.681 64.9091C153.185 65.7955 153.437 66.8864 153.437 68.1818ZM150.187 68.1818C150.187 67.4848 150.094 66.8977 149.908 66.4205C149.727 65.9394 149.456 65.5758 149.096 65.3295C148.74 65.0795 148.3 64.9545 147.778 64.9545C147.255 64.9545 146.814 65.0795 146.454 65.3295C146.098 65.5758 145.827 65.9394 145.641 66.4205C145.46 66.8977 145.369 67.4848 145.369 68.1818C145.369 68.8788 145.46 69.4678 145.641 69.9489C145.827 70.4261 146.098 70.7898 146.454 71.0398C146.814 71.286 147.255 71.4091 147.778 71.4091C148.3 71.4091 148.74 71.286 149.096 71.0398C149.456 70.7898 149.727 70.4261 149.908 69.9489C150.094 69.4678 150.187 68.8788 150.187 68.1818ZM161.308 65.2727V67.6136H157.967V74H154.944V65.2727H161.308ZM162.46 77.2727V65.2727H165.573V66.7955H165.641C165.755 66.5 165.922 66.2292 166.141 65.983C166.361 65.733 166.634 65.5341 166.96 65.3864C167.285 65.2348 167.664 65.1591 168.096 65.1591C168.672 65.1591 169.219 65.3125 169.738 65.6193C170.261 65.9261 170.685 66.4091 171.011 67.0682C171.34 67.7273 171.505 68.5833 171.505 69.6364C171.505 70.6439 171.348 71.4792 171.033 72.142C170.723 72.8049 170.306 73.2992 169.783 73.625C169.264 73.9508 168.694 74.1136 168.073 74.1136C167.664 74.1136 167.299 74.0473 166.977 73.9148C166.658 73.7784 166.386 73.5947 166.158 73.3636C165.935 73.1288 165.763 72.8636 165.641 72.5682H165.596V77.2727H162.46ZM165.528 69.6364C165.528 70.0606 165.583 70.428 165.692 70.7386C165.806 71.0455 165.965 71.2841 166.17 71.4545C166.378 71.6212 166.626 71.7045 166.914 71.7045C167.202 71.7045 167.446 71.6231 167.647 71.4602C167.852 71.2936 168.007 71.0568 168.113 70.75C168.223 70.4394 168.278 70.0682 168.278 69.6364C168.278 69.2045 168.223 68.8352 168.113 68.5284C168.007 68.2178 167.852 67.9811 167.647 67.8182C167.446 67.6515 167.202 67.5682 166.914 67.5682C166.626 67.5682 166.378 67.6515 166.17 67.8182C165.965 67.9811 165.806 68.2178 165.692 68.5284C165.583 68.8352 165.528 69.2045 165.528 69.6364ZM175.251 74.1364C174.694 74.1364 174.201 74.0455 173.773 73.8636C173.349 73.678 173.016 73.3977 172.773 73.0227C172.531 72.6477 172.41 72.1705 172.41 71.5909C172.41 71.1136 172.491 70.7064 172.654 70.3693C172.817 70.0284 173.044 69.75 173.336 69.5341C173.628 69.3182 173.967 69.1534 174.353 69.0398C174.743 68.9261 175.164 68.8523 175.614 68.8182C176.103 68.7803 176.495 68.7348 176.79 68.6818C177.09 68.625 177.306 68.5473 177.438 68.4489C177.571 68.3466 177.637 68.2121 177.637 68.0455V68.0227C177.637 67.7955 177.55 67.6212 177.376 67.5C177.201 67.3788 176.978 67.3182 176.705 67.3182C176.406 67.3182 176.162 67.3845 175.972 67.517C175.787 67.6458 175.675 67.8447 175.637 68.1136H172.751C172.789 67.5833 172.957 67.0947 173.256 66.6477C173.559 66.197 174.001 65.8371 174.58 65.5682C175.16 65.2955 175.883 65.1591 176.751 65.1591C177.376 65.1591 177.936 65.233 178.433 65.3807C178.929 65.5246 179.351 65.7273 179.7 65.9886C180.048 66.2462 180.313 66.5492 180.495 66.8977C180.681 67.2424 180.773 67.6174 180.773 68.0227V74H177.842V72.7727H177.773C177.599 73.0985 177.387 73.3617 177.137 73.5625C176.891 73.7633 176.609 73.9091 176.29 74C175.976 74.0909 175.629 74.1364 175.251 74.1364ZM176.273 72.1591C176.512 72.1591 176.736 72.1098 176.944 72.0114C177.156 71.9129 177.328 71.7708 177.461 71.5852C177.594 71.3996 177.66 71.1742 177.66 70.9091V70.1818C177.576 70.2159 177.487 70.2481 177.393 70.2784C177.302 70.3087 177.203 70.3371 177.097 70.3636C176.995 70.3902 176.885 70.4148 176.768 70.4375C176.654 70.4602 176.535 70.4811 176.41 70.5C176.167 70.5379 175.969 70.6004 175.813 70.6875C175.662 70.7708 175.548 70.875 175.472 71C175.4 71.1212 175.364 71.2576 175.364 71.4091C175.364 71.6515 175.45 71.8371 175.62 71.9659C175.79 72.0947 176.008 72.1591 176.273 72.1591ZM188.499 68.4318V70.7727H184.113V68.4318H188.499ZM185.227 65.2727V74H182.272V65.2727H185.227ZM190.34 65.2727V74H187.408V65.2727H190.34ZM194.789 70L197.221 65.2727H200.175V74H197.221V69.25L194.789 74H191.835V65.2727H194.789V70ZM209.908 65.2727V74H206.977V65.2727H209.908ZM208.386 68.8864V71.2273C208.28 71.2955 208.096 71.3636 207.835 71.4318C207.577 71.4962 207.304 71.5511 207.016 71.5966C206.732 71.6383 206.499 71.6591 206.317 71.6591C204.886 71.6591 203.77 71.4053 202.971 70.8977C202.172 70.3902 201.772 69.5455 201.772 68.3636V65.2727H204.681V68.3636C204.681 68.6288 204.719 68.8295 204.795 68.9659C204.874 69.1023 205.03 69.1951 205.261 69.2443C205.496 69.2936 205.848 69.3182 206.317 69.3182C206.602 69.3182 206.908 69.2841 207.238 69.2159C207.571 69.1439 207.954 69.0341 208.386 68.8864ZM215.594 74.1591C214.663 74.1591 213.86 73.9811 213.185 73.625C212.515 73.2652 211.998 72.75 211.634 72.0795C211.274 71.4053 211.094 70.5985 211.094 69.6591C211.094 68.7576 211.276 67.9697 211.64 67.2955C212.004 66.6212 212.517 66.0966 213.18 65.7216C213.843 65.3466 214.625 65.1591 215.526 65.1591C216.185 65.1591 216.782 65.2614 217.316 65.4659C217.85 65.6705 218.307 65.9678 218.685 66.358C219.064 66.7443 219.356 67.214 219.56 67.767C219.765 68.3201 219.867 68.9432 219.867 69.6364V70.3636H212.072V68.6364H216.981C216.977 68.3864 216.913 68.1667 216.788 67.9773C216.666 67.7841 216.502 67.6345 216.293 67.5284C216.089 67.4186 215.856 67.3636 215.594 67.3636C215.341 67.3636 215.108 67.4186 214.896 67.5284C214.683 67.6345 214.513 67.7822 214.384 67.9716C214.259 68.161 214.193 68.3826 214.185 68.6364V70.5C214.185 70.7803 214.244 71.0303 214.362 71.25C214.479 71.4697 214.647 71.642 214.867 71.767C215.087 71.892 215.352 71.9545 215.663 71.9545C215.879 71.9545 216.076 71.9242 216.254 71.8636C216.435 71.803 216.591 71.7159 216.719 71.6023C216.848 71.4848 216.943 71.3447 217.004 71.1818H219.867C219.769 71.7879 219.536 72.3144 219.168 72.7614C218.801 73.2045 218.314 73.5492 217.708 73.7955C217.106 74.0379 216.401 74.1591 215.594 74.1591ZM227.374 68.4318V70.7727H222.988V68.4318H227.374ZM224.102 65.2727V74H221.147V65.2727H224.102ZM229.215 65.2727V74H226.283V65.2727H229.215ZM233.664 70L236.096 65.2727H239.05V74H236.096V69.25L233.664 74H230.71V65.2727H233.664V70ZM244.829 74.1591C243.897 74.1591 243.094 73.9811 242.42 73.625C241.749 73.2652 241.232 72.75 240.869 72.0795C240.509 71.4053 240.329 70.5985 240.329 69.6591C240.329 68.7576 240.511 67.9697 240.874 67.2955C241.238 66.6212 241.751 66.0966 242.414 65.7216C243.077 65.3466 243.859 65.1591 244.761 65.1591C245.42 65.1591 246.016 65.2614 246.55 65.4659C247.085 65.6705 247.541 65.9678 247.92 66.358C248.299 66.7443 248.59 67.214 248.795 67.767C248.999 68.3201 249.102 68.9432 249.102 69.6364V70.3636H241.306V68.6364H246.215C246.211 68.3864 246.147 68.1667 246.022 67.9773C245.901 67.7841 245.736 67.6345 245.528 67.5284C245.323 67.4186 245.09 67.3636 244.829 67.3636C244.575 67.3636 244.342 67.4186 244.13 67.5284C243.918 67.6345 243.747 67.7822 243.619 67.9716C243.494 68.161 243.427 68.3826 243.42 68.6364V70.5C243.42 70.7803 243.478 71.0303 243.596 71.25C243.713 71.4697 243.882 71.642 244.102 71.767C244.321 71.892 244.586 71.9545 244.897 71.9545C245.113 71.9545 245.31 71.9242 245.488 71.8636C245.67 71.803 245.825 71.7159 245.954 71.6023C246.083 71.4848 246.177 71.3447 246.238 71.1818H249.102C249.003 71.7879 248.77 72.3144 248.403 72.7614C248.035 73.2045 247.549 73.5492 246.942 73.7955C246.34 74.0379 245.636 74.1591 244.829 74.1591ZM167.389 93V84.2727H175.526V93H172.571V86.6136H170.298V93H167.389ZM181.328 93.1591C180.381 93.1591 179.571 92.9716 178.896 92.5966C178.222 92.2178 177.705 91.6913 177.345 91.017C176.985 90.339 176.805 89.553 176.805 88.6591C176.805 87.7652 176.985 86.9811 177.345 86.3068C177.705 85.6288 178.222 85.1023 178.896 84.7273C179.571 84.3485 180.381 84.1591 181.328 84.1591C182.275 84.1591 183.086 84.3485 183.76 84.7273C184.434 85.1023 184.951 85.6288 185.311 86.3068C185.671 86.9811 185.851 87.7652 185.851 88.6591C185.851 89.553 185.671 90.339 185.311 91.017C184.951 91.6913 184.434 92.2178 183.76 92.5966C183.086 92.9716 182.275 93.1591 181.328 93.1591ZM181.351 90.8409C181.616 90.8409 181.845 90.7519 182.038 90.5739C182.232 90.3958 182.381 90.142 182.487 89.8125C182.593 89.483 182.646 89.0909 182.646 88.6364C182.646 88.178 182.593 87.786 182.487 87.4602C182.381 87.1307 182.232 86.8769 182.038 86.6989C181.845 86.5208 181.616 86.4318 181.351 86.4318C181.071 86.4318 180.83 86.5208 180.629 86.6989C180.429 86.8769 180.275 87.1307 180.169 87.4602C180.063 87.786 180.01 88.178 180.01 88.6364C180.01 89.0909 180.063 89.483 180.169 89.8125C180.275 90.142 180.429 90.3958 180.629 90.5739C180.83 90.7519 181.071 90.8409 181.351 90.8409ZM186.457 86.6136V84.2727H194.912V86.6136H192.139V93H189.185V86.6136H186.457ZM200.062 93.1591C199.116 93.1591 198.305 92.9716 197.631 92.5966C196.956 92.2178 196.439 91.6913 196.08 91.017C195.72 90.339 195.54 89.553 195.54 88.6591C195.54 87.7652 195.72 86.9811 196.08 86.3068C196.439 85.6288 196.956 85.1023 197.631 84.7273C198.305 84.3485 199.116 84.1591 200.062 84.1591C201.009 84.1591 201.82 84.3485 202.494 84.7273C203.169 85.1023 203.686 85.6288 204.045 86.3068C204.405 86.9811 204.585 87.7652 204.585 88.6591C204.585 89.553 204.405 90.339 204.045 91.017C203.686 91.6913 203.169 92.2178 202.494 92.5966C201.82 92.9716 201.009 93.1591 200.062 93.1591ZM200.085 90.8409C200.35 90.8409 200.58 90.7519 200.773 90.5739C200.966 90.3958 201.116 90.142 201.222 89.8125C201.328 89.483 201.381 89.0909 201.381 88.6364C201.381 88.178 201.328 87.786 201.222 87.4602C201.116 87.1307 200.966 86.8769 200.773 86.6989C200.58 86.5208 200.35 86.4318 200.085 86.4318C199.805 86.4318 199.564 86.5208 199.364 86.6989C199.163 86.8769 199.009 87.1307 198.903 87.4602C198.797 87.786 198.744 88.178 198.744 88.6364C198.744 89.0909 198.797 89.483 198.903 89.8125C199.009 90.142 199.163 90.3958 199.364 90.5739C199.564 90.7519 199.805 90.8409 200.085 90.8409ZM205.858 93V84.2727H208.994V87.3864H209.54L211.403 84.2727H214.994L212.199 88.6818L215.017 93H211.381L209.699 90.2955H208.994V93H205.858ZM218.18 93.1364C217.624 93.1364 217.131 93.0455 216.703 92.8636C216.279 92.678 215.946 92.3977 215.703 92.0227C215.461 91.6477 215.339 91.1705 215.339 90.5909C215.339 90.1136 215.421 89.7064 215.584 89.3693C215.747 89.0284 215.974 88.75 216.266 88.5341C216.557 88.3182 216.896 88.1534 217.283 88.0398C217.673 87.9261 218.093 87.8523 218.544 87.8182C219.033 87.7803 219.425 87.7348 219.72 87.6818C220.019 87.625 220.235 87.5473 220.368 87.4489C220.5 87.3466 220.567 87.2121 220.567 87.0455V87.0227C220.567 86.7955 220.48 86.6212 220.305 86.5C220.131 86.3788 219.908 86.3182 219.635 86.3182C219.336 86.3182 219.091 86.3845 218.902 86.517C218.716 86.6458 218.605 86.8447 218.567 87.1136H215.68C215.718 86.5833 215.887 86.0947 216.186 85.6477C216.489 85.197 216.93 84.8371 217.51 84.5682C218.089 84.2955 218.813 84.1591 219.68 84.1591C220.305 84.1591 220.866 84.233 221.362 84.3807C221.858 84.5246 222.281 84.7273 222.629 84.9886C222.978 85.2462 223.243 85.5492 223.425 85.8977C223.61 86.2424 223.703 86.6174 223.703 87.0227V93H220.771V91.7727H220.703C220.529 92.0985 220.317 92.3617 220.067 92.5625C219.821 92.7633 219.538 92.9091 219.22 93C218.906 93.0909 218.559 93.1364 218.18 93.1364ZM219.203 91.1591C219.442 91.1591 219.665 91.1098 219.874 91.0114C220.086 90.9129 220.258 90.7708 220.391 90.5852C220.523 90.3996 220.589 90.1742 220.589 89.9091V89.1818C220.506 89.2159 220.417 89.2481 220.322 89.2784C220.232 89.3087 220.133 89.3371 220.027 89.3636C219.925 89.3902 219.815 89.4148 219.697 89.4375C219.584 89.4602 219.464 89.4811 219.339 89.5C219.097 89.5379 218.898 89.6004 218.743 89.6875C218.591 89.7708 218.478 89.875 218.402 90C218.33 90.1212 218.294 90.2576 218.294 90.4091C218.294 90.6515 218.379 90.8371 218.55 90.9659C218.72 91.0947 218.938 91.1591 219.203 91.1591Z" fill="white"/>
<defs>
<linearGradient id="paint0_linear_24_38" x1="70.5" y1="199.69" x2="193.244" y2="175.076" gradientUnits="userSpaceOnUse">
<stop stop-color="#C42C14"/>
<stop offset="1" stop-color="#E63114" stop-opacity="0"/>
</linearGradient>
<linearGradient id="paint1_linear_24_38" x1="-3.28535" y1="309.858" x2="278.057" y2="64.5237" gradientUnits="userSpaceOnUse">
<stop stop-color="#E63114"/>
<stop offset="1" stop-color="#E63114" stop-opacity="0"/>
</linearGradient>
<linearGradient id="paint2_linear_24_38" x1="312" y1="199" x2="425.106" y2="165.291" gradientUnits="userSpaceOnUse">
<stop stop-color="#C42C14"/>
<stop offset="1" stop-color="#E63114" stop-opacity="0"/>
</linearGradient>
</defs>
</svg>
