<svg width="1920" height="401" viewBox="0 0 1920 401" fill="none" xmlns="http://www.w3.org/2000/svg">
<path d="M809 401L1143 250.236V181.065L809 0V401Z" fill="url(#paint0_linear_842_35)"/>
<path d="M-1 0L809 0.000141625L809 401L-1.00007 401L-1 0Z" fill="url(#paint1_linear_842_35)"/>
<path d="M994.549 218C994.243 218.002 993.943 217.911 993.687 217.739C993.432 217.567 993.233 217.321 993.116 217.034C992.999 216.746 992.97 216.43 993.031 216.125C993.093 215.821 993.243 215.542 993.462 215.324L996.774 211.982L993.462 208.625C993.19 208.329 993.042 207.938 993.049 207.533C993.056 207.129 993.218 206.743 993.5 206.457C993.782 206.171 994.162 206.007 994.561 206C994.959 205.993 995.345 206.143 995.637 206.419L1000.91 211.771C1000.94 211.799 1000.96 211.831 1000.98 211.868C1000.99 211.904 1001 211.943 1001 211.982C1001 212.021 1000.99 212.06 1000.98 212.096C1000.96 212.133 1000.94 212.165 1000.91 212.193L995.637 217.545C995.348 217.837 994.957 218 994.549 218Z" fill="white"/>
<path d="M876.031 210V194H887.281V197.5H880.375V199.375H882C883.344 199.375 884.518 199.591 885.523 200.023C886.534 200.456 887.318 201.065 887.875 201.852C888.438 202.638 888.719 203.562 888.719 204.625C888.719 205.687 888.438 206.622 887.875 207.43C887.318 208.237 886.534 208.867 885.523 209.32C884.518 209.773 883.344 210 882 210H876.031ZM880.375 206.594H882C882.521 206.594 882.958 206.508 883.312 206.336C883.672 206.164 883.943 205.927 884.125 205.625C884.313 205.323 884.406 204.979 884.406 204.594C884.406 204.047 884.201 203.594 883.789 203.234C883.378 202.87 882.781 202.687 882 202.687H880.375V206.594ZM894.379 204.5L897.723 198H901.785V210H897.723V203.469L894.379 210H890.316V198H894.379V204.5ZM903.449 206.375H907.512C907.512 206.677 907.642 206.924 907.902 207.117C908.168 207.31 908.507 207.406 908.918 207.406C909.329 207.406 909.665 207.299 909.926 207.086C910.191 206.867 910.324 206.589 910.324 206.25C910.324 206.036 910.27 205.849 910.16 205.687C910.051 205.521 909.9 205.391 909.707 205.297C909.514 205.203 909.293 205.156 909.043 205.156H907.543V202.625H909.043C909.413 202.625 909.712 202.536 909.941 202.359C910.176 202.182 910.293 201.958 910.293 201.688C910.293 201.375 910.178 201.12 909.949 200.922C909.72 200.724 909.428 200.625 909.074 200.625C908.72 200.625 908.428 200.706 908.199 200.867C907.97 201.029 907.855 201.24 907.855 201.5H903.793C903.793 200.729 904.022 200.073 904.48 199.531C904.939 198.984 905.553 198.568 906.324 198.281C907.095 197.99 907.949 197.844 908.887 197.844C909.96 197.844 910.882 197.974 911.652 198.234C912.423 198.495 913.014 198.878 913.426 199.383C913.837 199.888 914.043 200.51 914.043 201.25C914.043 201.859 913.822 202.383 913.379 202.82C912.936 203.253 912.283 203.563 911.418 203.75V203.875C911.934 203.901 912.413 204.023 912.855 204.242C913.303 204.461 913.665 204.773 913.941 205.18C914.217 205.586 914.355 206.089 914.355 206.687C914.355 207.437 914.121 208.076 913.652 208.602C913.189 209.128 912.548 209.529 911.73 209.805C910.913 210.081 909.975 210.219 908.918 210.219C907.887 210.219 906.965 210.081 906.152 209.805C905.34 209.523 904.694 209.099 904.215 208.531C903.736 207.958 903.48 207.24 903.449 206.375ZM924.596 202.344V205.562H918.564V202.344H924.596ZM920.096 198V210H916.033V198H920.096ZM927.127 198V210H923.096V198H927.127ZM934.932 210.219C933.65 210.219 932.546 209.974 931.619 209.484C930.697 208.99 929.986 208.281 929.486 207.359C928.992 206.432 928.744 205.323 928.744 204.031C928.744 202.792 928.994 201.708 929.494 200.781C929.994 199.854 930.7 199.133 931.611 198.617C932.523 198.102 933.598 197.844 934.838 197.844C935.744 197.844 936.564 197.984 937.299 198.266C938.033 198.547 938.661 198.956 939.182 199.492C939.702 200.023 940.104 200.669 940.385 201.43C940.666 202.19 940.807 203.047 940.807 204V205H930.088V202.625H936.838C936.833 202.281 936.744 201.979 936.572 201.719C936.406 201.453 936.179 201.247 935.893 201.102C935.611 200.951 935.291 200.875 934.932 200.875C934.583 200.875 934.262 200.951 933.971 201.102C933.679 201.247 933.445 201.451 933.268 201.711C933.096 201.971 933.005 202.276 932.994 202.625V205.188C932.994 205.573 933.075 205.917 933.236 206.219C933.398 206.521 933.63 206.758 933.932 206.93C934.234 207.102 934.598 207.188 935.025 207.188C935.322 207.188 935.593 207.146 935.838 207.062C936.088 206.979 936.301 206.859 936.479 206.703C936.656 206.542 936.786 206.349 936.869 206.125H940.807C940.671 206.958 940.351 207.682 939.846 208.297C939.34 208.906 938.671 209.38 937.838 209.719C937.01 210.052 936.041 210.219 934.932 210.219ZM948.348 210.219C947.046 210.219 945.931 209.961 945.004 209.445C944.077 208.924 943.366 208.201 942.871 207.273C942.376 206.341 942.129 205.26 942.129 204.031C942.129 202.802 942.376 201.724 942.871 200.797C943.366 199.865 944.077 199.141 945.004 198.625C945.931 198.104 947.046 197.844 948.348 197.844C949.525 197.844 950.543 198.057 951.402 198.484C952.267 198.906 952.936 199.505 953.41 200.281C953.884 201.052 954.124 201.958 954.129 203H950.129C950.072 202.37 949.889 201.891 949.582 201.562C949.28 201.229 948.889 201.062 948.41 201.062C948.035 201.062 947.707 201.172 947.426 201.391C947.145 201.604 946.926 201.93 946.77 202.367C946.613 202.799 946.535 203.344 946.535 204C946.535 204.656 946.613 205.203 946.77 205.641C946.926 206.073 947.145 206.398 947.426 206.617C947.707 206.831 948.035 206.937 948.41 206.937C948.728 206.937 949.009 206.865 949.254 206.719C949.499 206.568 949.697 206.349 949.848 206.062C950.004 205.771 950.098 205.417 950.129 205H954.129C954.113 206.057 953.871 206.979 953.402 207.766C952.934 208.547 952.27 209.151 951.41 209.578C950.556 210.005 949.535 210.219 948.348 210.219ZM887.281 220V232H883.25V220H887.281ZM885.188 224.969V228.188C885.042 228.281 884.789 228.375 884.43 228.469C884.076 228.557 883.701 228.633 883.305 228.695C882.914 228.753 882.594 228.781 882.344 228.781C880.375 228.781 878.841 228.432 877.742 227.734C876.643 227.036 876.094 225.875 876.094 224.25V220H880.094V224.25C880.094 224.615 880.146 224.891 880.25 225.078C880.359 225.266 880.573 225.393 880.891 225.461C881.214 225.529 881.698 225.562 882.344 225.562C882.734 225.562 883.156 225.516 883.609 225.422C884.068 225.323 884.594 225.172 885.188 224.969ZM892.693 232.188C891.928 232.188 891.251 232.063 890.662 231.812C890.079 231.557 889.62 231.172 889.287 230.656C888.954 230.141 888.787 229.484 888.787 228.687C888.787 228.031 888.899 227.471 889.123 227.008C889.347 226.539 889.66 226.156 890.061 225.859C890.462 225.562 890.928 225.336 891.459 225.18C891.995 225.023 892.574 224.922 893.193 224.875C893.865 224.823 894.404 224.76 894.811 224.687C895.222 224.609 895.519 224.503 895.701 224.367C895.883 224.227 895.975 224.042 895.975 223.812V223.781C895.975 223.469 895.855 223.229 895.615 223.062C895.376 222.896 895.068 222.812 894.693 222.812C894.282 222.812 893.946 222.904 893.686 223.086C893.43 223.263 893.277 223.536 893.225 223.906H889.256C889.308 223.177 889.54 222.505 889.951 221.891C890.368 221.271 890.975 220.776 891.771 220.406C892.568 220.031 893.563 219.844 894.756 219.844C895.615 219.844 896.386 219.945 897.068 220.148C897.751 220.346 898.331 220.625 898.811 220.984C899.29 221.339 899.654 221.755 899.904 222.234C900.16 222.708 900.287 223.224 900.287 223.781V232H896.256V230.312H896.162C895.923 230.76 895.631 231.122 895.287 231.398C894.949 231.674 894.561 231.875 894.123 232C893.691 232.125 893.214 232.188 892.693 232.188ZM894.1 229.469C894.428 229.469 894.735 229.401 895.021 229.266C895.313 229.13 895.55 228.935 895.732 228.68C895.915 228.424 896.006 228.115 896.006 227.75V226.75C895.891 226.797 895.769 226.841 895.639 226.883C895.514 226.924 895.378 226.964 895.232 227C895.092 227.036 894.941 227.07 894.779 227.102C894.623 227.133 894.459 227.161 894.287 227.188C893.954 227.24 893.68 227.326 893.467 227.445C893.258 227.56 893.102 227.703 892.998 227.875C892.899 228.042 892.85 228.229 892.85 228.437C892.85 228.771 892.967 229.026 893.201 229.203C893.436 229.38 893.735 229.469 894.1 229.469ZM908.129 232.219C906.827 232.219 905.712 231.961 904.785 231.445C903.858 230.924 903.147 230.201 902.652 229.273C902.158 228.341 901.91 227.26 901.91 226.031C901.91 224.802 902.158 223.724 902.652 222.797C903.147 221.865 903.858 221.141 904.785 220.625C905.712 220.104 906.827 219.844 908.129 219.844C909.306 219.844 910.324 220.057 911.184 220.484C912.048 220.906 912.717 221.505 913.191 222.281C913.665 223.052 913.905 223.958 913.91 225H909.91C909.853 224.37 909.671 223.891 909.363 223.562C909.061 223.229 908.671 223.062 908.191 223.062C907.816 223.062 907.488 223.172 907.207 223.391C906.926 223.604 906.707 223.93 906.551 224.367C906.395 224.799 906.316 225.344 906.316 226C906.316 226.656 906.395 227.203 906.551 227.641C906.707 228.073 906.926 228.398 907.207 228.617C907.488 228.831 907.816 228.937 908.191 228.937C908.509 228.937 908.79 228.865 909.035 228.719C909.28 228.568 909.478 228.349 909.629 228.062C909.785 227.771 909.879 227.417 909.91 227H913.91C913.895 228.057 913.652 228.979 913.184 229.766C912.715 230.547 912.051 231.151 911.191 231.578C910.337 232.005 909.316 232.219 908.129 232.219ZM914.967 223.219V220H926.592V223.219H922.779V232H918.717V223.219H914.967ZM932.256 226.5L935.6 220H939.662V232H935.6V225.469L932.256 232H928.193V220H932.256V226.5ZM953.045 220V229.312H955.107V235.844H950.951V232H941.857V220H945.92V228.781H949.045V220H953.045ZM959.045 223.25H962.732C964.446 223.25 965.795 223.646 966.779 224.438C967.764 225.224 968.258 226.307 968.264 227.687C968.258 228.578 968.032 229.346 967.584 229.992C967.141 230.638 966.506 231.135 965.678 231.484C964.855 231.828 963.873 232 962.732 232H956.639V220H960.701V228.781H962.732C963.175 228.781 963.54 228.677 963.826 228.469C964.113 228.255 964.258 227.984 964.264 227.656C964.258 227.307 964.113 227.023 963.826 226.805C963.54 226.581 963.175 226.469 962.732 226.469H959.045V223.25ZM969.139 232V220H973.451V232H969.139Z" fill="white"/>
<path d="M1385 249.847L1143 249.847V180.313H1385V249.847Z" fill="url(#paint2_linear_842_35)"/>
<path d="M1385 250L1920 223.98V204.853L1385 180V250Z" fill="url(#paint3_linear_842_35)"/>
<path d="M1391 278.451C1391 278.757 1390.91 279.057 1390.74 279.313C1390.57 279.568 1390.32 279.767 1390.03 279.884C1389.75 280.001 1389.43 280.03 1389.13 279.969C1388.82 279.907 1388.54 279.757 1388.32 279.538L1384.98 276.226L1381.63 279.538C1381.33 279.81 1380.94 279.958 1380.53 279.951C1380.13 279.944 1379.74 279.782 1379.46 279.5C1379.17 279.218 1379.01 278.838 1379 278.439C1378.99 278.041 1379.14 277.655 1379.42 277.363L1384.77 272.087C1384.8 272.059 1384.83 272.037 1384.87 272.023C1384.9 272.008 1384.94 272 1384.98 272C1385.02 272 1385.06 272.008 1385.1 272.023C1385.13 272.037 1385.17 272.059 1385.19 272.087L1390.55 277.363C1390.84 277.652 1391 278.043 1391 278.451Z" fill="white"/>
<path d="M1137 139.549C1137 139.243 1137.09 138.943 1137.26 138.687C1137.43 138.432 1137.68 138.233 1137.97 138.116C1138.25 137.999 1138.57 137.97 1138.87 138.031C1139.18 138.093 1139.46 138.243 1139.68 138.462L1143.02 141.774L1146.37 138.462C1146.67 138.19 1147.06 138.042 1147.47 138.049C1147.87 138.056 1148.26 138.218 1148.54 138.5C1148.83 138.782 1148.99 139.162 1149 139.561C1149.01 139.959 1148.86 140.345 1148.58 140.637L1143.23 145.913C1143.2 145.941 1143.17 145.963 1143.13 145.977C1143.1 145.992 1143.06 146 1143.02 146C1142.98 146 1142.94 145.992 1142.9 145.977C1142.87 145.963 1142.83 145.941 1142.81 145.913L1137.45 140.637C1137.16 140.348 1137 139.957 1137 139.549Z" fill="white"/>
<path d="M1354.74 297V313H1350.46V300.437H1345.05V313H1340.77V297H1354.74ZM1361.64 307.5L1364.98 301H1369.05V313H1364.98V306.469L1361.64 313H1357.58V301H1361.64V307.5ZM1381.93 296.656L1382.99 299.531C1382.67 299.76 1382.33 299.94 1381.96 300.07C1381.6 300.195 1381.14 300.284 1380.59 300.336C1380.05 300.383 1379.34 300.406 1378.46 300.406C1377.47 300.406 1376.67 300.521 1376.07 300.75C1375.47 300.979 1375.01 301.367 1374.7 301.914C1374.4 302.461 1374.19 303.208 1374.09 304.156H1374.18C1374.51 303.437 1374.98 302.862 1375.59 302.43C1376.2 301.997 1377.03 301.781 1378.09 301.781C1379.16 301.781 1380.09 302.01 1380.88 302.469C1381.66 302.922 1382.26 303.56 1382.67 304.383C1383.09 305.206 1383.3 306.172 1383.3 307.281C1383.3 308.479 1383.06 309.523 1382.56 310.414C1382.07 311.305 1381.36 311.995 1380.43 312.484C1379.5 312.974 1378.39 313.219 1377.09 313.219C1375.78 313.219 1374.67 312.964 1373.74 312.453C1372.82 311.943 1372.1 311.193 1371.61 310.203C1371.11 309.214 1370.87 308 1370.87 306.562V305.781C1370.87 302.74 1371.5 300.516 1372.77 299.109C1374.04 297.703 1375.88 297 1378.3 297C1378.87 297 1379.38 297 1379.84 297C1380.3 297 1380.71 296.977 1381.05 296.93C1381.41 296.883 1381.7 296.792 1381.93 296.656ZM1377.12 310.031C1377.48 310.031 1377.8 309.932 1378.06 309.734C1378.33 309.531 1378.53 309.24 1378.68 308.859C1378.83 308.474 1378.9 308.01 1378.9 307.469C1378.9 306.917 1378.83 306.448 1378.68 306.063C1378.53 305.677 1378.33 305.383 1378.06 305.18C1377.8 304.977 1377.48 304.875 1377.12 304.875C1376.83 304.875 1376.57 304.932 1376.34 305.047C1376.11 305.161 1375.92 305.331 1375.76 305.555C1375.6 305.773 1375.48 306.044 1375.4 306.367C1375.32 306.685 1375.27 307.052 1375.27 307.469C1375.27 308.281 1375.43 308.911 1375.76 309.359C1376.09 309.807 1376.54 310.031 1377.12 310.031ZM1387.53 304.25H1391.21C1392.93 304.25 1394.28 304.646 1395.26 305.438C1396.25 306.224 1396.74 307.307 1396.75 308.687C1396.74 309.578 1396.51 310.346 1396.07 310.992C1395.62 311.638 1394.99 312.135 1394.16 312.484C1393.34 312.828 1392.36 313 1391.21 313H1385.12V301H1389.18V309.781H1391.21C1391.66 309.781 1392.02 309.677 1392.31 309.469C1392.6 309.255 1392.74 308.984 1392.75 308.656C1392.74 308.307 1392.6 308.023 1392.31 307.805C1392.02 307.581 1391.66 307.469 1391.21 307.469H1387.53V304.25ZM1397.62 313V301H1401.93V313H1397.62ZM1403.64 313L1403.61 309.75H1403.99C1404.22 309.75 1404.43 309.682 1404.61 309.547C1404.79 309.411 1404.94 309.203 1405.07 308.922C1405.2 308.641 1405.3 308.284 1405.37 307.852C1405.45 307.419 1405.5 306.906 1405.52 306.312L1405.71 301H1415.58V313H1411.52V304.219H1409.52L1409.33 307.469C1409.28 308.49 1409.13 309.354 1408.89 310.062C1408.66 310.771 1408.35 311.341 1407.96 311.773C1407.57 312.201 1407.11 312.513 1406.6 312.711C1406.08 312.904 1405.51 313 1404.89 313H1403.64ZM1420.05 304.25H1423.74C1425.46 304.25 1426.8 304.646 1427.79 305.438C1428.77 306.224 1429.27 307.307 1429.27 308.687C1429.27 309.578 1429.04 310.346 1428.59 310.992C1428.15 311.638 1427.52 312.135 1426.69 312.484C1425.86 312.828 1424.88 313 1423.74 313H1417.65V301H1421.71V309.781H1423.74C1424.18 309.781 1424.55 309.677 1424.84 309.469C1425.12 309.255 1425.27 308.984 1425.27 308.656C1425.27 308.307 1425.12 308.023 1424.84 307.805C1424.55 307.581 1424.18 307.469 1423.74 307.469H1420.05V304.25ZM1330.15 335V323H1334.47V327.281H1335.22L1337.78 323H1342.72L1338.87 329.062L1342.75 335H1337.75L1335.43 331.281H1334.47V335H1330.15ZM1349.04 335.219C1347.74 335.219 1346.62 334.961 1345.7 334.445C1344.77 333.924 1344.06 333.201 1343.56 332.273C1343.07 331.341 1342.82 330.26 1342.82 329.031C1342.82 327.802 1343.07 326.724 1343.56 325.797C1344.06 324.865 1344.77 324.141 1345.7 323.625C1346.62 323.104 1347.74 322.844 1349.04 322.844C1350.34 322.844 1351.46 323.104 1352.38 323.625C1353.31 324.141 1354.02 324.865 1354.52 325.797C1355.01 326.724 1355.26 327.802 1355.26 329.031C1355.26 330.26 1355.01 331.341 1354.52 332.273C1354.02 333.201 1353.31 333.924 1352.38 334.445C1351.46 334.961 1350.34 335.219 1349.04 335.219ZM1349.07 332.031C1349.44 332.031 1349.75 331.909 1350.02 331.664C1350.28 331.419 1350.49 331.07 1350.63 330.617C1350.78 330.164 1350.85 329.625 1350.85 329C1350.85 328.37 1350.78 327.831 1350.63 327.383C1350.49 326.93 1350.28 326.581 1350.02 326.336C1349.75 326.091 1349.44 325.969 1349.07 325.969C1348.69 325.969 1348.36 326.091 1348.08 326.336C1347.8 326.581 1347.59 326.93 1347.45 327.383C1347.3 327.831 1347.23 328.37 1347.23 329C1347.23 329.625 1347.3 330.164 1347.45 330.617C1347.59 331.07 1347.8 331.419 1348.08 331.664C1348.36 331.909 1348.69 332.031 1349.07 332.031ZM1364.45 330.531L1367.07 323H1370.13L1365.79 335H1363.1L1358.88 323H1361.95L1364.45 330.531ZM1361.07 323V335H1357.01V323H1361.07ZM1368.1 335V323H1372.1V335H1368.1ZM1374.17 335V323H1385.36V335H1381.3V326.219H1378.17V335H1374.17ZM1390.9 335.188C1390.14 335.188 1389.46 335.063 1388.87 334.812C1388.29 334.557 1387.83 334.172 1387.5 333.656C1387.16 333.141 1387 332.484 1387 331.687C1387 331.031 1387.11 330.471 1387.33 330.008C1387.56 329.539 1387.87 329.156 1388.27 328.859C1388.67 328.562 1389.14 328.336 1389.67 328.18C1390.21 328.023 1390.78 327.922 1391.4 327.875C1392.08 327.823 1392.61 327.76 1393.02 327.687C1393.43 327.609 1393.73 327.503 1393.91 327.367C1394.09 327.227 1394.18 327.042 1394.18 326.812V326.781C1394.18 326.469 1394.06 326.229 1393.83 326.062C1393.59 325.896 1393.28 325.812 1392.9 325.812C1392.49 325.812 1392.16 325.904 1391.9 326.086C1391.64 326.263 1391.49 326.536 1391.43 326.906H1387.47C1387.52 326.177 1387.75 325.505 1388.16 324.891C1388.58 324.271 1389.18 323.776 1389.98 323.406C1390.78 323.031 1391.77 322.844 1392.97 322.844C1393.83 322.844 1394.6 322.945 1395.28 323.148C1395.96 323.346 1396.54 323.625 1397.02 323.984C1397.5 324.339 1397.86 324.755 1398.11 325.234C1398.37 325.708 1398.5 326.224 1398.5 326.781V335H1394.47V333.312H1394.37C1394.13 333.76 1393.84 334.122 1393.5 334.398C1393.16 334.674 1392.77 334.875 1392.33 335C1391.9 335.125 1391.42 335.188 1390.9 335.188ZM1392.31 332.469C1392.64 332.469 1392.94 332.401 1393.23 332.266C1393.52 332.13 1393.76 331.935 1393.94 331.68C1394.12 331.424 1394.22 331.115 1394.22 330.75V329.75C1394.1 329.797 1393.98 329.841 1393.85 329.883C1393.72 329.924 1393.59 329.964 1393.44 330C1393.3 330.036 1393.15 330.07 1392.99 330.102C1392.83 330.133 1392.67 330.161 1392.5 330.188C1392.16 330.24 1391.89 330.326 1391.68 330.445C1391.47 330.56 1391.31 330.703 1391.21 330.875C1391.11 331.042 1391.06 331.229 1391.06 331.437C1391.06 331.771 1391.18 332.026 1391.41 332.203C1391.65 332.38 1391.94 332.469 1392.31 332.469ZM1409.12 327.344V330.562H1403.09V327.344H1409.12ZM1404.62 323V335H1400.56V323H1404.62ZM1411.65 323V335H1407.62V323H1411.65ZM1417.77 329.5L1421.11 323H1425.17V335H1421.11V328.469L1417.77 335H1413.71V323H1417.77V329.5ZM1431.43 329.5L1434.78 323H1438.84V335H1434.78V328.469L1431.43 335H1427.37V323H1431.43V329.5ZM1434.65 318.687H1437.37C1437.36 319.703 1436.98 320.516 1436.21 321.125C1435.44 321.729 1434.4 322.031 1433.09 322.031C1431.77 322.031 1430.73 321.729 1429.96 321.125C1429.19 320.516 1428.8 319.703 1428.81 318.687H1431.5C1431.49 319.016 1431.61 319.318 1431.85 319.594C1432.09 319.865 1432.51 320 1433.09 320C1433.65 320 1434.04 319.867 1434.28 319.602C1434.52 319.336 1434.65 319.031 1434.65 318.687Z" fill="white"/>
<path d="M1084.66 87C1084.66 88.7812 1084.32 90.2839 1083.62 91.5078C1082.93 92.7266 1082 93.651 1080.82 94.2812C1079.64 94.9062 1078.33 95.2187 1076.88 95.2187C1075.42 95.2187 1074.11 94.9036 1072.93 94.2734C1071.76 93.638 1070.82 92.7109 1070.13 91.4922C1069.44 90.2682 1069.1 88.7708 1069.1 87C1069.1 85.2187 1069.44 83.7187 1070.13 82.5C1070.82 81.276 1071.76 80.3516 1072.93 79.7266C1074.11 79.0964 1075.42 78.7812 1076.88 78.7812C1078.33 78.7812 1079.64 79.0964 1080.82 79.7266C1082 80.3516 1082.93 81.276 1083.62 82.5C1084.32 83.7187 1084.66 85.2187 1084.66 87ZM1080.19 87C1080.19 86.0417 1080.07 85.2344 1079.81 84.5781C1079.56 83.9167 1079.19 83.4167 1078.69 83.0781C1078.2 82.7344 1077.6 82.5625 1076.88 82.5625C1076.16 82.5625 1075.56 82.7344 1075.06 83.0781C1074.57 83.4167 1074.2 83.9167 1073.94 84.5781C1073.69 85.2344 1073.57 86.0417 1073.57 87C1073.57 87.9583 1073.69 88.7682 1073.94 89.4297C1074.2 90.0859 1074.57 90.5859 1075.06 90.9297C1075.56 91.2682 1076.16 91.4375 1076.88 91.4375C1077.6 91.4375 1078.2 91.2682 1078.69 90.9297C1079.19 90.5859 1079.56 90.0859 1079.81 89.4297C1080.07 88.7682 1080.19 87.9583 1080.19 87ZM1095.49 83V86.2187H1090.89V95H1086.74V83H1095.49ZM1097.07 99.5V83H1101.35V85.0937H1101.44C1101.6 84.6875 1101.83 84.3151 1102.13 83.9766C1102.43 83.6328 1102.81 83.3594 1103.26 83.1562C1103.7 82.9479 1104.23 82.8438 1104.82 82.8438C1105.61 82.8438 1106.36 83.0547 1107.08 83.4766C1107.8 83.8984 1108.38 84.5625 1108.83 85.4687C1109.28 86.375 1109.51 87.5521 1109.51 89C1109.51 90.3854 1109.29 91.5339 1108.86 92.4453C1108.43 93.3568 1107.86 94.0365 1107.14 94.4844C1106.43 94.9323 1105.64 95.1563 1104.79 95.1563C1104.23 95.1563 1103.72 95.0651 1103.28 94.8828C1102.84 94.6953 1102.47 94.4427 1102.16 94.125C1101.85 93.8021 1101.61 93.4375 1101.44 93.0312H1101.38V99.5H1097.07ZM1101.29 89C1101.29 89.5833 1101.36 90.0885 1101.51 90.5156C1101.67 90.9375 1101.89 91.2656 1102.17 91.5C1102.46 91.7292 1102.8 91.8438 1103.19 91.8438C1103.59 91.8438 1103.93 91.7318 1104.2 91.5078C1104.48 91.2786 1104.7 90.9531 1104.84 90.5312C1104.99 90.1042 1105.07 89.5937 1105.07 89C1105.07 88.4062 1104.99 87.8984 1104.84 87.4766C1104.7 87.0495 1104.48 86.724 1104.2 86.5C1103.93 86.2708 1103.59 86.1562 1103.19 86.1562C1102.8 86.1562 1102.46 86.2708 1102.17 86.5C1101.89 86.724 1101.67 87.0495 1101.51 87.4766C1101.36 87.8984 1101.29 88.4062 1101.29 89ZM1114.66 95.1875C1113.89 95.1875 1113.21 95.0625 1112.63 94.8125C1112.04 94.5573 1111.58 94.1719 1111.25 93.6562C1110.92 93.1406 1110.75 92.4844 1110.75 91.6875C1110.75 91.0312 1110.86 90.4714 1111.09 90.0078C1111.31 89.5391 1111.62 89.1562 1112.02 88.8594C1112.43 88.5625 1112.89 88.3359 1113.42 88.1797C1113.96 88.0234 1114.54 87.9219 1115.16 87.875C1115.83 87.8229 1116.37 87.7604 1116.77 87.6875C1117.19 87.6094 1117.48 87.5026 1117.67 87.3672C1117.85 87.2266 1117.94 87.0417 1117.94 86.8125V86.7812C1117.94 86.4687 1117.82 86.2292 1117.58 86.0625C1117.34 85.8958 1117.03 85.8125 1116.66 85.8125C1116.25 85.8125 1115.91 85.9036 1115.65 86.0859C1115.39 86.263 1115.24 86.5365 1115.19 86.9062H1111.22C1111.27 86.1771 1111.5 85.5052 1111.92 84.8906C1112.33 84.2708 1112.94 83.776 1113.74 83.4063C1114.53 83.0313 1115.53 82.8438 1116.72 82.8438C1117.58 82.8438 1118.35 82.9453 1119.03 83.1484C1119.71 83.3464 1120.3 83.625 1120.77 83.9844C1121.25 84.3385 1121.62 84.7552 1121.87 85.2344C1122.12 85.7083 1122.25 86.224 1122.25 86.7812V95H1118.22V93.3125H1118.13C1117.89 93.7604 1117.59 94.1224 1117.25 94.3984C1116.91 94.6745 1116.52 94.875 1116.09 95C1115.65 95.125 1115.18 95.1875 1114.66 95.1875ZM1116.06 92.4687C1116.39 92.4687 1116.7 92.401 1116.99 92.2656C1117.28 92.1302 1117.51 91.9349 1117.7 91.6797C1117.88 91.4245 1117.97 91.1146 1117.97 90.75V89.75C1117.86 89.7969 1117.73 89.8411 1117.6 89.8828C1117.48 89.9245 1117.34 89.9635 1117.2 90C1117.06 90.0365 1116.9 90.0703 1116.74 90.1016C1116.59 90.1328 1116.42 90.1615 1116.25 90.1875C1115.92 90.2396 1115.64 90.3255 1115.43 90.4453C1115.22 90.5599 1115.07 90.7031 1114.96 90.875C1114.86 91.0417 1114.81 91.2292 1114.81 91.4375C1114.81 91.7708 1114.93 92.026 1115.17 92.2031C1115.4 92.3802 1115.7 92.4687 1116.06 92.4687ZM1132.87 87.3437V90.5625H1126.84V87.3437H1132.87ZM1128.37 83V95H1124.31V83H1128.37ZM1135.41 83V95H1131.37V83H1135.41ZM1141.52 89.5L1144.87 83H1148.93V95H1144.87V88.4688L1141.52 95H1137.46V83H1141.52V89.5ZM1162.31 83V95H1158.28V83H1162.31ZM1160.22 87.9687V91.1875C1160.07 91.2812 1159.82 91.375 1159.46 91.4687C1159.11 91.5573 1158.73 91.6328 1158.33 91.6953C1157.94 91.7526 1157.62 91.7812 1157.37 91.7812C1155.41 91.7812 1153.87 91.4323 1152.77 90.7344C1151.67 90.0365 1151.12 88.875 1151.12 87.25V83H1155.12V87.25C1155.12 87.6146 1155.18 87.8906 1155.28 88.0781C1155.39 88.2656 1155.6 88.3932 1155.92 88.4609C1156.24 88.5286 1156.73 88.5625 1157.37 88.5625C1157.76 88.5625 1158.19 88.5156 1158.64 88.4219C1159.1 88.3229 1159.62 88.1719 1160.22 87.9687ZM1170.13 95.2187C1168.85 95.2187 1167.74 94.974 1166.82 94.4844C1165.9 93.9896 1165.18 93.2812 1164.68 92.3594C1164.19 91.4323 1163.94 90.3229 1163.94 89.0313C1163.94 87.7917 1164.19 86.7083 1164.69 85.7812C1165.19 84.8542 1165.9 84.1328 1166.81 83.6172C1167.72 83.1016 1168.8 82.8438 1170.04 82.8438C1170.94 82.8438 1171.76 82.9844 1172.5 83.2656C1173.23 83.5469 1173.86 83.9557 1174.38 84.4922C1174.9 85.0234 1175.3 85.6693 1175.58 86.4297C1175.86 87.1901 1176 88.0469 1176 89V90H1165.29V87.625H1172.04C1172.03 87.2812 1171.94 86.9792 1171.77 86.7187C1171.6 86.4531 1171.38 86.2474 1171.09 86.1016C1170.81 85.9505 1170.49 85.875 1170.13 85.875C1169.78 85.875 1169.46 85.9505 1169.17 86.1016C1168.88 86.2474 1168.64 86.4505 1168.47 86.7109C1168.29 86.9714 1168.2 87.276 1168.19 87.625V90.1875C1168.19 90.5729 1168.27 90.9167 1168.43 91.2188C1168.6 91.5208 1168.83 91.7578 1169.13 91.9297C1169.43 92.1016 1169.8 92.1875 1170.22 92.1875C1170.52 92.1875 1170.79 92.1458 1171.04 92.0625C1171.29 91.9792 1171.5 91.8594 1171.68 91.7031C1171.85 91.5417 1171.98 91.349 1172.07 91.125H1176C1175.87 91.9583 1175.55 92.6823 1175.04 93.2969C1174.54 93.9063 1173.87 94.3802 1173.04 94.7187C1172.21 95.0521 1171.24 95.2187 1170.13 95.2187ZM1186.33 87.3437V90.5625H1180.3V87.3437H1186.33ZM1181.83 83V95H1177.76V83H1181.83ZM1188.86 83V95H1184.83V83H1188.86ZM1194.98 89.5L1198.32 83H1202.38V95H1198.32V88.4688L1194.98 95H1190.91V83H1194.98V89.5ZM1210.33 95.2187C1209.05 95.2187 1207.94 94.974 1207.01 94.4844C1206.09 93.9896 1205.38 93.2812 1204.88 92.3594C1204.39 91.4323 1204.14 90.3229 1204.14 89.0313C1204.14 87.7917 1204.39 86.7083 1204.89 85.7812C1205.39 84.8542 1206.1 84.1328 1207.01 83.6172C1207.92 83.1016 1208.99 82.8438 1210.23 82.8438C1211.14 82.8438 1211.96 82.9844 1212.69 83.2656C1213.43 83.5469 1214.06 83.9557 1214.58 84.4922C1215.1 85.0234 1215.5 85.6693 1215.78 86.4297C1216.06 87.1901 1216.2 88.0469 1216.2 89V90H1205.48V87.625H1212.23C1212.23 87.2812 1212.14 86.9792 1211.97 86.7187C1211.8 86.4531 1211.57 86.2474 1211.29 86.1016C1211.01 85.9505 1210.69 85.875 1210.33 85.875C1209.98 85.875 1209.66 85.9505 1209.37 86.1016C1209.07 86.2474 1208.84 86.4505 1208.66 86.7109C1208.49 86.9714 1208.4 87.276 1208.39 87.625V90.1875C1208.39 90.5729 1208.47 90.9167 1208.63 91.2188C1208.79 91.5208 1209.03 91.7578 1209.33 91.9297C1209.63 92.1016 1209.99 92.1875 1210.42 92.1875C1210.72 92.1875 1210.99 92.1458 1211.23 92.0625C1211.48 91.9792 1211.7 91.8594 1211.87 91.7031C1212.05 91.5417 1212.18 91.349 1212.26 91.125H1216.2C1216.07 91.9583 1215.75 92.6823 1215.24 93.2969C1214.74 93.9063 1214.07 94.3802 1213.23 94.7187C1212.41 95.0521 1211.44 95.2187 1210.33 95.2187ZM1103.85 117V105H1115.04V117H1110.97V108.219H1107.85V117H1103.85ZM1123.01 117.219C1121.71 117.219 1120.6 116.961 1119.67 116.445C1118.74 115.924 1118.03 115.201 1117.54 114.273C1117.04 113.341 1116.79 112.26 1116.79 111.031C1116.79 109.802 1117.04 108.724 1117.54 107.797C1118.03 106.865 1118.74 106.141 1119.67 105.625C1120.6 105.104 1121.71 104.844 1123.01 104.844C1124.32 104.844 1125.43 105.104 1126.36 105.625C1127.28 106.141 1128 106.865 1128.49 107.797C1128.99 108.724 1129.23 109.802 1129.23 111.031C1129.23 112.26 1128.99 113.341 1128.49 114.273C1128 115.201 1127.28 115.924 1126.36 116.445C1125.43 116.961 1124.32 117.219 1123.01 117.219ZM1123.04 114.031C1123.41 114.031 1123.72 113.909 1123.99 113.664C1124.26 113.419 1124.46 113.07 1124.61 112.617C1124.75 112.164 1124.83 111.625 1124.83 111C1124.83 110.37 1124.75 109.831 1124.61 109.383C1124.46 108.93 1124.26 108.581 1123.99 108.336C1123.72 108.091 1123.41 107.969 1123.04 107.969C1122.66 107.969 1122.33 108.091 1122.05 108.336C1121.78 108.581 1121.57 108.93 1121.42 109.383C1121.27 109.831 1121.2 110.37 1121.2 111C1121.2 111.625 1121.27 112.164 1121.42 112.617C1121.57 113.07 1121.78 113.419 1122.05 113.664C1122.33 113.909 1122.66 114.031 1123.04 114.031ZM1130.07 108.219V105H1141.69V108.219H1137.88V117H1133.82V108.219H1130.07ZM1148.77 117.219C1147.47 117.219 1146.36 116.961 1145.43 116.445C1144.5 115.924 1143.79 115.201 1143.3 114.273C1142.8 113.341 1142.55 112.26 1142.55 111.031C1142.55 109.802 1142.8 108.724 1143.3 107.797C1143.79 106.865 1144.5 106.141 1145.43 105.625C1146.36 105.104 1147.47 104.844 1148.77 104.844C1150.08 104.844 1151.19 105.104 1152.12 105.625C1153.04 106.141 1153.76 106.865 1154.25 107.797C1154.74 108.724 1154.99 109.802 1154.99 111.031C1154.99 112.26 1154.74 113.341 1154.25 114.273C1153.76 115.201 1153.04 115.924 1152.12 116.445C1151.19 116.961 1150.08 117.219 1148.77 117.219ZM1148.8 114.031C1149.17 114.031 1149.48 113.909 1149.75 113.664C1150.02 113.419 1150.22 113.07 1150.37 112.617C1150.51 112.164 1150.59 111.625 1150.59 111C1150.59 110.37 1150.51 109.831 1150.37 109.383C1150.22 108.93 1150.02 108.581 1149.75 108.336C1149.48 108.091 1149.17 107.969 1148.8 107.969C1148.42 107.969 1148.09 108.091 1147.81 108.336C1147.54 108.581 1147.33 108.93 1147.18 109.383C1147.03 109.831 1146.96 110.37 1146.96 111C1146.96 111.625 1147.03 112.164 1147.18 112.617C1147.33 113.07 1147.54 113.419 1147.81 113.664C1148.09 113.909 1148.42 114.031 1148.8 114.031ZM1156.74 117V105H1161.05V109.281H1161.8L1164.37 105H1169.3L1165.46 111.062L1169.34 117H1164.34L1162.02 113.281H1161.05V117H1156.74ZM1173.69 117.188C1172.92 117.188 1172.24 117.063 1171.65 116.812C1171.07 116.557 1170.61 116.172 1170.28 115.656C1169.95 115.141 1169.78 114.484 1169.78 113.687C1169.78 113.031 1169.89 112.471 1170.12 112.008C1170.34 111.539 1170.65 111.156 1171.05 110.859C1171.45 110.562 1171.92 110.336 1172.45 110.18C1172.99 110.023 1173.57 109.922 1174.19 109.875C1174.86 109.823 1175.4 109.76 1175.8 109.687C1176.21 109.609 1176.51 109.503 1176.69 109.367C1176.88 109.227 1176.97 109.042 1176.97 108.812V108.781C1176.97 108.469 1176.85 108.229 1176.61 108.062C1176.37 107.896 1176.06 107.812 1175.69 107.812C1175.27 107.812 1174.94 107.904 1174.68 108.086C1174.42 108.263 1174.27 108.536 1174.22 108.906H1170.25C1170.3 108.177 1170.53 107.505 1170.94 106.891C1171.36 106.271 1171.97 105.776 1172.76 105.406C1173.56 105.031 1174.56 104.844 1175.75 104.844C1176.61 104.844 1177.38 104.945 1178.06 105.148C1178.74 105.346 1179.32 105.625 1179.8 105.984C1180.28 106.339 1180.65 106.755 1180.9 107.234C1181.15 107.708 1181.28 108.224 1181.28 108.781V117H1177.25V115.312H1177.15C1176.91 115.76 1176.62 116.122 1176.28 116.398C1175.94 116.674 1175.55 116.875 1175.12 117C1174.68 117.125 1174.21 117.188 1173.69 117.188ZM1175.09 114.469C1175.42 114.469 1175.73 114.401 1176.01 114.266C1176.31 114.13 1176.54 113.935 1176.72 113.68C1176.91 113.424 1177 113.115 1177 112.75V111.75C1176.88 111.797 1176.76 111.841 1176.63 111.883C1176.51 111.924 1176.37 111.964 1176.22 112C1176.08 112.036 1175.93 112.07 1175.77 112.102C1175.62 112.133 1175.45 112.161 1175.28 112.188C1174.95 112.24 1174.67 112.326 1174.46 112.445C1174.25 112.56 1174.09 112.703 1173.99 112.875C1173.89 113.042 1173.84 113.229 1173.84 113.437C1173.84 113.771 1173.96 114.026 1174.19 114.203C1174.43 114.38 1174.73 114.469 1175.09 114.469Z" fill="white"/>
<defs>
<linearGradient id="paint0_linear_842_35" x1="976" y1="250.236" x2="1240.45" y2="149.992" gradientUnits="userSpaceOnUse">
<stop stop-color="#C42C14"/>
<stop offset="1" stop-color="#E63114" stop-opacity="0"/>
</linearGradient>
<linearGradient id="paint1_linear_842_35" x1="-541.711" y1="-97.5" x2="724.999" y2="693.25" gradientUnits="userSpaceOnUse">
<stop stop-color="#C42C14"/>
<stop offset="1" stop-color="#E63114" stop-opacity="0"/>
</linearGradient>
<linearGradient id="paint2_linear_842_35" x1="803.999" y1="390" x2="1124.9" y2="-130.041" gradientUnits="userSpaceOnUse">
<stop stop-color="#E63114"/>
<stop offset="1" stop-color="#E63114" stop-opacity="0"/>
</linearGradient>
<linearGradient id="paint3_linear_842_35" x1="1652.5" y1="250" x2="1914.58" y2="8.58449" gradientUnits="userSpaceOnUse">
<stop stop-color="#C42C14"/>
<stop offset="1" stop-color="#E63114" stop-opacity="0"/>
</linearGradient>
</defs>
</svg>
