<svg width="834" height="403" viewBox="0 0 834 403" fill="none" xmlns="http://www.w3.org/2000/svg">
<path d="M-1 0L394 6.9064e-05L394 401L-1.00007 401L-1 0Z" fill="url(#paint0_linear_831_11064)"/>
<path d="M394 403L557 252.236L557 183.065L394 2L394 403Z" fill="url(#paint1_linear_831_11064)"/>
<path d="M532.549 222C532.243 222.002 531.943 221.911 531.687 221.739C531.432 221.567 531.233 221.321 531.116 221.034C530.999 220.746 530.97 220.43 531.031 220.125C531.093 219.821 531.243 219.542 531.462 219.324L534.774 215.982L531.462 212.625C531.19 212.329 531.042 211.938 531.049 211.533C531.056 211.129 531.218 210.743 531.5 210.457C531.782 210.171 532.162 210.007 532.561 210C532.959 209.993 533.345 210.143 533.637 210.419L538.913 215.771C538.941 215.799 538.963 215.831 538.977 215.868C538.992 215.904 539 215.943 539 215.982C539 216.021 538.992 216.06 538.977 216.096C538.963 216.133 538.941 216.165 538.913 216.193L533.637 221.545C533.348 221.837 532.957 222 532.549 222Z" fill="white"/>
<path d="M414.031 214V198H425.281V201.5H418.375V203.375H420C421.344 203.375 422.518 203.591 423.523 204.023C424.534 204.456 425.318 205.065 425.875 205.852C426.438 206.638 426.719 207.562 426.719 208.625C426.719 209.687 426.438 210.622 425.875 211.43C425.318 212.237 424.534 212.867 423.523 213.32C422.518 213.773 421.344 214 420 214H414.031ZM418.375 210.594H420C420.521 210.594 420.958 210.508 421.312 210.336C421.672 210.164 421.943 209.927 422.125 209.625C422.313 209.323 422.406 208.979 422.406 208.594C422.406 208.047 422.201 207.594 421.789 207.234C421.378 206.87 420.781 206.687 420 206.687H418.375V210.594ZM432.379 208.5L435.723 202H439.785V214H435.723V207.469L432.379 214H428.316V202H432.379V208.5ZM441.449 210.375H445.512C445.512 210.677 445.642 210.924 445.902 211.117C446.168 211.31 446.507 211.406 446.918 211.406C447.329 211.406 447.665 211.299 447.926 211.086C448.191 210.867 448.324 210.589 448.324 210.25C448.324 210.036 448.27 209.849 448.16 209.687C448.051 209.521 447.9 209.391 447.707 209.297C447.514 209.203 447.293 209.156 447.043 209.156H445.543V206.625H447.043C447.413 206.625 447.712 206.536 447.941 206.359C448.176 206.182 448.293 205.958 448.293 205.688C448.293 205.375 448.178 205.12 447.949 204.922C447.72 204.724 447.428 204.625 447.074 204.625C446.72 204.625 446.428 204.706 446.199 204.867C445.97 205.029 445.855 205.24 445.855 205.5H441.793C441.793 204.729 442.022 204.073 442.48 203.531C442.939 202.984 443.553 202.568 444.324 202.281C445.095 201.99 445.949 201.844 446.887 201.844C447.96 201.844 448.882 201.974 449.652 202.234C450.423 202.495 451.014 202.878 451.426 203.383C451.837 203.888 452.043 204.51 452.043 205.25C452.043 205.859 451.822 206.383 451.379 206.82C450.936 207.253 450.283 207.563 449.418 207.75V207.875C449.934 207.901 450.413 208.023 450.855 208.242C451.303 208.461 451.665 208.773 451.941 209.18C452.217 209.586 452.355 210.089 452.355 210.687C452.355 211.437 452.121 212.076 451.652 212.602C451.189 213.128 450.548 213.529 449.73 213.805C448.913 214.081 447.975 214.219 446.918 214.219C445.887 214.219 444.965 214.081 444.152 213.805C443.34 213.523 442.694 213.099 442.215 212.531C441.736 211.958 441.48 211.24 441.449 210.375ZM462.596 206.344V209.562H456.564V206.344H462.596ZM458.096 202V214H454.033V202H458.096ZM465.127 202V214H461.096V202H465.127ZM472.932 214.219C471.65 214.219 470.546 213.974 469.619 213.484C468.697 212.99 467.986 212.281 467.486 211.359C466.992 210.432 466.744 209.323 466.744 208.031C466.744 206.792 466.994 205.708 467.494 204.781C467.994 203.854 468.7 203.133 469.611 202.617C470.523 202.102 471.598 201.844 472.838 201.844C473.744 201.844 474.564 201.984 475.299 202.266C476.033 202.547 476.661 202.956 477.182 203.492C477.702 204.023 478.104 204.669 478.385 205.43C478.666 206.19 478.807 207.047 478.807 208V209H468.088V206.625H474.838C474.833 206.281 474.744 205.979 474.572 205.719C474.406 205.453 474.179 205.247 473.893 205.102C473.611 204.951 473.291 204.875 472.932 204.875C472.583 204.875 472.262 204.951 471.971 205.102C471.679 205.247 471.445 205.451 471.268 205.711C471.096 205.971 471.005 206.276 470.994 206.625V209.188C470.994 209.573 471.075 209.917 471.236 210.219C471.398 210.521 471.63 210.758 471.932 210.93C472.234 211.102 472.598 211.188 473.025 211.188C473.322 211.188 473.593 211.146 473.838 211.062C474.088 210.979 474.301 210.859 474.479 210.703C474.656 210.542 474.786 210.349 474.869 210.125H478.807C478.671 210.958 478.351 211.682 477.846 212.297C477.34 212.906 476.671 213.38 475.838 213.719C475.01 214.052 474.041 214.219 472.932 214.219ZM486.348 214.219C485.046 214.219 483.931 213.961 483.004 213.445C482.077 212.924 481.366 212.201 480.871 211.273C480.376 210.341 480.129 209.26 480.129 208.031C480.129 206.802 480.376 205.724 480.871 204.797C481.366 203.865 482.077 203.141 483.004 202.625C483.931 202.104 485.046 201.844 486.348 201.844C487.525 201.844 488.543 202.057 489.402 202.484C490.267 202.906 490.936 203.505 491.41 204.281C491.884 205.052 492.124 205.958 492.129 207H488.129C488.072 206.37 487.889 205.891 487.582 205.562C487.28 205.229 486.889 205.062 486.41 205.062C486.035 205.062 485.707 205.172 485.426 205.391C485.145 205.604 484.926 205.93 484.77 206.367C484.613 206.799 484.535 207.344 484.535 208C484.535 208.656 484.613 209.203 484.77 209.641C484.926 210.073 485.145 210.398 485.426 210.617C485.707 210.831 486.035 210.937 486.41 210.937C486.728 210.937 487.009 210.865 487.254 210.719C487.499 210.568 487.697 210.349 487.848 210.062C488.004 209.771 488.098 209.417 488.129 209H492.129C492.113 210.057 491.871 210.979 491.402 211.766C490.934 212.547 490.27 213.151 489.41 213.578C488.556 214.005 487.535 214.219 486.348 214.219ZM425.281 224V236H421.25V224H425.281ZM423.188 228.969V232.188C423.042 232.281 422.789 232.375 422.43 232.469C422.076 232.557 421.701 232.633 421.305 232.695C420.914 232.753 420.594 232.781 420.344 232.781C418.375 232.781 416.841 232.432 415.742 231.734C414.643 231.036 414.094 229.875 414.094 228.25V224H418.094V228.25C418.094 228.615 418.146 228.891 418.25 229.078C418.359 229.266 418.573 229.393 418.891 229.461C419.214 229.529 419.698 229.562 420.344 229.562C420.734 229.562 421.156 229.516 421.609 229.422C422.068 229.323 422.594 229.172 423.188 228.969ZM430.693 236.188C429.928 236.188 429.251 236.063 428.662 235.812C428.079 235.557 427.62 235.172 427.287 234.656C426.954 234.141 426.787 233.484 426.787 232.687C426.787 232.031 426.899 231.471 427.123 231.008C427.347 230.539 427.66 230.156 428.061 229.859C428.462 229.562 428.928 229.336 429.459 229.18C429.995 229.023 430.574 228.922 431.193 228.875C431.865 228.823 432.404 228.76 432.811 228.687C433.222 228.609 433.519 228.503 433.701 228.367C433.883 228.227 433.975 228.042 433.975 227.812V227.781C433.975 227.469 433.855 227.229 433.615 227.062C433.376 226.896 433.068 226.812 432.693 226.812C432.282 226.812 431.946 226.904 431.686 227.086C431.43 227.263 431.277 227.536 431.225 227.906H427.256C427.308 227.177 427.54 226.505 427.951 225.891C428.368 225.271 428.975 224.776 429.771 224.406C430.568 224.031 431.563 223.844 432.756 223.844C433.615 223.844 434.386 223.945 435.068 224.148C435.751 224.346 436.331 224.625 436.811 224.984C437.29 225.339 437.654 225.755 437.904 226.234C438.16 226.708 438.287 227.224 438.287 227.781V236H434.256V234.312H434.162C433.923 234.76 433.631 235.122 433.287 235.398C432.949 235.674 432.561 235.875 432.123 236C431.691 236.125 431.214 236.188 430.693 236.188ZM432.1 233.469C432.428 233.469 432.735 233.401 433.021 233.266C433.313 233.13 433.55 232.935 433.732 232.68C433.915 232.424 434.006 232.115 434.006 231.75V230.75C433.891 230.797 433.769 230.841 433.639 230.883C433.514 230.924 433.378 230.964 433.232 231C433.092 231.036 432.941 231.07 432.779 231.102C432.623 231.133 432.459 231.161 432.287 231.188C431.954 231.24 431.68 231.326 431.467 231.445C431.258 231.56 431.102 231.703 430.998 231.875C430.899 232.042 430.85 232.229 430.85 232.437C430.85 232.771 430.967 233.026 431.201 233.203C431.436 233.38 431.735 233.469 432.1 233.469ZM446.129 236.219C444.827 236.219 443.712 235.961 442.785 235.445C441.858 234.924 441.147 234.201 440.652 233.273C440.158 232.341 439.91 231.26 439.91 230.031C439.91 228.802 440.158 227.724 440.652 226.797C441.147 225.865 441.858 225.141 442.785 224.625C443.712 224.104 444.827 223.844 446.129 223.844C447.306 223.844 448.324 224.057 449.184 224.484C450.048 224.906 450.717 225.505 451.191 226.281C451.665 227.052 451.905 227.958 451.91 229H447.91C447.853 228.37 447.671 227.891 447.363 227.562C447.061 227.229 446.671 227.062 446.191 227.062C445.816 227.062 445.488 227.172 445.207 227.391C444.926 227.604 444.707 227.93 444.551 228.367C444.395 228.799 444.316 229.344 444.316 230C444.316 230.656 444.395 231.203 444.551 231.641C444.707 232.073 444.926 232.398 445.207 232.617C445.488 232.831 445.816 232.937 446.191 232.937C446.509 232.937 446.79 232.865 447.035 232.719C447.28 232.568 447.478 232.349 447.629 232.062C447.785 231.771 447.879 231.417 447.91 231H451.91C451.895 232.057 451.652 232.979 451.184 233.766C450.715 234.547 450.051 235.151 449.191 235.578C448.337 236.005 447.316 236.219 446.129 236.219ZM452.967 227.219V224H464.592V227.219H460.779V236H456.717V227.219H452.967ZM470.256 230.5L473.6 224H477.662V236H473.6V229.469L470.256 236H466.193V224H470.256V230.5ZM491.045 224V233.312H493.107V239.844H488.951V236H479.857V224H483.92V232.781H487.045V224H491.045ZM497.045 227.25H500.732C502.446 227.25 503.795 227.646 504.779 228.438C505.764 229.224 506.258 230.307 506.264 231.687C506.258 232.578 506.032 233.346 505.584 233.992C505.141 234.638 504.506 235.135 503.678 235.484C502.855 235.828 501.873 236 500.732 236H494.639V224H498.701V232.781H500.732C501.175 232.781 501.54 232.677 501.826 232.469C502.113 232.255 502.258 231.984 502.264 231.656C502.258 231.307 502.113 231.023 501.826 230.805C501.54 230.581 501.175 230.469 500.732 230.469H497.045V227.25ZM507.139 236V224H511.451V236H507.139Z" fill="white"/>
<path d="M675 252L557 252L557 182L675 182L675 252Z" fill="url(#paint2_linear_831_11064)"/>
<path d="M675 252L834 225.98L834 206.853L675 182L675 252Z" fill="url(#paint3_linear_831_11064)"/>
<path d="M749 274.451C749.002 274.757 748.911 275.057 748.739 275.313C748.567 275.568 748.321 275.767 748.034 275.884C747.746 276.001 747.43 276.03 747.125 275.969C746.821 275.907 746.542 275.757 746.324 275.538L742.982 272.226L739.625 275.538C739.329 275.81 738.938 275.958 738.533 275.951C738.129 275.944 737.743 275.782 737.457 275.5C737.171 275.218 737.007 274.838 737 274.439C736.993 274.041 737.143 273.655 737.419 273.363L742.771 268.087C742.799 268.059 742.831 268.037 742.868 268.023C742.904 268.008 742.943 268 742.982 268C743.021 268 743.06 268.008 743.096 268.023C743.133 268.037 743.165 268.059 743.193 268.087L748.545 273.363C748.837 273.652 749 274.043 749 274.451Z" fill="white"/>
<path d="M606 146.549C605.998 146.243 606.089 145.943 606.261 145.687C606.433 145.432 606.679 145.233 606.966 145.116C607.254 144.999 607.57 144.97 607.875 145.031C608.179 145.093 608.458 145.243 608.676 145.462L612.018 148.774L615.375 145.462C615.671 145.19 616.062 145.042 616.467 145.049C616.871 145.056 617.257 145.218 617.543 145.5C617.829 145.782 617.993 146.162 618 146.561C618.007 146.959 617.857 147.345 617.581 147.637L612.229 152.913C612.201 152.941 612.169 152.963 612.132 152.977C612.096 152.992 612.057 153 612.018 153C611.979 153 611.94 152.992 611.904 152.977C611.867 152.963 611.835 152.941 611.807 152.913L606.455 147.637C606.163 147.348 606 146.957 606 146.549Z" fill="white"/>
<path d="M712.736 299V315H708.455V302.437H703.049V315H698.768V299H712.736ZM719.641 309.5L722.984 303H727.047V315H722.984V308.469L719.641 315H715.578V303H719.641V309.5ZM739.93 298.656L740.992 301.531C740.669 301.76 740.326 301.94 739.961 302.07C739.596 302.195 739.141 302.284 738.594 302.336C738.047 302.383 737.336 302.406 736.461 302.406C735.471 302.406 734.674 302.521 734.07 302.75C733.466 302.979 733.01 303.367 732.703 303.914C732.396 304.461 732.19 305.208 732.086 306.156H732.18C732.508 305.437 732.977 304.862 733.586 304.43C734.201 303.997 735.034 303.781 736.086 303.781C737.164 303.781 738.094 304.01 738.875 304.469C739.656 304.922 740.255 305.56 740.672 306.383C741.094 307.206 741.305 308.172 741.305 309.281C741.305 310.479 741.057 311.523 740.562 312.414C740.068 313.305 739.357 313.995 738.43 314.484C737.503 314.974 736.388 315.219 735.086 315.219C733.784 315.219 732.669 314.964 731.742 314.453C730.815 313.943 730.104 313.193 729.609 312.203C729.115 311.214 728.867 310 728.867 308.562V307.781C728.867 304.74 729.5 302.516 730.766 301.109C732.036 299.703 733.883 299 736.305 299C736.867 299 737.378 299 737.836 299C738.299 299 738.706 298.977 739.055 298.93C739.409 298.883 739.701 298.792 739.93 298.656ZM735.117 312.031C735.482 312.031 735.797 311.932 736.063 311.734C736.328 311.531 736.534 311.24 736.68 310.859C736.826 310.474 736.898 310.01 736.898 309.469C736.898 308.917 736.826 308.448 736.68 308.063C736.534 307.677 736.328 307.383 736.063 307.18C735.797 306.977 735.482 306.875 735.117 306.875C734.831 306.875 734.573 306.932 734.344 307.047C734.115 307.161 733.919 307.331 733.758 307.555C733.602 307.773 733.482 308.044 733.398 308.367C733.315 308.685 733.273 309.052 733.273 309.469C733.273 310.281 733.435 310.911 733.758 311.359C734.086 311.807 734.539 312.031 735.117 312.031ZM745.527 306.25H749.215C750.928 306.25 752.277 306.646 753.262 307.438C754.246 308.224 754.741 309.307 754.746 310.687C754.741 311.578 754.514 312.346 754.066 312.992C753.624 313.638 752.988 314.135 752.16 314.484C751.337 314.828 750.355 315 749.215 315H743.121V303H747.184V311.781H749.215C749.658 311.781 750.022 311.677 750.309 311.469C750.595 311.255 750.741 310.984 750.746 310.656C750.741 310.307 750.595 310.023 750.309 309.805C750.022 309.581 749.658 309.469 749.215 309.469H745.527V306.25ZM755.621 315V303H759.934V315H755.621ZM761.645 315L761.613 311.75H761.988C762.223 311.75 762.428 311.682 762.605 311.547C762.788 311.411 762.941 311.203 763.066 310.922C763.197 310.641 763.298 310.284 763.371 309.852C763.449 309.419 763.499 308.906 763.52 308.312L763.707 303H773.582V315H769.52V306.219H767.52L767.332 309.469C767.28 310.49 767.134 311.354 766.895 312.062C766.66 312.771 766.348 313.341 765.957 313.773C765.566 314.201 765.113 314.513 764.598 314.711C764.082 314.904 763.514 315 762.895 315H761.645ZM778.055 306.25H781.742C783.456 306.25 784.805 306.646 785.789 307.438C786.773 308.224 787.268 309.307 787.273 310.687C787.268 311.578 787.042 312.346 786.594 312.992C786.151 313.638 785.516 314.135 784.688 314.484C783.865 314.828 782.883 315 781.742 315H775.648V303H779.711V311.781H781.742C782.185 311.781 782.549 311.677 782.836 311.469C783.122 311.255 783.268 310.984 783.273 310.656C783.268 310.307 783.122 310.023 782.836 309.805C782.549 309.581 782.185 309.469 781.742 309.469H778.055V306.25ZM688.153 337V325H692.466V329.281H693.216L695.778 325H700.716L696.872 331.062L700.747 337H695.747L693.435 333.281H692.466V337H688.153ZM707.04 337.219C705.738 337.219 704.623 336.961 703.696 336.445C702.769 335.924 702.058 335.201 701.563 334.273C701.069 333.341 700.821 332.26 700.821 331.031C700.821 329.802 701.069 328.724 701.563 327.797C702.058 326.865 702.769 326.141 703.696 325.625C704.623 325.104 705.738 324.844 707.04 324.844C708.342 324.844 709.457 325.104 710.384 325.625C711.311 326.141 712.022 326.865 712.517 327.797C713.011 328.724 713.259 329.802 713.259 331.031C713.259 332.26 713.011 333.341 712.517 334.273C712.022 335.201 711.311 335.924 710.384 336.445C709.457 336.961 708.342 337.219 707.04 337.219ZM707.071 334.031C707.436 334.031 707.751 333.909 708.017 333.664C708.282 333.419 708.488 333.07 708.634 332.617C708.78 332.164 708.853 331.625 708.853 331C708.853 330.37 708.78 329.831 708.634 329.383C708.488 328.93 708.282 328.581 708.017 328.336C707.751 328.091 707.436 327.969 707.071 327.969C706.686 327.969 706.355 328.091 706.079 328.336C705.803 328.581 705.592 328.93 705.446 329.383C705.3 329.831 705.228 330.37 705.228 331C705.228 331.625 705.3 332.164 705.446 332.617C705.592 333.07 705.803 333.419 706.079 333.664C706.355 333.909 706.686 334.031 707.071 334.031ZM722.446 332.531L725.071 325H728.134L723.79 337H721.103L716.884 325H719.946L722.446 332.531ZM719.071 325V337H715.009V325H719.071ZM726.103 337V325H730.103V337H726.103ZM732.175 337V325H743.362V337H739.3V328.219H736.175V337H732.175ZM748.903 337.188C748.138 337.188 747.461 337.063 746.872 336.812C746.289 336.557 745.83 336.172 745.497 335.656C745.164 335.141 744.997 334.484 744.997 333.687C744.997 333.031 745.109 332.471 745.333 332.008C745.557 331.539 745.869 331.156 746.271 330.859C746.672 330.562 747.138 330.336 747.669 330.18C748.205 330.023 748.784 329.922 749.403 329.875C750.075 329.823 750.614 329.76 751.021 329.687C751.432 329.609 751.729 329.503 751.911 329.367C752.093 329.227 752.185 329.042 752.185 328.812V328.781C752.185 328.469 752.065 328.229 751.825 328.062C751.586 327.896 751.278 327.812 750.903 327.812C750.492 327.812 750.156 327.904 749.896 328.086C749.64 328.263 749.487 328.536 749.435 328.906H745.466C745.518 328.177 745.75 327.505 746.161 326.891C746.578 326.271 747.185 325.776 747.981 325.406C748.778 325.031 749.773 324.844 750.966 324.844C751.825 324.844 752.596 324.945 753.278 325.148C753.961 325.346 754.541 325.625 755.021 325.984C755.5 326.339 755.864 326.755 756.114 327.234C756.369 327.708 756.497 328.224 756.497 328.781V337H752.466V335.312H752.372C752.132 335.76 751.841 336.122 751.497 336.398C751.159 336.674 750.771 336.875 750.333 337C749.901 337.125 749.424 337.188 748.903 337.188ZM750.31 334.469C750.638 334.469 750.945 334.401 751.231 334.266C751.523 334.13 751.76 333.935 751.942 333.68C752.125 333.424 752.216 333.115 752.216 332.75V331.75C752.101 331.797 751.979 331.841 751.849 331.883C751.724 331.924 751.588 331.964 751.442 332C751.302 332.036 751.151 332.07 750.989 332.102C750.833 332.133 750.669 332.161 750.497 332.188C750.164 332.24 749.89 332.326 749.677 332.445C749.468 332.56 749.312 332.703 749.208 332.875C749.109 333.042 749.06 333.229 749.06 333.437C749.06 333.771 749.177 334.026 749.411 334.203C749.646 334.38 749.945 334.469 750.31 334.469ZM767.12 329.344V332.562H761.089V329.344H767.12ZM762.62 325V337H758.558V325H762.62ZM769.651 325V337H765.62V325H769.651ZM775.769 331.5L779.112 325H783.175V337H779.112V330.469L775.769 337H771.706V325H775.769V331.5ZM789.433 331.5L792.776 325H796.839V337H792.776V330.469L789.433 337H785.37V325H789.433V331.5ZM792.651 320.687H795.37C795.365 321.703 794.977 322.516 794.206 323.125C793.435 323.729 792.396 324.031 791.089 324.031C789.771 324.031 788.727 323.729 787.956 323.125C787.185 322.516 786.802 321.703 786.808 320.687H789.495C789.49 321.016 789.607 321.318 789.847 321.594C790.091 321.865 790.506 322 791.089 322C791.646 322 792.045 321.867 792.284 321.602C792.524 321.336 792.646 321.031 792.651 320.687Z" fill="white"/>
<path d="M553.663 95C553.663 96.7812 553.317 98.2839 552.624 99.5078C551.931 100.727 550.996 101.651 549.819 102.281C548.642 102.906 547.33 103.219 545.882 103.219C544.424 103.219 543.106 102.904 541.929 102.273C540.757 101.638 539.825 100.711 539.132 99.4922C538.444 98.2682 538.101 96.7708 538.101 95C538.101 93.2187 538.444 91.7187 539.132 90.5C539.825 89.276 540.757 88.3516 541.929 87.7266C543.106 87.0964 544.424 86.7812 545.882 86.7812C547.33 86.7812 548.642 87.0964 549.819 87.7266C550.996 88.3516 551.931 89.276 552.624 90.5C553.317 91.7187 553.663 93.2187 553.663 95ZM549.194 95C549.194 94.0417 549.067 93.2344 548.812 92.5781C548.562 91.9167 548.189 91.4167 547.694 91.0781C547.205 90.7344 546.601 90.5625 545.882 90.5625C545.163 90.5625 544.556 90.7344 544.062 91.0781C543.572 91.4167 543.2 91.9167 542.944 92.5781C542.694 93.2344 542.569 94.0417 542.569 95C542.569 95.9583 542.694 96.7682 542.944 97.4297C543.2 98.0859 543.572 98.5859 544.062 98.9297C544.556 99.2682 545.163 99.4375 545.882 99.4375C546.601 99.4375 547.205 99.2682 547.694 98.9297C548.189 98.5859 548.562 98.0859 548.812 97.4297C549.067 96.7682 549.194 95.9583 549.194 95ZM564.485 91V94.2187H559.892V103H555.735V91H564.485ZM566.069 107.5V91H570.351V93.0937H570.444C570.601 92.6875 570.83 92.3151 571.132 91.9766C571.434 91.6328 571.809 91.3594 572.257 91.1562C572.705 90.9479 573.226 90.8438 573.819 90.8438C574.611 90.8438 575.364 91.0547 576.077 91.4766C576.796 91.8984 577.379 92.5625 577.827 93.4687C578.28 94.375 578.507 95.5521 578.507 97C578.507 98.3854 578.291 99.5339 577.858 100.445C577.431 101.357 576.858 102.036 576.14 102.484C575.426 102.932 574.642 103.156 573.788 103.156C573.226 103.156 572.723 103.065 572.28 102.883C571.843 102.695 571.468 102.443 571.155 102.125C570.848 101.802 570.611 101.437 570.444 101.031H570.382V107.5H566.069ZM570.288 97C570.288 97.5833 570.364 98.0885 570.515 98.5156C570.671 98.9375 570.89 99.2656 571.171 99.5C571.457 99.7292 571.799 99.8438 572.194 99.8438C572.59 99.8438 572.926 99.7318 573.202 99.5078C573.483 99.2786 573.697 98.9531 573.843 98.5312C573.994 98.1042 574.069 97.5937 574.069 97C574.069 96.4062 573.994 95.8984 573.843 95.4766C573.697 95.0495 573.483 94.724 573.202 94.5C572.926 94.2708 572.59 94.1562 572.194 94.1562C571.799 94.1562 571.457 94.2708 571.171 94.5C570.89 94.724 570.671 95.0495 570.515 95.4766C570.364 95.8984 570.288 96.4062 570.288 97ZM583.657 103.188C582.892 103.188 582.215 103.063 581.626 102.812C581.043 102.557 580.584 102.172 580.251 101.656C579.918 101.141 579.751 100.484 579.751 99.6875C579.751 99.0312 579.863 98.4714 580.087 98.0078C580.311 97.5391 580.623 97.1562 581.024 96.8594C581.425 96.5625 581.892 96.3359 582.423 96.1797C582.959 96.0234 583.537 95.9219 584.157 95.875C584.829 95.8229 585.368 95.7604 585.774 95.6875C586.186 95.6094 586.483 95.5026 586.665 95.3672C586.847 95.2266 586.938 95.0417 586.938 94.8125V94.7812C586.938 94.4687 586.819 94.2292 586.579 94.0625C586.34 93.8958 586.032 93.8125 585.657 93.8125C585.246 93.8125 584.91 93.9036 584.649 94.0859C584.394 94.263 584.241 94.5365 584.188 94.9062H580.22C580.272 94.1771 580.504 93.5052 580.915 92.8906C581.332 92.2708 581.938 91.776 582.735 91.4063C583.532 91.0313 584.527 90.8438 585.72 90.8438C586.579 90.8438 587.35 90.9453 588.032 91.1484C588.715 91.3464 589.295 91.625 589.774 91.9844C590.254 92.3385 590.618 92.7552 590.868 93.2344C591.123 93.7083 591.251 94.224 591.251 94.7812V103H587.22V101.312H587.126C586.886 101.76 586.595 102.122 586.251 102.398C585.912 102.674 585.524 102.875 585.087 103C584.655 103.125 584.178 103.188 583.657 103.188ZM585.063 100.469C585.392 100.469 585.699 100.401 585.985 100.266C586.277 100.13 586.514 99.9349 586.696 99.6797C586.879 99.4245 586.97 99.1146 586.97 98.75V97.75C586.855 97.7969 586.733 97.8411 586.603 97.8828C586.478 97.9245 586.342 97.9635 586.196 98C586.056 98.0365 585.905 98.0703 585.743 98.1016C585.587 98.1328 585.423 98.1615 585.251 98.1875C584.918 98.2396 584.644 98.3255 584.431 98.4453C584.222 98.5599 584.066 98.7031 583.962 98.875C583.863 99.0417 583.813 99.2292 583.813 99.4375C583.813 99.7708 583.931 100.026 584.165 100.203C584.399 100.38 584.699 100.469 585.063 100.469ZM601.874 95.3437V98.5625H595.843V95.3437H601.874ZM597.374 91V103H593.312V91H597.374ZM604.405 91V103H600.374V91H604.405ZM610.522 97.5L613.866 91H617.929V103H613.866V96.4688L610.522 103H606.46V91H610.522V97.5ZM631.312 91V103H627.28V91H631.312ZM629.218 95.9687V99.1875C629.072 99.2812 628.819 99.375 628.46 99.4687C628.106 99.5573 627.731 99.6328 627.335 99.6953C626.944 99.7526 626.624 99.7812 626.374 99.7812C624.405 99.7812 622.871 99.4323 621.772 98.7344C620.674 98.0365 620.124 96.875 620.124 95.25V91H624.124V95.25C624.124 95.6146 624.176 95.8906 624.28 96.0781C624.39 96.2656 624.603 96.3932 624.921 96.4609C625.244 96.5286 625.728 96.5625 626.374 96.5625C626.765 96.5625 627.187 96.5156 627.64 96.4219C628.098 96.3229 628.624 96.1719 629.218 95.9687ZM639.13 103.219C637.849 103.219 636.744 102.974 635.817 102.484C634.896 101.99 634.185 101.281 633.685 100.359C633.19 99.4323 632.942 98.3229 632.942 97.0313C632.942 95.7917 633.192 94.7083 633.692 93.7812C634.192 92.8542 634.898 92.1328 635.81 91.6172C636.721 91.1016 637.797 90.8438 639.036 90.8438C639.942 90.8438 640.763 90.9844 641.497 91.2656C642.231 91.5469 642.859 91.9557 643.38 92.4922C643.901 93.0234 644.302 93.6693 644.583 94.4297C644.864 95.1901 645.005 96.0469 645.005 97V98H634.286V95.625H641.036C641.031 95.2812 640.942 94.9792 640.771 94.7187C640.604 94.4531 640.377 94.2474 640.091 94.1016C639.81 93.9505 639.489 93.875 639.13 93.875C638.781 93.875 638.461 93.9505 638.169 94.1016C637.877 94.2474 637.643 94.4505 637.466 94.7109C637.294 94.9714 637.203 95.276 637.192 95.625V98.1875C637.192 98.5729 637.273 98.9167 637.435 99.2188C637.596 99.5208 637.828 99.7578 638.13 99.9297C638.432 100.102 638.797 100.188 639.224 100.188C639.521 100.188 639.791 100.146 640.036 100.062C640.286 99.9792 640.5 99.8594 640.677 99.7031C640.854 99.5417 640.984 99.349 641.067 99.125H645.005C644.869 99.9583 644.549 100.682 644.044 101.297C643.539 101.906 642.869 102.38 642.036 102.719C641.208 103.052 640.239 103.219 639.13 103.219ZM655.327 95.3437V98.5625H649.296V95.3437H655.327ZM650.827 91V103H646.765V91H650.827ZM657.858 91V103H653.827V91H657.858ZM663.976 97.5L667.319 91H671.382V103H667.319V96.4688L663.976 103H659.913V91H663.976V97.5ZM679.327 103.219C678.046 103.219 676.942 102.974 676.015 102.484C675.093 101.99 674.382 101.281 673.882 100.359C673.387 99.4323 673.14 98.3229 673.14 97.0313C673.14 95.7917 673.39 94.7083 673.89 93.7812C674.39 92.8542 675.095 92.1328 676.007 91.6172C676.918 91.1016 677.994 90.8438 679.233 90.8438C680.14 90.8438 680.96 90.9844 681.694 91.2656C682.429 91.5469 683.056 91.9557 683.577 92.4922C684.098 93.0234 684.499 93.6693 684.78 94.4297C685.062 95.1901 685.202 96.0469 685.202 97V98H674.483V95.625H681.233C681.228 95.2812 681.14 94.9792 680.968 94.7187C680.801 94.4531 680.575 94.2474 680.288 94.1016C680.007 93.9505 679.687 93.875 679.327 93.875C678.978 93.875 678.658 93.9505 678.366 94.1016C678.075 94.2474 677.84 94.4505 677.663 94.7109C677.491 94.9714 677.4 95.276 677.39 95.625V98.1875C677.39 98.5729 677.47 98.9167 677.632 99.2188C677.793 99.5208 678.025 99.7578 678.327 99.9297C678.629 100.102 678.994 100.188 679.421 100.188C679.718 100.188 679.989 100.146 680.233 100.062C680.483 99.9792 680.697 99.8594 680.874 99.7031C681.051 99.5417 681.181 99.349 681.265 99.125H685.202C685.067 99.9583 684.746 100.682 684.241 101.297C683.736 101.906 683.067 102.38 682.233 102.719C681.405 103.052 680.437 103.219 679.327 103.219ZM572.848 125V113H584.035V125H579.973V116.219H576.848V125H572.848ZM592.014 125.219C590.712 125.219 589.597 124.961 588.67 124.445C587.743 123.924 587.032 123.201 586.537 122.273C586.042 121.341 585.795 120.26 585.795 119.031C585.795 117.802 586.042 116.724 586.537 115.797C587.032 114.865 587.743 114.141 588.67 113.625C589.597 113.104 590.712 112.844 592.014 112.844C593.316 112.844 594.43 113.104 595.357 113.625C596.285 114.141 596.995 114.865 597.49 115.797C597.985 116.724 598.232 117.802 598.232 119.031C598.232 120.26 597.985 121.341 597.49 122.273C596.995 123.201 596.285 123.924 595.357 124.445C594.43 124.961 593.316 125.219 592.014 125.219ZM592.045 122.031C592.41 122.031 592.725 121.909 592.99 121.664C593.256 121.419 593.462 121.07 593.607 120.617C593.753 120.164 593.826 119.625 593.826 119C593.826 118.37 593.753 117.831 593.607 117.383C593.462 116.93 593.256 116.581 592.99 116.336C592.725 116.091 592.41 115.969 592.045 115.969C591.66 115.969 591.329 116.091 591.053 116.336C590.777 116.581 590.566 116.93 590.42 117.383C590.274 117.831 590.201 118.37 590.201 119C590.201 119.625 590.274 120.164 590.42 120.617C590.566 121.07 590.777 121.419 591.053 121.664C591.329 121.909 591.66 122.031 592.045 122.031ZM599.066 116.219V113H610.691V116.219H606.879V125H602.816V116.219H599.066ZM617.773 125.219C616.471 125.219 615.357 124.961 614.43 124.445C613.503 123.924 612.792 123.201 612.297 122.273C611.802 121.341 611.555 120.26 611.555 119.031C611.555 117.802 611.802 116.724 612.297 115.797C612.792 114.865 613.503 114.141 614.43 113.625C615.357 113.104 616.471 112.844 617.773 112.844C619.076 112.844 620.19 113.104 621.117 113.625C622.044 114.141 622.755 114.865 623.25 115.797C623.745 116.724 623.992 117.802 623.992 119.031C623.992 120.26 623.745 121.341 623.25 122.273C622.755 123.201 622.044 123.924 621.117 124.445C620.19 124.961 619.076 125.219 617.773 125.219ZM617.805 122.031C618.169 122.031 618.484 121.909 618.75 121.664C619.016 121.419 619.221 121.07 619.367 120.617C619.513 120.164 619.586 119.625 619.586 119C619.586 118.37 619.513 117.831 619.367 117.383C619.221 116.93 619.016 116.581 618.75 116.336C618.484 116.091 618.169 115.969 617.805 115.969C617.419 115.969 617.089 116.091 616.813 116.336C616.536 116.581 616.326 116.93 616.18 117.383C616.034 117.831 615.961 118.37 615.961 119C615.961 119.625 616.034 120.164 616.18 120.617C616.326 121.07 616.536 121.419 616.813 121.664C617.089 121.909 617.419 122.031 617.805 122.031ZM625.742 125V113H630.055V117.281H630.805L633.367 113H638.305L634.461 119.062L638.336 125H633.336L631.023 121.281H630.055V125H625.742ZM642.686 125.188C641.92 125.188 641.243 125.063 640.654 124.812C640.071 124.557 639.613 124.172 639.279 123.656C638.946 123.141 638.779 122.484 638.779 121.687C638.779 121.031 638.891 120.471 639.115 120.008C639.339 119.539 639.652 119.156 640.053 118.859C640.454 118.562 640.92 118.336 641.451 118.18C641.988 118.023 642.566 117.922 643.186 117.875C643.857 117.823 644.396 117.76 644.803 117.687C645.214 117.609 645.511 117.503 645.693 117.367C645.876 117.227 645.967 117.042 645.967 116.812V116.781C645.967 116.469 645.847 116.229 645.607 116.062C645.368 115.896 645.061 115.812 644.686 115.812C644.274 115.812 643.938 115.904 643.678 116.086C643.423 116.263 643.269 116.536 643.217 116.906H639.248C639.3 116.177 639.532 115.505 639.943 114.891C640.36 114.271 640.967 113.776 641.764 113.406C642.561 113.031 643.555 112.844 644.748 112.844C645.607 112.844 646.378 112.945 647.061 113.148C647.743 113.346 648.324 113.625 648.803 113.984C649.282 114.339 649.646 114.755 649.896 115.234C650.152 115.708 650.279 116.224 650.279 116.781V125H646.248V123.312H646.154C645.915 123.76 645.623 124.122 645.279 124.398C644.941 124.674 644.553 124.875 644.115 125C643.683 125.125 643.206 125.188 642.686 125.188ZM644.092 122.469C644.42 122.469 644.727 122.401 645.014 122.266C645.305 122.13 645.542 121.935 645.725 121.68C645.907 121.424 645.998 121.115 645.998 120.75V119.75C645.883 119.797 645.761 119.841 645.631 119.883C645.506 119.924 645.37 119.964 645.225 120C645.084 120.036 644.933 120.07 644.771 120.102C644.615 120.133 644.451 120.161 644.279 120.188C643.946 120.24 643.673 120.326 643.459 120.445C643.251 120.56 643.094 120.703 642.99 120.875C642.891 121.042 642.842 121.229 642.842 121.437C642.842 121.771 642.959 122.026 643.193 122.203C643.428 122.38 643.727 122.469 644.092 122.469Z" fill="white"/>
<defs>
<linearGradient id="paint0_linear_831_11064" x1="-264.68" y1="-97.4999" x2="520.951" y2="141.662" gradientUnits="userSpaceOnUse">
<stop stop-color="#C42C14"/>
<stop offset="1" stop-color="#E63114" stop-opacity="0"/>
</linearGradient>
<linearGradient id="paint1_linear_831_11064" x1="475.5" y1="252.236" x2="618.217" y2="225.834" gradientUnits="userSpaceOnUse">
<stop stop-color="#C42C14"/>
<stop offset="1" stop-color="#E63114" stop-opacity="0"/>
</linearGradient>
<linearGradient id="paint2_linear_831_11064" x1="391.702" y1="393.093" x2="742.793" y2="117.509" gradientUnits="userSpaceOnUse">
<stop stop-color="#E63114"/>
<stop offset="1" stop-color="#E63114" stop-opacity="0"/>
</linearGradient>
<linearGradient id="paint3_linear_831_11064" x1="754.5" y1="252" x2="888.441" y2="215.331" gradientUnits="userSpaceOnUse">
<stop stop-color="#C42C14"/>
<stop offset="1" stop-color="#E63114" stop-opacity="0"/>
</linearGradient>
</defs>
</svg>
