<svg width="1440" height="401" viewBox="0 0 1440 401" fill="none" xmlns="http://www.w3.org/2000/svg">
<path d="M570 401L904 250.236V181.065L570 0V401Z" fill="url(#paint0_linear_842_18)"/>
<path d="M0 0L570 9.9662e-05L570 401L-7.01131e-05 401L0 0Z" fill="url(#paint1_linear_842_18)"/>
<path d="M755.549 218C755.243 218.002 754.943 217.911 754.687 217.739C754.432 217.567 754.233 217.321 754.116 217.034C753.999 216.746 753.97 216.43 754.031 216.125C754.093 215.821 754.243 215.542 754.462 215.324L757.774 211.982L754.462 208.625C754.19 208.329 754.042 207.938 754.049 207.533C754.056 207.129 754.218 206.743 754.5 206.457C754.782 206.171 755.162 206.007 755.561 206C755.959 205.993 756.345 206.143 756.637 206.419L761.913 211.771C761.941 211.799 761.963 211.831 761.977 211.868C761.992 211.904 762 211.943 762 211.982C762 212.021 761.992 212.06 761.977 212.096C761.963 212.133 761.941 212.165 761.913 212.193L756.637 217.545C756.348 217.837 755.957 218 755.549 218Z" fill="white"/>
<path d="M637.031 210V194H648.281V197.5H641.375V199.375H643C644.344 199.375 645.518 199.591 646.523 200.023C647.534 200.456 648.318 201.065 648.875 201.852C649.438 202.638 649.719 203.562 649.719 204.625C649.719 205.687 649.438 206.622 648.875 207.43C648.318 208.237 647.534 208.867 646.523 209.32C645.518 209.773 644.344 210 643 210H637.031ZM641.375 206.594H643C643.521 206.594 643.958 206.508 644.312 206.336C644.672 206.164 644.943 205.927 645.125 205.625C645.313 205.323 645.406 204.979 645.406 204.594C645.406 204.047 645.201 203.594 644.789 203.234C644.378 202.87 643.781 202.687 643 202.687H641.375V206.594ZM655.379 204.5L658.723 198H662.785V210H658.723V203.469L655.379 210H651.316V198H655.379V204.5ZM664.449 206.375H668.512C668.512 206.677 668.642 206.924 668.902 207.117C669.168 207.31 669.507 207.406 669.918 207.406C670.329 207.406 670.665 207.299 670.926 207.086C671.191 206.867 671.324 206.589 671.324 206.25C671.324 206.036 671.27 205.849 671.16 205.687C671.051 205.521 670.9 205.391 670.707 205.297C670.514 205.203 670.293 205.156 670.043 205.156H668.543V202.625H670.043C670.413 202.625 670.712 202.536 670.941 202.359C671.176 202.182 671.293 201.958 671.293 201.688C671.293 201.375 671.178 201.12 670.949 200.922C670.72 200.724 670.428 200.625 670.074 200.625C669.72 200.625 669.428 200.706 669.199 200.867C668.97 201.029 668.855 201.24 668.855 201.5H664.793C664.793 200.729 665.022 200.073 665.48 199.531C665.939 198.984 666.553 198.568 667.324 198.281C668.095 197.99 668.949 197.844 669.887 197.844C670.96 197.844 671.882 197.974 672.652 198.234C673.423 198.495 674.014 198.878 674.426 199.383C674.837 199.888 675.043 200.51 675.043 201.25C675.043 201.859 674.822 202.383 674.379 202.82C673.936 203.253 673.283 203.563 672.418 203.75V203.875C672.934 203.901 673.413 204.023 673.855 204.242C674.303 204.461 674.665 204.773 674.941 205.18C675.217 205.586 675.355 206.089 675.355 206.687C675.355 207.437 675.121 208.076 674.652 208.602C674.189 209.128 673.548 209.529 672.73 209.805C671.913 210.081 670.975 210.219 669.918 210.219C668.887 210.219 667.965 210.081 667.152 209.805C666.34 209.523 665.694 209.099 665.215 208.531C664.736 207.958 664.48 207.24 664.449 206.375ZM685.596 202.344V205.562H679.564V202.344H685.596ZM681.096 198V210H677.033V198H681.096ZM688.127 198V210H684.096V198H688.127ZM695.932 210.219C694.65 210.219 693.546 209.974 692.619 209.484C691.697 208.99 690.986 208.281 690.486 207.359C689.992 206.432 689.744 205.323 689.744 204.031C689.744 202.792 689.994 201.708 690.494 200.781C690.994 199.854 691.7 199.133 692.611 198.617C693.523 198.102 694.598 197.844 695.838 197.844C696.744 197.844 697.564 197.984 698.299 198.266C699.033 198.547 699.661 198.956 700.182 199.492C700.702 200.023 701.104 200.669 701.385 201.43C701.666 202.19 701.807 203.047 701.807 204V205H691.088V202.625H697.838C697.833 202.281 697.744 201.979 697.572 201.719C697.406 201.453 697.179 201.247 696.893 201.102C696.611 200.951 696.291 200.875 695.932 200.875C695.583 200.875 695.262 200.951 694.971 201.102C694.679 201.247 694.445 201.451 694.268 201.711C694.096 201.971 694.005 202.276 693.994 202.625V205.188C693.994 205.573 694.075 205.917 694.236 206.219C694.398 206.521 694.63 206.758 694.932 206.93C695.234 207.102 695.598 207.188 696.025 207.188C696.322 207.188 696.593 207.146 696.838 207.062C697.088 206.979 697.301 206.859 697.479 206.703C697.656 206.542 697.786 206.349 697.869 206.125H701.807C701.671 206.958 701.351 207.682 700.846 208.297C700.34 208.906 699.671 209.38 698.838 209.719C698.01 210.052 697.041 210.219 695.932 210.219ZM709.348 210.219C708.046 210.219 706.931 209.961 706.004 209.445C705.077 208.924 704.366 208.201 703.871 207.273C703.376 206.341 703.129 205.26 703.129 204.031C703.129 202.802 703.376 201.724 703.871 200.797C704.366 199.865 705.077 199.141 706.004 198.625C706.931 198.104 708.046 197.844 709.348 197.844C710.525 197.844 711.543 198.057 712.402 198.484C713.267 198.906 713.936 199.505 714.41 200.281C714.884 201.052 715.124 201.958 715.129 203H711.129C711.072 202.37 710.889 201.891 710.582 201.562C710.28 201.229 709.889 201.062 709.41 201.062C709.035 201.062 708.707 201.172 708.426 201.391C708.145 201.604 707.926 201.93 707.77 202.367C707.613 202.799 707.535 203.344 707.535 204C707.535 204.656 707.613 205.203 707.77 205.641C707.926 206.073 708.145 206.398 708.426 206.617C708.707 206.831 709.035 206.937 709.41 206.937C709.728 206.937 710.009 206.865 710.254 206.719C710.499 206.568 710.697 206.349 710.848 206.062C711.004 205.771 711.098 205.417 711.129 205H715.129C715.113 206.057 714.871 206.979 714.402 207.766C713.934 208.547 713.27 209.151 712.41 209.578C711.556 210.005 710.535 210.219 709.348 210.219ZM648.281 220V232H644.25V220H648.281ZM646.188 224.969V228.188C646.042 228.281 645.789 228.375 645.43 228.469C645.076 228.557 644.701 228.633 644.305 228.695C643.914 228.753 643.594 228.781 643.344 228.781C641.375 228.781 639.841 228.432 638.742 227.734C637.643 227.036 637.094 225.875 637.094 224.25V220H641.094V224.25C641.094 224.615 641.146 224.891 641.25 225.078C641.359 225.266 641.573 225.393 641.891 225.461C642.214 225.529 642.698 225.562 643.344 225.562C643.734 225.562 644.156 225.516 644.609 225.422C645.068 225.323 645.594 225.172 646.188 224.969ZM653.693 232.188C652.928 232.188 652.251 232.063 651.662 231.812C651.079 231.557 650.62 231.172 650.287 230.656C649.954 230.141 649.787 229.484 649.787 228.687C649.787 228.031 649.899 227.471 650.123 227.008C650.347 226.539 650.66 226.156 651.061 225.859C651.462 225.562 651.928 225.336 652.459 225.18C652.995 225.023 653.574 224.922 654.193 224.875C654.865 224.823 655.404 224.76 655.811 224.687C656.222 224.609 656.519 224.503 656.701 224.367C656.883 224.227 656.975 224.042 656.975 223.812V223.781C656.975 223.469 656.855 223.229 656.615 223.062C656.376 222.896 656.068 222.812 655.693 222.812C655.282 222.812 654.946 222.904 654.686 223.086C654.43 223.263 654.277 223.536 654.225 223.906H650.256C650.308 223.177 650.54 222.505 650.951 221.891C651.368 221.271 651.975 220.776 652.771 220.406C653.568 220.031 654.563 219.844 655.756 219.844C656.615 219.844 657.386 219.945 658.068 220.148C658.751 220.346 659.331 220.625 659.811 220.984C660.29 221.339 660.654 221.755 660.904 222.234C661.16 222.708 661.287 223.224 661.287 223.781V232H657.256V230.312H657.162C656.923 230.76 656.631 231.122 656.287 231.398C655.949 231.674 655.561 231.875 655.123 232C654.691 232.125 654.214 232.188 653.693 232.188ZM655.1 229.469C655.428 229.469 655.735 229.401 656.021 229.266C656.313 229.13 656.55 228.935 656.732 228.68C656.915 228.424 657.006 228.115 657.006 227.75V226.75C656.891 226.797 656.769 226.841 656.639 226.883C656.514 226.924 656.378 226.964 656.232 227C656.092 227.036 655.941 227.07 655.779 227.102C655.623 227.133 655.459 227.161 655.287 227.188C654.954 227.24 654.68 227.326 654.467 227.445C654.258 227.56 654.102 227.703 653.998 227.875C653.899 228.042 653.85 228.229 653.85 228.437C653.85 228.771 653.967 229.026 654.201 229.203C654.436 229.38 654.735 229.469 655.1 229.469ZM669.129 232.219C667.827 232.219 666.712 231.961 665.785 231.445C664.858 230.924 664.147 230.201 663.652 229.273C663.158 228.341 662.91 227.26 662.91 226.031C662.91 224.802 663.158 223.724 663.652 222.797C664.147 221.865 664.858 221.141 665.785 220.625C666.712 220.104 667.827 219.844 669.129 219.844C670.306 219.844 671.324 220.057 672.184 220.484C673.048 220.906 673.717 221.505 674.191 222.281C674.665 223.052 674.905 223.958 674.91 225H670.91C670.853 224.37 670.671 223.891 670.363 223.562C670.061 223.229 669.671 223.062 669.191 223.062C668.816 223.062 668.488 223.172 668.207 223.391C667.926 223.604 667.707 223.93 667.551 224.367C667.395 224.799 667.316 225.344 667.316 226C667.316 226.656 667.395 227.203 667.551 227.641C667.707 228.073 667.926 228.398 668.207 228.617C668.488 228.831 668.816 228.937 669.191 228.937C669.509 228.937 669.79 228.865 670.035 228.719C670.28 228.568 670.478 228.349 670.629 228.062C670.785 227.771 670.879 227.417 670.91 227H674.91C674.895 228.057 674.652 228.979 674.184 229.766C673.715 230.547 673.051 231.151 672.191 231.578C671.337 232.005 670.316 232.219 669.129 232.219ZM675.967 223.219V220H687.592V223.219H683.779V232H679.717V223.219H675.967ZM693.256 226.5L696.6 220H700.662V232H696.6V225.469L693.256 232H689.193V220H693.256V226.5ZM714.045 220V229.312H716.107V235.844H711.951V232H702.857V220H706.92V228.781H710.045V220H714.045ZM720.045 223.25H723.732C725.446 223.25 726.795 223.646 727.779 224.438C728.764 225.224 729.258 226.307 729.264 227.687C729.258 228.578 729.032 229.346 728.584 229.992C728.141 230.638 727.506 231.135 726.678 231.484C725.855 231.828 724.873 232 723.732 232H717.639V220H721.701V228.781H723.732C724.175 228.781 724.54 228.677 724.826 228.469C725.113 228.255 725.258 227.984 725.264 227.656C725.258 227.307 725.113 227.023 724.826 226.805C724.54 226.581 724.175 226.469 723.732 226.469H720.045V223.25ZM730.139 232V220H734.451V232H730.139Z" fill="white"/>
<path d="M1146 249.847L904 249.847V180.313H1146V249.847Z" fill="url(#paint2_linear_842_18)"/>
<path d="M1146 249.847L1440 224V205L1146 180.313V249.847Z" fill="url(#paint3_linear_842_18)"/>
<path d="M1152 278.451C1152 278.757 1151.91 279.057 1151.74 279.313C1151.57 279.568 1151.32 279.767 1151.03 279.884C1150.75 280.001 1150.43 280.03 1150.13 279.969C1149.82 279.907 1149.54 279.757 1149.32 279.538L1145.98 276.226L1142.63 279.538C1142.33 279.81 1141.94 279.958 1141.53 279.951C1141.13 279.944 1140.74 279.782 1140.46 279.5C1140.17 279.218 1140.01 278.838 1140 278.439C1139.99 278.041 1140.14 277.655 1140.42 277.363L1145.77 272.087C1145.8 272.059 1145.83 272.037 1145.87 272.023C1145.9 272.008 1145.94 272 1145.98 272C1146.02 272 1146.06 272.008 1146.1 272.023C1146.13 272.037 1146.17 272.059 1146.19 272.087L1151.55 277.363C1151.84 277.652 1152 278.043 1152 278.451Z" fill="white"/>
<path d="M898 139.549C897.998 139.243 898.089 138.943 898.261 138.687C898.433 138.432 898.679 138.233 898.966 138.116C899.254 137.999 899.57 137.97 899.875 138.031C900.179 138.093 900.458 138.243 900.676 138.462L904.018 141.774L907.375 138.462C907.671 138.19 908.062 138.042 908.467 138.049C908.871 138.056 909.257 138.218 909.543 138.5C909.829 138.782 909.993 139.162 910 139.561C910.007 139.959 909.857 140.345 909.581 140.637L904.229 145.913C904.201 145.941 904.169 145.963 904.132 145.977C904.096 145.992 904.057 146 904.018 146C903.979 146 903.94 145.992 903.904 145.977C903.867 145.963 903.835 145.941 903.807 145.913L898.455 140.637C898.163 140.348 898 139.957 898 139.549Z" fill="white"/>
<path d="M1115.74 297V313H1111.46V300.437H1106.05V313H1101.77V297H1115.74ZM1122.64 307.5L1125.98 301H1130.05V313H1125.98V306.469L1122.64 313H1118.58V301H1122.64V307.5ZM1142.93 296.656L1143.99 299.531C1143.67 299.76 1143.33 299.94 1142.96 300.07C1142.6 300.195 1142.14 300.284 1141.59 300.336C1141.05 300.383 1140.34 300.406 1139.46 300.406C1138.47 300.406 1137.67 300.521 1137.07 300.75C1136.47 300.979 1136.01 301.367 1135.7 301.914C1135.4 302.461 1135.19 303.208 1135.09 304.156H1135.18C1135.51 303.437 1135.98 302.862 1136.59 302.43C1137.2 301.997 1138.03 301.781 1139.09 301.781C1140.16 301.781 1141.09 302.01 1141.88 302.469C1142.66 302.922 1143.26 303.56 1143.67 304.383C1144.09 305.206 1144.3 306.172 1144.3 307.281C1144.3 308.479 1144.06 309.523 1143.56 310.414C1143.07 311.305 1142.36 311.995 1141.43 312.484C1140.5 312.974 1139.39 313.219 1138.09 313.219C1136.78 313.219 1135.67 312.964 1134.74 312.453C1133.82 311.943 1133.1 311.193 1132.61 310.203C1132.11 309.214 1131.87 308 1131.87 306.562V305.781C1131.87 302.74 1132.5 300.516 1133.77 299.109C1135.04 297.703 1136.88 297 1139.3 297C1139.87 297 1140.38 297 1140.84 297C1141.3 297 1141.71 296.977 1142.05 296.93C1142.41 296.883 1142.7 296.792 1142.93 296.656ZM1138.12 310.031C1138.48 310.031 1138.8 309.932 1139.06 309.734C1139.33 309.531 1139.53 309.24 1139.68 308.859C1139.83 308.474 1139.9 308.01 1139.9 307.469C1139.9 306.917 1139.83 306.448 1139.68 306.063C1139.53 305.677 1139.33 305.383 1139.06 305.18C1138.8 304.977 1138.48 304.875 1138.12 304.875C1137.83 304.875 1137.57 304.932 1137.34 305.047C1137.11 305.161 1136.92 305.331 1136.76 305.555C1136.6 305.773 1136.48 306.044 1136.4 306.367C1136.32 306.685 1136.27 307.052 1136.27 307.469C1136.27 308.281 1136.43 308.911 1136.76 309.359C1137.09 309.807 1137.54 310.031 1138.12 310.031ZM1148.53 304.25H1152.21C1153.93 304.25 1155.28 304.646 1156.26 305.438C1157.25 306.224 1157.74 307.307 1157.75 308.687C1157.74 309.578 1157.51 310.346 1157.07 310.992C1156.62 311.638 1155.99 312.135 1155.16 312.484C1154.34 312.828 1153.36 313 1152.21 313H1146.12V301H1150.18V309.781H1152.21C1152.66 309.781 1153.02 309.677 1153.31 309.469C1153.6 309.255 1153.74 308.984 1153.75 308.656C1153.74 308.307 1153.6 308.023 1153.31 307.805C1153.02 307.581 1152.66 307.469 1152.21 307.469H1148.53V304.25ZM1158.62 313V301H1162.93V313H1158.62ZM1164.64 313L1164.61 309.75H1164.99C1165.22 309.75 1165.43 309.682 1165.61 309.547C1165.79 309.411 1165.94 309.203 1166.07 308.922C1166.2 308.641 1166.3 308.284 1166.37 307.852C1166.45 307.419 1166.5 306.906 1166.52 306.312L1166.71 301H1176.58V313H1172.52V304.219H1170.52L1170.33 307.469C1170.28 308.49 1170.13 309.354 1169.89 310.062C1169.66 310.771 1169.35 311.341 1168.96 311.773C1168.57 312.201 1168.11 312.513 1167.6 312.711C1167.08 312.904 1166.51 313 1165.89 313H1164.64ZM1181.05 304.25H1184.74C1186.46 304.25 1187.8 304.646 1188.79 305.438C1189.77 306.224 1190.27 307.307 1190.27 308.687C1190.27 309.578 1190.04 310.346 1189.59 310.992C1189.15 311.638 1188.52 312.135 1187.69 312.484C1186.86 312.828 1185.88 313 1184.74 313H1178.65V301H1182.71V309.781H1184.74C1185.18 309.781 1185.55 309.677 1185.84 309.469C1186.12 309.255 1186.27 308.984 1186.27 308.656C1186.27 308.307 1186.12 308.023 1185.84 307.805C1185.55 307.581 1185.18 307.469 1184.74 307.469H1181.05V304.25ZM1091.15 335V323H1095.47V327.281H1096.22L1098.78 323H1103.72L1099.87 329.062L1103.75 335H1098.75L1096.43 331.281H1095.47V335H1091.15ZM1110.04 335.219C1108.74 335.219 1107.62 334.961 1106.7 334.445C1105.77 333.924 1105.06 333.201 1104.56 332.273C1104.07 331.341 1103.82 330.26 1103.82 329.031C1103.82 327.802 1104.07 326.724 1104.56 325.797C1105.06 324.865 1105.77 324.141 1106.7 323.625C1107.62 323.104 1108.74 322.844 1110.04 322.844C1111.34 322.844 1112.46 323.104 1113.38 323.625C1114.31 324.141 1115.02 324.865 1115.52 325.797C1116.01 326.724 1116.26 327.802 1116.26 329.031C1116.26 330.26 1116.01 331.341 1115.52 332.273C1115.02 333.201 1114.31 333.924 1113.38 334.445C1112.46 334.961 1111.34 335.219 1110.04 335.219ZM1110.07 332.031C1110.44 332.031 1110.75 331.909 1111.02 331.664C1111.28 331.419 1111.49 331.07 1111.63 330.617C1111.78 330.164 1111.85 329.625 1111.85 329C1111.85 328.37 1111.78 327.831 1111.63 327.383C1111.49 326.93 1111.28 326.581 1111.02 326.336C1110.75 326.091 1110.44 325.969 1110.07 325.969C1109.69 325.969 1109.36 326.091 1109.08 326.336C1108.8 326.581 1108.59 326.93 1108.45 327.383C1108.3 327.831 1108.23 328.37 1108.23 329C1108.23 329.625 1108.3 330.164 1108.45 330.617C1108.59 331.07 1108.8 331.419 1109.08 331.664C1109.36 331.909 1109.69 332.031 1110.07 332.031ZM1125.45 330.531L1128.07 323H1131.13L1126.79 335H1124.1L1119.88 323H1122.95L1125.45 330.531ZM1122.07 323V335H1118.01V323H1122.07ZM1129.1 335V323H1133.1V335H1129.1ZM1135.17 335V323H1146.36V335H1142.3V326.219H1139.17V335H1135.17ZM1151.9 335.188C1151.14 335.188 1150.46 335.063 1149.87 334.812C1149.29 334.557 1148.83 334.172 1148.5 333.656C1148.16 333.141 1148 332.484 1148 331.687C1148 331.031 1148.11 330.471 1148.33 330.008C1148.56 329.539 1148.87 329.156 1149.27 328.859C1149.67 328.562 1150.14 328.336 1150.67 328.18C1151.21 328.023 1151.78 327.922 1152.4 327.875C1153.08 327.823 1153.61 327.76 1154.02 327.687C1154.43 327.609 1154.73 327.503 1154.91 327.367C1155.09 327.227 1155.18 327.042 1155.18 326.812V326.781C1155.18 326.469 1155.06 326.229 1154.83 326.062C1154.59 325.896 1154.28 325.812 1153.9 325.812C1153.49 325.812 1153.16 325.904 1152.9 326.086C1152.64 326.263 1152.49 326.536 1152.43 326.906H1148.47C1148.52 326.177 1148.75 325.505 1149.16 324.891C1149.58 324.271 1150.18 323.776 1150.98 323.406C1151.78 323.031 1152.77 322.844 1153.97 322.844C1154.83 322.844 1155.6 322.945 1156.28 323.148C1156.96 323.346 1157.54 323.625 1158.02 323.984C1158.5 324.339 1158.86 324.755 1159.11 325.234C1159.37 325.708 1159.5 326.224 1159.5 326.781V335H1155.47V333.312H1155.37C1155.13 333.76 1154.84 334.122 1154.5 334.398C1154.16 334.674 1153.77 334.875 1153.33 335C1152.9 335.125 1152.42 335.188 1151.9 335.188ZM1153.31 332.469C1153.64 332.469 1153.94 332.401 1154.23 332.266C1154.52 332.13 1154.76 331.935 1154.94 331.68C1155.12 331.424 1155.22 331.115 1155.22 330.75V329.75C1155.1 329.797 1154.98 329.841 1154.85 329.883C1154.72 329.924 1154.59 329.964 1154.44 330C1154.3 330.036 1154.15 330.07 1153.99 330.102C1153.83 330.133 1153.67 330.161 1153.5 330.188C1153.16 330.24 1152.89 330.326 1152.68 330.445C1152.47 330.56 1152.31 330.703 1152.21 330.875C1152.11 331.042 1152.06 331.229 1152.06 331.437C1152.06 331.771 1152.18 332.026 1152.41 332.203C1152.65 332.38 1152.94 332.469 1153.31 332.469ZM1170.12 327.344V330.562H1164.09V327.344H1170.12ZM1165.62 323V335H1161.56V323H1165.62ZM1172.65 323V335H1168.62V323H1172.65ZM1178.77 329.5L1182.11 323H1186.17V335H1182.11V328.469L1178.77 335H1174.71V323H1178.77V329.5ZM1192.43 329.5L1195.78 323H1199.84V335H1195.78V328.469L1192.43 335H1188.37V323H1192.43V329.5ZM1195.65 318.687H1198.37C1198.36 319.703 1197.98 320.516 1197.21 321.125C1196.44 321.729 1195.4 322.031 1194.09 322.031C1192.77 322.031 1191.73 321.729 1190.96 321.125C1190.19 320.516 1189.8 319.703 1189.81 318.687H1192.5C1192.49 319.016 1192.61 319.318 1192.85 319.594C1193.09 319.865 1193.51 320 1194.09 320C1194.65 320 1195.04 319.867 1195.28 319.602C1195.52 319.336 1195.65 319.031 1195.65 318.687Z" fill="white"/>
<path d="M845.663 87C845.663 88.7812 845.317 90.2839 844.624 91.5078C843.931 92.7266 842.996 93.651 841.819 94.2812C840.642 94.9062 839.33 95.2187 837.882 95.2187C836.424 95.2187 835.106 94.9036 833.929 94.2734C832.757 93.638 831.825 92.7109 831.132 91.4922C830.444 90.2682 830.101 88.7708 830.101 87C830.101 85.2187 830.444 83.7187 831.132 82.5C831.825 81.276 832.757 80.3516 833.929 79.7266C835.106 79.0964 836.424 78.7812 837.882 78.7812C839.33 78.7812 840.642 79.0964 841.819 79.7266C842.996 80.3516 843.931 81.276 844.624 82.5C845.317 83.7187 845.663 85.2187 845.663 87ZM841.194 87C841.194 86.0417 841.067 85.2344 840.812 84.5781C840.562 83.9167 840.189 83.4167 839.694 83.0781C839.205 82.7344 838.601 82.5625 837.882 82.5625C837.163 82.5625 836.556 82.7344 836.062 83.0781C835.572 83.4167 835.2 83.9167 834.944 84.5781C834.694 85.2344 834.569 86.0417 834.569 87C834.569 87.9583 834.694 88.7682 834.944 89.4297C835.2 90.0859 835.572 90.5859 836.062 90.9297C836.556 91.2682 837.163 91.4375 837.882 91.4375C838.601 91.4375 839.205 91.2682 839.694 90.9297C840.189 90.5859 840.562 90.0859 840.812 89.4297C841.067 88.7682 841.194 87.9583 841.194 87ZM856.485 83V86.2187H851.892V95H847.735V83H856.485ZM858.069 99.5V83H862.351V85.0937H862.444C862.601 84.6875 862.83 84.3151 863.132 83.9766C863.434 83.6328 863.809 83.3594 864.257 83.1562C864.705 82.9479 865.226 82.8438 865.819 82.8438C866.611 82.8438 867.364 83.0547 868.077 83.4766C868.796 83.8984 869.379 84.5625 869.827 85.4687C870.28 86.375 870.507 87.5521 870.507 89C870.507 90.3854 870.291 91.5339 869.858 92.4453C869.431 93.3568 868.858 94.0365 868.14 94.4844C867.426 94.9323 866.642 95.1563 865.788 95.1563C865.226 95.1563 864.723 95.0651 864.28 94.8828C863.843 94.6953 863.468 94.4427 863.155 94.125C862.848 93.8021 862.611 93.4375 862.444 93.0312H862.382V99.5H858.069ZM862.288 89C862.288 89.5833 862.364 90.0885 862.515 90.5156C862.671 90.9375 862.89 91.2656 863.171 91.5C863.457 91.7292 863.799 91.8438 864.194 91.8438C864.59 91.8438 864.926 91.7318 865.202 91.5078C865.483 91.2786 865.697 90.9531 865.843 90.5312C865.994 90.1042 866.069 89.5937 866.069 89C866.069 88.4062 865.994 87.8984 865.843 87.4766C865.697 87.0495 865.483 86.724 865.202 86.5C864.926 86.2708 864.59 86.1562 864.194 86.1562C863.799 86.1562 863.457 86.2708 863.171 86.5C862.89 86.724 862.671 87.0495 862.515 87.4766C862.364 87.8984 862.288 88.4062 862.288 89ZM875.657 95.1875C874.892 95.1875 874.215 95.0625 873.626 94.8125C873.043 94.5573 872.584 94.1719 872.251 93.6562C871.918 93.1406 871.751 92.4844 871.751 91.6875C871.751 91.0312 871.863 90.4714 872.087 90.0078C872.311 89.5391 872.623 89.1562 873.024 88.8594C873.425 88.5625 873.892 88.3359 874.423 88.1797C874.959 88.0234 875.537 87.9219 876.157 87.875C876.829 87.8229 877.368 87.7604 877.774 87.6875C878.186 87.6094 878.483 87.5026 878.665 87.3672C878.847 87.2266 878.938 87.0417 878.938 86.8125V86.7812C878.938 86.4687 878.819 86.2292 878.579 86.0625C878.34 85.8958 878.032 85.8125 877.657 85.8125C877.246 85.8125 876.91 85.9036 876.649 86.0859C876.394 86.263 876.241 86.5365 876.188 86.9062H872.22C872.272 86.1771 872.504 85.5052 872.915 84.8906C873.332 84.2708 873.938 83.776 874.735 83.4063C875.532 83.0313 876.527 82.8438 877.72 82.8438C878.579 82.8438 879.35 82.9453 880.032 83.1484C880.715 83.3464 881.295 83.625 881.774 83.9844C882.254 84.3385 882.618 84.7552 882.868 85.2344C883.123 85.7083 883.251 86.224 883.251 86.7812V95H879.22V93.3125H879.126C878.886 93.7604 878.595 94.1224 878.251 94.3984C877.912 94.6745 877.524 94.875 877.087 95C876.655 95.125 876.178 95.1875 875.657 95.1875ZM877.063 92.4687C877.392 92.4687 877.699 92.401 877.985 92.2656C878.277 92.1302 878.514 91.9349 878.696 91.6797C878.879 91.4245 878.97 91.1146 878.97 90.75V89.75C878.855 89.7969 878.733 89.8411 878.603 89.8828C878.478 89.9245 878.342 89.9635 878.196 90C878.056 90.0365 877.905 90.0703 877.743 90.1016C877.587 90.1328 877.423 90.1615 877.251 90.1875C876.918 90.2396 876.644 90.3255 876.431 90.4453C876.222 90.5599 876.066 90.7031 875.962 90.875C875.863 91.0417 875.813 91.2292 875.813 91.4375C875.813 91.7708 875.931 92.026 876.165 92.2031C876.399 92.3802 876.699 92.4687 877.063 92.4687ZM893.874 87.3437V90.5625H887.843V87.3437H893.874ZM889.374 83V95H885.312V83H889.374ZM896.405 83V95H892.374V83H896.405ZM902.522 89.5L905.866 83H909.929V95H905.866V88.4688L902.522 95H898.46V83H902.522V89.5ZM923.312 83V95H919.28V83H923.312ZM921.218 87.9687V91.1875C921.072 91.2812 920.819 91.375 920.46 91.4687C920.106 91.5573 919.731 91.6328 919.335 91.6953C918.944 91.7526 918.624 91.7812 918.374 91.7812C916.405 91.7812 914.871 91.4323 913.772 90.7344C912.674 90.0365 912.124 88.875 912.124 87.25V83H916.124V87.25C916.124 87.6146 916.176 87.8906 916.28 88.0781C916.39 88.2656 916.603 88.3932 916.921 88.4609C917.244 88.5286 917.728 88.5625 918.374 88.5625C918.765 88.5625 919.187 88.5156 919.64 88.4219C920.098 88.3229 920.624 88.1719 921.218 87.9687ZM931.13 95.2187C929.849 95.2187 928.744 94.974 927.817 94.4844C926.896 93.9896 926.185 93.2812 925.685 92.3594C925.19 91.4323 924.942 90.3229 924.942 89.0313C924.942 87.7917 925.192 86.7083 925.692 85.7812C926.192 84.8542 926.898 84.1328 927.81 83.6172C928.721 83.1016 929.797 82.8438 931.036 82.8438C931.942 82.8438 932.763 82.9844 933.497 83.2656C934.231 83.5469 934.859 83.9557 935.38 84.4922C935.901 85.0234 936.302 85.6693 936.583 86.4297C936.864 87.1901 937.005 88.0469 937.005 89V90H926.286V87.625H933.036C933.031 87.2812 932.942 86.9792 932.771 86.7187C932.604 86.4531 932.377 86.2474 932.091 86.1016C931.81 85.9505 931.489 85.875 931.13 85.875C930.781 85.875 930.461 85.9505 930.169 86.1016C929.877 86.2474 929.643 86.4505 929.466 86.7109C929.294 86.9714 929.203 87.276 929.192 87.625V90.1875C929.192 90.5729 929.273 90.9167 929.435 91.2188C929.596 91.5208 929.828 91.7578 930.13 91.9297C930.432 92.1016 930.797 92.1875 931.224 92.1875C931.521 92.1875 931.791 92.1458 932.036 92.0625C932.286 91.9792 932.5 91.8594 932.677 91.7031C932.854 91.5417 932.984 91.349 933.067 91.125H937.005C936.869 91.9583 936.549 92.6823 936.044 93.2969C935.539 93.9063 934.869 94.3802 934.036 94.7187C933.208 95.0521 932.239 95.2187 931.13 95.2187ZM947.327 87.3437V90.5625H941.296V87.3437H947.327ZM942.827 83V95H938.765V83H942.827ZM949.858 83V95H945.827V83H949.858ZM955.976 89.5L959.319 83H963.382V95H959.319V88.4688L955.976 95H951.913V83H955.976V89.5ZM971.327 95.2187C970.046 95.2187 968.942 94.974 968.015 94.4844C967.093 93.9896 966.382 93.2812 965.882 92.3594C965.387 91.4323 965.14 90.3229 965.14 89.0313C965.14 87.7917 965.39 86.7083 965.89 85.7812C966.39 84.8542 967.095 84.1328 968.007 83.6172C968.918 83.1016 969.994 82.8438 971.233 82.8438C972.14 82.8438 972.96 82.9844 973.694 83.2656C974.429 83.5469 975.056 83.9557 975.577 84.4922C976.098 85.0234 976.499 85.6693 976.78 86.4297C977.062 87.1901 977.202 88.0469 977.202 89V90H966.483V87.625H973.233C973.228 87.2812 973.14 86.9792 972.968 86.7187C972.801 86.4531 972.575 86.2474 972.288 86.1016C972.007 85.9505 971.687 85.875 971.327 85.875C970.978 85.875 970.658 85.9505 970.366 86.1016C970.075 86.2474 969.84 86.4505 969.663 86.7109C969.491 86.9714 969.4 87.276 969.39 87.625V90.1875C969.39 90.5729 969.47 90.9167 969.632 91.2188C969.793 91.5208 970.025 91.7578 970.327 91.9297C970.629 92.1016 970.994 92.1875 971.421 92.1875C971.718 92.1875 971.989 92.1458 972.233 92.0625C972.483 91.9792 972.697 91.8594 972.874 91.7031C973.051 91.5417 973.181 91.349 973.265 91.125H977.202C977.067 91.9583 976.746 92.6823 976.241 93.2969C975.736 93.9063 975.067 94.3802 974.233 94.7187C973.405 95.0521 972.437 95.2187 971.327 95.2187ZM864.848 117V105H876.035V117H871.973V108.219H868.848V117H864.848ZM884.014 117.219C882.712 117.219 881.597 116.961 880.67 116.445C879.743 115.924 879.032 115.201 878.537 114.273C878.042 113.341 877.795 112.26 877.795 111.031C877.795 109.802 878.042 108.724 878.537 107.797C879.032 106.865 879.743 106.141 880.67 105.625C881.597 105.104 882.712 104.844 884.014 104.844C885.316 104.844 886.43 105.104 887.357 105.625C888.285 106.141 888.995 106.865 889.49 107.797C889.985 108.724 890.232 109.802 890.232 111.031C890.232 112.26 889.985 113.341 889.49 114.273C888.995 115.201 888.285 115.924 887.357 116.445C886.43 116.961 885.316 117.219 884.014 117.219ZM884.045 114.031C884.41 114.031 884.725 113.909 884.99 113.664C885.256 113.419 885.462 113.07 885.607 112.617C885.753 112.164 885.826 111.625 885.826 111C885.826 110.37 885.753 109.831 885.607 109.383C885.462 108.93 885.256 108.581 884.99 108.336C884.725 108.091 884.41 107.969 884.045 107.969C883.66 107.969 883.329 108.091 883.053 108.336C882.777 108.581 882.566 108.93 882.42 109.383C882.274 109.831 882.201 110.37 882.201 111C882.201 111.625 882.274 112.164 882.42 112.617C882.566 113.07 882.777 113.419 883.053 113.664C883.329 113.909 883.66 114.031 884.045 114.031ZM891.066 108.219V105H902.691V108.219H898.879V117H894.816V108.219H891.066ZM909.773 117.219C908.471 117.219 907.357 116.961 906.43 116.445C905.503 115.924 904.792 115.201 904.297 114.273C903.802 113.341 903.555 112.26 903.555 111.031C903.555 109.802 903.802 108.724 904.297 107.797C904.792 106.865 905.503 106.141 906.43 105.625C907.357 105.104 908.471 104.844 909.773 104.844C911.076 104.844 912.19 105.104 913.117 105.625C914.044 106.141 914.755 106.865 915.25 107.797C915.745 108.724 915.992 109.802 915.992 111.031C915.992 112.26 915.745 113.341 915.25 114.273C914.755 115.201 914.044 115.924 913.117 116.445C912.19 116.961 911.076 117.219 909.773 117.219ZM909.805 114.031C910.169 114.031 910.484 113.909 910.75 113.664C911.016 113.419 911.221 113.07 911.367 112.617C911.513 112.164 911.586 111.625 911.586 111C911.586 110.37 911.513 109.831 911.367 109.383C911.221 108.93 911.016 108.581 910.75 108.336C910.484 108.091 910.169 107.969 909.805 107.969C909.419 107.969 909.089 108.091 908.813 108.336C908.536 108.581 908.326 108.93 908.18 109.383C908.034 109.831 907.961 110.37 907.961 111C907.961 111.625 908.034 112.164 908.18 112.617C908.326 113.07 908.536 113.419 908.813 113.664C909.089 113.909 909.419 114.031 909.805 114.031ZM917.742 117V105H922.055V109.281H922.805L925.367 105H930.305L926.461 111.062L930.336 117H925.336L923.023 113.281H922.055V117H917.742ZM934.686 117.188C933.92 117.188 933.243 117.063 932.654 116.812C932.071 116.557 931.613 116.172 931.279 115.656C930.946 115.141 930.779 114.484 930.779 113.687C930.779 113.031 930.891 112.471 931.115 112.008C931.339 111.539 931.652 111.156 932.053 110.859C932.454 110.562 932.92 110.336 933.451 110.18C933.988 110.023 934.566 109.922 935.186 109.875C935.857 109.823 936.396 109.76 936.803 109.687C937.214 109.609 937.511 109.503 937.693 109.367C937.876 109.227 937.967 109.042 937.967 108.812V108.781C937.967 108.469 937.847 108.229 937.607 108.062C937.368 107.896 937.061 107.812 936.686 107.812C936.274 107.812 935.938 107.904 935.678 108.086C935.423 108.263 935.269 108.536 935.217 108.906H931.248C931.3 108.177 931.532 107.505 931.943 106.891C932.36 106.271 932.967 105.776 933.764 105.406C934.561 105.031 935.555 104.844 936.748 104.844C937.607 104.844 938.378 104.945 939.061 105.148C939.743 105.346 940.324 105.625 940.803 105.984C941.282 106.339 941.646 106.755 941.896 107.234C942.152 107.708 942.279 108.224 942.279 108.781V117H938.248V115.312H938.154C937.915 115.76 937.623 116.122 937.279 116.398C936.941 116.674 936.553 116.875 936.115 117C935.683 117.125 935.206 117.188 934.686 117.188ZM936.092 114.469C936.42 114.469 936.727 114.401 937.014 114.266C937.305 114.13 937.542 113.935 937.725 113.68C937.907 113.424 937.998 113.115 937.998 112.75V111.75C937.883 111.797 937.761 111.841 937.631 111.883C937.506 111.924 937.37 111.964 937.225 112C937.084 112.036 936.933 112.07 936.771 112.102C936.615 112.133 936.451 112.161 936.279 112.188C935.946 112.24 935.673 112.326 935.459 112.445C935.251 112.56 935.094 112.703 934.99 112.875C934.891 113.042 934.842 113.229 934.842 113.437C934.842 113.771 934.959 114.026 935.193 114.203C935.428 114.38 935.727 114.469 936.092 114.469Z" fill="white"/>
<defs>
<linearGradient id="paint0_linear_842_18" x1="737" y1="250.236" x2="1001.45" y2="149.992" gradientUnits="userSpaceOnUse">
<stop stop-color="#C42C14"/>
<stop offset="1" stop-color="#E63114" stop-opacity="0"/>
</linearGradient>
<linearGradient id="paint1_linear_842_18" x1="-380.5" y1="-97.5" x2="657.875" y2="358.648" gradientUnits="userSpaceOnUse">
<stop stop-color="#C42C14"/>
<stop offset="1" stop-color="#E63114" stop-opacity="0"/>
</linearGradient>
<linearGradient id="paint2_linear_842_18" x1="564.999" y1="390" x2="885.899" y2="-130.041" gradientUnits="userSpaceOnUse">
<stop stop-color="#E63114"/>
<stop offset="1" stop-color="#E63114" stop-opacity="0"/>
</linearGradient>
<linearGradient id="paint3_linear_842_18" x1="1293" y1="249.847" x2="1504.34" y2="142.146" gradientUnits="userSpaceOnUse">
<stop stop-color="#C42C14"/>
<stop offset="1" stop-color="#E63114" stop-opacity="0"/>
</linearGradient>
</defs>
</svg>
