<svg width="63" height="450" viewBox="0 0 63 450" fill="none" xmlns="http://www.w3.org/2000/svg">
<path opacity="0.7" fill-rule="evenodd" clip-rule="evenodd" d="M7.38459 450L1.50774 450L1.50774 416.865L7.38459 416.865L7.38459 430.338L61.565 430.338L61.565 436.476L7.38459 436.476L7.38459 450ZM1.50774 408.022L1.50774 373.119L7.38459 373.119L7.38459 401.728L26.2008 401.728L26.2008 373.379L31.923 373.379L31.923 401.936L55.5851 401.936L55.5851 373.587L61.4619 373.587L61.4619 408.022L1.50774 408.022ZM12.5913 306.433L16.4576 311.218C13.1603 313.698 10.5072 316.946 8.72492 320.685C6.96601 324.494 6.08478 328.656 6.14735 332.857C6.10417 337.56 7.29587 342.191 9.60129 346.278C11.7624 350.269 14.9734 353.581 18.8805 355.849C22.8543 358.122 27.3554 359.289 31.923 359.23C35.337 359.32 38.732 358.69 41.8917 357.383C45.0514 356.075 47.9066 354.118 50.2753 351.636C52.7151 349.108 54.6254 346.11 55.8919 342.822C57.1585 339.533 57.7554 336.02 57.6471 332.493C57.6617 328.392 56.7446 324.342 54.9663 320.654C53.1879 316.966 50.5956 313.738 47.3884 311.218L50.997 306.433C54.7965 309.421 57.8213 313.294 59.8123 317.72C61.9641 322.467 63.0384 327.639 62.9569 332.857C63.2016 337.548 62.4026 342.234 60.6185 346.573C58.8345 350.911 56.1106 354.792 52.6466 357.93C46.7049 363.078 39.0824 365.821 31.2528 365.628C27.1183 365.726 23.0094 364.947 19.1913 363.343C15.3732 361.74 11.9307 359.346 9.08578 356.317C6.10363 353.236 3.76773 349.579 2.21768 345.566C0.667637 341.554 -0.0647513 337.266 0.0642992 332.962C-0.0355525 327.573 1.09326 322.234 3.36358 317.356C5.52208 313.018 8.68787 309.27 12.5913 306.433ZM1.50774 294.365L1.50774 288.279L26.7679 288.279L26.7679 257.433L1.50774 257.433L1.50774 251.347L61.565 251.347L61.565 257.433L32.5416 257.433L32.5416 288.279L61.565 288.279L61.565 294.365L1.50774 294.365ZM61.565 236.574L1.50773 236.574L1.50773 235.273L47.3884 194.96L1.50773 194.96L1.50773 188.926L61.565 188.926L61.565 190.279L16.0452 230.332L61.565 230.332L61.565 236.574ZM0.0127434 145.388C-0.108726 141.121 0.638346 136.875 2.20778 132.912C3.77722 128.948 6.13567 125.352 9.13732 122.344C12.0328 119.325 15.5138 116.94 19.3631 115.338C23.2124 113.736 27.3475 112.951 31.5106 113.033C35.644 113.033 39.7367 113.858 43.5529 115.46C47.3692 117.063 50.8336 119.411 53.7468 122.37C56.66 125.329 58.9644 128.84 60.5274 132.701C62.0903 136.562 62.881 140.697 62.8538 144.868C62.9329 149.082 62.1652 153.269 60.597 157.176C59.0288 161.082 56.6925 164.628 53.7292 167.599C50.908 170.556 47.5196 172.901 43.7705 174.493C40.0214 176.085 35.9903 176.89 31.923 176.858C26.3044 176.902 20.7739 175.449 15.8905 172.645C11.062 169.946 7.05241 165.972 4.2915 161.149C1.56567 156.408 0.125484 151.025 0.115843 145.544L0.0127434 145.388ZM5.88959 145.388C5.95075 149.872 7.1601 154.265 9.40024 158.138C11.6404 162.012 14.8351 165.235 18.6743 167.495C22.7338 169.714 27.3095 170.792 31.923 170.616C35.257 170.651 38.5645 170.016 41.6533 168.749C44.7421 167.483 47.5505 165.609 49.9153 163.237C52.2801 160.866 54.1541 158.043 55.4283 154.934C56.7026 151.825 57.3516 148.492 57.3378 145.128C57.378 140.554 56.2222 136.051 53.987 132.071C51.8021 128.152 48.5922 124.913 44.7077 122.708C40.7339 120.435 36.2328 119.268 31.6652 119.327C27.1307 119.272 22.6637 120.439 18.7259 122.708C14.8802 125.021 11.6979 128.305 9.49229 132.236C7.28669 136.167 6.13386 140.61 6.14735 145.128L5.88959 145.388ZM1.50773 101.173L1.50773 70.8473L7.38457 70.8473L7.38457 95.1393L26.2008 95.1393L26.2008 70.8473L31.923 70.8473L31.923 95.1393L61.4619 95.1392L61.4619 101.173L1.50773 101.173ZM1.50773 61.1201L1.50773 55.0861L61.565 55.0861L61.565 61.016L1.50773 61.1201ZM1.50773 44.3706L1.50773 37.2963L24.8605 22.8355L1.50772 8.27069L1.50772 1.19638L30.5311 19.2983L61.4619 -2.68659e-06L61.4619 7.12631L36.0986 22.7314L61.4619 38.3366L61.4619 45.4109L30.5311 26.0605L1.50773 44.3706Z" fill="url(#paint0_linear_491_22562)"/>
<defs>
<linearGradient id="paint0_linear_491_22562" x1="214.91" y1="341.265" x2="-122.157" y2="286.463" gradientUnits="userSpaceOnUse">
<stop stop-color="#28113A" stop-opacity="0"/>
<stop offset="1" stop-color="#20113A" stop-opacity="0.54"/>
</linearGradient>
</defs>
</svg>
