<svg width="56" height="40" viewBox="0 0 56 40" fill="none" xmlns="http://www.w3.org/2000/svg">
<path d="M52.1738 9.51966H42.4989C41.7631 7.63997 40.6278 5.87845 39.091 4.36452C38.2379 3.52428 37.288 2.78715 36.2676 2.17371C35.8871 1.945 35.39 2.06328 35.1574 2.43837C34.9251 2.81346 35.0454 3.303 35.426 3.53203C36.3374 4.07981 37.1862 4.73855 37.9487 5.48978C43.2154 10.6777 43.2154 19.1192 37.9487 24.3072C32.6822 29.495 24.1125 29.4953 18.8459 24.3072C13.5792 19.1193 13.5792 10.6778 18.8459 5.48978C22.334 2.05352 27.4461 0.764048 32.1874 2.12427C32.6164 2.24669 33.064 2.00473 33.1888 1.58286C33.3135 1.16088 33.0674 0.719283 32.6391 0.596446C27.3318 -0.925973 21.6089 0.517631 17.7037 4.36441C16.1814 5.86403 15.0532 7.60666 14.3169 9.46651H10.8763C10.4301 9.46651 10.0686 9.82261 10.0686 10.2621C10.0686 10.7016 10.4301 11.0577 10.8763 11.0577H13.7894C13.3744 12.5997 13.2144 14.1949 13.3088 15.7781H4.03822C3.59208 15.7781 3.23057 16.1342 3.23057 16.5737C3.23057 17.0132 3.59208 17.3693 4.03822 17.3693H13.4895C13.5832 17.9226 13.7094 18.4715 13.8666 19.0135H1.8845C1.736 19.0135 1.61529 18.8945 1.61529 18.7483V11.3229C1.61529 11.1766 1.736 11.0577 1.8845 11.0577H7.10953C7.55567 11.0577 7.91717 10.7016 7.91717 10.2621C7.91717 9.82261 7.55567 9.46651 7.10953 9.46651H1.8845C0.845441 9.46651 0 10.2993 0 11.3229V18.7483C0 19.7718 0.845441 20.6046 1.8845 20.6046H14.4287C16.8458 26.4035 22.6418 29.8189 28.3974 29.7885C31.0123 29.7885 33.6267 29.1255 35.9572 27.8014L44.9834 38.2665C46.7419 40.4023 50.3969 40.6387 52.4219 38.5639C54.4414 36.6667 54.3799 33.0465 52.1199 31.2365L41.4962 22.3451C41.817 21.7973 42.0994 21.2336 42.3436 20.6578H46.7218C47.1679 20.6578 47.5294 20.3017 47.5294 19.8622C47.5294 19.4227 47.1679 19.0666 46.7218 19.0666H42.9131C43.6753 16.4748 43.7105 13.718 43.0193 11.1108H52.1737C52.9159 11.1108 53.5197 11.7056 53.5197 12.4368V17.7406C53.5197 18.4718 52.9159 19.0666 52.1737 19.0666H50.4954C50.0492 19.0666 49.6877 19.4227 49.6877 19.8622C49.6877 20.3017 50.0492 20.6578 50.4954 20.6578H52.1738C53.8066 20.6578 55.1351 19.3491 55.1351 17.7406V12.4368C55.1351 10.8283 53.8066 9.51966 52.1738 9.51966ZM46.3237 28.4735L42.1785 32.557L40.26 30.3325L44.0658 26.5835L46.3237 28.4735ZM52.2866 34.8996C52.3262 35.8585 51.9685 36.7603 51.2797 37.4388C50.0006 38.7637 47.4902 38.7791 46.2143 37.2363L43.2279 33.7738L47.5589 29.5073L51.074 32.4493C51.8165 33.0706 52.2471 33.9408 52.2866 34.8996ZM42.8305 25.5499L39.2104 29.1159L37.322 26.9264C37.9406 26.4804 38.5325 25.9826 39.091 25.4324C39.6496 24.8822 40.1551 24.2991 40.6078 23.6897L42.8305 25.5499Z" fill="white"/>
<path d="M20.7828 7.39769C16.5843 11.5336 16.5843 18.2633 20.7828 22.3992C22.8822 24.4672 25.6399 25.5011 28.3974 25.5011C31.155 25.5011 33.9127 24.4672 36.0121 22.3992C40.2106 18.2633 40.2106 11.5336 36.012 7.39758C31.8134 3.26174 24.9814 3.26184 20.7828 7.39769ZM35.5691 20.4986H29.2424C28.7963 20.4986 28.4348 20.8547 28.4348 21.2942C28.4348 21.7337 28.7963 22.0898 29.2424 22.0898H33.9162C30.6639 24.515 26.1314 24.5151 22.8788 22.0898H25.4575C25.9036 22.0898 26.2651 21.7337 26.2651 21.2942C26.2651 20.8547 25.9036 20.4986 25.4575 20.4986H21.226C20.8094 19.9818 20.4592 19.4301 20.1745 18.8544H23.7447C24.1909 18.8544 24.5524 18.4983 24.5524 18.0589C24.5524 17.6194 24.1909 17.2633 23.7447 17.2633H19.5692C18.8353 14.587 19.3712 11.6419 21.1768 9.36054H35.6179C38.2023 12.6256 38.1864 17.2511 35.5691 20.4986ZM33.9978 7.76938H22.7969C24.4395 6.51544 26.4176 5.88609 28.3975 5.88609C30.3768 5.88609 32.3553 6.51576 33.9978 7.76938Z" fill="white"/>
<path d="M29.6674 17.2633H29.129V12.4898H29.6674C30.1136 12.4898 30.4751 12.1337 30.4751 11.6942C30.4751 11.2548 30.1136 10.8987 29.6674 10.8987H26.9753C26.5292 10.8987 26.1677 11.2548 26.1677 11.6942C26.1677 12.1337 26.5292 12.4898 26.9753 12.4898H27.5137V17.2633H26.9753C26.5292 17.2633 26.1677 17.6194 26.1677 18.0589C26.1677 18.4983 26.5292 18.8544 26.9753 18.8544H29.6674C30.1136 18.8544 30.4751 18.4983 30.4751 18.0589C30.4751 17.6194 30.1136 17.2633 29.6674 17.2633Z" fill="white"/>
</svg>
