<svg width="40" height="40" viewBox="0 0 40 40" fill="none" xmlns="http://www.w3.org/2000/svg">
<path d="M39.4142 0.000488377H34.8844C34.8074 0.000444375 34.7312 0.0155659 34.6601 0.0449882C34.589 0.0744105 34.5245 0.117557 34.47 0.17196C34.4156 0.226362 34.3725 0.290955 34.3431 0.362044C34.3137 0.433134 34.2985 0.509325 34.2986 0.586262V2.26559H22.8509V0.586262C22.8509 0.430905 22.7892 0.281912 22.6793 0.172058C22.5695 0.0622037 22.4205 0.000488377 22.2651 0.000488377H17.7349C17.5795 0.000488377 17.4305 0.0622037 17.3207 0.172058C17.2108 0.281912 17.1491 0.430905 17.1491 0.586262V2.26559H5.70142V0.586262C5.70147 0.509325 5.68635 0.433134 5.65692 0.362044C5.6275 0.290955 5.58435 0.226362 5.52995 0.17196C5.47555 0.117557 5.41096 0.0744105 5.33987 0.0449882C5.26878 0.0155659 5.19259 0.000444375 5.11565 0.000488377H0.585774C0.430417 0.000488377 0.281423 0.0622037 0.171569 0.172058C0.0617153 0.281912 0 0.430905 0 0.586262V5.11614C0 5.27149 0.0617153 5.42049 0.171569 5.53034C0.281423 5.6402 0.430417 5.70191 0.585774 5.70191H2.2651V17.1496H0.585774C0.430444 17.1497 0.281502 17.2114 0.171667 17.3213C0.0618324 17.4311 8.86839e-05 17.5801 0 17.7354V22.2656C8.86839e-05 22.4209 0.0618324 22.5699 0.171667 22.6797C0.281502 22.7895 0.430444 22.8513 0.585774 22.8514H2.2651V34.2991H0.585774C0.430417 34.2991 0.281423 34.3608 0.171569 34.4706C0.0617153 34.5805 0 34.7295 0 34.8848V39.4147C0 39.5701 0.0617153 39.7191 0.171569 39.8289C0.281423 39.9388 0.430417 40.0005 0.585774 40.0005H5.11565C5.19259 40.0005 5.26878 39.9854 5.33987 39.956C5.41096 39.9266 5.47555 39.8834 5.52995 39.829C5.58435 39.7746 5.6275 39.71 5.65692 39.6389C5.68635 39.5678 5.70147 39.4916 5.70142 39.4147V37.7354H17.1491V39.4147C17.1491 39.5701 17.2108 39.7191 17.3207 39.8289C17.4305 39.9388 17.5795 40.0005 17.7349 40.0005H22.2651C22.4205 40.0005 22.5695 39.9388 22.6793 39.8289C22.7892 39.7191 22.8509 39.5701 22.8509 39.4147V37.7354H34.2986V39.4147C34.2985 39.4916 34.3137 39.5678 34.3431 39.6389C34.3725 39.71 34.4156 39.7746 34.47 39.829C34.5245 39.8834 34.589 39.9266 34.6601 39.956C34.7312 39.9854 34.8074 40.0005 34.8844 40.0005H39.4142C39.5696 40.0005 39.7186 39.9388 39.8284 39.8289C39.9383 39.7191 40 39.5701 40 39.4147V34.8848C40 34.7295 39.9383 34.5805 39.8284 34.4706C39.7186 34.3608 39.5696 34.2991 39.4142 34.2991H37.7339V22.8514H39.4142C39.5696 22.8513 39.7185 22.7895 39.8283 22.6797C39.9382 22.5699 39.9999 22.4209 40 22.2656V17.7354C39.9999 17.5801 39.9382 17.4311 39.8283 17.3213C39.7185 17.2114 39.5696 17.1497 39.4142 17.1496H37.7339V5.70191H39.4142C39.5696 5.70191 39.7186 5.6402 39.8284 5.53034C39.9383 5.42049 40 5.27149 40 5.11614V0.586262C40 0.430905 39.9383 0.281912 39.8284 0.172058C39.7186 0.0622037 39.5696 0.000488377 39.4142 0.000488377ZM18.3207 1.17204H21.6793V4.53036H18.3207V1.17204ZM1.17155 1.17204H4.52987V4.53036H1.17155V1.17204ZM1.17155 18.3212H4.52987V21.6798H1.17155V18.3212ZM4.52987 38.8289H1.17155V35.4706H4.52987V38.8289ZM21.6793 38.8289H18.3207V35.4706H21.6793V38.8289ZM38.8285 38.8289H35.4701V35.4706H37.1381C37.1414 35.4706 37.1444 35.4706 37.1478 35.4706C37.1511 35.4706 37.1541 35.4706 37.1575 35.4706H38.8281L38.8285 38.8289ZM38.8285 21.6798H35.4701V18.3212H38.8285V21.6798ZM36.5623 17.1496H34.8844C34.729 17.1496 34.58 17.2113 34.4701 17.3212C34.3603 17.431 34.2986 17.58 34.2986 17.7354V22.2656C34.2986 22.4209 34.3603 22.5699 34.4701 22.6798C34.58 22.7897 34.729 22.8514 34.8844 22.8514H36.5623V34.2991H34.8844C34.8074 34.299 34.7312 34.3141 34.6601 34.3436C34.589 34.373 34.5245 34.4161 34.47 34.4705C34.4156 34.5249 34.3725 34.5895 34.3431 34.6606C34.3137 34.7317 34.2985 34.8079 34.2986 34.8848V36.5638H22.8509V34.8848C22.8509 34.7295 22.7892 34.5805 22.6793 34.4706C22.5695 34.3608 22.4205 34.2991 22.2651 34.2991H17.7349C17.5795 34.2991 17.4305 34.3608 17.3207 34.4706C17.2108 34.5805 17.1491 34.7295 17.1491 34.8848V36.5638H5.70142V34.8848C5.70147 34.8079 5.68635 34.7317 5.65692 34.6606C5.6275 34.5895 5.58435 34.5249 5.52995 34.4705C5.47555 34.4161 5.41096 34.373 5.33987 34.3436C5.26878 34.3141 5.19259 34.299 5.11565 34.2991H3.43665V22.8514H5.11565C5.27101 22.8514 5.42 22.7897 5.52985 22.6798C5.63971 22.5699 5.70142 22.4209 5.70142 22.2656V17.7354C5.70142 17.58 5.63971 17.431 5.52985 17.3212C5.42 17.2113 5.27101 17.1496 5.11565 17.1496H3.43665V5.70191H5.11565C5.19259 5.70196 5.26878 5.68683 5.33987 5.65741C5.41096 5.62799 5.47555 5.58484 5.52995 5.53044C5.58435 5.47604 5.6275 5.41144 5.65692 5.34035C5.68635 5.26927 5.70147 5.19307 5.70142 5.11614V3.43714H17.1491V5.11614C17.1491 5.27149 17.2108 5.42049 17.3207 5.53034C17.4305 5.6402 17.5795 5.70191 17.7349 5.70191H22.2651C22.4205 5.70191 22.5695 5.6402 22.6793 5.53034C22.7892 5.42049 22.8509 5.27149 22.8509 5.11614V3.43714H34.2986V5.11614C34.2985 5.19307 34.3137 5.26927 34.3431 5.34035C34.3725 5.41144 34.4156 5.47604 34.47 5.53044C34.5245 5.58484 34.589 5.62799 34.6601 5.65741C34.7312 5.68683 34.8074 5.70196 34.8844 5.70191H36.5623V17.1496ZM38.8285 4.53036H37.1578C37.1545 4.53036 37.1515 4.53036 37.1481 4.53036C37.1448 4.53036 37.1418 4.53036 37.1384 4.53036H35.4701V1.17204H38.8285V4.53036Z" fill="white"/>
<path d="M30.0418 8.70342H9.95816C9.8028 8.70342 9.65381 8.76513 9.54395 8.87499C9.4341 8.98484 9.37239 9.13383 9.37239 9.28919V15.8432C9.37251 15.9582 9.40648 16.0706 9.47006 16.1665C9.53363 16.2623 9.62401 16.3374 9.72992 16.3822C9.83583 16.4271 9.95261 16.4398 10.0657 16.4187C10.1788 16.3977 10.2832 16.3439 10.3659 16.2639L13.2234 13.4944H17.5779V27.2701L15.6613 30.4065C15.607 30.4953 15.5774 30.5969 15.5755 30.7009C15.5736 30.8049 15.5994 30.9076 15.6503 30.9983C15.7012 31.0891 15.7753 31.1646 15.8651 31.2172C15.9548 31.2698 16.057 31.2975 16.161 31.2976H23.839C23.943 31.2975 24.0452 31.2698 24.1349 31.2172C24.2247 31.1646 24.2988 31.0891 24.3497 30.9983C24.4006 30.9076 24.4264 30.8049 24.4245 30.7009C24.4226 30.5969 24.393 30.4953 24.3387 30.4065L22.4221 27.2701V13.4944H26.7766L29.6341 16.2639C29.7168 16.3439 29.8212 16.3977 29.9343 16.4187C30.0474 16.4398 30.1642 16.4271 30.2701 16.3822C30.376 16.3374 30.4664 16.2623 30.5299 16.1665C30.5935 16.0706 30.6275 15.9582 30.6276 15.8432V9.28919C30.6276 9.13383 30.5659 8.98484 30.456 8.87499C30.3462 8.76513 30.1972 8.70342 30.0418 8.70342ZM29.4561 14.4607L27.4213 12.4889C27.3121 12.3829 27.166 12.3237 27.0139 12.3238H21.8363C21.681 12.3238 21.532 12.3856 21.4221 12.4954C21.3123 12.6053 21.2505 12.7543 21.2505 12.9096V27.4368C21.2505 27.5445 21.2803 27.6502 21.3366 27.7421L22.7946 30.128H17.2047L18.6628 27.7421C18.719 27.6502 18.7488 27.5445 18.7488 27.4368V12.9096C18.7488 12.7543 18.6871 12.6053 18.5772 12.4954C18.4674 12.3856 18.3184 12.3238 18.163 12.3238H12.9861C12.834 12.3237 12.6879 12.3829 12.5787 12.4889L10.5439 14.4597V9.87497H29.4561V14.4607Z" fill="white"/>
</svg>
