<svg width="40" height="40" viewBox="0 0 40 40" fill="none" xmlns="http://www.w3.org/2000/svg">
<path d="M38.887 5.16101C39.5007 5.16101 40 4.66174 40 4.04803V1.11346C40 0.499756 39.5007 0.000488281 38.887 0.000488281H35.9525C35.3387 0.000488281 34.8395 0.499756 34.8395 1.11346V1.99054H22.5803V1.11346C22.5803 0.499756 22.081 0.000488281 21.4673 0.000488281H18.5327C17.919 0.000488281 17.4197 0.499756 17.4197 1.11346V1.99054H5.16052V1.11346C5.16052 0.499756 4.66125 0.000488281 4.04755 0.000488281H1.11298C0.499268 0.000488281 0 0.499756 0 1.11346V4.04803C0 4.66174 0.499268 5.16101 1.11298 5.16101H1.98975V17.4202H1.11298C0.499268 17.4202 0 17.9195 0 18.5332V21.4678C0 22.0815 0.499268 22.5808 1.11298 22.5808H1.98975V34.84H1.11298C0.499268 34.84 0 35.3392 0 35.9529V38.8878C0 39.5012 0.499268 40.0005 1.11298 40.0005H4.04755C4.66125 40.0005 5.16052 39.5012 5.16052 38.8875V38.0104H17.4197V38.8875C17.4197 39.5012 17.919 40.0005 18.5327 40.0005H21.4673C22.081 40.0005 22.5803 39.5012 22.5803 38.8875V38.0104H34.8395V38.8875C34.8395 39.5012 35.3387 40.0005 35.9525 40.0005H38.887C39.5007 40.0005 40 39.5012 40 38.8875V35.9529C40 35.3392 39.5007 34.84 38.887 34.84H38.0103V22.5808H38.887C39.5007 22.5808 40 22.0815 40 21.4678V18.5332C40 17.9195 39.5007 17.4202 38.887 17.4202H38.0103V5.16101H38.887ZM36.0202 1.18121H38.8193V3.98029H36.0202V1.18121ZM18.6005 1.18121H21.3995V3.98029H18.6005V1.18121ZM1.18073 3.98029V1.18121H3.9798V3.98029H1.18073ZM1.18073 21.4V18.601H3.9798V21.4H1.18073ZM3.9798 38.8198H1.18073V36.0207H3.9798V38.8198ZM21.3995 38.8198H18.6005V36.0207H21.3995V38.8198ZM38.8193 36.0207V38.8198H36.0202V36.0207H38.8193ZM38.8193 21.4H36.0202V18.601H38.8193V21.4ZM36.8292 17.4202H35.9525C35.3387 17.4202 34.8395 17.9195 34.8395 18.5332V21.4678C34.8395 22.0815 35.3387 22.5808 35.9525 22.5808H36.8292V34.84H35.9525C35.3387 34.84 34.8395 35.3392 34.8395 35.9529V36.8297H22.5803V35.9529C22.5803 35.3392 22.081 34.84 21.4673 34.84H18.5327C17.919 34.84 17.4197 35.3392 17.4197 35.9529V36.8297H5.16052V35.9529C5.16052 35.3392 4.66125 34.84 4.04785 34.84H3.17078V22.5808H4.04755C4.66125 22.5808 5.16052 22.0815 5.16052 21.4678V18.5332C5.16052 17.9195 4.66125 17.4202 4.04755 17.4202H3.17078V5.16101H4.04755C4.66125 5.16101 5.16052 4.66174 5.16052 4.04803V3.17126H17.4197V4.04803C17.4197 4.66174 17.919 5.16101 18.5327 5.16101H21.4673C22.081 5.16101 22.5803 4.66174 22.5803 4.04803V3.17126H34.8395V4.04803C34.8395 4.66174 35.3387 5.16101 35.9525 5.16101H36.8292V17.4202Z" fill="white"/>
<path d="M29.8581 7.75989H21.1316C20.8057 7.75989 20.5414 8.02417 20.5414 8.3504C20.5414 8.67633 20.8057 8.94061 21.1316 8.94061H29.8581C31.0931 8.94061 32.0981 9.94556 32.0981 11.1806V28.8204C32.0981 30.0554 31.0931 31.0604 29.8581 31.0604H10.1419C8.90686 31.0604 7.90192 30.0554 7.90192 28.8204V11.1806C7.90192 9.94556 8.90686 8.94061 10.1419 8.94061H18.5147C18.8409 8.94061 19.1052 8.67633 19.1052 8.3504C19.1052 8.02417 18.8409 7.75989 18.5147 7.75989H10.1419C8.25561 7.75989 6.72119 9.29431 6.72119 11.1806V28.8204C6.72119 30.7067 8.25561 32.2411 10.1419 32.2411H29.8581C31.7444 32.2411 33.2788 30.7067 33.2788 28.8204V11.1806C33.2788 9.29431 31.7444 7.75989 29.8581 7.75989Z" fill="white"/>
<path d="M12.2876 17.0723L12.5018 16.35H14.7006L14.9307 17.0723C15.0311 17.3635 15.2271 17.509 15.5182 17.509C15.6927 17.509 15.8408 17.4559 15.9625 17.35C16.0895 17.2286 16.153 17.0989 16.153 16.9612C16.153 16.8236 16.1319 16.6967 16.0895 16.5804L14.5337 12.3497C14.3591 11.8734 14.0497 11.6353 13.605 11.6353C13.1555 11.6353 12.8433 11.8734 12.6685 12.3497L11.0892 16.5721C11.0519 16.6674 11.0336 16.7736 11.0336 16.8898C11.0336 17.0644 11.0944 17.2127 11.2161 17.3342C11.3376 17.4559 11.4886 17.517 11.6687 17.517C11.9913 17.517 12.1976 17.3687 12.2876 17.0723ZM13.605 12.9686L14.3115 15.1992L12.8671 15.1912L13.605 12.9686Z" fill="white"/>
<path d="M28.9865 12.0241H18.2458C17.9196 12.0241 17.6553 12.2884 17.6553 12.6146C17.6553 12.9409 17.9196 13.2051 18.2458 13.2051H28.9865C29.3127 13.2051 29.577 12.9409 29.577 12.6146C29.577 12.2884 29.3127 12.0241 28.9865 12.0241Z" fill="white"/>
<path d="M28.9865 15.8373H18.2458C17.9196 15.8373 17.6553 16.1016 17.6553 16.4275C17.6553 16.7537 17.9196 17.018 18.2458 17.018H28.9865C29.3127 17.018 29.577 16.7537 29.577 16.4275C29.577 16.1016 29.3127 15.8373 28.9865 15.8373Z" fill="white"/>
<path d="M28.9865 19.6501H11.3623C11.0364 19.6501 10.7721 19.9144 10.7721 20.2407C10.7721 20.5666 11.0364 20.8312 11.3623 20.8312H28.9868C29.3127 20.8312 29.577 20.5666 29.577 20.2407C29.577 19.9144 29.3127 19.6501 28.9865 19.6501Z" fill="white"/>
<path d="M28.9865 23.4633H21.5408C21.2146 23.4633 20.9503 23.7276 20.9503 24.0535C20.9503 24.3798 21.2146 24.644 21.5408 24.644H28.9865C29.3127 24.644 29.577 24.3798 29.577 24.0535C29.577 23.7276 29.3127 23.4633 28.9865 23.4633Z" fill="white"/>
<path d="M11.3623 28.4569H28.9868C29.3127 28.4569 29.577 28.1926 29.577 27.8667C29.577 27.5405 29.3127 27.2762 28.9868 27.2762H11.3623C11.0364 27.2762 10.7721 27.5405 10.7721 27.8667C10.7721 28.1926 11.0364 28.4569 11.3623 28.4569Z" fill="white"/>
<path d="M11.3623 24.644H18.7418C19.0677 24.644 19.332 24.3798 19.332 24.0535C19.332 23.7276 19.0677 23.4633 18.7418 23.4633H11.3623C11.0364 23.4633 10.7721 23.7276 10.7721 24.0535C10.7721 24.3798 11.0364 24.644 11.3623 24.644Z" fill="white"/>
</svg>
