<svg width="40" height="40" viewBox="0 0 40 40" fill="none" xmlns="http://www.w3.org/2000/svg">
<path d="M34.0949 3.27381V1.2035C34.0949 0.542486 33.5569 0.00475218 32.8956 0.00475218H29.6147C29.199 0.00475218 28.8317 0.214596 28.6123 0.533658C23.2817 -0.898841 17.6157 0.598033 13.7031 4.50889C7.83123 10.3783 7.69187 19.8242 13.2921 25.8618L12.1242 26.9985L11.4231 26.2976C10.8291 25.7039 9.86232 25.7039 9.2684 26.2976C7.26481 28.3003 2.45222 33.1109 0.665205 34.8971C-0.221735 35.7837 -0.221735 37.2262 0.665205 38.1128L1.91668 39.3637C2.76618 40.2128 4.14825 40.2128 4.99783 39.3637C5.18268 39.1789 12.8758 31.4891 13.6689 30.6964C14.2628 30.1025 14.2627 29.1364 13.6689 28.5427L12.9529 27.8271L14.1205 26.6908C16.6923 29.075 20.0097 30.5139 23.526 30.7571C23.5398 30.758 23.5535 30.7585 23.5671 30.7585C23.8723 30.7585 24.1296 30.5221 24.1511 30.2132C24.1733 29.8906 23.9298 29.6108 23.6069 29.5885C16.2941 29.0827 10.369 23.036 10.369 15.3997C10.369 5.97678 19.3336 -0.809544 28.3985 1.68944V3.19545C20.1487 0.630767 11.7984 6.83771 11.7984 15.416C11.7984 22.4488 17.5083 28.2107 24.5986 28.2107C30.6298 28.2107 33.8135 24.2286 33.9356 24.1675C33.9356 24.1675 33.9375 24.1654 33.9373 24.1656C33.9417 24.1608 33.9462 24.156 33.9505 24.151C36.1744 21.7732 37.3987 18.672 37.3987 15.416C37.3987 12.2312 36.2273 9.19443 34.0951 6.83803V4.79811C37.0847 7.47248 38.8281 11.2677 38.8281 15.3995C38.8281 22.6685 33.4027 28.7074 26.2344 29.5289C25.9129 29.5657 25.6822 29.856 25.7189 30.1775C25.7558 30.4989 26.0459 30.7296 26.3679 30.6928C34.1231 29.804 39.9999 23.2713 40 15.3997C39.9998 10.5915 37.8173 6.18967 34.0949 3.27381ZM4.16904 38.5352C3.77661 38.9274 3.13798 38.9274 2.74547 38.5352L1.494 37.2842C1.06397 36.8544 1.06397 36.1551 1.494 35.7253L6.0085 31.2127L8.75154 33.9546L4.16904 38.5352ZM9.58025 33.1264L6.83721 30.3845L7.66686 29.5552L10.4099 32.2971L9.58025 33.1264ZM12.8402 29.8678L11.2387 31.4686L8.49565 28.7267L10.0973 27.1259C10.2331 26.99 10.4586 26.9901 10.5944 27.1259L12.8403 29.3708C12.9761 29.5068 12.9761 29.732 12.8402 29.8678ZM19.3494 25.7857C18.0809 25.1414 16.9454 24.2718 15.9968 23.2293V14.5455C15.9968 14.5209 16.0168 14.5009 16.0414 14.5009H19.3495L19.3494 25.7857ZM23.8739 27.0152C22.7254 26.9449 21.6038 26.707 20.5214 26.301C20.5214 26.1703 20.5214 10.3154 20.5214 10.1038C20.5214 10.0793 20.5413 10.0593 20.5657 10.0593H23.8739V27.0152ZM23.8739 5.66225V8.88787H20.5657C19.895 8.88787 19.3495 9.43334 19.3495 10.1038V13.3294H16.0414C15.3705 13.3294 14.8249 13.8749 14.8249 14.5454V21.7066C9.84857 14.0086 15.4098 3.79272 24.5985 3.79272C25.9024 3.79272 27.1787 4.00709 28.3985 4.42897V4.44623H25.0904C24.4195 4.44623 23.8739 4.99178 23.8739 5.66225ZM28.3985 26.403C27.2937 26.7852 26.1565 26.9902 25.0459 27.0305V5.66232C25.0459 5.63779 25.0659 5.61779 25.0904 5.61779H28.3986L28.3985 26.403ZM36.2266 15.416C36.2266 17.8416 35.4782 20.1725 34.0949 22.124V16.7313C34.0949 16.4078 33.8326 16.1456 33.509 16.1456C33.1853 16.1456 32.923 16.4079 32.923 16.7313V23.5295C31.953 24.5247 30.8051 25.3382 29.5705 25.9241C29.5705 24.5907 29.5705 2.33733 29.5705 1.25014V1.22069C29.5705 1.19616 29.5904 1.17616 29.6148 1.17616H32.8957C32.9107 1.17616 32.9231 1.18842 32.9231 1.2035C32.9231 2.10295 32.9231 13.5006 32.9231 13.998C32.9231 14.3215 33.1854 14.5837 33.509 14.5837C33.8327 14.5837 34.095 14.3215 34.095 13.998V8.70795C35.4782 10.6595 36.2266 12.9904 36.2266 15.416Z" fill="white"/>
</svg>
