<svg width="40" height="40" viewBox="0 0 40 40" fill="none" xmlns="http://www.w3.org/2000/svg">
<path d="M23.9071 25.2074C24.4022 25.2074 24.8652 25.0122 25.2109 24.6578L28.2821 21.5091C28.983 20.7903 28.9685 19.6353 28.2497 18.9343C27.5308 18.2335 26.3756 18.248 25.6747 18.9667L23.873 20.8137L23.5574 20.5068C22.8376 19.8071 21.6824 19.8231 20.9823 20.5429C20.2825 21.2627 20.2987 22.4177 21.0185 23.1176L22.6377 24.692C22.9795 25.0243 23.4304 25.2074 23.9071 25.2074ZM21.8244 21.3615C22.0731 21.1057 22.4835 21.1004 22.7389 21.3488L23.4747 22.0643C23.7069 22.2902 24.0782 22.2851 24.3044 22.0533L26.5154 19.7866C26.7644 19.5312 27.1747 19.5263 27.4298 19.775C27.6851 20.024 27.6902 20.4342 27.4414 20.6894L24.3702 23.8381C24.1329 24.0919 23.7005 24.0973 23.4564 23.8503L21.8372 22.2759C21.5816 22.0273 21.5758 21.617 21.8244 21.3615Z" fill="white"/>
<path d="M19.3684 25.607C19.1731 25.3481 18.8051 25.2966 18.546 25.4919C18.2871 25.6872 18.2357 26.0553 18.4309 26.3142C18.6447 26.5975 18.8813 26.8692 19.1338 27.1217C20.5775 28.5653 22.4969 29.3602 24.5386 29.3602C26.5802 29.3602 28.4996 28.5653 29.9432 27.1217C31.387 25.6783 32.182 23.7591 32.182 21.7178C32.182 19.6763 31.3869 17.7572 29.9432 16.3138C26.963 13.334 22.114 13.3341 19.1338 16.3138C17.102 18.3453 16.383 21.3088 17.2575 24.0478C17.3561 24.3567 17.6867 24.5271 17.9954 24.4286C18.3043 24.33 18.4748 23.9996 18.3762 23.6908C17.6359 21.3722 18.2444 18.8636 19.9643 17.1441C22.4865 14.6221 26.5907 14.6221 29.1129 17.1441C30.3347 18.3658 31.0077 19.9901 31.0077 21.7178C31.0077 23.4456 30.3347 25.0699 29.1129 26.2916C27.8911 27.5132 26.2665 28.1861 24.5386 28.1861C22.8107 28.1861 21.1861 27.5133 19.9642 26.2916C19.75 26.0772 19.5495 25.847 19.3684 25.607Z" fill="white"/>
<path d="M39.1922 32.4435L35.4879 28.7397C35.2585 28.5105 34.8868 28.5104 34.6574 28.7397L34.6348 28.7624L33.2092 27.337C34.1675 25.8597 34.7385 24.1528 34.8508 22.3713C34.8712 22.0477 34.6253 21.7688 34.3017 21.7484C33.9784 21.7287 33.6993 21.9738 33.6788 22.2974C33.5385 24.5215 32.5924 26.6153 31.0146 28.1928C29.2314 29.9758 26.8898 30.8683 24.5475 30.8706C24.5445 30.8705 24.5416 30.8701 24.5386 30.8701H24.4919C22.1622 30.8584 19.8361 29.9662 18.0626 28.1928C16.3327 26.4633 15.3801 24.1637 15.3801 21.7177C15.3801 19.2717 16.3327 16.972 18.0626 15.2425C21.6334 11.6721 27.4437 11.6721 31.0146 15.2425C32.3446 16.5724 33.2222 18.2498 33.5528 20.0936C33.61 20.4128 33.9153 20.6248 34.2343 20.5679C34.5535 20.5107 34.7659 20.2056 34.7087 19.8864C34.3356 17.8054 33.3453 15.9124 31.845 14.4122C31.1015 13.6688 30.2718 13.0631 29.388 12.5942V7.86244C29.3875 7.70791 29.3251 7.55666 29.2161 7.44729L21.9403 0.172441C21.8308 0.0635351 21.6797 0.000878906 21.525 0.000488281H1.76156C0.790311 0.000488281 7.81249e-05 0.790566 7.81249e-05 1.76174V6.69635C7.81249e-05 7.02057 0.26289 7.28346 0.587265 7.28346C0.911561 7.28346 1.17445 7.02064 1.17445 6.69635V1.76174C1.17445 1.43799 1.43781 1.17463 1.76164 1.17463H20.938V6.6883C20.938 7.65947 21.7283 8.44955 22.6995 8.44955H28.2139V12.0624C27.0682 11.6284 25.8604 11.4054 24.6507 11.3924C24.6449 11.3916 24.6393 11.3904 24.6332 11.3904H11.5239C11.1996 11.3904 10.9367 11.6533 10.9367 11.9775C10.9367 12.3017 11.1996 12.5646 11.5239 12.5646H19.7447C18.9071 13.0026 18.1176 13.5632 17.4026 14.2463H11.5239C11.1996 14.2463 10.9367 14.5092 10.9367 14.8334C10.9367 15.1576 11.1996 15.4205 11.5239 15.4205H16.3458C15.3873 16.662 14.7323 18.0918 14.4188 19.6181H11.524C11.1997 19.6181 10.9368 19.881 10.9368 20.2053C10.9368 20.5295 11.1997 20.7924 11.524 20.7924H14.2473C14.2203 21.0984 14.206 21.407 14.206 21.7178C14.206 21.9728 14.2153 22.2264 14.2335 22.4782H11.524C11.1997 22.4782 10.9369 22.7411 10.9369 23.0653C10.9369 23.3896 11.1997 23.6524 11.524 23.6524H14.3865C14.686 25.2416 15.3536 26.7306 16.3476 28.0173H11.524C11.1997 28.0173 10.9369 28.2801 10.9369 28.6044C10.9369 28.9287 11.1997 29.1915 11.524 29.1915H17.4049C18.1189 29.8733 18.9072 30.433 19.7433 30.8704H11.5237C11.1994 30.8704 10.9365 31.1333 10.9365 31.4575C10.9365 31.7817 11.1994 32.0446 11.5237 32.0446H24.5386C25.7856 32.0445 27.0327 31.8205 28.2137 31.3731V38.2395C28.2137 38.5632 27.9503 38.8267 27.6265 38.8267H1.76156C1.43781 38.8267 1.17437 38.5633 1.17437 38.2395V9.04502C1.17437 8.7208 0.911483 8.45791 0.587187 8.45791C0.26289 8.45791 0 8.72072 0 9.04502V38.2395C7.81249e-05 39.2104 0.790311 40.0005 1.76156 40.0005H27.6266C28.5978 40.0005 29.3881 39.2104 29.3881 38.2392V30.841C29.6501 30.702 29.9073 30.5507 30.1589 30.3876L31.5842 31.8126C31.3375 32.0279 31.3243 32.4382 31.5614 32.6656L35.2658 36.3695C36.2992 37.4464 38.1589 37.4463 39.1921 36.3695C40.2693 35.3362 40.2692 33.4767 39.1922 32.4435ZM22.6994 7.27541C22.3757 7.27541 22.1122 7.01205 22.1122 6.6883V2.00494L27.3834 7.27541H22.6994ZM31.1168 29.6847C31.3673 29.4776 31.6106 29.2574 31.845 29.0231C32.0779 28.7902 32.2984 28.547 32.5065 28.295L33.8043 29.5926L32.4145 30.9822L31.1168 29.6847ZM38.3618 35.5392C37.7656 36.1606 36.6925 36.1605 36.0962 35.5392L32.807 32.2504L35.0727 29.985L38.3619 33.2738C38.9833 33.8701 38.9834 34.9429 38.3618 35.5392Z" fill="white"/>
<path d="M5.32851 16.0007H7.89726C8.62148 16.0007 9.2107 15.4117 9.2107 14.6876V12.1192C9.2107 11.395 8.62156 10.806 7.89726 10.806H5.32851C4.60437 10.806 4.01516 11.395 4.01516 12.1192V14.6876C4.01516 15.4117 4.60437 16.0007 5.32851 16.0007ZM5.18953 12.1192C5.18953 12.0425 5.25195 11.9802 5.32851 11.9802H7.89726C7.97398 11.9802 8.03632 12.0425 8.03632 12.1192V14.6876C8.03632 14.7642 7.9739 14.8266 7.89726 14.8266H5.32851C5.25187 14.8266 5.18953 14.7642 5.18953 14.6876V12.1192Z" fill="white"/>
<path d="M4.01516 22.9194C4.01516 23.6435 4.6043 24.2325 5.32851 24.2325H7.89726C8.62148 24.2325 9.2107 23.6435 9.2107 22.9194V20.351C9.2107 19.6269 8.62156 19.0378 7.89726 19.0378H5.32851C4.60437 19.0378 4.01516 19.6269 4.01516 20.351V22.9194ZM5.18953 20.351C5.18953 20.2743 5.25195 20.212 5.32851 20.212H7.89726C7.97398 20.212 8.03632 20.2743 8.03632 20.351V22.9194C8.03632 22.996 7.9739 23.0584 7.89726 23.0584H5.32851C5.25187 23.0584 5.18953 22.996 5.18953 22.9194V20.351Z" fill="white"/>
<path d="M4.01516 31.3185C4.01516 32.0425 4.6043 32.6316 5.32851 32.6316H7.89726C8.62148 32.6316 9.2107 32.0425 9.2107 31.3185V28.75C9.2107 28.0259 8.62156 27.4368 7.89726 27.4368H5.32851C4.60437 27.4368 4.01516 28.0259 4.01516 28.75V31.3185ZM5.18953 28.75C5.18953 28.6734 5.25195 28.611 5.32851 28.611H7.89726C7.97398 28.611 8.03632 28.6734 8.03632 28.75V31.3185C8.03632 31.3951 7.9739 31.4574 7.89726 31.4574H5.32851C5.25187 31.4574 5.18953 31.3951 5.18953 31.3185V28.75Z" fill="white"/>
</svg>
