<svg width="36" height="40" viewBox="0 0 36 40" fill="none" xmlns="http://www.w3.org/2000/svg">
<path d="M21.6585 40.0005H1.7561C0.787746 40.0005 0 39.2119 0 38.2427V8.92236C0 7.95314 0.787746 7.16455 1.7561 7.16455H5.12078C5.44406 7.16455 5.70615 7.42682 5.70615 7.75049C5.70615 8.07416 5.44406 8.33642 5.12078 8.33642H1.7561C1.43329 8.33642 1.17073 8.59924 1.17073 8.92236V38.2427C1.17073 38.5658 1.43329 38.8286 1.7561 38.8286H21.6585C21.9813 38.8286 22.2439 38.5658 22.2439 38.2427V24.6099H8.78049C7.81214 24.6099 7.02439 23.8213 7.02439 22.8521V1.7583C7.02439 0.789082 7.81214 0.000488281 8.78049 0.000488281H26.3415C27.3098 0.000488281 28.0976 0.789082 28.0976 1.7583V7.61768C28.0976 7.94135 27.8355 8.20361 27.5122 8.20361C27.1889 8.20361 26.9268 7.94135 26.9268 7.61768V1.7583C26.9268 1.43518 26.6643 1.17236 26.3415 1.17236H8.78049C8.45768 1.17236 8.19512 1.43518 8.19512 1.7583V22.8521C8.19512 23.1752 8.45768 23.438 8.78049 23.438H26.3415C26.6643 23.438 26.9268 23.1752 26.9268 22.8521V9.96143C26.9268 9.63775 27.1889 9.37549 27.5122 9.37549H31.0244C31.3477 9.37549 31.6098 9.63775 31.6098 9.96143C31.6098 10.2851 31.3477 10.5474 31.0244 10.5474H28.0976V12.8911H31.0244C31.3477 12.8911 31.6098 13.1534 31.6098 13.4771C31.6098 13.8007 31.3477 14.063 31.0244 14.063H28.0976V16.4067H31.0244C31.3477 16.4067 31.6098 16.669 31.6098 16.9927C31.6098 17.3163 31.3477 17.5786 31.0244 17.5786H28.0976V19.9224H31.0244C31.3477 19.9224 31.6098 20.1846 31.6098 20.5083C31.6098 20.832 31.3477 21.0942 31.0244 21.0942H28.0976V22.8521C28.0976 23.0574 28.0622 23.2546 27.9973 23.438H31.0244C31.3477 23.438 31.6098 23.7003 31.6098 24.0239C31.6098 24.3476 31.3477 24.6099 31.0244 24.6099H23.4146V26.9536H31.0244C31.3477 26.9536 31.6098 27.2159 31.6098 27.5396C31.6098 27.8632 31.3477 28.1255 31.0244 28.1255H23.4146V31.7974H33.3659C33.6887 31.7974 33.9512 31.5345 33.9512 31.2114V5.40674C33.9512 5.08361 33.6887 4.8208 33.3659 4.8208H29.8537C29.5304 4.8208 29.2683 4.55854 29.2683 4.23486C29.2683 3.91119 29.5304 3.64893 29.8537 3.64893H33.3659C34.3342 3.64893 35.122 4.43752 35.122 5.40674V31.2114C35.122 32.1806 34.3342 32.9692 33.3659 32.9692H23.4146V36.4849H29.8537C30.1765 36.4849 30.439 36.222 30.439 35.8989V34.7271C30.439 34.4034 30.7011 34.1411 31.0244 34.1411C31.3477 34.1411 31.6098 34.4034 31.6098 34.7271V35.8989C31.6098 36.8681 30.822 37.6567 29.8537 37.6567H23.4146V38.2427C23.4146 39.2119 22.6269 40.0005 21.6585 40.0005ZM25.1707 22.2661H9.95122C9.62794 22.2661 9.36585 22.0038 9.36585 21.6802V19.6447C9.36585 16.6338 11.3545 15.9449 12.8066 15.4419C14.0051 15.0267 14.6856 14.7471 14.8055 13.8448C13.5137 12.9613 12.6641 11.4756 12.6641 9.79471V7.37861C12.6641 4.67588 14.8609 2.47705 17.561 2.47705C20.2611 2.47705 22.4578 4.67596 22.4578 7.37861V9.79471C22.4578 11.4756 21.6084 12.9613 20.3164 13.8448C20.4364 14.7471 21.1169 15.0267 22.3153 15.4419C23.7674 15.9449 25.7561 16.6338 25.7561 19.6447V21.6802C25.7561 22.0038 25.494 22.2661 25.1707 22.2661ZM10.5366 21.0942H24.5854V19.6447C24.5854 17.4684 23.3559 17.0424 21.9324 16.5493C20.8811 16.1852 19.6137 15.746 19.2371 14.4005C18.7139 14.5919 18.1495 14.6963 17.561 14.6963C16.9725 14.6963 16.408 14.5919 15.8849 14.4005C15.5083 15.746 14.2409 16.1852 13.1895 16.5493C11.766 17.0425 10.5366 17.4684 10.5366 19.6447V21.0942ZM17.561 3.64893C15.5064 3.64893 13.8348 5.32205 13.8348 7.37861V9.79471C13.8348 11.8513 15.5064 13.5244 17.561 13.5244C19.6155 13.5244 21.2871 11.8513 21.2871 9.79471V7.37861C21.2871 5.32205 19.6155 3.64893 17.561 3.64893Z" fill="white"/>
</svg>
