<svg width="8" height="12" viewBox="0 0 8 12" fill="none" xmlns="http://www.w3.org/2000/svg">
<path d="M6.45055 3.77572e-05C6.75715 -0.00208891 7.05739 0.0887324 7.31277 0.260852C7.56814 0.432973 7.767 0.678544 7.88386 0.966076C8.00071 1.25361 8.03022 1.56999 7.96861 1.87465C7.907 2.17931 7.75707 2.45836 7.53806 2.67601L4.2257 6.018L7.53806 9.37486C7.8099 9.67077 7.95789 10.0622 7.95085 10.4666C7.94382 10.871 7.78231 11.2568 7.50035 11.5428C7.21839 11.8288 6.838 11.9926 6.43931 11.9998C6.04062 12.0069 5.65477 11.8568 5.36304 11.581L0.0867077 6.2291C0.0592332 6.20146 0.0374261 6.16858 0.0225443 6.13235C0.00766248 6.09611 5.19532e-07 6.05725 5.22963e-07 6.018C5.26394e-07 5.97875 0.00766249 5.93989 0.0225443 5.90365C0.0374261 5.86742 0.0592332 5.83454 0.0867078 5.8069L5.36304 0.454953C5.65203 0.163494 6.04302 -6.24142e-05 6.45055 3.77572e-05Z" fill="white"/>
</svg>
