<svg width="70" height="70" viewBox="0 0 70 70" fill="none" xmlns="http://www.w3.org/2000/svg">
<g clip-path="url(#clip0_257_3901)">
<path d="M6.90432 45.5959C6.33802 45.5959 5.87891 46.0551 5.87891 46.6214C5.87891 47.1877 6.33802 47.6468 6.90432 47.6468H15.8596C16.4259 47.6468 16.885 47.1877 16.885 46.6214C16.885 46.0551 16.4259 45.5959 15.8596 45.5959H6.90432Z" fill="white"/>
<path d="M68.8495 53.0989L64.5319 48.7813L64.5329 14.0855C64.5329 13.1432 63.7663 12.3764 62.8239 12.3764L52.954 12.3758C49.0682 8.65636 43.6085 6.47496 38.1786 6.49328C32.4697 6.49328 27.274 8.7306 23.4207 12.3737L13.8817 12.3727C13.8817 12.3727 13.8817 12.3727 13.8815 12.3727C13.3152 12.3727 12.8561 12.8317 12.8561 13.398C12.8561 13.9645 13.3151 14.4234 13.8814 14.4236L21.515 14.4244C20.9486 15.1188 20.4249 15.8493 19.9474 16.6115L2.05165 16.6104V14.4232L9.09613 14.4236C9.66243 14.4236 10.1215 13.9646 10.1215 13.3982C10.1215 12.8317 9.66257 12.3727 9.09613 12.3727L1.70971 12.3723C0.767285 12.3723 0.000683611 13.1389 0.000683611 14.0814L0 52.3604C0 53.3029 0.766602 54.0695 1.70903 54.0695L15.6038 54.0704C16.1701 54.0704 16.6292 53.6114 16.6292 53.045C16.6292 52.4786 16.1703 52.0196 15.6038 52.0196L2.05083 52.0186L2.05165 18.6613L18.8119 18.6624C18.1532 20.0243 17.6351 21.466 17.2742 22.9683H6.97283C6.40653 22.9683 5.94742 23.4274 5.94742 23.9937V32.1971C5.94742 32.7634 6.40653 33.2225 6.97283 33.2225H17.3249C17.5662 34.1839 17.8723 35.1198 18.2385 36.0253H6.90447C6.33817 36.0253 5.87906 36.4844 5.87906 37.0507C5.87906 37.617 6.33817 38.0761 6.90447 38.0761H19.1969C19.7071 39.0326 20.2867 39.9467 20.9304 40.8106H6.90447C6.33817 40.8106 5.87906 41.2697 5.87906 41.836C5.87906 42.4023 6.33817 42.8614 6.90447 42.8614H22.6665C26.5819 46.9445 32.0884 49.4905 38.1787 49.4905C41.9391 49.4905 45.5788 48.518 48.7844 46.6971L50.8347 48.7474C51.2179 49.1307 51.7213 49.3223 52.2247 49.3223C52.674 49.3223 53.1226 49.1687 53.4864 48.8635L56.6451 52.0223L20.3891 52.0197C19.8228 52.0197 19.3637 52.4787 19.3637 53.0451C19.3637 53.6116 19.8227 54.0706 20.3891 54.0706L24.8635 54.0708L23.9644 57.3508L22.1914 57.3504C19.6423 57.3504 17.5687 59.4241 17.5687 61.973V62.4772C17.5687 63.0435 18.0276 63.5026 18.5939 63.5026L45.938 63.5066H45.9381C46.2101 63.5066 46.4708 63.3986 46.6632 63.2063C46.8555 63.014 46.9635 62.7532 46.9635 62.4812V61.9769C46.9635 59.428 44.8899 57.3544 42.341 57.3544L40.5681 57.3539L39.6683 54.0718L58.6962 54.0732L63.2857 58.6628C64.0289 59.4059 65.0169 59.8151 66.0676 59.8151C67.1184 59.8151 68.1064 59.4059 68.8496 58.6628C70.3835 57.1288 70.3835 54.6329 68.8495 53.0989ZM44.8594 61.4556L19.6724 61.4519C19.914 60.2828 20.9515 59.4012 22.191 59.4012L42.3405 59.4052C43.5802 59.4052 44.6178 60.2866 44.8594 61.4556ZM38.4412 57.3537L26.0907 57.3512L26.9899 54.071L37.5416 54.0718L38.4412 57.3537ZM62.4821 16.6144L56.4194 16.614C55.9452 15.8548 55.424 15.1239 54.8569 14.4267L62.4821 14.4273V16.6144ZM7.99825 31.1718V25.0193H16.8866C16.7515 25.9914 16.6801 26.9834 16.6801 27.992C16.6801 29.0723 16.7611 30.1339 16.9157 31.1718H7.99825ZM18.7309 27.992C18.7309 17.2685 27.4552 8.54425 38.1787 8.54425C47.831 8.54425 55.9124 15.4547 57.3942 24.9759C57.4813 25.5355 58.0056 25.919 58.5651 25.8314C59.1247 25.7443 59.5078 25.2201 59.4206 24.6605C59.095 22.5689 58.4594 20.5502 57.5501 18.665L62.4819 18.6654L62.4812 46.7308L59.0505 43.2999C59.3474 42.9466 59.51 42.505 59.51 42.0381C59.51 41.513 59.3055 41.0193 58.9342 40.648L56.8848 38.5985C58.4347 35.8704 59.3759 32.8168 59.6159 29.6282C59.6585 29.0635 59.2352 28.5712 58.6704 28.5287C58.1059 28.4872 57.6135 28.9094 57.5709 29.4742C56.8122 39.5483 48.2941 47.4397 38.1787 47.4397C27.4552 47.4398 18.7309 38.7156 18.7309 27.992ZM50.558 45.5704C51.3507 45.0109 52.1102 44.3958 52.8297 43.7255C53.9289 42.7016 54.9076 41.5772 55.7582 40.3724L57.4239 42.0381L52.2247 47.2372L50.558 45.5704ZM67.3994 57.2126C67.0437 57.5683 66.5706 57.7642 66.0676 57.7642C65.5646 57.7642 65.0915 57.5683 64.7358 57.2126L54.9426 47.4194L57.6061 44.7558L67.3993 54.549C68.1336 55.2834 68.1336 56.4782 67.3994 57.2126Z" fill="white"/>
<path d="M38.1793 10.5881C28.5828 10.5881 20.7754 18.3955 20.7754 27.9921C20.7754 33.5348 23.4528 38.7956 27.9373 42.0646C28.3949 42.3983 29.0364 42.2976 29.37 41.84C29.7036 41.3824 29.6031 40.7409 29.1454 40.4073C25.1886 37.5228 22.8262 32.8815 22.8262 27.9919C22.8262 19.5262 29.7136 12.6388 38.1793 12.6388C46.645 12.6388 53.5324 19.5262 53.5324 27.9919C53.5324 36.4576 46.645 43.345 38.1793 43.345C36.4357 43.345 34.7254 43.0553 33.0961 42.4839C32.5615 42.2962 31.9765 42.5779 31.7892 43.1122C31.6017 43.6466 31.8831 44.2316 32.4174 44.4191C34.2654 45.0673 36.2038 45.3958 38.1793 45.3958C47.7758 45.3958 55.5832 37.5884 55.5832 27.9919C55.5832 18.3954 47.776 10.5881 38.1793 10.5881Z" fill="#E63114"/>
<path d="M38.6667 25.3431C39.233 25.3431 39.6921 24.884 39.6921 24.3177C39.6921 23.7513 39.233 23.2922 38.6667 23.2922H35.5703C35.004 23.2922 34.5449 23.7513 34.5449 24.3177V31.6661C34.5449 32.2324 35.004 32.6915 35.5703 32.6915H38.6667C39.233 32.6915 39.6921 32.2324 39.6921 31.6661C39.6921 31.0998 39.233 30.6406 38.6667 30.6406H36.5958V29.0173H38.4384C39.0047 29.0173 39.4638 28.5582 39.4638 27.9919C39.4638 27.4256 39.0047 26.9665 38.4384 26.9665H36.5958V25.3431H38.6667Z" fill="white"/>
<path d="M28.8403 30.6746C28.1306 30.6746 27.4485 30.3895 27.0157 29.9121C26.6355 29.4926 25.987 29.4606 25.5673 29.8409C25.1476 30.2211 25.1159 30.8696 25.4961 31.2893C26.3232 32.2019 27.5421 32.7254 28.8402 32.7254C30.4508 32.7254 31.8039 31.694 32.0577 30.2729C32.2492 29.1996 31.7671 27.7995 29.8389 27.0884C29.2194 26.8628 28.2033 26.4923 27.8171 26.2752C27.7091 26.2164 27.6623 26.1108 27.6778 25.9614C27.6992 25.7544 27.8534 25.4935 28.2223 25.3824C29.2144 25.0838 30.1434 25.8129 30.1727 25.8363C30.6062 26.1953 31.2488 26.138 31.6115 25.7061C31.9759 25.2727 31.9198 24.6259 31.4863 24.2614C31.4146 24.2012 29.707 22.7931 27.6307 23.4186C26.5322 23.7495 25.75 24.6647 25.6376 25.7503C25.5366 26.7273 25.9957 27.6186 26.8361 28.0762C27.2586 28.3198 28.2275 28.6871 29.1291 29.0125C29.3646 29.0993 30.1263 29.421 30.0385 29.9125C29.9721 30.2871 29.5055 30.6746 28.8403 30.6746Z" fill="white"/>
<path d="M51.4396 27.992C51.4396 25.382 49.3161 23.2585 46.7061 23.2585C44.0961 23.2585 41.9727 25.382 41.9727 27.992C41.9727 30.602 44.0961 32.7255 46.7061 32.7255C49.3161 32.7255 51.4396 30.602 51.4396 27.992ZM44.0235 27.992C44.0235 26.5128 45.2269 25.3094 46.7061 25.3094C48.1853 25.3094 49.3887 26.5128 49.3887 27.992C49.3887 29.4712 48.1853 30.6746 46.7061 30.6746C45.2269 30.6746 44.0235 29.4712 44.0235 27.992Z" fill="white"/>
</g>
<defs>
<clipPath id="clip0_257_3901">
<rect width="70" height="70" fill="white"/>
</clipPath>
</defs>
</svg>
