<svg width="70" height="70" viewBox="0 0 70 70" fill="none" xmlns="http://www.w3.org/2000/svg">
<g clip-path="url(#clip0_257_3871)">
<path d="M8.40039 8.88672H8.41321C9.16783 8.88672 9.77345 8.27469 9.77345 7.51953C9.77345 6.76437 9.15502 6.15234 8.40039 6.15234C7.64523 6.15234 7.0332 6.76437 7.0332 7.51953C7.0332 8.27469 7.64523 8.88672 8.40039 8.88672Z" fill="#FFF9F9"/>
<path d="M14.6211 8.88672H14.6339C15.3891 8.88672 15.9947 8.27469 15.9947 7.51953C15.9947 6.76437 15.3763 6.15234 14.6211 6.15234C13.8659 6.15234 13.2539 6.76437 13.2539 7.51953C13.2539 8.27469 13.8659 8.88672 14.6211 8.88672Z" fill="#FFF9F9"/>
<path d="M20.8418 8.88672H20.8546C21.6092 8.88672 22.2154 8.27469 22.2154 7.51953C22.2154 6.76437 21.5964 6.15234 20.8418 6.15234C20.0866 6.15234 19.4746 6.76437 19.4746 7.51953C19.4746 8.27469 20.0866 8.88672 20.8418 8.88672Z" fill="#FFF9F9"/>
<path d="M31.5469 8.88619H50.5834C51.3385 8.88619 51.9506 8.27416 51.9506 7.519C51.9506 6.76437 51.3385 6.15234 50.5834 6.15234H31.5469C30.7923 6.15234 30.1797 6.76437 30.1797 7.519C30.1797 8.27416 30.7917 8.88619 31.5469 8.88619Z" fill="#FFF9F9"/>
<path d="M57.8301 36.7764C57.4707 36.7764 57.1176 36.9222 56.8634 37.1769C56.6092 37.4311 56.4629 37.7836 56.4629 38.143C56.4629 38.503 56.6092 38.8555 56.8634 39.1097C57.1176 39.3639 57.4707 39.5102 57.8301 39.5102C58.1895 39.5102 58.542 39.3639 58.7962 39.1097C59.0504 38.8555 59.1973 38.503 59.1973 38.143C59.1973 37.7836 59.0509 37.4311 58.7962 37.1769C58.542 36.9222 58.1895 36.7764 57.8301 36.7764Z" fill="#FFF9F9"/>
<path d="M29.2084 24.1982H27.5059C26.7507 24.1982 26.1387 24.8103 26.1387 25.5654V35.4087C26.1387 36.1638 26.7507 36.7758 27.5059 36.7758H29.2084C32.6755 36.7758 35.497 33.9549 35.497 30.4873C35.497 27.0197 32.6761 24.1982 29.2084 24.1982ZM29.2084 34.0415H28.873V26.9326H29.2084C31.1684 26.9326 32.7626 28.5273 32.7626 30.4873C32.7626 32.4473 31.1684 34.0415 29.2084 34.0415Z" fill="#E63114"/>
<path d="M19.9675 25.1296C19.7806 24.5732 19.2588 24.1982 18.6719 24.1982C18.0849 24.1982 17.5632 24.5732 17.3762 25.1296L14.064 34.9729C13.8232 35.6885 14.2077 36.464 14.9233 36.7048C15.6395 36.9457 16.4144 36.5606 16.6553 35.845L16.7562 35.5454H20.5875L20.6879 35.845C20.8802 36.4159 21.4127 36.7764 21.9836 36.7764C22.1283 36.7764 22.2752 36.7534 22.4199 36.7048C23.1355 36.464 23.5206 35.6885 23.2792 34.9729L19.9675 25.1296ZM17.6759 32.8115L18.6719 29.8523L19.6674 32.8115H17.6759Z" fill="#E63114"/>
<path d="M69.4628 58.5413L60.167 49.2455L63.4434 45.9696C63.7852 45.6272 63.9214 45.1295 63.8002 44.6611C63.6795 44.1928 63.3201 43.8227 62.8549 43.6891L43.0648 37.9897V20.0966C43.0648 19.342 42.4528 18.7299 41.6976 18.7299H7.79244C7.03782 18.7299 6.42579 19.342 6.42579 20.0966V40.8773C6.42579 41.6325 7.03782 42.2445 7.79244 42.2445H37.4044L39.767 50.4471H3.96485C3.21076 50.4471 2.59766 49.834 2.59766 49.0799V14.9018H56.4627V32.6747C56.4627 33.4294 57.0748 34.0414 57.8299 34.0414C58.5846 34.0414 59.1971 33.4294 59.1971 32.6747V4.23828C59.1971 1.97655 57.3573 0.136719 55.0956 0.136719H3.96485C1.70311 0.136719 -0.136719 1.97655 -0.136719 4.23828V49.0799C-0.136719 51.3417 1.70311 53.1815 3.96485 53.1815H40.5542L43.4179 63.1257C43.5519 63.5908 43.9215 63.9502 44.3898 64.0709C44.8577 64.1916 45.3559 64.0565 45.6983 63.7142L48.9742 60.4383L58.27 69.7341C58.5264 69.9904 58.874 70.1341 59.2366 70.1341C59.5993 70.1341 59.9469 69.9904 60.2033 69.7341L69.4628 60.4746C69.9968 59.9405 69.9968 59.0748 69.4628 58.5413ZM3.96485 2.8711H55.0956C55.8491 2.8711 56.4627 3.48419 56.4627 4.23828V12.1674H2.59766V4.23828C2.59766 3.48419 3.21076 2.8711 3.96485 2.8711ZM9.15963 39.5101V21.4638H40.3305V37.2019L37.9331 36.5114C37.4546 36.3742 36.9397 36.5066 36.5878 36.8585C36.2358 37.2105 36.1034 37.7259 36.2406 38.2038L36.6172 39.5101H9.15963ZM59.2366 66.8336L49.9414 57.5378C49.6743 57.2708 49.3245 57.1373 48.9747 57.1373C48.6244 57.1373 48.2746 57.2708 48.0075 57.5378L45.404 60.1419L39.5523 39.8236L59.8706 45.6748L57.267 48.2788C57.0107 48.5347 56.8665 48.8829 56.8665 49.2455C56.8665 49.6076 57.0107 49.9558 57.267 50.2121L66.5629 59.5074L59.2366 66.8336Z" fill="#FFF9F9"/>
<path d="M17.3316 47.7126C18.0868 47.7126 18.6988 47.1006 18.6988 46.3459C18.6988 45.5908 18.0868 44.9788 17.3316 44.9788H7.98828C7.23312 44.9788 6.62109 45.5908 6.62109 46.3459C6.62109 47.1006 7.23312 47.7126 7.98828 47.7126H17.3316Z" fill="#FFF9F9"/>
<path d="M23.6985 47.3126C23.9527 47.0584 24.0991 46.7054 24.0991 46.3459C24.0991 45.9865 23.9533 45.6335 23.6985 45.3793C23.4443 45.1251 23.0918 44.9788 22.7319 44.9788C22.3725 44.9788 22.02 45.1251 21.7658 45.3793C21.5116 45.6335 21.3652 45.9865 21.3652 46.3459C21.3652 46.7054 21.511 47.0584 21.7658 47.3126C22.02 47.5668 22.3725 47.7131 22.7319 47.7131C23.0918 47.7131 23.4443 47.5668 23.6985 47.3126Z" fill="#FFF9F9"/>
</g>
<defs>
<clipPath id="clip0_257_3871">
<rect width="70" height="70" fill="white"/>
</clipPath>
</defs>
</svg>
