<svg width="70" height="70" viewBox="0 0 70 70" fill="none" xmlns="http://www.w3.org/2000/svg">
<path d="M40.4688 59.0625H38.2812V48.3438C38.2812 48.0537 38.166 47.7755 37.9609 47.5704C37.7558 47.3652 37.4776 47.25 37.1875 47.25C36.8974 47.25 36.6192 47.3652 36.4141 47.5704C36.209 47.7755 36.0938 48.0537 36.0938 48.3438V59.0625H7.65625V37.1875H16.7562C17.0463 37.1875 17.3245 37.0723 17.5296 36.8671C17.7348 36.662 17.85 36.3838 17.85 36.0938C17.85 35.8037 17.7348 35.5255 17.5296 35.3204C17.3245 35.1152 17.0463 35 16.7562 35H6.5625C6.27242 35 5.99422 35.1152 5.7891 35.3204C5.58398 35.5255 5.46875 35.8037 5.46875 36.0938V59.0625H3.28125C2.99117 59.0625 2.71297 59.1777 2.50785 59.3829C2.30273 59.588 2.1875 59.8662 2.1875 60.1562V62.3438C2.1875 63.7942 2.76367 65.1852 3.78926 66.2107C4.81485 67.2363 6.20585 67.8125 7.65625 67.8125H36.0938C37.5442 67.8125 38.9352 67.2363 39.9607 66.2107C40.9863 65.1852 41.5625 63.7942 41.5625 62.3438V60.1562C41.5625 59.8662 41.4473 59.588 41.2421 59.3829C41.037 59.1777 40.7588 59.0625 40.4688 59.0625ZM39.375 62.3438C39.375 63.214 39.0293 64.0486 38.4139 64.6639C37.7986 65.2793 36.964 65.625 36.0938 65.625H33.9062V64.5312C33.9062 64.2412 33.791 63.963 33.5859 63.7579C33.3808 63.5527 33.1026 63.4375 32.8125 63.4375C32.5224 63.4375 32.2442 63.5527 32.0391 63.7579C31.834 63.963 31.7188 64.2412 31.7188 64.5312V65.625H12.0312V64.5312C12.0312 64.2412 11.916 63.963 11.7109 63.7579C11.5058 63.5527 11.2276 63.4375 10.9375 63.4375C10.6474 63.4375 10.3692 63.5527 10.1641 63.7579C9.95898 63.963 9.84375 64.2412 9.84375 64.5312V65.625H7.65625C6.78601 65.625 5.95141 65.2793 5.33606 64.6639C4.7207 64.0486 4.375 63.214 4.375 62.3438V61.25H39.375V62.3438Z" fill="#FFF9F9"/>
<path d="M59.0625 8.75H61.25C61.5401 8.75 61.8183 8.63477 62.0234 8.42965C62.2285 8.22453 62.3438 7.94633 62.3438 7.65625C62.3438 7.36617 62.2285 7.08797 62.0234 6.88285C61.8183 6.67773 61.5401 6.5625 61.25 6.5625H59.0625C58.1923 6.5625 57.3577 6.9082 56.7423 7.52356C56.127 8.13891 55.7812 8.97351 55.7812 9.84375V10.9375H54.6875C54.3974 10.9375 54.1192 11.0527 53.9141 11.2579C53.709 11.463 53.5938 11.7412 53.5938 12.0312C53.5938 12.3213 53.709 12.5995 53.9141 12.8046C54.1192 13.0098 54.3974 13.125 54.6875 13.125H55.7812V16.4062C55.7812 16.6963 55.8965 16.9745 56.1016 17.1796C56.3067 17.3848 56.5849 17.5 56.875 17.5C57.1651 17.5 57.4433 17.3848 57.6484 17.1796C57.8535 16.9745 57.9688 16.6963 57.9688 16.4062V13.125H59.0625C59.3526 13.125 59.6308 13.0098 59.8359 12.8046C60.041 12.5995 60.1562 12.3213 60.1562 12.0312C60.1562 11.7412 60.041 11.463 59.8359 11.2579C59.6308 11.0527 59.3526 10.9375 59.0625 10.9375H57.9688V9.84375C57.9688 9.55367 58.084 9.27547 58.2891 9.07035C58.4942 8.86523 58.7724 8.75 59.0625 8.75Z" fill="#FFF9F9"/>
<path d="M64.5312 2.1875H51.4062C50.536 2.1875 49.7014 2.5332 49.0861 3.14856C48.4707 3.76391 48.125 4.59851 48.125 5.46875V7.65625C48.125 7.94633 48.2402 8.22453 48.4454 8.42965C48.6505 8.63477 48.9287 8.75 49.2188 8.75C49.5088 8.75 49.787 8.63477 49.9921 8.42965C50.1973 8.22453 50.3125 7.94633 50.3125 7.65625V5.46875C50.3125 5.17867 50.4277 4.90047 50.6329 4.69535C50.838 4.49023 51.1162 4.375 51.4062 4.375H64.5312C64.8213 4.375 65.0995 4.49023 65.3046 4.69535C65.5098 4.90047 65.625 5.17867 65.625 5.46875V18.5938C65.625 18.8838 65.5098 19.162 65.3046 19.3671C65.0995 19.5723 64.8213 19.6875 64.5312 19.6875H51.4062C51.1162 19.6875 50.838 19.5723 50.6329 19.3671C50.4277 19.162 50.3125 18.8838 50.3125 18.5938V12.0312C50.3125 11.7412 50.1973 11.463 49.9921 11.2579C49.787 11.0527 49.5088 10.9375 49.2188 10.9375C48.9287 10.9375 48.6505 11.0527 48.4454 11.2579C48.2402 11.463 48.125 11.7412 48.125 12.0312V18.5938C48.125 19.464 48.4707 20.2986 49.0861 20.9139C49.7014 21.5293 50.536 21.875 51.4062 21.875H64.5312C65.4015 21.875 66.2361 21.5293 66.8514 20.9139C67.4668 20.2986 67.8125 19.464 67.8125 18.5938V5.46875C67.8125 4.59851 67.4668 3.76391 66.8514 3.14856C66.2361 2.5332 65.4015 2.1875 64.5312 2.1875Z" fill="#FFF9F9"/>
<path d="M53.5938 45.9375C53.5938 46.8028 53.8503 47.6487 54.3311 48.3681C54.8118 49.0876 55.4951 49.6483 56.2945 49.9795C57.0939 50.3106 57.9736 50.3972 58.8223 50.2284C59.6709 50.0596 60.4505 49.6429 61.0623 49.0311C61.6742 48.4192 62.0909 47.6397 62.2597 46.791C62.4285 45.9424 62.3419 45.0627 62.0107 44.2633C61.6796 43.4638 61.1188 42.7806 60.3994 42.2998C59.6799 41.8191 58.834 41.5625 57.9688 41.5625C56.8084 41.5625 55.6956 42.0234 54.8752 42.8439C54.0547 43.6644 53.5938 44.7772 53.5938 45.9375ZM60.1562 45.9375C60.1562 46.3701 60.028 46.7931 59.7876 47.1528C59.5472 47.5125 59.2056 47.7929 58.8059 47.9585C58.4062 48.1241 57.9663 48.1674 57.542 48.083C57.1177 47.9986 56.7279 47.7902 56.422 47.4843C56.116 47.1784 55.9077 46.7886 55.8233 46.3643C55.7389 45.9399 55.7822 45.5001 55.9478 45.1004C56.1133 44.7007 56.3937 44.359 56.7534 44.1187C57.1132 43.8783 57.5361 43.75 57.9688 43.75C58.5489 43.75 59.1053 43.9805 59.5155 44.3907C59.9258 44.8009 60.1562 45.3573 60.1562 45.9375Z" fill="#E63114"/>
<path d="M64.5312 36.0938H51.4062C50.536 36.0938 49.7014 36.4395 49.0861 37.0548C48.4707 37.6702 48.125 38.5048 48.125 39.375V52.5C48.125 53.3702 48.4707 54.2048 49.0861 54.8202C49.7014 55.4355 50.536 55.7812 51.4062 55.7812H64.5312C65.4015 55.7812 66.2361 55.4355 66.8514 54.8202C67.4668 54.2048 67.8125 53.3702 67.8125 52.5V50.3125C67.8125 50.0224 67.6973 49.7442 67.4921 49.5391C67.287 49.334 67.0088 49.2188 66.7188 49.2188C66.4287 49.2188 66.1505 49.334 65.9454 49.5391C65.7402 49.7442 65.625 50.0224 65.625 50.3125V52.5C65.625 52.7901 65.5098 53.0683 65.3046 53.2734C65.0995 53.4785 64.8213 53.5938 64.5312 53.5938H51.4062C51.1162 53.5938 50.838 53.4785 50.6329 53.2734C50.4277 53.0683 50.3125 52.7901 50.3125 52.5V39.375C50.3125 39.0849 50.4277 38.8067 50.6329 38.6016C50.838 38.3965 51.1162 38.2812 51.4062 38.2812H64.5312C64.8213 38.2812 65.0995 38.3965 65.3046 38.6016C65.5098 38.8067 65.625 39.0849 65.625 39.375V45.9375C65.625 46.2276 65.7402 46.5058 65.9454 46.7109C66.1505 46.916 66.4287 47.0312 66.7188 47.0312C67.0088 47.0312 67.287 46.916 67.4921 46.7109C67.6973 46.5058 67.8125 46.2276 67.8125 45.9375V39.375C67.8125 38.5048 67.4668 37.6702 66.8514 37.0548C66.2361 36.4395 65.4015 36.0938 64.5312 36.0938Z" fill="#FFF9F9"/>
<path d="M26.7641 15.1485C26.9381 15.2564 27.139 15.3133 27.3438 15.3126C27.515 15.3116 27.6836 15.2704 27.8359 15.1923L34.3984 11.911C34.5776 11.8193 34.728 11.6798 34.8329 11.5081C34.9379 11.3363 34.9935 11.1389 34.9935 10.9376C34.9935 10.7363 34.9379 10.5389 34.8329 10.3672C34.728 10.1954 34.5776 10.056 34.3984 9.96417L27.8359 6.68292C27.6694 6.59902 27.4843 6.55907 27.298 6.56688C27.1117 6.57468 26.9305 6.62997 26.7716 6.72751C26.6127 6.82504 26.4814 6.96157 26.3901 7.12414C26.2988 7.28671 26.2506 7.46991 26.25 7.65636V14.2189C26.2496 14.4047 26.2966 14.5876 26.3866 14.7503C26.4765 14.913 26.6064 15.05 26.7641 15.1485ZM28.4375 9.42823L31.4563 10.9376L28.4375 12.447V9.42823Z" fill="#E63114"/>
<path d="M29.5312 20.7813C31.4782 20.7813 33.3813 20.2039 35.0001 19.1223C36.6189 18.0406 37.8806 16.5033 38.6257 14.7045C39.3707 12.9058 39.5657 10.9266 39.1859 9.01708C38.806 7.10758 37.8685 5.3536 36.4918 3.97692C35.1152 2.60025 33.3612 1.66272 31.4517 1.2829C29.5422 0.903076 27.5629 1.09802 25.7642 1.84307C23.9655 2.58812 22.4281 3.84981 21.3465 5.46861C20.2648 7.08741 19.6875 8.99059 19.6875 10.9375C19.6875 13.5482 20.7246 16.052 22.5707 17.8981C24.4167 19.7441 26.9205 20.7813 29.5312 20.7813ZM29.5312 3.28125C31.0455 3.28125 32.5258 3.73029 33.7848 4.57157C35.0439 5.41284 36.0252 6.60859 36.6047 8.00758C37.1842 9.40658 37.3358 10.946 37.0404 12.4312C36.745 13.9163 36.0158 15.2805 34.945 16.3513C33.8743 17.422 32.5101 18.1512 31.0249 18.4466C29.5397 18.7421 28.0003 18.5904 26.6013 18.011C25.2023 17.4315 24.0066 16.4502 23.1653 15.1911C22.324 13.932 21.875 12.4518 21.875 10.9375C21.875 8.90694 22.6816 6.95954 24.1175 5.52372C25.5533 4.08789 27.5007 3.28125 29.5312 3.28125Z" fill="#FFF9F9"/>
<path d="M40.4688 25.1563C40.6386 25.1563 40.806 25.1167 40.9579 25.0408C41.1098 24.9648 41.2419 24.8546 41.3438 24.7188L44.625 20.3438C44.7991 20.1117 44.8738 19.82 44.8328 19.5328C44.7917 19.2457 44.6383 18.9866 44.4063 18.8125C44.1742 18.6385 43.8825 18.5637 43.5953 18.6047C43.3082 18.6458 43.0491 18.7992 42.875 19.0313L39.5938 23.4063C39.4197 23.6383 39.345 23.93 39.386 24.2172C39.427 24.5044 39.5804 24.7635 39.8125 24.9375C40.0018 25.0795 40.2321 25.1563 40.4688 25.1563Z" fill="#FFF9F9"/>
<path d="M42.875 29.0938C42.9769 29.2296 43.109 29.3398 43.2609 29.4158C43.4127 29.4917 43.5802 29.5313 43.75 29.5313C43.9867 29.5313 44.2169 29.4545 44.4063 29.3125L48.7813 26.0313C49.0133 25.8572 49.1667 25.5981 49.2078 25.3109C49.2488 25.0238 49.1741 24.7321 49 24.5C48.826 24.2679 48.5668 24.1145 48.2797 24.0735C47.9925 24.0325 47.7008 24.1072 47.4688 24.2813L43.0938 27.5625C42.8617 27.7366 42.7083 27.9957 42.6672 28.2828C42.6262 28.57 42.701 28.8617 42.875 29.0938Z" fill="#FFF9F9"/>
<path d="M53.5933 31.5001C53.5674 31.3551 53.5123 31.2168 53.4316 31.0936C53.3508 30.9704 53.246 30.8648 53.1235 30.7831C53.0009 30.7013 52.8631 30.6452 52.7183 30.6181C52.5735 30.5909 52.4247 30.5933 52.2808 30.6251L46.8121 31.7189C46.6685 31.7332 46.5291 31.7757 46.4019 31.844C46.2747 31.9122 46.1621 32.0048 46.0707 32.1166C45.8861 32.3422 45.7987 32.6319 45.8277 32.922C45.8567 33.2121 45.9998 33.4787 46.2254 33.6633C46.451 33.848 46.7408 33.9354 47.0308 33.9064H47.2496L52.7183 32.8126C52.8634 32.7866 53.0016 32.7316 53.1248 32.6508C53.248 32.5701 53.3537 32.4653 53.4354 32.3427C53.5171 32.2202 53.5732 32.0823 53.6004 31.9375C53.6275 31.7927 53.6251 31.644 53.5933 31.5001Z" fill="#FFF9F9"/>
<path d="M3.28125 31.7188H16.4062C16.6963 31.7188 16.9745 31.6035 17.1796 31.3984C17.3848 31.1933 17.5 30.9151 17.5 30.625V13.125C17.5 12.8349 17.3848 12.5567 17.1796 12.3516C16.9745 12.1465 16.6963 12.0312 16.4062 12.0312H3.28125C2.99117 12.0312 2.71297 12.1465 2.50785 12.3516C2.30273 12.5567 2.1875 12.8349 2.1875 13.125V30.625C2.1875 30.9151 2.30273 31.1933 2.50785 31.3984C2.71297 31.6035 2.99117 31.7188 3.28125 31.7188ZM4.375 14.2188H15.3125V29.5312H4.375V14.2188Z" fill="#FFF9F9"/>
<path d="M12.0312 16.4062H9.84375C9.55367 16.4062 9.27547 16.5215 9.07035 16.7266C8.86523 16.9317 8.75 17.2099 8.75 17.5C8.75 17.7901 8.86523 18.0683 9.07035 18.2734C9.27547 18.4785 9.55367 18.5938 9.84375 18.5938H12.0312C12.3213 18.5938 12.5995 18.4785 12.8046 18.2734C13.0098 18.0683 13.125 17.7901 13.125 17.5C13.125 17.2099 13.0098 16.9317 12.8046 16.7266C12.5995 16.5215 12.3213 16.4062 12.0312 16.4062Z" fill="#E63114"/>
<path d="M12.0312 20.7812H7.65625C7.36617 20.7812 7.08797 20.8965 6.88285 21.1016C6.67773 21.3067 6.5625 21.5849 6.5625 21.875C6.5625 22.1651 6.67773 22.4433 6.88285 22.6484C7.08797 22.8535 7.36617 22.9688 7.65625 22.9688H12.0312C12.3213 22.9688 12.5995 22.8535 12.8046 22.6484C13.0098 22.4433 13.125 22.1651 13.125 21.875C13.125 21.5849 13.0098 21.3067 12.8046 21.1016C12.5995 20.8965 12.3213 20.7812 12.0312 20.7812Z" fill="#E63114"/>
<path d="M12.0312 25.1562H7.65625C7.36617 25.1562 7.08797 25.2715 6.88285 25.4766C6.67773 25.6817 6.5625 25.9599 6.5625 26.25C6.5625 26.5401 6.67773 26.8183 6.88285 27.0234C7.08797 27.2285 7.36617 27.3438 7.65625 27.3438H12.0312C12.3213 27.3438 12.5995 27.2285 12.8046 27.0234C13.0098 26.8183 13.125 26.5401 13.125 26.25C13.125 25.9599 13.0098 25.6817 12.8046 25.4766C12.5995 25.2715 12.3213 25.1562 12.0312 25.1562Z" fill="#E63114"/>
<path d="M39.5062 31.3906C39.4344 31.2656 39.3387 31.1561 39.2245 31.0681C39.1103 30.9801 38.98 30.9155 38.8408 30.8779C38.7017 30.8403 38.5565 30.8305 38.4136 30.8491C38.2706 30.8676 38.1327 30.9141 38.0078 30.9859C37.8828 31.0577 37.7732 31.1535 37.6853 31.2676C37.5973 31.3818 37.5327 31.5122 37.4951 31.6513C37.4575 31.7905 37.4477 31.9356 37.4662 32.0786C37.4848 32.2215 37.5313 32.3594 37.6031 32.4844L42.4265 40.8297L24.9265 47.3922C24.9265 47.3922 24.9265 47.3922 24.85 47.3922H24.7625L21.9187 49.0328L20.0265 50.1265C19.7774 50.2706 19.5024 50.364 19.2171 50.4015C18.9318 50.4391 18.6419 50.42 18.364 50.3453C17.8058 50.1945 17.33 49.8288 17.0406 49.3281L14.8531 45.5437C14.5957 45.0486 14.5373 44.4738 14.6898 43.9371C14.8423 43.4003 15.1942 42.9421 15.6734 42.6562L19.4578 40.4687L22.1922 45.2047C22.2885 45.3716 22.4273 45.5101 22.5944 45.6061C22.7615 45.7021 22.951 45.7523 23.1437 45.7515C23.3361 45.7523 23.5252 45.7023 23.6921 45.6066C23.859 45.511 23.9977 45.373 24.0942 45.2066C24.1907 45.0402 24.2416 44.8512 24.2418 44.6589C24.242 44.4665 24.1915 44.2775 24.0953 44.1109L21.2734 39.2328L35 27.9125L35.4484 28.689C35.5202 28.814 35.616 28.9236 35.7301 29.0116C35.8443 29.0995 35.9747 29.1641 36.1138 29.2017C36.253 29.2393 36.3981 29.2491 36.5411 29.2306C36.684 29.212 36.8219 29.1655 36.9468 29.0937C37.0718 29.0219 37.1814 28.9262 37.2694 28.812C37.3573 28.6978 37.4219 28.5675 37.4595 28.4283C37.4971 28.2892 37.5069 28.144 37.4884 28.0011C37.4698 27.8581 37.4233 27.7203 37.3515 27.5953L36.2578 25.7031C36.1776 25.5661 36.0686 25.4481 35.9383 25.3575C35.808 25.2668 35.6595 25.2056 35.5031 25.1781C35.3459 25.1485 35.1841 25.1537 35.0292 25.1934C34.8742 25.2331 34.7298 25.3063 34.6062 25.4078L19.2937 38.0297L14.6343 40.7203C13.7982 41.2073 13.1471 41.9578 12.7829 42.8543C12.4188 43.7509 12.3621 44.7428 12.6218 45.675L11.5281 46.2984C10.9645 46.622 10.5098 47.1057 10.2215 47.6881C9.93315 48.2705 9.82427 48.9254 9.90862 49.5698C9.99297 50.2141 10.2668 50.8189 10.6953 51.3075C11.1238 51.7961 11.6877 52.1464 12.3156 52.314C12.5939 52.3878 12.8808 52.4246 13.1687 52.4234C13.7441 52.421 14.3092 52.2704 14.8093 51.9859L15.9031 51.3625C16.4285 51.9052 17.0893 52.2979 17.8172 52.5C18.1909 52.6045 18.5775 52.6561 18.9656 52.6531C19.7344 52.6549 20.4897 52.451 21.1531 52.0625L22.1047 51.5156L24.2922 55.3109C24.7269 56.0625 25.4418 56.6112 26.2803 56.8367C27.1188 57.0622 28.0125 56.9462 28.7656 56.514C29.1392 56.2988 29.4667 56.012 29.7295 55.67C29.9922 55.3281 30.1849 54.9377 30.2966 54.5212C30.4084 54.1047 30.4369 53.6703 30.3807 53.2428C30.3244 52.8153 30.1844 52.4031 29.9687 52.0297L27.9781 48.5625L44.3843 42.4047C44.5331 42.3487 44.6679 42.2611 44.7794 42.1477C44.8908 42.0344 44.9762 41.8981 45.0297 41.7484C45.0829 41.6005 45.1036 41.4428 45.0904 41.2862C45.0772 41.1295 45.0303 40.9775 44.9531 40.8406L39.5062 31.3906ZM13.6718 50.0828C13.5473 50.1548 13.4098 50.2015 13.2671 50.2203C13.1245 50.2391 12.9795 50.2295 12.8406 50.1922C12.5604 50.1194 12.3204 49.9384 12.1734 49.689C12.1014 49.5645 12.0547 49.427 12.0359 49.2843C12.0171 49.1417 12.0267 48.9967 12.064 48.8578C12.1014 48.7181 12.166 48.5872 12.2543 48.4727C12.3425 48.3582 12.4526 48.2623 12.5781 48.1906L13.5297 47.6437L14.6234 49.5359L13.6718 50.0828ZM28.0656 53.1453C28.1376 53.2698 28.1843 53.4074 28.2031 53.55C28.2219 53.6927 28.2123 53.8376 28.175 53.9765C28.097 54.2546 27.9122 54.4905 27.6609 54.6328C27.4111 54.7763 27.1147 54.8154 26.8362 54.7417C26.5577 54.668 26.3195 54.4874 26.1734 54.239L23.9859 50.4437L25.8015 49.4047H25.889L28.0656 53.1453Z" fill="#FFF9F9"/>
</svg>
