<svg width="70" height="70" viewBox="0 0 70 70" fill="none" xmlns="http://www.w3.org/2000/svg">
<g clip-path="url(#clip0_257_3850)">
<path d="M60.1606 0H57.151C55.8281 0 55.8281 2.05108 57.151 2.05108H60.1606C63.2687 2.05108 65.7974 4.57062 65.7974 7.66748V31.4015C65.7974 34.4984 63.2688 37.018 60.1606 37.018H56.7472C56.522 37.018 56.3031 37.0921 56.1241 37.229L49.8607 42.02V38.0435C49.8607 37.4772 49.4016 37.018 48.8351 37.018H36.3536C35.3315 37.018 34.3492 36.7482 33.4828 36.2353V24.723C33.4828 22.5666 32.3845 20.6615 30.7167 19.5343V7.66748C30.7167 4.57062 33.2454 2.05108 36.3536 2.05108H50.7243C52.0471 2.05108 52.0471 0 50.7243 0H36.3536C32.1145 0 28.6656 3.43966 28.6656 7.66748V18.6329C28.1961 18.5208 27.7068 18.4597 27.2034 18.4597H8.4297C4.96734 18.4597 2.15039 21.2694 2.15039 24.723V26.9375C2.15039 28.2603 4.20147 28.2603 4.20147 26.9375V24.723C4.20147 22.4004 6.09817 20.5108 8.4297 20.5108H27.2035C29.535 20.5108 31.4319 22.4004 31.4319 24.723V36.6436C31.4195 36.7341 31.4201 36.8253 31.4319 36.9152V43.4392C31.4319 43.5682 31.4241 43.6966 31.4124 43.8243H29.2975C26.9671 43.8243 25.0243 45.5063 24.6215 47.717C24.5282 47.7521 24.4386 47.8012 24.3556 47.8652L19.7687 51.4068V48.677C19.7687 48.1106 19.3097 47.6515 18.7432 47.6515H8.4297C6.09817 47.6515 4.20147 45.7619 4.20147 43.4392V33.0907C4.20147 31.7679 2.15039 31.7679 2.15039 33.0907V43.4394C2.15039 46.893 4.96734 49.7027 8.4297 49.7027H17.7178V53.4944C17.7178 54.3171 18.7167 54.8105 19.3701 54.3063L24.5436 50.3117V61.849C24.5436 64.4641 26.6764 66.5915 29.2976 66.5915H35.591V68.9846C35.591 69.8069 36.5899 70.301 37.2432 69.7964L41.3941 66.5915H42.6203C45.2416 66.5915 47.3743 64.464 47.3743 61.849V60.0282C47.3743 58.7054 45.3233 58.7054 45.3233 60.0282V61.849C45.3233 63.3332 44.1108 64.5404 42.6203 64.5404H41.0442C40.8173 64.5404 40.5969 64.6157 40.4175 64.7542L37.642 66.897V65.5658C37.642 64.9995 37.1829 64.5403 36.6164 64.5403H29.2975C27.8072 64.5403 26.5946 63.3329 26.5946 61.8489V48.5669C26.5946 47.0828 27.8071 45.8755 29.2975 45.8755H42.6203C44.1107 45.8755 45.3233 47.0829 45.3233 48.5669V53.6015C45.3233 54.9243 47.3743 54.9243 47.3743 53.6015V48.5671C47.3743 45.9519 45.2416 43.8246 42.6203 43.8246H33.4712C33.479 43.6964 33.4829 38.5166 33.4829 38.5166C34.3872 38.8802 35.3567 39.0692 36.3538 39.0692H47.8097V44.0957C47.8097 44.9163 48.8043 45.4103 49.4584 44.9103L57.0947 39.0692H60.1608C64.3998 39.0692 67.8486 35.6295 67.8486 31.4016V7.66748C67.8485 3.43966 64.3996 0 60.1606 0V0Z" fill="#FFF9F9"/>
<path d="M50.8202 7.57701C49.518 7.2446 48.1911 8.27342 48.1911 9.61893C48.1911 11.089 47.6554 12.5058 46.6833 13.6075L43.8577 16.8048C43.6748 16.5241 43.3586 16.3383 42.9986 16.3383H37.4826C36.9161 16.3383 36.457 16.7974 36.457 17.3638V29.7749C36.457 30.3412 36.9161 30.8004 37.4826 30.8004H42.9986C43.4131 30.8004 43.7691 30.5541 43.9309 30.2005C45.0476 30.8829 46.3417 31.2518 47.6584 31.2518H57.4067C58.8964 31.2518 60.1252 29.9592 60.0554 28.4734C60.0243 27.8154 60.0582 18.9803 60.0582 18.7841C60.0582 17.3221 58.8688 16.1325 57.4098 16.1325L52.3404 16.1173L52.5503 15.6202C53.5096 13.3486 53.3516 10.7145 52.1284 8.57357C51.8428 8.07338 51.3781 7.71963 50.8202 7.57701C51.3781 7.71963 50.262 7.43453 50.8202 7.57701C51.3781 7.71963 49.5182 7.2446 50.8202 7.57701ZM41.9731 28.7493H38.5081V18.3893H41.9731V28.7493ZM57.4067 18.1834C57.7379 18.1834 58.0073 18.4528 58.0073 18.784C58.0073 18.9791 58.0052 19.5087 58.0025 20.2267C57.9873 24.191 57.9772 27.9456 58.0065 28.5697C58.0171 28.7949 57.9076 28.945 57.8414 29.0145C57.7268 29.1345 57.5725 29.2006 57.4067 29.2006H47.6584C46.4964 29.2006 45.3591 28.7979 44.4558 28.0667L44.0241 27.7172V19.7138L48.2208 14.965C49.5243 13.4877 50.2422 11.5891 50.2422 9.61879C50.2422 9.56082 50.3214 9.54578 50.3476 9.5909C51.2558 11.1802 51.3729 13.1357 50.6609 14.8221L49.8515 16.739C49.7179 17.0553 49.7516 17.4173 49.9407 17.7036C50.1301 17.9899 50.45 18.1625 50.7931 18.1636L57.4067 18.1834Z" fill="#E63114"/>
<path d="M10.9318 35.6201C10.3653 35.6201 9.90625 36.0793 9.90625 36.6456C9.90625 37.212 10.3653 37.6712 10.9318 37.6712H13.9548L13.3901 41.0868C13.2976 41.6455 13.6759 42.1734 14.2346 42.2659C14.2913 42.2753 14.3475 42.2798 14.403 42.2798C14.8958 42.2798 15.3305 41.9236 15.4137 41.4214L16.0336 37.6713H18.5077L17.9429 41.0869C17.8505 41.6456 18.2287 42.1736 18.7874 42.266C18.8442 42.2754 18.9004 42.28 18.9559 42.28C19.4487 42.28 19.8834 41.9238 19.9665 41.4215L20.5865 37.6715H24.7014C25.2679 37.6715 25.7269 37.2123 25.7269 36.6459C25.7269 36.0795 25.2679 35.6204 24.7014 35.6204H20.9256L21.3392 33.1186H24.7014C25.2679 33.1186 25.7269 32.6594 25.7269 32.0931C25.7269 31.5267 25.2679 31.0675 24.7014 31.0675H21.6783L22.2431 27.6519C22.3355 27.0932 21.9573 26.5653 21.3986 26.4728C20.8392 26.3801 20.3119 26.7586 20.2195 27.3173L19.5995 31.0674H17.1255L17.6902 27.6518C17.7827 27.0931 17.4044 26.5651 16.8457 26.4727C16.2856 26.38 15.7592 26.7585 15.6666 27.3172L15.0467 31.0673H10.9318C10.3653 31.0673 9.90625 31.5264 9.90625 32.0928C9.90625 32.6592 10.3653 33.1183 10.9318 33.1183H14.7076L14.2939 35.6201H10.9318ZM16.7865 33.1183H19.2605L18.8469 35.6201H16.3729L16.7865 33.1183Z" fill="#FFF9F9"/>
<path d="M35.9466 51.1671C35.1185 50.4853 34.0168 50.2164 32.9117 50.4851C31.4955 50.829 30.0664 52.1529 30.0664 54.3351C30.0664 55.6933 30.5621 56.8723 31.5817 57.9394C32.4146 58.8111 33.6165 59.64 35.4787 60.6272C35.6289 60.707 35.794 60.7467 35.959 60.7467C36.1241 60.7467 36.2891 60.707 36.4394 60.6272C39.688 58.905 41.8515 57.176 41.8515 54.3351C41.8515 52.141 40.3717 50.8306 38.905 50.5053C37.8032 50.2608 36.735 50.5203 35.9466 51.1671ZM39.8003 54.3351C39.8003 55.8674 38.7839 57.0005 35.9589 58.5557C33.1339 57.0004 32.1173 55.8672 32.1173 54.3351C32.1173 53.195 32.7775 52.6283 33.3954 52.4782C33.5093 52.4505 33.6313 52.435 33.7567 52.435C34.2215 52.435 34.7325 52.6496 35.0475 53.2605C35.2271 53.608 35.59 53.8235 35.9793 53.8155C36.3702 53.8077 36.7228 53.5782 36.8882 53.2238C37.22 52.5125 37.9179 52.3874 38.4605 52.5078C39.1084 52.6513 39.8003 53.2069 39.8003 54.3351Z" fill="#E63114"/>
</g>
<defs>
<clipPath id="clip0_257_3850">
<rect width="70" height="70" fill="white"/>
</clipPath>
</defs>
</svg>
