<svg width="70" height="70" viewBox="0 0 70 70" fill="none" xmlns="http://www.w3.org/2000/svg">
<g clip-path="url(#clip0_257_3882)">
<path d="M7.44385 4.75952C7.15961 4.64331 6.84105 4.64331 6.55695 4.75952C6.41422 4.81599 6.28365 4.89938 6.17236 5.00507C5.95922 5.2286 5.83836 5.52446 5.83398 5.83345C5.83576 5.91165 5.84369 5.98944 5.85736 6.06642C5.8698 6.13956 5.89332 6.21038 5.92682 6.27655C5.95252 6.35093 5.98793 6.42175 6.03223 6.48683C6.07543 6.54794 6.12219 6.60632 6.17236 6.66169C6.28379 6.7671 6.41436 6.85022 6.55695 6.90669C6.83941 7.03124 7.16139 7.03124 7.44385 6.90669C7.58522 6.84735 7.71537 6.7645 7.82898 6.66169C7.87561 6.60304 7.92236 6.54493 7.96857 6.48683C8.01287 6.42175 8.04828 6.35106 8.07398 6.27655C8.10748 6.21024 8.13113 6.13942 8.14398 6.06628C8.15738 5.98931 8.16518 5.91138 8.16736 5.83331C8.16285 5.52446 8.04199 5.22874 7.82898 5.00493C7.71551 4.90198 7.58522 4.81886 7.44385 4.75952Z" fill="white"/>
<path d="M12.4951 5.00508C12.3817 4.902 12.2514 4.81887 12.11 4.75954C11.6755 4.57661 11.1736 4.67354 10.8384 5.00508C10.7353 5.11829 10.6522 5.24844 10.5928 5.38967C10.5332 5.53008 10.5016 5.68088 10.5 5.83346C10.5019 5.91167 10.5097 5.98946 10.5234 6.06643C10.5358 6.13958 10.5593 6.2104 10.5928 6.27657C10.6184 6.35094 10.6539 6.42176 10.6982 6.48684C10.7414 6.54795 10.7882 6.60633 10.8384 6.6617C11.0621 6.87471 11.3579 6.99543 11.6668 7.00008C11.8192 6.99817 11.9697 6.96645 12.11 6.9067C12.2512 6.84737 12.3815 6.76452 12.4951 6.66184C12.708 6.43803 12.8287 6.14231 12.8335 5.83346C12.8317 5.68088 12.8 5.53008 12.7401 5.38967C12.6807 5.24858 12.5979 5.11856 12.4951 5.00508Z" fill="white"/>
<path d="M17.406 5.38956C17.3803 5.31532 17.3448 5.24491 17.3006 5.17997C17.2544 5.12132 17.2078 5.06322 17.161 5.00497C16.8229 4.67863 16.3242 4.58238 15.889 4.75943C15.7478 4.81876 15.6176 4.90175 15.5044 5.00497C15.2893 5.22741 15.1682 5.52396 15.166 5.83335C15.1677 5.98579 15.1992 6.13632 15.2588 6.27659C15.3182 6.41796 15.4012 6.54825 15.5044 6.66173C15.6179 6.76454 15.7479 6.84739 15.889 6.90673C16.0294 6.96661 16.1802 6.99833 16.3328 7.00011C16.4108 6.99792 16.4888 6.99013 16.5657 6.97673C16.6389 6.96374 16.7097 6.94009 16.7759 6.90659C16.8503 6.88089 16.9211 6.84548 16.9862 6.80118C17.0443 6.75497 17.1024 6.70835 17.161 6.66159C17.2638 6.54798 17.3467 6.41782 17.406 6.27646C17.4714 6.1381 17.5034 5.9862 17.4994 5.83321C17.4973 5.75488 17.4896 5.67681 17.476 5.5997C17.463 5.52669 17.4395 5.45587 17.406 5.38956Z" fill="white"/>
<path d="M32.666 4.6665H23.3326C22.6883 4.6665 22.166 5.18877 22.166 5.83313C22.166 6.47748 22.6883 6.99975 23.3326 6.99975H32.666C33.3104 6.99975 33.8326 6.47748 33.8326 5.83313C33.8326 5.18877 33.3104 4.6665 32.666 4.6665Z" fill="white"/>
<path d="M23.3328 29.1665H6.99939C5.71123 29.1677 4.66738 30.2117 4.66602 31.4999V50.1665C4.66725 51.4547 5.71123 52.4985 6.99939 52.4999H23.3328C24.6209 52.4987 25.6648 51.4547 25.6662 50.1665V31.4999C25.6648 30.2117 24.6208 29.1679 23.3328 29.1665ZM6.99939 50.1665V31.4999H23.3328L23.3344 50.1665H6.99939Z" fill="white"/>
<path d="M46.6666 29.1665H30.3334C29.0452 29.1677 28.0014 30.2117 28 31.4999V50.1665C28.0012 51.4547 29.0452 52.4985 30.3334 52.4999H46.6668C47.9549 52.4987 48.9988 51.4547 49.0001 50.1665V31.4999C48.9988 30.2117 47.9548 29.1679 46.6666 29.1665ZM30.3334 50.1665V31.4999H46.6668L46.6684 50.1665H30.3334Z" fill="#E63114"/>
<path d="M67.6666 29.1666H56V5.83338C55.9962 2.61324 53.3868 0.00382813 50.1666 0H5.83338C2.61324 0.00382813 0.00382813 2.61324 0 5.83338V64.1668C0.00382813 67.3868 2.61324 69.9962 5.83338 70H50.1668C53.3869 69.9962 55.9963 67.3868 56.0001 64.1666V57.1666H64.1668C64.8111 57.1666 65.3334 56.6444 65.3334 56C65.3334 55.3556 64.8111 54.8334 64.1668 54.8334H56V52.5H67.6666C68.9548 52.4988 69.9986 51.4548 70 50.1666V31.5C69.9988 30.2118 68.9548 29.168 67.6666 29.1666ZM2.33338 5.83338C2.33543 3.90127 3.90127 2.33543 5.83338 2.33338H50.1668C52.0989 2.33543 53.6647 3.90127 53.6668 5.83338V9.33338H2.33338V5.83338ZM53.6666 54.8334C53.0223 54.8334 52.5 55.3556 52.5 56C52.5 56.6444 53.0224 57.1666 53.6666 57.1666V64.1666C53.6646 66.0987 52.0987 67.6646 50.1666 67.6666H5.83338C3.90127 67.6646 2.33543 66.0987 2.33338 64.1666V11.6666H53.6668V29.1666C52.3786 29.1679 51.3347 30.2118 51.3334 31.5V50.1666C51.3346 51.4548 52.3786 52.4986 53.6668 52.5V54.8334H53.6666ZM53.6666 50.1666V31.5H67.6666L67.6683 50.1666H53.6666Z" fill="white"/>
<path d="M14.0006 54.8335H7.00061C6.35625 54.8335 5.83398 55.3558 5.83398 56.0001C5.83398 56.6445 6.35625 57.1667 7.00061 57.1667H14.0006C14.645 57.1667 15.1672 56.6445 15.1672 56.0001C15.1672 55.3558 14.645 54.8335 14.0006 54.8335Z" fill="white"/>
<path d="M23.3332 54.8335H18.6666C18.0223 54.8335 17.5 55.3558 17.5 56.0001C17.5 56.6445 18.0223 57.1667 18.6666 57.1667H23.3332C23.9776 57.1667 24.4999 56.6445 24.4999 56.0001C24.4999 55.3558 23.9776 54.8335 23.3332 54.8335Z" fill="white"/>
<path d="M38.4993 54.8335H30.3326C29.6883 54.8335 29.166 55.3558 29.166 56.0001C29.166 56.6445 29.6883 57.1667 30.3326 57.1667H38.4993C39.1436 57.1667 39.6659 56.6445 39.6659 56.0001C39.6659 55.3558 39.1436 54.8335 38.4993 54.8335Z" fill="white"/>
<path d="M46.6666 54.8335H43.1666C42.5223 54.8335 42 55.3558 42 56.0001C42 56.6445 42.5223 57.1667 43.1666 57.1667H46.6666C47.311 57.1667 47.8332 56.6445 47.8332 56.0001C47.8332 55.3558 47.311 54.8335 46.6666 54.8335Z" fill="white"/>
<path d="M69.9058 55.5561C69.8822 55.4845 69.8466 55.4175 69.8004 55.3579C69.7541 55.2877 69.7075 55.2296 69.6608 55.1715C69.6021 55.1249 69.544 55.0782 69.4739 55.0314C69.4144 54.9849 69.3474 54.9492 69.2756 54.926C69.2095 54.8924 69.1386 54.869 69.0655 54.8565C68.6814 54.7797 68.2841 54.8977 68.0041 55.1715C67.6261 55.5453 67.5471 56.1266 67.8118 56.5878C68.0765 57.0488 68.6183 57.2739 69.1317 57.1359C69.645 56.998 70.0012 56.5316 69.999 55.9999C69.997 55.9216 69.9892 55.8435 69.9756 55.7664C69.9628 55.6933 69.9393 55.6224 69.9058 55.5561Z" fill="white"/>
<path d="M26.8332 18.6665H15.1666C14.5223 18.6665 14 19.1888 14 19.8331C14 20.4775 14.5223 20.9997 15.1666 20.9997H26.8332C27.4776 20.9997 27.9999 20.4773 27.9999 19.8331C27.9999 19.1889 27.4775 18.6665 26.8332 18.6665Z" fill="white"/>
<path d="M17.5 25.6667C18.1444 25.6667 18.6666 25.1445 18.6666 24.5001C18.6666 23.8558 18.1444 23.3335 17.5 23.3335H15.1666C14.5223 23.3335 14 23.8558 14 24.5001C14 25.1445 14.5223 25.6667 15.1666 25.6667H17.5Z" fill="white"/>
<path d="M6.99939 25.6665H9.33277C10.6209 25.6653 11.6648 24.6213 11.6662 23.3331V20.9999C11.6649 19.7117 10.6209 18.6679 9.33277 18.6665H6.99939C5.71123 18.6677 4.66738 19.7117 4.66602 20.9999V23.3333C4.66738 24.6213 5.71123 25.6653 6.99939 25.6665ZM6.99939 20.9999H9.33277L9.33441 23.3333H6.99939V20.9999Z" fill="#E63114"/>
</g>
<defs>
<clipPath id="clip0_257_3882">
<rect width="70" height="70" fill="white"/>
</clipPath>
</defs>
</svg>
