<svg width="227" height="163" viewBox="0 0 227 163" fill="none" xmlns="http://www.w3.org/2000/svg">
<g clip-path="url(#clip0_23_5442)">
<path d="M7.94911 0H189.089C189.866 0 190.636 0.153173 191.353 0.450773C192.071 0.748373 192.723 1.18457 193.273 1.73447C193.822 2.28436 194.258 2.93718 194.555 3.65565C194.853 4.37412 195.006 5.14417 195.006 5.92184V137.592C195.006 139.025 194.437 140.398 193.425 141.411C192.414 142.424 191.041 142.993 189.61 142.993H7.67843C6.67009 142.993 5.67161 142.794 4.74002 142.408C3.80843 142.021 2.96197 141.455 2.24896 140.742C1.53595 140.028 0.970363 139.181 0.584486 138.248C0.198609 137.316 0 136.316 0 135.307L0 7.95647C0 5.84628 0.837493 3.82252 2.32824 2.3304C3.81899 0.838268 5.84087 0 7.94911 0V0Z" fill="#F0F5FF"/>
<path d="M188.809 0H7.87101C5.78349 0 3.78147 0.830032 2.30537 2.3075C0.829265 3.78497 0 5.78884 0 7.87829L0 25.9351C0 25.4906 0.176403 25.0643 0.490403 24.75C0.804403 24.4358 1.23028 24.2592 1.67434 24.2592H195.006V6.2024C195.006 5.38789 194.845 4.58136 194.534 3.82885C194.223 3.07634 193.766 2.39259 193.191 1.81664C192.615 1.2407 191.932 0.78383 191.18 0.47213C190.429 0.16043 189.623 0 188.809 0V0Z" fill="#E2EBFF"/>
<path d="M0.849474 135.657V8.91911C0.849474 6.97365 1.62159 5.10787 2.99597 3.73222C4.37034 2.35657 6.2344 1.58374 8.17806 1.58374H7.32859C5.38492 1.58374 3.52087 2.35657 2.14649 3.73222C0.772117 5.10787 0 6.97365 0 8.91911L0 135.657C0 137.603 0.772117 139.468 2.14649 140.844C3.52087 142.22 5.38492 142.993 7.32859 142.993H8.17806C6.2344 142.993 4.37034 142.22 2.99597 140.844C1.62159 139.468 0.849474 137.603 0.849474 135.657Z" fill="#C1D3FE"/>
<path d="M189.538 2.61985e-06H7.51209C6.43621 -0.000562432 5.37283 0.230906 4.39436 0.67865C3.41588 1.12639 2.54527 1.7799 1.8418 2.59469C3.2061 1.40609 4.95446 0.752507 6.76318 0.754957H188.79C190.24 0.754957 191.63 1.33136 192.655 2.35738C193.68 3.38339 194.256 4.77496 194.256 6.22596V138.275C194.258 139.543 193.819 140.771 193.014 141.749C193.639 141.237 194.142 140.591 194.487 139.86C194.832 139.129 195.011 138.33 195.01 137.522V5.47101C195.01 4.75205 194.869 4.04016 194.594 3.37603C194.318 2.7119 193.915 2.10855 193.407 1.60046C192.899 1.09238 192.296 0.689515 191.632 0.4149C190.968 0.140284 190.256 -0.000700881 189.538 2.61985e-06Z" fill="white"/>
<path d="M189.539 0H7.5126C5.52014 0 3.60928 0.792237 2.20039 2.20243C0.791504 3.61262 0 5.52525 0 7.51956L0 13.2026H195.006V5.47101C195.005 4.01991 194.429 2.62834 193.404 1.60236C192.379 0.576374 190.988 -2.7786e-08 189.539 0V0Z" fill="#6622CF"/>
<path style="mix-blend-mode:multiply" d="M10.5077 9.92678C11.9045 9.92678 13.0368 8.79339 13.0368 7.39528C13.0368 5.99716 11.9045 4.86377 10.5077 4.86377C9.11086 4.86377 7.97852 5.99716 7.97852 7.39528C7.97852 8.79339 9.11086 9.92678 10.5077 9.92678Z" fill="url(#paint0_radial_23_5442)"/>
<path d="M12.064 7.38268C12.3436 6.35128 11.7349 5.28831 10.7044 5.00847C9.67397 4.72863 8.61198 5.33789 8.3324 6.3693C8.05282 7.4007 8.66152 8.46367 9.69197 8.74351C10.7224 9.02335 11.7844 8.41409 12.064 7.38268Z" fill="#FF74D4"/>
<path d="M11.8919 5.94434C12.0967 6.39942 12.1179 6.91612 11.9511 7.38648C11.7842 7.85684 11.4422 8.24448 10.9966 8.46841C10.5509 8.69234 10.0361 8.73525 9.55954 8.58817C9.08302 8.44109 8.68171 8.11539 8.43945 7.67912C8.54653 7.91706 8.70058 8.13086 8.89234 8.30766C9.08411 8.48446 9.30962 8.62061 9.55531 8.70792C9.801 8.79524 10.0618 8.8319 10.322 8.81572C10.5822 8.79954 10.8365 8.73084 11.0695 8.61376C11.3025 8.49668 11.5094 8.33364 11.6779 8.13444C11.8463 7.93524 11.9727 7.704 12.0495 7.45463C12.1264 7.20525 12.152 6.9429 12.1249 6.68336C12.0978 6.42381 12.0186 6.17243 11.8919 5.94434Z" fill="#BF579F"/>
<path style="mix-blend-mode:multiply" d="M19.3202 9.92678C20.717 9.92678 21.8493 8.79339 21.8493 7.39528C21.8493 5.99716 20.717 4.86377 19.3202 4.86377C17.9234 4.86377 16.791 5.99716 16.791 7.39528C16.791 8.79339 17.9234 9.92678 19.3202 9.92678Z" fill="url(#paint1_radial_23_5442)"/>
<path d="M20.8765 7.38317C21.1561 6.35177 20.5474 5.2888 19.5169 5.00896C18.4865 4.72912 17.4245 5.33838 17.1449 6.36978C16.8653 7.40119 17.474 8.46416 18.5045 8.744C19.5349 9.02384 20.5969 8.41457 20.8765 7.38317Z" fill="#F9DC5C"/>
<path d="M20.7044 5.94434C20.9092 6.39942 20.9304 6.91612 20.7636 7.38648C20.5967 7.85684 20.2547 8.24448 19.8091 8.46841C19.3634 8.69234 18.8486 8.73525 18.372 8.58817C17.8955 8.44109 17.4942 8.11539 17.252 7.67912C17.359 7.91706 17.5131 8.13086 17.7048 8.30766C17.8966 8.48446 18.1221 8.62061 18.3678 8.70792C18.6135 8.79524 18.8743 8.8319 19.1345 8.81572C19.3947 8.79954 19.649 8.73084 19.882 8.61376C20.115 8.49668 20.3219 8.33364 20.4904 8.13444C20.6588 7.93524 20.7852 7.704 20.862 7.45463C20.9389 7.20525 20.9645 6.9429 20.9374 6.68336C20.9103 6.42381 20.8311 6.17243 20.7044 5.94434Z" fill="#BBA545"/>
<path style="mix-blend-mode:multiply" d="M28.1346 9.92678C29.5315 9.92678 30.6638 8.79339 30.6638 7.39528C30.6638 5.99716 29.5315 4.86377 28.1346 4.86377C26.7378 4.86377 25.6055 5.99716 25.6055 7.39528C25.6055 8.79339 26.7378 9.92678 28.1346 9.92678Z" fill="url(#paint2_radial_23_5442)"/>
<path d="M29.6909 7.38342C29.9705 6.35201 29.3618 5.28904 28.3314 5.0092C27.3009 4.72936 26.2389 5.33862 25.9594 6.37003C25.6798 7.40143 26.2885 8.4644 27.3189 8.74424C28.3494 9.02408 29.4114 8.41482 29.6909 7.38342Z" fill="#80ED99"/>
<path d="M29.518 5.94434C29.7265 6.40007 29.7502 6.91902 29.5841 7.3919C29.418 7.86477 29.075 8.25468 28.6274 8.47952C28.1798 8.70435 27.6626 8.74656 27.1845 8.59727C26.7064 8.44798 26.3049 8.11882 26.0645 7.67912C26.1726 7.91544 26.3272 8.12754 26.519 8.30274C26.7108 8.47795 26.9359 8.61268 27.1809 8.6989C27.4259 8.78511 27.6857 8.82104 27.9449 8.80455C28.204 8.78805 28.4572 8.71946 28.6893 8.60287C28.9214 8.48629 29.1276 8.32409 29.2957 8.12597C29.4638 7.92785 29.5903 7.69787 29.6677 7.44974C29.745 7.20161 29.7716 6.94044 29.7459 6.68179C29.7202 6.42315 29.6427 6.17234 29.518 5.94434Z" fill="#60B273"/>
<path d="M0.855893 7.41676C0.855893 6.44241 1.0477 5.47762 1.42035 4.5775C1.793 3.67738 2.33919 2.85957 3.02771 2.1708C3.71624 1.48204 4.53361 0.935813 5.43311 0.563338C6.33261 0.190863 7.29663 -0.000561479 8.27007 1.23703e-06H7.5126C5.52014 1.23703e-06 3.60928 0.792238 2.20039 2.20243C0.791504 3.61262 0 5.52525 0 7.51956L0 13.2026H0.855893V7.41676Z" fill="#292F3D"/>
<path d="M192.595 0.93496C192.451 0.83612 192.301 0.744624 192.148 0.66082C192.07 0.617986 191.992 0.578364 191.911 0.539814C191.172 0.184863 190.362 0.00182557 189.542 0.00438507H7.51246C7.38194 0.000101641 7.24179 0.000101641 7.10698 0.0108102L6.9786 0.0215188C6.88766 0.0279439 6.79672 0.0343691 6.70578 0.0440068L6.55921 0.0622113C6.47576 0.0729199 6.39231 0.0836285 6.30993 0.0975496L6.16229 0.12325C6.08098 0.138242 5.99967 0.154305 5.91943 0.171439C5.87129 0.181076 5.82421 0.192856 5.77607 0.204635C5.69476 0.223911 5.61345 0.244257 5.53321 0.265674L5.40055 0.303154C5.31603 0.327784 5.23258 0.354555 5.1502 0.381327L5.02823 0.420948C4.9405 0.452003 4.85277 0.4852 4.76612 0.519467L4.66983 0.556947C4.57354 0.596569 4.47832 0.638332 4.38417 0.681167L4.32105 0.71008C4.20764 0.763623 4.09531 0.817166 3.98511 0.878204C3.17058 1.31288 2.44276 1.89365 1.83789 2.59158C3.20219 1.40297 4.95055 0.749394 6.75928 0.751843H188.786C190.236 0.751843 191.626 1.32825 192.651 2.35426C193.676 3.38028 194.252 4.77185 194.252 6.22285V13.1995H195.001V5.47111C195.003 4.5755 194.784 3.69331 194.364 2.90227C193.945 2.11124 193.337 1.43562 192.595 0.93496Z" fill="#5F6574"/>
<path d="M13.0384 17.5674H7.87305V18.2624H13.0384V17.5674Z" fill="#878C97"/>
<path d="M13.0384 19.3708H7.87305V20.0658H13.0384V19.3708Z" fill="#878C97"/>
<path d="M13.0384 21.1741H7.87305V21.8691H13.0384V21.1741Z" fill="#878C97"/>
<path d="M16.3542 94.6038H63.0807C64.2174 94.6038 65.3075 95.0557 66.1112 95.8602C66.915 96.6647 67.3665 97.7559 67.3665 98.8936V142.932H12.0684V98.8936C12.0684 97.7559 12.5199 96.6647 13.3237 95.8602C14.1274 95.0557 15.2176 94.6038 16.3542 94.6038Z" fill="#E9F0FF"/>
<path d="M62.8287 94.6038H16.6105C16.0911 94.6033 15.5754 94.6921 15.0859 94.8661C15.4064 94.7956 15.7335 94.7597 16.0617 94.759H62.2799C63.4838 94.759 64.6384 95.2377 65.4898 96.0898C66.3411 96.9419 66.8193 98.0976 66.8193 99.3027V142.932H67.3671V99.1474C67.3671 97.9425 66.889 96.787 66.0379 95.9349C65.1868 95.0829 64.0325 94.604 62.8287 94.6038Z" fill="white"/>
<path d="M12.694 99.4269C12.694 98.3553 13.1193 97.3277 13.8763 96.5699C14.6334 95.8122 15.6601 95.3866 16.7307 95.3866H63.9567C64.7188 95.3856 65.4654 95.6018 66.1093 96.0098C65.6863 95.5648 65.1772 95.2107 64.6131 94.969C64.049 94.7272 63.4416 94.603 62.828 94.6038H16.6098C15.4058 94.6038 14.2512 95.0825 13.3999 95.9346C12.5486 96.7867 12.0703 97.9424 12.0703 99.1474V142.933H12.6951L12.694 99.4269Z" fill="#C1D3FE"/>
<path d="M83.2366 94.6038H129.937C130.502 94.6038 131.061 94.7151 131.582 94.9313C132.104 95.1475 132.578 95.4644 132.977 95.864C133.376 96.2635 133.693 96.7379 133.909 97.2599C134.125 97.7819 134.236 98.3414 134.236 98.9065V142.933H78.9336V98.9065C78.9336 98.3411 79.0449 97.7812 79.2612 97.2589C79.4775 96.7366 79.7945 96.2621 80.1942 95.8625C80.5938 95.4629 81.0682 95.146 81.5902 94.9301C82.1123 94.7141 82.6717 94.6032 83.2366 94.6038Z" fill="#E9F0FF"/>
<path d="M129.692 94.6038H83.4736C82.9549 94.6036 82.44 94.6923 81.9512 94.8661C82.2716 94.7956 82.5988 94.7597 82.9269 94.759H129.145C130.349 94.759 131.504 95.2377 132.355 96.0898C133.206 96.9419 133.685 98.0976 133.685 99.3027V142.932H134.232V99.1474C134.232 98.5506 134.115 97.9597 133.887 97.4084C133.658 96.857 133.324 96.3561 132.902 95.9342C132.481 95.5123 131.98 95.1776 131.429 94.9493C130.878 94.721 130.288 94.6036 129.692 94.6038Z" fill="white"/>
<path d="M79.5584 99.4269C79.5584 98.3553 79.9837 97.3277 80.7407 96.5699C81.4977 95.8122 82.5244 95.3866 83.595 95.3866H130.821C131.583 95.3856 132.33 95.6018 132.974 96.0098C132.551 95.5649 132.042 95.2108 131.477 94.969C130.913 94.7273 130.306 94.603 129.692 94.6038H83.4741C82.2701 94.6038 81.1153 95.0824 80.2639 95.9345C79.4124 96.7866 78.9339 97.9423 78.9336 99.1474V142.933H79.5595L79.5584 99.4269Z" fill="#C1D3FE"/>
<path d="M127.797 34.8726H18.5025C14.949 34.8726 12.0684 37.7559 12.0684 41.3127V76.666C12.0684 80.2228 14.949 83.1061 18.5025 83.1061H127.797C131.35 83.1061 134.231 80.2228 134.231 76.666V41.3127C134.231 37.7559 131.35 34.8726 127.797 34.8726Z" fill="#E9F0FF"/>
<path d="M132.616 37.2861C133.214 38.2815 133.528 39.4211 133.527 40.5822V75.9837C133.527 77.6852 132.851 79.317 131.649 80.5201C130.447 81.7233 128.817 82.3992 127.117 82.3992H17.7767C16.616 82.4028 15.4762 82.0892 14.4805 81.4922C15.7096 82.5379 17.2708 83.1112 18.884 83.1092H127.421C128.316 83.1092 129.202 82.9327 130.029 82.5899C130.856 82.2471 131.607 81.7447 132.24 81.1112C132.873 80.4778 133.375 79.7258 133.717 78.8982C134.06 78.0706 134.236 77.1836 134.236 76.2878V41.6991C134.238 40.082 133.664 38.5172 132.616 37.2861Z" fill="white"/>
<path d="M12.7734 77.4027V41.9863C12.7734 40.2868 13.4479 38.6569 14.6485 37.4551C15.8492 36.2534 17.4775 35.5783 19.1755 35.5783H128.534C129.687 35.5765 130.818 35.8877 131.808 36.4788C130.581 35.4411 129.027 34.872 127.421 34.8726H18.8834C17.9885 34.8724 17.1023 35.0487 16.2755 35.3914C15.4487 35.7341 14.6974 36.2365 14.0645 36.8698C13.4317 37.5031 12.9296 38.255 12.5871 39.0826C12.2446 39.9101 12.0684 40.7971 12.0684 41.6928V76.2815C12.0674 77.889 12.636 79.4447 13.6732 80.672C13.0838 79.6836 12.7729 78.5538 12.7734 77.4027Z" fill="#C1D3FE"/>
<path d="M118.145 39.4836H82.6433C78.6129 39.4836 75.3457 42.7539 75.3457 46.788V70.1241C75.3457 74.1581 78.6129 77.4284 82.6433 77.4284H118.145C122.175 77.4284 125.442 74.1581 125.442 70.1241V46.788C125.442 42.7539 122.175 39.4836 118.145 39.4836Z" fill="#BCD0FF"/>
<path d="M123.696 42.1587C124.465 43.3148 124.874 44.6731 124.872 46.062V69.896C124.872 70.8225 124.69 71.7399 124.336 72.5958C123.982 73.4517 123.462 74.2294 122.808 74.8845C122.153 75.5396 121.376 76.0593 120.521 76.4138C119.666 76.7684 118.75 76.9508 117.824 76.9508H81.8241C80.8159 76.9517 79.8194 76.7352 78.9023 76.3158C80.0806 77.0429 81.4382 77.4264 82.8223 77.4231H117.967C118.949 77.4231 119.921 77.2295 120.828 76.8535C121.736 76.4774 122.56 75.9262 123.254 75.2313C123.948 74.5364 124.499 73.7115 124.875 72.8036C125.25 71.8957 125.444 70.9226 125.444 69.9399V46.9658C125.446 45.2072 124.827 43.5044 123.696 42.1587Z" fill="#ABC4FF"/>
<path d="M112.692 51.7555C115.051 51.7555 116.964 49.8411 116.964 47.4795C116.964 45.118 115.051 43.2036 112.692 43.2036C110.333 43.2036 108.42 45.118 108.42 47.4795C108.42 49.8411 110.333 51.7555 112.692 51.7555Z" fill="#DDE7FF"/>
<path d="M119.539 72.2828L109.033 55.177C108.965 55.0362 108.858 54.9175 108.726 54.8345C108.594 54.7515 108.44 54.7074 108.284 54.7074C108.128 54.7074 107.975 54.7515 107.842 54.8345C107.71 54.9175 107.603 55.0362 107.535 55.177L103.167 62.2971L95.9047 50.4727C95.8185 50.2969 95.6848 50.1488 95.5188 50.0452C95.3528 49.9416 95.161 49.8867 94.9654 49.8867C94.7697 49.8867 94.578 49.9416 94.412 50.0452C94.2459 50.1488 94.1122 50.2969 94.026 50.4727L80.8185 71.9776C80.74 72.1373 80.7034 72.3145 80.7122 72.4923C80.7211 72.6701 80.775 72.8427 80.8691 72.9938C80.9631 73.145 81.094 73.2696 81.2496 73.356C81.4051 73.4424 81.58 73.4876 81.7579 73.4875H118.791C118.933 73.4877 119.073 73.4516 119.197 73.3827C119.321 73.3138 119.425 73.2142 119.5 73.0936C119.575 72.9729 119.618 72.8351 119.625 72.6932C119.632 72.5514 119.602 72.4101 119.539 72.2828Z" fill="#DDE7FF"/>
<path d="M95.5261 50.2822L103.037 62.5114L103.168 62.2972L95.9059 50.4728C95.8412 50.338 95.748 50.2189 95.6327 50.1239C95.5174 50.0288 95.3828 49.9601 95.2383 49.9224C95.3597 50.0195 95.458 50.1424 95.5261 50.2822Z" fill="#B4C0F8"/>
<path d="M119.54 72.2829L109.034 55.177C108.979 55.0631 108.898 54.9635 108.798 54.886C108.699 54.8086 108.582 54.7553 108.458 54.7305C108.539 54.8022 108.605 54.8892 108.653 54.9864L119.159 72.0923C119.607 72.8258 119.257 73.343 118.41 73.2938H81.3777C81.2878 73.294 81.1983 73.2825 81.1113 73.2595C81.295 73.4064 81.5235 73.4858 81.7586 73.4844H118.792C118.934 73.4843 119.073 73.4482 119.196 73.3794C119.32 73.3106 119.424 73.2115 119.499 73.0913C119.574 72.9711 119.617 72.8338 119.624 72.6924C119.631 72.551 119.602 72.41 119.54 72.2829Z" fill="#B4C0F8"/>
<path d="M54.8847 99.3691H23.4467C20.1603 99.3691 17.4961 102.036 17.4961 105.325V113.751C17.4961 117.04 20.1603 119.707 23.4467 119.707H54.8847C58.1712 119.707 60.8353 117.04 60.8353 113.751V105.325C60.8353 102.036 58.1712 99.3691 54.8847 99.3691Z" fill="#BCD0FF"/>
<path d="M59.3248 101.683C59.9899 102.684 60.3436 103.859 60.3412 105.061V113.19C60.3412 114.809 59.6987 116.361 58.555 117.506C57.4114 118.651 55.8603 119.294 54.2429 119.294H23.1012C22.2292 119.295 21.3673 119.107 20.5742 118.744C21.593 119.375 22.7676 119.709 23.9657 119.708H54.3692C55.2185 119.708 56.0595 119.541 56.8441 119.215C57.6288 118.89 58.3417 118.413 58.9423 117.812C59.5428 117.211 60.0192 116.497 60.3442 115.712C60.6692 114.927 60.8365 114.085 60.8365 113.235V105.846C60.8395 104.323 60.304 102.849 59.3248 101.683Z" fill="#ABC4FF"/>
<path d="M28.3319 125.941H16.5869C16.1538 125.941 15.8027 126.293 15.8027 126.726V126.822C15.8027 127.255 16.1538 127.607 16.5869 127.607H28.3319C28.765 127.607 29.1162 127.255 29.1162 126.822V126.726C29.1162 126.293 28.765 125.941 28.3319 125.941Z" fill="#CCDBFD"/>
<path d="M28.8121 126.174C28.8826 126.289 28.9197 126.422 28.919 126.557C28.919 127.017 28.4772 127.389 27.9305 127.389H16.5899C16.3422 127.392 16.1009 127.31 15.9062 127.157C16.0026 127.3 16.1335 127.416 16.2867 127.494C16.4398 127.573 16.6104 127.612 16.7825 127.607H28.1231C28.6687 127.607 29.1105 127.234 29.1105 126.774C29.109 126.658 29.0813 126.543 29.0297 126.44C28.978 126.336 28.9036 126.245 28.8121 126.174Z" fill="#ABC4FF"/>
<path d="M62.6736 130.814H16.5869C16.1538 130.814 15.8027 131.165 15.8027 131.599V131.694C15.8027 132.127 16.1538 132.479 16.5869 132.479H62.6736C63.1067 132.479 63.4578 132.127 63.4578 131.694V131.599C63.4578 131.165 63.1067 130.814 62.6736 130.814Z" fill="#CCDBFD"/>
<path d="M63.1015 131.007C63.1729 131.076 63.2298 131.16 63.269 131.251C63.3081 131.343 63.3286 131.442 63.3294 131.542C63.3294 132.001 62.8875 132.374 62.3419 132.374H16.6586C16.4335 132.376 16.2132 132.309 16.0273 132.182C16.231 132.379 16.5041 132.487 16.7869 132.482H62.4703C63.0159 132.482 63.4588 132.11 63.4588 131.65C63.4562 131.522 63.4222 131.396 63.36 131.284C63.2977 131.172 63.2089 131.077 63.1015 131.007Z" fill="#ABC4FF"/>
<path d="M121.918 99.3691H90.4799C87.1935 99.3691 84.5293 102.036 84.5293 105.325V113.751C84.5293 117.04 87.1935 119.707 90.4799 119.707H121.918C125.204 119.707 127.869 117.04 127.869 113.751V105.325C127.869 102.036 125.204 99.3691 121.918 99.3691Z" fill="#BCD0FF"/>
<path d="M126.356 101.683C127.022 102.684 127.376 103.859 127.375 105.061V113.19C127.375 114.809 126.732 116.361 125.588 117.506C124.445 118.651 122.894 119.294 121.276 119.294H90.1336C89.2612 119.295 88.3989 119.107 87.6055 118.744C88.6243 119.375 89.7989 119.709 90.9969 119.708H121.401C123.117 119.708 124.761 119.026 125.974 117.812C127.187 116.598 127.869 114.951 127.869 113.235V105.846C127.871 104.323 127.336 102.848 126.356 101.683Z" fill="#ABC4FF"/>
<path d="M181.759 35.5193H147.497C144.211 35.5193 141.547 38.1859 141.547 41.4754V56.9022C141.547 60.1916 144.211 62.8583 147.497 62.8583H181.759C185.045 62.8583 187.709 60.1916 187.709 56.9022V41.4754C187.709 38.1859 185.045 35.5193 181.759 35.5193Z" fill="#BCD0FF"/>
<path d="M186.098 37.9844C186.807 39.0497 187.184 40.3014 187.183 41.5814V55.9191C187.183 57.6433 186.498 59.2969 185.28 60.5161C184.062 61.7353 182.41 62.4203 180.687 62.4203H147.515C146.586 62.4208 145.667 62.221 144.822 61.8345C145.908 62.5056 147.159 62.8602 148.435 62.8582H180.82C181.725 62.8582 182.621 62.6799 183.456 62.3334C184.292 61.9869 185.052 61.479 185.691 60.8387C186.331 60.1984 186.838 59.4383 187.185 58.6017C187.531 57.7651 187.709 56.8685 187.709 55.963V42.4145C187.711 40.7938 187.14 39.2246 186.098 37.9844Z" fill="#ABC4FF"/>
<path d="M181.759 68.8818H147.497C144.211 68.8818 141.547 71.5485 141.547 74.8379V90.2647C141.547 93.5542 144.211 96.2208 147.497 96.2208H181.759C185.045 96.2208 187.709 93.5542 187.709 90.2647V74.8379C187.709 71.5485 185.045 68.8818 181.759 68.8818Z" fill="#BCD0FF"/>
<path d="M186.098 71.3469C186.807 72.4122 187.184 73.6639 187.183 74.9439V89.2806C187.183 91.0048 186.498 92.6584 185.28 93.8776C184.062 95.0968 182.41 95.7817 180.687 95.7817H147.515C146.586 95.7827 145.668 95.5832 144.822 95.197C145.908 95.8682 147.159 96.2227 148.435 96.2208H180.82C181.725 96.2208 182.621 96.0424 183.456 95.6959C184.292 95.3494 185.052 94.8415 185.691 94.2012C186.331 93.5609 186.838 92.8008 187.185 91.9642C187.531 91.1277 187.709 90.231 187.709 89.3255V75.7771C187.711 74.1563 187.14 72.5871 186.098 71.3469Z" fill="#ABC4FF"/>
<path d="M181.759 102.243H147.497C144.211 102.243 141.547 104.91 141.547 108.2V123.626C141.547 126.916 144.211 129.582 147.497 129.582H181.759C185.045 129.582 187.709 126.916 187.709 123.626V108.2C187.709 104.91 185.045 102.243 181.759 102.243Z" fill="#BCD0FF"/>
<path d="M186.098 104.709C186.807 105.775 187.184 107.026 187.183 108.306V122.643C187.183 124.367 186.498 126.021 185.28 127.24C184.062 128.459 182.41 129.144 180.687 129.144H147.515C146.586 129.145 145.667 128.945 144.822 128.559C145.908 129.23 147.159 129.585 148.435 129.583H180.82C181.725 129.583 182.621 129.405 183.456 129.058C184.292 128.712 185.052 128.204 185.691 127.564C186.331 126.923 186.838 126.163 187.185 125.327C187.531 124.49 187.709 123.594 187.709 122.688V109.139C187.711 107.518 187.14 105.949 186.098 104.709Z" fill="#ABC4FF"/>
<path d="M95.3651 125.941H83.6201C83.187 125.941 82.8359 126.293 82.8359 126.726V126.822C82.8359 127.255 83.187 127.607 83.6201 127.607H95.3651C95.7983 127.607 96.1494 127.255 96.1494 126.822V126.726C96.1494 126.293 95.7983 125.941 95.3651 125.941Z" fill="#CCDBFD"/>
<path d="M95.8453 126.174C95.9158 126.289 95.9528 126.422 95.9522 126.557C95.9522 127.017 95.5093 127.389 94.9637 127.389H83.6231C83.3754 127.392 83.1341 127.31 82.9395 127.157C83.036 127.3 83.1668 127.416 83.32 127.494C83.4731 127.573 83.6436 127.611 83.8157 127.607H95.1563C95.7019 127.607 96.1448 127.234 96.1448 126.774C96.1431 126.657 96.1152 126.543 96.0634 126.439C96.0115 126.336 95.937 126.245 95.8453 126.174Z" fill="#ABC4FF"/>
<path d="M129.707 130.814H83.6201C83.187 130.814 82.8359 131.165 82.8359 131.599V131.694C82.8359 132.127 83.187 132.479 83.6201 132.479H129.707C130.14 132.479 130.491 132.127 130.491 131.694V131.599C130.491 131.165 130.14 130.814 129.707 130.814Z" fill="#CCDBFD"/>
<path d="M130.135 131.007C130.207 131.076 130.264 131.159 130.303 131.251C130.343 131.343 130.363 131.442 130.364 131.542C130.364 132.001 129.921 132.374 129.375 132.374H83.6918C83.4667 132.376 83.2465 132.309 83.0605 132.182C83.2642 132.379 83.5373 132.487 83.8202 132.482H129.503C130.049 132.482 130.492 132.11 130.492 131.65C130.489 131.522 130.455 131.396 130.393 131.284C130.331 131.172 130.242 131.077 130.135 131.007Z" fill="#ABC4FF"/>
<path d="M170.044 44.6077H161.997C161.409 44.6077 160.932 45.0852 160.932 45.6742V45.8017C160.932 46.3907 161.409 46.8682 161.997 46.8682H170.044C170.632 46.8682 171.109 46.3907 171.109 45.8017V45.6742C171.109 45.0852 170.632 44.6077 170.044 44.6077Z" fill="#FF74D4"/>
<path d="M170.762 44.9236C170.846 45.0841 170.89 45.2627 170.89 45.444C170.89 45.7439 170.771 46.0316 170.559 46.2436C170.348 46.4557 170.06 46.5748 169.761 46.5748H161.844C161.552 46.575 161.272 46.4617 161.062 46.2589C161.158 46.4425 161.301 46.5964 161.478 46.7039C161.655 46.8113 161.857 46.8682 162.064 46.8683H169.981C170.129 46.8684 170.276 46.8393 170.413 46.7826C170.55 46.7259 170.675 46.6427 170.78 46.5377C170.885 46.4328 170.968 46.3082 171.025 46.1711C171.081 46.034 171.111 45.887 171.111 45.7385C171.111 45.5861 171.08 45.4352 171.02 45.2951C170.96 45.155 170.872 45.0286 170.762 44.9236Z" fill="#FF36AB"/>
<path d="M183.935 49.9319H161.997C161.409 49.9319 160.932 50.4094 160.932 50.9985V51.1259C160.932 51.7149 161.409 52.1925 161.997 52.1925H183.935C184.523 52.1925 185 51.7149 185 51.1259V50.9985C185 50.4094 184.523 49.9319 183.935 49.9319Z" fill="#ABC4FF"/>
<path d="M184.593 50.1931C184.762 50.396 184.855 50.6518 184.855 50.9159C184.854 51.2154 184.735 51.5024 184.523 51.7138C184.311 51.9252 184.024 52.0438 183.725 52.0436H161.916C161.652 52.0443 161.396 51.9518 161.193 51.7823C161.299 51.91 161.432 52.0129 161.582 52.0834C161.732 52.1539 161.896 52.1904 162.062 52.1903H183.872C184.172 52.1903 184.459 52.0712 184.671 51.8594C184.882 51.6475 185.001 51.3601 185.001 51.0605C185.001 50.8948 184.964 50.7312 184.894 50.5813C184.824 50.4314 184.721 50.2988 184.593 50.1931Z" fill="#738FD1"/>
<path style="mix-blend-mode:multiply" d="M150.812 58.3381C155.31 58.3381 158.956 54.6886 158.956 50.1868C158.956 45.6849 155.31 42.0354 150.812 42.0354C146.314 42.0354 142.668 45.6849 142.668 50.1868C142.668 54.6886 146.314 58.3381 150.812 58.3381Z" fill="url(#paint3_radial_23_5442)"/>
<path d="M155.781 53.2512C158.344 50.6856 158.344 46.5259 155.781 43.9602C153.218 41.3946 149.062 41.3946 146.499 43.9602C143.935 46.5259 143.935 50.6856 146.499 53.2512C149.062 55.8168 153.218 55.8168 155.781 53.2512Z" fill="#ABC4FF"/>
<path d="M151.139 42.0354C149.46 42.0335 147.844 42.6781 146.627 43.8355C147.915 42.6901 149.602 42.0976 151.322 42.1861C153.043 42.2746 154.66 43.0369 155.824 44.3085C156.988 45.58 157.606 47.2588 157.544 48.9823C157.482 50.7058 156.745 52.3358 155.493 53.5203C156.49 52.6362 157.194 51.4695 157.513 50.1751C157.831 48.8807 157.749 47.5199 157.276 46.2735C156.804 45.0271 155.964 43.9542 154.867 43.1972C153.771 42.4402 152.47 42.035 151.139 42.0354Z" fill="#CDDCFF"/>
<path d="M151.374 54.9404C150.09 54.9411 148.834 54.5645 147.762 53.8575C146.689 53.1504 145.847 52.1439 145.341 50.9626C144.835 49.7814 144.686 48.4774 144.913 47.2122C145.14 45.947 145.732 44.7763 146.618 43.8452C145.981 44.4486 145.471 45.1737 145.119 45.9777C144.767 46.7816 144.579 47.648 144.567 48.5257C144.555 49.4035 144.719 50.2747 145.049 51.088C145.379 51.9013 145.869 52.6401 146.489 53.2607C147.109 53.8814 147.847 54.3714 148.66 54.7017C149.472 55.032 150.343 55.1959 151.22 55.1838C152.097 55.1716 152.962 54.9837 153.765 54.631C154.568 54.2784 155.293 53.7682 155.896 53.1306C154.678 54.294 153.058 54.9422 151.374 54.9404Z" fill="#8093BF"/>
<path d="M151.026 48.499C152.127 48.499 153.02 47.6058 153.02 46.504C153.02 45.4022 152.127 44.509 151.026 44.509C149.926 44.509 149.033 45.4022 149.033 46.504C149.033 47.6058 149.926 48.499 151.026 48.499Z" fill="#8093BF"/>
<path d="M154.06 52.0211C152.105 52.7536 149.951 52.7536 147.996 52.0211C147.996 51.2163 148.316 50.4443 148.884 49.8752C149.453 49.3061 150.224 48.9863 151.028 48.9863C151.832 48.9863 152.603 49.3061 153.172 49.8752C153.741 50.4443 154.06 51.2163 154.06 52.0211Z" fill="#8093BF"/>
<path d="M151.14 48.272C152.24 48.272 153.133 47.3788 153.133 46.277C153.133 45.1752 152.24 44.282 151.14 44.282C150.039 44.282 149.146 45.1752 149.146 46.277C149.146 47.3788 150.039 48.272 151.14 48.272Z" fill="white"/>
<path d="M154.168 51.7941C152.212 52.5265 150.059 52.5265 148.104 51.7941C148.104 50.9892 148.423 50.2173 148.992 49.6482C149.56 49.079 150.331 48.7593 151.136 48.7593C151.94 48.7593 152.711 49.079 153.279 49.6482C153.848 50.2173 154.168 50.9892 154.168 51.7941Z" fill="white"/>
<path d="M170.044 77.5312H161.997C161.409 77.5312 160.932 78.0088 160.932 78.5978V78.7253C160.932 79.3143 161.409 79.7918 161.997 79.7918H170.044C170.632 79.7918 171.109 79.3143 171.109 78.7253V78.5978C171.109 78.0088 170.632 77.5312 170.044 77.5312Z" fill="#FFC107"/>
<path d="M170.762 77.8513C170.846 78.0122 170.89 78.1912 170.89 78.3728C170.89 78.5213 170.861 78.6683 170.804 78.8054C170.747 78.9425 170.664 79.0671 170.559 79.1721C170.454 79.277 170.33 79.3602 170.193 79.4169C170.056 79.4736 169.909 79.5027 169.761 79.5026H161.844C161.552 79.5032 161.272 79.3903 161.062 79.1877C161.158 79.3713 161.301 79.5252 161.478 79.6327C161.655 79.7401 161.857 79.797 162.064 79.7971H169.981C170.281 79.7971 170.568 79.6779 170.78 79.4659C170.992 79.2538 171.111 78.9662 171.111 78.6662C171.111 78.5138 171.08 78.363 171.02 78.2229C170.96 78.0828 170.872 77.9564 170.762 77.8513Z" fill="#FF9800"/>
<path d="M183.935 82.8555H161.997C161.409 82.8555 160.932 83.333 160.932 83.922V84.0495C160.932 84.6385 161.409 85.1161 161.997 85.1161H183.935C184.523 85.1161 185 84.6385 185 84.0495V83.922C185 83.333 184.523 82.8555 183.935 82.8555Z" fill="#ABC4FF"/>
<path d="M184.593 83.1167C184.762 83.3193 184.855 83.5747 184.855 83.8385C184.855 84.1384 184.735 84.426 184.524 84.6381C184.312 84.8501 184.024 84.9693 183.725 84.9693H161.916C161.652 84.9695 161.396 84.8771 161.193 84.708C161.299 84.8358 161.432 84.9386 161.582 85.0091C161.732 85.0796 161.896 85.1161 162.062 85.116H183.872C184.021 85.116 184.168 85.0867 184.305 85.0299C184.442 84.973 184.566 84.8897 184.671 84.7847C184.776 84.6797 184.859 84.555 184.915 84.4178C184.972 84.2806 185.001 84.1336 185.001 83.9852C185.001 83.8193 184.965 83.6554 184.894 83.5053C184.824 83.3551 184.721 83.2224 184.593 83.1167Z" fill="#738FD1"/>
<path style="mix-blend-mode:multiply" d="M156.569 88.8728C159.749 85.6895 159.749 80.5283 156.569 77.345C153.388 74.1617 148.232 74.1617 145.052 77.345C141.871 80.5283 141.871 85.6895 145.052 88.8728C148.232 92.0561 153.388 92.0561 156.569 88.8728Z" fill="url(#paint4_radial_23_5442)"/>
<path d="M155.781 86.1738C158.344 83.6082 158.344 79.4485 155.781 76.8828C153.218 74.3172 149.062 74.3172 146.499 76.8828C143.935 79.4485 143.935 83.6082 146.499 86.1738C149.062 88.7394 153.218 88.7394 155.781 86.1738Z" fill="#ABC4FF"/>
<path d="M151.139 74.96C149.459 74.958 147.844 75.6029 146.627 76.7611C147.916 75.6228 149.6 75.0362 151.316 75.1274C153.033 75.2186 154.645 75.9803 155.807 77.2489C156.968 78.5174 157.586 80.1915 157.527 81.9111C157.469 83.6308 156.738 85.2587 155.493 86.4449C156.49 85.5608 157.194 84.394 157.513 83.0996C157.831 81.8052 157.749 80.4444 157.276 79.1981C156.804 77.9517 155.964 76.8787 154.867 76.1217C153.771 75.3647 152.47 74.9595 151.139 74.96Z" fill="#CDDCFF"/>
<path d="M151.374 87.8638C150.09 87.8642 148.834 87.4875 147.761 86.7802C146.689 86.073 145.847 85.0665 145.341 83.8852C144.835 82.704 144.686 81.4 144.913 80.1348C145.139 78.8696 145.732 77.6988 146.617 76.7676C145.983 77.3715 145.475 78.0966 145.125 78.8999C144.774 79.7033 144.588 80.5687 144.577 81.4453C144.566 82.3218 144.73 83.1917 145.06 84.0037C145.39 84.8157 145.879 85.5534 146.498 86.1732C147.118 86.7931 147.855 87.2826 148.666 87.613C149.477 87.9433 150.346 88.1077 151.222 88.0966C152.098 88.0855 152.962 87.8991 153.765 87.5483C154.568 87.1975 155.292 86.6894 155.895 86.054C154.677 87.217 153.058 87.8652 151.374 87.8638Z" fill="#8093BF"/>
<path d="M151.026 81.4217C152.127 81.4217 153.02 80.5285 153.02 79.4266C153.02 78.3248 152.127 77.4316 151.026 77.4316C149.926 77.4316 149.033 78.3248 149.033 79.4266C149.033 80.5285 149.926 81.4217 151.026 81.4217Z" fill="#8093BF"/>
<path d="M154.06 84.9447C152.105 85.6757 149.951 85.6757 147.996 84.9447C147.996 84.1398 148.316 83.3679 148.884 82.7988C149.453 82.2297 150.224 81.9099 151.028 81.9099C151.832 81.9099 152.603 82.2297 153.172 82.7988C153.741 83.3679 154.06 84.1398 154.06 84.9447Z" fill="#8093BF"/>
<path d="M151.14 81.1946C152.24 81.1946 153.133 80.3014 153.133 79.1996C153.133 78.0978 152.24 77.2046 151.14 77.2046C150.039 77.2046 149.146 78.0978 149.146 79.1996C149.146 80.3014 150.039 81.1946 151.14 81.1946Z" fill="white"/>
<path d="M154.168 84.7177C152.212 85.4486 150.059 85.4486 148.104 84.7177C148.104 83.9128 148.423 83.1409 148.992 82.5717C149.56 82.0026 150.331 81.6829 151.136 81.6829C151.94 81.6829 152.711 82.0026 153.279 82.5717C153.848 83.1409 154.168 83.9128 154.168 84.7177Z" fill="white"/>
<path d="M170.044 110.227H161.997C161.409 110.227 160.932 110.704 160.932 111.293V111.421C160.932 112.01 161.409 112.487 161.997 112.487H170.044C170.632 112.487 171.109 112.01 171.109 111.421V111.293C171.109 110.704 170.632 110.227 170.044 110.227Z" fill="#80ED99"/>
<path d="M170.762 110.542C170.846 110.703 170.89 110.882 170.89 111.063C170.89 111.363 170.771 111.65 170.559 111.863C170.348 112.075 170.06 112.194 169.761 112.194H161.844C161.551 112.192 161.271 112.077 161.062 111.872C161.158 112.056 161.301 112.21 161.478 112.317C161.655 112.425 161.857 112.482 162.064 112.482H169.981C170.129 112.482 170.276 112.453 170.413 112.396C170.55 112.339 170.675 112.256 170.78 112.151C170.885 112.046 170.968 111.922 171.025 111.785C171.081 111.647 171.111 111.5 171.111 111.352C171.11 111.201 171.079 111.051 171.019 110.912C170.959 110.772 170.872 110.647 170.762 110.542Z" fill="#57CC99"/>
<path d="M183.935 115.551H161.997C161.409 115.551 160.932 116.028 160.932 116.617V116.745C160.932 117.334 161.409 117.811 161.997 117.811H183.935C184.523 117.811 185 117.334 185 116.745V116.617C185 116.028 184.523 115.551 183.935 115.551Z" fill="#ABC4FF"/>
<path d="M184.593 115.812C184.762 116.015 184.855 116.271 184.855 116.535C184.855 116.683 184.825 116.83 184.769 116.967C184.712 117.105 184.628 117.229 184.524 117.334C184.419 117.439 184.294 117.522 184.157 117.579C184.02 117.636 183.873 117.665 183.725 117.665H161.916C161.652 117.665 161.396 117.573 161.193 117.404C161.299 117.532 161.432 117.635 161.582 117.705C161.732 117.776 161.896 117.812 162.062 117.812H183.872C184.021 117.812 184.168 117.783 184.305 117.726C184.442 117.669 184.566 117.586 184.671 117.481C184.776 117.376 184.859 117.251 184.915 117.114C184.972 116.977 185.001 116.83 185.001 116.682C185.001 116.516 184.965 116.352 184.894 116.201C184.824 116.051 184.721 115.918 184.593 115.812Z" fill="#738FD1"/>
<path style="mix-blend-mode:multiply" d="M156.571 121.569C159.751 118.386 159.751 113.225 156.571 110.042C153.39 106.858 148.234 106.858 145.053 110.042C141.873 113.225 141.873 118.386 145.053 121.569C148.234 124.753 153.39 124.753 156.571 121.569Z" fill="url(#paint5_radial_23_5442)"/>
<path d="M155.781 118.87C158.344 116.305 158.344 112.145 155.781 109.579C153.218 107.014 149.062 107.014 146.499 109.579C143.935 112.145 143.935 116.305 146.499 118.87C149.062 121.436 153.218 121.436 155.781 118.87Z" fill="#ABC4FF"/>
<path d="M151.139 107.654C149.46 107.652 147.844 108.297 146.627 109.454C147.915 108.309 149.602 107.717 151.322 107.805C153.043 107.894 154.66 108.656 155.824 109.927C156.988 111.199 157.606 112.878 157.544 114.601C157.482 116.325 156.745 117.955 155.493 119.139C156.49 118.255 157.194 117.088 157.513 115.794C157.831 114.5 157.749 113.139 157.276 111.892C156.804 110.646 155.964 109.573 154.867 108.816C153.771 108.059 152.47 107.654 151.139 107.654Z" fill="#CDDCFF"/>
<path d="M151.374 120.559C150.09 120.56 148.834 120.183 147.761 119.476C146.689 118.769 145.847 117.763 145.341 116.582C144.834 115.4 144.685 114.096 144.912 112.831C145.139 111.566 145.732 110.395 146.617 109.464C145.983 110.068 145.475 110.793 145.125 111.596C144.774 112.4 144.588 113.265 144.577 114.142C144.566 115.018 144.73 115.888 145.06 116.7C145.39 117.512 145.879 118.25 146.498 118.87C147.118 119.49 147.855 119.979 148.666 120.309C149.477 120.64 150.346 120.804 151.222 120.793C152.098 120.782 152.962 120.596 153.765 120.245C154.568 119.894 155.292 119.386 155.895 118.751C154.677 119.913 153.057 120.561 151.374 120.559Z" fill="#8093BF"/>
<path d="M151.026 114.118C152.127 114.118 153.02 113.225 153.02 112.123C153.02 111.021 152.127 110.128 151.026 110.128C149.926 110.128 149.033 111.021 149.033 112.123C149.033 113.225 149.926 114.118 151.026 114.118Z" fill="#8093BF"/>
<path d="M154.06 117.64C152.105 118.372 149.951 118.372 147.996 117.64C147.996 116.835 148.316 116.063 148.884 115.494C149.453 114.925 150.224 114.605 151.028 114.605C151.832 114.605 152.603 114.925 153.172 115.494C153.741 116.063 154.06 116.835 154.06 117.64Z" fill="#8093BF"/>
<path d="M151.14 113.891C152.24 113.891 153.133 112.998 153.133 111.896C153.133 110.794 152.24 109.901 151.14 109.901C150.039 109.901 149.146 110.794 149.146 111.896C149.146 112.998 150.039 113.891 151.14 113.891Z" fill="white"/>
<path d="M154.168 117.413C152.212 118.145 150.059 118.145 148.104 117.413C148.104 116.608 148.423 115.836 148.992 115.267C149.56 114.698 150.331 114.378 151.136 114.378C151.94 114.378 152.711 114.698 153.279 115.267C153.848 115.836 154.168 116.608 154.168 117.413Z" fill="white"/>
<path d="M115.904 62H90.0607C85.61 62 82.002 65.6114 82.002 70.0662V95.9337C82.002 100.389 85.61 104 90.0607 104H115.904C120.355 104 123.963 100.389 123.963 95.9337V70.0662C123.963 65.6114 120.355 62 115.904 62Z" fill="#373F51"/>
<path d="M82.3548 95.9337V70.0662C82.3548 67.9269 83.2038 65.8752 84.7151 64.3625C86.2264 62.8498 88.2762 62 90.4135 62H90.0587C87.9214 62 85.8717 62.8498 84.3604 64.3625C82.849 65.8752 82 67.9269 82 70.0662V95.9337C82 98.073 82.849 100.125 84.3604 101.637C85.8717 103.15 87.9214 104 90.0587 104H90.4135C88.2762 104 86.2264 103.15 84.7151 101.637C83.2038 100.125 82.3548 98.073 82.3548 95.9337Z" fill="#292F3D"/>
<path d="M118.669 62.4866C120.111 63.1121 121.34 64.1463 122.202 65.4617C123.065 66.7771 123.525 68.3163 123.525 69.89V95.7574C123.525 97.8968 122.676 99.9485 121.164 101.461C119.653 102.974 117.603 103.824 115.465 103.824H89.6229C88.6803 103.825 87.7449 103.66 86.8594 103.337C87.8701 103.776 88.9601 104.001 90.0616 104H115.905C118.043 104 120.092 103.15 121.604 101.638C123.115 100.125 123.965 98.0732 123.965 95.9338V70.0663C123.965 68.4118 123.457 66.7973 122.509 65.4415C121.562 64.0857 120.221 63.0542 118.669 62.4866Z" fill="#5F6574"/>
<path d="M100.414 83.2431L102.22 85.8825L105.407 85.6386L103.601 82.998L100.414 83.2431Z" fill="#ABC4FF"/>
<path d="M104.984 80.1125L106.79 82.7531L105.407 85.6387L103.602 82.9981L104.984 80.1125Z" fill="#C4D6FF"/>
<path d="M103.601 82.9981L104.983 80.1125L101.796 80.3575L100.414 83.2432L103.601 82.9981Z" fill="#DDE7FF"/>
<path d="M102.983 96.4569C100.387 96.4554 97.8502 95.6895 95.687 94.2544C93.5239 92.8194 91.8306 90.7789 90.8182 88.3871C90.7209 88.1569 90.6699 87.9098 90.668 87.6599C90.6661 87.41 90.7135 87.1621 90.8073 86.9305C90.9011 86.6988 91.0396 86.488 91.2149 86.3099C91.3901 86.1319 91.5987 85.9901 91.8287 85.8927C92.0586 85.7953 92.3055 85.7443 92.5552 85.7424C92.805 85.7405 93.0526 85.7879 93.284 85.8818C93.5154 85.9757 93.7261 86.1143 93.904 86.2897C94.0819 86.4651 94.2235 86.6739 94.3208 86.9041C94.9138 88.3098 95.8396 89.55 97.0181 90.5179C98.1967 91.4858 99.5927 92.1523 101.086 92.4599C102.338 92.7138 103.628 92.7138 104.879 92.4599C105.483 92.3365 106.073 92.1534 106.64 91.9131C107.199 91.6762 107.734 91.3856 108.236 91.0455C109.748 90.0231 110.932 88.5842 111.644 86.9029C111.885 86.3346 112.069 85.7439 112.193 85.1394C112.32 84.5161 112.384 83.8817 112.385 83.2456C112.378 82.9918 112.423 82.7392 112.516 82.5028C112.608 82.2665 112.747 82.051 112.924 81.8692C113.101 81.6875 113.313 81.543 113.547 81.4444C113.781 81.3457 114.032 81.2949 114.286 81.2949C114.539 81.2949 114.79 81.3457 115.024 81.4444C115.258 81.543 115.47 81.6875 115.647 81.8692C115.824 82.051 115.963 82.2665 116.056 82.5028C116.148 82.7392 116.193 82.9918 116.186 83.2456C116.187 84.1396 116.097 85.0314 115.919 85.9075C115.745 86.7595 115.487 87.5921 115.148 88.3931C114.139 90.7869 112.447 92.8295 110.283 94.265C108.119 95.7004 105.581 96.465 102.985 96.4628L102.983 96.4569Z" fill="#E63114"/>
<path d="M96.5542 90.1104C97.8515 91.4135 99.5037 92.3052 101.304 92.6741C102.556 92.9286 103.845 92.9286 105.097 92.6741C106.896 92.3032 108.548 91.4119 109.847 90.1104C110.273 89.6831 110.658 89.2163 110.996 88.7162C111.335 88.2131 111.625 87.6784 111.862 87.1195C112.102 86.5513 112.285 85.9605 112.409 85.3559C112.536 84.7326 112.599 84.0982 112.6 83.4622C112.6 83.099 112.704 82.7434 112.899 82.4374C113.095 82.1314 113.374 81.8878 113.703 81.7354C114.032 81.5829 114.398 81.528 114.758 81.5771C115.117 81.6261 115.455 81.7771 115.732 82.0123C115.48 81.7153 115.143 81.5029 114.767 81.4038C114.39 81.3048 113.992 81.3238 113.627 81.4583C113.262 81.5928 112.947 81.8364 112.724 82.156C112.502 82.4757 112.383 82.856 112.383 83.2456C112.383 83.8817 112.319 84.5161 112.192 85.1393C111.945 86.3421 111.462 87.4841 110.773 88.4996C109.751 90.0132 108.314 91.198 106.634 91.9107C106.066 92.151 105.477 92.3342 104.873 92.4575C103.621 92.7114 102.331 92.7114 101.08 92.4575C99.3313 92.0957 97.7219 91.2435 96.4395 90.0004L96.5542 90.1104Z" fill="#FEDC9E"/>
<path d="M115.918 85.5773C115.571 87.2685 114.896 88.875 113.93 90.3058C112.498 92.4299 110.481 94.0923 108.123 95.0911C107.323 95.4298 106.491 95.6879 105.64 95.8616C103.884 96.2205 102.074 96.2205 100.319 95.8616C98.6268 95.5161 97.0196 94.8404 95.5887 93.8731C93.4668 92.439 91.8058 90.42 90.8066 88.0605C90.7324 87.8761 90.6873 87.6812 90.673 87.4829C90.6465 87.7915 90.6956 88.1019 90.8161 88.3872C91.8272 90.7796 93.5201 92.8209 95.6834 94.256C97.8468 95.6911 100.385 96.4565 102.98 96.4565C105.575 96.4565 108.113 95.6911 110.276 94.256C112.44 92.8209 114.133 90.7796 115.144 88.3872C115.482 87.5862 115.74 86.7536 115.915 85.9016C116.093 85.0255 116.182 84.1337 116.182 83.2397C116.182 83.2054 116.182 83.1711 116.182 83.1379C116.169 83.9575 116.081 84.774 115.918 85.5773Z" fill="#FF9800"/>
<path d="M113.397 80.7436C113.023 80.7435 112.658 80.6333 112.346 80.4266C112.035 80.2198 111.791 79.9258 111.645 79.5813C111.409 79.0219 111.119 78.4868 110.779 77.9834C110.102 76.9808 109.239 76.1174 108.237 75.4399C107.735 75.1001 107.2 74.81 106.641 74.5735C106.074 74.3328 105.484 74.1493 104.88 74.0255C103.629 73.7724 102.339 73.7724 101.087 74.0255C100.483 74.1492 99.8927 74.3328 99.325 74.5735C98.7666 74.8102 98.2324 75.1004 97.7298 75.4399C97.5229 75.5817 97.2901 75.6812 97.0446 75.7325C96.7992 75.7839 96.5461 75.7862 96.2998 75.7393C96.0534 75.6923 95.8188 75.5971 95.6094 75.459C95.4 75.321 95.22 75.1429 95.0797 74.9349C94.9393 74.7269 94.8415 74.4932 94.7917 74.2472C94.742 74.0012 94.7413 73.7479 94.7898 73.5016C94.8383 73.2554 94.9349 73.0212 95.0742 72.8125C95.2135 72.6038 95.3926 72.4247 95.6013 72.2856C97.0325 71.3186 98.6396 70.6426 100.331 70.296C102.087 69.9391 103.897 69.9391 105.653 70.296C106.504 70.47 107.336 70.7285 108.136 71.0677C111.301 72.4085 113.82 74.9301 115.16 78.0982C115.282 78.3876 115.33 78.7026 115.301 79.0152C115.272 79.3278 115.166 79.6283 114.993 79.8901C114.819 80.1519 114.584 80.3668 114.308 80.5157C114.032 80.6646 113.723 80.7428 113.41 80.7436H113.397Z" fill="#F0F5FF"/>
<path d="M95.4928 72.4489C96.9234 71.4808 98.5308 70.8046 100.223 70.4593C101.979 70.1024 103.788 70.1024 105.544 70.4593C107.641 70.8928 109.602 71.8293 111.257 73.1883C112.913 74.5473 114.215 76.2882 115.05 78.2616C115.167 78.5364 115.217 78.8349 115.196 79.1327C115.176 79.4305 115.085 79.7193 114.932 79.9754C115.13 79.7093 115.255 79.3961 115.294 79.0668C115.333 78.7375 115.286 78.4036 115.157 78.0982C114.323 76.1238 113.022 74.3819 111.366 73.0227C109.711 71.6635 107.749 70.7277 105.652 70.296C103.896 69.9391 102.086 69.9391 100.33 70.296C98.6388 70.6426 97.0316 71.3186 95.6004 72.2856C95.3681 72.4429 95.1731 72.6494 95.0293 72.8904C95.1583 72.7185 95.3149 72.5694 95.4928 72.4489Z" fill="white"/>
<path d="M114.136 80.2664C113.906 80.3639 113.66 80.415 113.41 80.4168C113.16 80.4187 112.912 80.3713 112.681 80.2773C112.45 80.1833 112.239 80.0446 112.061 79.8691C111.883 79.6936 111.742 79.4847 111.645 79.2544C111.408 78.6953 111.118 78.1605 110.778 77.6578C110.441 77.1574 110.056 76.6906 109.63 76.2635C109.203 75.837 108.736 75.4518 108.237 75.113C107.221 74.4266 106.08 73.946 104.88 73.6986C103.628 73.4455 102.338 73.4455 101.086 73.6986C99.8855 73.9454 98.7449 74.426 97.7292 75.113C97.5223 75.253 97.2899 75.3509 97.0452 75.4009C96.8005 75.451 96.5483 75.4524 96.3031 75.4049C96.0579 75.3574 95.8245 75.262 95.6161 75.1242C95.4077 74.9864 95.2285 74.8089 95.0887 74.6017C94.907 74.3339 94.7974 74.0236 94.7706 73.701C94.74 74.0586 94.8112 74.4176 94.9759 74.7365C95.1406 75.0554 95.3921 75.3211 95.7012 75.5029C96.0104 75.6848 96.3647 75.7753 96.7232 75.7641C97.0816 75.7529 97.4296 75.6405 97.7268 75.4397C98.2295 75.1002 98.7637 74.81 99.322 74.5733C99.8897 74.3326 100.48 74.1491 101.084 74.0253C102.336 73.7722 103.626 73.7722 104.877 74.0253C105.481 74.1491 106.071 74.3326 106.638 74.5733C107.197 74.8098 107.732 75.0999 108.235 75.4397C109.236 76.1174 110.098 76.9808 110.775 77.9833C111.114 78.4866 111.405 79.0217 111.641 79.5811C111.818 79.9985 112.137 80.3393 112.542 80.542C112.947 80.7447 113.411 80.7961 113.851 80.6869C114.29 80.5778 114.676 80.3153 114.939 79.9466C115.203 79.5778 115.326 79.1272 115.287 78.6757C115.258 79.0204 115.135 79.3507 114.932 79.6309C114.73 79.9112 114.454 80.1309 114.136 80.2664Z" fill="#ABC4FF"/>
<path d="M91.6827 85.1453C91.179 85.1453 90.6959 84.9453 90.3394 84.5891C89.9829 84.233 89.7822 83.7498 89.7812 83.2456C89.7815 82.352 89.8714 81.4606 90.0497 80.5849C90.3947 78.8913 91.0702 77.2824 92.0375 75.8505C92.3212 75.4358 92.7573 75.1503 93.2507 75.0563C93.744 74.9623 94.2544 75.0674 94.6705 75.3488C95.0867 75.6301 95.3747 76.0648 95.4718 76.5579C95.5689 77.0511 95.4672 77.5627 95.1888 77.981C94.1398 79.5357 93.5808 81.3696 93.5842 83.2456C93.5832 83.7498 93.3825 84.233 93.026 84.5891C92.6695 84.9453 92.1864 85.1453 91.6827 85.1453Z" fill="#6523CE"/>
<path opacity="0.5" d="M89.9444 83.2965C89.9406 80.6629 90.7265 78.0888 92.2007 75.9073C92.4247 75.5755 92.7476 75.3229 93.1233 75.1854C93.4991 75.0479 93.9087 75.0326 94.2937 75.1416C93.8927 74.9875 93.4515 74.9738 93.0418 75.1028C92.6322 75.2317 92.2782 75.4957 92.0375 75.8517C90.5635 78.035 89.7776 80.6106 89.7813 83.2456C89.7814 83.6596 89.9162 84.0623 90.1654 84.3927C90.4147 84.7231 90.7647 84.9632 91.1624 85.0766C90.8034 84.938 90.4947 84.6937 90.2773 84.3759C90.0598 84.0581 89.9438 83.6817 89.9444 83.2965Z" fill="#FFB8DE"/>
<path d="M94.6772 75.3413C94.4407 75.1812 94.171 75.0767 93.8884 75.0357C93.6058 74.9947 93.3176 75.0183 93.0454 75.1046C93.414 75.0355 93.7948 75.077 94.1399 75.224C94.4849 75.3709 94.7789 75.6167 94.9848 75.9304C95.1907 76.2441 95.2993 76.6118 95.297 76.9872C95.2946 77.3625 95.1814 77.7288 94.9717 78.0399C93.9238 79.593 93.3649 81.4246 93.367 83.2987C93.3669 83.7032 93.2381 84.0972 92.9994 84.4236C92.7606 84.75 92.4243 84.9919 92.0391 85.1143C92.4738 85.0311 92.8659 84.7989 93.148 84.4576C93.4301 84.1163 93.5845 83.6872 93.5846 83.2442C93.5808 81.37 94.1399 79.5378 95.1892 77.9855C95.3294 77.7783 95.4273 77.5455 95.4775 77.3004C95.5276 77.0553 95.5289 76.8027 95.4813 76.5571C95.4338 76.3115 95.3383 76.0777 95.2003 75.869C95.0623 75.6604 94.8846 75.4811 94.6772 75.3413Z" fill="#BF2980"/>
<path d="M54.7322 36H22.204C17.1208 36 13 40.1246 13 45.2126V77.7709C13 82.8588 17.1208 86.9835 22.204 86.9835H54.7322C59.8155 86.9835 63.9363 82.8588 63.9363 77.7709V45.2126C63.9363 40.1246 59.8155 36 54.7322 36Z" fill="#373F51"/>
<path d="M53.994 36H22.9423C20.3054 36 17.7766 37.0485 15.912 38.9147C14.0475 40.781 13 43.3122 13 45.9515V47.7069H63.9363V45.9515C63.9363 43.3122 62.8888 40.781 61.0243 38.9147C59.1597 37.0485 56.6309 36 53.994 36Z" fill="#6623CE"/>
<path d="M61.2602 39.2112C62.5392 40.8759 63.2314 42.9177 63.2289 45.0177V76.9015C63.2289 79.4364 62.2228 81.8676 60.4319 83.6601C58.6411 85.4526 56.2122 86.4596 53.6796 86.4596H21.8272C20.5557 86.4608 19.2969 86.207 18.125 85.7133C19.6181 86.5561 21.303 86.9993 23.0172 87H53.911C56.5697 87 59.1196 85.9428 60.9997 84.0611C62.8797 82.1793 63.9359 79.627 63.9359 76.9658V46.0342C63.9394 43.5028 62.9831 41.0644 61.2602 39.2112Z" fill="#292F3D"/>
<path d="M63.2284 45.0177V47.7069H63.9354V46.0342C63.9389 43.5028 62.9826 41.0644 61.2598 39.2112C62.5387 40.8759 63.2309 42.9177 63.2284 45.0177Z" fill="#3249B3"/>
<path style="mix-blend-mode:multiply" d="M48.299 43.3199C48.4399 42.4532 47.8521 41.6363 46.9862 41.4953C46.1203 41.3543 45.3041 41.9426 45.1633 42.8093C45.0224 43.676 45.6102 44.493 46.4761 44.634C47.342 44.775 48.1581 44.1866 48.299 43.3199Z" fill="url(#paint6_radial_23_5442)"/>
<path d="M46.8506 44.117C47.521 44.117 48.0644 43.573 48.0644 42.902C48.0644 42.231 47.521 41.687 46.8506 41.687C46.1802 41.687 45.6367 42.231 45.6367 42.902C45.6367 43.573 46.1802 44.117 46.8506 44.117Z" fill="white"/>
<path style="mix-blend-mode:multiply" d="M52.8248 43.4294C53.0271 42.575 52.499 41.7182 51.6454 41.5157C50.7917 41.3133 49.9357 41.8418 49.7334 42.6963C49.5312 43.5507 50.0592 44.4075 50.9129 44.61C51.7665 44.8124 52.6225 44.2839 52.8248 43.4294Z" fill="url(#paint7_radial_23_5442)"/>
<path d="M51.3994 44.117C52.0698 44.117 52.6133 43.573 52.6133 42.902C52.6133 42.231 52.0698 41.687 51.3994 41.687C50.729 41.687 50.1855 42.231 50.1855 42.902C50.1855 43.573 50.729 44.117 51.3994 44.117Z" fill="white"/>
<path style="mix-blend-mode:multiply" d="M57.3967 43.3187C57.5375 42.452 56.9498 41.6351 56.0839 41.4941C55.218 41.3531 54.4018 41.9414 54.2609 42.8081C54.1201 43.6748 54.7078 44.4917 55.5737 44.6327C56.4397 44.7737 57.2558 44.1854 57.3967 43.3187Z" fill="url(#paint8_radial_23_5442)"/>
<path d="M55.9502 44.117C56.6206 44.117 57.164 43.573 57.164 42.902C57.164 42.231 56.6206 41.687 55.9502 41.687C55.2798 41.687 54.7363 42.231 54.7363 42.902C54.7363 43.573 55.2798 44.117 55.9502 44.117Z" fill="white"/>
<path d="M28.7383 52.2341H18.6399C18.2606 52.2341 17.9531 52.5419 17.9531 52.9216V53.2524C17.9531 53.6321 18.2606 53.9399 18.6399 53.9399H28.7383C29.1176 53.9399 29.4251 53.6321 29.4251 53.2524V52.9216C29.4251 52.5419 29.1176 52.2341 28.7383 52.2341Z" fill="white"/>
<path d="M29.1627 52.4712C29.2254 52.5928 29.2582 52.7277 29.2582 52.8645C29.2582 53.0902 29.1686 53.3067 29.0092 53.4663C28.8497 53.6259 28.6335 53.7156 28.408 53.7156H18.6383C18.4186 53.7155 18.2074 53.6306 18.0488 53.4785C18.1208 53.6171 18.2294 53.7332 18.3629 53.8142C18.4963 53.8953 18.6494 53.9381 18.8054 53.938H28.5732C28.6851 53.938 28.796 53.9159 28.8993 53.8731C29.0027 53.8302 29.0966 53.7674 29.1758 53.6882C29.2549 53.609 29.3177 53.515 29.3605 53.4115C29.4033 53.308 29.4253 53.1971 29.4253 53.0851C29.4254 52.9703 29.4022 52.8567 29.357 52.7512C29.3119 52.6456 29.2458 52.5504 29.1627 52.4712Z" fill="#AFB2B9"/>
<path d="M24.1895 62.2517H18.6399C18.2606 62.2517 17.9531 62.5595 17.9531 62.9392V63.27C17.9531 63.6497 18.2606 63.9575 18.6399 63.9575H24.1895C24.5689 63.9575 24.8764 63.6497 24.8764 63.27V62.9392C24.8764 62.5595 24.5689 62.2517 24.1895 62.2517Z" fill="#FFB8DE"/>
<path d="M24.614 62.489C24.6767 62.6106 24.7094 62.7455 24.7095 62.8823C24.7095 63.1085 24.6197 63.3255 24.4599 63.4854C24.3001 63.6454 24.0834 63.7352 23.8574 63.7352H18.6383C18.4184 63.7345 18.2073 63.6489 18.0488 63.4963C18.1208 63.6349 18.2294 63.751 18.3629 63.8321C18.4963 63.9131 18.6494 63.9559 18.8054 63.9558H24.0318C24.2578 63.9558 24.4746 63.866 24.6344 63.706C24.7942 63.5461 24.8839 63.3291 24.8839 63.1029C24.883 62.9876 24.8586 62.8737 24.8122 62.7681C24.7658 62.6625 24.6983 62.5676 24.614 62.489Z" fill="#FF74D4"/>
<path d="M24.1895 72.9512H18.6399C18.2606 72.9512 17.9531 73.259 17.9531 73.6386V73.9695C17.9531 74.3492 18.2606 74.6569 18.6399 74.6569H24.1895C24.5689 74.6569 24.8764 74.3492 24.8764 73.9695V73.6386C24.8764 73.259 24.5689 72.9512 24.1895 72.9512Z" fill="#FFC107"/>
<path d="M24.614 73.1904C24.6769 73.312 24.7097 73.4469 24.7095 73.5838C24.7095 73.6957 24.6874 73.8065 24.6446 73.9099C24.6017 74.0132 24.5389 74.1072 24.4598 74.1862C24.3806 74.2653 24.2867 74.3279 24.1833 74.3706C24.0799 74.4132 23.9692 74.4351 23.8574 74.4348H18.6383C18.4186 74.4348 18.2074 74.3499 18.0488 74.1977C18.1211 74.336 18.2298 74.452 18.3632 74.533C18.4965 74.614 18.6494 74.6569 18.8054 74.6572H24.0318C24.2578 74.6572 24.4746 74.5674 24.6344 74.4074C24.7942 74.2475 24.8839 74.0305 24.8839 73.8043C24.883 73.689 24.8586 73.5751 24.8122 73.4695C24.7658 73.3639 24.6983 73.269 24.614 73.1904Z" fill="#BF9105"/>
<path d="M33.2891 72.9512H27.7395C27.3602 72.9512 27.0527 73.259 27.0527 73.6386V73.9695C27.0527 74.3492 27.3602 74.6569 27.7395 74.6569H33.2891C33.6685 74.6569 33.976 74.3492 33.976 73.9695V73.6386C33.976 73.259 33.6685 72.9512 33.2891 72.9512Z" fill="#FFB8DE"/>
<path d="M33.7117 73.1904C33.7761 73.3115 33.8096 73.4466 33.8091 73.5838C33.8091 73.6957 33.787 73.8065 33.7442 73.9099C33.7013 74.0132 33.6385 74.1072 33.5594 74.1862C33.4802 74.2653 33.3863 74.3279 33.2829 74.3706C33.1796 74.4132 33.0688 74.4351 32.957 74.4348H27.7379C27.5181 74.4356 27.3066 74.3505 27.1484 74.1977C27.2201 74.3362 27.3284 74.4522 27.4615 74.5333C27.5946 74.6143 27.7474 74.6572 27.9032 74.6572H33.1241C33.2359 74.6572 33.3466 74.6352 33.4499 74.5923C33.5532 74.5494 33.647 74.4865 33.726 74.4073C33.8049 74.3281 33.8675 74.2341 33.9102 74.1306C33.9528 74.0271 33.9746 73.9163 33.9744 73.8043C33.9744 73.6895 33.9512 73.5759 33.906 73.4704C33.8609 73.3649 33.7948 73.2696 33.7117 73.1904Z" fill="#FF74D4"/>
<path d="M42.0294 67.7053H36.4798C36.1005 67.7053 35.793 68.0131 35.793 68.3928V68.7236C35.793 69.1033 36.1005 69.4111 36.4798 69.4111H42.0294C42.4087 69.4111 42.7162 69.1033 42.7162 68.7236V68.3928C42.7162 68.0131 42.4087 67.7053 42.0294 67.7053Z" fill="#FFC107"/>
<path d="M42.4539 67.9443C42.5167 68.0653 42.5494 68.1996 42.5494 68.3359C42.5497 68.4478 42.5278 68.5586 42.4852 68.6621C42.4426 68.7656 42.38 68.8596 42.301 68.9388C42.2221 69.018 42.1282 69.0809 42.025 69.1238C41.9217 69.1667 41.811 69.1887 41.6992 69.1887H36.4783C36.2591 69.189 36.0484 69.104 35.8906 68.9516C35.9623 69.0901 36.0706 69.2062 36.2037 69.2872C36.3368 69.3682 36.4896 69.4111 36.6454 69.4111H41.8644C42.0904 69.4111 42.3072 69.3213 42.467 69.1613C42.6268 69.0014 42.7165 68.7845 42.7165 68.5583C42.7167 68.4434 42.6935 68.3298 42.6483 68.2242C42.6032 68.1187 42.537 68.0235 42.4539 67.9443Z" fill="#BF9105"/>
<path d="M37.8379 62.2517H27.7395C27.3602 62.2517 27.0527 62.5595 27.0527 62.9392V63.27C27.0527 63.6497 27.3602 63.9575 27.7395 63.9575H37.8379C38.2172 63.9575 38.5247 63.6497 38.5247 63.27V62.9392C38.5247 62.5595 38.2172 62.2517 37.8379 62.2517Z" fill="white"/>
<path d="M38.2623 62.489C38.3251 62.6106 38.3578 62.7455 38.3578 62.8823C38.3578 63.1085 38.2681 63.3255 38.1083 63.4854C37.9485 63.6454 37.7317 63.7352 37.5057 63.7352H27.7379C27.5179 63.7353 27.3064 63.6496 27.1484 63.4963C27.2199 63.6349 27.3282 63.7511 27.4614 63.8321C27.5945 63.9132 27.7474 63.956 27.9032 63.9558H37.6729C37.8989 63.9558 38.1156 63.866 38.2754 63.706C38.4352 63.5461 38.525 63.3291 38.525 63.1029C38.525 62.9881 38.5018 62.8745 38.4566 62.769C38.4115 62.6635 38.3454 62.5682 38.2623 62.489Z" fill="#AFB2B9"/>
<path d="M32.8614 57.2908H22.763C22.3837 57.2908 22.0762 57.5986 22.0762 57.9782V58.3072C22.0762 58.6869 22.3837 58.9947 22.763 58.9947H32.8614C33.2407 58.9947 33.5482 58.6869 33.5482 58.3072V57.9782C33.5482 57.5986 33.2407 57.2908 32.8614 57.2908Z" fill="white"/>
<path d="M33.2839 57.5281C33.3481 57.6492 33.3815 57.7843 33.3813 57.9214C33.3813 58.0334 33.3592 58.1443 33.3164 58.2478C33.2736 58.3513 33.2108 58.4453 33.1317 58.5245C33.0526 58.6037 32.9586 58.6665 32.8553 58.7094C32.7519 58.7522 32.6411 58.7743 32.5292 58.7743H22.7614C22.5413 58.7744 22.3299 58.6887 22.1719 58.5354C22.2431 58.6743 22.3513 58.7909 22.4844 58.8723C22.6176 58.9537 22.7706 58.9967 22.9266 58.9967H32.6963C32.8081 58.9967 32.9188 58.9746 33.0221 58.9318C33.1254 58.8889 33.2192 58.826 33.2982 58.7468C33.3771 58.6676 33.4397 58.5735 33.4824 58.4701C33.525 58.3666 33.5468 58.2558 33.5465 58.1438C33.5466 58.0288 33.5234 57.9149 33.4783 57.809C33.4331 57.7032 33.367 57.6076 33.2839 57.5281Z" fill="#AFB2B9"/>
<path d="M32.8614 67.7642H22.763C22.3837 67.7642 22.0762 68.0719 22.0762 68.4516V68.7806C22.0762 69.1603 22.3837 69.4681 22.763 69.4681H32.8614C33.2407 69.4681 33.5482 69.1603 33.5482 68.7806V68.4516C33.5482 68.0719 33.2407 67.7642 32.8614 67.7642Z" fill="white"/>
<path d="M33.2839 67.9941C33.3481 68.1153 33.3815 68.2504 33.3813 68.3875C33.3813 68.6137 33.2915 68.8306 33.1317 68.9906C32.9719 69.1505 32.7552 69.2404 32.5292 69.2404H22.7614C22.5413 69.2404 22.3299 69.1547 22.1719 69.0014C22.243 69.141 22.3514 69.2581 22.4849 69.3398C22.6184 69.4216 22.7719 69.4648 22.9285 69.4646H32.6981C32.8098 69.4646 32.9203 69.4426 33.0235 69.3998C33.1267 69.3571 33.2204 69.2944 33.2993 69.2154C33.3783 69.1363 33.4409 69.0425 33.4837 68.9393C33.5264 68.836 33.5484 68.7253 33.5484 68.6136C33.5487 68.4978 33.5255 68.3831 33.48 68.2766C33.4345 68.1701 33.3678 68.0739 33.2839 67.9941Z" fill="#AFB2B9"/>
<path d="M55.6075 67.7642H45.5091C45.1298 67.7642 44.8223 68.0719 44.8223 68.4516V68.7806C44.8223 69.1603 45.1298 69.4681 45.5091 69.4681H55.6075C55.9868 69.4681 56.2943 69.1603 56.2943 68.7806V68.4516C56.2943 68.0719 55.9868 67.7642 55.6075 67.7642Z" fill="white"/>
<path d="M56.0325 67.9941C56.0958 68.1156 56.1292 68.2505 56.1298 68.3875C56.1298 68.6137 56.04 68.8306 55.8802 68.9906C55.7204 69.1505 55.5037 69.2404 55.2777 69.2404H45.5172C45.2973 69.2397 45.0862 69.1541 44.9277 69.0014C44.9997 69.14 45.1083 69.2562 45.2418 69.3372C45.3752 69.4183 45.5283 69.461 45.6843 69.4609H55.4522C55.564 69.4612 55.6747 69.4394 55.7781 69.3967C55.8815 69.354 55.9754 69.2914 56.0546 69.2123C56.1337 69.1333 56.1965 69.0394 56.2393 68.936C56.2822 68.8326 56.3042 68.7218 56.3042 68.6099C56.3032 68.4942 56.2785 68.3799 56.2318 68.274C56.185 68.1681 56.1172 68.0729 56.0325 67.9941Z" fill="#AFB2B9"/>
<path d="M57.8826 57.2908H36.4114C36.0321 57.2908 35.7246 57.5986 35.7246 57.9782V58.3072C35.7246 58.6869 36.0321 58.9947 36.4114 58.9947H57.8826C58.262 58.9947 58.5695 58.6869 58.5695 58.3072V57.9782C58.5695 57.5986 58.262 57.2908 57.8826 57.2908Z" fill="white"/>
<path d="M58.3071 57.5281C58.3698 57.6497 58.4025 57.7845 58.4025 57.9214C58.4025 58.0334 58.3805 58.1443 58.3377 58.2478C58.2949 58.3513 58.2321 58.4453 58.153 58.5245C58.0739 58.6037 57.9799 58.6665 57.8765 58.7094C57.7732 58.7522 57.6624 58.7743 57.5505 58.7743H36.4098C36.1897 58.7744 35.9783 58.6887 35.8203 58.5354C35.8916 58.6743 35.9997 58.7909 36.1329 58.8723C36.266 58.9537 36.419 58.9967 36.5751 58.9967H57.7176C57.9436 58.9967 58.1603 58.9068 58.3201 58.7469C58.4799 58.5869 58.5697 58.37 58.5697 58.1438C58.5698 58.0288 58.5465 57.9149 58.5014 57.809C58.4563 57.7032 58.3902 57.6076 58.3071 57.5281Z" fill="#AFB2B9"/>
<path d="M32.8614 78.2378H22.763C22.3837 78.2378 22.0762 78.5456 22.0762 78.9252V79.2561C22.0762 79.6358 22.3837 79.9436 22.763 79.9436H32.8614C33.2407 79.9436 33.5482 79.6358 33.5482 79.2561V78.9252C33.5482 78.5456 33.2407 78.2378 32.8614 78.2378Z" fill="white"/>
<path d="M33.2839 78.4712C33.3481 78.5923 33.3815 78.7274 33.3813 78.8645C33.3813 79.0907 33.2915 79.3077 33.1317 79.4676C32.9719 79.6276 32.7552 79.7174 32.5292 79.7174H22.7614C22.5413 79.7175 22.3299 79.6318 22.1719 79.4785C22.243 79.618 22.3514 79.7351 22.4849 79.8169C22.6184 79.8986 22.7719 79.9418 22.9285 79.9417H32.6981C32.8099 79.9417 32.9207 79.9196 33.0239 79.8767C33.1272 79.8338 33.221 79.771 33.3 79.6918C33.379 79.6125 33.4416 79.5185 33.4842 79.415C33.5268 79.3116 33.5486 79.2007 33.5484 79.0888C33.5485 78.9733 33.5251 78.8589 33.4796 78.7528C33.4342 78.6466 33.3676 78.5508 33.2839 78.4712Z" fill="#AFB2B9"/>
<path d="M57.8826 78.2378H36.4114C36.0321 78.2378 35.7246 78.5456 35.7246 78.9252V79.2561C35.7246 79.6358 36.0321 79.9436 36.4114 79.9436H57.8826C58.262 79.9436 58.5695 79.6358 58.5695 79.2561V78.9252C58.5695 78.5456 58.262 78.2378 57.8826 78.2378Z" fill="white"/>
<path d="M58.3071 78.4712C58.3698 78.5928 58.4025 78.7277 58.4025 78.8645C58.4025 79.0907 58.3128 79.3077 58.153 79.4676C57.9932 79.6276 57.7765 79.7174 57.5505 79.7174H36.4098C36.1897 79.7175 35.9783 79.6318 35.8203 79.4785C35.8918 79.6171 36.0001 79.7333 36.1332 79.8143C36.2664 79.8954 36.4192 79.9382 36.5751 79.938H57.7176C57.9436 79.938 58.1603 79.8481 58.3201 79.6882C58.4799 79.5282 58.5697 79.3113 58.5697 79.0851C58.5695 78.9703 58.5462 78.8568 58.501 78.7513C58.4559 78.6458 58.3899 78.5505 58.3071 78.4712Z" fill="#AFB2B9"/>
<path d="M42.3868 52.2341H32.2884C31.9091 52.2341 31.6016 52.5419 31.6016 52.9216V53.2524C31.6016 53.6321 31.9091 53.9399 32.2884 53.9399H42.3868C42.7661 53.9399 43.0736 53.6321 43.0736 53.2524V52.9216C43.0736 52.5419 42.7661 52.2341 42.3868 52.2341Z" fill="#FFC107"/>
<path d="M42.8098 52.4712C42.8725 52.5928 42.9053 52.7277 42.9053 52.8645C42.9053 53.0902 42.8157 53.3067 42.6563 53.4663C42.4968 53.6259 42.2806 53.7156 42.055 53.7156H32.2946C32.0749 53.7155 31.8637 53.6306 31.7051 53.4785C31.7771 53.6171 31.8857 53.7332 32.0191 53.8142C32.1525 53.8953 32.3056 53.9381 32.4617 53.938H42.2295C42.3414 53.938 42.4522 53.9159 42.5556 53.8731C42.659 53.8302 42.7529 53.7674 42.832 53.6882C42.9111 53.609 42.9739 53.515 43.0167 53.4115C43.0595 53.308 43.0816 53.1971 43.0816 53.0851C43.0805 52.9696 43.0558 52.8556 43.009 52.75C42.9623 52.6445 42.8945 52.5496 42.8098 52.4712Z" fill="#BF9105"/>
<path d="M134.453 20.0508H84.334C81.7117 20.0508 79.5859 22.1785 79.5859 24.8032V25.3751C79.5859 27.9998 81.7117 30.1275 84.334 30.1275H134.453C137.075 30.1275 139.201 27.9998 139.201 25.3751V24.8032C139.201 22.1785 137.075 20.0508 134.453 20.0508Z" fill="#B3E5FC"/>
<path d="M134.453 20.0508H84.334C81.7117 20.0508 79.5859 22.1785 79.5859 24.8032V25.3751C79.5859 27.9998 81.7117 30.1275 84.334 30.1275H134.453C137.075 30.1275 139.201 27.9998 139.201 25.3751V24.8032C139.201 22.1785 137.075 20.0508 134.453 20.0508Z" fill="#373F51"/>
<path d="M84.4998 30.1275H91.6679V20.0508H84.4998C83.1968 20.0508 81.9471 20.5688 81.0256 21.491C80.1041 22.4131 79.5862 23.6639 79.5859 24.9682V25.2091C79.5859 25.855 79.713 26.4946 79.96 27.0913C80.2069 27.688 80.5689 28.2302 81.0252 28.687C81.4815 29.1437 82.0232 29.506 82.6194 29.7531C83.2155 30.0003 83.8545 30.1275 84.4998 30.1275Z" fill="#373F51"/>
<path d="M134.162 20.0508H84.6182C83.2846 20.0508 82.0056 20.5811 81.0626 21.5249C80.1196 22.4688 79.5898 23.749 79.5898 25.0838C79.5898 25.1781 79.5898 25.2712 79.5984 25.3633C79.6688 24.0767 80.2295 22.8662 81.165 21.981C82.1004 21.0959 83.3395 20.6036 84.6268 20.6055H134.162C135.449 20.6036 136.688 21.0959 137.623 21.981C138.559 22.8662 139.12 24.0767 139.19 25.3633C139.19 25.2712 139.199 25.1781 139.199 25.0838C139.199 24.4221 139.068 23.767 138.815 23.1558C138.562 22.5446 138.191 21.9894 137.723 21.5219C137.255 21.0544 136.7 20.6839 136.089 20.4314C135.477 20.179 134.823 20.0497 134.162 20.0508Z" fill="#5F6574"/>
<path d="M84.6182 20.6108H91.6622V20.0508H84.6182C83.2846 20.0508 82.0056 20.581 81.0626 21.5249C80.1196 22.4688 79.5898 23.749 79.5898 25.0838C79.5898 25.178 79.5898 25.2712 79.5984 25.3633C79.67 24.0792 80.2301 22.8712 81.1636 21.9874C82.0971 21.1036 83.3333 20.611 84.6182 20.6108Z" fill="#5F6574"/>
<path d="M134.162 29.6628H84.6188C83.3239 29.6641 82.0784 29.1654 81.1417 28.2705C80.2051 27.3757 79.6494 26.1536 79.5904 24.8589C79.5904 24.9371 79.584 25.0142 79.584 25.0934C79.5857 26.4277 80.116 27.7069 81.0586 28.6504C82.0013 29.5939 83.2793 30.1247 84.6124 30.1264H134.162C135.496 30.1264 136.775 29.5962 137.718 28.6523C138.661 27.7084 139.191 26.4282 139.191 25.0934C139.191 25.0142 139.191 24.9371 139.184 24.8589C139.125 26.1525 138.57 27.3736 137.635 28.2683C136.7 29.163 135.456 29.6624 134.162 29.6628Z" fill="#292F3D"/>
<path d="M84.6188 29.6628C83.3239 29.6641 82.0784 29.1654 81.1417 28.2705C80.2051 27.3757 79.6494 26.1536 79.5904 24.8589C79.5904 24.9371 79.584 25.0142 79.584 25.0934C79.5857 26.4277 80.116 27.7069 81.0586 28.6504C82.0013 29.5939 83.2793 30.1247 84.6124 30.1264H91.6564V29.6628H84.6188Z" fill="#292F3D"/>
<path d="M85.9355 26.4503C85.4771 26.4501 85.033 26.2908 84.6788 25.9996C84.3246 25.7084 84.0822 25.3032 83.993 24.8532C83.9038 24.4031 83.9732 23.936 84.1894 23.5315C84.4057 23.1269 84.7554 22.81 85.179 22.6345C85.6025 22.4591 86.0738 22.4361 86.5124 22.5695C86.951 22.7029 87.3298 22.9843 87.5844 23.3659C87.8389 23.7475 87.9533 24.2056 87.9083 24.6622C87.8632 25.1188 87.6613 25.5456 87.3371 25.8699C87.1531 26.0543 86.9346 26.2004 86.6941 26.3C86.4536 26.3996 86.1958 26.4507 85.9355 26.4503ZM85.9355 23.0675C85.6118 23.0676 85.2981 23.18 85.0478 23.3856C84.7976 23.5912 84.6263 23.8773 84.5632 24.1951C84.5001 24.513 84.549 24.8429 84.7017 25.1286C84.8544 25.4144 85.1013 25.6383 85.4004 25.7623C85.6995 25.8863 86.0324 25.9026 86.3422 25.8085C86.652 25.7144 86.9196 25.5157 87.0994 25.2462C87.2792 24.9768 87.3602 24.6532 87.3284 24.3307C87.2966 24.0082 87.1541 23.7068 86.9252 23.4776C86.7957 23.3468 86.6415 23.243 86.4716 23.1722C86.3017 23.1015 86.1195 23.0651 85.9355 23.0654V23.0675Z" fill="#F5FBFF"/>
<path d="M88.4431 27.4462C88.396 27.4461 88.3494 27.4366 88.3061 27.4182C88.2627 27.3998 88.2235 27.373 88.1906 27.3392L87.7552 26.9044C87.722 26.8711 87.6956 26.8316 87.6776 26.7882C87.6596 26.7447 87.6504 26.6982 87.6504 26.6511C87.6504 26.6041 87.6596 26.5575 87.6776 26.5141C87.6956 26.4706 87.722 26.4311 87.7552 26.3979C87.7884 26.3646 87.8279 26.3382 87.8713 26.3202C87.9147 26.3022 87.9612 26.293 88.0082 26.293C88.0552 26.293 88.1017 26.3022 88.1452 26.3202C88.1886 26.3382 88.228 26.3646 88.2612 26.3979L88.6924 26.8359C88.7424 26.8859 88.7764 26.9497 88.7901 27.0192C88.8038 27.0886 88.7966 27.1605 88.7695 27.2259C88.7423 27.2912 88.6964 27.3471 88.6376 27.3863C88.5787 27.4255 88.5096 27.4464 88.4388 27.4462H88.4431Z" fill="#F5FBFF"/>
<path d="M162.657 155.793L162.158 155.948C162.13 155.921 162.1 155.895 162.069 155.871L156.768 151.723C156.057 151.15 155.172 150.838 154.259 150.838H59.4027C58.4897 150.838 57.6042 151.15 56.8928 151.723L51.613 155.85L51 155.768V157.224H51.0086C51.0386 157.617 51.2165 157.985 51.5064 158.252C51.7963 158.519 52.1766 158.666 52.5706 158.663H161.086C161.481 158.666 161.862 158.519 162.152 158.251C162.442 157.983 162.62 157.614 162.649 157.22H162.657V155.793Z" fill="#C1D3FE"/>
<path d="M161.087 157.38H52.5764C51.0978 157.38 50.4366 155.517 51.5932 154.589L56.8943 150.443C57.6053 149.869 58.491 149.556 59.4042 149.556H154.261C155.174 149.556 156.059 149.869 156.77 150.443L162.071 154.589C163.222 155.517 162.566 157.38 161.087 157.38Z" fill="#F0F5FF"/>
<path d="M151.773 153.554L151.613 153.605L151.585 153.58L149.884 152.249C149.656 152.065 149.371 151.965 149.078 151.965H64.8669C64.5739 151.965 64.2896 152.065 64.0613 152.249L62.3687 153.574L62.1719 153.547V154.014C62.1819 154.14 62.2391 154.258 62.3322 154.343C62.4253 154.429 62.5473 154.476 62.6736 154.475H151.267C151.394 154.476 151.516 154.429 151.609 154.343C151.702 154.257 151.759 154.139 151.768 154.013L151.773 153.554Z" fill="#C1D3FE"/>
<path d="M151.27 154.064H62.6763C62.5718 154.065 62.4695 154.034 62.3837 153.974C62.2979 153.914 62.2328 153.829 62.1975 153.731C62.1622 153.632 62.1584 153.525 62.1867 153.425C62.215 153.324 62.274 153.234 62.3554 153.169L64.0565 151.838C64.2848 151.654 64.5691 151.554 64.8621 151.554H149.078C149.371 151.554 149.655 151.654 149.883 151.838L151.584 153.169C151.665 153.234 151.724 153.323 151.753 153.423C151.781 153.523 151.778 153.63 151.743 153.728C151.709 153.826 151.645 153.911 151.56 153.971C151.475 154.031 151.374 154.064 151.27 154.064Z" fill="#4361EE"/>
<path d="M161.087 157.122H52.5767C52.1794 157.125 51.7961 156.976 51.5053 156.705C51.2145 156.434 51.0382 156.062 51.0125 155.665C50.9924 155.883 51.0179 156.102 51.0874 156.309C51.1569 156.516 51.2689 156.707 51.4162 156.868C51.5634 157.029 51.7427 157.158 51.9425 157.246C52.1424 157.334 52.3584 157.379 52.5767 157.378H161.087C161.305 157.379 161.521 157.334 161.721 157.246C161.921 157.158 162.101 157.03 162.248 156.868C162.395 156.707 162.507 156.517 162.577 156.309C162.647 156.102 162.672 155.883 162.652 155.665C162.626 156.062 162.45 156.434 162.159 156.705C161.868 156.976 161.484 157.125 161.087 157.122Z" fill="white"/>
<path d="M162.657 153.613L162.158 153.769C162.13 153.743 162.1 153.716 162.069 153.691L156.768 149.545C156.058 148.971 155.172 148.658 154.259 148.658H59.4027C58.4895 148.659 57.6038 148.971 56.8928 149.545L51.613 153.668L51 153.585V155.042H51.0086C51.0389 155.435 51.2169 155.802 51.5067 156.069C51.7966 156.336 52.1767 156.483 52.5706 156.48H161.086C161.481 156.483 161.862 156.335 162.152 156.067C162.442 155.8 162.62 155.432 162.649 155.038H162.657V153.613Z" fill="#C1D3FE"/>
<path d="M161.087 155.2H52.5764C51.0978 155.2 50.4366 153.339 51.5932 152.41L56.8943 148.263C57.6057 147.69 58.4912 147.378 59.4042 147.378H154.261C155.173 147.378 156.059 147.69 156.77 148.263L162.071 152.41C163.222 153.339 162.566 155.2 161.087 155.2Z" fill="#F0F5FF"/>
<path d="M151.773 151.376L151.613 151.426L151.585 151.401L149.884 150.071C149.656 149.887 149.371 149.786 149.078 149.786H64.8669C64.5737 149.786 64.2894 149.887 64.0613 150.071L62.3687 151.395L62.1719 151.369V151.836C62.1816 151.962 62.2388 152.08 62.332 152.165C62.4251 152.251 62.5472 152.298 62.6736 152.297H151.267C151.394 152.298 151.516 152.251 151.609 152.165C151.702 152.079 151.759 151.961 151.768 151.835L151.773 151.376Z" fill="#C1D3FE"/>
<path d="M151.27 151.885H62.6763C62.5718 151.886 62.4695 151.855 62.3837 151.795C62.2979 151.735 62.2328 151.65 62.1975 151.552C62.1622 151.453 62.1584 151.346 62.1867 151.245C62.215 151.145 62.274 151.055 62.3554 150.99L64.0565 149.66C64.2846 149.475 64.5689 149.375 64.8621 149.375H149.078C149.371 149.375 149.655 149.475 149.883 149.66L151.584 150.99C151.665 151.055 151.724 151.144 151.753 151.244C151.781 151.344 151.778 151.45 151.743 151.549C151.709 151.647 151.645 151.732 151.56 151.792C151.475 151.852 151.374 151.885 151.27 151.885Z" fill="#4361EE"/>
<path d="M161.087 154.944H52.5768C52.1796 154.947 51.7964 154.797 51.5056 154.527C51.2149 154.256 51.0385 153.884 51.0126 153.487C50.9923 153.705 51.0177 153.924 51.0872 154.131C51.1566 154.339 51.2686 154.529 51.4159 154.69C51.5632 154.852 51.7425 154.98 51.9424 155.068C52.1424 155.156 52.3584 155.201 52.5768 155.2H161.087C161.305 155.201 161.522 155.156 161.722 155.068C161.922 154.981 162.101 154.852 162.249 154.691C162.396 154.529 162.508 154.339 162.578 154.132C162.647 153.924 162.672 153.705 162.652 153.487C162.626 153.884 162.449 154.256 162.158 154.527C161.868 154.798 161.484 154.947 161.087 154.944Z" fill="white"/>
<path d="M196.631 54H150.361C146.296 54 143 57.2986 143 61.3677V102.786C143 106.855 146.296 110.154 150.361 110.154H196.631C200.696 110.154 203.992 106.855 203.992 102.786V61.3677C203.992 57.2986 200.696 54 196.631 54Z" fill="#6523CE"/>
<path d="M196.623 109.837H151.003C149.993 109.837 148.994 109.638 148.061 109.251C147.128 108.864 146.281 108.297 145.567 107.582C144.853 106.867 144.287 106.019 143.901 105.085C143.515 104.151 143.317 103.151 143.317 102.14V61.3747C143.315 59.4121 144.065 57.5235 145.414 56.0986C144.651 56.8165 144.043 57.6833 143.628 58.6456C143.212 59.6078 142.999 60.645 143 61.6932V102.462C142.999 103.473 143.198 104.474 143.584 105.408C143.97 106.342 144.536 107.19 145.25 107.905C145.964 108.62 146.812 109.187 147.745 109.574C148.678 109.96 149.678 110.159 150.688 110.158H196.309C197.357 110.159 198.393 109.945 199.354 109.53C200.315 109.114 201.181 108.506 201.899 107.743C200.473 109.09 198.584 109.84 196.623 109.837Z" fill="#292F3D"/>
<path d="M196.307 54H150.689C148.936 53.9974 147.234 54.5984 145.871 55.7022C147.159 54.7993 148.693 54.3161 150.266 54.3185H195.887C197.925 54.3188 199.879 55.1292 201.321 56.5717C202.762 58.0141 203.571 59.9704 203.572 62.0104V102.78C203.573 103.93 203.317 105.065 202.822 106.102C202.327 107.138 201.605 108.051 200.711 108.771C201.727 108.063 202.557 107.12 203.13 106.021C203.703 104.922 204.002 103.701 204.001 102.462V61.6931C204.001 60.6821 203.802 59.681 203.415 58.747C203.029 57.8131 202.462 56.9646 201.747 56.2501C201.033 55.5356 200.184 54.9691 199.251 54.583C198.317 54.1969 197.317 53.9988 196.307 54Z" fill="#5F6574"/>
<path style="mix-blend-mode:multiply" d="M149.29 60.6987C149.818 60.6987 150.245 60.271 150.245 59.7434C150.245 59.2158 149.818 58.7881 149.29 58.7881C148.763 58.7881 148.336 59.2158 148.336 59.7434C148.336 60.271 148.763 60.6987 149.29 60.6987Z" fill="url(#paint9_radial_23_5442)"/>
<path d="M150.089 59.6427C150.089 59.7872 150.046 59.9285 149.966 60.0487C149.886 60.1689 149.772 60.2626 149.638 60.3179C149.505 60.3732 149.358 60.3877 149.217 60.3595C149.075 60.3313 148.945 60.2617 148.843 60.1595C148.741 60.0572 148.671 59.927 148.643 59.7853C148.615 59.6435 148.629 59.4966 148.684 59.363C148.74 59.2295 148.833 59.1153 148.953 59.035C149.073 58.9547 149.215 58.9119 149.359 58.9119C149.553 58.9119 149.738 58.9889 149.875 59.1259C150.012 59.263 150.089 59.4489 150.089 59.6427Z" fill="#FF74D4"/>
<path style="mix-blend-mode:multiply" d="M153.032 59.7524C153.036 59.2248 152.612 58.7937 152.085 58.7894C151.558 58.7852 151.127 59.2095 151.123 59.7371C151.119 60.2647 151.543 60.6958 152.07 60.7001C152.597 60.7043 153.027 60.28 153.032 59.7524Z" fill="url(#paint10_radial_23_5442)"/>
<path d="M152.87 59.6427C152.87 59.7873 152.828 59.9286 152.747 60.0488C152.667 60.169 152.553 60.2627 152.419 60.318C152.286 60.3733 152.139 60.3877 151.997 60.3594C151.856 60.3311 151.726 60.2614 151.624 60.159C151.522 60.0567 151.452 59.9264 151.424 59.7846C151.396 59.6427 151.411 59.4957 151.466 59.3622C151.522 59.2287 151.615 59.1146 151.735 59.0345C151.856 58.9543 151.997 58.9116 152.141 58.9119C152.237 58.9119 152.332 58.9308 152.421 58.9675C152.509 59.0043 152.59 59.0581 152.657 59.126C152.725 59.1939 152.779 59.2744 152.815 59.3631C152.852 59.4518 152.871 59.5468 152.87 59.6427Z" fill="#FECA71"/>
<path style="mix-blend-mode:multiply" d="M154.853 60.6987C155.38 60.6987 155.807 60.271 155.807 59.7434C155.807 59.2158 155.38 58.7881 154.853 58.7881C154.326 58.7881 153.898 59.2158 153.898 59.7434C153.898 60.271 154.326 60.6987 154.853 60.6987Z" fill="url(#paint11_radial_23_5442)"/>
<path d="M155.652 59.6427C155.652 59.7872 155.609 59.9285 155.529 60.0487C155.448 60.1689 155.334 60.2626 155.201 60.3179C155.068 60.3732 154.921 60.3877 154.779 60.3595C154.637 60.3313 154.507 60.2617 154.405 60.1595C154.303 60.0572 154.234 59.927 154.205 59.7853C154.177 59.6435 154.192 59.4966 154.247 59.363C154.302 59.2295 154.396 59.1153 154.516 59.035C154.636 58.9547 154.777 58.9119 154.922 58.9119C155.115 58.9119 155.301 58.9889 155.438 59.1259C155.575 59.263 155.652 59.4489 155.652 59.6427Z" fill="#80ED99"/>
<path d="M158.248 65.5659H149.308C148.906 65.5659 148.58 65.8921 148.58 66.2944V66.3826C148.58 66.785 148.906 67.1112 149.308 67.1112H158.248C158.65 67.1112 158.976 66.785 158.976 66.3826V66.2944C158.976 65.8921 158.65 65.5659 158.248 65.5659Z" fill="white"/>
<path d="M158.738 65.7812C158.796 65.8911 158.825 66.0134 158.825 66.1375C158.825 66.3424 158.744 66.5389 158.599 66.6838C158.455 66.8288 158.258 66.9104 158.054 66.9107H149.2C149.001 66.911 148.809 66.8333 148.666 66.6942C148.731 66.8201 148.83 66.9256 148.951 66.9992C149.072 67.0727 149.211 67.1115 149.353 67.1112H158.206C158.307 67.1112 158.408 67.0912 158.501 67.0524C158.595 67.0136 158.68 66.9567 158.751 66.885C158.823 66.8133 158.88 66.7282 158.919 66.6346C158.957 66.5409 158.977 66.4405 158.977 66.3391C158.977 66.2347 158.956 66.1315 158.915 66.0356C158.874 65.9397 158.814 65.8532 158.738 65.7812Z" fill="#AFB2B9"/>
<path d="M183.579 70.0884H149.308C148.906 70.0884 148.58 70.4145 148.58 70.8169V70.9051C148.58 71.3075 148.906 71.6336 149.308 71.6336H183.579C183.981 71.6336 184.307 71.3075 184.307 70.9051V70.8169C184.307 70.4145 183.981 70.0884 183.579 70.0884Z" fill="white"/>
<path d="M184.027 70.2656C184.142 70.404 184.206 70.5788 184.205 70.7593C184.205 70.9642 184.124 71.1607 183.979 71.3057C183.835 71.4506 183.638 71.5322 183.434 71.5325H149.25C149.07 71.5326 148.896 71.4693 148.758 71.3538C148.83 71.4412 148.921 71.5114 149.023 71.5595C149.126 71.6077 149.237 71.6325 149.351 71.6322H183.532C183.737 71.6322 183.933 71.5509 184.078 71.4061C184.223 71.2614 184.304 71.065 184.305 70.8601C184.305 70.7467 184.28 70.6345 184.232 70.5318C184.184 70.429 184.114 70.3381 184.027 70.2656Z" fill="#AFB2B9"/>
<path d="M194.22 76.7734H152.606C150.27 76.7734 148.377 78.6684 148.377 81.006V100.777C148.377 103.115 150.27 105.01 152.606 105.01H194.22C196.556 105.01 198.449 103.115 198.449 100.777V81.006C198.449 78.6684 196.556 76.7734 194.22 76.7734Z" fill="#2C1B49"/>
<path d="M193.851 76.7734H152.976C152.35 76.7725 151.731 76.9001 151.156 77.1484C150.581 77.3966 150.064 77.7603 149.635 78.2168C150.486 77.407 151.616 76.9558 152.791 76.9567H193.666C194.886 76.9567 196.056 77.4416 196.918 78.3048C197.78 79.1679 198.265 80.3386 198.265 81.5593V100.593C198.266 101.769 197.815 102.9 197.006 103.753C197.462 103.323 197.825 102.805 198.073 102.229C198.321 101.654 198.448 101.034 198.448 100.407V81.3771C198.448 80.7727 198.329 80.1742 198.098 79.6157C197.867 79.0573 197.529 78.5498 197.102 78.1223C196.675 77.6948 196.168 77.3557 195.61 77.1242C195.052 76.8928 194.455 76.7736 193.851 76.7734Z" fill="#2B1A47"/>
<path d="M148.765 100.709V81.0747C148.765 79.934 149.218 78.8399 150.024 78.0333C150.829 77.2266 151.922 76.7734 153.062 76.7734H152.674C151.535 76.7734 150.441 77.2266 149.636 78.0333C148.83 78.8399 148.377 79.934 148.377 81.0747V100.709C148.377 101.85 148.83 102.944 149.636 103.751C150.441 104.558 151.535 105.011 152.674 105.011H153.062C151.922 105.011 150.829 104.558 150.024 103.751C149.218 102.944 148.765 101.85 148.765 100.709Z" fill="#3249B3"/>
<path d="M164.113 92.0552H159.529V98.4023H164.113V92.0552Z" fill="white"/>
<path d="M170.462 86.8533H165.879V98.3814H170.462V86.8533Z" fill="white"/>
<path d="M176.835 84.5798H172.252V98.3817H176.835V84.5798Z" fill="white"/>
<path d="M183.206 88.4492H178.623V98.3817H183.206V88.4492Z" fill="white"/>
<path d="M189.579 83.7H184.996V98.3816H189.579V83.7Z" fill="white"/>
<g opacity="0.3">
<g style="mix-blend-mode:multiply" opacity="0.02">
<path d="M156.357 98.0881V97.5222H158.449L162.061 92.9815L165.093 94.5405L173.455 87.277L177.835 92.3481L188.604 83.5542L188.227 83.5473L188.241 82.9814L189.579 83.0089L189.55 84.3904L188.985 84.3778L188.993 83.9677L177.767 93.135L173.398 88.0765L165.174 95.2198L162.215 93.6974L158.722 98.0881H156.357Z" fill="#FAFAFA"/>
</g>
<g style="mix-blend-mode:multiply" opacity="0.05">
<path d="M156.363 98.0847V97.5268H158.453L162.064 92.9873L165.095 94.5463L173.455 87.2839L177.836 92.3538L188.618 83.5508L188.233 83.5439L188.247 82.9861L189.576 83.0136L189.547 84.3859L188.991 84.3733L188.999 83.9586L177.769 93.1282L173.399 88.0709L165.175 95.2141L162.215 93.6918L158.722 98.0847H156.363Z" fill="#F4F4F4"/>
</g>
<g style="mix-blend-mode:multiply" opacity="0.07">
<path d="M156.367 98.0799V97.5312H158.455L162.064 92.9928L165.095 94.5518L173.455 87.2895L177.835 92.3605L188.628 83.546L188.237 83.5392L188.25 82.9905L189.57 83.018L189.543 84.3811L188.995 84.3685L189.003 83.9492L177.769 93.1223L173.4 88.0638L165.174 95.2093L162.213 93.687L158.719 98.0799H156.367Z" fill="#EFEFEF"/>
</g>
<g style="mix-blend-mode:multiply" opacity="0.1">
<path d="M156.371 98.0756V97.5361H158.456L162.065 92.9989L165.095 94.5567L173.454 87.2966L177.834 92.3665L188.64 83.5418L188.241 83.5349L188.254 82.9954L189.565 83.0229L189.538 84.378L188.999 84.3642L189.007 83.9404L177.768 93.1168L173.399 88.0584L165.173 95.2039L162.211 93.6816L158.716 98.0756H156.371Z" fill="#EAE9E9"/>
</g>
<g style="mix-blend-mode:multiply" opacity="0.12">
<path d="M156.377 98.0711V97.5407H158.459L162.067 93.0046L165.096 94.5625L173.454 87.3024L177.835 92.3723L188.653 83.5384L188.247 83.5304L188.259 83L189.562 83.0263L189.534 84.3723L189.004 84.3608L189.012 83.9301L177.771 93.11L173.4 88.0516L165.173 95.1982L162.211 93.6759L158.715 98.0711H156.377Z" fill="#E4E4E4"/>
</g>
<g style="mix-blend-mode:multiply" opacity="0.15">
<path d="M156.381 98.0663V97.544H158.461L162.069 93.0102L165.098 94.5669L173.455 87.308L177.834 92.379L188.666 83.5336L188.252 83.5267L188.264 83.0044L189.558 83.0307L189.53 84.3687L189.009 84.3561L189.018 83.9208L177.771 93.1041L173.402 88.0457L165.173 95.1935L162.211 93.67L158.713 98.0663H156.381Z" fill="#DFDEDE"/>
</g>
<g style="mix-blend-mode:multiply" opacity="0.17">
<path d="M156.385 98.0621V97.5489H158.463L162.069 93.0162L165.097 94.5729L173.454 87.3151L177.834 92.3851L188.677 83.5305L188.256 83.5225L188.267 83.0093L189.554 83.0356L189.526 84.3644L189.013 84.3518L189.021 83.9119L177.771 93.0987L173.401 88.0402L165.172 95.188L162.209 93.6646L158.71 98.0621H156.385Z" fill="#D9D9D9"/>
</g>
<g style="mix-blend-mode:multiply" opacity="0.2">
<path d="M156.389 98.0584V97.5533H158.465L162.07 93.0206L165.098 94.5785L173.452 87.3207L177.832 92.3906L188.689 83.5257L188.26 83.5177L188.271 83.0137L189.548 83.04L189.521 84.3596L189.016 84.347L189.025 83.9026L177.771 93.0916L173.402 88.0332L165.171 95.1821L162.207 93.6586L158.707 98.0584H156.389Z" fill="#D4D3D3"/>
</g>
<g style="mix-blend-mode:multiply" opacity="0.22">
<path d="M156.395 98.0539V97.5579H158.468L162.072 93.0264L165.099 94.5831L173.453 87.3276L177.833 92.3975L188.702 83.5212L188.266 83.5132L188.277 83.0183L189.545 83.0447L189.518 84.3551L189.022 84.3425L189.031 83.8923L177.772 93.0859L173.403 88.0275L165.171 95.1776L162.207 93.653L158.707 98.0539H156.395Z" fill="#CFCECE"/>
</g>
<g style="mix-blend-mode:multiply" opacity="0.24">
<path d="M156.398 98.0491V97.5623H158.47L162.074 93.0319L165.099 94.5886L173.451 87.3332L177.831 92.4031L188.713 83.5176L188.269 83.5095L188.281 83.0227L189.54 83.0479L189.512 84.3503L189.026 84.3389L189.035 83.883L177.773 93.0789L173.402 88.0204L165.169 95.1717L162.205 93.647L158.704 98.0491H156.398Z" fill="#C9C8C9"/>
</g>
<g style="mix-blend-mode:multiply" opacity="0.27">
<path d="M156.402 98.0446V97.5669H158.471L162.074 93.0377L165.099 94.5944L173.451 87.3401L177.831 92.4088L188.725 83.513L188.272 83.505L188.284 83.0273L189.535 83.0525L189.507 84.3458L189.03 84.3343L189.039 83.8739L177.772 93.0732L173.403 88.0148L165.169 95.1672L162.203 93.6425L158.701 98.0446H156.402Z" fill="#C4C3C3"/>
</g>
<g style="mix-blend-mode:multiply" opacity="0.29">
<path d="M156.406 98.0401V97.5704H158.474L162.076 93.0435L165.1 94.5991L173.451 87.3459L177.83 92.4158L188.737 83.5085L188.277 83.5005L188.289 83.032L189.53 83.0572L189.504 84.3413L189.035 84.3298L189.044 83.8647L177.774 93.0675L173.403 88.008L165.168 95.1615L162.203 93.6369L158.7 98.0401H156.406Z" fill="#BFBDBE"/>
</g>
<g style="mix-blend-mode:multiply" opacity="0.32">
<path d="M156.41 98.0355V97.575H158.475L162.076 93.0492L165.101 94.6048L173.449 87.3527L177.829 92.4215L188.749 83.505L188.281 83.4959L188.293 83.0354L189.525 83.0617L189.499 84.3367L189.039 84.3252L189.048 83.8556L177.773 93.0618L173.404 88.0022L165.167 95.1557L162.201 93.6311L158.697 98.0355H156.41Z" fill="#B9B8B8"/>
</g>
<g style="mix-blend-mode:multiply" opacity="0.34">
<path d="M156.416 98.0307V97.5794H158.478L162.079 93.0547L165.102 94.6092L173.451 87.3583L177.829 92.4282L188.762 83.5003L188.287 83.4911L188.298 83.0398L189.522 83.065L189.496 84.3319L189.045 84.3216L189.054 83.8451L177.776 93.0547L173.405 87.9963L165.167 95.151L162.201 93.6252L158.696 98.0307H156.416Z" fill="#B4B3B3"/>
</g>
<g style="mix-blend-mode:multiply" opacity="0.37">
<path d="M156.42 98.0276V97.5843H158.48L162.079 93.0608L165.103 94.6152L173.449 87.3643L177.829 92.4342L188.774 83.496L188.291 83.488L188.301 83.0447L189.517 83.0699L189.49 84.3276L189.049 84.3173L189.058 83.8362L177.775 93.0493L173.404 87.9897L165.167 95.1455L162.199 93.6198L158.693 98.0276H156.42Z" fill="#AFADAD"/>
</g>
<g style="mix-blend-mode:multiply" opacity="0.39">
<path d="M156.424 98.0228V97.5887H158.481L162.08 93.0652L165.102 94.6207L173.448 87.371L177.827 92.4397L188.785 83.4924L188.295 83.4832L188.305 83.0491L189.511 83.0743L189.486 84.3228L189.052 84.3125L189.062 83.8269L177.775 93.0434L173.405 87.9838L165.165 95.1408L162.197 93.6139L158.691 98.0228H156.424Z" fill="#A9A8A8"/>
</g>
<g style="mix-blend-mode:multiply" opacity="0.41">
<path d="M156.43 98.0183V97.5933H158.485L162.082 93.071L165.104 94.6254L173.45 87.3768L177.828 92.4467L188.799 83.4878L188.301 83.4787L188.311 83.0537L189.508 83.0789L189.483 84.3183L189.058 84.308L189.067 83.8177L177.777 93.0366L173.406 87.977L165.165 95.1351L162.198 93.6082L158.69 98.0183H156.43Z" fill="#A4A2A3"/>
</g>
<g style="mix-blend-mode:multiply" opacity="0.44">
<path d="M156.434 98.0135V97.5977H158.487L162.082 93.0765L165.104 94.6309L173.448 87.3834L177.827 92.4522L188.81 83.4831L188.305 83.4739L188.315 83.0581L189.503 83.0822L189.478 84.3136L189.062 84.3044L189.071 83.8072L177.777 93.0307L173.407 87.9711L165.164 95.1292L162.196 93.6034L158.687 98.0135H156.434Z" fill="#9E9D9D"/>
</g>
<g style="mix-blend-mode:multiply" opacity="0.46">
<path d="M156.438 98.0092V97.6014H158.488L162.084 93.0825L165.105 94.6358L173.448 87.3895L177.827 92.4582L188.822 83.4799L188.31 83.4696L188.32 83.063L189.5 83.087L189.474 84.3093L189.067 84.3001L189.076 83.7984L177.778 93.0241L173.407 87.9645L165.164 95.1249L162.195 93.598L158.685 98.0092H156.438Z" fill="#999798"/>
</g>
<g style="mix-blend-mode:multiply" opacity="0.49">
<path d="M156.441 98.0047V97.6061H158.49L162.085 93.0883L165.106 94.6416L173.448 87.3964L177.826 92.464L188.834 83.4754L188.314 83.4663L188.323 83.0676L189.495 83.0917L189.469 84.3059L189.07 84.2956L189.08 83.7893L177.778 93.0184L173.406 87.9588L165.163 95.1192L162.193 93.5923L158.682 98.0047H156.441Z" fill="#949292"/>
</g>
<g style="mix-blend-mode:multiply" opacity="0.51">
<path d="M156.445 98.0011V97.6105H158.492L162.085 93.0938L165.105 94.6471L173.446 87.4019L177.824 92.4707L188.845 83.4706L188.317 83.4615L188.327 83.072L189.489 83.0961L189.464 84.3L189.074 84.2908L189.084 83.7799L177.777 93.0125L173.407 87.9529L165.161 95.1133L162.191 93.5864L158.679 98.0011H156.445Z" fill="#8E8C8D"/>
</g>
<g style="mix-blend-mode:multiply" opacity="0.54">
<path d="M156.451 97.9968V97.6154H158.495L162.087 93.0999L165.108 94.652L173.447 87.408L177.826 92.4767L188.859 83.4675L188.323 83.4572L188.333 83.0769L189.486 83.101L189.461 84.2968L189.08 84.2877L189.09 83.7699L177.779 93.0059L173.408 87.9464L165.163 95.109L162.192 93.581L158.679 97.9968H156.451Z" fill="#898787"/>
</g>
<g style="mix-blend-mode:multiply" opacity="0.56">
<path d="M156.455 97.992V97.6198H158.497L162.088 93.1043L165.107 94.6575L173.445 87.4147L177.824 92.4834L188.87 83.4627L188.327 83.4524L188.335 83.0813L189.481 83.1042L189.456 84.2921L189.084 84.2829L189.094 83.7606L177.779 93L173.409 87.9404L165.161 95.1031L162.189 93.5751L158.676 97.992H156.455Z" fill="#848182"/>
</g>
<g style="mix-blend-mode:multiply" opacity="0.59">
<path d="M156.459 97.9875V97.6244H158.498L162.088 93.11L165.107 94.6622L173.444 87.4204L177.823 92.4892L188.882 83.4582L188.331 83.4491L188.339 83.0859L189.476 83.1088L189.45 84.2875L189.088 84.2784L189.098 83.7515L177.778 92.9944L173.408 87.9336L165.16 95.0986L162.187 93.5694L158.673 97.9875H156.459Z" fill="#7E7C7C"/>
</g>
<g style="mix-blend-mode:multiply" opacity="0.61">
<path d="M156.465 97.9827V97.6287H158.502L162.091 93.1155L165.109 94.6676L173.446 87.4271L177.823 92.4947L188.895 83.4545L188.337 83.4442L188.345 83.0891L189.472 83.1132L189.448 84.2827L189.093 84.2735L189.104 83.742L177.781 92.9872L173.409 87.9276L165.16 95.0926L162.187 93.5634L158.672 97.9827H156.465Z" fill="#797677"/>
</g>
<g style="mix-blend-mode:multiply" opacity="0.63">
<path d="M156.469 97.9782V97.6323H158.505L162.092 93.1214L165.11 94.6735L173.445 87.4329L177.824 92.5017L188.907 83.4501L188.342 83.4398L188.35 83.095L189.468 83.1179L189.444 84.2783L189.099 84.2702L189.109 83.733L177.781 92.9816L173.411 87.922L165.159 95.087L162.186 93.559L158.671 97.9782H156.469Z" fill="#737172"/>
</g>
<g style="mix-blend-mode:multiply" opacity="0.66">
<path d="M156.473 97.9736V97.6368H158.505L162.093 93.1271L165.11 94.6781L173.444 87.4398L177.822 92.5074L188.919 83.4466L188.346 83.4352L188.354 83.0984L189.463 83.1213L189.439 84.2737L189.102 84.2656L189.113 83.7227L177.782 92.9759L173.41 87.9151L165.159 95.0824L162.184 93.5532L158.668 97.9736H156.473Z" fill="#6E6B6C"/>
</g>
<g style="mix-blend-mode:multiply" opacity="0.68">
<path d="M156.477 97.97V97.6412H158.507L162.093 93.1326L165.11 94.6836L173.443 87.4453L177.821 92.5129L188.93 83.4418L188.349 83.4315L188.357 83.1028L189.458 83.1257L189.435 84.2689L189.106 84.2609L189.117 83.7133L177.781 92.9688L173.409 87.9092L165.157 95.0765L162.183 93.5473L158.665 97.97H156.477Z" fill="#696667"/>
</g>
<g style="mix-blend-mode:multiply" opacity="0.71">
<path d="M156.482 97.9655V97.6459H158.51L162.096 93.1384L165.113 94.6894L173.444 87.4511L177.822 92.5198L188.944 83.4373L188.355 83.427L188.363 83.1074L189.454 83.1303L189.431 84.2644L189.112 84.2563L189.122 83.7042L177.784 92.9631L173.412 87.9024L165.158 95.072L162.183 93.5416L158.664 97.9655H156.482Z" fill="#636161"/>
</g>
<g style="mix-blend-mode:multiply" opacity="0.73">
<path d="M156.486 97.9612V97.6508H158.512L162.096 93.1444L165.112 94.6943L173.443 87.4583L177.821 92.5259L188.955 83.433L188.358 83.4227L188.366 83.1123L189.449 83.1352L189.426 84.2601L189.116 84.2532L189.126 83.6954L177.783 92.9577L173.411 87.897L165.156 95.0666L162.181 93.5362L158.662 97.9612H156.486Z" fill="#5E5B5C"/>
</g>
<g style="mix-blend-mode:multiply" opacity="0.76">
<path d="M156.49 97.9564V97.6551H158.514L162.098 93.1488L165.112 94.6998L173.441 87.4638L177.82 92.5314L188.967 83.4294L188.362 83.418L188.37 83.1167L189.444 83.1396L189.421 84.2553L189.12 84.2484L189.13 83.6849L177.783 92.9507L173.412 87.8899L165.156 95.0606L162.179 93.5303L158.659 97.9564H156.49Z" fill="#595656"/>
</g>
<g style="mix-blend-mode:multiply" opacity="0.78">
<path d="M156.494 97.9519V97.6586H158.516L162.1 93.1546L165.113 94.7045L173.442 87.4707L177.819 92.5383L188.98 83.4249L188.367 83.4134L188.374 83.1213L189.441 83.1431L189.417 84.2508L189.124 84.2439L189.135 83.6758L177.784 92.945L173.412 87.8842L165.155 95.0561L162.178 93.5246L158.657 97.9519H156.494Z" fill="#535051"/>
</g>
<g style="mix-blend-mode:multiply" opacity="0.8">
<path d="M156.498 97.9471V97.663H158.517L162.1 93.1601L165.113 94.71L173.441 87.4763L177.819 92.5439L188.99 83.4201L188.371 83.4098L188.378 83.1257L189.436 83.1475L189.413 84.246L189.128 84.2391L189.139 83.6664L177.784 92.9391L173.411 87.8772L165.154 95.0502L162.177 93.5198L158.654 97.9471H156.498Z" fill="#4E4B4C"/>
</g>
<g style="mix-blend-mode:multiply" opacity="0.83">
<path d="M156.504 97.9428V97.6679H158.52L162.102 93.1662L165.115 94.7149L173.441 87.4834L177.819 92.5499L189.004 83.417L188.377 83.4055L188.384 83.1306L189.432 83.1524L189.409 84.2417L189.134 84.236L189.145 83.6575L177.786 92.9325L173.414 87.8718L165.155 95.0459L162.177 93.5144L158.653 97.9428H156.504Z" fill="#494546"/>
</g>
<g style="mix-blend-mode:multiply" opacity="0.85">
<path d="M156.508 97.9392V97.6723H158.522L162.103 93.1717L165.115 94.7204L173.441 87.489L177.818 92.5566L189.015 83.4122L188.381 83.4008L188.388 83.135L189.427 83.1556L189.404 84.237L189.138 84.2312L189.149 83.647L177.786 92.9266L173.413 87.8659L165.153 95.04L162.175 93.5085L158.65 97.9392H156.508Z" fill="#434041"/>
</g>
<g style="mix-blend-mode:multiply" opacity="0.88">
<path d="M156.512 97.9347V97.677H158.524L162.103 93.1775L165.115 94.7262L173.439 87.4948L177.816 92.5624L189.027 83.4088L188.385 83.3962L188.391 83.1396L189.422 83.1603L189.399 84.2324L189.141 84.2267L189.153 83.6379L177.785 92.9209L173.414 87.859L165.152 95.0343L162.173 93.5028L158.648 97.9347H156.512Z" fill="#3E3A3B"/>
</g>
<g style="mix-blend-mode:multiply" opacity="0.9">
<path d="M156.518 97.9299V97.6814H158.527L162.106 93.1819L165.117 94.7306L173.44 87.5015L177.818 92.5679L189.04 83.4041L188.391 83.3915L188.397 83.144L189.419 83.1647L189.397 84.2277L189.147 84.2219L189.159 83.6286L177.787 92.9139L173.415 87.8531L165.152 95.0296L162.173 93.4969L158.647 97.9299H156.518Z" fill="#383536"/>
</g>
<g style="mix-blend-mode:multiply" opacity="0.93">
<path d="M156.521 97.9256V97.6862H158.529L162.106 93.1879L165.117 94.7366L173.439 87.5075L177.816 92.5751L189.052 83.3998L188.395 83.3883L188.401 83.1489L189.413 83.1695L189.392 84.2245L189.151 84.2188L189.163 83.6197L177.787 92.9084L173.414 87.8465L165.152 95.0241L162.171 93.4915L158.644 97.9256H156.521Z" fill="#332F30"/>
</g>
<g style="mix-blend-mode:multiply" opacity="0.95">
<path d="M156.525 97.9209V97.6895H158.532L162.108 93.1935L165.118 94.7422L173.439 87.5142L177.816 92.5806L189.065 83.3962L188.4 83.3836L188.406 83.1533L189.409 83.1739L189.387 84.2198L189.156 84.214L189.168 83.6104L177.788 92.9025L173.416 87.8406L165.151 95.0194L162.171 93.4856L158.643 97.9209H156.525Z" fill="#2E2A2B"/>
</g>
<g style="mix-blend-mode:multiply" opacity="0.98">
<path d="M156.529 97.9165V97.6943H158.533L162.108 93.1994L165.118 94.747L173.438 87.5201L177.814 92.5877L189.076 83.3918L188.404 83.3792L188.408 83.157L189.404 83.1776L189.382 84.2154L189.16 84.2097L189.172 83.6003L177.788 92.8959L173.415 87.834L165.15 95.0139L162.169 93.4801L158.64 97.9165H156.529Z" fill="#282425"/>
</g>
<g style="mix-blend-mode:multiply">
<path d="M156.535 97.9129V97.6987H158.536L162.111 93.205L165.119 94.7525L173.438 87.5268L177.816 92.5933L189.089 83.387L188.41 83.3744L188.414 83.1614L189.401 83.182L189.38 84.2106L189.166 84.2049L189.178 83.5909L177.789 92.89L173.418 87.8281L165.15 95.0079L162.169 93.4753L158.639 97.9129H156.535Z" fill="#231F20"/>
</g>
</g>
<path d="M188.327 82.2544L188.313 82.8294L188.682 82.8363L177.926 91.6199L173.546 86.5488L165.182 93.8135L162.151 92.2545L158.538 96.7951H156.443V97.3702H158.815L162.307 92.9807L165.266 94.5019L173.487 87.361L177.857 92.4183L189.078 83.2544L189.071 83.6588L189.645 83.6725L189.674 82.283L188.327 82.2544Z" fill="#FEC55E"/>
<path d="M156.688 80.2705H156.113V100.43H156.688V80.2705Z" fill="#6981F1"/>
<path d="M190.681 98.1147H154.443V98.6898H190.681V98.1147Z" fill="#6981F1"/>
<path d="M109.269 137H19.7295C17.9447 137 16.233 136.202 14.971 134.78C13.709 133.359 13 131.432 13 129.422C13 129.28 13 129.139 13.0106 129C13.106 130.934 13.8554 132.754 15.105 134.085C16.3545 135.416 18.0093 136.158 19.7295 136.158H109.269C110.989 136.158 112.644 135.416 113.894 134.085C115.143 132.754 115.893 130.934 115.988 129C115.988 129.139 116 129.28 116 129.422C116 131.432 115.29 133.359 114.028 134.78C112.766 136.202 111.054 137 109.269 137Z" fill="#5F6574"/>
<path d="M109.269 123.623H19.7295C17.9988 123.623 16.3348 124.286 15.0831 125.473C13.8314 126.661 13.0882 128.282 13.008 130C13.008 129.896 13 129.793 13 129.689C13 127.915 13.709 126.214 14.9709 124.96C16.2329 123.705 17.9446 123 19.7295 123H109.269C111.054 123 112.766 123.705 114.028 124.959C115.29 126.214 116 127.915 116 129.689C116 129.793 116 129.896 115.992 130C115.911 128.282 115.168 126.661 113.916 125.473C112.664 124.286 111 123.623 109.269 123.623Z" fill="#292F3D"/>
<path d="M60.4793 131H20.5207C19.6809 131 19 130.366 19 129.585V129.415C19 128.634 19.6809 128 20.5207 128H60.4793C61.3191 128 62 128.634 62 129.415V129.585C62 130.366 61.3191 131 60.4793 131Z" fill="#373F51"/>
<path d="M67.5568 128H94.4432C95.303 128 96 128.634 96 129.415V129.585C96 130.366 95.303 131 94.4432 131H67.5568C66.697 131 66 130.366 66 129.585V129.415C66 128.634 66.697 128 67.5568 128Z" fill="#373F51"/>
</g>
<defs>
<radialGradient id="paint0_radial_23_5442" cx="0" cy="0" r="1" gradientUnits="userSpaceOnUse" gradientTransform="translate(10.5077 7.39528) scale(2.52916 2.53151)">
<stop offset="0.51"/>
<stop offset="0.52" stop-color="#0A0A0A"/>
<stop offset="0.58" stop-color="#4A4A4A"/>
<stop offset="0.65" stop-color="#818181"/>
<stop offset="0.71" stop-color="#AEAEAE"/>
<stop offset="0.77" stop-color="#D1D1D1"/>
<stop offset="0.82" stop-color="#EAEAEA"/>
<stop offset="0.87" stop-color="#FAFAFA"/>
<stop offset="0.91" stop-color="white"/>
</radialGradient>
<radialGradient id="paint1_radial_23_5442" cx="0" cy="0" r="1" gradientUnits="userSpaceOnUse" gradientTransform="translate(19.3202 7.39528) scale(2.52916 2.53151)">
<stop offset="0.51"/>
<stop offset="0.52" stop-color="#0A0A0A"/>
<stop offset="0.58" stop-color="#4A4A4A"/>
<stop offset="0.65" stop-color="#818181"/>
<stop offset="0.71" stop-color="#AEAEAE"/>
<stop offset="0.77" stop-color="#D1D1D1"/>
<stop offset="0.82" stop-color="#EAEAEA"/>
<stop offset="0.87" stop-color="#FAFAFA"/>
<stop offset="0.91" stop-color="white"/>
</radialGradient>
<radialGradient id="paint2_radial_23_5442" cx="0" cy="0" r="1" gradientUnits="userSpaceOnUse" gradientTransform="translate(28.1346 7.39528) scale(2.52916 2.53151)">
<stop offset="0.51"/>
<stop offset="0.52" stop-color="#0A0A0A"/>
<stop offset="0.58" stop-color="#4A4A4A"/>
<stop offset="0.65" stop-color="#818181"/>
<stop offset="0.71" stop-color="#AEAEAE"/>
<stop offset="0.77" stop-color="#D1D1D1"/>
<stop offset="0.82" stop-color="#EAEAEA"/>
<stop offset="0.87" stop-color="#FAFAFA"/>
<stop offset="0.91" stop-color="white"/>
</radialGradient>
<radialGradient id="paint3_radial_23_5442" cx="0" cy="0" r="1" gradientUnits="userSpaceOnUse" gradientTransform="translate(150.812 50.1868) scale(8.14382 8.15136)">
<stop offset="0.36"/>
<stop offset="0.37" stop-color="#0A0A0A"/>
<stop offset="0.46" stop-color="#4A4A4A"/>
<stop offset="0.55" stop-color="#818181"/>
<stop offset="0.63" stop-color="#AEAEAE"/>
<stop offset="0.71" stop-color="#D1D1D1"/>
<stop offset="0.79" stop-color="#EAEAEA"/>
<stop offset="0.86" stop-color="#FAFAFA"/>
<stop offset="0.91" stop-color="white"/>
</radialGradient>
<radialGradient id="paint4_radial_23_5442" cx="0" cy="0" r="1" gradientUnits="userSpaceOnUse" gradientTransform="translate(150.811 83.109) scale(8.14382 8.15136)">
<stop offset="0.36"/>
<stop offset="0.37" stop-color="#0A0A0A"/>
<stop offset="0.46" stop-color="#4A4A4A"/>
<stop offset="0.55" stop-color="#818181"/>
<stop offset="0.63" stop-color="#AEAEAE"/>
<stop offset="0.71" stop-color="#D1D1D1"/>
<stop offset="0.79" stop-color="#EAEAEA"/>
<stop offset="0.86" stop-color="#FAFAFA"/>
<stop offset="0.91" stop-color="white"/>
</radialGradient>
<radialGradient id="paint5_radial_23_5442" cx="0" cy="0" r="1" gradientUnits="userSpaceOnUse" gradientTransform="translate(150.812 115.805) scale(8.14382 8.15136)">
<stop offset="0.36"/>
<stop offset="0.37" stop-color="#0A0A0A"/>
<stop offset="0.46" stop-color="#4A4A4A"/>
<stop offset="0.55" stop-color="#818181"/>
<stop offset="0.63" stop-color="#AEAEAE"/>
<stop offset="0.71" stop-color="#D1D1D1"/>
<stop offset="0.79" stop-color="#EAEAEA"/>
<stop offset="0.86" stop-color="#FAFAFA"/>
<stop offset="0.91" stop-color="white"/>
</radialGradient>
<radialGradient id="paint6_radial_23_5442" cx="0" cy="0" r="1" gradientUnits="userSpaceOnUse" gradientTransform="translate(46.721 43.0734) scale(1.58848 1.58996)">
<stop offset="0.51"/>
<stop offset="0.52" stop-color="#0A0A0A"/>
<stop offset="0.58" stop-color="#4A4A4A"/>
<stop offset="0.65" stop-color="#818181"/>
<stop offset="0.71" stop-color="#AEAEAE"/>
<stop offset="0.77" stop-color="#D1D1D1"/>
<stop offset="0.82" stop-color="#EAEAEA"/>
<stop offset="0.87" stop-color="#FAFAFA"/>
<stop offset="0.91" stop-color="white"/>
</radialGradient>
<radialGradient id="paint7_radial_23_5442" cx="0" cy="0" r="1" gradientUnits="userSpaceOnUse" gradientTransform="translate(51.2672 43.0703) scale(1.58848 1.58996)">
<stop offset="0.51"/>
<stop offset="0.52" stop-color="#0A0A0A"/>
<stop offset="0.58" stop-color="#4A4A4A"/>
<stop offset="0.65" stop-color="#818181"/>
<stop offset="0.71" stop-color="#AEAEAE"/>
<stop offset="0.77" stop-color="#D1D1D1"/>
<stop offset="0.82" stop-color="#EAEAEA"/>
<stop offset="0.87" stop-color="#FAFAFA"/>
<stop offset="0.91" stop-color="white"/>
</radialGradient>
<radialGradient id="paint8_radial_23_5442" cx="0" cy="0" r="1" gradientUnits="userSpaceOnUse" gradientTransform="translate(55.8198 43.0731) scale(1.58848 1.58996)">
<stop offset="0.51"/>
<stop offset="0.52" stop-color="#0A0A0A"/>
<stop offset="0.58" stop-color="#4A4A4A"/>
<stop offset="0.65" stop-color="#818181"/>
<stop offset="0.71" stop-color="#AEAEAE"/>
<stop offset="0.77" stop-color="#D1D1D1"/>
<stop offset="0.82" stop-color="#EAEAEA"/>
<stop offset="0.87" stop-color="#FAFAFA"/>
<stop offset="0.91" stop-color="white"/>
</radialGradient>
<radialGradient id="paint9_radial_23_5442" cx="0" cy="0" r="1" gradientUnits="userSpaceOnUse" gradientTransform="translate(149.29 59.7434) scale(0.954451 0.955331)">
<stop offset="0.51"/>
<stop offset="0.52" stop-color="#0A0A0A"/>
<stop offset="0.58" stop-color="#4A4A4A"/>
<stop offset="0.65" stop-color="#818181"/>
<stop offset="0.71" stop-color="#AEAEAE"/>
<stop offset="0.77" stop-color="#D1D1D1"/>
<stop offset="0.82" stop-color="#EAEAEA"/>
<stop offset="0.87" stop-color="#FAFAFA"/>
<stop offset="0.91" stop-color="white"/>
</radialGradient>
<radialGradient id="paint10_radial_23_5442" cx="0" cy="0" r="1" gradientUnits="userSpaceOnUse" gradientTransform="translate(152.078 59.7389) scale(0.954448 0.955335)">
<stop offset="0.51"/>
<stop offset="0.52" stop-color="#0A0A0A"/>
<stop offset="0.58" stop-color="#4A4A4A"/>
<stop offset="0.65" stop-color="#818181"/>
<stop offset="0.71" stop-color="#AEAEAE"/>
<stop offset="0.77" stop-color="#D1D1D1"/>
<stop offset="0.82" stop-color="#EAEAEA"/>
<stop offset="0.87" stop-color="#FAFAFA"/>
<stop offset="0.91" stop-color="white"/>
</radialGradient>
<radialGradient id="paint11_radial_23_5442" cx="0" cy="0" r="1" gradientUnits="userSpaceOnUse" gradientTransform="translate(154.853 59.7434) scale(0.954444 0.955331)">
<stop offset="0.51"/>
<stop offset="0.52" stop-color="#0A0A0A"/>
<stop offset="0.58" stop-color="#4A4A4A"/>
<stop offset="0.65" stop-color="#818181"/>
<stop offset="0.71" stop-color="#AEAEAE"/>
<stop offset="0.77" stop-color="#D1D1D1"/>
<stop offset="0.82" stop-color="#EAEAEA"/>
<stop offset="0.87" stop-color="#FAFAFA"/>
<stop offset="0.91" stop-color="white"/>
</radialGradient>
<clipPath id="clip0_23_5442">
<rect width="227" height="162.19" fill="white"/>
</clipPath>
</defs>
</svg>
