<svg width="271" height="172" viewBox="0 0 271 172" fill="none" xmlns="http://www.w3.org/2000/svg">
<g clip-path="url(#clip0_89_1533)">
<g opacity="0.6">
<path d="M249.341 167.074C248.576 167.089 247.82 166.902 247.149 166.533L158.822 115.562C158.321 115.278 157.882 114.898 157.529 114.443C157.176 113.989 156.917 113.469 156.766 112.914C156.615 112.359 156.575 111.78 156.65 111.21C156.724 110.64 156.91 110.09 157.198 109.592C157.486 109.094 157.87 108.658 158.327 108.309C158.785 107.96 159.307 107.704 159.864 107.557C160.421 107.41 161.001 107.375 161.571 107.453C162.142 107.531 162.691 107.72 163.188 108.011L251.516 158.939C252.349 159.419 253 160.161 253.368 161.048C253.735 161.936 253.799 162.919 253.549 163.847C253.299 164.774 252.75 165.593 251.985 166.177C251.221 166.76 250.286 167.076 249.324 167.074H249.341Z" fill="#020230" fill-opacity="0.3"/>
</g>
<path d="M249.542 7.3851C250.034 7.13407 250.579 7.00317 251.131 7.00317C251.684 7.00317 252.229 7.13407 252.721 7.3851L254.284 8.257C254.475 8.32242 254.641 8.44582 254.758 8.60997C254.876 8.77411 254.939 8.97078 254.939 9.17249C254.939 9.37421 254.876 9.57088 254.758 9.73502C254.641 9.89916 254.475 10.0226 254.284 10.088C253.792 10.339 253.247 10.4699 252.694 10.4699C252.142 10.4699 251.597 10.339 251.105 10.088L249.542 9.21609C249.351 9.15067 249.185 9.02726 249.067 8.86312C248.95 8.69898 248.887 8.50231 248.887 8.30059C248.887 8.09888 248.95 7.90221 249.067 7.73806C249.185 7.57392 249.351 7.45052 249.542 7.3851Z" fill="#E8975B"/>
<path d="M234.678 6.6788C235.171 6.42777 235.715 6.29688 236.268 6.29688C236.82 6.29687 237.365 6.42777 237.857 6.6788L247.464 12.2154C247.658 12.2788 247.827 12.4019 247.947 12.5671C248.067 12.7323 248.132 12.9312 248.132 13.1352C248.132 13.3393 248.067 13.5381 247.947 13.7033C247.827 13.8685 247.658 13.9916 247.464 14.0551C246.972 14.3061 246.427 14.437 245.874 14.437C245.322 14.437 244.777 14.3061 244.285 14.0551L234.678 8.50979C234.487 8.44437 234.321 8.32096 234.204 8.15682C234.087 7.99268 234.023 7.79601 234.023 7.59429C234.023 7.39258 234.087 7.19591 234.204 7.03177C234.321 6.86762 234.487 6.74422 234.678 6.6788Z" fill="#E8975B"/>
<path d="M205.038 28.8599C205.53 28.6089 206.075 28.478 206.628 28.478C207.18 28.478 207.725 28.6089 208.217 28.8599L213.457 31.8506C213.648 31.916 213.814 32.0394 213.932 32.2035C214.049 32.3677 214.112 32.5644 214.112 32.7661C214.112 32.9678 214.049 33.1645 213.932 33.3286C213.814 33.4927 213.648 33.6161 213.457 33.6816C212.965 33.9326 212.42 34.0635 211.868 34.0635C211.315 34.0635 210.77 33.9326 210.278 33.6816L205.082 30.6909C204.889 30.6302 204.72 30.5108 204.599 30.3494C204.477 30.1881 204.409 29.9928 204.405 29.791C204.4 29.5892 204.458 29.391 204.572 29.224C204.686 29.0571 204.849 28.9298 205.038 28.8599Z" fill="#E8975B"/>
<path opacity="0.4" d="M212.496 25.2852C212.992 25.0283 213.543 24.8943 214.103 24.8943C214.662 24.8943 215.213 25.0283 215.71 25.2852L220.26 27.9009C220.451 27.9663 220.617 28.0897 220.734 28.2539C220.851 28.418 220.915 28.6147 220.915 28.8164C220.915 29.0181 220.851 29.2148 220.734 29.3789C220.617 29.5431 220.451 29.6665 220.26 29.7319C219.768 29.9829 219.223 30.1138 218.67 30.1138C218.118 30.1138 217.573 29.9829 217.081 29.7319L212.531 27.1162C212.342 27.0504 212.178 26.9286 212.061 26.7671C211.944 26.6056 211.879 26.4122 211.875 26.2128C211.871 26.0134 211.929 25.8177 212.04 25.6518C212.151 25.486 212.31 25.358 212.496 25.2852Z" fill="#E8975B"/>
<path opacity="0.4" d="M203.116 12.0235C203.608 11.7725 204.153 11.6416 204.705 11.6416C205.258 11.6416 205.803 11.7725 206.295 12.0235L227.062 24.0035C227.253 24.0689 227.419 24.1923 227.537 24.3564C227.654 24.5206 227.717 24.7172 227.717 24.9189C227.717 25.1207 227.654 25.3173 227.537 25.4815C227.419 25.6456 227.253 25.769 227.062 25.8344C226.57 26.0855 226.026 26.2164 225.473 26.2164C224.92 26.2164 224.376 26.0855 223.883 25.8344L203.116 13.8545C202.925 13.7891 202.759 13.6657 202.642 13.5015C202.524 13.3374 202.461 13.1407 202.461 12.939C202.461 12.7373 202.524 12.5406 202.642 12.3765C202.759 12.2124 202.925 12.0889 203.116 12.0235Z" fill="#E8975B"/>
<path d="M223.091 15.6942C223.583 15.4431 224.127 15.3123 224.68 15.3123C225.233 15.3123 225.777 15.4431 226.269 15.6942L233.85 20.0537C234.041 20.1191 234.207 20.2425 234.324 20.4067C234.442 20.5708 234.505 20.7675 234.505 20.9692C234.505 21.1709 234.442 21.3676 234.324 21.5317C234.207 21.6959 234.041 21.8193 233.85 21.8847C233.358 22.1357 232.813 22.2666 232.26 22.2666C231.708 22.2666 231.163 22.1357 230.671 21.8847L223.091 17.5252C222.899 17.4598 222.734 17.3363 222.616 17.1722C222.499 17.0081 222.436 16.8114 222.436 16.6097C222.436 16.408 222.499 16.2113 222.616 16.0471C222.734 15.883 222.899 15.7596 223.091 15.6942Z" fill="#E8975B"/>
<path d="M232.94 13.5233C233.432 13.2722 233.977 13.1414 234.53 13.1414C235.082 13.1414 235.627 13.2722 236.119 13.5233L240.66 16.139C240.851 16.2044 241.017 16.3278 241.135 16.492C241.252 16.6561 241.315 16.8528 241.315 17.0545C241.315 17.2562 241.252 17.4529 241.135 17.617C241.017 17.7811 240.851 17.9046 240.66 17.97C240.168 18.221 239.623 18.3519 239.071 18.3519C238.518 18.3519 237.973 18.221 237.481 17.97L232.94 15.3543C232.749 15.2889 232.583 15.1654 232.466 15.0013C232.348 14.8372 232.285 14.6405 232.285 14.4388C232.285 14.2371 232.348 14.0404 232.466 13.8762C232.583 13.7121 232.749 13.5887 232.94 13.5233Z" fill="#E8975B"/>
<path d="M208.663 30.9352C209.156 30.6827 209.702 30.551 210.256 30.551C210.811 30.551 211.357 30.6827 211.85 30.9352L213.413 31.8507C213.605 31.9161 213.77 32.0395 213.888 32.2036C214.005 32.3678 214.068 32.5645 214.068 32.7662C214.068 32.9679 214.005 33.1646 213.888 33.3287C213.77 33.4928 213.605 33.6162 213.413 33.6817C212.921 33.9327 212.377 34.0636 211.824 34.0636C211.271 34.0636 210.727 33.9327 210.235 33.6817L208.663 32.8098C208.46 32.7505 208.281 32.6271 208.154 32.4581C208.028 32.2892 207.959 32.0837 207.959 31.8725C207.959 31.6613 208.028 31.4558 208.154 31.2868C208.281 31.1178 208.46 30.9944 208.663 30.9352Z" fill="#E8975B"/>
<path opacity="0.4" d="M182.673 23.8028C183.165 23.5518 183.709 23.4209 184.262 23.4209C184.815 23.4209 185.359 23.5518 185.851 23.8028L206.602 35.7479C206.793 35.8133 206.959 35.9367 207.076 36.1008C207.193 36.265 207.257 36.4617 207.257 36.6634C207.257 36.8651 207.193 37.0618 207.076 37.2259C206.959 37.39 206.793 37.5134 206.602 37.5789C206.109 37.8299 205.565 37.9608 205.012 37.9608C204.459 37.9608 203.915 37.8299 203.423 37.5789L182.673 25.6338C182.481 25.5684 182.316 25.445 182.198 25.2808C182.081 25.1167 182.018 24.92 182.018 24.7183C182.018 24.5166 182.081 24.3199 182.198 24.1558C182.316 23.9916 182.481 23.8682 182.673 23.8028Z" fill="#E8975B"/>
<path d="M153.032 45.984C153.524 45.7329 154.069 45.6021 154.621 45.6021C155.174 45.6021 155.719 45.7329 156.211 45.984L172.533 55.4092C172.724 55.4746 172.89 55.5981 173.008 55.7622C173.125 55.9263 173.188 56.123 173.188 56.3247C173.188 56.5264 173.125 56.7231 173.008 56.8872C172.89 57.0514 172.724 57.1748 172.533 57.2402C172.041 57.4913 171.496 57.6221 170.944 57.6221C170.391 57.6221 169.846 57.4913 169.354 57.2402L153.032 47.815C152.841 47.7495 152.675 47.6261 152.558 47.462C152.44 47.2979 152.377 47.1012 152.377 46.8995C152.377 46.6978 152.44 46.5011 152.558 46.3369C152.675 46.1728 152.841 46.0494 153.032 45.984Z" fill="#E8975B"/>
<path d="M171.626 48.8265C172.118 48.5755 172.663 48.4446 173.215 48.4446C173.768 48.4446 174.312 48.5755 174.805 48.8265L179.346 51.4422C179.537 51.5076 179.703 51.631 179.82 51.7952C179.938 51.9593 180.001 52.156 180.001 52.3577C180.001 52.5594 179.938 52.7561 179.82 52.9202C179.703 53.0844 179.537 53.2078 179.346 53.2732C178.854 53.5242 178.309 53.6551 177.756 53.6551C177.204 53.6551 176.659 53.5242 176.167 53.2732L171.626 50.6575C171.435 50.5921 171.269 50.4687 171.151 50.3045C171.034 50.1404 170.971 49.9437 170.971 49.742C170.971 49.5403 171.034 49.3436 171.151 49.1795C171.269 49.0153 171.435 48.8919 171.626 48.8265Z" fill="#E8975B"/>
<path d="M173.362 42.0169C173.854 41.7659 174.399 41.635 174.951 41.635C175.504 41.635 176.049 41.7659 176.541 42.0169L186.147 47.5535C186.339 47.6189 186.504 47.7423 186.622 47.9065C186.739 48.0706 186.802 48.2673 186.802 48.469C186.802 48.6707 186.739 48.8674 186.622 49.0315C186.504 49.1957 186.339 49.3191 186.147 49.3845C185.655 49.6355 185.111 49.7664 184.558 49.7664C184.005 49.7664 183.461 49.6355 182.969 49.3845L173.362 43.8479C173.171 43.7825 173.005 43.6591 172.888 43.495C172.77 43.3308 172.707 43.1341 172.707 42.9324C172.707 42.7307 172.77 42.534 172.888 42.3699C173.005 42.2058 173.171 42.0824 173.362 42.0169Z" fill="#E8975B"/>
<path d="M182.218 39.2357C182.71 38.9847 183.255 38.8538 183.808 38.8538C184.36 38.8538 184.905 38.9847 185.397 39.2357L193.004 43.5952C193.195 43.6606 193.361 43.784 193.478 43.9482C193.596 44.1123 193.659 44.309 193.659 44.5107C193.659 44.7124 193.596 44.9091 193.478 45.0732C193.361 45.2374 193.195 45.3608 193.004 45.4262C192.512 45.6772 191.967 45.8081 191.414 45.8081C190.862 45.8081 190.317 45.6772 189.825 45.4262L182.253 41.0667C182.061 41.005 181.892 40.8848 181.772 40.7228C181.651 40.5609 181.584 40.3654 181.58 40.1636C181.576 39.9619 181.636 39.764 181.75 39.5976C181.865 39.4312 182.028 39.3047 182.218 39.2357Z" fill="#E8975B"/>
<path d="M180.934 30.6473C181.426 30.3963 181.971 30.2654 182.524 30.2654C183.076 30.2654 183.621 30.3963 184.113 30.6473L199.833 39.7064C200.024 39.7718 200.19 39.8952 200.307 40.0593C200.425 40.2235 200.488 40.4201 200.488 40.6219C200.488 40.8236 200.425 41.0202 200.307 41.1844C200.19 41.3485 200.024 41.4719 199.833 41.5374C199.341 41.7884 198.796 41.9193 198.243 41.9193C197.691 41.9193 197.146 41.7884 196.654 41.5374L180.934 32.4783C180.743 32.4129 180.577 32.2895 180.46 32.1253C180.342 31.9612 180.279 31.7645 180.279 31.5628C180.279 31.3611 180.342 31.1644 180.46 31.0003C180.577 30.8361 180.743 30.7127 180.934 30.6473Z" fill="#E8975B"/>
<path d="M156.665 48.0593C157.538 47.5536 170.088 53.9882 170.97 54.4939L172.533 55.3658C172.727 55.4293 172.897 55.5524 173.017 55.7176C173.137 55.8828 173.201 56.0816 173.201 56.2857C173.201 56.4897 173.137 56.6886 173.017 56.8538C172.897 57.019 172.727 57.1421 172.533 57.2055C172.041 57.4566 171.496 57.5875 170.944 57.5875C170.391 57.5875 169.846 57.4566 169.354 57.2055L167.791 56.29C166.909 55.8018 155.783 48.565 156.665 48.0593Z" fill="#E8975B"/>
<path d="M152.926 53.7877C153.419 53.5367 153.963 53.4058 154.516 53.4058C155.069 53.4058 155.613 53.5367 156.105 53.7877L165.712 59.333C165.903 59.3984 166.069 59.5218 166.186 59.6859C166.304 59.8501 166.367 60.0468 166.367 60.2485C166.367 60.4502 166.304 60.6469 166.186 60.811C166.069 60.9751 165.903 61.0986 165.712 61.164C165.22 61.415 164.675 61.5459 164.122 61.5459C163.57 61.5459 163.025 61.415 162.533 61.164L152.926 55.6187C152.735 55.5533 152.569 55.4299 152.452 55.2657C152.335 55.1016 152.271 54.9049 152.271 54.7032C152.271 54.5015 152.335 54.3048 152.452 54.1407C152.569 53.9765 152.735 53.8531 152.926 53.7877Z" fill="#E8975B"/>
<path d="M123.286 75.9688C123.779 75.7178 124.323 75.5869 124.876 75.5869C125.429 75.5869 125.973 75.7178 126.465 75.9688L131.662 78.9682C131.853 79.0336 132.019 79.157 132.136 79.3211C132.253 79.4853 132.317 79.682 132.317 79.8837C132.317 80.0854 132.253 80.2821 132.136 80.4462C132.019 80.6103 131.853 80.7338 131.662 80.7992C131.169 81.0502 130.625 81.1811 130.072 81.1811C129.52 81.1811 128.975 81.0502 128.483 80.7992L123.243 77.8085C123.05 77.7407 122.883 77.6136 122.767 77.4455C122.651 77.2775 122.591 77.077 122.596 76.8729C122.601 76.6687 122.67 76.4714 122.794 76.309C122.918 76.1466 123.091 76.0275 123.286 75.9688Z" fill="#E8975B"/>
<path d="M130.744 72.4203C131.236 72.1692 131.781 72.0383 132.334 72.0383C132.886 72.0383 133.431 72.1692 133.923 72.4203L138.473 75.036C138.663 75.1036 138.828 75.2283 138.944 75.393C139.06 75.5577 139.123 75.7543 139.123 75.9558C139.123 76.1573 139.06 76.3539 138.944 76.5186C138.828 76.6833 138.663 76.808 138.473 76.8757C137.981 77.1267 137.436 77.2576 136.884 77.2576C136.331 77.2576 135.786 77.1267 135.294 76.8757L130.744 74.26C130.55 74.1965 130.381 74.0734 130.261 73.9082C130.141 73.743 130.076 73.5442 130.076 73.3401C130.076 73.1361 130.141 72.9372 130.261 72.772C130.381 72.6068 130.55 72.4837 130.744 72.4203Z" fill="#E8975B"/>
<path d="M132.491 65.567C132.983 65.316 133.528 65.1851 134.08 65.1851C134.633 65.1851 135.178 65.316 135.67 65.567L145.276 71.1123C145.467 71.1777 145.633 71.3011 145.751 71.4652C145.868 71.6294 145.931 71.8261 145.931 72.0278C145.931 72.2295 145.868 72.4262 145.751 72.5903C145.633 72.7544 145.467 72.8779 145.276 72.9433C144.784 73.1943 144.24 73.3252 143.687 73.3252C143.134 73.3252 142.59 73.1943 142.097 72.9433L132.491 67.398C132.3 67.3326 132.134 67.2091 132.017 67.045C131.899 66.8809 131.836 66.6842 131.836 66.4825C131.836 66.2808 131.899 66.0841 132.017 65.92C132.134 65.7558 132.3 65.6324 132.491 65.567Z" fill="#E8975B"/>
<path d="M141.339 62.8204C141.831 62.5694 142.375 62.4385 142.928 62.4385C143.481 62.4385 144.025 62.5694 144.517 62.8204L152.098 67.1799C152.289 67.2453 152.455 67.3687 152.572 67.5329C152.69 67.697 152.753 67.8937 152.753 68.0954C152.753 68.2971 152.69 68.4938 152.572 68.6579C152.455 68.8221 152.289 68.9455 152.098 69.0109C151.606 69.2619 151.061 69.3928 150.508 69.3928C149.956 69.3928 149.411 69.2619 148.919 69.0109L141.339 64.6514C141.147 64.586 140.982 64.4626 140.864 64.2984C140.747 64.1343 140.684 63.9376 140.684 63.7359C140.684 63.5342 140.747 63.3375 140.864 63.1734C140.982 63.0092 141.147 62.8858 141.339 62.8204Z" fill="#E8975B"/>
<path d="M151.19 60.6407C151.682 60.3897 152.227 60.2588 152.78 60.2588C153.332 60.2588 153.877 60.3897 154.369 60.6407L158.91 63.2564C159.101 63.3218 159.267 63.4452 159.385 63.6094C159.502 63.7735 159.565 63.9702 159.565 64.1719C159.565 64.3736 159.502 64.5703 159.385 64.7344C159.267 64.8986 159.101 65.022 158.91 65.0874C158.418 65.3384 157.873 65.4693 157.321 65.4693C156.768 65.4693 156.224 65.3384 155.731 65.0874L151.19 62.4717C150.999 62.4063 150.833 62.2829 150.716 62.1187C150.598 61.9546 150.535 61.7579 150.535 61.5562C150.535 61.3545 150.598 61.1578 150.716 60.9937C150.833 60.8295 150.999 60.7061 151.19 60.6407Z" fill="#E8975B"/>
<path d="M126.911 78.0614C127.404 77.8089 127.95 77.6772 128.505 77.6772C129.059 77.6772 129.605 77.8089 130.098 78.0614L131.662 78.9333C131.853 78.9987 132.019 79.1221 132.136 79.2863C132.254 79.4504 132.317 79.6471 132.317 79.8488C132.317 80.0505 132.254 80.2472 132.136 80.4113C132.019 80.5755 131.853 80.6989 131.662 80.7643C131.17 81.0153 130.625 81.1462 130.072 81.1462C129.52 81.1462 128.975 81.0153 128.483 80.7643L126.911 79.8924C126.72 79.827 126.554 79.7036 126.436 79.5394C126.319 79.3753 126.256 79.1786 126.256 78.9769C126.256 78.7752 126.319 78.5785 126.436 78.4144C126.554 78.2502 126.72 78.1268 126.911 78.0614Z" fill="#E8975B"/>
<path d="M112.048 77.3551C112.54 77.104 113.084 76.9731 113.637 76.9731C114.19 76.9731 114.734 77.104 115.226 77.3551L124.833 82.8916C125.024 82.9571 125.19 83.0805 125.307 83.2446C125.425 83.4087 125.488 83.6054 125.488 83.8071C125.488 84.0089 125.425 84.2055 125.307 84.3697C125.19 84.5338 125.024 84.6572 124.833 84.7226C124.341 84.9737 123.796 85.1046 123.244 85.1046C122.691 85.1046 122.146 84.9737 121.654 84.7226L112.048 79.1861C111.856 79.1206 111.691 78.9972 111.573 78.8331C111.456 78.669 111.393 78.4723 111.393 78.2706C111.393 78.0688 111.456 77.8722 111.573 77.708C111.691 77.5439 111.856 77.4205 112.048 77.3551Z" fill="#E8975B"/>
<path d="M82.4069 99.5362C82.899 99.2852 83.4438 99.1543 83.9964 99.1543C84.549 99.1543 85.0937 99.2852 85.5858 99.5362L90.8257 102.527C91.0169 102.592 91.1827 102.716 91.3002 102.88C91.4176 103.044 91.4807 103.241 91.4807 103.442C91.4807 103.644 91.4176 103.841 91.3002 104.005C91.1827 104.169 91.0169 104.292 90.8257 104.358C90.3337 104.609 89.7889 104.74 89.2363 104.74C88.6837 104.74 88.139 104.609 87.6469 104.358L82.4069 101.367C82.2158 101.302 82.05 101.178 81.9325 101.014C81.8151 100.85 81.752 100.653 81.752 100.452C81.752 100.25 81.8151 100.053 81.9325 99.8892C82.05 99.7251 82.2158 99.6016 82.4069 99.5362Z" fill="#E8975B"/>
<path d="M89.8737 95.9788C90.3658 95.7278 90.9106 95.5969 91.4632 95.5969C92.0158 95.5969 92.5605 95.7278 93.0526 95.9788L97.5939 98.5946C97.785 98.66 97.9509 98.7834 98.0683 98.9475C98.1857 99.1117 98.2489 99.3083 98.2489 99.51C98.2489 99.7118 98.1857 99.9084 98.0683 100.073C97.9509 100.237 97.785 100.36 97.5939 100.426C97.1018 100.677 96.5571 100.807 96.0044 100.807C95.4518 100.807 94.9071 100.677 94.415 100.426L89.8737 97.8098C89.6826 97.7444 89.5167 97.621 89.3993 97.4569C89.2819 97.2927 89.2188 97.0961 89.2188 96.8943C89.2188 96.6926 89.2819 96.496 89.3993 96.3318C89.5167 96.1677 89.6826 96.0443 89.8737 95.9788Z" fill="#E8975B"/>
<path d="M80.4857 82.6998C80.9778 82.4488 81.5225 82.3179 82.0751 82.3179C82.6278 82.3179 83.1725 82.4488 83.6646 82.6998L104.406 94.671C104.6 94.7344 104.769 94.8576 104.889 95.0228C105.009 95.188 105.074 95.3868 105.074 95.5909C105.074 95.7949 105.009 95.9938 104.889 96.159C104.769 96.3242 104.6 96.4473 104.406 96.5107C103.914 96.7617 103.369 96.8926 102.816 96.8926C102.264 96.8926 101.719 96.7617 101.227 96.5107L80.4857 84.5744C80.2774 84.5209 80.0929 84.3998 79.9611 84.2301C79.8293 84.0604 79.7578 83.8518 79.7578 83.6371C79.7578 83.4224 79.8293 83.2138 79.9611 83.0441C80.0929 82.8744 80.2774 82.7533 80.4857 82.6998Z" fill="#E8975B"/>
<path d="M100.432 86.3792C100.924 86.1282 101.469 85.9973 102.022 85.9973C102.574 85.9973 103.119 86.1282 103.611 86.3792L111.183 90.7387C111.374 90.8042 111.54 90.9276 111.657 91.0917C111.775 91.2559 111.838 91.4525 111.838 91.6542C111.838 91.856 111.775 92.0526 111.657 92.2168C111.54 92.3809 111.374 92.5043 111.183 92.5697C110.691 92.8208 110.146 92.9517 109.593 92.9517C109.041 92.9517 108.496 92.8208 108.004 92.5697L100.432 88.2102C100.241 88.1448 100.075 88.0214 99.9579 87.8573C99.8405 87.6931 99.7773 87.4965 99.7773 87.2947C99.7773 87.093 99.8405 86.8963 99.9579 86.7322C100.075 86.5681 100.241 86.4447 100.432 86.3792Z" fill="#E8975B"/>
<path d="M110.309 84.1995C110.801 83.9485 111.346 83.8176 111.899 83.8176C112.451 83.8176 112.996 83.9485 113.488 84.1995L118.038 86.8153C118.229 86.8807 118.395 87.0041 118.513 87.1682C118.63 87.3324 118.693 87.529 118.693 87.7308C118.693 87.9325 118.63 88.1291 118.513 88.2933C118.395 88.4574 118.229 88.5808 118.038 88.6462C117.546 88.8973 117.001 89.0282 116.449 89.0282C115.896 89.0282 115.351 88.8973 114.859 88.6462L110.309 86.0305C110.118 85.9651 109.952 85.8417 109.835 85.6776C109.717 85.5134 109.654 85.3168 109.654 85.115C109.654 84.9133 109.717 84.7167 109.835 84.5525C109.952 84.3884 110.118 84.265 110.309 84.1995Z" fill="#E8975B"/>
<path d="M86.0398 101.611C86.5319 101.36 87.0766 101.229 87.6292 101.229C88.1818 101.229 88.7265 101.36 89.2186 101.611L90.7819 102.483C90.973 102.549 91.1389 102.672 91.2563 102.836C91.3737 103 91.4369 103.197 91.4369 103.399C91.4369 103.601 91.3737 103.797 91.2563 103.961C91.1389 104.125 90.973 104.249 90.7819 104.314C90.2898 104.565 89.7451 104.696 89.1924 104.696C88.6398 104.696 88.0951 104.565 87.603 104.314L86.0398 103.442C85.8486 103.377 85.6828 103.254 85.5653 103.089C85.4479 102.925 85.3848 102.729 85.3848 102.527C85.3848 102.325 85.4479 102.129 85.5653 101.964C85.6828 101.8 85.8486 101.677 86.0398 101.611Z" fill="#E8975B"/>
<path d="M60.0489 94.4705C60.541 94.2195 61.0857 94.0886 61.6383 94.0886C62.1909 94.0886 62.7357 94.2195 63.2278 94.4705L83.9691 106.45C84.1603 106.516 84.3261 106.639 84.4436 106.803C84.561 106.968 84.6241 107.164 84.6241 107.366C84.6241 107.568 84.561 107.764 84.4436 107.928C84.3261 108.093 84.1603 108.216 83.9691 108.281C83.477 108.533 82.9323 108.663 82.3797 108.663C81.8271 108.663 81.2823 108.533 80.7902 108.281L60.0489 96.3103C59.8546 96.2468 59.6854 96.1237 59.5654 95.9585C59.4455 95.7933 59.3809 95.5945 59.3809 95.3904C59.3809 95.1863 59.4455 94.9875 59.5654 94.8223C59.6854 94.6571 59.8546 94.534 60.0489 94.4705Z" fill="#E8975B"/>
<path d="M30.4089 116.66C30.901 116.409 31.4457 116.279 31.9983 116.279C32.551 116.279 33.0957 116.409 33.5878 116.66L49.9101 126.086C50.1013 126.151 50.2671 126.275 50.3846 126.439C50.502 126.603 50.5651 126.8 50.5651 127.001C50.5651 127.203 50.502 127.4 50.3846 127.564C50.2671 127.728 50.1013 127.851 49.9101 127.917C49.418 128.168 48.8733 128.299 48.3207 128.299C47.7681 128.299 47.2233 128.168 46.7313 127.917L30.4089 118.491C30.2178 118.426 30.0519 118.303 29.9345 118.139C29.817 117.974 29.7539 117.778 29.7539 117.576C29.7539 117.374 29.817 117.178 29.9345 117.013C30.0519 116.849 30.2178 116.726 30.4089 116.66Z" fill="#E8975B"/>
<path opacity="0.5" d="M48.9929 119.538C49.485 119.287 50.0297 119.156 50.5823 119.156C51.1349 119.156 51.6797 119.287 52.1718 119.538L56.7218 122.153C56.9129 122.219 57.0788 122.342 57.1962 122.506C57.3136 122.67 57.3768 122.867 57.3768 123.069C57.3768 123.271 57.3136 123.467 57.1962 123.631C57.0788 123.796 56.9129 123.919 56.7218 123.984C56.2297 124.235 55.6849 124.366 55.1323 124.366C54.5797 124.366 54.035 124.235 53.5429 123.984L48.9929 121.369C48.8018 121.303 48.6359 121.18 48.5185 121.016C48.401 120.852 48.3379 120.655 48.3379 120.453C48.3379 120.251 48.401 120.055 48.5185 119.891C48.6359 119.727 48.8018 119.603 48.9929 119.538Z" fill="#E8975B"/>
<path d="M50.7403 112.685C51.2324 112.434 51.7771 112.303 52.3297 112.303C52.8823 112.303 53.4271 112.434 53.9192 112.685L63.5257 118.23C63.7168 118.295 63.8827 118.419 64.0001 118.583C64.1176 118.747 64.1807 118.944 64.1807 119.145C64.1807 119.347 64.1176 119.544 64.0001 119.708C63.8827 119.872 63.7168 119.996 63.5257 120.061C63.0336 120.312 62.4889 120.443 61.9363 120.443C61.3836 120.443 60.8389 120.312 60.3468 120.061L50.7403 114.524C50.546 114.461 50.3768 114.338 50.2568 114.173C50.1369 114.007 50.0723 113.809 50.0723 113.605C50.0723 113.4 50.1369 113.202 50.2568 113.036C50.3768 112.871 50.546 112.748 50.7403 112.685Z" fill="#E8975B"/>
<path d="M59.5866 109.938C60.0787 109.687 60.6235 109.556 61.1761 109.556C61.7287 109.556 62.2734 109.687 62.7655 109.938L70.3459 114.298C70.5371 114.363 70.7029 114.486 70.8204 114.651C70.9378 114.815 71.0009 115.011 71.0009 115.213C71.0009 115.415 70.9378 115.611 70.8204 115.776C70.7029 115.94 70.5371 116.063 70.3459 116.129C69.8538 116.38 69.3091 116.511 68.7565 116.511C68.2039 116.511 67.6591 116.38 67.1671 116.129L59.5866 111.769C59.3955 111.704 59.2296 111.58 59.1122 111.416C58.9948 111.252 58.9316 111.055 58.9316 110.854C58.9316 110.652 58.9948 110.455 59.1122 110.291C59.2296 110.127 59.3955 110.003 59.5866 109.938Z" fill="#E8975B"/>
<path opacity="0.5" d="M58.3034 101.324C58.7955 101.073 59.3403 100.942 59.8929 100.942C60.4455 100.942 60.9902 101.073 61.4823 101.324L77.1584 110.374C77.3527 110.437 77.5219 110.56 77.6419 110.726C77.7618 110.891 77.8264 111.09 77.8264 111.294C77.8264 111.498 77.7618 111.697 77.6419 111.862C77.5219 112.027 77.3527 112.15 77.1584 112.214C76.6663 112.465 76.1216 112.596 75.569 112.596C75.0164 112.596 74.4716 112.465 73.9795 112.214L58.3034 103.155C58.1123 103.089 57.9464 102.966 57.829 102.802C57.7116 102.637 57.6484 102.441 57.6484 102.239C57.6484 102.037 57.7116 101.841 57.829 101.677C57.9464 101.512 58.1123 101.389 58.3034 101.324Z" fill="#E82B88"/>
<path d="M34.0587 118.736C34.932 118.23 47.4903 124.665 48.3724 125.17L49.9356 126.042C50.1258 126.11 50.2903 126.234 50.4066 126.399C50.5229 126.564 50.5854 126.76 50.5854 126.962C50.5854 127.163 50.5229 127.36 50.4066 127.525C50.2903 127.689 50.1258 127.814 49.9356 127.882C49.4435 128.133 48.8988 128.264 48.3462 128.264C47.7936 128.264 47.2488 128.133 46.7568 127.882L45.1848 126.966C44.2853 126.495 33.1854 119.241 34.0587 118.736Z" fill="#E8975B"/>
<path d="M30.2956 124.464C30.7877 124.213 31.3324 124.082 31.8851 124.082C32.4377 124.082 32.9824 124.213 33.4745 124.464L43.081 130.009C43.2721 130.075 43.438 130.198 43.5555 130.362C43.6729 130.526 43.736 130.723 43.736 130.925C43.736 131.126 43.6729 131.323 43.5555 131.487C43.438 131.651 43.2721 131.775 43.081 131.84C42.5889 132.091 42.0442 132.222 41.4916 132.222C40.939 132.222 40.3942 132.091 39.9021 131.84L30.2956 126.295C30.1045 126.23 29.9386 126.106 29.8212 125.942C29.7038 125.778 29.6406 125.581 29.6406 125.379C29.6406 125.178 29.7038 124.981 29.8212 124.817C29.9386 124.653 30.1045 124.529 30.2956 124.464Z" fill="#E8975B"/>
<path d="M0.65499 146.645C1.14709 146.394 1.69182 146.263 2.24443 146.263C2.79705 146.263 3.34178 146.394 3.83388 146.645L9.0738 149.644C9.26492 149.71 9.43079 149.833 9.54822 149.997C9.66566 150.162 9.72879 150.358 9.72879 150.56C9.72879 150.762 9.66566 150.958 9.54822 151.122C9.43079 151.287 9.26492 151.41 9.0738 151.475C8.5817 151.726 8.03697 151.857 7.48435 151.857C6.93174 151.857 6.38701 151.726 5.89491 151.475L0.65499 148.476C0.463869 148.411 0.297999 148.287 0.180564 148.123C0.0631294 147.959 0 147.762 0 147.561C0 147.359 0.0631294 147.162 0.180564 146.998C0.297999 146.834 0.463869 146.711 0.65499 146.645Z" fill="#E8975B"/>
<path opacity="0.5" d="M9.86007 136.243C10.3522 135.992 10.8969 135.861 11.4495 135.861C12.0021 135.861 12.5469 135.992 13.039 136.243L22.6455 141.789C22.8366 141.854 23.0025 141.977 23.1199 142.142C23.2373 142.306 23.3005 142.502 23.3005 142.704C23.3005 142.906 23.2373 143.102 23.1199 143.267C23.0025 143.431 22.8366 143.554 22.6455 143.62C22.1534 143.871 21.6086 144.001 21.056 144.001C20.5034 144.001 19.9587 143.871 19.4666 143.62L9.86007 138.074C9.66895 138.009 9.50308 137.885 9.38564 137.721C9.26821 137.557 9.20508 137.36 9.20508 137.159C9.20508 136.957 9.26821 136.76 9.38564 136.596C9.50308 136.432 9.66895 136.309 9.86007 136.243Z" fill="#E8975B"/>
<path opacity="0.5" d="M18.7149 133.488C19.207 133.237 19.7517 133.106 20.3043 133.106C20.857 133.106 21.4017 133.237 21.8938 133.488L29.4655 137.848C29.6597 137.911 29.8289 138.034 29.9489 138.199C30.0689 138.365 30.1335 138.563 30.1335 138.767C30.1335 138.972 30.0689 139.17 29.9489 139.336C29.8289 139.501 29.6597 139.624 29.4655 139.687C28.9734 139.938 28.4286 140.069 27.876 140.069C27.3234 140.069 26.7787 139.938 26.2866 139.687L18.7149 135.328C18.5206 135.264 18.3514 135.141 18.2315 134.976C18.1115 134.811 18.0469 134.612 18.0469 134.408C18.0469 134.204 18.1115 134.005 18.2315 133.84C18.3514 133.675 18.5206 133.552 18.7149 133.488Z" fill="#E8975B"/>
<path d="M28.5573 131.317C29.0494 131.066 29.5942 130.935 30.1468 130.935C30.6994 130.935 31.2441 131.066 31.7362 131.317L36.2862 133.933C36.4773 133.998 36.6432 134.122 36.7606 134.286C36.8781 134.45 36.9412 134.646 36.9412 134.848C36.9412 135.05 36.8781 135.247 36.7606 135.411C36.6432 135.575 36.4773 135.698 36.2862 135.764C35.7941 136.015 35.2494 136.146 34.6968 136.146C34.1442 136.146 33.5994 136.015 33.1073 135.764L28.5573 133.148C28.3662 133.083 28.2003 132.959 28.0829 132.795C27.9655 132.631 27.9023 132.434 27.9023 132.232C27.9023 132.031 27.9655 131.834 28.0829 131.67C28.2003 131.506 28.3662 131.382 28.5573 131.317Z" fill="#E8975B"/>
<path d="M8.12179 143.097C8.61389 142.845 9.15862 142.715 9.71123 142.715C10.2638 142.715 10.8086 142.845 11.3007 143.097L15.8419 145.712C16.0331 145.778 16.1989 145.901 16.3164 146.065C16.4338 146.229 16.4969 146.426 16.4969 146.628C16.4969 146.829 16.4338 147.026 16.3164 147.19C16.1989 147.354 16.0331 147.478 15.8419 147.543C15.3498 147.794 14.8051 147.925 14.2525 147.925C13.6999 147.925 13.1552 147.794 12.6631 147.543L8.12179 144.928C7.93067 144.862 7.7648 144.739 7.64736 144.575C7.52993 144.41 7.4668 144.214 7.4668 144.012C7.4668 143.81 7.52993 143.614 7.64736 143.449C7.7648 143.285 7.93067 143.162 8.12179 143.097Z" fill="#E82B88"/>
<path d="M200.148 68.5054C199.804 67.6134 199.413 66.7403 198.977 65.8896C198.503 69.003 197.502 72.0133 196.017 74.7918C196.254 76.7245 196.233 78.68 195.956 80.6073L192.523 81.8367L183.1 91.0527L170.551 97.4961L156.089 102.544L139.164 105.535H124.701L107.645 102.405L87.9958 97.4961L72.276 86.5973L66.1627 81.1828C65.9657 80.0012 65.8634 78.8058 65.8571 77.608C64.3746 74.3304 63.1851 70.9284 62.3027 67.4416C62.1105 67.8776 61.9359 68.3135 61.7699 68.7669L60.1543 65.9768V78.1835C60.5211 88.4109 67.4203 98.5249 80.9219 106.372C108.597 122.319 153.46 122.319 181.127 106.372C195.03 98.3593 201.929 87.8528 201.868 77.3552V66.0204L200.148 68.5054Z" fill="#BCD0FF"/>
<path d="M84.9393 50.8929C110.388 36.2188 151.661 36.2188 177.11 50.8929C188.681 57.5542 194.969 66.1076 196.017 74.8266C197.502 72.0481 198.503 69.0378 198.977 65.9245C198.258 64.4852 197.429 63.1035 196.497 61.7916L198.55 61.6173L188.428 43.9961L158.866 29.8277L132.212 26.5581L109.418 29.4179L94.9563 32.147L83.2189 37.5964L71.0797 46.4462L65.0713 58.304L64.3202 63.6488C63.5617 64.8656 62.8933 66.1362 62.3203 67.4503C63.2028 70.937 64.3922 74.339 65.8747 77.6166C65.7874 68.0083 72.1277 58.2692 84.9393 50.8929Z" fill="url(#paint0_radial_89_1533)"/>
<path opacity="0.5" d="M131.024 107.994C167.019 107.994 196.199 91.173 196.199 70.4235C196.199 49.674 167.019 32.8533 131.024 32.8533C95.0279 32.8533 65.8477 49.674 65.8477 70.4235C65.8477 91.173 95.0279 107.994 131.024 107.994Z" fill="url(#paint1_radial_89_1533)"/>
<path d="M181.126 37.1343C153.459 21.1785 108.588 21.1785 80.9213 37.1343C53.2545 53.0901 53.2458 78.9856 80.9213 94.8891C108.597 110.793 153.459 110.845 181.126 94.8891C208.793 78.9333 208.802 53.0814 181.126 37.1343ZM177.109 92.5785C151.66 107.244 110.396 107.244 84.9386 92.5785C59.4813 77.9132 59.4901 54.119 84.9386 39.4449C110.387 24.7708 151.66 24.7795 177.109 39.4449C202.557 54.1102 202.61 77.9044 177.109 92.5785Z" fill="#F0F5FF"/>
<path opacity="0.3" d="M84.9392 46.2107C73.7083 52.6802 67.4728 60.9284 66.1191 69.3858C67.4466 77.8433 73.7083 86.0915 84.9392 92.5697C110.396 107.235 151.661 107.235 177.109 92.5697C188.34 86.0915 194.576 77.8433 195.929 69.3858C194.611 60.9458 188.34 52.6977 177.109 46.2107C151.661 31.5453 110.388 31.5453 84.9392 46.2107Z" fill="url(#paint2_radial_89_1533)"/>
<path d="M266.624 158.861C265.861 158.862 265.11 158.66 264.45 158.276L176.105 107.357C175.604 107.073 175.165 106.693 174.812 106.239C174.459 105.784 174.2 105.265 174.049 104.71C173.898 104.155 173.859 103.576 173.933 103.006C174.007 102.435 174.194 101.886 174.482 101.388C174.769 100.89 175.153 100.454 175.611 100.104C176.068 99.7552 176.59 99.4998 177.147 99.3528C177.704 99.2059 178.284 99.1703 178.855 99.2482C179.425 99.3261 179.975 99.5159 180.471 99.8066L268.817 150.726C269.65 151.206 270.301 151.947 270.668 152.835C271.036 153.722 271.1 154.706 270.85 155.634C270.6 156.561 270.05 157.38 269.286 157.964C268.522 158.547 267.586 158.862 266.624 158.861Z" fill="#F0F5FF"/>
<path opacity="0.6" d="M180.471 99.8066C179.975 99.5159 179.425 99.3261 178.855 99.2482C178.284 99.1703 177.704 99.2059 177.147 99.3528C176.59 99.4998 176.068 99.7552 175.611 100.104C175.153 100.454 174.769 100.89 174.482 101.388C174.194 101.886 174.007 102.435 173.933 103.006C173.859 103.576 173.898 104.155 174.049 104.71C174.2 105.265 174.459 105.784 174.812 106.239C175.165 106.693 175.604 107.073 176.105 107.357L182.471 111.019C182.471 111.019 180.157 105.178 187.021 103.582L180.471 99.8066Z" fill="#C5D8FF"/>
<path d="M120.833 139.888C120.833 139.888 120.134 140.612 119.409 141.475C118.305 142.482 117.089 143.36 115.785 144.09C114.912 144.622 110.999 147.578 110.178 150.525C109.357 153.472 112.161 153.838 115.034 153.324C117.907 152.81 120.588 150.176 121.366 149.217C123.417 147.21 125.775 145.541 128.352 144.274C131.845 142.46 129.749 140.01 129.749 140.01L120.833 139.888Z" fill="url(#paint3_linear_89_1533)"/>
<path d="M147.251 146.244C147.645 147.206 147.898 148.219 148.002 149.252C148.159 150.944 148.404 154.614 148.491 155.687C148.692 157.903 148.07 160.115 146.745 161.903C144.849 164.415 143.871 165.391 141.356 164.423C138.841 163.455 138.902 159.192 139.348 157.047C139.776 154.558 140.047 152.045 140.16 149.522C140.172 148.974 140.239 148.427 140.361 147.892L147.251 146.244Z" fill="url(#paint4_linear_89_1533)"/>
<path d="M112.152 90.1633C112.152 90.1633 112.685 109.485 117.191 119.747C119.298 126.138 120.529 132.784 120.851 139.504C120.645 140.051 120.566 140.637 120.621 141.219C120.675 141.8 120.861 142.362 121.165 142.861C122.222 144.361 128.85 145.738 129.898 140.803C130.946 135.868 130.571 126.609 129.365 122.755C128.16 118.901 129.793 108.264 129.793 108.264C129.793 108.264 131.61 109.424 133.985 117.061C135.336 121.39 136.985 125.62 138.92 129.721C139.601 131.465 140.238 140.829 140.125 147.534C140.114 148.055 140.223 148.571 140.444 149.043C140.665 149.515 140.991 149.93 141.398 150.256C141.804 150.582 142.281 150.81 142.79 150.924C143.299 151.037 143.827 151.032 144.334 150.909C145.364 150.723 146.28 150.14 146.884 149.287C148.43 146.724 148.954 133.488 148.561 129.233C148.168 124.978 146.395 111.49 146.64 107.305C146.884 103.12 147.758 99.7193 146.797 95.5429C145.836 91.3665 117.532 82.072 117.532 82.072L112.152 90.1633Z" fill="url(#paint5_linear_89_1533)"/>
<path opacity="0.6" d="M146.719 107.357C146.963 103.172 147.836 99.7718 146.876 95.5954C146.518 94.0172 142.291 91.7241 137.156 89.4921C128.492 88.7074 117.506 87.7483 116.755 87.9052C115.401 88.2666 114.076 88.7271 112.79 89.2828L112.188 90.1547C112.188 90.1547 112.187 91.3231 112.336 93.25C114.362 93.8516 118.248 93.25 118.248 93.25C120.117 96.7123 122.93 99.5752 126.361 101.507C130.562 103.591 142.85 102.876 143.557 103.669C144.265 104.463 144.43 115.004 144.317 116.382C144.203 117.759 145.478 126.199 146.614 133.689C147.749 141.178 146.029 150.011 145.976 150.298C146.375 150.055 146.712 149.724 146.963 149.331C148.509 146.767 149.033 133.532 148.64 129.277C148.247 125.022 146.439 111.542 146.719 107.357Z" fill="#020230"/>
<path d="M121.627 26.9416C121.627 26.9416 115.347 28.3716 113.234 28.8685C113.062 28.9099 112.903 28.9916 112.769 29.1069C112.636 29.2222 112.532 29.3676 112.466 29.5312C111.863 31.0745 110.326 35.8612 111.479 42.8538C112.328 47.5965 112.653 52.418 112.448 57.2315L109.549 72.3677C109.549 72.3677 105.898 86.7454 106.213 87.1377C106.527 87.5301 114.614 93.677 117.147 92.8138C119.679 91.9506 118.841 90.512 118.841 90.512C118.841 90.512 120.893 100.931 129.967 100.835C139.041 100.739 146.438 100.766 147.983 97.1035C149.529 93.4416 147.556 78.0525 145.957 71.9666C144.359 65.8808 140.604 53.6829 140.604 53.6829L153.887 39.0088L142.534 30.3508C142.534 30.3508 139.818 25.3199 138.709 24.6834C137.6 24.0469 137.015 24.5788 137.015 24.5788L121.627 26.9416Z" fill="url(#paint6_radial_89_1533)"/>
<path d="M138.42 24.5527C138.42 24.5527 140.735 27.3602 137.399 31.1356C134.183 35.0734 131.308 39.2765 128.805 43.6997C126.919 46.9518 125.181 48.6869 124.194 51.4857C124.194 51.4857 124.063 48.1638 123.923 43.0283C123.737 39.3163 123.737 35.5974 123.923 31.8854C124.403 29.2784 135.853 23.2884 138.42 24.5527Z" fill="#F0F6FF"/>
<path d="M129.748 32.984C129.748 32.984 128.552 33.7164 128.15 33.6554C127.508 33.2956 126.919 32.8464 126.403 32.3214C126.403 32.3214 123.137 32.2603 122.77 30.8566C122.534 29.6504 122.225 28.4595 121.845 27.2905C121.504 26.5581 120.098 23.053 120.098 21.6231C120.098 20.1932 120.098 17.656 119.53 16.3045C118.963 14.9531 118.081 1.4822 131.128 1.84839C144.176 2.21459 140.123 15.7988 140.123 15.7988C140.123 15.7988 141.075 16.1999 140.499 17.9437C139.922 19.6875 139.791 19.8619 139.495 20.7251C139.321 21.5525 138.875 22.2982 138.228 22.8438L137.984 24.4132C138.306 26.0914 137.948 27.8286 136.988 29.2435C135.364 31.6238 129.748 32.984 129.748 32.984Z" fill="#FCD1C5"/>
<path d="M112.877 29.0256C112.877 29.0256 111.489 29.2349 106.974 40.5696C104.45 46.8909 100.563 53.4476 99.7424 58.1471C98.9215 62.8467 99.3756 67.8776 100.31 68.2263C101.245 68.5751 117.427 74.6261 122.501 76.5443C122.567 76.5682 122.637 76.5776 122.707 76.5715C122.777 76.5655 122.845 76.5443 122.905 76.5094C122.966 76.4745 123.018 76.4268 123.059 76.3695C123.099 76.3123 123.126 76.2469 123.139 76.1781L124.536 68.331L114.475 64.5207C113.43 63.2425 112.171 62.1541 110.755 61.3034C110.755 61.3034 112.772 57.5455 112.659 56.5341C112.545 55.5227 112.842 45.0337 111.663 40.7614C110.484 36.4891 112.877 29.0256 112.877 29.0256Z" fill="url(#paint7_radial_89_1533)"/>
<path d="M118.771 58.9841C118.771 58.9841 117.383 58.0598 117.025 57.9203C116.667 57.7808 114.833 57.1618 114.475 57.0048C113.849 56.9141 113.214 56.9141 112.588 57.0048C112.493 57.0134 112.401 57.0458 112.322 57.0991C112.243 57.1525 112.178 57.225 112.134 57.31C111.706 58.1034 110.51 60.4052 110.641 61.2859C110.641 61.2859 113.994 63.4046 114.37 64.3462L114.903 64.4596C114.903 64.4596 117.165 59.6816 118.771 58.9841Z" fill="#FCD1C5"/>
<path opacity="0.6" d="M145.958 71.9231C145.574 70.4583 145.085 68.636 144.508 66.6917L124.125 75.4107C126.243 77.7289 128.844 79.5551 131.746 80.7603C134.648 81.9655 137.779 82.5204 140.919 82.3859C143.265 82.2534 145.541 81.537 147.539 80.302C147.163 77.4828 146.635 74.6857 145.958 71.9231Z" fill="#020230"/>
<path d="M153.845 39.0088C153.845 39.0088 148.465 39.7499 144.098 46.6205C141.204 51.3542 138.693 56.3106 136.588 61.4428L136.439 62.3147C136.348 62.8597 136.134 63.3766 135.812 63.8259C135.49 64.2751 135.069 64.6448 134.582 64.9066C134.094 65.1683 133.553 65.3152 133 65.336C132.447 65.3568 131.897 65.2508 131.391 65.0263C126.807 62.9774 120.038 59.8908 118.746 58.923C117.42 59.7684 116.279 60.872 115.391 62.1679C114.503 63.4638 113.885 64.9253 113.576 66.465C112.702 70.685 112.921 70.6937 112.921 70.6937C112.921 70.6937 131.016 79.1337 138.003 79.0465C144.989 78.9593 153.862 56.0196 154.84 51.2764C155.818 46.5333 156.919 40.3515 153.845 39.0088Z" fill="url(#paint8_radial_89_1533)"/>
<path d="M131.252 64.9741C131.252 64.9741 131.881 64.3899 132.693 63.7099C133.505 63.0298 134.815 60.2223 135.033 59.9433C135.252 59.6642 137.985 57.6066 139.304 57.5455C140.623 57.4845 139.645 58.9754 139.304 59.1847C138.963 59.394 137.715 60.0566 137.715 60.0566C137.715 60.0566 136.396 61.1639 136.239 61.3296C136.081 61.4952 139.915 61.068 140.527 61.4342C140.649 61.5314 140.747 61.6548 140.815 61.7951C140.882 61.9355 140.917 62.0893 140.917 62.2451C140.917 62.4009 140.882 62.5546 140.815 62.695C140.747 62.8354 140.649 62.9587 140.527 63.0559C140.303 63.2055 140.044 63.2927 139.776 63.3088C139.893 63.6276 139.885 63.9792 139.752 64.2919C139.619 64.6046 139.371 64.8549 139.059 64.9916C137.907 65.5234 137.645 65.227 137.645 65.227C137.645 65.227 137.54 67.2149 135.645 66.8226L131.252 64.9741Z" fill="#FCD1C5"/>
<path d="M119.208 9.40783C119.208 9.40783 117.505 14.8223 121.985 13.2791C126.466 11.7358 130.527 9.1637 131.933 10.1402C133.007 10.8901 132.954 13.1832 132.876 14.2294C132.841 14.5881 132.937 14.9471 133.146 15.2408L134.491 17.1678C134.641 17.3877 134.728 17.6436 134.745 17.9089L134.841 19.2429C134.853 19.4068 134.924 19.5606 135.042 19.676C135.159 19.7914 135.314 19.8606 135.478 19.8706H135.784C135.949 19.8794 136.111 19.8274 136.24 19.7245C136.368 19.6216 136.455 19.475 136.483 19.3126L136.832 17.3421C136.832 17.3421 137.88 14.7264 140.116 15.7378C140.116 15.7378 141.609 13.7325 141.111 9.46014C140.613 5.18782 138.675 0.749846 130.273 1.09039e-05C121.872 -0.749824 119.208 9.40783 119.208 9.40783Z" fill="#AA8383"/>
<path d="M132.064 37.7446L130.807 36.7681C130.142 37.3237 129.591 38.0015 129.182 38.7648C128.728 39.7849 129.182 43.0371 129.182 43.0371L128.807 43.6997L128.335 42.8278L127.934 38.9827C127.934 38.9827 128.362 36.1316 128.405 36.0619C128.449 35.9921 130.833 36.3147 130.833 36.3147C131.331 36.7092 131.748 37.1944 132.064 37.7446Z" fill="#C4CCD6"/>
<path d="M126.012 33.917C125.324 33.9532 124.656 34.1568 124.064 34.5099C124.064 34.5099 125.47 34.5796 125.698 34.6058C125.925 34.6319 126.012 33.917 126.012 33.917Z" fill="#C4CCD6"/>
<path d="M130.831 36.3235L128.569 34.2222C128.569 34.2222 125.032 33.4636 125.329 34.4576C125.626 35.4516 125.391 37.6836 125.618 38.573C125.613 38.6106 125.613 38.6487 125.618 38.6863C125.432 39.5281 125.154 40.3469 124.788 41.1277C124.325 41.8862 123.854 42.7407 123.854 42.7407L123.915 53.5522C123.915 53.5522 127.897 45.3564 128.762 43.6998C128.762 43.6998 128.622 39.7501 128.246 39.0002C128.746 37.8188 129.667 36.8648 130.831 36.3235Z" fill="url(#paint9_radial_89_1533)"/>
<path d="M136.395 22.5474C133.775 30.0806 126.422 32.3214 126.422 32.3214C126.938 32.8464 127.526 33.2956 128.169 33.6554C128.57 33.7164 129.767 32.984 129.767 32.984C129.767 32.984 135.382 31.6239 137.007 29.2348C137.958 27.8197 138.309 26.0863 137.985 24.4132L138.203 22.8089C137.907 22.9362 137.581 22.9791 137.262 22.9329C136.943 22.8867 136.643 22.7533 136.395 22.5474Z" fill="#E2B1A6"/>
<path opacity="0.6" d="M142.351 31.3884C142.351 31.3884 141.312 34.9458 141.181 35.0766C140.305 35.0976 139.429 35.0481 138.561 34.9283L139.757 37.1866C139.757 37.1866 127.426 50.4308 124.885 57.5455C129.701 50.4966 135.106 43.8669 141.041 37.7272L139.583 35.5212L142.115 36.0095L142.351 31.3884Z" fill="#020230"/>
<path opacity="0.6" d="M122.038 28.2322L121.374 28.982L122.151 29.697L119.863 31.7634C119.863 31.7634 119.156 46.2718 121.959 55.8802C121.959 55.8802 118.16 47.0652 119.016 31.371L121.496 29.6883L120.684 28.8948L122.038 28.2322Z" fill="#020230"/>
<path opacity="0.6" d="M129.837 108.29L129.925 108.36L126.72 104.951C128.195 107.035 126.492 116.582 126.318 118.77C126.143 120.959 128.064 125.475 128.737 130.768C129.409 136.06 127.995 143.585 127.995 143.611C128.5 143.314 128.936 142.912 129.272 142.432C129.608 141.952 129.836 141.405 129.942 140.829C131.034 135.886 130.615 126.635 129.409 122.781C128.204 118.927 129.837 108.29 129.837 108.29Z" fill="#020230"/>
<path d="M135.766 19.888C135.931 19.8968 136.093 19.8447 136.222 19.7418C136.351 19.639 136.437 19.4924 136.465 19.33L136.814 17.3595C136.814 17.3595 137.862 14.7438 140.098 15.7552C140.098 15.7552 141.504 13.8545 141.12 9.80884C138.648 13.5231 133.146 15.2408 133.146 15.2408L134.491 17.1677C134.641 17.3876 134.728 17.6436 134.745 17.9088L134.841 19.2428C134.853 19.4067 134.924 19.5606 135.042 19.676C135.159 19.7914 135.314 19.8605 135.478 19.8706L135.766 19.888Z" fill="#936D6D"/>
</g>
<defs>
<radialGradient id="paint0_radial_89_1533" cx="0" cy="0" r="1" gradientUnits="userSpaceOnUse" gradientTransform="translate(180.559 85.7166) scale(142.046 141.815)">
<stop stop-color="#4C02F1"/>
<stop offset="0.01" stop-color="#4B02EF"/>
<stop offset="0.13" stop-color="#3903C4"/>
<stop offset="0.25" stop-color="#29039E"/>
<stop offset="0.38" stop-color="#1D0380"/>
<stop offset="0.51" stop-color="#130468"/>
<stop offset="0.65" stop-color="#0C0457"/>
<stop offset="0.81" stop-color="#07044D"/>
<stop offset="1" stop-color="#06044A"/>
</radialGradient>
<radialGradient id="paint1_radial_89_1533" cx="0" cy="0" r="1" gradientUnits="userSpaceOnUse" gradientTransform="translate(80.2312 15.7989) scale(153.888 153.638)">
<stop stop-color="#E39A65"/>
<stop offset="0.47" stop-color="#A92FFB"/>
<stop offset="0.59" stop-color="#891CFB"/>
<stop offset="0.73" stop-color="#6507FA"/>
<stop offset="1" stop-color="#3919BB"/>
</radialGradient>
<radialGradient id="paint2_radial_89_1533" cx="0" cy="0" r="1" gradientUnits="userSpaceOnUse" gradientTransform="translate(80.4416 19.6962) scale(148.255 148.014)">
<stop stop-color="white" stop-opacity="0"/>
<stop offset="0.47" stop-color="white"/>
<stop offset="0.59" stop-color="white"/>
<stop offset="0.73" stop-color="white"/>
<stop offset="1" stop-color="white"/>
</radialGradient>
<linearGradient id="paint3_linear_89_1533" x1="107.777" y1="137.333" x2="91.3332" y2="125.293" gradientUnits="userSpaceOnUse">
<stop stop-color="#2D0979"/>
<stop offset="1" stop-color="#5B04F7"/>
</linearGradient>
<linearGradient id="paint4_linear_89_1533" x1="134.536" y1="150.639" x2="106.476" y2="137.088" gradientUnits="userSpaceOnUse">
<stop stop-color="#2D0979"/>
<stop offset="1" stop-color="#5B04F7"/>
</linearGradient>
<linearGradient id="paint5_linear_89_1533" x1="159.093" y1="124.83" x2="99.9231" y2="107.803" gradientUnits="userSpaceOnUse">
<stop stop-color="#2D0979"/>
<stop offset="1" stop-color="#5B04F7"/>
</linearGradient>
<radialGradient id="paint6_radial_89_1533" cx="0" cy="0" r="1" gradientUnits="userSpaceOnUse" gradientTransform="translate(106.859 23.9336) scale(122.649 122.45)">
<stop stop-color="#7E65E3"/>
<stop offset="0.47" stop-color="#A92FFB"/>
<stop offset="0.59" stop-color="#891CFB"/>
<stop offset="0.73" stop-color="#6507FA"/>
<stop offset="1" stop-color="#3919BB"/>
</radialGradient>
<radialGradient id="paint7_radial_89_1533" cx="0" cy="0" r="1" gradientUnits="userSpaceOnUse" gradientTransform="translate(101.314 35.8352) scale(126.762 126.556)">
<stop stop-color="#6622CF"/>
<stop offset="0.47" stop-color="#A92FFB"/>
<stop offset="0.59" stop-color="#891CFB"/>
<stop offset="0.73" stop-color="#6507FA"/>
<stop offset="1" stop-color="#3919BB"/>
</radialGradient>
<radialGradient id="paint8_radial_89_1533" cx="0" cy="0" r="1" gradientUnits="userSpaceOnUse" gradientTransform="translate(105.777 34.7539) scale(82.7209 82.5865)">
<stop stop-color="#E39A65"/>
<stop offset="0.47" stop-color="#A92FFB"/>
<stop offset="0.59" stop-color="#891CFB"/>
<stop offset="0.73" stop-color="#6507FA"/>
<stop offset="1" stop-color="#3919BB"/>
</radialGradient>
<radialGradient id="paint9_radial_89_1533" cx="0" cy="0" r="1" gradientUnits="userSpaceOnUse" gradientTransform="translate(92.6586 26.6454) scale(47.7182 47.6407)">
<stop stop-color="#E39A65"/>
<stop offset="0.47" stop-color="#A92FFB"/>
<stop offset="0.59" stop-color="#891CFB"/>
<stop offset="0.73" stop-color="#6507FA"/>
<stop offset="1" stop-color="#3919BB"/>
</radialGradient>
<clipPath id="clip0_89_1533">
<rect width="271" height="172" fill="white"/>
</clipPath>
</defs>
</svg>
