<svg width="327" height="2510" viewBox="0 0 327 2510" fill="none" xmlns="http://www.w3.org/2000/svg">
<path fill-rule="evenodd" clip-rule="evenodd" d="M13.6116 2510L-19.504 2510L-19.504 2325.18L13.6116 2325.18L13.6116 2400.33L318.914 2400.33L318.914 2434.56L13.6116 2434.56L13.6116 2510ZM-19.504 2275.86L-19.504 2081.17L13.6116 2081.17L13.6116 2240.75L119.639 2240.75L119.639 2082.62L151.884 2082.62L151.884 2241.91L285.217 2241.91L285.217 2083.78L318.333 2083.78L318.333 2275.86L-19.504 2275.86ZM42.9508 1709.21L64.7373 1735.91C46.1575 1749.74 31.2071 1767.85 21.1642 1788.71C11.2529 1809.96 6.28726 1833.17 6.63985 1856.61C6.3965 1882.84 13.1116 1908.66 26.1025 1931.46C38.2802 1953.72 56.3738 1972.2 78.3902 1984.85C100.782 1997.53 126.146 2004.04 151.884 2003.71C171.121 2004.2 190.252 2000.7 208.056 1993.4C225.861 1986.11 241.95 1975.19 255.297 1961.35C269.046 1947.25 279.81 1930.53 286.947 1912.18C294.083 1893.84 297.447 1874.25 296.837 1854.57C296.919 1831.7 291.751 1809.11 281.73 1788.54C271.71 1767.96 257.102 1749.96 239.03 1735.91L259.364 1709.21C280.774 1725.88 297.819 1747.49 309.037 1772.17C321.163 1798.65 327.217 1827.49 326.757 1856.61C328.136 1882.77 323.634 1908.91 313.581 1933.11C303.528 1957.31 288.179 1978.95 268.66 1996.45C235.178 2025.17 192.226 2040.47 148.107 2039.39C124.809 2039.94 101.656 2035.59 80.1414 2026.65C58.6267 2017.7 39.2283 2004.35 23.1976 1987.46C6.39345 1970.27 -6.76912 1949.88 -15.5035 1927.49C-24.2379 1905.11 -28.3649 1881.2 -27.6377 1857.19C-28.2003 1827.13 -21.8395 1797.35 -9.0465 1770.14C3.11647 1745.94 20.9555 1725.04 42.9508 1709.21ZM-19.504 1641.9L-19.504 1607.96L122.835 1607.96L122.835 1435.9L-19.504 1435.9L-19.504 1401.96L318.914 1401.96L318.914 1435.9L155.369 1435.9L155.369 1607.96L318.914 1607.96L318.914 1641.9L-19.504 1641.9ZM318.914 1319.56L-19.504 1319.56L-19.504 1312.3L239.03 1087.44L-19.504 1087.44L-19.504 1053.79L318.914 1053.79L318.914 1061.33L62.4134 1284.74L318.914 1284.74L318.914 1319.56ZM-27.9282 810.941C-28.6127 787.144 -24.403 763.459 -15.5593 741.352C-6.71565 719.244 6.57401 699.183 23.4881 682.409C39.804 665.568 59.4188 652.265 81.1094 643.329C102.8 634.394 126.101 630.018 149.56 630.474C172.851 630.473 195.913 635.074 217.417 644.012C238.921 652.95 258.443 666.047 274.859 682.551C291.275 699.055 304.26 718.639 313.067 740.176C321.874 761.712 326.329 784.776 326.176 808.04C326.622 831.546 322.296 854.9 313.459 876.691C304.623 898.482 291.458 918.26 274.76 934.831C258.863 951.321 239.769 964.405 218.643 973.284C197.518 982.163 174.803 986.652 151.884 986.475C120.223 986.722 89.0591 978.615 61.5419 962.974C34.3336 947.92 11.7398 925.755 -3.81775 898.853C-19.1776 872.406 -27.2929 842.386 -27.3472 811.811L-27.9282 810.941ZM5.18739 810.941C5.53199 835.954 12.3466 860.454 24.9696 882.06C37.5925 903.666 55.5948 921.645 77.2283 934.25C100.103 946.626 125.887 952.639 151.884 951.659C170.67 951.851 189.308 948.312 206.713 941.246C224.118 934.18 239.943 923.729 253.269 910.501C266.594 897.272 277.154 881.53 284.334 864.19C291.514 846.849 295.172 828.255 295.094 809.49C295.321 783.979 288.808 758.86 276.212 736.665C263.901 714.802 245.813 696.737 223.924 684.44C201.533 671.76 176.169 665.252 150.431 665.581C124.879 665.271 99.7082 671.782 77.5188 684.44C55.8488 697.341 37.9167 715.656 25.4883 737.584C13.0599 759.511 6.56382 784.293 6.63981 809.49L5.18739 810.941ZM-19.5041 564.322L-19.5041 395.17L13.6115 395.17L13.6115 530.666L119.639 530.666L119.639 395.17L151.884 395.17L151.884 530.666L318.333 530.666L318.333 564.322L-19.5041 564.322ZM-19.5041 340.914L-19.5041 307.258L318.914 307.258L318.914 340.334L-19.5041 340.914ZM-19.5041 247.489L-19.5041 208.03L112.087 127.371L-19.5041 46.1321L-19.5041 6.6731L144.04 107.642L318.333 -1.51387e-05L318.333 39.749L175.413 126.791L318.333 213.833L318.333 253.292L144.04 145.36L-19.5041 247.489Z" fill="url(#paint0_linear_577_75)"/>
<defs>
<linearGradient id="paint0_linear_577_75" x1="1183" y1="1903.5" x2="-184.5" y2="1708" gradientUnits="userSpaceOnUse">
<stop stop-color="#28113A"/>
<stop offset="1" stop-color="#20113A" stop-opacity="0"/>
</linearGradient>
</defs>
</svg>
