<svg width="272" height="1875" viewBox="0 0 272 1875" fill="none" xmlns="http://www.w3.org/2000/svg">
<path fill-rule="evenodd" clip-rule="evenodd" d="M332.338 390.217L303.289 360.285C323.712 339.853 340.047 315.705 351.415 289.14C362.142 265.475 367.897 239.857 368.324 213.875C368.582 183.581 361.121 153.721 346.646 127.113C332.88 100.532 311.921 78.3594 286.163 63.1268C261.8 48.2742 233.831 40.3964 205.302 40.352C176.073 40.413 147.424 48.5171 122.49 63.7775C96.3261 79.3949 74.9537 101.904 60.7062 128.849C45.9628 156.683 38.5048 187.8 39.0277 219.297C37.5477 255.813 48.9854 291.681 71.3286 320.591C92.789 347.561 123.88 365.137 158.043 369.612L158.043 245.977L194.896 245.977L194.896 412.775C168.83 413.846 142.815 409.675 118.388 400.51C93.9617 391.345 71.6202 377.372 52.6851 359.417C34.8551 340.651 21.0133 318.462 11.9962 294.192C2.97911 269.923 -1.02586 244.075 0.223196 218.213C-1.21265 186.21 4.59206 154.296 17.2044 124.851C29.8166 95.4064 48.9109 69.1909 73.063 48.1604C109.063 16.7126 155.346 -0.421592 203.134 0.0078729C239.013 -0.0638548 274.26 9.44556 305.24 27.5546C336.278 45.6483 361.77 71.9039 378.947 103.471C396.922 136.759 406.1 174.09 405.611 211.923C406.509 243.802 401.208 275.552 390.002 305.408C376.125 336.968 356.58 365.713 332.338 390.217ZM397.373 488.041L397.373 565.259C398.257 594.285 396.442 623.33 391.954 652.02C387.455 673.96 375.6 693.704 358.352 707.981C340.428 722.686 317.785 730.392 294.617 729.671C274.835 730.505 255.242 725.528 238.253 715.356C221.934 705.056 209.268 689.879 202.05 671.975C192.983 647.578 188.785 621.639 189.693 595.625L9.97851 734.877L9.97852 689.327L190.56 549.208L190.56 527.517L10.8456 527.517L10.8456 488.041L397.156 488.041L397.373 488.041ZM359.653 526.867L228.498 526.867L228.498 593.673C227.541 613.047 230.037 632.436 235.868 650.936C240.442 662.836 248.631 673.001 259.281 680.001C270.058 686.968 282.654 690.591 295.484 690.412C308.072 690.567 320.405 686.858 330.82 679.784C341.082 673.188 349.037 663.561 353.583 652.237C359.035 633.74 361.308 614.45 360.303 595.191L359.653 526.867ZM406.912 996.897C407.723 1024.26 402.93 1051.5 392.827 1076.94C382.723 1102.38 367.524 1125.48 348.163 1144.82C309.793 1182.66 258.087 1203.86 204.218 1203.86C150.348 1203.86 98.6422 1182.66 60.2726 1144.82C22.5241 1106.27 1.3821 1054.45 1.3821 1000.48C1.3821 946.503 22.5241 894.681 60.2726 856.126C78.6414 837.013 100.749 821.891 125.216 811.703C149.683 801.516 175.986 796.48 202.483 796.912C238.666 796.703 274.262 806.056 305.673 824.024C336.714 841.17 362.44 866.535 380.03 897.338C397.877 927.855 407.163 962.625 406.912 997.981L406.912 996.897ZM368.324 998.632C368.449 970.073 360.966 941.997 346.645 917.293C332.294 892.303 311.572 871.57 286.596 857.211C260.876 842.701 231.792 835.22 202.267 835.52C180.798 835.348 159.508 839.438 139.63 847.552C119.751 855.667 101.678 867.645 86.4565 882.794C71.2351 897.943 59.1675 915.962 50.9519 935.808C42.7364 955.655 38.5361 976.934 38.5941 998.415C38.3491 1027.54 45.8296 1056.2 60.2726 1081.49C74.2861 1106.53 94.909 1127.24 119.888 1141.35C145.492 1155.76 174.409 1163.24 203.784 1163.04C232.956 1163.27 261.671 1155.78 287.03 1141.35C311.933 1126.95 332.52 1106.13 346.645 1081.06C361.006 1055.97 368.485 1027.54 368.324 998.632ZM396.289 1281.91L396.289 1320.73L163.896 1320.73C146.611 1320.31 129.315 1320.82 112.084 1322.25C98.4843 1323.66 85.4105 1328.27 73.93 1335.7C62.6278 1344 53.7266 1355.15 48.1326 1368.02C41.4642 1381.52 37.9083 1396.34 37.7269 1411.4C37.7322 1424.15 40.5448 1436.74 45.9648 1448.27C50.8761 1459.62 58.287 1469.7 67.6433 1477.77C77.9304 1485.9 89.8281 1491.74 102.546 1494.91C122.504 1498.42 142.779 1499.8 163.029 1499.03L397.156 1499.03L397.156 1537.64L164.113 1537.64C135.879 1538.49 107.677 1535.12 80.4336 1527.66C58.1926 1520.2 38.8061 1506.03 24.9366 1487.1C8.85214 1466.03 0.507933 1440.07 1.30707 1413.57C0.279969 1385.24 7.83676 1357.27 22.9856 1333.31C36.6845 1311.86 57.5982 1296.01 81.9511 1288.63C108.687 1282.66 136.095 1280.25 163.462 1281.47L397.156 1281.47L396.289 1281.91ZM396.289 1632.64L396.289 1709.86C397.391 1739.77 395.43 1769.71 390.436 1799.22C385.62 1820.44 373.873 1839.44 357.051 1853.23C339.118 1867.92 316.481 1875.62 293.316 1874.92C270.336 1875.84 247.768 1868.62 229.582 1854.53C212.447 1839.98 200.628 1820.14 195.98 1798.14C190.584 1765.61 188.477 1732.62 189.693 1699.66L189.693 1672.12L9.97847 1672.12L9.97847 1633.29L397.156 1633.29L396.289 1632.64ZM358.569 1671.47L227.414 1671.47L227.414 1736.54C226.489 1756.18 228.908 1775.84 234.568 1794.67C239.076 1806.55 247.284 1816.66 257.98 1823.52C268.622 1830.56 281.099 1834.31 293.858 1834.31C306.617 1834.31 319.094 1830.56 329.736 1823.52C340.099 1816.79 348.127 1807.01 352.715 1795.54C358.161 1777.26 360.434 1758.19 359.436 1739.14L358.569 1671.47Z" fill="url(#paint0_linear_577_76)"/>
<defs>
<linearGradient id="paint0_linear_577_76" x1="-981.385" y1="453.063" x2="544.986" y2="787.965" gradientUnits="userSpaceOnUse">
<stop stop-color="#28113A"/>
<stop offset="1" stop-color="#20113A" stop-opacity="0"/>
</linearGradient>
</defs>
</svg>
