<svg width="388" height="394" viewBox="0 0 388 394" fill="none" xmlns="http://www.w3.org/2000/svg">
<g clip-path="url(#clip0_732_20395)">
<path d="M77.4271 270.093L76.6324 274.169C76.5334 274.691 76.5396 275.227 76.6508 275.746C76.7619 276.265 76.9757 276.757 77.2797 277.193C77.5838 277.628 77.9718 277.999 78.4213 278.283C78.8707 278.567 79.3724 278.759 79.8972 278.848C80.4219 278.936 80.959 278.92 81.4772 278.799C81.9953 278.677 82.484 278.455 82.9147 278.143C83.3454 277.831 83.7094 277.437 83.9855 276.983C84.2615 276.529 84.4441 276.025 84.5224 275.5L85.232 271.452L77.4271 270.093Z" fill="#3F2A28"/>
<path d="M85.3139 271.452C85.1153 272.697 83.1569 273.377 80.9716 273.009C78.7862 272.641 77.1969 271.338 77.4239 270.178C77.651 269.017 79.5809 268.253 81.7379 268.621C83.8949 268.989 85.541 270.206 85.3139 271.452Z" fill="#593D3D"/>
<path d="M118.009 75.6123L113.042 75.1876L78.9844 270.008C78.9844 270.772 79.8642 271.593 81.2265 271.82C82.5888 272.046 83.7808 271.621 83.9227 270.857L118.009 75.6123Z" fill="#DDC6C5"/>
<path d="M168.867 217.977L168.157 222.025C168.065 223.031 168.357 224.035 168.974 224.837C169.592 225.639 170.489 226.179 171.487 226.35C172.486 226.522 173.513 226.312 174.363 225.762C175.213 225.212 175.825 224.363 176.076 223.384L176.757 219.335L168.867 217.977Z" fill="#3F2A28"/>
<path d="M176.759 219.222C176.56 220.44 174.602 221.147 172.445 220.779C170.288 220.411 168.642 219.109 168.869 217.948C169.096 216.788 171.026 216.023 173.211 216.391C175.396 216.759 176.986 217.977 176.759 219.222Z" fill="#593D3D"/>
<path d="M209.454 23.3828L204.487 22.9581L170.43 217.778C170.43 218.543 171.281 219.364 172.643 219.59C174.006 219.817 175.198 219.392 175.482 218.599L209.454 23.3828Z" fill="#DDC6C5"/>
<path d="M151.865 309.102L152.347 313.207C152.407 313.729 152.363 314.258 152.217 314.763C152.072 315.269 151.828 315.741 151.5 316.152C151.172 316.563 150.766 316.906 150.305 317.161C149.844 317.416 149.337 317.578 148.814 317.637C147.756 317.757 146.694 317.454 145.861 316.793C145.449 316.465 145.105 316.06 144.849 315.6C144.594 315.141 144.432 314.635 144.372 314.113L143.918 310.008L151.865 309.102Z" fill="#3F2A28"/>
<path d="M143.919 310.008C143.919 311.254 145.962 312.075 148.147 311.82C150.333 311.565 152.036 310.348 151.865 308.989C151.695 307.63 149.85 306.951 147.637 307.205C145.423 307.46 143.777 308.762 143.919 310.008Z" fill="#593D3D"/>
<path d="M149.88 309.074L113.524 105.308C113.524 105.138 113.524 104.997 113.524 104.855H108.926C108.926 105.223 108.926 105.62 108.926 105.988L145.594 309.81C145.765 310.404 146.701 310.801 147.808 310.659C148.915 310.518 149.88 309.867 149.795 309.215C149.965 309.215 149.908 309.159 149.88 309.074Z" fill="#DDC6C5"/>
<path d="M245.669 256.25L246.152 260.44C246.272 261.494 245.968 262.554 245.305 263.385C244.642 264.215 243.676 264.75 242.618 264.87C241.561 264.99 240.499 264.686 239.666 264.025C238.833 263.364 238.297 262.4 238.177 261.345L237.723 257.241L245.669 256.25Z" fill="#3F2A28"/>
<path d="M237.723 257.156C237.723 258.401 239.767 259.222 241.952 258.968C244.138 258.713 245.84 257.495 245.67 256.137C245.5 254.778 243.655 254.098 241.441 254.325C239.228 254.551 237.581 255.91 237.723 257.156Z" fill="#593D3D"/>
<path d="M243.681 256.222L207.182 52.4559C207.182 52.286 207.182 52.1445 207.182 52.0029H202.727C202.727 52.3709 202.727 52.739 202.727 53.1353L239.395 256.958C239.565 257.552 240.502 257.948 241.609 257.807C242.716 257.665 243.681 257.014 243.596 256.363C243.766 256.363 243.709 256.307 243.681 256.222Z" fill="#DDC6C5"/>
<path d="M239.027 119.009L120.309 187.148L108.02 179.958L226.71 111.819L239.027 119.009Z" fill="#EDDCDA"/>
<path d="M239.028 114.508L120.309 182.676L119.004 181.883L237.694 113.744L239.028 114.508Z" fill="white"/>
<path d="M108.02 179.958V181.628L120.309 188.875V182.676L119.003 181.883V186.412L108.02 179.958Z" fill="#DDC6C5"/>
<path d="M239.027 114.593V120.736L120.309 188.875V182.732L239.027 114.593Z" fill="#EDDCDA"/>
<path d="M228.865 113.206L110.316 181.487L90.3359 69.7524L208.884 1.50024L228.865 113.206Z" fill="#EDDCDA"/>
<path d="M226.003 111.253L207.215 6.02966L206.392 6.51091L225.01 110.857L112.109 176.108L112.251 176.986L226.003 111.253Z" fill="#DDC6C5"/>
<path d="M206.39 6.51086L93.4609 71.7623L112.107 176.108L225.008 110.857L206.39 6.51086Z" fill="white"/>
<path d="M139.353 50.4176L98.4844 74.0553L99.279 77.6505L140.148 54.0128L139.353 50.4176Z" fill="#3F2A28"/>
<path d="M141.111 57.325L100.242 80.9627L101.008 84.5296L141.906 60.9202L141.111 57.325Z" fill="#3F2A28"/>
<path d="M143.92 69.7524L103.051 93.3902L103.817 96.9854L144.714 73.3476L143.92 69.7524Z" fill="#3F2A28"/>
<path d="M145.681 76.688L104.812 100.297L105.579 103.893L146.476 80.2549L145.681 76.688Z" fill="#3F2A28"/>
<path d="M90.3356 69.7524L88.207 68.2521L108.187 179.958L110.316 181.487L90.3356 69.7524Z" fill="#DDC6C5"/>
<path d="M208.884 1.50024L206.727 -0.00012207L88.207 68.2521L90.3356 69.7524L208.884 1.50024Z" fill="white"/>
<path d="M203.89 57.5797C209.299 64.0927 212.215 72.3082 212.121 80.7645C212.121 98.8821 199.52 113.574 184.023 113.574V80.7645L203.89 57.5797Z" fill="#E63114"/>
<path d="M184.022 47.9547C187.837 48.0155 191.592 48.9087 195.025 50.5714C198.457 52.2342 201.482 54.6263 203.889 57.5797L184.022 80.7645L162.48 59.7311C164.857 56.1853 168.056 53.2634 171.806 51.2134C175.556 49.1633 179.747 48.0455 184.022 47.9547Z" fill="#EDDCDA"/>
<path d="M155.927 80.7645C155.864 73.2436 158.156 65.8905 162.483 59.7312L184.024 80.7645V113.574C168.5 113.574 155.927 98.8821 155.927 80.7645Z" fill="#E63114"/>
<path d="M156.44 138.09C159.288 129.986 162.692 122.088 166.629 114.452C166.033 114.876 165.437 115.244 164.869 115.669C163.887 116.662 162.792 117.536 161.605 118.273C161.441 118.356 161.256 118.386 161.074 118.358C160.893 118.331 160.724 118.247 160.593 118.119C160.461 117.991 160.373 117.825 160.341 117.645C160.309 117.464 160.334 117.278 160.413 117.113C161.066 115.754 167.934 110.828 168.247 112.074C168.559 113.319 169.155 120.397 168.247 121.642C168.21 121.712 168.156 121.771 168.091 121.815C168.025 121.859 167.95 121.887 167.872 121.895C167.793 121.903 167.714 121.893 167.641 121.863C167.568 121.834 167.503 121.787 167.452 121.727C166.853 120.353 166.734 118.818 167.111 117.368C164.563 124.651 161.588 131.778 158.2 138.712C157.774 139.816 156.099 139.109 156.44 138.09Z" fill="#3F2A28"/>
<path d="M188.762 36.0084C190.03 37.258 190.848 38.8901 191.09 40.6511C192.111 38.2731 193.19 35.9235 194.155 33.5173C195.096 30.6127 196.234 27.7753 197.561 25.0247C197.561 24.7982 198.1 24.8831 198.072 25.0247C197.013 30.7197 195.038 36.2068 192.225 41.2739C192.849 40.8209 193.445 40.3397 194.013 39.8584C194.581 39.3772 195.404 38.4147 196.17 37.7919C196.454 37.5654 197.22 38.1882 197.05 38.5562C195.6 40.9895 193.535 43.0005 191.061 44.3878C190.38 44.8408 189.699 44.218 189.614 43.5669C189.424 42.2264 189.101 40.9083 188.649 39.632C188.173 38.6038 187.829 37.5193 187.627 36.4048C187.542 35.8386 188.365 35.6687 188.762 36.0084Z" fill="#3F2A28"/>
<path d="M131.632 111.055C134.319 108.417 137.414 106.228 140.8 104.572C143.899 102.588 147.275 101.072 150.818 100.071L148.746 99.5331C147.79 99.4127 146.842 99.233 145.908 98.9952C145.738 98.9394 145.589 98.8313 145.484 98.6864C145.379 98.5416 145.323 98.3673 145.323 98.1884C145.323 98.0096 145.379 97.8353 145.484 97.6904C145.589 97.5455 145.738 97.4375 145.908 97.3816C147.952 96.589 152.493 99.7029 152.436 100.213C152.363 101.423 152.192 102.625 151.925 103.808C151.794 104.943 151.352 106.02 150.648 106.922C150.545 107.02 150.419 107.09 150.282 107.125C150.144 107.16 149.999 107.159 149.862 107.122C149.725 107.085 149.6 107.013 149.499 106.914C149.398 106.814 149.324 106.69 149.286 106.554C149.225 104.519 149.855 102.524 151.074 100.892C148.33 102.786 145.488 104.535 142.559 106.129C139.412 108.435 136.113 110.525 132.682 112.385C132.595 112.454 132.495 112.505 132.387 112.535C132.28 112.565 132.168 112.574 132.057 112.561C131.946 112.548 131.839 112.513 131.742 112.458C131.645 112.404 131.559 112.331 131.49 112.244C131.422 112.156 131.37 112.056 131.34 111.949C131.31 111.842 131.301 111.73 131.315 111.62C131.328 111.509 131.363 111.403 131.417 111.306C131.472 111.209 131.545 111.123 131.632 111.055Z" fill="#3F2A28"/>
<path d="M118.976 109.753C122.07 112.782 130.868 128.663 131.436 132.852C131.436 133.871 130.301 134.608 129.676 133.588C127.462 129.937 119.828 114.423 117.926 110.545C117.821 110.406 117.775 110.231 117.799 110.059C117.823 109.886 117.915 109.73 118.054 109.625C118.193 109.52 118.369 109.474 118.542 109.498C118.715 109.522 118.871 109.614 118.976 109.753Z" fill="#3F2A28"/>
<path d="M132.963 138.514C133.345 138.565 133.695 138.753 133.948 139.042C134.201 139.331 134.341 139.702 134.341 140.085C134.341 140.469 134.201 140.84 133.948 141.129C133.695 141.418 133.345 141.605 132.963 141.657C132.582 141.605 132.232 141.418 131.979 141.129C131.726 140.84 131.586 140.469 131.586 140.085C131.586 139.702 131.726 139.331 131.979 139.042C132.232 138.753 132.582 138.565 132.963 138.514Z" fill="#3F2A28"/>
<path d="M347.415 220.977C343.382 221.19 339.346 220.633 335.523 219.335C335.722 221.459 335.863 223.553 335.92 225.478C336.318 238.727 338.191 241.133 331.294 246.399C327.156 249.095 323.807 252.836 321.588 257.241C319.544 260.638 323.688 261.94 326.781 261.232C333.508 259.647 339.042 252.23 342.647 250.758C346.251 249.286 351.161 247.418 350.224 243.483C349.288 239.548 348.124 239.406 347.216 235.726C346.565 230.826 346.632 225.858 347.415 220.977Z" fill="#FFC9B6"/>
<path d="M349.09 240.624C348.237 242.048 347.533 243.556 346.99 245.125C344.152 247.276 340.746 248.833 337.114 251.975C333.481 255.118 331.153 257.043 328.003 255.372C324.853 253.702 324.399 252.541 324.399 252.541C322.408 254.057 320.666 255.872 319.233 257.92C318.268 259.93 322.554 264.346 328.798 262.959C335.042 261.572 337.142 257.297 340.377 254.268C343.613 251.239 346.706 250.135 349.686 247.701C352.666 245.266 349.09 240.624 349.09 240.624Z" fill="#3F2A28"/>
<path d="M382.295 238.755C378.719 239.066 375.086 233.461 370.943 232.159C371.142 234.311 372.05 236.377 372.106 238.302C372.532 251.551 375.2 258.826 368.303 264.091C364.177 266.801 360.831 270.538 358.597 274.934C356.554 278.359 360.726 279.633 363.791 278.925C370.517 277.368 376.051 269.923 379.656 268.451C383.26 266.979 388.17 265.11 387.234 261.204C386.297 257.297 384.708 255.542 383.828 251.749C382.441 247.566 381.919 243.145 382.295 238.755Z" fill="#FFC9B6"/>
<path d="M386.241 258.175C385.37 259.604 384.657 261.122 384.113 262.704C381.274 264.827 377.869 266.384 374.236 269.527C370.603 272.669 368.276 274.594 365.125 272.924C361.975 271.253 361.521 270.093 361.521 270.093C359.53 271.596 357.787 273.401 356.356 275.443C355.419 277.453 359.676 281.869 365.92 280.482C372.164 279.095 374.264 274.82 377.528 271.791C380.792 268.762 383.857 267.687 386.809 265.224C389.76 262.761 386.241 258.175 386.241 258.175Z" fill="#3F2A28"/>
<path d="M342.448 119.717C342.448 119.717 330.726 143.468 325.987 157.311C321.985 168.946 315.741 177.127 317.472 183.44C320.027 192.079 323.02 200.582 326.441 208.918C332.117 222.789 336.346 235.783 336.346 235.783C338.184 236.054 340.058 235.942 341.851 235.455C343.644 234.968 345.316 234.116 346.762 232.952C346.762 216.165 347.273 206.823 345.541 197.679C343.186 185.393 338.474 181.6 338.474 181.6C338.474 181.6 352.892 161.784 356.922 146.186C375.115 136.419 366.771 122.067 366.033 122.265C365.295 122.463 342.448 119.717 342.448 119.717Z" fill="#3F2A28"/>
<path d="M383.83 251.749C382.326 242.52 383.319 224.346 380.992 214.948C380.405 211.868 379.207 208.936 377.466 206.325C375.726 203.714 373.48 201.477 370.86 199.746C374.294 195.528 381.134 174.693 377.615 154.452C386.129 137.467 382.496 125.719 375.997 118.67C375.798 118.443 349.177 127.87 349.46 127.842H349.829C347.843 131.93 347.028 136.486 347.474 141.006C347.92 145.527 349.609 149.837 352.355 153.461C351.305 174.749 346.679 184.035 350.51 197.679C351.873 202.435 369.27 242.294 372.619 252.598C376.621 254.778 380.736 255.712 383.83 251.749Z" fill="#593D3D"/>
<path d="M341.964 67.5444C340.035 65.7044 337.026 61.8827 331.776 63.015C323.545 64.8834 299.478 83.001 299.478 83.001L273.736 81.2175C271.949 83.349 271.064 86.09 271.267 88.8608C280.765 92.7969 290.523 96.079 300.471 98.684C304.955 99.6181 338.559 81.1043 338.559 81.1043L341.964 67.5444Z" fill="#F99746"/>
<path d="M333.705 108.479C335.89 113.546 337.168 120.17 333.705 131.465C340.772 138.882 348.577 140.552 361.434 139.958C372.218 139.42 378.122 136.986 382.691 133.419C382.237 127.757 379.598 119.038 379.087 111.706C378.462 100.538 376.343 89.5038 372.786 78.8962C369.948 71.1679 361.689 63.8076 350.564 59.4198C337.593 54.3242 335.039 58.8819 335.039 58.8819C335.039 58.8819 327.036 77.8487 324.765 86.4263C322.977 93.0788 322.977 97.1552 326.127 101.288C329.732 106.044 329.618 103.015 333.705 108.479Z" fill="#F99746"/>
<path d="M352.666 56.7588C349.042 58.0961 345.562 59.7938 342.279 61.826C342.477 65.1948 340.973 66.7517 339.27 69.8657C338.362 71.5076 338.703 74.933 337.17 78.3583C335.865 81.1892 336.631 80.8212 338.93 82.18C342.591 84.3314 348.863 82.18 354.171 75.8671C353.376 75.0179 357.009 71.9039 356.271 69.9223C355.448 67.3745 354.284 62.7885 352.666 56.7588Z" fill="#FFB9A4"/>
<path d="M348.095 78.8394L336.544 76.0085C336.544 76.0085 330.867 89.3136 330.442 95.4C330.016 101.486 338.247 113.234 338.247 113.234C338.247 113.234 340.233 98.9103 341.965 92.654C343.514 87.8465 345.569 83.2159 348.095 78.8394Z" fill="white"/>
<path d="M336.997 61.6278C336.997 61.6278 330.867 72.555 328.483 78.613C329.954 80.1181 331.603 81.4394 333.393 82.5479L326.383 86.0865C326.676 90.5711 327.632 94.9879 329.221 99.1934C332.172 104.967 335.669 110.446 339.665 115.556L338.672 111.225C338.672 111.225 332.769 101.685 333.648 94.7489C335.068 87.1357 337.354 79.7086 340.46 72.6116C341.612 70.3974 342.38 68.0045 342.73 65.5344L336.997 61.6278Z" fill="#E98837"/>
<path d="M352.494 57.7495C352.494 57.7495 353.374 60.5804 354.283 62.7885C353.033 66.2555 351.241 69.5038 348.975 72.4134C343.887 79.7166 340.299 87.9523 338.417 96.6456C337.698 102.964 338.062 109.359 339.496 115.556C340.599 110.835 342.52 106.342 345.172 102.279C346.932 99.703 350.848 91.6916 350.848 91.6916L345.711 85.2938L353.914 83.0858C353.914 83.0858 359.42 68.5068 356.95 63.2697C353.942 56.419 352.494 57.7495 352.494 57.7495Z" fill="#E98837"/>
<path d="M347.839 31.3942C345.909 26.7516 341.992 19.5328 349.996 16.4755C350.933 16.066 351.946 15.8571 352.97 15.8622C353.993 15.8672 355.004 16.0862 355.937 16.505C356.87 16.9238 357.705 17.533 358.388 18.2935C359.071 19.0539 359.586 19.9487 359.901 20.92C359.901 20.92 364.896 16.4755 370.317 22.6185C374.687 27.5159 367.819 32.5548 367.819 32.5548C369.297 33.2678 370.515 34.4228 371.303 35.8588C372.092 37.2948 372.412 38.9403 372.218 40.5662C371.792 46.6242 366.145 47.7566 360.866 45.7467C355.33 42.1922 350.836 37.2406 347.839 31.3942Z" fill="#3F2A28"/>
<path d="M361.802 32.1018C361.451 31.6087 360.963 31.2283 360.399 31.0071C359.834 30.7859 359.218 30.7335 358.624 30.8562C358.756 30.3023 358.73 29.7226 358.549 29.1824C358.369 28.6422 358.041 28.1631 357.602 27.7989C357.173 27.4553 356.646 27.2542 356.097 27.2238C355.547 27.1933 355.002 27.335 354.537 27.6291L354.225 27.8555C354.248 27.1343 354.05 26.4231 353.657 25.8173C353.368 25.3479 352.939 24.9807 352.43 24.7674C351.921 24.5541 351.357 24.5055 350.819 24.6283C348.492 25.3077 347.328 29.2993 347.981 31.3941C348.006 31.4816 348.053 31.5612 348.118 31.6256C348.182 31.69 348.262 31.7369 348.35 31.7621C349.435 34.7822 351.49 37.3598 354.196 39.0941C354.955 39.8818 355.952 40.399 357.034 40.5661C358.26 40.2744 359.339 39.5505 360.071 38.5279C361.377 36.9992 363.278 33.9702 361.802 32.1018Z" fill="white"/>
<path d="M328.113 48.9172C328.113 44.7842 328.539 39.5188 331.547 36.3482C334.556 33.1776 339.891 32.5831 344.007 32.5831C350.364 32.5831 355.359 39.2923 354.735 47.4735C354.196 55.0036 349.967 66.8649 341.736 68.9881C332.541 71.3377 328.284 55.2301 328.113 48.9172Z" fill="#FFC9B6"/>
<path d="M317.87 39.4622C318.193 38.7426 318.713 38.1292 319.371 37.6932C320.029 37.2572 320.798 37.0166 321.588 36.9993C320.797 36.2961 320.307 35.3173 320.217 34.2643C320.127 33.2113 320.445 32.1639 321.106 31.3376C321.512 30.825 322.03 30.4108 322.62 30.126C323.209 29.8412 323.856 29.6933 324.511 29.6933C325.167 29.6933 325.814 29.8412 326.403 30.126C326.993 30.4108 327.511 30.825 327.917 31.3376C332.069 28.9645 336.87 27.9729 341.625 28.5067C344.084 28.5157 346.522 28.9467 348.834 29.7806C350.035 30.8428 351.12 32.0289 352.07 33.3192C352.245 33.3425 352.411 33.4108 352.552 33.5174C352.673 33.4835 352.8 33.4835 352.921 33.5174C364.047 33.6872 359.761 52.5125 353.233 59.8727C351.644 57.8638 350.38 55.6192 349.487 53.2202C348.834 51.8897 347.699 48.3794 346.933 47.1622C344.861 48.8607 340.263 49.2287 336.602 49.0871C335.399 49.6875 334.146 50.1801 332.856 50.5592C330.653 51.3652 328.269 51.5405 325.971 51.0652C323.674 50.59 321.556 49.4831 319.857 47.8699C318.718 46.8295 317.919 45.471 317.564 43.9714C317.21 42.4718 317.317 40.9006 317.87 39.4622Z" fill="#593D3D"/>
<path d="M347.215 50.5025C347.215 50.5025 349.599 46.0014 351.756 48.5492C353.913 51.097 352.409 56.7304 349.968 56.7587C347.527 56.787 347.215 50.5025 347.215 50.5025Z" fill="#FFC9B6"/>
<path d="M365.634 73.8855C358.057 73.8855 357.12 88.8325 356.978 93.7016C356.836 98.5707 360.441 118.443 360.441 118.443C360.441 118.443 352.664 124.558 347.556 127.785L334.387 135.881L337.934 142.392C344.632 141.924 351.278 140.892 357.801 139.307C364.528 137.184 375.483 130.984 376.902 126.37C378.321 121.755 377.98 106.072 378.945 93.5883C380.081 78.1601 371.254 73.8855 365.634 73.8855Z" fill="#F99746"/>
<path d="M275.102 81.3873C272.193 79.6337 269.049 78.2994 265.765 77.4241C263.289 76.9346 260.873 76.185 258.556 75.1877C256.768 74.5366 256.768 76.405 258.556 77.3392C260.087 78.3109 261.497 79.4608 262.756 80.7645C263.296 81.2458 259.691 83.3123 256.257 82.3498C252.823 81.3873 251.262 80.3116 248.339 79.7737C246.21 79.4057 247.629 81.3873 247.629 81.3873C247.629 81.3873 245.699 80.9627 245.699 81.9252C245.699 82.8877 247.743 83.5671 247.743 83.5671C247.743 83.5671 246.125 83.3406 246.125 84.3314C246.125 85.3222 248.14 86.0866 248.14 86.0866C247.998 86.0865 247.857 86.1209 247.731 86.1869C247.605 86.2529 247.496 86.3485 247.416 86.4655C247.335 86.5825 247.283 86.7173 247.266 86.8584C247.249 86.9995 247.266 87.1426 247.317 87.2755C247.658 88.1531 248.878 88.606 250.467 89.1439C252.774 90.1214 255.231 90.6959 257.733 90.8424C260.291 91.1014 262.874 90.9773 265.396 90.4744C267.79 89.8128 270.263 89.4795 272.747 89.4836C272.848 86.632 273.657 83.85 275.102 81.3873Z" fill="#FFC9B6"/>
<path d="M339.269 133.051C340.83 133.589 344.009 139.76 341.454 142.591C335.21 145.11 327.264 151.423 323.461 144.459C319.657 137.495 324.539 134.919 326.299 134.438C327.667 134.127 329.068 133.984 330.471 134.013C330.471 134.013 331.095 129.993 339.269 133.051Z" fill="#FFB9A4"/>
<path d="M264.314 14.6638C273.85 20.4671 282.847 27.2895 291.986 33.7155C292.809 34.31 291.986 35.6688 291.191 35.0744C282.024 28.5917 272.459 22.3921 263.945 15.3149C263.463 15.0035 263.945 14.4373 264.314 14.6638Z" fill="#E63114"/>
<path d="M253.7 39.8301C264.825 40.9059 275.894 43.1706 286.934 44.9823C287.928 45.1522 287.814 46.7374 286.934 46.5676C275.837 44.6709 264.598 43.1989 253.643 40.5945C253.104 40.5095 253.274 39.7735 253.7 39.8301Z" fill="#E63114"/>
<path d="M254.383 52.7389C264.997 51.7882 275.661 51.4951 286.312 51.8614C286.451 51.8915 286.576 51.9684 286.665 52.0791C286.755 52.1898 286.804 52.3278 286.804 52.47C286.804 52.6123 286.755 52.7502 286.665 52.8609C286.576 52.9717 286.451 53.0485 286.312 53.0787C275.685 53.6779 265.03 53.6117 254.411 52.8805L254.383 52.7389Z" fill="#E63114"/>
<path d="M59.6001 336.873C59.3175 338.95 58.8811 341.003 58.2946 343.016C57.8042 345.511 57.8818 348.085 58.5216 350.546C58.858 351.229 59.3625 351.816 59.9878 352.251C60.6132 352.687 61.3391 352.957 62.0976 353.037C63.7238 353.399 65.4098 353.399 67.036 353.037C68.8612 355.157 70.928 357.057 73.1947 358.699C77.2298 361.125 81.8007 362.525 86.5055 362.775C89.8829 362.238 91.6993 359.633 91.4439 357.935C89.7557 354.476 87.1558 351.54 83.9228 349.442C80.8834 347.23 78.0353 344.768 75.4085 342.082C73.8638 340.403 72.4679 338.594 71.2364 336.675L59.6001 336.873Z" fill="#3F2A28"/>
<path d="M57.7567 206.993C57.7567 206.993 65.2777 229.866 67.6618 239.803C70.8689 253.249 72.7136 263.978 74.5584 276.604C76.4032 289.229 73.1961 295.486 73.5083 307.941C73.7354 317.623 75.8356 331.664 74.8139 339.732C72.0116 342.177 68.3586 343.425 64.6422 343.208C60.9259 342.991 57.444 341.325 54.947 338.571C54.1523 335.288 49.2707 309.47 48.4761 300.326C47.9876 294.802 48.4775 289.234 49.9235 283.879C49.9235 283.879 37.4358 252.4 32.7528 241.19C28.0699 229.979 31.2203 216.08 31.2203 216.08L57.7567 206.993Z" fill="#3F2A28"/>
<path d="M9.16661 362.351C8.21198 365.794 7.67832 369.339 7.57726 372.91C7.50852 374.035 7.68046 375.163 8.08169 376.217C8.48292 377.271 9.10427 378.228 9.90452 379.025C10.204 379.393 10.6093 379.661 11.0659 379.792C11.5226 379.924 12.0087 379.913 12.4588 379.761C12.4588 379.761 12.9981 387.744 16.8012 391.084C18.7854 392.486 21.0593 393.428 23.4559 393.839C25.8525 394.251 28.3111 394.122 30.6512 393.462C33.8015 392.273 31.7297 386.555 28.6361 380.95C25.5426 375.345 21.5976 369.315 20.6042 364.248C13.0265 363.115 9.16661 362.351 9.16661 362.351Z" fill="#3F2A28"/>
<path d="M19.8675 213.108C14.3396 217.605 10.3033 223.664 8.28792 230.489C5.44979 238.982 7.77706 250.503 8.28792 257.156C8.82716 264.573 8.28792 280.001 9.59346 286.823C10.2306 289.528 10.6201 292.286 10.7571 295.061C5.82595 317.688 3.91731 340.866 5.08084 363.993C5.08084 363.993 7.18105 366.993 14.6737 368.267C22.7056 369.626 24.7207 364.927 24.7207 364.927C24.7207 364.927 30.851 324.559 33.9446 315.189C35.9715 308.623 37.3871 301.886 38.1734 295.061L44.2753 249.116C44.2753 249.116 56.7631 240.992 50.3773 220.496C46.3472 207.531 19.8675 213.108 19.8675 213.108Z" fill="#593D3D"/>
<path d="M64.1444 107.573C64.8903 109.603 65.038 111.803 64.5702 113.914C63.7515 115.709 62.3793 117.197 60.6535 118.16C60.6535 118.16 52.1392 116.348 49.897 113.433C47.6549 110.517 44.2208 110.602 41.6097 109.781C38.9987 108.96 36.7565 108.365 39.1973 105.251C41.6381 102.138 43.4829 99.4199 46.8035 99.9861C50.255 100.682 53.5225 102.09 56.3964 104.119C58.8254 105.586 61.4281 106.747 64.1444 107.573Z" fill="#FFC9B6"/>
<path d="M52.7922 141.713C55.4885 136.448 57.6454 132.966 66.472 133.617C71.1338 131.137 75.5938 128.298 79.8112 125.124C73.1869 123.478 66.763 121.114 60.6539 118.075C63.2933 115.046 64.8827 110.064 63.492 107.261C67.4937 107.092 75.6675 107.884 81.06 108.082C88.5526 108.394 92.6963 107.799 96.3007 111.847C99.9051 115.895 97.663 117.368 101.126 121.501C103.595 124.473 101.807 124.926 100.302 125.407C97.9752 129.37 95.9034 135.825 93.2923 139.873C90.4656 144.168 87.2854 148.221 83.7846 151.989C78.9598 157.311 71.7225 165.832 63.4068 164.247C62.4419 164.19 48.2512 150.347 52.7922 141.713Z" fill="#715596"/>
<path d="M8.20149 177.24C7.71901 165.917 4.2565 161.076 8.20149 154.593C8.45693 154.197 13.8777 149.611 15.4955 149.668C24.9775 144.299 34.7562 139.469 44.7849 135.202C46.4549 134.375 48.272 133.884 50.1323 133.758C51.9926 133.632 53.8596 133.872 55.6265 134.466C61.0757 146.101 69.5901 165.606 63.176 174.466C62.438 178.344 64.3963 207.757 60.9055 212.315C61.5779 212.657 62.1639 213.146 62.6195 213.746C63.0751 214.346 63.3884 215.042 63.5359 215.78C63.6834 216.518 63.6612 217.28 63.4711 218.009C63.2809 218.738 62.9277 219.414 62.438 219.986C53.9237 233.15 25.06 230.178 11.8627 222.336C11.3157 221.097 11.2088 219.71 11.5597 218.402C11.9107 217.095 12.6983 215.946 13.7926 215.146C13.0127 214.206 12.5859 213.025 12.5859 211.805C12.5859 210.586 13.0127 209.404 13.7926 208.465C10.0179 199.349 8.76912 190.63 8.20149 177.24Z" fill="#715596"/>
<path d="M32.1291 150.036L28.3828 153.404C28.3828 153.404 32.2143 161.897 35.8187 164.388C39.2723 166.566 42.8982 168.46 46.6603 170.05C46.6603 170.05 51.8825 161.954 50.208 157.283C48.5335 152.612 42.5451 157.283 42.5451 157.283L32.1291 150.036Z" fill="white"/>
<path d="M26.1389 143.865L23.3008 145.337C23.3008 145.337 28.977 159.491 34.3127 164.388C38.033 167.558 42.215 170.145 46.7153 172.06C46.7153 172.06 52.0794 163.086 52.647 157.906C52.9385 154.483 52.7763 151.038 52.1645 147.658L49.3264 149.356C49.3486 152.747 49.1209 156.134 48.6452 159.491C48.0745 162.343 47.0492 165.086 45.6084 167.615C45.6084 167.615 36.1007 162.293 32.3544 155.443C28.6081 148.592 26.1389 143.865 26.1389 143.865Z" fill="#8669AB"/>
<path d="M47.6497 136.108V135.882C43.1087 136.561 37.1202 133.957 33.2036 131.239C31.7387 135.517 29.8366 139.634 27.5273 143.525C29.2302 143.525 32.6076 148.309 35.389 153.235C36.581 155.33 41.718 160.737 44.9534 159.491C49.9201 157.566 47.451 153.574 47.5929 147.998C47.5361 143.949 47.6213 140.043 47.6497 136.108Z" fill="#FFB9A4"/>
<path d="M56.7631 118.189C52.5911 113.093 42.3738 113.404 36.5841 116.886C35.2235 117.255 33.9629 117.922 32.8945 118.84C29.1482 122.152 29.5455 128.125 30.6808 132.541C32.3836 139.165 41.8346 154.424 50.5476 148.734C55.2022 145.705 58.2389 138.146 59.062 132.881C59.7432 128.181 59.8283 121.925 56.7631 118.189Z" fill="#FFC9B6"/>
<path d="M55.9654 106.922C50.8608 104.71 45.2407 103.955 39.7314 104.742C34.6227 105.733 29.1451 108.252 27.6126 113.433C24.519 123.765 30.2236 130.078 30.4507 136.419C34.1001 132.856 36.718 128.377 38.0285 123.454C39.5043 128.408 51.2541 132.173 53.0705 128.408C56.0506 129.738 61.3579 132.173 65.2745 128.549C68.2829 125.719 65.9556 122.888 64.7068 119.689C67.2044 116.065 64.3947 111.026 55.9654 106.922Z" fill="#3F2A28"/>
<path d="M38.7699 129.257C38.7699 129.257 36.102 124.869 33.6612 128.068C33.1508 128.608 32.7828 129.265 32.5903 129.981C32.3979 130.698 32.387 131.45 32.5587 132.172C32.7304 132.893 33.0793 133.561 33.574 134.115C34.0686 134.668 34.6936 135.091 35.3925 135.344L38.7699 129.257Z" fill="#FFC9B6"/>
<path d="M34.9675 118.132C34.0741 116.425 32.7908 114.951 31.2212 113.829C29.7646 112.788 28.1565 111.977 26.4531 111.423C27.8722 109.951 30.6252 107.092 32.4983 104.742C35.1378 101.458 37.8056 100.496 42.971 102.279C47.1842 103.424 51.2872 104.94 55.2317 106.809C57.3887 108.309 54.9763 110.942 52.0814 111.14C49.8677 111.281 46.1497 110.743 43.567 110.743C43.1981 110.913 38.3165 114.056 36.7839 114.82C36.4198 116.214 35.9453 117.577 35.3648 118.896C35.2229 118.642 35.1094 118.358 34.9675 118.132Z" fill="#FFC9B6"/>
<path d="M1.78884 144.063C1.23728 143.593 0.814126 142.992 0.558974 142.315C0.303822 141.638 0.225016 140.908 0.329931 140.192C0.434847 139.477 0.720054 138.799 1.15886 138.224C1.59767 137.648 2.17573 137.193 2.83895 136.901C9.76397 127.672 18.9311 119.491 26.7643 111.026C26.884 110.905 27.0336 110.818 27.1982 110.773C27.3627 110.728 27.5362 110.728 27.7009 110.772C31.6743 112.329 35.5341 115.443 35.7044 118.67C31.7027 128.748 28.1834 137.637 20.1515 145.337C22.1622 152.246 23.0251 159.437 22.7058 166.625C22.3652 170.984 19.8677 183.1 12.4602 186.441C8.34491 186.837 3.57686 176.108 1.78884 171.267C-0.964138 163.737 -0.197844 152.301 1.78884 144.063Z" fill="#715596"/>
<path d="M55.9115 212.088C52.6558 214.845 48.7481 216.725 44.559 217.552C39.6186 218.334 34.5632 217.946 29.8008 216.42C34.6857 216.075 39.5246 215.25 44.2468 213.957C48.0299 212.799 51.9554 212.171 55.9115 212.088Z" fill="#8669AB"/>
<path d="M47.937 206.2C43.1517 209.194 37.8786 211.33 32.3557 212.513C27.0124 213 21.6302 212.858 16.3203 212.088C21.2103 210.865 26.1661 209.92 31.1637 209.258C37.663 208.465 47.937 206.2 47.937 206.2Z" fill="#8669AB"/>
<path d="M92.5793 82.7462C92.2387 75.216 81.0565 70.7716 75.1532 68.7617C70.7535 67.2336 66.1556 66.3469 61.5019 66.129C55.9403 62.0631 49.6048 59.1732 42.8838 57.6364C35.8736 56.1077 25.5428 55.1169 19.4409 59.9011C14.4174 63.8077 15.4675 69.4128 19.5828 73.6025C21.5038 75.5725 23.5929 77.3722 25.8266 78.9811C22.4717 82.0126 19.5154 85.4559 17.0285 89.2288C16.5176 89.9932 17.6812 90.8424 18.1921 90.0781C20.7087 86.2607 23.7248 82.7953 27.1606 79.7737C42.2026 89.8233 64.5954 94.2112 81.0849 92.4277C86.0516 91.8332 92.8915 89.2005 92.5793 82.7462ZM24.0386 75.5558C21.7044 73.8247 19.6634 71.7316 17.9934 69.3562C14.7296 61.5147 23.2723 59.165 28.381 58.2592C33.1441 57.7688 37.9572 58.1721 42.5716 59.4481C48.1077 60.7795 53.3701 63.0591 58.1245 66.1856C46.7858 66.4399 35.8731 70.5441 27.1889 77.8204C26.1105 77.0844 25.032 76.4333 24.0386 75.5558ZM66.2983 90.7292C60.7978 90.2365 55.3541 89.2415 50.0358 87.7568C42.4622 85.7419 35.2037 82.6935 28.4661 78.698C37.4846 71.3444 48.8657 67.4933 60.5085 67.8558C68.3329 73.9433 74.4681 81.924 78.3319 91.0406C78.3508 91.1082 78.3957 91.1655 78.4569 91.2C78.5181 91.2345 78.5906 91.2434 78.6583 91.2246C78.7261 91.2058 78.7836 91.161 78.8182 91.0999C78.8528 91.0389 78.8616 90.9666 78.8428 90.8991C76.4956 81.9338 71.2728 73.9805 63.971 68.2521H65.2766C70.6991 69.0311 75.949 70.7255 80.8011 73.2627C83.0148 74.3951 93.3172 78.3583 90.2804 85.5204C87.2437 92.6825 70.3284 91.0972 66.2983 90.7292Z" fill="white"/>
<path d="M22.2495 61.4862C18.5315 68.0821 25.6552 77.7637 29.5719 82.6045C32.4939 86.2109 35.9149 89.3849 39.7323 92.0313C42.3228 98.4022 46.1853 104.181 51.0848 109.016C56.2218 114.027 64.4808 120.34 72.2005 119.519C78.5295 118.84 80.7148 113.546 79.3525 107.828C78.757 105.163 77.921 102.557 76.855 100.043C81.345 99.2644 85.7208 97.9331 89.882 96.0794C90.705 95.7114 90.1658 94.3526 89.3427 94.7489C85.1807 96.6527 80.7795 97.9859 76.259 98.7121C68.8231 82.2365 52.1633 66.6667 37.3767 59.448C32.637 57.2682 25.5417 55.8811 22.2495 61.4862ZM76.6279 103.893C77.7046 106.602 78.3186 109.473 78.4443 112.385C77.0537 120.878 68.5677 118.217 63.6577 116.207C59.3727 114.186 55.5183 111.36 52.3052 107.884C48.2481 103.851 44.9508 99.1242 42.5705 93.9279C52.3429 99.6689 63.7854 101.916 75.0102 100.297C75.6062 101.486 76.0887 102.675 76.6279 103.893ZM48.7576 68.6483C53.1527 72.0458 57.2281 75.836 60.9331 79.9718C66.2763 85.6944 70.8031 92.1244 74.3858 99.0801C62.8319 100.561 51.1322 97.8041 41.4636 91.3235C38.0491 82.0223 37.0722 72.0055 38.6255 62.2222C38.6255 61.9391 38.1997 61.7976 38.1146 62.0807C35.2975 70.9571 35.4569 80.5074 38.5687 89.2853L37.547 88.4644C33.3551 84.9451 29.8028 80.7315 27.0459 76.0086C25.7688 73.8854 19.1559 65.0814 25.5417 60.637C31.9275 56.1925 45.5505 66.2138 48.7576 68.6483Z" fill="white"/>
<path d="M22.2512 112.017C28.1829 116.745 38.8826 111.281 44.3035 108.196C48.3451 105.891 52.0424 103.033 55.287 99.7029C62.0025 98.1754 68.3306 95.2845 73.8767 91.2103C79.553 86.964 87.2159 79.8868 87.6416 72.1303C87.9822 65.7891 83.0722 62.9016 77.2257 63.213C74.4889 63.3751 71.7723 63.7825 69.1087 64.4303C69.0839 59.8778 68.4637 55.3479 67.2639 50.9554C67.0368 50.0495 65.6178 50.3609 65.8732 51.2668C67.093 55.6739 67.7041 60.2264 67.6896 64.7983C50.2068 69.4976 32.1563 83.3971 22.7053 96.8154C19.8672 101.147 17.1994 108.026 22.2512 112.017ZM72.8834 65.3645C75.7235 64.7322 78.651 64.5886 81.5396 64.9399C89.5999 67.6292 85.7401 75.6122 82.9587 80.1133C80.2808 83.9975 76.8796 87.3323 72.9401 89.9364C68.29 93.2288 63.0914 95.6729 57.5859 97.1551C64.8438 88.4601 68.9088 77.5545 69.1087 66.2421C70.3574 65.9024 71.6346 65.591 72.8834 65.3645ZM33.5753 87.0772C37.5993 83.282 41.9701 79.8701 46.6307 76.8861C53.1317 72.5408 60.1979 69.1025 67.6328 66.6667C67.2623 78.2663 62.6721 89.3349 54.7194 97.8062C44.9929 99.6668 34.9515 99.0237 25.5435 95.9379C25.4873 95.9284 25.4295 95.9379 25.3794 95.9649C25.3293 95.9919 25.2896 96.0349 25.2668 96.0869C25.2439 96.139 25.2392 96.1972 25.2533 96.2523C25.2675 96.3073 25.2997 96.3561 25.3448 96.3908C33.6605 100.604 43.1332 101.976 52.307 100.297L51.3704 101.175C47.2066 104.733 42.4653 107.557 37.35 109.526C35.0228 110.432 25.2596 115.556 21.8823 108.535C18.5049 101.515 30.6237 89.8515 33.5753 87.0772Z" fill="white"/>
<path d="M29.9153 138.882L26.1406 143.865C27.6325 148.024 29.7265 151.944 32.3561 155.499C35.1636 158.845 38.6446 161.565 42.5734 163.482L44.7587 159.378L50.6904 160.708L49.2713 149.385L47.4549 149.951C46.7298 151.731 45.681 153.363 44.3614 154.763C32.1291 148.535 29.9153 138.882 29.9153 138.882Z" fill="white"/>
<path d="M226.17 164.19C225.872 163.442 225.752 162.636 225.819 161.834C225.886 161.032 226.138 160.256 226.556 159.567C226.974 158.879 227.546 158.297 228.228 157.866C228.909 157.435 229.682 157.168 230.484 157.085C231.495 156.716 232.609 156.748 233.597 157.175C234.584 157.602 235.37 158.39 235.792 159.378C235.792 159.378 240.503 158.5 240.9 161.189C240.985 163.551 240.814 165.914 240.389 168.238C241.099 169.399 245.413 175.344 250.152 181.458C252.744 184.72 255.007 188.228 256.907 191.933L273.936 190.715L267.635 208.946C267.635 208.946 249.273 203.822 247.485 200.991C242.546 193.291 236.558 178.061 233.294 171.777C231.612 171.126 230.099 170.106 228.866 168.793C227.633 167.479 226.712 165.906 226.17 164.19Z" fill="#FFB9A4"/>
<path d="M248.874 219.024L222.138 234.537C221.554 234.868 220.871 234.981 220.211 234.856C219.551 234.732 218.957 234.378 218.534 233.858L190.72 199.463C190.412 199.079 190.19 198.634 190.069 198.158C189.949 197.682 189.932 197.185 190.021 196.701C190.11 196.218 190.302 195.759 190.584 195.357C190.867 194.954 191.232 194.616 191.657 194.367L218.534 178.854C219.135 178.487 219.852 178.356 220.544 178.487C221.237 178.618 221.855 179.001 222.28 179.562L249.753 213.957C250.064 214.334 250.289 214.774 250.414 215.245C250.538 215.717 250.56 216.21 250.476 216.691C250.393 217.172 250.206 217.629 249.93 218.032C249.653 218.434 249.293 218.773 248.874 219.024Z" fill="#E63114"/>
<path d="M191.914 196.009L190.836 195.047L192.113 193.858L192.936 194.707L191.914 196.009Z" fill="#409ADD"/>
<path d="M249.614 218.458L250.806 217.269L250.096 216.476L248.422 218.288L249.614 218.458Z" fill="#409ADD"/>
<path d="M249.753 218.146L223.075 233.66C222.477 234.03 221.763 234.165 221.07 234.04C220.378 233.914 219.757 233.537 219.328 232.98L191.657 198.585C191.349 198.204 191.127 197.762 191.007 197.287C190.886 196.813 190.87 196.318 190.959 195.837C191.048 195.356 191.24 194.9 191.522 194.499C191.804 194.099 192.17 193.764 192.593 193.518L219.357 177.976C219.958 177.609 220.674 177.479 221.367 177.609C222.059 177.74 222.678 178.123 223.103 178.684L250.775 213.079C251.079 213.466 251.296 213.913 251.41 214.391C251.524 214.869 251.533 215.366 251.436 215.848C251.339 216.33 251.138 216.785 250.847 217.181C250.557 217.578 250.184 217.908 249.753 218.146Z" fill="#E63114"/>
<path d="M247.883 215.882L223.134 230.234L194.781 194.933L219.558 180.552L247.883 215.882Z" fill="#EDDCDA"/>
<path d="M249.269 214.297L224.521 228.677L196.168 193.348L220.916 178.996L249.269 214.297Z" fill="white"/>
<path d="M222.112 182.732L200.032 195.556L198.414 193.66L220.495 180.836L222.112 182.732Z" fill="#593D3D"/>
<path d="M223.048 184.006L200.968 196.83L200.57 196.377L222.651 183.553L223.048 184.006Z" fill="#DDC6C5"/>
<path d="M196.172 193.348L194.781 194.933L223.134 230.234L224.525 228.677L196.172 193.348Z" fill="#EDDCDA"/>
<path d="M249.272 214.296L247.881 215.882L223.133 230.234L224.523 228.677L249.272 214.296Z" fill="#A1B3D1"/>
<path d="M239.821 205.691C232.726 209.484 225.46 213.136 218.535 217.439C218.117 212.869 217.464 208.325 216.577 203.822C219.217 205.153 222.651 207.219 225.971 208.805C225.744 206.908 223.133 198.642 221.828 193.744C224.584 194.888 227.275 196.183 229.888 197.623C230.626 198.019 230.91 197.623 230.172 197.198C227.314 195.429 224.256 194.003 221.061 192.952L225.29 207.757C224.212 207.163 217.712 203.822 216.095 202.973C216.776 207.248 217.315 212.598 217.939 217.127C215.981 213.815 207.183 202.52 203.607 198.33C202.784 197.396 202.074 197.425 203.124 198.698C206.956 203.398 216.549 216.193 218.025 218.515C224.779 214.297 232.783 209.824 240.134 206.059C240.701 205.974 240.389 205.408 239.821 205.691Z" fill="#593D3D"/>
<path d="M223.137 186.356C220.723 187.545 218.4 188.908 216.184 190.432C216.184 190.432 216.184 190.772 216.411 190.715C218.897 189.657 221.274 188.358 223.506 186.837C224.045 186.384 223.761 186.073 223.137 186.356Z" fill="#593D3D"/>
<path d="M241.241 207.984C234.344 211.947 226.738 215.74 219.869 219.76C219.273 220.1 219.671 220.694 220.352 220.298C227.277 216.335 234.543 212.513 241.581 208.578C242.205 208.267 241.865 207.701 241.241 207.984Z" fill="#593D3D"/>
<path d="M242.859 210.022C235.962 213.985 228.384 217.75 221.516 221.77C220.892 222.138 221.317 222.704 221.97 222.336C228.924 218.373 236.161 214.551 243.199 210.588C243.739 210.305 243.398 209.71 242.859 210.022Z" fill="#593D3D"/>
<path d="M258.612 354.849C254.241 356.236 252.936 357.68 253.872 360.511C254.687 362.461 255.948 364.193 257.555 365.57C259.162 366.946 261.069 367.928 263.125 368.437C268.801 370.022 272.462 378.175 279.018 372.344C280.693 370.843 279.614 366.512 279.217 364.247C279.444 362.719 279.983 359.039 280.21 357.312C274.051 359.18 270.731 357 269.085 354.821C269.205 356.285 269.414 357.741 269.709 359.18C267.552 358.331 261.535 353.858 258.612 354.849Z" fill="#FFB9A4"/>
<path d="M281.203 360.228C281.912 355.019 291.534 323.709 283.218 304.488C293.01 283.964 288.894 275.726 289.859 269.47C297.267 258.147 289.32 245.323 284.183 241.161C280.777 244.813 264.089 243.992 263.947 244.445C261.109 253.929 262.386 264.261 264.6 273.66C265.962 279.605 264.373 290.645 267.438 306.809C264.969 314.594 264.855 350.15 265.508 356.916C267.189 359.382 269.762 361.104 272.687 361.722C275.613 362.339 278.664 361.804 281.203 360.228Z" fill="#240D40"/>
<path d="M279.33 363.483C279.33 363.483 275.669 364.502 273.313 365.068C271.177 365.484 268.97 365.346 266.902 364.666C264.835 363.987 262.977 362.79 261.507 361.19C258.441 357.793 263.635 355.953 263.635 355.953C263.635 355.953 259.492 350.518 254.042 352.358C252.64 353.26 251.573 354.595 251.004 356.16C250.436 357.724 250.396 359.431 250.892 361.02C252.287 363.832 254.599 366.088 257.448 367.418C260.467 368.414 263.377 369.714 266.133 371.296C269.311 373.533 274.647 377.383 278.762 374.127C282.878 370.872 279.33 363.483 279.33 363.483Z" fill="#E63114"/>
<path d="M288.948 183.327C283.271 181.345 276.687 184.516 276.403 190.178C273.338 195.33 276.403 202.888 281.115 206.342C286.791 210.362 295.305 206.342 297.065 200.086C297.971 196.785 297.648 193.269 296.156 190.188C294.664 187.107 292.103 184.67 288.948 183.327Z" fill="#EDDCDA"/>
<path d="M289.489 366.286C290.272 370.178 290.755 374.124 290.936 378.09C290.936 380.072 291.192 381.176 289.659 382.337C286.168 383.809 286.225 384.488 286.026 386.555C285.827 388.621 292.015 389.725 295.278 388.083C296.158 387.63 300.245 386.073 300.955 383.412C301.778 379.534 298.627 377.496 298.542 373.391C298.542 368.777 303.878 367.022 300.699 363.2C299.325 361.719 297.856 360.328 296.3 359.039C294.851 357.309 293.621 355.407 292.639 353.377C289.46 356.491 286.423 359.039 284.777 360.567C286.338 362.719 288.013 364.7 289.489 366.286Z" fill="#FFC9B6"/>
<path d="M299.025 382.308C298.401 379.223 296.187 373.136 296.868 370.334C297.665 367.21 299.374 364.392 301.778 362.238C300.106 360.823 298.18 359.738 296.102 359.039C293.81 362.345 292.801 366.369 293.264 370.362C294.428 375.741 296.812 382.308 293.264 384.035C289.716 385.762 290.227 381.855 290.227 381.855C290.227 381.855 283.132 381.063 284.551 387.178C285.033 389.301 286.509 390.631 290.625 391.028C292.768 391.251 294.933 390.94 296.925 390.122C297.919 389.109 298.635 387.859 299.003 386.49C299.371 385.121 299.379 383.681 299.025 382.308Z" fill="#E63114"/>
<path d="M300.357 373.901C299.733 370.787 306.828 366.342 302.003 362.407L301.776 362.238C299.372 364.392 297.663 367.21 296.866 370.334C296.242 373.165 298.399 379.223 299.023 382.308C299.345 383.671 299.313 385.094 298.931 386.441C298.548 387.788 297.828 389.016 296.838 390.008C298.839 389.202 300.509 387.746 301.577 385.875C303.848 381.912 300.981 377.015 300.357 373.901Z" fill="#E63114"/>
<path d="M281.828 273.207C290.342 263.072 282.31 246.568 276.151 244.898C275.555 244.728 253.446 250.843 253.077 255.316C251.942 269.215 249.842 279.152 249.587 293.108C249.587 295.401 249.587 302.506 249.587 312.924C249.013 314.27 248.883 315.762 249.215 317.187C249.546 318.611 250.322 319.894 251.431 320.85C257.42 327.446 278.365 363.483 284.07 370.277C289.207 369.938 297.154 364.049 299.254 360.284C297.409 356.859 288.781 340.638 286.34 336.505C277.173 320.964 276.038 317.793 268.205 310.744C270.39 308.253 281.147 280.001 281.828 273.207Z" fill="#240D40"/>
<path d="M288.384 192.697C288.319 192.467 288.197 192.258 288.028 192.089C287.859 191.921 287.649 191.799 287.419 191.734C280.891 189.951 279.387 186.412 278.252 180.411C278.197 180.215 278.098 180.034 277.962 179.882C277.826 179.73 277.657 179.611 277.468 179.534C277.279 179.458 277.074 179.425 276.871 179.44C276.667 179.455 276.47 179.516 276.293 179.618C272.889 181.719 269.199 183.32 265.338 184.374C268.999 195.273 262.5 197.594 259.492 201.926C258.754 203.03 266.331 208.521 270.362 207.955C273.897 207.517 277.296 206.319 280.323 204.445C283.616 202.463 289.491 197.17 288.384 192.697Z" fill="#FFC9B6"/>
<path d="M279.102 167.672C278.477 162.01 273.88 154.565 267.551 155.046C261.222 155.528 256.737 165.068 256.198 169.484C255.347 177.042 255.999 191.253 267.92 186.696C277.285 183.129 280.01 176.052 279.102 167.672Z" fill="#FFC9B6"/>
<path d="M289.008 156.547C286.17 150.347 278.762 145.45 272.206 148.054C270.774 146.79 269.081 145.854 267.247 145.311C265.414 144.768 263.483 144.632 261.591 144.912C260.456 144.912 258.753 145.308 258.413 146.611C255.575 145.535 252.736 145.648 251.771 148.932C250.806 152.216 253.049 155.047 256.142 156.83C254.651 156.961 253.245 157.577 252.14 158.585C251.41 159.757 251.134 161.154 251.364 162.515C251.594 163.875 252.314 165.105 253.389 165.974C256.426 168.521 261.449 170.871 265.565 168.805C265.281 175.712 273.256 182.506 277.116 184.261C279.358 179.534 284.296 179.477 287.617 172.938C289.49 169.144 290.796 160.397 289.008 156.547Z" fill="#163560"/>
<path d="M264.824 171.777C264.824 171.777 269.592 168.493 270.5 173.136C270.683 174.455 270.404 175.798 269.712 176.937C269.019 178.076 267.955 178.943 266.697 179.392L264.824 171.777Z" fill="#FFC9B6"/>
<path d="M286.651 150.46C282.678 148.734 280.124 148.451 276.746 150.998C273.369 153.546 274.533 164.445 280.18 165.719C282.028 166.234 283.987 166.192 285.811 165.598C287.634 165.003 289.24 163.883 290.426 162.378C291.139 161.394 291.612 160.257 291.806 159.058C292 157.859 291.91 156.631 291.543 155.473C291.176 154.315 290.543 153.258 289.693 152.388C288.844 151.517 287.802 150.857 286.651 150.46Z" fill="#593D3D"/>
<path d="M292.042 215.146C296.158 202.407 293.632 193.914 289.999 189.668C288.495 187.941 284.919 184.403 281.03 187.913C282.279 193.716 272.232 195.584 264.938 195.584C259.432 199.689 254.494 202.548 251.344 208.097C248.193 213.645 246.405 219.958 253.529 224.261C251.344 230.716 254.778 237.396 252.876 253.872C259.517 259.137 272.317 259.081 279.384 254.806C285.06 251.466 287.899 247.757 287.586 243.709C285.742 239.803 283.074 238.868 283.272 233.999C283.528 227.856 290.141 220.808 292.042 215.146Z" fill="white"/>
<path d="M242.971 229.3C239.423 229.074 236.358 228.819 232.952 228.819C229.527 228.669 226.142 228.02 222.905 226.894C220.067 225.592 220.436 225.62 219.244 222.959C218.21 220.455 216.696 218.176 214.788 216.25C213.624 216.25 213.341 217.58 214.334 220.185C214.666 221.44 214.819 222.737 214.788 224.035C211.826 222.663 209.051 220.923 206.529 218.854C204.542 219.222 205.394 221.317 206.33 222.166C204.741 224.403 206.983 228.904 207.636 229.923C210.02 233.745 215.043 232.924 219.272 234.481C226.907 237.312 226.027 236.745 233.662 239.208C238.108 240.69 242.69 241.733 247.341 242.322C246.141 237.9 244.682 233.552 242.971 229.3Z" fill="#FFC9B6"/>
<path d="M250.631 210.135C248.151 212.939 246.139 216.122 244.671 219.562C243.479 222.902 241.549 227.347 240.414 230.885C242.912 234.707 245.21 238.416 247.339 242.464C249.723 241.813 251 240.057 256.052 233.094C260.139 227.432 262.835 224.912 264.283 217.807C265.872 209.88 253.157 207.163 250.631 210.135Z" fill="#FFC9B6"/>
<path d="M258.266 200.595C249.355 200.595 243.678 213.9 244.076 221.317C242.146 224.148 253.441 232.952 256.989 231.82C265.021 232.782 271.18 224.657 272.514 216.278C273.848 207.899 266.043 200.708 258.266 200.595Z" fill="#EDDCDA"/>
<path d="M244.077 221.317L242.658 224.742C242.658 224.742 242.175 227.573 246.347 230.829C248.928 232.827 252.078 233.957 255.344 234.056L256.99 231.82C253.941 231.122 251.052 229.854 248.476 228.083C246.399 226.287 244.873 223.941 244.077 221.317Z" fill="white"/>
<path d="M281.203 153.942C281.203 153.942 287.702 145.45 295.138 151.112C298.336 153.664 300.595 157.202 301.561 161.173C302.526 165.143 302.144 169.321 300.474 173.051C293.577 187.601 304.958 190.234 304.958 190.234C304.958 190.234 295.081 198.444 288.383 192.725C281.685 187.007 283.388 160.142 283.388 160.142C283.388 160.142 280.124 158.727 281.203 153.942Z" fill="#163560"/>
<path d="M249.33 139.618L230.484 113.857L241.922 108.96L249.33 139.618Z" fill="#E63114"/>
<path d="M243.905 144.657L220.008 135.627L225.514 127.361L243.905 144.657Z" fill="#E63114"/>
</g>
<defs>
<clipPath id="clip0_732_20395">
<rect width="388" height="394" fill="white"/>
</clipPath>
</defs>
</svg>
