<svg width="1619" height="865" viewBox="0 0 1619 865" fill="none" xmlns="http://www.w3.org/2000/svg">
<rect y="151" width="1440" height="580" fill="url(#paint0_linear_831_2486)"/>
<g filter="url(#filter0_f_831_2486)">
<ellipse cx="1227.5" cy="432.33" rx="225.5" ry="266.33" fill="#3F1091" fill-opacity="0.4"/>
</g>
<g clip-path="url(#clip0_831_2486)">
<path d="M786.854 508.693L1299.77 674.464L1291.61 528.53L786.854 508.693Z" fill="url(#paint1_linear_831_2486)"/>
<path d="M1291.61 528.53L786.854 508.693L1406.53 629.363L1291.61 528.53Z" fill="url(#paint2_linear_831_2486)"/>
<path d="M1215.78 524.742C1215.78 524.742 1216.82 532.092 1216.95 533.194C1217.09 534.297 1228.6 532.546 1228.6 532.546L1229.53 523.794C1229.53 523.794 1217.22 523.703 1215.78 524.742Z" fill="#5C544D"/>
<path d="M1216.83 532.26C1216.83 532.26 1213.19 536.688 1209.66 538.621C1206.14 540.549 1200.59 541.316 1198.51 543.317C1197 544.759 1193.02 550.971 1207.68 550.844C1222.32 550.717 1229.39 551.719 1230.96 549.342C1232.53 546.96 1228.69 531.765 1228.69 531.765C1228.69 531.765 1225.22 533.031 1216.84 532.264L1216.83 532.26Z" fill="#3C4145"/>
<path d="M1133.3 524.742C1133.3 524.742 1134.35 532.092 1134.48 533.194C1134.61 534.297 1146.12 532.546 1146.12 532.546L1147.05 523.794C1147.05 523.794 1134.74 523.703 1133.3 524.742Z" fill="#5C544D"/>
<path d="M1134.35 532.26C1134.35 532.26 1130.71 536.688 1127.18 538.621C1123.66 540.549 1110.67 542.137 1108.59 544.138C1107.08 545.581 1104.58 551.388 1125.19 550.844C1139.84 550.458 1146.9 551.719 1148.47 549.342C1150.04 546.96 1146.2 531.765 1146.2 531.765C1146.2 531.765 1142.94 533.113 1134.35 532.264V532.26Z" fill="#3C4145"/>
<path d="M1211.69 334.967C1211.69 334.967 1217.82 353.207 1217.02 368.928C1216.21 384.649 1220.18 401.849 1221.81 418.269C1223.62 436.576 1231.03 479.915 1231.3 489.706C1231.57 499.497 1230.15 530.767 1230.15 530.767L1215.31 531.112C1215.31 531.112 1202.85 455.346 1199.62 447.615C1196.4 439.884 1180.39 384.771 1179.85 378.587C1179.31 372.403 1211.7 334.972 1211.7 334.972L1211.69 334.967Z" fill="#33373B"/>
<path d="M1149.31 338.211C1149.31 338.211 1141.16 381.296 1140.08 390.919C1139 400.542 1138.29 437.479 1137.75 443.491C1137.21 449.502 1134.16 522.178 1131.3 531.112H1150.27C1150.27 531.112 1164.83 478.281 1164.83 453.282C1164.83 428.282 1176.08 398.941 1183.34 382.448C1190.61 365.956 1207.23 365.565 1211.7 334.967C1211.7 334.967 1155.36 328.506 1149.31 338.211H1149.31Z" fill="#3C4145"/>
<path d="M1187.86 190.968C1187.86 190.968 1172.91 185.369 1166.01 196.78C1159.11 208.191 1159.78 231.031 1167.32 233.839C1174.86 236.648 1186.18 235.177 1190.04 228.041C1193.9 220.899 1197.38 210.582 1197.21 203.681C1197.05 196.784 1191.79 192.959 1187.86 190.968Z" fill="#EEA886"/>
<path d="M1169.83 233.14C1169.83 233.14 1170.43 237.069 1169.44 239.002C1168.44 240.94 1188.24 240.99 1188.24 240.99C1188.24 240.99 1189.85 230.463 1192.9 221.566C1195.95 212.673 1169.83 233.136 1169.83 233.136V233.14Z" fill="#EEA886"/>
<path d="M1192.9 221.566C1192.9 221.566 1191.53 223.825 1185.95 222.95C1180.37 222.074 1173.56 214.629 1171.24 213.812C1168.9 212.995 1168.88 211.625 1168.88 211.625L1167.43 213.762L1164.95 213.921C1164.95 213.921 1167.21 207.265 1163.8 204.547C1160.4 201.834 1167.33 183 1185.23 189.271C1185.23 189.271 1198.98 193.068 1198.48 200.904C1197.98 208.739 1195.98 217.664 1192.9 221.566H1192.9Z" fill="#2C3A64"/>
<path d="M1168.27 238.771C1168.27 238.771 1168.33 235.073 1170 234.719C1171.67 234.365 1188.46 232.745 1190.51 233.558V237.863C1190.51 237.863 1186.55 240.304 1168.26 238.771H1168.27Z" fill="#E2D2CA"/>
<path d="M1169.25 208.776C1169.56 207.46 1172.9 203.708 1174.18 207.728C1175.45 211.748 1172.25 217.156 1170.46 216.693C1168.67 216.23 1168.46 212.106 1169.25 208.776Z" fill="#EEA886"/>
<path d="M1168.26 238.771C1168.26 238.771 1159.06 242.087 1148.4 246.629C1148.4 246.629 1136.14 251.216 1134.81 264.791C1134.1 271.996 1126.45 310.23 1125.02 313.465C1123.58 316.7 1106.61 368.673 1106.01 369.753C1105.42 370.833 1119.86 376.84 1120.82 376.364C1121.78 375.883 1137.25 328.96 1138.8 325.484C1138.8 325.484 1147.71 297.349 1147.95 293.153C1147.95 293.153 1148.21 305.108 1148.68 308.461C1149.16 311.814 1140.76 376.967 1141 378.764C1141.24 380.561 1179.18 382.847 1194.36 381.168C1209.54 379.49 1221.79 375.992 1221.79 375.992C1221.79 375.992 1209.85 324.577 1210.21 318.874C1211.01 306.456 1215.15 283.062 1215.15 283.062L1227.54 306.456L1211.69 347.317L1215.32 359.735C1215.32 359.735 1244.76 315.135 1245.72 311.061C1246.67 306.986 1244.28 301.796 1242.72 298.443C1241.17 295.09 1230.96 269.55 1228.57 265.957C1226.18 262.364 1222.14 247.967 1212.38 243.961C1204.21 240.613 1190.51 237.868 1190.51 237.868L1168.26 238.775V238.771Z" fill="#495054"/>
<path d="M1148.02 393.315L1078.65 375.483L1091.05 326.975L1160.43 344.807L1148.02 393.315Z" fill="#E63114"/>
<path d="M1099.98 380.356C1099.98 380.356 1097.99 383.569 1097.27 384.485C1096.55 385.402 1099.05 385.978 1100.12 385.048C1101.19 384.122 1099.98 380.356 1099.98 380.356Z" fill="#C98462"/>
<path d="M1114.43 391.323C1114.43 391.323 1115.6 390.098 1115.85 389.313C1115.85 389.313 1116.19 387.847 1116.51 386.822C1116.61 386.495 1116.7 386.214 1116.78 386.041C1117.11 385.311 1118.06 383.8 1118.37 381.817C1118.67 379.835 1119.54 370.942 1119.54 370.942L1114.16 369.585L1109.85 368.673C1109.85 368.673 1100.52 377.997 1100.02 379.812C1099.97 379.989 1099.93 380.166 1099.91 380.334C1099.64 381.913 1100.09 383.197 1100.04 384.041C1100.03 384.349 1100.07 387.443 1100.79 388.024C1101.79 388.827 1102.8 388.982 1103.64 388.714C1103.64 388.714 1105.66 390.202 1107.34 390.111C1107.34 390.111 1109.16 391.545 1111.23 390.833C1111.23 390.833 1113.24 392.08 1114.42 391.323H1114.43Z" fill="#DE9D7D"/>
<path d="M1135.4 335.062C1135.4 335.062 1123.08 372.435 1120.82 376.359C1120.82 376.359 1111.79 374.458 1106.01 369.749L1119.53 329.414L1135.39 335.062H1135.4Z" fill="#495054"/>
</g>
<defs>
<filter id="filter0_f_831_2486" x="836" y="0" width="783" height="864.66" filterUnits="userSpaceOnUse" color-interpolation-filters="sRGB">
<feFlood flood-opacity="0" result="BackgroundImageFix"/>
<feBlend mode="normal" in="SourceGraphic" in2="BackgroundImageFix" result="shape"/>
<feGaussianBlur stdDeviation="83" result="effect1_foregroundBlur_831_2486"/>
</filter>
<linearGradient id="paint0_linear_831_2486" x1="751" y1="1033" x2="766.5" y2="288" gradientUnits="userSpaceOnUse">
<stop stop-color="#271447"/>
<stop offset="1" stop-color="#271447" stop-opacity="0"/>
</linearGradient>
<linearGradient id="paint1_linear_831_2486" x1="1038.35" y1="752.533" x2="1044.21" y2="558.127" gradientUnits="userSpaceOnUse">
<stop stop-color="#FFE9D9"/>
<stop offset="1" stop-color="#ABA69F"/>
</linearGradient>
<linearGradient id="paint2_linear_831_2486" x1="1408.47" y1="581.289" x2="784.943" y2="556.431" gradientUnits="userSpaceOnUse">
<stop stop-color="#FFE9D9"/>
<stop offset="1" stop-color="#C7C1B9"/>
</linearGradient>
<clipPath id="clip0_831_2486">
<rect width="686" height="456" fill="white" transform="matrix(-1 0 0 1 1453 188)"/>
</clipPath>
</defs>
</svg>
