<svg width="783" height="865" viewBox="0 0 783 865" fill="none" xmlns="http://www.w3.org/2000/svg">
<g filter="url(#filter0_f_89_23)">
<ellipse cx="391.5" cy="432.33" rx="225.5" ry="266.33" fill="#3F1091" fill-opacity="0.4"/>
</g>
<path d="M520.777 567.161L476.547 574.638V388.47L520.777 364.919V567.161Z" fill="#C72F17"/>
<path d="M491.948 418.369L485.703 420.608V406.691L491.948 404.123V418.369Z" fill="#241143"/>
<path d="M489.792 586.634L457.898 578.366V423.062L489.792 413.336V586.634Z" fill="#C72F17"/>
<path d="M607.607 547.975V420.197L558.703 438.756V535.188L607.607 547.975Z" fill="#C72F17"/>
<path d="M566.823 567.16L535.062 558.934V401.278L566.823 384.958V567.16Z" fill="#C72F17"/>
<path d="M520.781 578.603L556.352 569.38V383.212L520.781 364.92V578.603Z" fill="#E63114"/>
<path d="M489.781 586.634L521.675 578.366V423.062L489.781 413.336V586.634Z" fill="#E63114"/>
<path d="M548.516 397.714L553.744 400.015V387.269L548.516 384.691V397.714Z" fill="#241143"/>
<path d="M548.516 417.732L553.744 419.612V406.866L548.516 404.709V417.732Z" fill="#241143"/>
<path d="M548.516 437.75L553.744 439.208V426.462L548.516 424.727V437.75Z" fill="#241143"/>
<path d="M539.375 393.792L544.983 396.267V383.059L539.375 380.296V393.792Z" fill="#241143"/>
<path d="M539.375 414.548L544.983 416.562V403.353L539.375 401.053V414.548Z" fill="#241143"/>
<path d="M539.375 435.295L544.983 436.866V423.658L539.375 421.81V435.295Z" fill="#241143"/>
<path d="M525.133 387.536L531.378 390.289V376.372L525.133 373.301V387.536Z" fill="#241143"/>
<path d="M525.133 409.443L531.378 411.682V397.765L525.133 395.198V409.443Z" fill="#241143"/>
<path d="M512.526 388.81L506.281 390.792V377.779L512.526 374.564V388.81Z" fill="#241143"/>
<path d="M513.29 413.008L507.055 415.247V401.34L513.29 398.762V413.008Z" fill="#241143"/>
<path d="M491.948 398.341L485.703 400.19V388.399L491.948 385.318V398.341Z" fill="#241143"/>
<path d="M525.133 431.341L531.378 433.076V419.16L525.133 417.105V431.341Z" fill="#241143"/>
<path d="M548.516 468.172L553.744 468.983V456.237L548.516 455.148V468.172Z" fill="#241143"/>
<path d="M548.516 488.179L553.744 488.579V475.833L548.516 475.166V488.179Z" fill="#241143"/>
<path d="M548.516 508.197L553.744 508.177V495.431L548.516 495.184V508.197Z" fill="#241143"/>
<path d="M539.375 466.837L544.983 467.71V454.501L539.375 453.331V466.837Z" fill="#241143"/>
<path d="M539.375 487.584L544.983 488.015V474.807L539.375 474.088V487.584Z" fill="#241143"/>
<path d="M539.375 508.34L544.983 508.31V495.112L539.375 494.845V508.34Z" fill="#241143"/>
<path d="M525.133 464.618L531.378 465.584V451.677L525.133 450.373V464.618Z" fill="#241143"/>
<path d="M525.133 486.515L531.378 486.987V473.071L525.133 472.27V486.515Z" fill="#241143"/>
<path d="M525.133 508.412L531.378 508.381V494.464L525.133 494.167V508.412Z" fill="#241143"/>
<path d="M525.133 541.843L531.378 541.042V527.125L525.133 527.608V541.843Z" fill="#241143"/>
<path d="M525.133 563.751L531.378 562.436V548.53L525.133 549.505V563.751Z" fill="#241143"/>
<path d="M548.516 538.608L553.744 537.951V525.205L548.516 525.595V538.608Z" fill="#241143"/>
<path d="M548.516 558.626L553.744 557.548V544.802L548.516 545.613V558.626Z" fill="#241143"/>
<path d="M539.375 539.871L544.983 539.153V525.944L539.375 526.376V539.871Z" fill="#241143"/>
<path d="M539.375 560.629L544.983 559.458V546.25L539.375 547.122V560.629Z" fill="#241143"/>
<path d="M509.406 459.924L516.37 461.064V447.917L509.406 446.449V459.924Z" fill="#241143"/>
<path d="M496.117 457.85L503.729 459.093V445.35L496.117 443.748V457.85Z" fill="#241143"/>
<path d="M509.406 441.509L516.37 443.091V429.944L509.406 428.034V441.509Z" fill="#241143"/>
<path d="M496.117 438.582L503.729 440.307V426.565L496.117 424.48V438.582Z" fill="#241143"/>
<path d="M509.406 477.498L516.37 478.217V465.071L509.406 464.023V477.498Z" fill="#241143"/>
<path d="M496.117 476.234L503.729 477.015V463.272L496.117 462.132V476.234Z" fill="#241143"/>
<path d="M509.406 505.393L516.37 505.434V492.277L509.406 491.917V505.393Z" fill="#241143"/>
<path d="M496.117 505.413L503.729 505.454V491.712L496.117 491.322V505.413Z" fill="#241143"/>
<path d="M509.406 541.392L516.37 540.56V527.403L509.406 527.907V541.392Z" fill="#241143"/>
<path d="M500.57 582.228L512.393 579.229V548.53L500.57 550.255V582.228Z" fill="#241143"/>
<path d="M496.117 543.076L503.729 542.162V528.42L496.117 528.975V543.076Z" fill="#241143"/>
<path d="M509.406 522.966L516.37 522.576V509.429L509.406 509.491V522.966Z" fill="#241143"/>
<path d="M496.117 523.798L503.729 523.377V509.634L496.117 509.706V523.798Z" fill="#241143"/>
<path d="M566.836 567.16L598.596 558.934V401.278L566.836 384.958V567.16Z" fill="#E63114"/>
<path d="M593 414.024L596.729 415.657V404.893L593 403.055V414.024Z" fill="#241143"/>
<path d="M593 430.889L596.729 432.234V421.45L593 419.919V430.889Z" fill="#241143"/>
<path d="M593 447.763L596.729 448.8V438.016L593 436.783V447.763Z" fill="#241143"/>
<path d="M586.547 411.271L590.512 413.007V401.904L586.547 399.963V411.271Z" fill="#241143"/>
<path d="M586.547 428.649L590.512 430.077V418.974L586.547 417.352V428.649Z" fill="#241143"/>
<path d="M586.547 446.048L590.512 447.147V436.045L586.547 434.74V446.048Z" fill="#241143"/>
<path d="M576.656 406.916L580.97 408.816V397.221L576.656 395.095V406.916Z" fill="#241143"/>
<path d="M576.656 425.105L580.97 426.656V415.05L576.656 413.273V425.105Z" fill="#241143"/>
<path d="M576.656 443.285L580.97 444.487V432.891L576.656 431.463V443.285Z" fill="#241143"/>
<path d="M569.273 403.671L573.875 405.694V393.729L569.273 391.459V403.671Z" fill="#241143"/>
<path d="M569.273 422.446L573.875 424.11V412.134L569.273 410.244V422.446Z" fill="#241143"/>
<path d="M569.273 441.231L573.875 442.515V430.549L569.273 429.019V441.231Z" fill="#241143"/>
<path d="M593 473.389L596.729 473.964V463.19L593 462.41V473.389Z" fill="#241143"/>
<path d="M593 490.253L596.729 490.53V479.756L593 479.284V490.253Z" fill="#241143"/>
<path d="M593 507.118L596.729 507.097V496.323L593 496.148V507.118Z" fill="#241143"/>
<path d="M586.547 472.454L590.512 473.081V461.978L586.547 461.146V472.454Z" fill="#241143"/>
<path d="M586.547 489.842L590.512 490.14V479.048L586.547 478.544V489.842Z" fill="#241143"/>
<path d="M586.547 507.23L590.512 507.21V496.107L586.547 495.922V507.23Z" fill="#241143"/>
<path d="M576.656 470.913L580.97 471.591V459.985L576.656 459.092V470.913Z" fill="#241143"/>
<path d="M576.656 489.092L580.97 489.421V477.825L576.656 477.271V489.092Z" fill="#241143"/>
<path d="M576.656 507.282L580.97 507.262V495.656L576.656 495.45V507.282Z" fill="#241143"/>
<path d="M576.656 535.034L580.97 534.489V522.883L576.656 523.212V535.034Z" fill="#241143"/>
<path d="M576.656 553.223L580.97 552.33V540.724L576.656 541.402V553.223Z" fill="#241143"/>
<path d="M569.273 469.763L573.875 470.482V458.506L569.273 457.551V469.763Z" fill="#241143"/>
<path d="M569.273 488.538L573.875 488.887V476.922L569.273 476.336V488.538Z" fill="#241143"/>
<path d="M569.273 507.323L573.875 507.292V495.327L569.273 495.101V507.323Z" fill="#241143"/>
<path d="M569.273 535.978L573.875 535.393V523.427L569.273 523.776V535.978Z" fill="#241143"/>
<path d="M569.273 554.764L573.875 553.809V541.833L569.273 542.552V554.764Z" fill="#241143"/>
<path d="M593 532.743L596.729 532.271V521.497L593 521.774V532.743Z" fill="#241143"/>
<path d="M593 549.607L596.729 548.837V538.063L593 538.638V549.607Z" fill="#241143"/>
<path d="M586.547 533.647L590.512 533.144V522.042L586.547 522.339V533.647Z" fill="#241143"/>
<path d="M586.547 551.036L590.512 550.214V539.111L586.547 539.728V551.036Z" fill="#241143"/>
<path d="M480.17 597.788L364.141 628.857V177.735L480.17 269.556V597.788Z" fill="#E63114"/>
<path d="M480.17 278.635L364.141 190.194V177.735L480.17 269.556V278.635Z" fill="#F45137"/>
<path d="M405.373 339.869L377.742 327.246V309.272L405.373 323.087V339.869Z" fill="#241143"/>
<path d="M441.93 356.569L419.414 346.278V330.112L441.93 341.369V356.569Z" fill="#241143"/>
<path d="M472.51 370.548L453.867 362.023V347.346L472.51 356.682V370.548Z" fill="#241143"/>
<path d="M405.373 311.655L377.742 297.019V279.035L405.373 294.873V311.655Z" fill="#241143"/>
<path d="M441.93 331.016L419.414 319.091V302.915L441.93 315.815V331.016Z" fill="#241143"/>
<path d="M472.51 347.222L453.867 337.352V322.665L472.51 333.357V347.222Z" fill="#241143"/>
<path d="M405.373 283.442L377.742 266.782V248.809L405.373 266.659V283.442Z" fill="#241143"/>
<path d="M441.93 305.462L419.414 291.895V275.718L441.93 290.262V305.462Z" fill="#241143"/>
<path d="M472.51 323.897L453.867 312.661V297.984L472.51 310.032V323.897Z" fill="#241143"/>
<path d="M405.373 255.228L377.742 236.555V218.582L405.373 238.435V255.228Z" fill="#241143"/>
<path d="M441.93 279.908L419.414 264.697V248.521L441.93 264.708V279.908Z" fill="#241143"/>
<path d="M472.51 300.583L453.867 287.981V273.304L472.51 286.708V300.583Z" fill="#241143"/>
<path d="M405.373 368.082L377.742 357.473V339.499L405.373 351.3V368.082Z" fill="#241143"/>
<path d="M441.93 382.123L419.414 373.475V357.298L441.93 366.922V382.123Z" fill="#241143"/>
<path d="M472.51 393.872L453.867 386.703V372.037L472.51 379.996V393.872Z" fill="#241143"/>
<path d="M405.373 396.306L377.742 387.71V369.726L405.373 379.514V396.306Z" fill="#241143"/>
<path d="M441.93 407.676L419.414 400.671V384.495L441.93 392.475V407.676Z" fill="#241143"/>
<path d="M472.51 417.197L453.867 411.394V396.717L472.51 403.331V417.197Z" fill="#241143"/>
<path d="M405.373 424.521L377.742 417.937V399.953L405.373 407.738V424.521Z" fill="#241143"/>
<path d="M441.93 433.231L419.414 427.869V411.693L441.93 418.03V433.231Z" fill="#241143"/>
<path d="M472.51 440.523L453.867 436.075V421.398L472.51 426.647V440.523Z" fill="#241143"/>
<path d="M405.373 452.734L377.742 448.163V430.179L405.373 435.951V452.734Z" fill="#241143"/>
<path d="M441.93 458.784L419.414 455.055V438.879L441.93 443.583V458.784Z" fill="#241143"/>
<path d="M472.51 463.847L453.867 460.755V446.079L472.51 449.971V463.847Z" fill="#241143"/>
<path d="M405.373 480.958L377.742 478.39V460.406L405.373 464.165V480.958Z" fill="#241143"/>
<path d="M441.93 484.337L419.414 482.252V466.076L441.93 469.136V484.337Z" fill="#241143"/>
<path d="M472.51 487.171L453.867 485.446V470.769L472.51 473.296V487.171Z" fill="#241143"/>
<path d="M405.373 509.161L377.742 508.617V490.633L405.373 492.379V509.161Z" fill="#241143"/>
<path d="M441.93 509.88L419.414 509.439V493.272L441.93 494.69V509.88Z" fill="#241143"/>
<path d="M472.51 513.167L453.867 512.797V498.12L472.51 499.301V513.167Z" fill="#241143"/>
<path d="M405.373 537.385L377.742 538.854V520.87L405.373 520.593V537.385Z" fill="#241143"/>
<path d="M441.93 535.444L419.414 536.636V520.459L441.93 520.244V535.444Z" fill="#241143"/>
<path d="M472.51 539.173L453.867 540.169V525.482L472.51 525.307V539.173Z" fill="#241143"/>
<path d="M405.373 563.134L377.742 566.442V548.468L405.373 546.362V563.134Z" fill="#241143"/>
<path d="M441.93 558.769L419.414 561.46V545.284L441.93 543.568V558.769Z" fill="#241143"/>
<path d="M472.51 599.77L453.867 604.7V555.575L472.51 554.157V599.77Z" fill="#241143"/>
<path d="M405.373 588.893L377.742 594.039V576.055L405.373 572.111V588.893Z" fill="#241143"/>
<path d="M441.93 582.094L419.414 586.284V570.108L441.93 566.893V582.094Z" fill="#241143"/>
<path d="M607.609 547.975V420.197L656.513 437.575V535.188L607.609 547.975Z" fill="#E63114"/>
<path d="M638.847 467.062L630.578 465.707V452.18L638.847 454.152V467.062Z" fill="#241143"/>
<path d="M638.847 482.303L630.578 481.687V468.171L638.847 469.403V482.303Z" fill="#241143"/>
<path d="M638.847 505.691L630.578 506.204V492.688L638.847 492.791V505.691Z" fill="#241143"/>
<path d="M638.846 539.8L625.688 543.251V516.454L638.846 514.924V539.8Z" fill="#241143"/>
<path d="M622.802 464.433L618.344 463.714V449.263L622.802 450.331V464.433Z" fill="#241143"/>
<path d="M622.802 481.113L618.344 480.784V466.333L622.802 467.011V481.113Z" fill="#241143"/>
<path d="M622.802 506.697L618.344 506.964V492.523L622.802 492.585V506.697Z" fill="#241143"/>
<path d="M646.848 468.613L641.25 467.452V454.737L646.848 456.381V468.613Z" fill="#241143"/>
<path d="M638.847 451.944L630.578 449.859V436.343L638.847 439.044V451.944Z" fill="#241143"/>
<path d="M622.802 447.918L618.344 446.788V432.337L622.802 433.806V447.918Z" fill="#241143"/>
<path d="M646.848 454.285L641.25 452.55V439.834L646.848 442.043V454.285Z" fill="#241143"/>
<path d="M646.848 482.838L641.25 482.479V469.764L646.848 470.606V482.838Z" fill="#241143"/>
<path d="M646.848 505.269L641.25 505.547V492.821L646.848 493.037V505.269Z" fill="#241143"/>
<path d="M622.802 524.136L618.344 524.825V510.384L622.802 510.024V524.136Z" fill="#241143"/>
<path d="M646.848 520.398L641.25 521.271V508.556L646.848 508.166V520.398Z" fill="#241143"/>
<path d="M654.402 469.599L648.547 468.644V456.473L654.402 457.87V469.599Z" fill="#241143"/>
<path d="M654.402 455.857L648.547 454.388V442.217L654.402 444.128V455.857Z" fill="#241143"/>
<path d="M654.402 483.454L648.547 483.022V470.852L654.402 471.725V483.454Z" fill="#241143"/>
<path d="M654.402 504.725L648.547 505.084V492.924L654.402 492.996V504.725Z" fill="#241143"/>
<path d="M654.402 519.227L648.547 520.131V507.97L654.402 507.498V519.227Z" fill="#241143"/>
<path d="M615.475 463.847L610.719 463.066V448.164L615.475 449.293V463.847Z" fill="#241143"/>
<path d="M615.475 446.798L610.719 445.607V430.694L615.475 432.245V446.798Z" fill="#241143"/>
<path d="M615.475 481.051L610.719 480.702V465.789L615.475 466.497V481.051Z" fill="#241143"/>
<path d="M615.475 507.436L610.719 507.734V492.821L615.475 492.882V507.436Z" fill="#241143"/>
<path d="M615.475 525.431L610.719 526.17V511.257L615.475 510.887V525.431Z" fill="#241143"/>
<path d="M203.6 553.316L157.953 565.251V458.445L203.6 467.442V553.316Z" fill="#E63114"/>
<path d="M165.117 568.639L236.978 587.425V405.869L165.117 429.491V568.639Z" fill="#AE2812"/>
<path d="M308.845 568.639L236.984 587.425V405.869L308.845 429.491V568.639Z" fill="#E63114"/>
<path d="M153.327 537.17L106.211 549.084V405.417L153.327 428.999V537.17Z" fill="#E63114"/>
<path d="M225 437.544L232.786 435.716V419.745L225 421.994V437.544Z" fill="#241143"/>
<path d="M212.984 440.471L220.144 438.797V423.494L212.984 425.548V440.471Z" fill="#241143"/>
<path d="M185.039 447.034L203.857 442.618V428.177L185.039 433.58V447.034Z" fill="#241143"/>
<path d="M225 467.4L232.786 466.353V450.382L225 451.83V467.4Z" fill="#241143"/>
<path d="M225 491.312L232.786 490.901V474.93L225 475.762V491.312Z" fill="#241143"/>
<path d="M225 515.242L232.786 515.457V499.486L225 499.681V515.242Z" fill="#241143"/>
<path d="M212.984 469.106L220.144 468.151V452.848L212.984 454.183V469.106Z" fill="#241143"/>
<path d="M212.984 492.061L220.144 491.681V476.377L212.984 477.137V492.061Z" fill="#241143"/>
<path d="M212.984 515.016L220.144 515.212V499.908L212.984 500.083V515.016Z" fill="#241143"/>
<path d="M185.039 472.845L203.857 470.339V455.888L185.039 459.39V472.845Z" fill="#241143"/>
<path d="M185.039 493.54L203.857 492.544V478.103L185.039 480.085V493.54Z" fill="#241143"/>
<path d="M185.039 514.225L203.857 514.76V500.309L185.039 500.771V514.225Z" fill="#241143"/>
<path d="M185.039 540.19L203.857 542.634V528.184L185.039 526.735V540.19Z" fill="#241143"/>
<path d="M185.039 560.875L203.857 564.839V550.398L185.039 547.42V560.875Z" fill="#241143"/>
<path d="M225 545.088L232.786 546.095V530.124L225 529.528V545.088Z" fill="#241143"/>
<path d="M225 569.009L232.786 570.653V554.671L225 553.449V569.009Z" fill="#241143"/>
<path d="M212.984 543.65L220.144 544.575V529.261L212.984 528.717V543.65Z" fill="#241143"/>
<path d="M212.984 566.606L220.144 568.105V552.802L212.984 551.672V566.606Z" fill="#241143"/>
<path d="M176.891 448.945L182.324 447.671V434.36L176.891 435.921V448.945Z" fill="#241143"/>
<path d="M176.891 473.933L182.324 473.214V459.893L176.891 460.91V473.933Z" fill="#241143"/>
<path d="M176.891 493.972L182.324 493.674V480.363L176.891 480.938V493.972Z" fill="#241143"/>
<path d="M176.891 514L182.324 514.154V500.843L176.891 500.966V514Z" fill="#241143"/>
<path d="M176.891 538.988L182.324 539.686V526.375L176.891 525.954V538.988Z" fill="#241143"/>
<path d="M176.891 559.016L182.324 560.156V546.835L176.891 545.982V559.016Z" fill="#241143"/>
<path d="M167.773 451.081L172.827 449.899V437.092L167.773 438.54V451.081Z" fill="#241143"/>
<path d="M167.773 475.155L172.827 474.478V461.67L167.773 462.605V475.155Z" fill="#241143"/>
<path d="M167.773 494.444L172.827 494.187V481.369L167.773 481.903V494.444Z" fill="#241143"/>
<path d="M167.773 513.742L172.827 513.886V501.068L167.773 501.191V513.742Z" fill="#241143"/>
<path d="M167.773 537.807L172.827 538.465V525.647L167.773 525.256V537.807Z" fill="#241143"/>
<path d="M167.773 557.095L172.827 558.163V545.346L167.773 544.555V557.095Z" fill="#241143"/>
<path d="M112.305 553.316L157.952 565.251V458.445L112.305 467.442V553.316Z" fill="#AE2812"/>
<path d="M120.93 545.634L140.713 549.803V540.817L120.93 537.468V545.634Z" fill="#241143"/>
<path d="M114.078 544.185L118.752 545.171V537.109L114.078 536.318V544.185Z" fill="#241143"/>
<path d="M143.922 550.348L155.642 552.813V543.2L143.922 541.228V550.348Z" fill="#241143"/>
<path d="M120.93 529.765L140.713 532.333V523.346L120.93 521.61V529.765Z" fill="#241143"/>
<path d="M114.078 528.882L118.752 529.478V521.415L114.078 521.004V528.882Z" fill="#241143"/>
<path d="M143.922 532.62L155.642 534.141V524.527L143.922 523.5V532.62Z" fill="#241143"/>
<path d="M120.93 513.897L140.713 514.873V505.886L120.93 505.742V513.897Z" fill="#241143"/>
<path d="M114.078 513.568L118.752 513.804V505.732L114.078 505.69V513.568Z" fill="#241143"/>
<path d="M143.922 514.904L155.642 515.469V505.855L143.922 505.783V514.904Z" fill="#241143"/>
<path d="M120.93 498.039L140.713 497.413V488.426L120.93 489.884V498.039Z" fill="#241143"/>
<path d="M114.078 498.265L118.752 498.111V490.048L114.078 490.387V498.265Z" fill="#241143"/>
<path d="M143.922 497.177L155.642 496.797V487.183L143.922 488.056V497.177Z" fill="#241143"/>
<path d="M120.93 482.181L140.713 479.942V470.955L120.93 474.016V482.181Z" fill="#241143"/>
<path d="M114.078 482.952L118.752 482.428V474.355L114.078 475.074V482.952Z" fill="#241143"/>
<path d="M143.922 479.459L155.642 478.113V468.51L143.922 470.328V479.459Z" fill="#241143"/>
<path d="M86 543.805L106.215 549.084V405.417L86 415.852V543.805Z" fill="#AE2812"/>
<path d="M101.82 421.203L104.696 419.94V410.286L101.82 411.713V421.203Z" fill="#241143"/>
<path d="M101.82 435.809L104.696 434.781V425.127L101.82 426.308V435.809Z" fill="#241143"/>
<path d="M101.82 450.424L104.696 449.623V439.968L101.82 440.923V450.424Z" fill="#241143"/>
<path d="M97.2734 423.278L99.9954 422.076V412.678L97.2734 414.024V423.278Z" fill="#241143"/>
<path d="M97.2734 437.514L99.9954 436.538V427.13L97.2734 428.26V437.514Z" fill="#241143"/>
<path d="M97.2734 451.759L99.9954 450.989V441.591L97.2734 442.495V451.759Z" fill="#241143"/>
<path d="M91.1797 425.969L93.7168 424.85V415.771L91.1797 417.024V425.969Z" fill="#241143"/>
<path d="M91.1797 439.711L93.7168 438.797V429.718L91.1797 430.765V439.711Z" fill="#241143"/>
<path d="M91.1797 453.454L93.7168 452.745V443.676L91.1797 444.518V453.454Z" fill="#241143"/>
<path d="M87.2031 427.715L89.6272 426.647V417.793L87.2031 418.985V427.715Z" fill="#241143"/>
<path d="M87.2031 441.139L89.6272 440.266V431.413L87.2031 432.409V441.139Z" fill="#241143"/>
<path d="M87.2031 454.562L89.6272 453.885V445.031L87.2031 445.832V454.562Z" fill="#241143"/>
<path d="M101.82 472.608L104.696 472.156V462.512L101.82 463.107V472.608Z" fill="#241143"/>
<path d="M101.82 487.213L104.696 486.997V477.343L101.82 477.713V487.213Z" fill="#241143"/>
<path d="M101.82 501.818L104.696 501.828V492.184L101.82 492.318V501.818Z" fill="#241143"/>
<path d="M97.2734 473.389L99.9954 472.957V463.56L97.2734 464.124V473.389Z" fill="#241143"/>
<path d="M97.2734 487.624L99.9954 487.419V478.021L97.2734 478.36V487.624Z" fill="#241143"/>
<path d="M97.2734 501.859L99.9954 501.88V492.472L97.2734 492.595V501.859Z" fill="#241143"/>
<path d="M91.1797 474.334L93.7168 473.933V464.864L91.1797 465.398V474.334Z" fill="#241143"/>
<path d="M91.1797 488.076L93.7168 487.891V478.812L91.1797 479.141V488.076Z" fill="#241143"/>
<path d="M91.1797 501.819L93.7168 501.839V492.76L91.1797 492.883V501.819Z" fill="#241143"/>
<path d="M91.1797 522.802L93.7168 523.13V514.051L91.1797 513.856V522.802Z" fill="#241143"/>
<path d="M91.1797 536.544L93.7168 537.078V528.009L91.1797 527.608V536.544Z" fill="#241143"/>
<path d="M87.2031 474.95L89.6272 474.57V465.717L87.2031 466.22V474.95Z" fill="#241143"/>
<path d="M87.2031 488.374L89.6272 488.189V479.336L87.2031 479.644V488.374Z" fill="#241143"/>
<path d="M87.2031 501.798L89.6272 501.808V492.955L87.2031 493.068V501.798Z" fill="#241143"/>
<path d="M87.2031 522.277L89.6272 522.596V513.742L87.2031 513.547V522.277Z" fill="#241143"/>
<path d="M87.2031 535.701L89.6272 536.215V527.361L87.2031 526.981V535.701Z" fill="#241143"/>
<path d="M101.82 524.003L104.696 524.383V514.729L101.82 514.513V524.003Z" fill="#241143"/>
<path d="M101.82 538.608L104.696 539.214V529.57L101.82 529.118V538.608Z" fill="#241143"/>
<path d="M97.2734 523.49L99.9954 523.839V514.441L97.2734 514.226V523.49Z" fill="#241143"/>
<path d="M97.2734 537.725L99.9954 538.3V528.892L97.2734 528.46V537.725Z" fill="#241143"/>
<path d="M364.14 628.857L247.68 598.404V268.991L364.14 176.493V628.857Z" fill="#AE2812"/>
<path d="M364.14 189.013L247.68 278.091V268.991L364.14 176.493V189.013Z" fill="#E63114"/>
<path d="M274.056 361.767L255.352 370.333V356.416L274.056 347.039V361.767Z" fill="#241143"/>
<path d="M308.135 346.156L285.609 356.478V341.236L308.135 329.928V346.156Z" fill="#241143"/>
<path d="M350.465 326.754L322.711 339.48V322.615L350.465 308.698V326.754Z" fill="#241143"/>
<path d="M274.056 336.984L255.352 346.926V333.009L274.056 322.256V336.984Z" fill="#241143"/>
<path d="M308.135 318.877L285.609 330.852V315.611L308.135 302.659V318.877Z" fill="#241143"/>
<path d="M350.465 296.384L322.711 311.132V294.268L350.465 278.317V296.384Z" fill="#241143"/>
<path d="M274.056 312.21L255.352 323.518V309.591L274.056 297.472V312.21Z" fill="#241143"/>
<path d="M308.135 291.597L285.609 305.226V289.984L308.135 275.379V291.597Z" fill="#241143"/>
<path d="M350.465 266.002L322.711 282.785V265.93L350.465 247.946V266.002Z" fill="#241143"/>
<path d="M274.056 287.427L255.352 300.102V286.185L274.056 272.689V287.427Z" fill="#241143"/>
<path d="M308.135 264.329L285.609 279.601V264.36L308.135 248.101V264.329Z" fill="#241143"/>
<path d="M350.465 235.632L322.711 254.448V237.584L350.465 217.566V235.632Z" fill="#241143"/>
<path d="M274.056 386.551L255.352 393.75V379.823L274.056 371.812V386.551Z" fill="#241143"/>
<path d="M308.135 373.425L285.609 382.103V366.862L308.135 357.207V373.425Z" fill="#241143"/>
<path d="M350.465 357.135L322.711 367.817V350.962L350.465 339.069V357.135Z" fill="#241143"/>
<path d="M274.056 411.333L255.352 417.167V403.24L274.056 396.595V411.333Z" fill="#241143"/>
<path d="M308.135 400.713L285.609 407.728V392.486L308.135 384.485V400.713Z" fill="#241143"/>
<path d="M350.465 387.515L322.711 396.163V379.309L350.465 369.439V387.515Z" fill="#241143"/>
<path d="M274.056 436.106L255.352 440.574V426.647L274.056 421.368V436.106Z" fill="#241143"/>
<path d="M308.135 427.983L285.609 433.365V418.112L308.135 411.755V427.983Z" fill="#241143"/>
<path d="M350.465 417.886L322.711 424.511V407.646L350.465 399.82V417.886Z" fill="#241143"/>
<path d="M274.056 460.89L255.352 463.981V450.054L274.056 446.151V460.89Z" fill="#241143"/>
<path d="M308.135 455.262L285.609 458.98V443.738L308.135 439.034V455.262Z" fill="#241143"/>
<path d="M350.465 448.257L322.711 452.848V435.994L350.465 430.191V448.257Z" fill="#241143"/>
<path d="M274.056 485.673L255.352 487.398V473.471L274.056 470.934V485.673Z" fill="#241143"/>
<path d="M308.135 482.54L285.609 484.605V469.363L308.135 466.312V482.54Z" fill="#241143"/>
<path d="M350.465 478.638L322.711 481.195V464.33L350.465 460.571V478.638Z" fill="#241143"/>
<path d="M274.056 510.446L255.352 510.806V496.879L274.056 495.718V510.446Z" fill="#241143"/>
<path d="M308.135 509.81L285.609 510.231V494.999L308.135 493.592V509.81Z" fill="#241143"/>
<path d="M350.465 509.009L322.711 509.532V492.678L350.465 490.942V509.009Z" fill="#241143"/>
<path d="M274.056 535.229L255.352 534.212V520.285L274.056 520.491V535.229Z" fill="#241143"/>
<path d="M308.135 537.088L285.609 535.866V520.614L308.135 520.86V537.088Z" fill="#241143"/>
<path d="M350.465 539.388L322.711 537.879V521.024L350.465 521.322V539.388Z" fill="#241143"/>
<path d="M350.465 568.578L322.711 565.282V548.417L350.465 550.502V568.578Z" fill="#241143"/>
<path d="M350.465 595.97L322.711 589.992V573.138L350.465 577.904V595.97Z" fill="#241143"/>
<path d="M274.056 557.856L255.352 555.586V541.659L274.056 543.118V557.856Z" fill="#241143"/>
<path d="M308.135 561.985L285.609 559.253V544.011L308.135 545.767V561.985Z" fill="#241143"/>
<path d="M274.056 580.472L255.352 576.96V563.033L274.056 565.734V580.472Z" fill="#241143"/>
<path d="M308.135 586.882L285.609 582.64V567.408L308.135 570.664V586.882Z" fill="#241143"/>
<defs>
<filter id="filter0_f_89_23" x="0" y="0" width="783" height="864.66" filterUnits="userSpaceOnUse" color-interpolation-filters="sRGB">
<feFlood flood-opacity="0" result="BackgroundImageFix"/>
<feBlend mode="normal" in="SourceGraphic" in2="BackgroundImageFix" result="shape"/>
<feGaussianBlur stdDeviation="83" result="effect1_foregroundBlur_89_23"/>
</filter>
</defs>
</svg>
