<svg width="40" height="40" viewBox="0 0 40 40" fill="none" xmlns="http://www.w3.org/2000/svg">
<path d="M18.5238 6.39768C18.188 6.39768 17.9159 6.66986 17.9159 7.00564C17.9159 7.3415 18.188 7.61361 18.5238 7.61361H21.262C21.8499 7.61361 22.3282 7.13533 22.3282 6.54752V4.44064C22.3282 3.85275 21.8499 3.37447 21.262 3.37447H8.68719C8.0993 3.37447 7.62102 3.85275 7.62102 4.44064V6.5476C7.62102 7.13541 8.0993 7.61369 8.68719 7.61369H15.6662C16.002 7.61369 16.2741 7.3415 16.2741 7.00572C16.2741 6.66986 16.002 6.39775 15.6662 6.39775H8.83703V4.59049H21.1122V6.3976L18.5238 6.39768Z" fill="white"/>
<path d="M4.90359 10.7351C4.90359 11.071 5.17578 11.3431 5.51156 11.3431H24.5664C24.9023 11.3431 25.1744 11.0709 25.1744 10.7351C25.1744 10.3992 24.9022 10.1271 24.5664 10.1271H5.51156C5.17578 10.1271 4.90359 10.3992 4.90359 10.7351Z" fill="white"/>
<path d="M5.51156 15.1685H24.5664C24.9023 15.1685 25.1744 14.8963 25.1744 14.5606C25.1744 14.2247 24.9022 13.9526 24.5664 13.9526H5.51156C5.17578 13.9526 4.90359 14.2248 4.90359 14.5606C4.90359 14.8964 5.17578 15.1685 5.51156 15.1685Z" fill="white"/>
<path d="M20.8079 18.3861C20.8079 18.0503 20.5357 17.7781 20.1999 17.7781H5.51156C5.17578 17.7781 4.90359 18.0503 4.90359 18.3861C4.90359 18.7219 5.17578 18.9941 5.51156 18.9941H20.1998C20.5356 18.9941 20.8079 18.7219 20.8079 18.3861Z" fill="white"/>
<path d="M13.1059 22.8196C13.4416 22.8196 13.7138 22.5474 13.7138 22.2116C13.7138 21.8757 13.4416 21.6036 13.1059 21.6036H5.51156C5.17578 21.6036 4.90359 21.8758 4.90359 22.2116C4.90359 22.5474 5.17578 22.8196 5.51156 22.8196H13.1059Z" fill="white"/>
<path d="M4.77852 34.6417C5.10164 34.7343 5.43781 34.5466 5.52984 34.2236C5.53375 34.2101 5.93258 32.8727 7.48523 32.8727C8.25164 32.8727 8.61539 33.1738 9.11891 33.5906C9.69742 34.0695 10.4175 34.6654 11.8088 34.6654C13.5435 34.6654 14.476 32.8313 14.5149 32.7532C14.6641 32.4535 14.5422 32.0904 14.243 31.9402C13.9437 31.7899 13.5788 31.9109 13.4273 32.2095C13.4209 32.2219 12.7872 33.4494 11.8088 33.4494C10.8555 33.4494 10.4313 33.0983 9.89422 32.6538C9.32953 32.1863 8.68961 31.6567 7.48516 31.6567C5.51672 31.6567 4.58039 33.1178 4.36031 33.8904C4.26836 34.2134 4.45563 34.5498 4.77852 34.6417Z" fill="white"/>
<path d="M39.4039 6.2433C39.3438 6.09322 39.2263 5.97338 39.0776 5.91002L37.6648 5.30893C37.7834 5.00939 37.6344 4.65385 37.3411 4.52713L37.0595 4.40549L37.5165 3.34705C38.0327 2.14916 37.4617 0.713223 36.2651 0.19627C35.0693 -0.320293 33.632 0.250879 33.1153 1.44627L32.6444 2.5365C32.1056 2.4426 31.5607 2.73861 31.3445 3.23939L30.078 6.17213V3.05963C30.078 1.37275 28.7056 0.000488281 27.0188 0.000488281H3.05828C1.37195 0.000488281 0 1.37244 0 3.05877V36.9422C0 38.6285 1.37195 40.0005 3.05828 40.0005H27.0197C28.706 40.0005 30.0779 38.6285 30.0779 36.9422V28.4299C30.0779 28.094 29.8057 27.8219 29.4699 27.8219C29.1341 27.8219 28.862 28.0941 28.862 28.4299V36.9422C28.862 37.9581 28.0355 38.7845 27.0198 38.7845H3.05828C2.04242 38.7845 1.21602 37.9581 1.21602 36.9422V3.05877C1.21602 2.04291 2.0425 1.2165 3.05828 1.2165H27.0188C28.0351 1.2165 28.862 2.0433 28.862 3.05963V8.98791L19.5427 30.5717C19.5103 30.6468 19.4923 30.7311 19.4924 30.8131L19.4995 35.9346C19.5005 37.0774 20.9137 37.6928 21.7502 36.9063L25.482 33.3996C25.5336 33.3517 25.5768 33.292 25.6083 33.2292C25.6116 33.2228 25.6148 33.2163 25.6179 33.2097C25.6198 33.2056 25.6221 33.2016 25.6239 33.1974L37.1836 6.42564L38.0398 6.78994L33.5177 17.3057C33.385 17.6142 33.5275 17.9718 33.836 18.1045C33.9143 18.1382 33.9958 18.1541 34.0759 18.1541C34.3115 18.1541 34.5357 18.0163 34.6347 17.7861L39.398 6.70971C39.4619 6.56111 39.464 6.3933 39.4039 6.2433ZM35.3847 1.21861C36.1911 1.26002 36.7167 2.1308 36.3999 2.86525L35.9431 3.92322L33.7744 2.98697L34.2316 1.92861C34.4273 1.47564 34.8898 1.19127 35.3847 1.21861ZM32.4525 3.7408L36.3009 5.40244L31.4111 16.7271L27.562 15.065L32.4525 3.7408ZM24.7486 32.1573L20.9002 30.4954L27.0801 16.1815L30.9291 17.8435L24.7486 32.1573ZM20.9173 36.0203C20.8423 36.0906 20.7155 36.0367 20.7155 35.9335L20.7098 31.7378L23.9745 33.1474L20.9173 36.0203Z" fill="white"/>
</svg>
