<svg width="44" height="36" viewBox="0 0 44 36" fill="none" xmlns="http://www.w3.org/2000/svg">
<path d="M43.3592 12.1752H38.8026C36.4175 4.91311 29.5469 0.000488281 22 0.000488281C14.1327 0.000488281 7.47573 5.1979 5.19741 12.1752H0.640777C0.28479 12.1752 0 12.46 0 12.816V22.6769C0 23.0328 0.28479 23.3176 0.640777 23.3176H5.19741C7.51133 30.2594 14.0971 35.4924 22 35.4924C30.0453 35.4924 36.5599 30.1526 38.8026 23.3176H43.3592C43.7152 23.3176 44 23.0328 44 22.6769V12.816C44 12.46 43.7152 12.1752 43.3592 12.1752ZM37.4854 12.1752H28.3366C28.1942 10.8937 27.9806 9.64774 27.7314 8.54418C29.8673 8.11699 31.8964 7.36942 33.7476 6.26586C35.4207 7.939 36.7023 9.96812 37.4854 12.1752ZM22 1.28204C23.6375 1.28204 25.2039 3.73835 26.2362 7.58301C24.8123 7.761 23.4239 7.8678 22 7.8678C20.576 7.8678 19.1877 7.761 17.7638 7.54741C18.7961 3.73835 20.3625 1.28204 22 1.28204ZM16.5534 7.33382C14.6667 6.97783 12.8511 6.30146 11.178 5.37589C13.4563 3.38236 16.2686 2.02961 19.2589 1.49563C18.1553 2.74159 17.2298 4.77071 16.5534 7.33382ZM24.7767 1.49563C27.767 2.02961 30.5793 3.34677 32.8576 5.37589C31.1845 6.30146 29.3689 6.97783 27.4822 7.33382C26.7702 4.77071 25.8447 2.74159 24.7767 1.49563ZM22 9.11375C23.4951 9.11375 25.0259 9.00696 26.521 8.75777C26.7702 9.82573 26.9482 10.9649 27.0906 12.1752H16.9094C17.0518 10.9649 17.2654 9.82573 17.479 8.75777C18.9741 9.00696 20.5049 9.11375 22 9.11375ZM10.2168 6.26586C12.068 7.36942 14.1327 8.15259 16.233 8.54418C15.9838 9.68333 15.7702 10.8937 15.6278 12.1752H6.51456C7.29773 9.96812 8.57929 7.939 10.2168 6.26586ZM1.28155 13.4212H31.5405V22.0361H1.28155V13.4212ZM22 34.2108C20.3625 34.2108 18.7961 31.7545 17.7638 27.9099C20.576 27.4827 23.3884 27.4827 26.2006 27.9099C25.2039 31.7189 23.6375 34.2108 22 34.2108ZM27.4466 28.1235C29.3333 28.4794 31.1489 29.1558 32.822 30.0814C30.5437 32.0749 27.7314 33.4277 24.7411 33.9616C25.8447 32.7157 26.7702 30.6866 27.4466 28.1235ZM19.2233 33.9616C16.233 33.4277 13.4207 32.1105 11.1424 30.0814C12.8155 29.1558 14.6311 28.4794 16.5178 28.1235C17.2298 30.6866 18.1553 32.7157 19.2233 33.9616ZM22 26.3435C20.5049 26.3435 18.9741 26.4503 17.479 26.6995C17.2298 25.6316 17.0518 24.4924 16.9094 23.282H27.0906C26.9482 24.4924 26.7346 25.6316 26.521 26.6995C25.0259 26.4503 23.4951 26.3435 22 26.3435ZM6.51456 23.282H15.6634C15.8058 24.5636 16.0194 25.8095 16.2686 26.9131C14.1327 27.3403 12.1036 28.0879 10.2168 29.1914C8.57929 27.5183 7.29773 25.4892 6.51456 23.282ZM33.7832 29.1914C31.932 28.0879 29.8673 27.3047 27.767 26.9131C28.0162 25.7739 28.2298 24.5636 28.3722 23.282H37.521C36.7023 25.4892 35.4207 27.5183 33.7832 29.1914ZM42.754 22.0361H32.822V13.4212H42.754V22.0361Z" fill="white"/>
<path d="M11.0356 14.9875C10.7152 14.8807 10.3592 15.0943 10.288 15.4147L9.61165 17.871L8.61489 15.3435C8.47249 15.0231 8.1165 14.8807 7.79612 14.9875C7.61812 15.0587 7.51133 15.1655 7.44013 15.3435L6.44337 17.871L5.76699 15.4147C5.66019 15.0943 5.33981 14.8807 5.01942 14.9875C4.69903 15.0943 4.48544 15.4147 4.59223 15.7351L5.76699 20.007C5.87379 20.3273 6.19417 20.5409 6.55016 20.4341C6.72815 20.3985 6.90615 20.2561 6.97735 20.0782L8.08091 17.2659L9.18447 20.0782C9.29126 20.3273 9.50485 20.4697 9.75404 20.4697H9.78964C10.0744 20.4697 10.288 20.2561 10.3592 20.007L11.534 15.7351C11.5696 15.4147 11.356 15.0943 11.0356 14.9875Z" fill="white"/>
<path d="M19.4369 14.9875C19.1165 14.8807 18.7605 15.0943 18.6893 15.4147L18.0129 17.871L17.0162 15.3435C16.8738 15.0231 16.5178 14.8807 16.1974 14.9875C16.0194 15.0587 15.9126 15.1655 15.8414 15.3435L14.8447 17.871L14.1683 15.4147C14.0615 15.0943 13.7411 14.8807 13.4207 14.9875C13.1003 15.0943 12.8867 15.4147 12.9935 15.7351L14.1683 20.007C14.2751 20.3273 14.5955 20.5409 14.9515 20.4341C15.1295 20.3985 15.3074 20.2561 15.3786 20.0782L16.4822 17.2659L17.5858 20.0782C17.6926 20.3273 17.9061 20.4697 18.1553 20.4697H18.1909C18.4757 20.4697 18.6893 20.2561 18.7605 20.007L19.9353 15.7351C19.9709 15.4147 19.7573 15.0943 19.4369 14.9875Z" fill="white"/>
<path d="M27.8026 14.9875C27.4822 14.8807 27.1262 15.0943 27.055 15.4147L26.3786 17.871L25.3819 15.3435C25.2395 15.0231 24.8835 14.8807 24.5631 14.9875C24.3851 15.0587 24.2783 15.1655 24.2071 15.3435L23.2104 17.871L22.534 15.4147C22.4272 15.0943 22.1068 14.8807 21.7864 14.9875C21.466 15.0943 21.2524 15.4147 21.3592 15.7351L22.534 20.007C22.6052 20.2561 22.8188 20.4341 23.1036 20.4697C23.3883 20.4697 23.6019 20.3273 23.7087 20.0782L24.8123 17.2659L25.9159 20.0782C26.0227 20.3273 26.2362 20.4697 26.4854 20.4697H26.521C26.8058 20.4697 27.0194 20.2561 27.0906 20.007L28.2654 15.7351C28.3366 15.4147 28.1586 15.0943 27.8026 14.9875Z" fill="white"/>
<path d="M37.1294 14.5248C35.7055 14.5248 34.5307 15.6995 34.5307 17.1235C34.5307 18.5474 35.7055 19.7222 37.1294 19.7222C37.5922 19.7222 38.0906 19.5798 38.4822 19.3306L40.0129 20.8613C40.2621 21.1105 40.6537 21.1105 40.9029 20.8613C41.1521 20.6121 41.1521 20.2206 40.9029 19.9714L39.3722 18.4406C40.1197 17.2303 39.7282 15.6283 38.5178 14.8807C38.055 14.6316 37.5922 14.5248 37.1294 14.5248ZM35.7411 17.1235C35.7411 16.3759 36.3463 15.7707 37.0939 15.7707C37.8414 15.7707 38.4466 16.3759 38.4466 17.1235C38.4466 17.871 37.8414 18.4762 37.0939 18.4762C36.3819 18.4762 35.7767 17.871 35.7411 17.1235Z" fill="white"/>
</svg>
