<svg width="40" height="33" viewBox="0 0 40 33" fill="none" xmlns="http://www.w3.org/2000/svg">
<path d="M36.7364 0.000488281H3.2636C2.39834 0.00146282 1.56879 0.345618 0.956962 0.957451C0.34513 1.56928 0.000974544 2.39883 0 3.26409V29.0381C0.00106316 29.9922 0.380513 30.9068 1.0551 31.5814C1.72969 32.256 2.64432 32.6354 3.59833 32.6365H36.4017C37.3557 32.6354 38.2703 32.256 38.9449 31.5814C39.6195 30.9068 39.9989 29.9922 40 29.0381V3.26409C39.999 2.39883 39.6549 1.56928 39.043 0.957451C38.4312 0.345618 37.6017 0.00146282 36.7364 0.000488281ZM38.8285 3.26409V7.17471H16.2805L19.1197 1.17204H36.7364C37.2911 1.17266 37.8228 1.39327 38.215 1.78547C38.6072 2.17767 38.8278 2.70943 38.8285 3.26409ZM3.2636 1.17204H17.8243L14.9844 7.17471H1.17155V3.26409C1.17217 2.70943 1.39278 2.17767 1.78498 1.78547C2.17718 1.39327 2.70894 1.17266 3.2636 1.17204ZM36.4017 31.4649H3.59833C2.95492 31.4642 2.33807 31.2083 1.88312 30.7534C1.42816 30.2984 1.17226 29.6815 1.17155 29.0381V8.34626H38.8285V29.0381C38.8277 29.6815 38.5718 30.2984 38.1169 30.7534C37.6619 31.2083 37.0451 31.4642 36.4017 31.4649Z" fill="white"/>
<path d="M5.79749 6.09823C6.17816 6.09823 6.55027 5.98535 6.86679 5.77386C7.1833 5.56237 7.42999 5.26178 7.57567 4.91009C7.72134 4.5584 7.75946 4.17141 7.68519 3.79805C7.61093 3.4247 7.42762 3.08176 7.15845 2.81258C6.88928 2.54341 6.54633 2.3601 6.17298 2.28584C5.79962 2.21157 5.41263 2.24969 5.06094 2.39536C4.70925 2.54104 4.40866 2.78773 4.19717 3.10424C3.98568 3.42076 3.8728 3.79288 3.8728 4.17354C3.87333 4.68384 4.07628 5.17308 4.43712 5.53391C4.79795 5.89475 5.28719 6.0977 5.79749 6.09823ZM5.79749 3.4204C5.94645 3.4204 6.09206 3.46458 6.21591 3.54733C6.33976 3.63009 6.4363 3.74771 6.4933 3.88533C6.5503 4.02295 6.56522 4.17438 6.53616 4.32047C6.5071 4.46657 6.43537 4.60076 6.33004 4.70609C6.22471 4.81142 6.09051 4.88315 5.94442 4.91221C5.79833 4.94127 5.64689 4.92635 5.50928 4.86935C5.37166 4.81235 5.25403 4.71582 5.17128 4.59196C5.08852 4.46811 5.04435 4.3225 5.04435 4.17354C5.04462 3.97388 5.12405 3.78247 5.26523 3.64129C5.40642 3.5001 5.59783 3.42067 5.79749 3.4204Z" fill="white"/>
<path d="M11.1719 6.09823C11.5525 6.09823 11.9247 5.98535 12.2412 5.77386C12.5577 5.56237 12.8044 5.26178 12.9501 4.91009C13.0957 4.5584 13.1339 4.17141 13.0596 3.79805C12.9853 3.4247 12.802 3.08176 12.5328 2.81258C12.2637 2.54341 11.9207 2.3601 11.5474 2.28584C11.174 2.21157 10.787 2.24969 10.4353 2.39536C10.0836 2.54104 9.78305 2.78773 9.57156 3.10424C9.36008 3.42076 9.2472 3.79288 9.2472 4.17354C9.24773 4.68384 9.45068 5.17308 9.81151 5.53391C10.1723 5.89475 10.6616 6.0977 11.1719 6.09823ZM11.1719 3.4204C11.3208 3.4204 11.4665 3.46458 11.5903 3.54733C11.7142 3.63009 11.8107 3.74771 11.8677 3.88533C11.9247 4.02295 11.9396 4.17438 11.9106 4.32047C11.8815 4.46657 11.8098 4.60076 11.7044 4.70609C11.5991 4.81142 11.4649 4.88315 11.3188 4.91221C11.1727 4.94127 11.0213 4.92635 10.8837 4.86935C10.7461 4.81235 10.6284 4.71582 10.5457 4.59196C10.4629 4.46811 10.4187 4.3225 10.4187 4.17354C10.419 3.97388 10.4984 3.78247 10.6396 3.64129C10.7808 3.5001 10.9722 3.42067 11.1719 3.4204Z" fill="white"/>
<path d="M21.1789 4.75932H36.1563C36.3117 4.75932 36.4607 4.6976 36.5705 4.58775C36.6804 4.47789 36.7421 4.3289 36.7421 4.17354C36.7421 4.01819 36.6804 3.86919 36.5705 3.75934C36.4607 3.64948 36.3117 3.58777 36.1563 3.58777H21.1789C21.0236 3.58777 20.8746 3.64948 20.7647 3.75934C20.6549 3.86919 20.5931 4.01819 20.5931 4.17354C20.5931 4.3289 20.6549 4.47789 20.7647 4.58775C20.8746 4.6976 21.0236 4.75932 21.1789 4.75932Z" fill="white"/>
<path d="M5.79749 18.3603H12.4462C12.6015 18.3602 12.7505 18.2985 12.8603 18.1887C12.9701 18.0788 13.0319 17.9299 13.032 17.7745V15.3096C13.032 15.1543 12.9703 15.0053 12.8604 14.8954C12.7505 14.7856 12.6015 14.7238 12.4462 14.7238C12.2908 14.7238 12.1418 14.7856 12.032 14.8954C11.9221 15.0053 11.8604 15.1543 11.8604 15.3096V17.1888H6.38326V11.7106H9.84837C10.0037 11.7106 10.1527 11.6489 10.2626 11.539C10.3724 11.4292 10.4341 11.2802 10.4341 11.1248C10.4341 10.9695 10.3724 10.8205 10.2626 10.7106C10.1527 10.6008 10.0037 10.5391 9.84837 10.5391H5.79749C5.64216 10.5392 5.49322 10.6009 5.38338 10.7107C5.27355 10.8206 5.2118 10.9695 5.21172 11.1248V17.7739C5.21167 17.8508 5.22679 17.9271 5.2562 17.9982C5.28562 18.0693 5.32875 18.134 5.38315 18.1884C5.43754 18.2429 5.50213 18.2861 5.57322 18.3156C5.64431 18.3451 5.72052 18.3603 5.79749 18.3603Z" fill="white"/>
<path d="M13.3724 10.6519C13.2469 10.5603 13.0902 10.5223 12.9368 10.5462C12.7833 10.5701 12.6456 10.654 12.554 10.7794L9.48485 14.9796L7.92703 13.5402C7.81291 13.4348 7.66157 13.379 7.5063 13.3851C7.35102 13.3912 7.20454 13.4588 7.09908 13.5729C6.99361 13.687 6.9378 13.8383 6.94392 13.9936C6.95004 14.1489 7.01759 14.2954 7.13172 14.4008L9.17356 16.287C9.28182 16.3871 9.42381 16.4426 9.57121 16.4427C9.58996 16.4427 9.60904 16.4427 9.62778 16.44C9.71004 16.432 9.78967 16.4067 9.86144 16.3658C9.93322 16.3248 9.9955 16.2691 10.0442 16.2023L13.4996 11.4706C13.545 11.4085 13.5777 11.3381 13.5959 11.2633C13.6141 11.1885 13.6174 11.1109 13.6056 11.0349C13.5938 10.9589 13.5671 10.8859 13.5271 10.8202C13.4871 10.7545 13.4345 10.6973 13.3724 10.6519Z" fill="white"/>
<path d="M34.1329 12.1899H20C19.8446 12.1899 19.6956 12.2517 19.5858 12.3615C19.4759 12.4714 19.4142 12.6204 19.4142 12.7757C19.4142 12.9311 19.4759 13.0801 19.5858 13.1899C19.6956 13.2998 19.8446 13.3615 20 13.3615H34.1329C34.2882 13.3615 34.4372 13.2998 34.5471 13.1899C34.6569 13.0801 34.7187 12.9311 34.7187 12.7757C34.7187 12.6204 34.6569 12.4714 34.5471 12.3615C34.4372 12.2517 34.2882 12.1899 34.1329 12.1899Z" fill="white"/>
<path d="M34.1329 15.5372H20C19.8446 15.5372 19.6956 15.5989 19.5858 15.7088C19.4759 15.8186 19.4142 15.9676 19.4142 16.123C19.4142 16.2784 19.4759 16.4273 19.5858 16.5372C19.6956 16.6471 19.8446 16.7088 20 16.7088H34.1329C34.2882 16.7088 34.4372 16.6471 34.5471 16.5372C34.6569 16.4273 34.7187 16.2784 34.7187 16.123C34.7187 15.9676 34.6569 15.8186 34.5471 15.7088C34.4372 15.5989 34.2882 15.5372 34.1329 15.5372Z" fill="white"/>
<path d="M12.4462 25.6366C12.2908 25.6366 12.1418 25.6984 12.032 25.8082C11.9221 25.9181 11.8604 26.0671 11.8604 26.2224V28.1009H6.38326V22.6234H9.84837C10.0037 22.6234 10.1527 22.5617 10.2626 22.4518C10.3724 22.342 10.4341 22.193 10.4341 22.0376C10.4341 21.8823 10.3724 21.7333 10.2626 21.6234C10.1527 21.5136 10.0037 21.4519 9.84837 21.4519H5.79749C5.64213 21.4519 5.49314 21.5136 5.38328 21.6234C5.27343 21.7333 5.21172 21.8823 5.21172 22.0376V28.686C5.21172 28.8414 5.27343 28.9904 5.38328 29.1002C5.49314 29.2101 5.64213 29.2718 5.79749 29.2718H12.4462C12.6015 29.2718 12.7505 29.2101 12.8604 29.1002C12.9703 28.9904 13.032 28.8414 13.032 28.686V26.2224C13.032 26.0671 12.9703 25.9181 12.8604 25.8082C12.7505 25.6984 12.6015 25.6366 12.4462 25.6366Z" fill="white"/>
<path d="M13.3724 21.5647C13.3103 21.5193 13.2398 21.4866 13.1651 21.4684C13.0904 21.4502 13.0128 21.447 12.9368 21.4588C12.8607 21.4707 12.7878 21.4974 12.7221 21.5374C12.6565 21.5775 12.5993 21.6301 12.554 21.6922L9.48485 25.8917L7.92703 24.4524C7.81295 24.3469 7.66165 24.2911 7.50641 24.2972C7.35117 24.3033 7.20471 24.3708 7.09925 24.4848C6.99378 24.5989 6.93795 24.7502 6.94404 24.9055C6.95013 25.0607 7.01764 25.2072 7.13172 25.3126L9.17356 27.1991C9.28182 27.2992 9.42381 27.3548 9.57121 27.3548C9.58996 27.3548 9.60904 27.3548 9.62778 27.3521C9.71 27.344 9.78959 27.3187 9.86135 27.2777C9.9331 27.2368 9.99541 27.1811 10.0442 27.1145L13.4996 22.3831C13.545 22.321 13.5777 22.2506 13.5959 22.1758C13.6141 22.1011 13.6174 22.0235 13.6056 21.9475C13.5938 21.8715 13.5671 21.7986 13.5271 21.7329C13.4871 21.6672 13.4345 21.61 13.3724 21.5647Z" fill="white"/>
<path d="M34.1329 23.1027H20C19.8446 23.1027 19.6956 23.1645 19.5858 23.2743C19.4759 23.3842 19.4142 23.5332 19.4142 23.6885C19.4142 23.8439 19.4759 23.9929 19.5858 24.1027C19.6956 24.2126 19.8446 24.2743 20 24.2743H34.1329C34.2882 24.2743 34.4372 24.2126 34.5471 24.1027C34.6569 23.9929 34.7187 23.8439 34.7187 23.6885C34.7187 23.5332 34.6569 23.3842 34.5471 23.2743C34.4372 23.1645 34.2882 23.1027 34.1329 23.1027Z" fill="white"/>
<path d="M34.1329 26.45H20C19.8446 26.45 19.6956 26.5117 19.5858 26.6216C19.4759 26.7315 19.4142 26.8804 19.4142 27.0358C19.4142 27.1912 19.4759 27.3402 19.5858 27.45C19.6956 27.5599 19.8446 27.6216 20 27.6216H34.1329C34.2882 27.6216 34.4372 27.5599 34.5471 27.45C34.6569 27.3402 34.7187 27.1912 34.7187 27.0358C34.7187 26.8804 34.6569 26.7315 34.5471 26.6216C34.4372 26.5117 34.2882 26.45 34.1329 26.45Z" fill="white"/>
</svg>
