<svg width="43" height="40" viewBox="0 0 43 40" fill="none" xmlns="http://www.w3.org/2000/svg">
<path d="M24.3211 4.1725C24.6667 4.1725 24.9468 3.89244 24.9468 3.54681V3.54206C24.9468 3.19643 24.6667 2.9187 24.3211 2.9187C23.9756 2.9187 23.6954 3.20118 23.6954 3.54673C23.6954 3.89228 23.9756 4.1725 24.3211 4.1725Z" fill="white"/>
<path d="M21.228 4.1725C21.5735 4.1725 21.8537 3.89244 21.8537 3.54681V3.54206C21.8537 3.19643 21.5735 2.9187 21.228 2.9187C20.8824 2.9187 20.6023 3.20118 20.6023 3.54673C20.6023 3.89228 20.8824 4.1725 21.228 4.1725Z" fill="white"/>
<path d="M18.1348 4.1725C18.4804 4.1725 18.7605 3.89244 18.7605 3.54681V3.54206C18.7605 3.19643 18.4804 2.9187 18.1348 2.9187C17.7893 2.9187 17.5091 3.20118 17.5091 3.54673C17.5091 3.89228 17.7893 4.1725 18.1348 4.1725Z" fill="white"/>
<path d="M10.3385 2.92112L3.9345 2.91637C3.93434 2.91637 3.93425 2.91637 3.93409 2.91637C3.5887 2.91637 3.30865 3.19618 3.3084 3.54156C3.30815 3.88719 3.58812 4.1675 3.93367 4.16775L10.3381 4.1725C10.6834 4.1725 10.9635 3.89269 10.9637 3.54731C10.9639 3.20177 10.684 2.92137 10.3385 2.92112Z" fill="white"/>
<path d="M23.9853 9.06039H14.72C14.1416 9.06039 13.671 9.53099 13.671 10.1094V12.9024C13.671 13.482 14.1416 13.9537 14.72 13.9537H23.9853C24.5637 13.9537 25.0343 13.4821 25.0343 12.9024V10.1094C25.0343 9.53099 24.5637 9.06039 23.9853 9.06039ZM23.783 12.7023H14.9224V10.3119H23.783V12.7023Z" fill="white"/>
<path d="M24.4086 16.1811H14.2968C13.9512 16.1811 13.6711 16.4611 13.6711 16.8068C13.6711 17.1524 13.9512 17.4324 14.2968 17.4324H24.4086C24.7542 17.4324 25.0343 17.1524 25.0343 16.8068C25.0343 16.4611 24.7542 16.1811 24.4086 16.1811Z" fill="white"/>
<path d="M15.841 19.1443H14.2968C13.9512 19.1443 13.6711 19.4243 13.6711 19.7699C13.6711 20.1156 13.9512 20.3956 14.2968 20.3956H15.841C16.1865 20.3956 16.4666 20.1156 16.4666 19.7699C16.4666 19.4243 16.1865 19.1443 15.841 19.1443Z" fill="white"/>
<path d="M24.4086 19.1443H19.2321C18.8866 19.1443 18.6064 19.4243 18.6064 19.7699C18.6064 20.1156 18.8866 20.3956 19.2321 20.3956H24.4086C24.7542 20.3956 25.0343 20.1156 25.0343 19.7699C25.0343 19.4243 24.7542 19.1443 24.4086 19.1443Z" fill="white"/>
<path d="M37.1077 36.2471H37.0865C36.7409 36.2471 36.4608 36.5272 36.4608 36.8728C36.4608 37.2184 36.7409 37.4985 37.0865 37.4985H37.1077C37.4533 37.4985 37.7334 37.2184 37.7334 36.8728C37.7334 36.5272 37.4533 36.2471 37.1077 36.2471Z" fill="white"/>
<path d="M40.934 23.8172H36.0024V13.0513C36.0024 12.0778 35.2104 11.2858 34.2369 11.2858H28.2553V1.72589C28.2553 0.774508 27.4813 0.000488281 26.5299 0.000488281H1.72532C0.773936 0.000571707 0 0.774508 0 1.72589V21.8913C0 22.8439 0.773936 23.6189 1.72532 23.6189H4.54518V31.7221C4.54518 32.6956 5.33722 33.4876 6.3107 33.4876H15.0055L14.2659 35.9609H13.015C11.9019 35.9609 10.9965 36.8675 10.9965 37.9819V38.9586C10.9965 39.5331 11.4639 40.0005 12.0384 40.0005H28.5093C29.0839 40.0005 29.5512 39.5331 29.5512 38.9586V37.9819C29.5512 36.8675 28.6447 35.9609 27.5303 35.9609H26.2796L25.5416 33.4876H31.5017V38.2208C31.5017 39.2021 32.299 40.0005 33.2791 40.0005H40.934C41.9154 40.0005 42.7137 39.2021 42.7137 38.2208V25.5947C42.7137 24.6146 41.9154 23.8172 40.934 23.8172ZM1.25138 21.8913V7.08847H12.6839C13.0294 7.08847 13.3096 6.80841 13.3096 6.46278C13.3096 6.11715 13.0294 5.83709 12.6839 5.83709H1.25138V1.72589C1.25138 1.46452 1.46395 1.25187 1.72532 1.25187H26.5299C26.7913 1.25187 27.0039 1.46452 27.0039 1.72589V5.837H15.5737C15.2282 5.837 14.9481 6.11706 14.9481 6.46269C14.9481 6.80832 15.2282 7.08838 15.5737 7.08838H27.0039V21.8912C27.0039 22.1537 26.7913 22.3675 26.5299 22.3675H1.72532C1.46395 22.3676 1.25138 22.1539 1.25138 21.8913ZM26.5299 23.6189C27.4813 23.6189 28.2553 22.8439 28.2553 21.8913V12.5371H34.2369C34.5204 12.5371 34.751 12.7678 34.751 13.0513V23.8172H33.2791C32.299 23.8172 31.5017 24.6146 31.5017 25.5947V29.0721H5.79656V23.619H26.5299V23.6189ZM28.2998 37.9819V38.7491H12.2478V37.9819C12.2478 37.5575 12.592 37.2122 13.015 37.2122H27.5303C27.9546 37.2122 28.2998 37.5575 28.2998 37.9819ZM21.708 32.2363C21.3625 32.2363 21.0823 32.5163 21.0823 32.862C21.0823 33.2076 21.3625 33.4876 21.708 33.4876H24.2356L24.9737 35.9609H15.572L16.3116 33.4876H18.8301C19.1756 33.4876 19.4558 33.2076 19.4558 32.862C19.4558 32.5163 19.1756 32.2363 18.8301 32.2363H6.3107C6.02723 32.2363 5.79656 32.0056 5.79656 31.7221V30.3234H31.5018V32.2363H21.708ZM41.4624 38.2208C41.4624 38.5121 41.2253 38.7491 40.934 38.7491H33.2791C32.989 38.7491 32.7531 38.5121 32.7531 38.2208V25.5947C32.7531 25.3046 32.989 25.0686 33.2791 25.0686H40.934C41.2253 25.0686 41.4624 25.3046 41.4624 25.5947V38.2208Z" fill="white"/>
<path d="M10.6502 9.06039H4.27221C3.69249 9.06039 3.2208 9.53099 3.2208 10.1094V19.3442C3.2208 19.9239 3.6924 20.3956 4.27221 20.3956H10.6502C11.2299 20.3956 11.7015 19.924 11.7015 19.3442V10.1095C11.7015 9.53099 11.2299 9.06039 10.6502 9.06039ZM10.4501 19.1443H4.47226V10.3118H10.4501V19.1443Z" fill="white"/>
</svg>
